<?xml version="1.0" encoding="utf-8"?>
<!-- Generator: Adobe Illustrator 22.0.1, SVG Export Plug-In . SVG Version: 6.00 Build 0)  -->
<svg version="1.1" id="Capa_1" xmlns="http://www.w3.org/2000/svg" xmlns:xlink="http://www.w3.org/1999/xlink" x="0px" y="0px"
	 viewBox="0 0 1366 768" style="enable-background:new 0 0 1366 768;" xml:space="preserve">
<style type="text/css">
	.st0{fill:#300827;}
	.st1{fill:#C9292C;}
</style>
<g>
	<g>
		<path class="st0" d="M550.7,223.6c-3-1.1-5.7-2.7-8-4.8c-1.4-1.3-2.5-2.7-3.4-4.1c-0.9-1.5-1.6-2.9-2.1-4.4s-0.9-3-1.1-4.5
			c-0.2-1.5-0.3-3-0.3-4.4c0-1,0.1-2.1,0.3-3.4s0.5-2.7,1-4.1s1.1-2.9,2-4.4c0.8-1.5,1.9-2.9,3.2-4.2c0.8-0.9,1.8-1.7,2.9-2.5
			c1.1-0.8,2.4-1.5,3.8-2c1.4-0.5,3-1,4.8-1.3s3.8-0.5,6-0.5c1.2,0,2.5,0,4,0.1s3,0.3,4.4,0.6c1.1,0.2,2.1,0.4,3.1,0.5
			c0.9,0.2,1.9,0.3,2.8,0.4c0.3,0,0.5,0.1,0.6,0.2s0.1,0.2,0.1,0.4c0,0.2,0,0.6-0.1,1c-0.1,0.5-0.1,1.2-0.2,2.3c0,0.5-0.1,1-0.1,1.6
			s0,1.2,0,1.8c0,0.6,0,1.1,0,1.6s0,0.8,0,1.1c0,0.8-0.2,1.2-0.5,1.2s-0.5-0.4-0.5-1.2c0-1.1-0.2-2.3-0.6-3.4c-0.4-1.1-1-2-1.8-2.7
			c-1-0.9-2.5-1.7-4.6-2.4c-2.1-0.7-4.4-1-6.9-1c-1.9,0-3.6,0.1-5,0.4s-2.7,0.6-3.7,1c-1.1,0.4-2,0.9-2.7,1.4s-1.3,1-1.8,1.5
			c-2.1,2.1-3.5,4.4-4.2,7s-1,5.4-1,8.4c0,2.8,0.5,5.5,1.5,8.1s2.4,4.9,4.3,6.9c1.8,2,4,3.6,6.6,4.8c2.6,1.2,5.4,1.8,8.5,1.8
			c2.2,0,4.1-0.2,5.8-0.6s3.1-1.2,4.2-2.4c0.6-0.7,1.1-1.5,1.5-2.6c0.4-1,0.6-1.8,0.7-2.4c0.1-0.6,0.3-0.9,0.6-0.9
			c0.2,0,0.3,0.1,0.3,0.3c0.1,0.2,0.1,0.4,0.1,0.6c0,0.1,0,0.5-0.1,1.1s-0.2,1.3-0.3,2.1c-0.1,0.8-0.3,1.6-0.4,2.4
			c-0.2,0.8-0.3,1.5-0.5,2c-0.2,0.6-0.4,0.9-0.5,1.1s-0.5,0.4-1,0.6c-0.6,0.2-1.3,0.4-2.1,0.6s-1.7,0.3-2.6,0.4
			c-0.9,0.1-1.9,0.2-2.9,0.2c-1,0.1-1.9,0.1-2.9,0.1C557.4,225.2,553.7,224.6,550.7,223.6"/>
		<path class="st0" d="M582,191c0-1.5,0-2.8,0-3.8s0-1.8,0-2.3c0-0.6,0-1.1,0-1.4c0-0.4,0-0.7-0.1-1c-0.1-0.7-0.2-1.2-0.4-1.5
			s-0.6-0.6-1.3-0.7c-0.2-0.1-0.4-0.1-0.6-0.1c-0.3,0-0.5,0-0.7,0s-0.3-0.1-0.3-0.2c0-0.2,0.2-0.3,0.6-0.3c0.4,0,0.9,0,1.4,0
			s0.9,0,1.4,0c0.4,0,0.8,0,1.1,0s0.5,0,0.6,0s0.3,0,0.6,0s0.7,0,1,0c0.4,0,0.8,0,1.2,0s0.7,0,1,0c0.4,0,0.6,0.1,0.6,0.3
			c0,0.2-0.1,0.2-0.3,0.2h-0.4c-0.1,0-0.3,0-0.6,0.1c-0.5,0.1-0.9,0.3-1.1,0.7c-0.2,0.4-0.3,0.9-0.4,1.6c0,0.3,0,0.7-0.1,1
			c0,0.4,0,0.8,0,1.4s0,1.4,0,2.3c0,1,0,2.2,0,3.8v5.6c0,1.4,0.1,2.7,0.2,3.7c0.1,1,0.3,2,0.6,2.7c0.3,0.8,0.6,1.4,0.9,2
			c0.4,0.5,0.7,1,1.2,1.4c1,0.9,1.9,1.5,2.8,1.8c0.9,0.3,1.9,0.4,3.1,0.4c1.2,0,2.3-0.3,3.4-0.8c1.1-0.5,2-1.2,2.7-2.1
			c0.9-1.1,1.5-2.5,1.8-4.2c0.3-1.6,0.4-3.5,0.4-5.6v-5c0-1.5,0-2.8,0-3.8s0-1.8,0-2.3c0-0.6,0-1.1,0-1.4c0-0.4,0-0.7-0.1-1
			c0-0.7-0.2-1.2-0.4-1.5s-0.6-0.6-1.3-0.7c-0.2-0.1-0.4-0.1-0.6-0.1c-0.3,0-0.5,0-0.7,0s-0.3-0.1-0.3-0.2c0-0.2,0.2-0.3,0.6-0.3
			c0.4,0,0.9,0,1.4,0s0.9,0,1.3,0c0.4,0,0.7,0,1,0s0.4,0,0.5,0s0.2,0,0.5,0c0.2,0,0.5,0,0.8,0s0.7,0,1,0s0.7,0,1,0
			c0.4,0,0.6,0.1,0.6,0.3c0,0.2-0.1,0.2-0.3,0.2h-0.4c-0.1,0-0.3,0-0.6,0.1c-0.5,0.1-0.9,0.4-1.1,0.7c-0.2,0.3-0.3,0.9-0.4,1.5
			c0,0.3,0,0.7-0.1,1c0,0.4,0,0.8,0,1.4s0,1.4,0,2.3c0,1,0,2.2,0,3.8v4.2c0,1.1,0,2.2-0.1,3.3c-0.1,1.1-0.2,2.2-0.5,3.2
			s-0.6,2-1.1,2.9s-1.1,1.7-1.9,2.4c-0.7,0.6-1.4,1.1-2.1,1.5c-0.7,0.4-1.4,0.7-2.1,0.9c-0.7,0.2-1.3,0.3-2,0.4
			c-0.6,0.1-1.3,0.1-1.8,0.1c-0.3,0-0.8,0-1.4-0.1c-0.6,0-1.3-0.2-2-0.3c-0.8-0.2-1.5-0.5-2.3-0.9s-1.5-0.9-2.2-1.6
			c-0.5-0.5-0.9-1-1.3-1.6c-0.4-0.6-0.8-1.3-1.1-2.1c-0.3-0.8-0.6-1.8-0.7-2.9c-0.2-1.1-0.3-2.4-0.3-3.8V191H582z"/>
		<path class="st0" d="M616.5,191c0-1.5,0-2.8,0-3.8s0-1.8,0-2.3c0-0.6,0-1.1,0-1.4c0-0.4,0-0.7-0.1-1c-0.1-0.7-0.2-1.2-0.4-1.5
			s-0.6-0.6-1.3-0.7c-0.2-0.1-0.4-0.1-0.6-0.1c-0.3,0-0.5,0-0.7,0s-0.3-0.1-0.3-0.2c0-0.2,0.2-0.3,0.6-0.3c0.4,0,0.9,0,1.4,0
			s1,0,1.4,0l1.6,0.1c0.1,0,0.5,0,1.4,0s1.8,0,2.8,0c1.1,0,2.1,0,3,0s1.5,0,1.7,0c0.7-0.1,1.3-0.1,1.7-0.2l0.3-0.1l0.3-0.1
			c0.1,0,0.2,0.1,0.2,0.4c0,0.1,0,0.3-0.1,0.6c-0.1,0.3-0.1,0.7-0.2,1.3c0,0.1,0,0.3,0,0.5s0,0.5-0.1,0.8c0,0.3,0,0.5-0.1,0.8
			c0,0.3,0,0.4-0.1,0.5l-0.1,0.3l-0.2,0.1c-0.2,0-0.3-0.2-0.3-0.5c0-0.1,0-0.3,0-0.6c0-0.3-0.1-0.6-0.2-0.8
			c-0.1-0.3-0.4-0.6-0.7-0.8c-0.3-0.2-1-0.4-2.1-0.5c-0.2,0-0.5,0-1-0.1c-0.5,0-1.1,0-1.7,0c-0.6,0-1.2,0-1.7,0s-0.8,0-0.9,0
			c-0.2,0-0.2,0.1-0.2,0.4c0,0,0,17.4,0,18.1s0,1.4,0,2.1s0,1.4,0,2s0,1,0,1.2c0,0.7,0.1,1.2,0.2,1.7c0.1,0.4,0.3,0.8,0.7,1
			c0.3,0.2,0.8,0.4,1.3,0.5c0.6,0.1,1.3,0.1,2.3,0.1c0.5,0,1.1,0,1.9-0.1c0.7,0,1.3-0.2,1.9-0.4c0.5-0.2,0.9-0.5,1.2-1
			c0.3-0.4,0.5-1.1,0.6-1.9c0.1-0.4,0.2-0.6,0.3-0.6l0.2,0.2v0.4c0,0.1,0,0.3-0.1,0.6c0,0.3-0.1,0.7-0.1,1.1
			c-0.1,0.4-0.1,0.8-0.2,1.2c-0.1,0.4-0.1,0.7-0.2,0.9c-0.1,0.3-0.2,0.5-0.2,0.6l-0.4,0.3c-0.2,0.1-0.3,0.1-0.6,0.1
			c-0.2,0-0.5,0-0.9,0c-1.5,0-2.7,0-3.8,0s-2-0.1-2.7-0.1c-0.8-0.1-1.4-0.1-1.9-0.1s-0.9,0-1.2,0c-0.1,0-0.2,0-0.5,0s-0.6,0-1,0
			s-0.8,0-1.2,0s-0.8,0-1,0c-0.4,0-0.6-0.1-0.6-0.3c0-0.2,0.1-0.2,0.3-0.2s0.4,0,0.6,0c0.2,0,0.4-0.1,0.6-0.1
			c0.4-0.1,0.7-0.3,0.8-0.7c0.1-0.4,0.3-0.9,0.3-1.5c0.1-0.8,0.2-2,0.2-3.5s0-3.2,0-5.1L616.5,191z"/>
		<path class="st0" d="M741.7,198c0,1.9,0,3.6,0,5.1s0.1,2.7,0.2,3.5c0,0.6,0.2,1.1,0.3,1.5c0.2,0.4,0.6,0.6,1.2,0.7
			c0.3,0.1,0.6,0.1,1,0.1c0.3,0,0.6,0,0.8,0s0.3,0.1,0.3,0.2c0,0.2-0.2,0.3-0.6,0.3c-0.5,0-1.1,0-1.6,0s-1,0-1.5,0s-0.8,0-1.1,0
			s-0.5,0-0.5,0c-0.1,0-0.2,0-0.5,0s-0.6,0-1,0s-0.8,0-1.2,0s-0.8,0-1,0c-0.4,0-0.6-0.1-0.6-0.3c0-0.2,0.1-0.2,0.3-0.2s0.4,0,0.6,0
			c0.2,0,0.4-0.1,0.6-0.1c0.4-0.1,0.7-0.3,0.8-0.7c0.1-0.4,0.3-0.9,0.3-1.5c0.1-0.8,0.2-2,0.2-3.5s0-3.2,0-5.1v-7c0-1.5,0-2.8,0-3.8
			s0-1.8,0-2.3c0-0.6,0-1.1,0-1.4c0-0.4,0-0.7-0.1-1c-0.1-1.3-0.5-2-1.3-2.2c-0.2-0.1-0.4-0.1-0.7-0.1c-0.2,0-0.4,0-0.5,0
			c-0.2,0-0.3-0.1-0.3-0.2c0-0.2,0.2-0.3,0.6-0.3c0.3,0,0.7,0,1.1,0c0.4,0,0.9,0,1.2,0c0.4,0,0.7,0,1,0s0.5,0,0.5,0
			c0.1,0,0.2,0,0.5,0s0.6,0,1,0s0.8,0,1.2,0s0.8,0,1,0c0.4,0,0.6,0.1,0.6,0.3c0,0.2-0.1,0.2-0.3,0.2h-0.4c-0.1,0-0.3,0-0.6,0.1
			c-0.5,0.1-0.9,0.3-1.1,0.7c-0.2,0.4-0.3,0.9-0.4,1.6c0,0.3,0,0.7-0.1,1c0,0.4,0,0.8,0,1.4s0,1.4,0,2.3c0,1,0,2.2,0,3.8L741.7,198z
			"/>
		<path class="st0" d="M782.5,200.5c0,1.6,0,3,0,4.1c0,1.2-0.1,2.2-0.1,3.1c-0.1,0.9-0.2,1.7-0.4,2.4c-0.2,0.7-0.4,1.4-0.7,2.1
			c-0.4,1-1.1,2-2,3s-2.1,2-3.7,3.1c-0.3,0.2-0.5,0.4-0.8,0.6s-0.5,0.3-0.7,0.4l-0.3,0.1c-0.2,0-0.3-0.1-0.3-0.2l0.1-0.3
			c0.1-0.1,0.2-0.2,0.4-0.3c0.2-0.1,0.5-0.3,0.7-0.5s0.5-0.4,0.6-0.6c0.6-0.7,1.2-1.3,1.6-2c0.5-0.7,0.9-1.5,1.2-2.6s0.5-2.4,0.7-4
			s0.2-3.7,0.2-6.3v-11.5c0-1.5,0-2.8,0-3.8s0-1.8,0-2.3c0-0.6,0-1.1,0-1.4c0-0.4,0-0.7-0.1-1c0-0.7-0.2-1.2-0.4-1.5
			s-0.6-0.6-1.3-0.7c-0.2-0.1-0.4-0.1-0.6-0.1c-0.3,0-0.5,0-0.7,0s-0.3-0.1-0.3-0.2c0-0.2,0.2-0.3,0.6-0.3c0.4,0,0.9,0,1.4,0
			s1,0,1.4,0s0.8,0,1.1,0s0.5,0,0.5,0c0.1,0,0.2,0,0.5,0s0.6,0,1,0s0.8,0,1.2,0s0.8,0,1,0c0.4,0,0.6,0.1,0.6,0.3
			c0,0.2-0.1,0.2-0.3,0.2h-0.4c-0.1,0-0.3,0-0.6,0.1c-0.5,0.1-0.9,0.3-1.1,0.7c-0.2,0.4-0.3,0.9-0.4,1.6c0,0.3,0,0.7-0.1,1
			c0,0.4,0,0.8,0,1.4s0,1.4,0,2.3c0,1,0,2.2,0,3.8v9.3H782.5z"/>
		<path class="st0" d="M789.2,196.9c0.4-1.8,1-3.5,1.8-5.2s1.8-3.3,3-4.9c1.2-1.5,2.6-2.9,4.3-4.1s3.6-2.1,5.7-2.8
			c2.1-0.7,4.5-1,7.2-1c3.2,0,6.2,0.5,8.9,1.5c2.8,1,5.1,2.5,7.1,4.4s3.6,4.2,4.7,6.9c1.1,2.7,1.7,5.8,1.7,9.2
			c0,3.3-0.5,6.4-1.6,9.3s-2.6,5.4-4.6,7.6s-4.4,3.9-7.2,5.2c-2.8,1.3-6,1.9-9.4,1.9c-3.9,0-7.3-0.7-10.1-2.1s-5.1-3.2-6.9-5.4
			c-1.8-2.2-3.1-4.7-4-7.4c-0.8-2.7-1.3-5.4-1.3-8.1C788.6,200.3,788.8,198.6,789.2,196.9 M795.4,209.5c0.9,2.8,2.2,5.1,3.9,7.1
			s3.6,3.5,5.8,4.5c2.2,1.1,4.6,1.6,7.2,1.6c1.3,0,2.8-0.2,4.6-0.7s3.5-1.5,5.2-2.9s3.1-3.5,4.2-6.1c1.2-2.6,1.7-6.1,1.7-10.3
			c0-3.5-0.5-6.6-1.5-9.3c-1-2.7-2.3-5-3.9-6.8c-1.6-1.8-3.5-3.2-5.6-4.1s-4.3-1.4-6.5-1.4c-2.4,0-4.6,0.4-6.7,1.2
			c-2,0.8-3.8,2-5.3,3.6s-2.7,3.6-3.5,6s-1.3,5.2-1.3,8.4C794,203.6,794.5,206.7,795.4,209.5z"/>
		<path class="st0" d="M656.4,201.3c-1.3-1.7-2.8-3.6-4.4-5.7c1.7-1.6,2.4-3,3.1-4.5c0.7-1.5,1.1-3,1.1-4.5c0-0.7-0.1-1.3-0.3-1.9
			s-0.4-1.1-0.7-1.5s-0.6-0.8-0.9-1.2c-0.3-0.3-0.6-0.6-0.8-0.8c-1-0.8-2.2-1.2-3.4-1.4c-1.2-0.2-2.5-0.3-3.7-0.3
			c-0.3,0-0.7,0-1.2,0s-0.9,0-1.4,0s-0.9,0-1.3,0c-0.4,0-0.6,0-0.7,0c-0.1,0-0.2,0-0.5,0s-0.7,0-1.1,0c-0.4,0-0.9,0-1.4,0
			s-1,0-1.4,0s-0.6,0.1-0.6,0.3c0,0.2,0.1,0.2,0.3,0.2s0.4,0,0.7,0s0.5,0,0.6,0.1c0.6,0.1,1.1,0.4,1.3,0.7c0.2,0.3,0.3,0.9,0.4,1.5
			c0,0.3,0,0.7,0.1,1c0,0.4,0,0.8,0,1.4s0,1.4,0,2.3c0,1,0,2.2,0,3.8v7c0,1.9,0,3.6,0,5.1s-0.1,2.7-0.2,3.5
			c-0.1,0.6-0.2,1.1-0.3,1.5s-0.4,0.6-0.8,0.7c-0.2,0.1-0.4,0.1-0.6,0.1c-0.2,0-0.4,0-0.6,0c-0.2,0-0.3,0.1-0.3,0.2
			c0,0.2,0.2,0.3,0.6,0.3c0.3,0,0.6,0,1,0s0.8,0,1.2,0s0.9,0,1.4-0.1c0.1,0,0.2,0,0.5,0s0.7,0,1.1,0c0.5,0,1,0,1.5,0s1.1,0,1.6,0
			c0.4,0,0.6-0.1,0.6-0.3c0-0.2-0.1-0.2-0.3-0.2s-0.5,0-0.8,0s-0.7-0.1-0.9-0.1c-0.6-0.1-1-0.3-1.2-0.7c-0.2-0.4-0.3-0.9-0.3-1.5
			c-0.1-0.8-0.2-2-0.2-3.5s0-3.2,0-5.1v-1c0-0.2,0.1-0.3,0.3-0.3l4.8,0.1c0.2,0,0.3,0.1,0.5,0.2c0.2,0.3,0.4,0.6,0.8,1.1
			c0.3,0.4,0.7,0.9,1.1,1.4c0.4,0.5,0.8,1.1,1.2,1.7s0.8,1.2,1.2,1.7c0.2,0.3,0.4,0.6,0.6,0.8c22.9,30.2,49.4,10.2,49.4,10.2
			C675.3,228.1,656.4,201.3,656.4,201.3 M650.5,194.8c-0.4,0.3-0.9,0.5-1.4,0.6s-1,0.1-1.5,0.1c-0.9,0-1.7-0.1-2.5-0.2
			s-1.3-0.3-1.6-0.5c-0.2-0.1-0.3-0.3-0.3-0.5v-13c0-0.2,0.1-0.4,0.3-0.5s0.5-0.1,1-0.2s1-0.1,1.6-0.1c2.1,0,3.7,0.7,4.9,2.1
			s1.8,3.3,1.8,5.8c0,1.5-0.2,2.8-0.7,3.8C651.8,193.6,651.2,194.3,650.5,194.8z"/>
		<path class="st0" d="M732,179.5c-0.3,0-0.6,0-0.9,0c-0.3,0-0.6,0-0.9,0c-0.3,0-0.6,0-0.8,0s-0.4,0-0.4,0c-0.2,0-0.7,0-1.5-0.1
			c-0.8,0-1.5-0.1-2.3-0.1c-0.6,0-0.9,0.1-0.9,0.3c0,0.2,0.1,0.2,0.4,0.2c0.2,0,0.4,0,0.7,0s0.5,0.1,0.8,0.1
			c0.2,0.1,0.3,0.2,0.4,0.4c0.1,0.2,0.1,0.3,0.1,0.5s0,0.4-0.1,0.7c-0.1,0.3-0.1,0.5-0.3,0.8c-0.2,0.5-0.4,1.2-0.8,2.3
			c-0.3,1-0.8,2.2-1.3,3.5s-1,2.8-1.6,4.3s-1.2,3-1.7,4.5c-0.6,1.5-1.1,2.9-1.6,4.1c-0.5,1.3-1,2.4-1.3,3.3l-4.2-11.3
			c0,0-19.3-49.1-62.5-21c0,0,39.7-22,60.1,24.2l0,0l4.3,11.1c0.4,1,0.6,1.6,0.8,1.9s0.4,0.5,0.6,0.5c0.2,0,0.4-0.2,0.5-0.6
			c0.2-0.4,0.5-1.2,1.1-2.4c0.4-1,1.1-2.5,1.9-4.6c0.9-2.1,1.9-4.5,3.1-7.5c0.5-1.2,1-2.4,1.5-3.6s0.9-2.2,1.3-3.2
			c0.4-1,0.7-1.8,1-2.5s0.5-1.2,0.6-1.5c0.3-0.7,0.5-1.2,0.7-1.7c0.2-0.4,0.4-0.8,0.6-1.1c0.2-0.3,0.3-0.5,0.5-0.6l0.4-0.3
			c0.4-0.2,0.7-0.4,1.1-0.4c0.4,0,0.6-0.1,0.8-0.1c0.3,0,0.5-0.1,0.5-0.3C732.7,179.6,732.4,179.5,732,179.5"/>
		<path class="st0" d="M620.5,196.3c-0.6-0.3-1-0.5-1.3-0.6c-0.4-0.2-0.7-0.4-1.1-0.6c-0.4-0.2-0.9-0.3-1.5-0.3
			c-0.3,0-0.6,0.1-0.9,0.2c-0.3,0.1-0.5,0.3-0.7,0.4c-0.2,0.2-0.3,0.3-0.5,0.5l-0.3,0.4c-0.2,0.2-0.4,0.4-0.5,0.4l-0.2-0.2l0.1-0.3
			l0.2-0.3c0.1-0.2,0.3-0.5,0.6-0.8c0.2-0.3,0.5-0.6,0.8-0.9s0.6-0.6,1-0.8c0.3-0.2,0.7-0.3,1-0.3c0.5,0,1,0.1,1.5,0.4
			c0.6,0.3,1.1,0.5,1.7,0.8c0.3,0.1,0.7,0.3,1.1,0.4c0.5,0.2,0.8,0.2,1.1,0.2c0.4,0,0.7-0.1,1-0.2s0.5-0.2,0.7-0.4
			c0.2-0.1,0.3-0.3,0.5-0.4l0.2-0.3c0.2-0.3,0.3-0.4,0.5-0.4s0.3,0.1,0.3,0.2s-0.1,0.3-0.2,0.5c-0.1,0.2-0.2,0.4-0.5,0.7
			c-0.2,0.3-0.5,0.6-0.8,0.9s-0.6,0.6-1,0.8c-0.3,0.2-0.7,0.3-1,0.3C621.7,196.7,621.1,196.5,620.5,196.3"/>
		<path class="st0" d="M755.5,191c0-1.5,0-2.8,0-3.8s0-1.8,0-2.3c0-0.6,0-1.1,0-1.4c0-0.4,0-0.7-0.1-1c-0.1-0.7-0.2-1.2-0.4-1.5
			s-0.6-0.6-1.3-0.7c-0.2-0.1-0.4-0.1-0.6-0.1c-0.3,0-0.5,0-0.7,0s-0.3-0.1-0.3-0.2c0-0.2,0.2-0.3,0.6-0.3c0.4,0,0.9,0,1.4,0
			s1,0,1.4,0l1.6,0.1c0.1,0,0.5,0,1.4,0s1.8,0,2.8,0c1.1,0,2.1,0,3,0s1.5,0,1.7,0c0.8-0.1,1.3-0.1,1.7-0.2l0.3-0.1l0.3-0.1
			c0.1,0,0.2,0.1,0.2,0.4c0,0.1,0,0.3-0.1,0.6c-0.1,0.3-0.1,0.7-0.2,1.3c0,0.1,0,0.3,0,0.5s0,0.5-0.1,0.8c0,0.3,0,0.5-0.1,0.8
			c0,0.3,0,0.4-0.1,0.5l-0.1,0.3l-0.2,0.1c-0.2,0-0.3-0.2-0.3-0.5c0-0.1,0-0.3,0-0.6c0-0.3-0.1-0.6-0.2-0.8
			c-0.1-0.3-0.4-0.6-0.7-0.8c-0.3-0.2-1-0.4-2.1-0.5c-0.2,0-0.5,0-1-0.1c-0.5,0-1.1,0-1.7,0c-0.6,0-1.2,0-1.7,0s-0.8,0-0.9,0
			c-0.2,0-0.2,0.1-0.2,0.4c0,0,0,17.4,0,18.1s0,1.4,0,2.1s0,1.4,0,2s0,1,0,1.2c0,0.7,0.1,1.2,0.2,1.7c0.1,0.4,0.3,0.8,0.7,1
			c0.3,0.2,0.8,0.4,1.3,0.5c0.6,0.1,1.3,0.1,2.3,0.1c0.5,0,1.1,0,1.9-0.1c0.7,0,1.3-0.2,1.9-0.4c0.5-0.2,0.9-0.5,1.2-1
			c0.3-0.4,0.5-1.1,0.6-1.9c0.1-0.4,0.2-0.6,0.4-0.6l0.2,0.2v0.4c0,0.1,0,0.3-0.1,0.6c0,0.3-0.1,0.7-0.1,1.1
			c-0.1,0.4-0.1,0.8-0.2,1.2c-0.1,0.4-0.1,0.7-0.2,0.9c-0.1,0.3-0.2,0.5-0.2,0.6l-0.4,0.3c-0.2,0.1-0.4,0.1-0.6,0.1
			c-0.2,0-0.5,0-0.9,0c-1.5,0-2.8,0-3.8,0c-1.1,0-2-0.1-2.7-0.1c-0.8-0.1-1.4-0.1-1.9-0.1s-0.9,0-1.2,0c-0.1,0-0.2,0-0.5,0
			s-0.6,0-1,0s-0.8,0-1.2,0s-0.8,0-1,0c-0.4,0-0.6-0.1-0.6-0.3c0-0.2,0.1-0.2,0.3-0.2s0.4,0,0.6,0c0.2,0,0.4-0.1,0.6-0.1
			c0.4-0.1,0.7-0.3,0.8-0.7c0.1-0.4,0.3-0.9,0.3-1.5c0.1-0.8,0.2-2,0.2-3.5s0-3.2,0-5.1V191H755.5z"/>
		<path class="st0" d="M759.6,196.3c-0.6-0.3-1-0.5-1.3-0.6c-0.4-0.2-0.7-0.4-1.1-0.6c-0.4-0.2-0.9-0.3-1.5-0.3
			c-0.3,0-0.6,0.1-0.9,0.2c-0.3,0.1-0.5,0.3-0.7,0.4c-0.2,0.2-0.3,0.3-0.5,0.5l-0.3,0.4c-0.2,0.2-0.4,0.4-0.5,0.4l-0.2-0.2l0.1-0.3
			l0.2-0.3c0.1-0.2,0.3-0.5,0.6-0.8c0.2-0.3,0.5-0.6,0.8-0.9s0.6-0.6,1-0.8c0.3-0.2,0.7-0.3,1-0.3c0.5,0,1,0.1,1.5,0.4
			c0.6,0.3,1.1,0.5,1.7,0.8c0.3,0.1,0.7,0.3,1.1,0.4c0.5,0.2,0.8,0.2,1.1,0.2c0.4,0,0.7-0.1,1-0.2s0.5-0.2,0.7-0.4
			c0.2-0.1,0.3-0.3,0.5-0.4l0.2-0.3c0.2-0.3,0.3-0.4,0.5-0.4s0.3,0.1,0.3,0.2s-0.1,0.3-0.2,0.5c-0.1,0.2-0.2,0.4-0.5,0.7
			c-0.2,0.3-0.5,0.6-0.8,0.9s-0.6,0.6-1,0.8c-0.3,0.2-0.7,0.3-1,0.3C760.8,196.7,760.1,196.5,759.6,196.3"/>
		<path class="st0" d="M577.2,247.1c-0.5-0.1-0.9-0.2-1.4-0.4l-0.3-0.2c0-0.1,0-0.3,0-0.6c0-0.5,0-1,0-1.4s0-0.7,0.1-0.9
			c0-0.2,0.1-0.3,0.2-0.3l0.1,0.2v0.4l0.1,0.4c0.1,0.4,0.2,0.7,0.4,1s0.4,0.5,0.7,0.7s0.6,0.3,0.9,0.4c0.3,0.1,0.7,0.1,1,0.1
			c0.5,0,0.9-0.1,1.3-0.3c0.4-0.2,0.7-0.4,0.9-0.6c0.2-0.3,0.4-0.6,0.5-0.9s0.2-0.7,0.2-1c0-0.4,0-0.7-0.1-1s-0.2-0.6-0.4-0.9
			s-0.4-0.6-0.7-0.9s-0.7-0.7-1.1-1l-0.9-0.8c-0.6-0.5-1-0.9-1.4-1.3s-0.6-0.8-0.8-1.2c-0.2-0.4-0.3-0.7-0.4-1.1
			c-0.1-0.4-0.1-0.7-0.1-1.1c0-0.6,0.1-1.1,0.3-1.6s0.5-0.9,0.9-1.2c0.4-0.3,0.8-0.6,1.4-0.8c0.5-0.2,1.1-0.3,1.8-0.3
			c0.4,0,0.8,0,1.1,0.1c0.3,0,0.6,0.1,0.9,0.2c0.2,0,0.3,0.1,0.5,0.1h0.3l0.2,0.1c0,0.1,0,0.3,0,0.6c0,0.4,0,0.9,0,1.6
			c0,0.3,0,0.5-0.1,0.5l-0.1-0.1v-0.2c0-0.1,0-0.3-0.1-0.5c0-0.2-0.1-0.4-0.2-0.5l-0.2-0.3c-0.1-0.1-0.2-0.3-0.4-0.4
			s-0.5-0.2-0.8-0.3c-0.3-0.1-0.7-0.1-1.2-0.1c-0.7,0-1.3,0.2-1.8,0.7c-0.5,0.4-0.7,1-0.7,1.8c0,0.3,0,0.6,0.1,0.8
			c0.1,0.3,0.2,0.5,0.4,0.8s0.5,0.6,0.8,0.9s0.7,0.7,1.2,1.1l0.6,0.5c0.6,0.5,1.1,1,1.5,1.4s0.7,0.8,0.9,1.2
			c0.2,0.4,0.4,0.8,0.5,1.2c0.1,0.4,0.1,0.8,0.1,1.2c0,0.2,0,0.5-0.1,0.8c0,0.3-0.1,0.6-0.3,0.9c-0.1,0.3-0.3,0.7-0.5,1
			s-0.5,0.6-0.9,0.9s-0.9,0.6-1.5,0.7c-0.5,0.1-1.1,0.2-1.7,0.2C578.2,247.2,577.7,247.2,577.2,247.1"/>
		<path class="st0" d="M604.3,244c0,0.4,0,0.8,0.1,1.1c0,0.3,0.1,0.5,0.2,0.7c0.1,0.2,0.1,0.3,0.2,0.4l0.4,0.2
			c0.2,0.1,0.4,0.1,0.6,0.1c0.2,0,0.4,0,0.4,0l0.2,0.1c0,0.1-0.1,0.2-0.4,0.2c-0.6,0-1.1,0-1.5,0s-0.6,0-0.7,0c-0.1,0-0.3,0-0.7,0
			s-0.8,0-1.3,0c-0.2,0-0.3-0.1-0.3-0.2l0.2-0.1c0.1,0,0.2,0,0.4,0l0.5-0.1c0.3-0.1,0.4-0.3,0.5-0.7c0.1-0.4,0.1-1.1,0.1-2v-12.2
			c0-0.4,0-0.7,0-0.8l0.2-0.2c0.1,0,0.2,0.1,0.3,0.3c0.1,0.2,0.3,0.3,0.4,0.4c0.1,0.1,0.3,0.4,0.7,0.8s0.9,1,1.5,1.7
			s1.3,1.4,2.1,2.3c0.8,0.8,1.5,1.7,2.4,2.6c0.5,0.6,1,1.1,1.6,1.7c0.5,0.6,1,1.1,1.5,1.6s0.9,1,1.2,1.4c0.4,0.4,0.6,0.7,0.8,0.8
			l-0.2-10.9c0-0.7-0.1-1.2-0.2-1.5c-0.1-0.3-0.3-0.5-0.6-0.6c-0.2,0-0.4-0.1-0.6-0.1c-0.2,0-0.3,0-0.4,0l-0.2-0.1
			c0-0.1,0.1-0.1,0.4-0.1c0.2,0,0.5,0,0.7,0s0.4,0,0.6,0c0.2,0,0.4,0,0.5,0h0.3c0.1,0,0.3,0,0.6,0s0.7,0,1.1,0c0.3,0,0.4,0,0.4,0.1
			l-0.2,0.1h-0.2l-0.3,0.1c-0.3,0.1-0.6,0.2-0.6,0.5c-0.1,0.3-0.1,0.7-0.1,1.4v12.5c0,0.4,0,0.6,0,0.8c0,0.2,0,0.3,0,0.4l-0.1,0.2
			h-0.1l-0.2-0.1l-0.3-0.2c-0.1-0.1-0.3-0.2-0.4-0.4c-0.2-0.2-0.4-0.4-0.7-0.7c-0.1-0.1-0.3-0.3-0.6-0.7c-0.4-0.4-0.8-0.8-1.3-1.4
			s-1.1-1.2-1.7-1.8c-0.6-0.7-1.2-1.3-1.8-1.9c-0.6-0.7-1.2-1.3-1.8-2c-0.6-0.6-1.1-1.2-1.6-1.8c-0.5-0.6-0.9-1-1.3-1.4
			c-0.4-0.4-0.6-0.7-0.8-0.9L604.3,244z"/>
		<path class="st0" d="M633.5,241.5c0-0.4,0-0.8,0-1c0-0.3-0.1-0.5-0.1-0.6l-0.3-0.3c-0.1-0.1-0.3-0.1-0.5-0.2l-0.3-0.1h-0.4
			l-0.2-0.1c0-0.1,0.1-0.2,0.3-0.2s0.5,0,0.8,0s0.5,0,0.7,0s0.4,0,0.6,0h0.3h0.3c0.2,0,0.3,0,0.6,0c0.2,0,0.4,0,0.6,0
			c0.2,0,0.4,0,0.6,0c0.2,0,0.3,0.1,0.3,0.2l-0.2,0.1h-0.2l-0.3,0.1c-0.3,0.1-0.5,0.2-0.6,0.4c-0.1,0.2-0.2,0.5-0.2,0.8s0,0.7,0,1
			s0,0.7,0,1.2v2.4c0,0.2,0,0.4,0,0.6v0.3l-0.1,0.2H635c-0.3,0.2-0.7,0.3-1.1,0.5c-0.4,0.1-0.8,0.2-1.2,0.3
			c-0.4,0.1-0.8,0.1-1.2,0.2c-0.4,0-0.7,0-1,0c-0.4,0-0.9,0-1.4-0.1c-0.5,0-1.1-0.1-1.7-0.3c-0.6-0.2-1.3-0.4-1.9-0.7
			c-0.6-0.3-1.2-0.7-1.8-1.2c-0.3-0.3-0.6-0.6-0.9-1.1c-0.3-0.4-0.6-0.9-0.8-1.4s-0.4-1.1-0.6-1.7c-0.1-0.6-0.2-1.3-0.2-1.9
			c0-0.9,0.1-1.6,0.3-2.4c0.2-0.7,0.4-1.4,0.8-2c0.3-0.6,0.7-1.1,1.1-1.6c0.4-0.5,0.9-0.8,1.3-1.1c0.5-0.3,1-0.5,1.4-0.7
			c0.5-0.2,1-0.3,1.4-0.4c0.5-0.1,0.9-0.2,1.4-0.2s0.9,0,1.3,0c0.3,0,0.7,0,1,0s0.7,0.1,0.9,0.1c0.3,0,0.5,0.1,0.8,0.1
			c0.2,0,0.4,0.1,0.5,0.1c0.2,0.1,0.5,0.1,0.8,0.1s0.6,0.1,0.9,0.1l0.2,0.1v0.1v0.3c0,0.1,0,0.3-0.1,0.5c0,0.2,0,0.5,0,0.9
			s0,0.8,0,1.3c0,0.2,0,0.3,0,0.4l-0.2,0.1c-0.1,0-0.1-0.1-0.1-0.3c0-0.2,0-0.4-0.1-0.6c-0.1-0.3-0.2-0.5-0.3-0.8
			c-0.1-0.2-0.3-0.4-0.6-0.6s-0.6-0.4-1-0.6s-0.9-0.3-1.4-0.4s-1.2-0.2-1.8-0.2c-0.3,0-0.7,0-1,0c-0.4,0-0.7,0.1-1.1,0.2
			c-0.4,0.1-0.8,0.2-1.2,0.4c-0.4,0.2-0.8,0.4-1.2,0.8c-0.6,0.5-1.1,1.2-1.5,2.2c-0.4,0.9-0.6,2-0.6,3.3c0,0.8,0.1,1.5,0.2,2.1
			c0.2,0.6,0.4,1.2,0.6,1.7c0.2,0.5,0.5,0.9,0.7,1.3c0.3,0.4,0.5,0.6,0.7,0.8c0.8,0.8,1.7,1.4,2.6,1.8c0.9,0.3,1.9,0.5,2.8,0.5
			c0.2,0,0.4,0,0.6,0c0.2,0,0.4,0,0.7-0.1c0.2,0,0.4-0.1,0.6-0.1c0.2-0.1,0.4-0.1,0.5-0.2c0.3-0.2,0.4-0.4,0.4-0.8L633.5,241.5
			L633.5,241.5z"/>
		<path class="st0" d="M641.6,237c0-0.8,0-1.5,0-2s0-0.9,0-1.3c0-0.3,0-0.6,0-0.8c0-0.2,0-0.4,0-0.5c0-0.4-0.1-0.6-0.2-0.8
			c-0.1-0.2-0.3-0.3-0.7-0.4l-0.3-0.1H640l-0.2-0.1c0-0.1,0.1-0.2,0.3-0.2s0.5,0,0.8,0s0.5,0,0.7,0s0.4,0,0.6,0h0.3
			c0.1,0,0.2,0,0.4,0s0.4,0,0.7,0s0.5,0,0.8,0s0.5,0,0.6,0c0.7,0,1.3,0.1,2,0.2s1.3,0.4,1.8,0.8c0.1,0.1,0.3,0.2,0.4,0.4
			c0.2,0.2,0.3,0.4,0.5,0.6c0.1,0.2,0.3,0.5,0.4,0.8c0.1,0.3,0.2,0.7,0.2,1c0,0.8-0.2,1.6-0.6,2.4c-0.4,0.8-1,1.6-2,2.5
			c0.9,1.1,1.7,2.2,2.4,3.1s1.4,1.7,2,2.4c0.6,0.6,1.1,1,1.5,1.2s0.8,0.3,1,0.3s0.4,0,0.5,0.1h0.3l0.2,0.1l-0.1,0.1
			c-0.1,0-0.2,0-0.4,0h-1.5c-0.6,0-1,0-1.4-0.1c-0.3-0.1-0.6-0.2-0.9-0.3c-0.4-0.2-0.9-0.6-1.3-1.1c-0.4-0.5-0.9-1.2-1.5-2
			c-0.2-0.3-0.4-0.6-0.7-0.9c-0.2-0.3-0.4-0.6-0.6-0.9c-0.2-0.3-0.4-0.5-0.6-0.8c-0.2-0.2-0.3-0.4-0.4-0.6l-0.3-0.1h-2.6l-0.1,0.2
			v0.5c0,1,0,1.9,0,2.7c0,0.8,0,1.4,0.1,1.9c0,0.3,0.1,0.6,0.2,0.8c0.1,0.2,0.3,0.3,0.6,0.4c0.2,0,0.3,0.1,0.5,0.1s0.3,0,0.4,0
			l0.2,0.1c0,0.1-0.1,0.2-0.3,0.2c-0.3,0-0.6,0-0.9,0c-0.3,0-0.6,0-0.8,0s-0.4,0-0.6,0h-0.3c-0.3,0-0.5,0-0.8,0c-0.2,0-0.4,0-0.6,0
			c-0.2,0-0.4,0-0.6,0c-0.2,0-0.3-0.1-0.3-0.2l0.2-0.1h0.3l0.3-0.1c0.2,0,0.4-0.2,0.4-0.4c0.1-0.2,0.1-0.5,0.2-0.8
			c0.1-0.5,0.1-1.1,0.1-1.9s0-1.7,0-2.7L641.6,237z M643.3,238.8l0.1,0.3c0.2,0.1,0.4,0.2,0.9,0.2c0.4,0.1,0.9,0.1,1.3,0.1
			c0.2,0,0.5,0,0.8-0.1c0.3,0,0.5-0.2,0.8-0.3c0.4-0.3,0.7-0.7,0.9-1.2c0.2-0.6,0.4-1.2,0.4-2.1c0-1.3-0.3-2.4-1-3.1
			c-0.6-0.8-1.5-1.1-2.7-1.1c-0.3,0-0.6,0-0.9,0c-0.2,0-0.4,0.1-0.5,0.1l-0.2,0.3v6.9H643.3z"/>
		<path class="st0" d="M676.9,237c0-0.8,0-1.5,0-2s0-0.9,0-1.3c0-0.3,0-0.6,0-0.8c0-0.2,0-0.4,0-0.5c0-0.4-0.1-0.6-0.2-0.8
			c-0.1-0.2-0.3-0.3-0.7-0.4l-0.3-0.1h-0.4l-0.2-0.1c0-0.1,0.1-0.2,0.3-0.2s0.5,0,0.8,0s0.5,0,0.7,0s0.4,0,0.6,0h0.3
			c0.1,0,0.2,0,0.4,0s0.4,0,0.7,0s0.5,0,0.8,0s0.6,0,0.9,0c0.5,0,1.1,0,1.8,0s1.4,0.1,2.2,0.2s1.5,0.4,2.3,0.7
			c0.8,0.3,1.4,0.8,2.1,1.5c0.3,0.3,0.5,0.6,0.8,1c0.2,0.4,0.5,0.8,0.6,1.2c0.2,0.4,0.3,0.9,0.5,1.5c0.1,0.5,0.2,1.1,0.2,1.8
			c0,0.7-0.1,1.3-0.2,1.9c-0.1,0.6-0.3,1.2-0.5,1.7s-0.5,1-0.7,1.4c-0.3,0.4-0.6,0.8-0.8,1.1c-0.2,0.2-0.5,0.5-0.9,0.8
			s-0.8,0.6-1.3,0.8c-0.5,0.2-1.1,0.5-1.8,0.6c-0.7,0.2-1.5,0.3-2.4,0.3c-0.4,0-0.9,0-1.5,0c-0.5,0-1-0.1-1.5-0.1s-0.9-0.1-1.2-0.1
			s-0.5,0-0.6,0h-0.3c-0.2,0-0.3,0-0.6,0c-0.2,0-0.4,0-0.7,0c-0.2,0-0.4,0-0.6,0c-0.2,0-0.3-0.1-0.3-0.2l0.2-0.1h0.3l0.3-0.1
			c0.2,0,0.3-0.2,0.4-0.4c0.1-0.2,0.1-0.5,0.2-0.8c0.1-0.5,0.1-1.1,0.1-1.9s0-1.7,0-2.7L676.9,237z M678.7,239.3c0,0.6,0,1.1,0,1.6
			s0,1,0,1.4s0,0.8,0,1c0,0.3,0,0.5,0,0.6v0.4v0.5l0.1,0.4l0.1,0.3l0.3,0.3c0.1,0.1,0.4,0.2,0.6,0.3c0.3,0.1,0.6,0.2,1,0.2
			s0.9,0.1,1.6,0.1c1,0,1.9-0.2,2.7-0.5c0.9-0.3,1.6-0.8,2.2-1.5c0.3-0.3,0.5-0.6,0.7-1s0.4-0.8,0.5-1.3c0.1-0.4,0.3-0.9,0.3-1.4
			c0.1-0.5,0.1-1,0.1-1.5c0-0.7-0.1-1.3-0.2-1.9c-0.1-0.6-0.3-1.1-0.5-1.5c-0.2-0.5-0.4-0.8-0.7-1.2c-0.2-0.3-0.5-0.6-0.7-0.8
			c-0.5-0.5-1-1-1.5-1.3s-1.1-0.6-1.7-0.7c-0.6-0.2-1.2-0.3-1.8-0.3c-0.6-0.1-1.2-0.1-1.8-0.1h-0.4h-0.4l-0.4,0.1l-0.2,0.1
			c-0.2,0.1-0.3,0.2-0.3,0.4c0,0.2,0,0.4,0,0.8c0,0.3,0,0.7,0,1.2c0,0.4,0,0.8,0,1.3s0,0.9,0,1.3v2.7H678.7z"/>
		<path class="st0" d="M664.8,244.2l-0.1-0.1c-0.1,0-0.1,0.1-0.2,0.3c-0.1,0.4-0.2,0.8-0.3,1s-0.3,0.4-0.6,0.5s-0.6,0.2-1,0.2
			s-0.7,0-1,0c-0.5,0-0.9,0-1.2-0.1c-0.3,0-0.5-0.1-0.7-0.3c-0.2-0.1-0.3-0.3-0.4-0.5c-0.1-0.2-0.1-0.5-0.1-0.9c0-0.1,0-0.3,0-0.7
			c0-0.3,0-0.7,0-1.1s0-0.8,0-1.1c0-0.1,0-0.9,0-1.9c0.1,0.1,0.3,0.1,0.4,0.2c0.3,0.1,0.6,0.2,1,0.2c0.2,0,0.3-0.1,0.5-0.2
			s0.4-0.3,0.5-0.4c0.2-0.2,0.3-0.3,0.4-0.5l0.3-0.4l0.1-0.3l-0.1-0.1l-0.2,0.2l-0.1,0.1l-0.3,0.2l-0.4,0.2
			c-0.2,0.1-0.3,0.1-0.5,0.1s-0.4,0-0.6-0.1c-0.2-0.1-0.4-0.2-0.6-0.2l-0.3-0.2c0-2.8,0-6.6,0-6.6l0.1-0.2c0.1,0,0.2,0,0.5,0
			s0.6,0,0.9,0c0.3,0,0.6,0,0.9,0c0.3,0,0.5,0,0.6,0c0.6,0.1,0.9,0.2,1.1,0.3c0.2,0.1,0.3,0.3,0.4,0.4l0.1,0.4v0.3
			c0,0.2,0.1,0.3,0.2,0.3l0.1-0.1l0.1-0.2v-0.3v-0.4v-0.4v-0.3c0-0.3,0.1-0.5,0.1-0.7l0.1-0.3l-0.1-0.2h-0.1l-0.1,0.1
			c-0.2,0-0.5,0.1-0.9,0.1c-0.1,0-0.4,0-0.9,0s-1,0-1.6,0s-1.1,0-1.5,0c-0.5,0-0.7,0-0.7,0h-0.9c-0.2,0-0.5,0-0.8,0s-0.5,0-0.8,0
			c-0.2,0-0.3,0.1-0.3,0.2l0.2,0.1h0.4l0.3,0.1c0.3,0.1,0.6,0.2,0.7,0.4c0.1,0.2,0.2,0.5,0.2,0.8c0,0.2,0,0.4,0,0.5
			c0,0.2,0,0.5,0,0.8s0,0.7,0,1.3c0,0.5,0,1.2,0,2v1.1l-0.2,0.1c-0.2,0.1-0.4,0.3-0.5,0.4c-0.2,0.2-0.3,0.3-0.4,0.5
			c-0.1,0.2-0.2,0.3-0.3,0.4l-0.1,0.2v0.1l0.1,0.1l0.3-0.2l0.2-0.2l0.3-0.3l0.4-0.2l0.4-0.1v1.7c0,1,0,1.9,0,2.7
			c0,0.8,0,1.4-0.1,1.9c0,0.3-0.1,0.6-0.2,0.8c-0.1,0.2-0.2,0.3-0.4,0.4l-0.3,0.1h-0.3l-0.2,0.1c0,0.1,0.1,0.2,0.3,0.2
			c0.1,0,0.3,0,0.6,0c0.2,0,0.4,0,0.6,0c0.2,0,0.4,0,0.6,0h0.3c0.2,0,0.4,0,0.6,0c0.3,0,0.6,0,1,0.1c0.4,0,0.9,0,1.5,0s1.3,0,2.1,0
			c0.2,0,0.4,0,0.5,0l0.3-0.1l0.2-0.2l0.1-0.3c0-0.1,0.1-0.3,0.1-0.5s0.1-0.4,0.1-0.7c0-0.2,0.1-0.4,0.1-0.6s0-0.3,0-0.3
			L664.8,244.2z"/>
		<path class="st0" d="M723.6,244.2l-0.1-0.1c-0.1,0-0.1,0.1-0.2,0.3c-0.1,0.4-0.2,0.8-0.3,1s-0.3,0.4-0.6,0.5s-0.6,0.2-1,0.2
			s-0.7,0-1,0c-0.5,0-0.9,0-1.2-0.1c-0.3,0-0.5-0.1-0.7-0.3c-0.2-0.1-0.3-0.3-0.4-0.5c-0.1-0.2-0.1-0.5-0.1-0.9c0-0.1,0-0.3,0-0.7
			c0-0.3,0-0.7,0-1.1s0-0.8,0-1.1c0-0.1,0-0.9,0-1.9c0.1,0.1,0.3,0.1,0.4,0.2c0.3,0.1,0.6,0.2,1,0.2c0.2,0,0.3-0.1,0.5-0.2
			s0.4-0.3,0.5-0.4c0.2-0.2,0.3-0.3,0.4-0.5l0.3-0.4l0.1-0.3l-0.1-0.1l-0.2,0.2l-0.1,0.1l-0.2,0.2l-0.4,0.2
			c-0.2,0.1-0.3,0.1-0.5,0.1s-0.4,0-0.6-0.1c-0.2-0.1-0.4-0.2-0.6-0.2l-0.3-0.2c0-2.8,0-6.6,0-6.6l0.1-0.2c0.1,0,0.2,0,0.5,0
			s0.6,0,0.9,0c0.3,0,0.6,0,0.9,0c0.3,0,0.5,0,0.6,0c0.6,0.1,0.9,0.2,1.1,0.3c0.2,0.1,0.3,0.3,0.4,0.4l0.1,0.4v0.3
			c0,0.2,0.1,0.3,0.2,0.3l0.1-0.1l0.1-0.2v-0.3v-0.4v-0.4v-0.3c0-0.3,0.1-0.5,0.1-0.7l0.1-0.3l-0.1-0.2h-0.1l-0.1,0.1
			c-0.2,0-0.5,0.1-0.9,0.1c-0.1,0-0.4,0-0.9,0s-1,0-1.6,0s-1.1,0-1.5,0s-0.7,0-0.7,0h-0.9c-0.2,0-0.5,0-0.8,0s-0.5,0-0.8,0
			c-0.2,0-0.3,0.1-0.3,0.2l0.2,0.1h0.4l0.3,0.1c0.3,0.1,0.6,0.2,0.7,0.4c0.1,0.2,0.2,0.5,0.2,0.8c0,0.2,0,0.4,0,0.5
			c0,0.2,0,0.5,0,0.8s0,0.7,0,1.3c0,0.5,0,1.2,0,2v1.1l-0.2,0.1c-0.2,0.1-0.4,0.3-0.5,0.4c-0.2,0.2-0.3,0.3-0.4,0.5
			c-0.1,0.2-0.2,0.3-0.3,0.4l-0.1,0.2v0.1l0.1,0.1l0.3-0.2l0.2-0.2l0.3-0.3l0.4-0.2l0.4-0.1v1.7c0,1,0,1.9,0,2.7
			c0,0.8,0,1.4-0.1,1.9c0,0.3-0.1,0.6-0.2,0.8c-0.1,0.2-0.2,0.3-0.4,0.4l-0.3,0.1h-0.3l-0.2,0.1c0,0.1,0.1,0.2,0.3,0.2
			c0.1,0,0.3,0,0.6,0c0.2,0,0.4,0,0.6,0c0.2,0,0.4,0,0.6,0h0.3c0.2,0,0.4,0,0.6,0c0.3,0,0.6,0,1,0.1c0.4,0,0.9,0,1.5,0s1.3,0,2.1,0
			c0.2,0,0.4,0,0.5,0l0.3-0.1l0.2-0.2l0.1-0.3c0-0.1,0.1-0.3,0.1-0.5s0.1-0.4,0.1-0.7c0-0.2,0.1-0.4,0.1-0.6s0-0.3,0-0.3
			L723.6,244.2z"/>
		<path class="st0" d="M751,244.2l-0.1-0.1c-0.1,0-0.1,0.1-0.2,0.3c-0.1,0.4-0.2,0.8-0.3,1s-0.3,0.4-0.6,0.5s-0.6,0.2-1,0.2
			s-0.7,0-1,0c-0.5,0-0.9,0-1.2-0.1c-0.3,0-0.5-0.1-0.7-0.3c-0.2-0.1-0.3-0.3-0.4-0.5c-0.1-0.2-0.1-0.5-0.1-0.9c0-0.1,0-0.3,0-0.7
			c0-0.3,0-0.7,0-1.1s0-0.8,0-1.1c0-0.1,0-0.9,0-1.9c0.1,0.1,0.3,0.1,0.4,0.2c0.3,0.1,0.6,0.2,1,0.2c0.2,0,0.3-0.1,0.5-0.2
			s0.4-0.3,0.5-0.4c0.2-0.2,0.3-0.3,0.4-0.5l0.3-0.4l0.1-0.3l-0.1-0.1l-0.2,0.2l-0.1,0.1l-0.2,0.2l-0.4,0.2
			c-0.2,0.1-0.3,0.1-0.5,0.1s-0.4,0-0.6-0.1c-0.2-0.1-0.4-0.2-0.6-0.2l-0.3-0.2c0-2.8,0-6.6,0-6.6l0.1-0.2c0.1,0,0.2,0,0.5,0
			s0.6,0,0.9,0c0.3,0,0.6,0,0.9,0c0.3,0,0.5,0,0.6,0c0.6,0.1,0.9,0.2,1.1,0.3c0.2,0.1,0.3,0.3,0.4,0.4l0.1,0.4v0.3
			c0,0.2,0.1,0.3,0.2,0.3l0.1-0.1l0.1-0.2v-0.3v-0.4v-0.4v-0.3c0-0.3,0.1-0.5,0.1-0.7l0.1-0.3l-0.1-0.2h-0.1l-0.1,0.1
			c-0.2,0-0.5,0.1-0.9,0.1c-0.1,0-0.4,0-0.9,0s-1,0-1.6,0s-1.1,0-1.5,0s-0.7,0-0.7,0H744c-0.2,0-0.5,0-0.8,0s-0.5,0-0.7,0
			s-0.3,0.1-0.3,0.2l0.2,0.1h0.4l0.3,0.1c0.3,0.1,0.6,0.2,0.7,0.4c0.1,0.2,0.2,0.5,0.2,0.8c0,0.2,0,0.4,0,0.5c0,0.2,0,0.5,0,0.8
			s0,0.7,0,1.3c0,0.5,0,1.2,0,2v1.1l-0.2,0.1c-0.2,0.1-0.4,0.3-0.5,0.4c-0.2,0.2-0.3,0.3-0.4,0.5c-0.1,0.2-0.2,0.3-0.3,0.4l-0.1,0.2
			v0.1l0.1,0.1l0.3-0.2l0.2-0.2l0.3-0.3l0.4-0.2l0.4-0.1v1.7c0,1,0,1.9,0,2.7c0,0.8,0,1.4-0.1,1.9c0,0.3-0.1,0.6-0.2,0.8
			c-0.1,0.2-0.2,0.3-0.4,0.4l-0.3,0.1h-0.3l-0.2,0.1c0,0.1,0.1,0.2,0.3,0.2c0.1,0,0.3,0,0.6,0c0.2,0,0.4,0,0.6,0c0.2,0,0.4,0,0.6,0
			h0.3c0.2,0,0.4,0,0.6,0c0.3,0,0.6,0,1,0.1c0.4,0,0.9,0,1.5,0s1.3,0,2.1,0c0.2,0,0.4,0,0.5,0l0.3-0.1l0.2-0.2l0.1-0.3
			c0-0.1,0.1-0.3,0.1-0.5s0.1-0.4,0.1-0.7c0-0.2,0.1-0.4,0.1-0.6s0-0.3,0-0.3L751,244.2z"/>
		<path class="st0" d="M679.1,239.8c-0.3-0.2-0.5-0.3-0.7-0.3c-0.2-0.1-0.4-0.2-0.6-0.3c-0.2-0.1-0.5-0.2-0.8-0.2
			c-0.2,0-0.3,0-0.5,0.1l-0.4,0.2l-0.3,0.3l-0.2,0.2l-0.3,0.2l-0.1-0.1v-0.1l0.1-0.2c0.1-0.1,0.2-0.3,0.3-0.4
			c0.1-0.2,0.3-0.3,0.4-0.5c0.2-0.2,0.3-0.3,0.5-0.4s0.4-0.2,0.5-0.2c0.3,0,0.5,0.1,0.8,0.2s0.6,0.3,0.9,0.4
			c0.2,0.1,0.3,0.1,0.6,0.2c0.2,0.1,0.4,0.1,0.6,0.1c0.2,0,0.4,0,0.5-0.1l0.4-0.2l0.2-0.2l0.1-0.1l0.2-0.2l0.1,0.1l-0.1,0.3
			l-0.2,0.4c-0.1,0.2-0.3,0.3-0.4,0.5c-0.2,0.2-0.3,0.3-0.5,0.4s-0.4,0.2-0.5,0.2C679.7,240,679.4,240,679.1,239.8"/>
		<path class="st0" d="M600.6,246.6h-0.4l-0.5-0.1l-0.4-0.1c-0.1-0.1-0.3-0.2-0.4-0.4c-0.1-0.2-0.3-0.4-0.5-0.7
			c-0.2-0.3-0.4-0.7-0.5-1.2c-0.2-0.5-0.5-1.2-0.8-2s-0.6-1.7-1-2.6c-0.3-0.9-0.7-1.8-1-2.7c-0.3-0.9-0.7-1.8-1-2.6
			c-0.3-0.8-0.5-1.4-0.7-2c-0.2-0.5-0.3-0.9-0.4-1c-0.1-0.3-0.2-0.5-0.3-0.6l-0.2-0.1l-0.2,0.1c-0.1,0.1-0.1,0.3-0.3,0.7l-4.7,13.3
			c-0.2,0.5-0.4,1-0.7,1.4c-0.2,0.4-0.6,0.6-1.1,0.6h-0.3h-0.3l-0.2,0.1c0,0.1,0.1,0.2,0.4,0.2c0.3,0,0.5,0,0.8,0s0.5,0,0.7,0
			s0.4,0,0.6,0h0.3h0.3h0.4c0.2,0,0.3,0,0.5,0s0.3,0,0.4,0c0.2,0,0.3-0.1,0.3-0.2l-0.2-0.1H589c-0.2,0-0.4,0-0.5-0.2
			c-0.2-0.1-0.3-0.3-0.3-0.5c0-0.4,0.1-0.9,0.3-1.4l0.6-1.7l0.7-2l0.2-0.2l0.4-0.2c0.1-0.1,0.3-0.1,0.5-0.1c0.3,0,0.6,0.1,0.8,0.2
			s0.4,0.2,0.6,0.3c0.2,0.1,0.4,0.2,0.7,0.3c0.3,0.1,0.6,0.2,1,0.2c0.2,0,0.3-0.1,0.5-0.2l0.4-0.3l0.7,1.9l1.2,3.2
			c0.1,0.2,0.1,0.3,0,0.4l-0.2,0.2l-0.1,0.2l0.2,0.1c0.1,0,0.3,0,0.5,0c0.4,0,0.7,0,1.1,0c0.4,0,0.7,0,1,0s0.6,0,0.8,0s0.4,0,0.5,0
			h0.3l0.1-0.1L600.6,246.6z M594.1,240.4c-0.2,0-0.4,0-0.6-0.1c-0.2-0.1-0.4-0.2-0.6-0.2c-0.3-0.2-0.6-0.3-0.9-0.4
			c-0.3-0.1-0.6-0.2-0.8-0.2s-0.3,0.1-0.5,0.2l-0.5,0.4l1.1-3.5l0.8-2.5c0.1-0.3,0.2-0.3,0.3,0l1,2.9l1.2,3.4
			C594.5,240.4,594.3,240.4,594.1,240.4z"/>
		<path class="st0" d="M705.4,240.7c0,3.1,0,4.3,0.4,4.7c0.3,0.3,1.2,0.5,2.8,0.5c1.1,0,2,0,2.5-0.6c0.3-0.3,0.4-0.8,0.5-1.2
			l0.2-0.3c0.1,0,0.1,0.1,0.1,0.3c0,0.2-0.1,1.5-0.3,2.1c-0.1,0.5-0.2,0.6-1.3,0.6c-1.5,0-2.7,0-3.7-0.1c-1,0-1.7,0-2.3,0
			c-0.1,0-0.5,0-0.9,0s-0.9,0-1.2,0c-0.2,0-0.3,0-0.3-0.2l0.2-0.2c0.2,0,0.5,0,0.6-0.1c0.4-0.1,0.5-0.5,0.6-1.1
			c0.1-0.9,0.1-2.5,0.1-4.5v-3.7c0-3.2,0-3.8,0-4.5s-0.2-1.1-0.9-1.1c-0.2,0-0.5,0-0.7,0l-0.2-0.2c0-0.1,0.1-0.2,0.3-0.2
			c1,0,2.3,0,2.4,0c0.1,0,1.7,0,2.3,0c0.2,0,0.3,0,0.3,0.2l-0.2,0.1c-0.1,0-0.5,0-0.7,0c-0.6,0.1-0.7,0.4-0.8,1.2c0,0.7,0,1.2,0,4.5
			L705.4,240.7z"/>
		<path class="st0" d="M731.5,241.3c0-1.1-0.1-1.5-0.5-2.1c-0.2-0.3-3-4.9-3.7-6c-0.5-0.8-1-1.2-1.4-1.5c-0.3-0.2-0.7-0.3-0.9-0.3
			l-0.2-0.2c0-0.1,0.1-0.1,0.3-0.1c0.4,0,2,0,2.1,0s1,0,1.8,0c0.2,0,0.3,0,0.3,0.1s-0.1,0.1-0.3,0.2s-0.3,0.2-0.3,0.3
			c0,0.3,0.1,0.5,0.3,0.8l3.8,6.5c0.4-0.9,3.1-5.3,3.4-6c0.3-0.5,0.4-0.8,0.4-1.1c0-0.3-0.1-0.5-0.3-0.5s-0.3-0.1-0.3-0.2
			s0.1-0.1,0.3-0.1c0.6,0,1.3,0,1.5,0c0.1,0,1.7,0,2.1,0l0.3,0.1c0,0.1-0.1,0.2-0.3,0.2s-0.6,0.1-1,0.3c-0.4,0.2-0.6,0.5-1.1,1
			c-0.7,0.8-3.7,5.7-4.1,6.6c-0.4,0.7-0.3,1.4-0.3,2.1v1.8c0,0.3,0,1.2,0.1,2.1c0,0.6,0.2,1,0.8,1.1c0.3,0,0.8,0.1,1,0.1l0.2,0.2
			c0,0.1-0.1,0.2-0.3,0.2c-1.2,0-2.5-0.1-2.7-0.1c-0.1,0-1.4,0.1-2.1,0.1c-0.2,0-0.3,0-0.3-0.2l0.2-0.2c0.2,0,0.4,0,0.6-0.1
			c0.4-0.1,0.6-0.5,0.6-1.1c0-0.9,0-1.7,0-2.1L731.5,241.3L731.5,241.3z"/>
		<path class="st0" d="M755.3,243.9c0.1,1.7,0.2,2.2,0.8,2.4c0.4,0.1,0.9,0.1,1.1,0.1l0.2,0.2c0,0.1-0.1,0.2-0.4,0.2
			c-1.2,0-2-0.1-2.2-0.1s-1.1,0.1-2,0.1c-0.2,0-0.3,0-0.3-0.2l0.2-0.2c0.2,0,0.6,0,0.9-0.1c0.5-0.1,0.6-0.7,0.6-2.6v-11.9
			c0-0.8,0.1-1.1,0.3-1.1s0.6,0.4,0.8,0.6c0.3,0.3,3.4,3.7,6.7,7.1c2.1,2.2,4.3,4.7,5,5.4l-0.2-10.4c0-1.3-0.1-1.8-0.8-1.9
			c-0.4-0.1-0.9-0.1-1-0.1l-0.2-0.2c0-0.1,0.2-0.1,0.4-0.1c1,0,2,0,2.2,0s0.9,0,1.8,0c0.2,0,0.4,0,0.4,0.1l-0.6,0.1
			c-0.1,0-0.3,0-0.5,0c-0.7,0.1-0.7,0.6-0.7,1.8v12.2c0,1.4,0,1.5-0.2,1.5s-0.4-0.2-1.6-1.3c-0.2-0.2-3.3-3.3-5.5-5.6
			c-2.4-2.6-4.8-5.2-5.5-5.9L755.3,243.9z"/>
		<path class="st0" d="M773.2,237c0-3.2,0-3.8,0-4.5s-0.2-1.1-0.9-1.1c-0.2,0-0.5,0-0.7,0l-0.2-0.2c0-0.1,0.1-0.2,0.3-0.2
			c1,0,2.3,0,2.4,0c0.2,0,1.6,0,2.8,0c2.1,0,6-0.2,8.5,2.4c1.1,1.1,2.1,2.8,2.1,5.3c0,2.6-1.1,4.6-2.3,5.8c-0.9,1-2.8,2.4-6.4,2.4
			c-0.9,0-2-0.1-2.9-0.1c-0.9-0.1-1.6-0.1-1.7-0.1c0,0-0.4,0-0.9,0c-0.4,0-0.9,0-1.3,0c-0.2,0-0.3,0-0.3-0.2l0.2-0.2
			c0.2,0,0.5,0,0.6-0.1c0.4-0.1,0.5-0.5,0.6-1.1c0.1-0.9,0.1-2.5,0.1-4.5L773.2,237z M775.1,239.2c0,2.2,0,4.1,0,4.5
			c0,0.5,0.1,1.3,0.2,1.5c0.3,0.4,1,0.8,3.5,0.8c1.9,0,3.7-0.7,4.9-1.9c1.1-1.1,1.7-3,1.7-4.9c0-2.6-1.1-4.3-2-5.2
			c-2-2.1-4.3-2.3-6.8-2.3c-0.4,0-1.1,0.1-1.3,0.1c-0.2,0.1-0.3,0.2-0.3,0.4L775.1,239.2L775.1,239.2z"/>
		<path class="st0" d="M803.2,246.6h-0.4l-0.5-0.1l-0.3-0.2c-0.1-0.1-0.3-0.2-0.4-0.4c-0.1-0.2-0.3-0.4-0.5-0.7
			c-0.2-0.3-0.4-0.7-0.5-1.2c-0.2-0.5-0.5-1.2-0.8-2s-0.6-1.7-1-2.6c-0.3-0.9-0.7-1.8-1-2.7c-0.3-0.9-0.7-1.8-1-2.6
			c-0.3-0.8-0.5-1.4-0.7-2c-0.2-0.5-0.3-0.9-0.4-1c-0.1-0.3-0.2-0.5-0.3-0.6l-0.2-0.1l-0.2,0.1c-0.1,0.1-0.1,0.3-0.3,0.7l-4.7,13.3
			c-0.2,0.5-0.4,1-0.7,1.4c-0.2,0.4-0.6,0.6-1.1,0.7h-0.3h-0.3l-0.2,0.1c0,0.1,0.1,0.2,0.4,0.2c0.3,0,0.5,0,0.8,0s0.5,0,0.7,0
			s0.4,0,0.6,0h0.3h0.3h0.4c0.2,0,0.3,0,0.5,0s0.3,0,0.4,0c0.2,0,0.3-0.1,0.3-0.2l-0.2-0.1h-0.2c-0.2,0-0.4-0.1-0.5-0.2
			c-0.2-0.1-0.3-0.3-0.3-0.5c0-0.4,0.1-0.9,0.3-1.4l0.6-1.7l0.6-2l0.2-0.2l0.4-0.2c0.1-0.1,0.3-0.1,0.5-0.1c0.3,0,0.6,0.1,0.8,0.2
			s0.4,0.2,0.6,0.3c0.2,0.1,0.4,0.2,0.7,0.3c0.3,0.1,0.6,0.2,1,0.2c0.2,0,0.3-0.1,0.5-0.2l0.4-0.3l0.7,1.9l1.2,3.2
			c0.1,0.2,0.1,0.3,0,0.4l-0.2,0.2l-0.1,0.1l0.2,0.1c0.1,0,0.3,0,0.5,0c0.4,0,0.7,0,1.1,0c0.4,0,0.7,0,1,0s0.6,0,0.8,0
			S803.1,246.7,803.2,246.6l0.3,0.1l0.1-0.1L803.2,246.6z M796.8,240.3c-0.2,0-0.4,0-0.6-0.1c-0.2-0.1-0.4-0.2-0.6-0.2
			c-0.3-0.2-0.6-0.3-0.9-0.4c-0.3-0.1-0.6-0.2-0.8-0.2s-0.3,0.1-0.5,0.2l-0.5,0.4l1.1-3.5l0.8-2.5c0.1-0.3,0.2-0.3,0.3,0l1,2.9
			l1.2,3.4C797.1,240.3,796.9,240.3,796.8,240.3z"/>
		<path class="st1" d="M665.5,187c0.7-1.9,1.7-3.7,3-5.3c1.4-1.6,3.1-3,5.2-4c2.1-1.1,4.6-1.6,7.6-1.6c2.4,0,4.6,0.4,6.7,1.1
			c2,0.7,3.8,1.8,5.3,3.1c1.5,1.4,2.7,3,3.5,4.9c0.9,1.9,1.3,4.1,1.3,6.5c0,2.3-0.4,4.5-1.2,6.6s-2,3.9-3.4,5.4
			c-1.5,1.5-3.3,2.8-5.4,3.7c-2.1,0.9-4.4,1.4-7,1.4c-2.9,0-5.4-0.5-7.5-1.5s-3.8-2.3-5.2-3.9s-2.3-3.4-3-5.3c-0.6-2-1-3.9-1-5.7
			C664.5,190.7,664.8,188.9,665.5,187 M685.8,192.9L685.8,192.9L685.8,192.9c-0.4-0.4-1.2-0.6-1.7-0.9l-0.4-0.4v-0.2h-0.1
			c-1-1.2-1.7-2.8-1.7-2.8s-0.1,0.1-0.2,0.3c-0.2-0.1-0.3,0.1-0.7,0.6c-0.2,0.3-0.3,0.7-0.4,1c-0.2,0.4-0.6,0.4-0.9,0.7
			c-0.2,0.2-0.2,0.7-0.4,1l-0.4,0.3c-0.3,0.1-0.7,0.2-1,0.4l0,0l0.9-0.8c-0.6,0.3-1.2,0.7-1.3,1.1c0.4,0.1,0.9,0.4,1.3,0.6
			c0.4,0.3,0.6,0.8,1.2,0.6c-0.1,0.5,0.4,1.1,0.7,1.5c0.3,0.3,0.5,0.3,0.8,0.6c0.1,0.2,0.2,0.5,0.2,0.7v0.1v-0.1l0.1,0.2
			c0.2-0.5,0.4-1,0.7-1.4l0.3-0.6l0.1-0.3l-0.1-0.3c0.2-0.2,0.4-0.1,0.5-0.2c0.2-0.2,0.4-0.5,0.6-0.6c0.5-0.4,1.1-0.4,1.5-0.9
			L685.8,192.9z M669.9,197.9c0.7,2,1.6,3.6,2.8,5s2.6,2.4,4.2,3.2c1.6,0.7,3.4,1.1,5.3,1.1c1,0,2.1-0.2,3.4-0.5
			c1.3-0.3,2.6-1,3.8-2s2.2-2.5,3.1-4.3c0.8-1.9,1.3-4.3,1.3-7.3c0-2.5-0.3-4.7-1-6.6s-1.6-3.5-2.8-4.8s-2.5-2.2-4-2.9
			c-1.5-0.7-3.1-1-4.8-1c-1.8,0-3.4,0.3-4.9,0.9s-2.8,1.4-3.9,2.6c-1.1,1.1-1.9,2.6-2.5,4.3c-0.6,1.7-0.9,3.7-0.9,6
			C668.9,193.7,669.2,195.9,669.9,197.9z"/>
		<path class="st0" d="M683.2,192.2l-0.5,0.5C682.9,192.6,683.1,192.4,683.2,192.2"/>
		<path class="st0" d="M829.3,180.4v-5h2.2c0.5,0,0.8,0,1,0.1s0.4,0.3,0.6,0.5c0.1,0.2,0.2,0.5,0.2,0.8c0,0.4-0.1,0.7-0.3,0.9
			c-0.2,0.2-0.6,0.4-1.1,0.5c0.2,0.1,0.3,0.2,0.4,0.3c0.2,0.2,0.4,0.4,0.6,0.7l0.9,1.4H833l-0.7-1c-0.2-0.3-0.4-0.5-0.5-0.7
			l-0.3-0.3l-0.3-0.1c-0.1,0-0.2,0-0.4,0H830v2.2h-0.7V180.4z M830,177.6h1.4c0.3,0,0.5,0,0.7-0.1s0.3-0.2,0.4-0.3l0.1-0.5
			c0-0.2-0.1-0.4-0.3-0.6s-0.4-0.2-0.8-0.2h-1.6L830,177.6L830,177.6z"/>
		<path class="st0" d="M831.3,173.1c-2.6,0-4.7,2.1-4.7,4.7c0,2.6,2.1,4.7,4.7,4.7c2.6,0,4.7-2.1,4.7-4.7S833.9,173.1,831.3,173.1
			 M831.3,181.7c-2.2,0-4-1.8-4-4s1.8-4,4-4s4,1.8,4,4C835.2,180,833.5,181.7,831.3,181.7z"/>
	</g>
	<path class="st1" d="M667.9,99.4L667.9,99.4L667.9,99.4L667.9,99.4L667.9,99.4L667.9,99.4L667.9,99.4L667.9,99.4L667.9,99.4
		L667.9,99.4L667.9,99.4L667.9,99.4L667.9,99.4L667.9,99.4L667.9,99.4L667.9,99.4L667.9,99.4L667.9,99.4L667.9,99.4L667.9,99.4
		L667.9,99.4L667.9,99.4L667.9,99.4L667.9,99.4L667.9,99.4L667.9,99.4L667.9,99.4L667.9,99.4L667.9,99.4L667.9,99.4L667.9,99.4
		L667.9,99.4L667.9,99.4L667.9,99.4L667.9,99.4L667.9,99.4L667.9,99.4L667.9,99.4L667.9,99.4L667.9,99.4L667.9,99.4L667.9,99.4
		L667.9,99.4L667.9,99.4L667.9,99.4L667.9,99.4L667.9,99.4L667.9,99.4L667.9,99.4L667.9,99.4L667.9,99.4L667.9,99.4L667.9,99.4
		L667.9,99.4L667.9,99.4L667.9,99.4L667.9,99.4L667.9,99.4L667.9,99.4L667.9,99.4L667.9,99.4L667.9,99.4L667.9,99.4L667.9,99.4
		L667.9,99.4L667.9,99.4L667.9,99.4L667.9,99.4L667.9,99.4L667.9,99.4L667.9,99.4L667.9,99.4L667.9,99.4L667.9,99.4L667.9,99.4
		L667.9,99.4L667.9,99.4L667.9,99.4L667.9,99.4L667.9,99.4L667.9,99.4L667.9,99.4L667.9,99.4L667.9,99.4L667.9,99.4L667.9,99.4
		L667.9,99.4L667.9,99.4L667.9,99.4L667.9,99.4L667.9,99.4L667.9,99.4L667.9,99.4L667.9,99.4L667.9,99.4L667.9,99.4L667.9,99.4
		L667.9,99.4L667.9,99.4L667.9,99.4z M704.4,103.5L704.4,103.5C704.4,103.5,704.4,103.6,704.4,103.5L704.4,103.5z M675.5,65.9
		L675.5,65.9C675.4,65.8,675.4,66,675.5,65.9L675.5,65.9z M680.9,73.5L680.9,73.5C680.8,73.5,680.8,73.7,680.9,73.5
		C680.9,73.5,680.9,73.6,680.9,73.5z M655,106.5L655,106.5C654.9,106.6,655.1,106.6,655,106.5C655,106.5,655.1,106.5,655,106.5z
		 M711.3,65.8L711.3,65.8C711.4,65.7,711.2,65.7,711.3,65.8L711.3,65.8z M726.2,61L726.2,61L726.2,61L726.2,61L726.2,61L726.2,61
		L726.2,61L726.2,61L726.2,61L726.2,61L726.2,61L726.2,61L726.2,61L726.2,61L726.2,61L726.2,61L726.2,61L726.2,61L726.2,61L726.2,61
		L726.2,61L726.2,61L726.2,61L726.2,61L726.2,61L726.2,61L726.2,61L726.2,61L726.2,61L726.2,61L726.2,61L726.2,61L726.2,61L726.2,61
		L726.2,61L726.2,61L726.2,61L726.2,61L726.2,61L726.2,61L726.2,61L726.2,61L726.2,61L726.2,61L726.2,61L726.2,61L726.2,61L726.2,61
		L726.2,61L726.2,61L726.2,61L726.2,61L726.2,61L726.2,61L726.2,61L726.2,61L726.2,61L726.2,61L726.2,61L726.2,61L726.2,61L726.2,61
		L726.2,61L726.2,61L726.2,61L726.2,61L726.2,61L726.2,61L726.2,61L726.2,61L726.2,61L726.2,61L726.2,61L726.2,61L726.2,61L726.2,61
		L726.2,61L726.2,61L726.2,61L726.2,61L726.2,61L726.2,61L726.2,61L726.2,61L726.2,61L726.2,61L726.2,61L726.2,61L726.2,61L726.2,61
		L726.2,61L726.2,61L726.2,61L726.2,61L726.2,61L726.2,61L726.2,61L726.2,61L726.2,61L726.2,61z M655.6,55.7L655.6,55.7
		C655.4,55.8,655.6,55.8,655.6,55.7C655.5,55.7,655.6,55.7,655.6,55.7z M642.6,122.1L642.6,122.1
		C642.4,122.2,642.6,122.4,642.6,122.1C642.6,122.1,642.6,122.2,642.6,122.1z M728.1,124.2L728.1,124.2L728.1,124.2L728.1,124.2
		L728.1,124.2L728.1,124.2L728.1,124.2L728.1,124.2L728.1,124.2L728.1,124.2L728.1,124.2L728.1,124.2L728.1,124.2L728.1,124.2
		L728.1,124.2L728.1,124.2L728.1,124.2L728.1,124.2L728.1,124.2L728.1,124.2L728.1,124.2L728.1,124.2L728.1,124.2L728.1,124.2
		L728.1,124.2L728.1,124.2L728.1,124.2L728.1,124.2L728.1,124.2L728.1,124.2L728.1,124.2L728.1,124.2L728.1,124.2L728.1,124.2
		L728.1,124.2L728.1,124.2L728.1,124.2L728.1,124.2L728.1,124.2L728.1,124.2L728.1,124.2L728.1,124.2L728.1,124.2L728.1,124.2
		L728.1,124.2L728.1,124.2L728.1,124.2L728.1,124.2L728.1,124.2L728.1,124.2L728.1,124.2L728.1,124.2L728.1,124.2L728.1,124.2
		L728.1,124.2L728.1,124.2L728.1,124.2L728.1,124.2L728.1,124.2L728.1,124.2L728.1,124.2L728.1,124.2L728.1,124.2L728.1,124.2
		L728.1,124.2L728.1,124.2L728.1,124.2L728.1,124.2L728.1,124.2L728.1,124.2L728.1,124.2L728.1,124.2L728.1,124.2L728.1,124.2
		L728.1,124.2L728.1,124.2L728.1,124.2L728.1,124.2L728.1,124.2L728.1,124.2L728.1,124.2L728.1,124.2L728.1,124.2L728.1,124.2
		L728.1,124.2L728.1,124.2L728.1,124.2L728.1,124.2L728.1,124.2L728.1,124.2L728.1,124.2L728.1,124.2L728.1,124.2L728.1,124.2
		L728.1,124.2L728.1,124.2L728.1,124.2L728.1,124.2L728.1,124.2L728.1,124.2L728.1,124.2L728.1,124.2L728.1,124.2L728.1,124.2
		L728.1,124.2L728.1,124.2L728.1,124.2L728.1,124.2L728.1,124.2L728.1,124.2L728.1,124.2L728.1,124.2L728.1,124.2L728.1,124.2
		L728.1,124.2L728.1,124.2L728.1,124.2L728.1,124.2L728.1,124.2L728.1,124.2L728.1,124.2L728.1,124.2L728.1,124.2L728.1,124.2
		L728.1,124.2L728.1,124.2L728.1,124.2L728.1,124.2L728.1,124.2L728.1,124.2L728.1,124.2L728.1,124.2L728.1,124.2z M716.1,76.8
		L716.1,76.8C715.9,76.5,715.9,76.8,716.1,76.8C716.1,76.7,716,76.8,716.1,76.8z M662.6,101.4L662.6,101.4
		C662.7,101.5,662.9,101.3,662.6,101.4C662.6,101.4,662.7,101.4,662.6,101.4z M712.2,55L712.2,55C711.9,54.9,711.9,55.1,712.2,55
		C712.1,55,712.1,55.1,712.2,55z M712.5,82.3L712.5,82.3C712.2,82.1,712.3,82.3,712.5,82.3C712.4,82.2,712.4,82.3,712.5,82.3z
		 M682.1,71.2L682.1,71.2C681.9,71.1,681.9,71.4,682.1,71.2L682.1,71.2z M705.3,98.7L705.3,98.7C705.4,98.5,705.2,98.4,705.3,98.7
		C705.3,98.6,705.3,98.6,705.3,98.7z M692.9,66.2L692.9,66.2C693,66,692.7,65.9,692.9,66.2C692.9,66.2,692.8,66.2,692.9,66.2z
		 M676.3,68.5L676.3,68.5c0.1,0,0.1-0.1,0-0.2C676.2,68.3,676.2,68.4,676.3,68.5C676.3,68.5,676.3,68.4,676.3,68.5z M695.9,85.8
		L695.9,85.8C696.1,85.6,695.6,85.6,695.9,85.8C695.9,85.8,695.8,85.8,695.9,85.8z M647.8,137L647.8,137c0.2,0.1,0.2-0.1,0.1-0.3
		C647.8,136.6,647.7,136.7,647.8,137C647.8,137,647.8,136.9,647.8,137z M647.6,110.5L647.6,110.5
		C647.3,110.9,647.8,110.7,647.6,110.5C647.5,110.6,647.6,110.6,647.6,110.5z M696.8,77.6L696.8,77.6
		C697.2,77.8,697,77.4,696.8,77.6C696.9,77.7,696.9,77.6,696.8,77.6z M667.2,101.1L667.2,101.1c-0.2,0-0.1,0.2,0,0.3
		C667.3,101.3,667.3,101.2,667.2,101.1C667.1,101.1,667.2,101.1,667.2,101.1z M705.3,99.3L705.3,99.3c-0.3-0.1-0.4,0.2-0.2,0.3
		C705.2,99.5,705.3,99.4,705.3,99.3C705.3,99.3,705.3,99.4,705.3,99.3z M704.6,75.4L704.6,75.4c0.1,0.2,0.2,0.2,0.4,0
		C704.9,75.1,704.8,75.1,704.6,75.4C704.7,75.4,704.7,75.3,704.6,75.4z M675.8,66.8L675.8,66.8c-0.3,0.1-0.2,0.2,0.1,0.5
		C676.1,67.2,676.1,67,675.8,66.8C675.8,66.8,675.9,66.9,675.8,66.8z M728,118.3L728,118.3c0.1-0.2,0-0.3-0.3-0.2
		C727.7,118.3,727.8,118.4,728,118.3C728,118.2,727.9,118.3,728,118.3z M714.8,118.6L714.8,118.6c0.2-0.2,0-0.3-0.4-0.3
		C714.2,118.5,714.3,118.6,714.8,118.6C714.8,118.6,714.6,118.5,714.8,118.6z M711,60.7L711,60.7c-0.1-0.3-0.3-0.2-0.5,0.1
		C710.7,61.1,710.8,61,711,60.7C711,60.7,710.9,60.8,711,60.7z M724.6,130.9L724.6,130.9c-0.1-0.3-0.2-0.2-0.5,0.1
		C724.3,131.3,724.4,131.2,724.6,130.9C724.6,130.9,724.5,131,724.6,130.9z M696.8,65.8L696.8,65.8c0,0.3,0.2,0.3,0.5,0.1
		C697.3,65.6,697.1,65.6,696.8,65.8C696.8,65.8,696.9,65.7,696.8,65.8z M687.4,68.8L687.4,68.8c-0.2-0.2-0.3-0.2-0.5,0
		C687.1,69,687.2,69,687.4,68.8C687.3,68.7,687.3,68.9,687.4,68.8z M704.3,75.8L704.3,75.8c0.1-0.2,0-0.3-0.4-0.2
		C703.9,75.8,704,75.9,704.3,75.8C704.3,75.7,704.2,75.8,704.3,75.8z M693.7,88.2L693.7,88.2c-0.3,0.1-0.3,0.2,0,0.5
		C693.9,88.6,693.9,88.4,693.7,88.2C693.6,88.2,693.7,88.3,693.7,88.2z M700.4,106.4L700.4,106.4c-0.2,0.4-0.1,0.5,0.2,0.6
		C700.5,106.8,700.5,106.6,700.4,106.4z M694.1,88.7L694.1,88.7c-0.3,0.2-0.3,0.5,0.2,0.8C694.5,89.2,694.4,89,694.1,88.7
		C694,88.9,694.2,89,694.1,88.7z M711.8,84.2L711.8,84.2c0.2-0.3,0.4-0.7,0.7-1C712.1,83.3,711.8,83.7,711.8,84.2z M644.2,115.6
		L644.2,115.6c-0.3-0.6-0.7,0.3-0.8,0.5C643.8,116.3,644,116.2,644.2,115.6C644.2,115.5,644,115.8,644.2,115.6z M681.6,71L681.6,71
		c-0.4-0.4-1.1,0.3-0.7,0.6C681.2,71.8,681.5,71.6,681.6,71C681.5,71,681.4,71.3,681.6,71z M712.3,57.6L712.3,57.6
		c-0.4-0.1-0.8,1.2-0.6,1.6C712.1,58.8,712.1,58.1,712.3,57.6C712.2,57.6,712.2,57.9,712.3,57.6z M643.4,117L643.4,117
		C642.3,119.2,644.2,117.8,643.4,117C643.3,117.3,643.7,117.3,643.4,117z M710.1,61.9L710.1,61.9c-0.1,0-1.5,1.8-1.8,2.1
		C708.9,64.4,710,62.3,710.1,61.9C710.1,61.9,709.8,62.8,710.1,61.9z M696,93L696,93c0-0.8-0.8-1.2-0.5-2.1
		C694.8,91.3,695.3,92.6,696,93C696,92.7,695.4,92.6,696,93z M647.8,135.8L647.8,135.8c0.5,0,0.4-2.6,0.3-3
		C647.6,132.9,647.8,135.4,647.8,135.8C647.9,135.8,647.8,135.6,647.8,135.8z M687,75.7L687,75.7c-0.3-0.4-1.8,1-1.5,1.8
		C686.2,76.9,686.6,76.3,687,75.7C687,75.6,687,75.8,687,75.7z M643.4,128.5L643.4,128.5c-0.6,0.4-1.1,0.3-0.5,0.9
		c-0.4,0-0.5,0.2-0.3,0.6C643.7,130.3,643.5,129,643.4,128.5C643.2,128.7,643.5,128.9,643.4,128.5z M717.3,76L717.3,76
		c0-0.6,0.7-1.4,1-1.9c-0.3-0.2-1.9,1.8-2.2,2.2C716.7,76.8,716.8,76.3,717.3,76C717.3,75.6,717.2,76.1,717.3,76z M681.6,70.5
		L681.6,70.5c1.5,0.9,3.7-0.6,5.2-1.5c-0.6-0.5-2.2,0.3-2.8,0.6C683,70.2,682.7,70.3,681.6,70.5C682,70.8,681.9,70.5,681.6,70.5z
		 M685.8,70.9L685.8,70.9c-1.1-0.5-2.9,1.4-3.8,1.8c-0.3,0.2-2,2.2-1.3,2.1c0.9-0.2,1.5-1.3,2.2-2C683.8,71.8,684.9,71.7,685.8,70.9
		C685.3,70.7,685.4,71.3,685.8,70.9z M705.3,108.3L705.3,108.3c0.6,0.1,0-3.5,0-4c0-0.8,0.3-3.9-0.4-4.4c-0.4,1-0.5,2.1-0.5,3.3
		c0.2,0.1,0.3,0,0.4-0.3C704.7,104.7,704.6,106.6,705.3,108.3C705.4,108.3,704.6,106.5,705.3,108.3z M666.4,142.2L666.4,142.2
		C666.4,142.2,666.4,142.1,666.4,142.2L666.4,142.2z M673.3,114.9L673.3,114.9L673.3,114.9L673.3,114.9L673.3,114.9L673.3,114.9
		L673.3,114.9L673.3,114.9L673.3,114.9L673.3,114.9L673.3,114.9L673.3,114.9L673.3,114.9L673.3,114.9L673.3,114.9L673.3,114.9
		L673.3,114.9L673.3,114.9L673.3,114.9L673.3,114.9L673.3,114.9L673.3,114.9L673.3,114.9L673.3,114.9L673.3,114.9L673.3,114.9
		L673.3,114.9L673.3,114.9L673.3,114.9L673.3,114.9L673.3,114.9L673.3,114.9L673.3,114.9L673.3,114.9L673.3,114.9L673.3,114.9
		L673.3,114.9L673.3,114.9L673.3,114.9L673.3,114.9L673.3,114.9L673.3,114.9L673.3,114.9L673.3,114.9L673.3,114.9L673.3,114.9
		L673.3,114.9L673.3,114.9L673.3,114.9L673.3,114.9L673.3,114.9L673.3,114.9L673.3,114.9L673.3,114.9L673.3,114.9L673.3,114.9
		L673.3,114.9L673.3,114.9L673.3,114.9L673.3,114.9L673.3,114.9L673.3,114.9L673.3,114.9L673.3,114.9L673.3,114.9L673.3,114.9
		L673.3,114.9L673.3,114.9L673.3,114.9L673.3,114.9L673.3,114.9L673.3,114.9L673.3,114.9L673.3,114.9L673.3,114.9L673.3,114.9
		L673.3,114.9L673.3,114.9L673.3,114.9L673.3,114.9L673.3,114.9L673.3,114.9z M675.5,137.8L675.5,137.8c-0.2,0-0.2,0.2,0,0.4
		C675.7,138.2,675.7,138,675.5,137.8C675.4,137.8,675.5,137.9,675.5,137.8z M668.5,141.2L668.5,141.2c1,0.5,0.8-0.1,0.2-0.8
		C668.4,140.6,668.4,140.8,668.5,141.2C668.7,141.3,668.6,141,668.5,141.2z M674.6,127.4L674.6,127.4c-0.5-0.1-0.6,1.8-0.4,2.2
		C674.7,129,674.5,128.1,674.6,127.4C674.5,127.4,674.6,127.6,674.6,127.4z M668.4,142.1L668.4,142.1c-0.2-0.7-0.9-0.6-1.5-0.5
		c-0.3,0-0.2,1.1,0.4,0.2C667.5,142.2,667.9,142.3,668.4,142.1C668.3,141.7,668.1,142.1,668.4,142.1z M674.3,133.5L674.3,133.5
		c-0.5,0,0.8,3.7,0.9,4C675.5,137.5,674.4,134.1,674.3,133.5C674.3,133.5,674.7,134.9,674.3,133.5z M676,133L676,133
		c-0.3,1.5,2.3,7.2,3.5,7.7C678.4,138.1,677.2,135.5,676,133z M672,142.4c0.4-1,4.1-0.2,4.9-0.1c0.4-0.6-2.4-3.8-2.5-4.6
		s-0.7-1.7-0.9-2.4c-0.3-1.1-0.3-2.3-0.4-3.4c-0.2-2,0-3.8,0.7-5.7c0.2-0.5,0.9-2.4,1.5-2.4c0.5-0.1,1.3,0.6,1.1,1.2
		c-1.2,4.3-0.1,7.9,1.8,11.7c0.9,1.8,1.6,3.6,2.8,5.2c0.1,0.2,0.2,1.3,0.3,1.3c0.6,0.2,1.3,0.7,1.8,0.9c-1.6,1.3-3.9-2.5-5.1-1.6
		c-0.8,0.6-2,0.1-3,0.1c-1.3,0-2.7-0.1-4,0.1c0.4,0.4,0.4,0.8,0.1,1.2c-1.3-1.4-2.5-1.2-4.3-1.3c-0.5,0-1,0-1.5-0.1
		c-0.1-0.6-0.9-0.9-0.4,0c-0.5,0-2.4-0.3-2.3,0.3c0.2,1.1-1.3-0.4-1.6-0.4c-1.3,0.1-6.3,0.6-6.6-0.9c2,0.4,4.4,0.5,6.7,0.3
		c-0.2-0.8-0.5-0.6-1.1-0.5c0-0.3,0.1-0.5,0.4-0.6c0-0.3-0.7-1.4-0.8-1.7c-0.5-1.3-0.8-2.6-0.9-3.9c-0.2-2.6-0.2-4.4,0.5-6.9
		c0.1-0.4,0.2-0.8,0.3-1.1c0.3-0.5,1,0.3,1,0.6c-0.1,0.9-0.6,2-0.5,2.9c0,0.7,0.3,5.6,1,5.6c0.1-0.3,0.3-2.4,1-2.1
		c0.9,0.5,0.5,2.6,0.7,3.4c0.2,1.2,0.5,2.2,1.2,3.3c0.6,0.9,2.4-0.2,2.2,0.9c0,0,1.7-0.4,2-0.4c-0.6-1.4-1.8-2.6-2.4-4.1
		c-0.5-1.5-1.2-2.9-1.7-4.4c-1-3.1,0.6-6,1.8-8.7c0.6-1.4,1.5-2.8,2.4-4c0.5-0.6,0.9-1.3,1.2-2c0.3-0.5,0.7-0.1,1-0.5
		c0.9-1.1,1.9-1.9,2.8-3c0.9-1.1,1.4-0.8,2.2-1.6c0.6-0.7-0.1,1.9-0.4,2.2c-0.9,1.2-1.8,2.3-2.5,3.6c-1.5,2.5-3.6,4.9-4.5,7.6
		c-0.9,2.9-1.7,6.7-0.4,9.5c0.8,1.6,1.5,3.1,2.2,4.7C670.4,141.8,671.7,141.4,672,142.4C672.3,141.5,671.8,141.7,672,142.4z
		 M676.5,96.4L676.5,96.4C676.5,96.4,676.4,96.5,676.5,96.4L676.5,96.4z M672.6,108.7L672.6,108.7c0.4,0.2,0.8-0.8,0.4-1
		C672.9,108,672.8,108.3,672.6,108.7C672.7,108.7,672.8,108.3,672.6,108.7z M673.4,104.8c0.9-2.4,2.5-7.2,1.4-9.6
		c-0.7,0.5-0.5,2.2-1.4,2.3c-0.4,0.1-1,1.6-1.3,0.8c-0.6-1.4,0.2-2.7,0.5-4.1c0.2-0.7,1-3,0.7-3.7c-0.5-0.9,0.1-2.7,0.2-3.6
		c0.1-1.1-0.4-2.7-0.9-3.7c-0.3-0.7-0.5-1.6-0.6-2.3c-0.3-2.3,1.4-0.2,1.9,0.5c1.2,1.9,2.8,3,4,4.9c0.6,1,1.9,2.5,1.4,3.8
		c-0.1,0.3,0.3,1,0.3,1.4c0,0.6-0.2,1.2-0.1,1.8c0.6,4.8-1.7,10.1-4.2,14.2c-1,1.7-1.8,3.5-2.6,5.3c-0.7,1.5-0.8-0.2-1.3,0.8
		c-0.3,0.6-1.2,1.9-1.6,2.4c-0.7,0.7-1.5,1.2-2.3,2c-0.7,0.8-0.9,1.7-1.5,2.6c-0.4,0.6-2.7,6-3.2,5.7s-0.5-2-0.4-2.4
		c0.3-1.4,0.9-2.6,1.5-3.8c1.2-2.1,2.5-3.7,3.9-5.5c0.7-1,1.6-2,2.1-3.1c0.3-0.7,1.3-1.2,1.5-2c0.2-0.6,0.7-1.3,1.1-2
		c0.3-0.6,0.6-1.2,0.9-1.8C673.5,105.5,673.3,104.9,673.4,104.8C673.1,104.8,673.3,104.8,673.4,104.8
		C673.6,104.4,673.3,104.9,673.4,104.8z M654.7,139.4L654.7,139.4C654.6,139.3,654.6,139.5,654.7,139.4L654.7,139.4z M659.3,120.8
		L659.3,120.8L659.3,120.8L659.3,120.8L659.3,120.8L659.3,120.8L659.3,120.8L659.3,120.8L659.3,120.8L659.3,120.8L659.3,120.8
		L659.3,120.8L659.3,120.8L659.3,120.8L659.3,120.8L659.3,120.8L659.3,120.8L659.3,120.8L659.3,120.8L659.3,120.8L659.3,120.8
		L659.3,120.8L659.3,120.8L659.3,120.8L659.3,120.8L659.3,120.8L659.3,120.8L659.3,120.8L659.3,120.8L659.3,120.8L659.3,120.8
		L659.3,120.8L659.3,120.8L659.3,120.8L659.3,120.8L659.3,120.8L659.3,120.8L659.3,120.8L659.3,120.8L659.3,120.8L659.3,120.8
		L659.3,120.8L659.3,120.8L659.3,120.8L659.3,120.8L659.3,120.8L659.3,120.8L659.3,120.8L659.3,120.8L659.3,120.8L659.3,120.8
		L659.3,120.8L659.3,120.8L659.3,120.8L659.3,120.8L659.3,120.8L659.3,120.8L659.3,120.8L659.3,120.8L659.3,120.8L659.3,120.8
		L659.3,120.8L659.3,120.8L659.3,120.8L659.3,120.8L659.3,120.8L659.3,120.8L659.3,120.8L659.3,120.8L659.3,120.8L659.3,120.8
		L659.3,120.8L659.3,120.8L659.3,120.8L659.3,120.8L659.3,120.8L659.3,120.8L659.3,120.8L659.3,120.8L659.3,120.8L659.3,120.8
		L659.3,120.8L659.3,120.8L659.3,120.8L659.3,120.8L659.3,120.8L659.3,120.8L659.3,120.8L659.3,120.8L659.3,120.8L659.3,120.8
		L659.3,120.8L659.3,120.8L659.3,120.8L659.3,120.8L659.3,120.8L659.3,120.8L659.3,120.8L659.3,120.8z M652.6,138.1L652.6,138.1
		c-0.2-0.1-0.1,0.2-0.1,0.3C652.6,138.4,652.6,138.3,652.6,138.1C652.6,138.1,652.6,138.2,652.6,138.1z M646,140.6L646,140.6
		L646,140.6L646,140.6 M712.5,143.3L712.5,143.3L712.5,143.3L712.5,143.3L712.5,143.3L712.5,143.3L712.5,143.3L712.5,143.3
		L712.5,143.3L712.5,143.3L712.5,143.3L712.5,143.3L712.5,143.3L712.5,143.3L712.5,143.3L712.5,143.3L712.5,143.3L712.5,143.3
		L712.5,143.3L712.5,143.3L712.5,143.3L712.5,143.3L712.5,143.3L712.5,143.3L712.5,143.3L712.5,143.3L712.5,143.3L712.5,143.3
		L712.5,143.3L712.5,143.3L712.5,143.3L712.5,143.3L712.5,143.3L712.5,143.3L712.5,143.3L712.5,143.3L712.5,143.3L712.5,143.3
		L712.5,143.3L712.5,143.3L712.5,143.3L712.5,143.3L712.5,143.3L712.5,143.3L712.5,143.3L712.5,143.3L712.5,143.3L712.5,143.3
		L712.5,143.3L712.5,143.3L712.5,143.3L712.5,143.3L712.5,143.3L712.5,143.3L712.5,143.3L712.5,143.3L712.5,143.3L712.5,143.3
		L712.5,143.3L712.5,143.3L712.5,143.3L712.5,143.3L712.5,143.3L712.5,143.3L712.5,143.3L712.5,143.3L712.5,143.3L712.5,143.3
		L712.5,143.3L712.5,143.3L712.5,143.3L712.5,143.3L712.5,143.3L712.5,143.3L712.5,143.3L712.5,143.3L712.5,143.3L712.5,143.3
		L712.5,143.3L712.5,143.3L712.5,143.3L712.5,143.3z M705.3,135L705.3,135C705.1,134.8,705.2,135.1,705.3,135L705.3,135z
		 M705.9,135.4L705.9,135.4c-0.2,0.2,0.1,0.5,0.3,0.3C706.1,135.6,706,135.5,705.9,135.4C705.9,135.4,706,135.5,705.9,135.4z
		 M714,142.5L714,142.5c0-0.2-0.1-0.3-0.4-0.1C713.6,142.6,713.7,142.6,714,142.5C714,142.5,713.9,142.5,714,142.5z M719.7,142.5
		c-0.1,0.2-0.3,0.4-0.4,0.6c0.9,0.6,1.8-0.4,2.6-0.6c-0.2,1.3,0.5,0.1,1.1,0.2c1,0.1-0.2,0.8-0.6,0.8c-1.5,0-3,0.3-4.5,0.4
		c-0.7,0.1-1.3,0.4-2.1,0.4c-1.1,0-1.8-0.5-2.7-0.7c-1.1-0.1-3.7,0.7-4.3,0.3c0.4-0.2,0.6-1.2,1.1-0.8c0.7,0.5,1.2-0.9,2,0
		c0.3-1.8-4.8-3.8-6.3-4.8c-2.5-1.5-4.5-4.3-6.5-6.3c-2.1-2-3.5-4.9-4.8-7.4c-1.1-2.1-3.2-6.7-1.9-8.9c0.9,0.5,1.3,3,1.8,3.9
		c0.7,1.5,1.3,2.8,2.3,4.1c1.9,2.5,3.6,5.1,5.8,7.5c2.3,2.4,5,4.4,7.8,6.1c0.8,0.5,2.6,0.4,3.1,1.2c0.7,1.1-2.2,0.1-2.3,0.2
		c1.9,1.2,3.5,1.9,5.7,1.8c0.7,0,1.8,0.5,2.2,0.9C719.2,142,718.9,142.5,719.7,142.5C719.5,142.7,719.1,142.5,719.7,142.5z
		 M720.9,55.7L720.9,55.7C720.7,55.5,720.8,55.9,720.9,55.7L720.9,55.7z M714.7,69.7L714.7,69.7C714.5,69.6,714.5,69.9,714.7,69.7
		C714.7,69.7,714.7,69.8,714.7,69.7z M715.5,68.3L715.5,68.3c-0.3-0.4-0.8,0.5-0.5,0.7C715.1,68.7,715.3,68.5,715.5,68.3
		C715.4,68.2,715.3,68.5,715.5,68.3z M720.9,58.2L720.9,58.2c0.4,0,0.2-1.4,0-1.6C720.8,57.1,720.9,57.7,720.9,58.2
		C720.9,58.2,720.9,57.7,720.9,58.2z M716.5,69.7L716.5,69.7c1.1-0.1,2.3-3.2,2.7-4c1.1-2.1,1.8-4.5,1.8-6.8c-0.3,0-1.5,4.1-1.7,4.7
		C718.5,65.7,717.5,67.6,716.5,69.7C716.6,69.6,716.7,69.2,716.5,69.7z M714.6,70.3c-1,0.4-2.5,0.9-3.3,2.1c-0.6,1-2.3,0.1-1-0.6
		c0.9-0.5,1.6-1.8,2.3-2.6c0.5,0.7,0.7-1.2,1.4-1.9c1.3-1.4,2.6-3.6,3.2-5.4c0.8-2.3,1.3-4.9,1.6-7.3c0.2-1.4,0.8-2.2,2.1-2.5
		c0.1,2.6,0.5,5,0.2,7.7c-0.3,3.2-1.2,5.7-2.8,8.5c-2.7,4.7-7.5,8.5-12.6,10.3c-2.2,0.8-5.1,1.5-6.4,3.7c-0.5,0.9-1.9,0.4-1-0.7
		c0.9-1.1,2.1-2.1,3.3-2.9c2.4-1.8,5.2-2.2,7.8-3.6C711.2,74.1,714.5,72.3,714.6,70.3z M681.7,96.6c0.1-0.2,0.2-0.4,0.3-0.5
		c0.7,0.7,0.4,1.4,0.7,2.3c0.3,0.9,0.8,1.7,0.9,2.7c0.1,1.1,0.2,2.3,0.2,3.5c0.1,0.4-0.1,0.6-0.4,0.7c-0.4,0-0.4,1.5-0.3,1.4
		c-0.9,4.6-3.5,7.7-6.1,11.5c-1.2,1.8-2.6,3.1-3.5,5c-0.8,1.7-1.4,3.6-1.8,5.5c-0.4,1.6-1.2,4.2-0.6,5.8c0.3,0.7,1.3,2.3,1.1,3.1
		c-0.4,1.2-1.6-1.7-1.6-1.7c-2-4.6-0.9-8.9,1.3-13.2c1.9-3.6,5.4-6.4,7-10.2c0.4-0.9,1-1.6,1-2.7c0-0.4,0.1-1.5-0.7-0.7
		c-0.5,0.6-1,1.8-2,1.5c-1.1-0.4,0.3-2.2,0.6-2.7c1.2-1.9,2.4-3.8,2.9-6c0.3-1.1,0.5-2.2,0.5-3.3C681.2,97.7,680.5,96.7,681.7,96.6
		C681.7,96.6,681,96.7,681.7,96.6z M683.2,119.1L683.2,119.1C683.1,118.9,683,119.2,683.2,119.1C683.2,119,683.2,119.1,683.2,119.1z
		 M681.4,119.8c-0.4-0.9,2.5-4,3-4.8c1.2-2.1,1.3-3.7,1.6-6c0.1-0.8,0.3-1.8-0.2-2.6c-0.4-0.6,0.7-0.7,0.8-1.1
		c0.7-1.9,1.7-0.7,2.5,0.5c2.1,3.2,2.2,6.5,0.5,9.9c-0.3,0.5-2,4.8-2.4,4s0.6-1.6,0.2-2.3c-0.3-0.5-0.9,0.1-0.7-0.9
		c0.7-3.5,5.1-6.6,1.5-10.2c-1.7-1.7-0.5,2.1-0.4,2.6c0.3,2.2-0.7,4.5-1.5,6.5c-1.4,3.4-3.5,7.1-3.9,10.8c-0.3,2.7,2.1,5.8,3,8.4
		c-1.1-0.8-1.5-0.3-2.1-1.5c-0.9,1.5-1.2-0.5-1.5-1.4c-0.4-1.3-0.7-2.5-1.1-3.8C679.9,125.1,679.6,122.5,681.4,119.8
		C681.2,119.5,681.1,120.2,681.4,119.8z M687.7,96.8L687.7,96.8C687.5,96.5,687.5,97,687.7,96.8C687.6,96.8,687.6,96.8,687.7,96.8z
		 M688,94.2L688,94.2c-0.2,0.1-0.1,0.4,0.1,0.3C688,94.4,688,94.3,688,94.2C687.9,94.2,688,94.3,688,94.2z M685.4,91.4L685.4,91.4
		c0,0.3,0,0.6,0.1,0.9C685.9,92,685.8,91.6,685.4,91.4z M681.9,84L681.9,84L681.9,84L681.9,84z M683.4,89.4c0.5,0.6,1.1,1.2,1.6,1.8
		c0.1-1.8-0.3-6.6-2.9-7c0.4,0.6,1.4,2.1,0.8,2.9c-0.5,0.7-1.2-1.2-1.4-1.4c-1.8-2.2-4.3-4.4-6.6-6c-0.7-0.5-2.8-1.6-2.5-2.7
		c0.1-0.3,1.9,0.7,2.4,0.6c2.1-0.5,5.5,2.6,6.9,3.8c4.6,3.9,7.3,10.6,7,16.4c0,0.4-0.4,3.6-1.1,3.3c-0.5-0.2-0.5-1.3-0.5-1.7
		c0-0.7-0.4-0.7-0.7-1.2c-0.7-1.3-0.9-2.9-1.5-4.2C684.5,92.8,682.8,90.9,683.4,89.4C684,90,683.2,89.9,683.4,89.4z M694,104.4
		c-0.3,0.2,0.4,3,0.5,3.4c0.4,1.5,1,2.9,1.6,4.3c0.7,1.6,1.4,3.3,2.1,5c0.2,0.5,2.2,3.8,0.7,3.7c-1.1-0.1-2.9-3.5-3.3-4.5
		c-0.8-1.7-1.1-3.9-2-5.5c-0.8-1.5-0.7-3.2-1.1-4.7c-0.5-1.8-0.8-4-0.5-5.9c0.1-0.8-0.7-1.8-0.9-2.6c-0.2-1.1-0.4-2.2-0.7-3.3
		c-0.4-1.8-1.1-3.6-2-5.2c-0.8-1.3-1.2-2.9-2.3-4.1c-0.8-0.8-1.6-1.5-2.2-2.5c-0.8-1.4,0.7-0.8,1.3-0.4c3.1,2.4,5.1,6.4,6.5,10
		c0.7,1.9,1.2,3.5,1.4,5.5C693.2,99.6,692.8,102.6,694,104.4C693.7,104.6,693.8,104.2,694,104.4z M707.4,144.3L707.4,144.3
		C707.6,144.2,707.3,144.2,707.4,144.3L707.4,144.3z M689.8,121.2c-1.3,3.2,0.5,6.9,2,9.7c0.7,1.3,1.4,2.8,2.6,3.8
		c0.8,0.7,2.8,1.4,0.9,1.9c-2.5,0.6-4.9-4-5.6-6c-1-3-2-7.2-1-10.3c1.1-3.4,3.3,2.8,3.6,4c0.7,3.1,2.2,6,4.2,8.5
		c2.1,2.6,4.8,5.7,7.9,7.1c1,0.5,1.3,1,2.2,1.5c1.7,1,1.5,1.2,2.2,2.8c-1,0.7-2.8,0.3-3.9,0.1c0.2,0.8-0.7,0.6-1,0.2
		c-0.3-0.5,0.4-1.5,1-1.2c0.4-1.3,3.4,2.1,3.4,0.2c-0.6,0.3-0.8-0.3-1.6-0.3c0.5-0.9-0.8-1.2-1.6-1.6c-1.4-0.7-2.6-1.7-3.8-2.6
		c-1.6-1.3-3.2-2.7-4.5-4.3c-1.7-2-3.2-4-4.2-6.3C692.1,127.6,690.5,121.2,689.8,121.2C689.7,121.4,689.8,121.2,689.8,121.2z
		 M683.9,139.8L683.9,139.8C683.9,139.9,684,139.8,683.9,139.8L683.9,139.8z M686.3,138.5L686.3,138.5
		C686.2,138.7,686.4,138.6,686.3,138.5C686.3,138.6,686.3,138.6,686.3,138.5z M685.6,142.9L685.6,142.9c-0.5-0.5-0.9-0.9-1.4-1.3
		C683.9,142.1,684.6,142.7,685.6,142.9z M687.2,145c-0.6-1-1.4-0.7-2.4-1.3c-1.2-0.7-2.2-1.7-2.8-2.9c-1.4-3.1-3.3-6.7-3.5-10.1
		c-0.1-1.2-0.6-4.2,0-5.2c0.7-1.2,1.1,2,1.1,2.2c-0.1,2,0.9,3.8,1.6,5.7c0.7,1.6,1.6,4.4,3.1,5.4c-0.5-1.5-0.1-0.8,0.7-1.1
		c0.3-0.1-0.3-0.8,0.1-1c0.5-0.2,0.7,1,0.8,1.2s1.4,0.9,0.8,1.2c-0.6,0.3,0.4,1.2,0.5,1.4c0.5-0.4,0-0.7-0.3-1
		c0.7-0.6,1.8,2.6,1.7,3.4c-0.1,1-0.9,0.2-1.2,0.6C687.1,143.7,687.7,144.7,687.2,145C687,144.8,687.2,144.9,687.2,145z M691.7,140
		L691.7,140c0.3-0.2,0.2-0.5-0.4-0.7C691,139.5,691.1,139.8,691.7,140C691.7,140,691.5,139.8,691.7,140z M686.9,131.5L686.9,131.5
		c-0.7,0.2,3.1,8,4,7.3C690.1,136.3,688,133.9,686.9,131.5C686.8,131.5,687.4,132.6,686.9,131.5z M693,140.5
		c0.7,0.8,1.4,1.3,2.2,1.9c0.4,0.4,0.5,1.4-0.2,0.9c-2-1.4-4.1-2.9-5.6-4.8c-1.4-1.8-2.4-4-3.1-6.1c-0.7-2.4-2-5.7-1.2-8.1
		c0.1-0.5,0.7-0.5,0.8,0.1c0.2,1.3,0.3,2.6,0.7,3.9c0.8,2.5,2,4.9,3.4,7.1c1.2,1.9,3,4.4,5,5.6c1.1,0.7,4.5,1.7,4.1,3.3
		c-0.6-0.2-1-0.7-1.6-0.5c-0.4,0.1-0.6-0.5-0.9-0.7C695.5,142.3,694.3,140.7,693,140.5C693.6,141.1,693.1,140.5,693,140.5z
		 M725.2,142.5L725.2,142.5c0-0.2-0.1-0.2-0.3-0.1C724.9,142.6,725,142.7,725.2,142.5C725.2,142.5,725.1,142.5,725.2,142.5z
		 M725.7,142.7c0.1,0.1,0.1,0.2,0.2,0.3c-0.5,0-0.9,0-1.4,0c-0.2-0.9,0-1.1-1-1.4c-1.2-0.4-2.3-0.6-3.5-1c-1.7-0.4-5.7-0.9-6.7-2.5
		c-1.5-2.5,2.6-0.3,3.2-0.2c1.9,0.4,3.5,0.7,5.4,0.6c0.1,0.2,0,0.3-0.2,0.4c0.8,0.1,1.6,0,2.4-0.1c0.5,0,1.1,0,1.6-0.1
		c1.5,0,0.5-0.1,1.2-1c2,1.9-2.2,2.1-0.8,4.4c0.9-0.9,0.8-0.6,1.4,0c0.6,0.6,1.4-1,2.1-0.6c0.6,0.4-1,1-1.2,1
		C728.1,143,726.1,142.7,725.7,142.7z M714.1,101.4c0,1-0.1,2-0.1,3c0,0-0.1,3.2-0.7,2c-0.5-1-0.2-2.4-0.2-3.5
		c-0.1-1.1-0.4-2.1-0.1-3.3c0.2-1.1-0.2-2.8-0.3-3.9c0-0.7,0.4-3.3,0.1-3.8c-0.3-0.5-1.4-1.3-0.2-1.8c0.5-0.2,1.1,0.2,1.5,0
		c0.9-0.3,1.8-0.3,2.7-0.3c1.3,0,6.9-1,7.5,0c0.8,1.4-5,1.3-6,1.2c-1.3-0.1-5.4-0.3-4.8,2.1C714.3,95.8,713.4,98.8,714.1,101.4
		C714.1,101.6,714,100.9,714.1,101.4z M663.7,86.4c-0.4,0.9-0.1,1.5-0.3,2.4c-0.2,1.1-0.8,2-1.5,2.9c-0.6,0.8-1.5,1.8-2.5,2.2
		c-0.4,0.1-2.5,0.2-1.4-0.6c0.9-0.6,6.2-4.8,2.7-4.6c-1.1,0.1-2.4-0.1-3.4-0.6c-0.2-0.1-3.3-1.3-2.5-1.9c0.5-0.4,3.5,1,4.4,1
		C660.1,87.1,663.8,85.6,663.7,86.4C663.7,86.4,663.8,86,663.7,86.4z M711,96.6c-0.2,1.8-0.4,4-0.1,5.8c0.1,0.8,1.2,4.3,0.7,4.9
		c-0.8,1.1-1.5-2.3-1.6-2.6c-0.4-1.8,0.2-4.3-0.5-6c-0.6,1-0.5,2.5-1.4,3.2c-0.9,0.8-0.2-2.8-0.2-2.9c0.1-0.4,1.4-2.5,1.3-2.7
		C708.7,94.3,711.2,94.9,711,96.6C710.9,97,711,96.2,711,96.6z M663.4,54.4c-0.5,0.3-3.4-0.9-4.1-1c-1.5-0.2-3-0.2-4.5-0.3
		c-0.3,0-3.1-0.1-2.9-0.8c0.1-0.3,3.2-0.5,3.6-0.5c3.4,0,6.9-0.2,10.3-0.2c0.5,0,0.8,0.4,0.6,0.9s-2.1,0.4-2.6,0.3
		C662.2,52.7,663.1,53.2,663.4,54.4C663.4,54.4,663.4,54.3,663.4,54.4z M721.4,87.1c-0.3,1.3-9.9,0.4-5.1-2.8
		c1.7-1.1,2.5-1.9,4.7-2.2c0.7-0.1,2-0.4,2.2,0.6c0.1,0.6-0.3,0.7-0.7,0.4c-1.4-0.9-4.1,0.8-5.2,1.6c-2.3,1.6,1.5,1.4,2.4,1.3
		c0.7-0.1,1.5-0.5,2.2-0.3c0.3,0.1,0.4,0.5,0.7,0.6C725.4,86.4,723.1,87.9,721.4,87.1C721.3,87.7,721.7,87.3,721.4,87.1z
		 M689.1,52.8c-1.9,0.2-3.9,0-5.8,0.1c-1.9,0.1-3.9,0.4-5.8,0.3c-1.8,0-3.4,0.4-5.2,0.1c-1-0.2-3.2-1-0.8-1.1
		c4.2-0.1,8.5-0.3,12.7-0.3c2,0,4,0,6,0C693.4,51.9,689.1,53.6,689.1,52.8C688.7,52.9,689.1,52.9,689.1,52.8z M646.4,97.9
		c0,0.3-0.3,1.8,0.1,1.9c0.4,0.2,2.7-1.7,3.2-2c1.1-0.6,2.4-1,3.5-1.5c1.2-0.5,1.4,1-0.1,1.3c-1.6,0.3-3.1,1.1-4.3,2.1
		c-0.4,0.3-3.5,4-4,3.2c-0.6-0.8,0.2-2.6,0.3-3.6c0.1-1.2-0.2-3.3,0.4-4.3C645.8,95.3,646.6,97.9,646.4,97.9
		C646.3,98.4,646.4,97.9,646.4,97.9z M691.2,57.4L691.2,57.4C691.2,57.5,691.3,57.5,691.2,57.4L691.2,57.4z M693.4,57.4L693.4,57.4
		c0.5-0.2,0.6-0.5,0.3-0.7C693.2,56.8,693.1,57.1,693.4,57.4C693.5,57.2,693.3,57.2,693.4,57.4z M694.7,57c0.4,0.1,0.5,0.4,0.5,0.7
		c-0.1,0.3-1.9,0.8-1.9,0c-0.6,0.3-1.2-0.4-1.5,0.1s-2.8-0.1-3.3-0.1c-2.1,0.1-5.2,1.7-6.6,3.3c-1.4-0.9,3.2-3.2,3.9-3.5
		c2.3-0.8,4.5-1.3,6.9-1.2c0.2,0,6.2,0,5.3,1.2C697.4,58,694.7,56.3,694.7,57C694.8,57.1,694.7,56.9,694.7,57z M666.2,55.4
		c0.8-2.4,6.4-0.3,8.2,0.1c1.5,0.4,3.5,1,4.7,2c0.5-0.3,3.3-1.8,3.7-1.2c-1,0.5-2.8,1.1-3.2,2.3c0-0.1-2.7-1.3-3.2-1.5
		c-1.5-0.5-2.9-0.9-4.5-1.3C671,55.7,666.4,55.9,666.2,55.4C666.3,55.2,666.4,55.9,666.2,55.4z M707.4,102.9c0.1,1,1.1,1.9,0.3,2.7
		c0.9,0.1,0.7,1.2,0.8,1.8c0.2,1.3,0.8,2.5,1.8,3.4s2.1,1.5,3.2,2.2c1.7,1,0.5,1.3-0.8,0.7c-2.1-1-4.1-2.4-5.1-4.5
		C707.3,108.5,705.9,102.8,707.4,102.9C707.4,103.2,707.3,102.9,707.4,102.9z M678.3,119.4c0.2-1.9,1.6-3,2.7-4.5
		c0.4-0.5,2.4-4.5,3-3.5s-1.9,4.9-2.4,5.9C680.9,118.6,679.2,122.3,678.3,119.4C678.5,118,678.4,119.7,678.3,119.4z M716.8,114.4
		c2.2,0,4.3-0.2,6.5-0.5c0.3-0.1,0.6,0,0.7,0.3c0.2,0.7-1.5,0.8-1.6,0.8c-0.5,0.1-3.7,0.2-3.7,0.7c1.1,0.6,2.4,0.9,3.6,1.3
		c0.5,0.2,2.5,1.4,0.7,1.3C720.5,118.1,716.5,117.4,716.8,114.4C717.5,114.4,716.7,114.7,716.8,114.4z M647.7,81.7
		c0,0.5,0.1,3.7-0.9,3c-0.9-0.6-0.2-3-0.2-3.8c0-0.4-0.1-4.6,0.4-4.6c1.1,0.1,0.9,1.8,1.1,2.5c0.3,1.4,0.6,2.8,1.7,3.9
		c0.4,0.4,2.1,1.1,2.2,1.6C652.4,86,647.2,81.8,647.7,81.7C647.7,82.1,647.7,81.7,647.7,81.7z M725.7,70.3c-0.6,0.8-0.8,1.8-1.8,2.1
		c-0.3-1,0.5-1.8,1-2.6c0.2-0.3,1.3-2,1.2-2.3c-0.2-1.3,1.4,0.1,1.3,1.1c-0.3,1.9-0.7,3.8-0.9,5.7c0,0.1-0.5,3.8-1.3,2.5
		C724.6,75.6,726.7,70.9,725.7,70.3C725.6,70.5,725.8,70.4,725.7,70.3z M679.7,66.5c0,0.2-0.1,0.3-0.1,0.5c-0.3-0.9-0.2-1.8-0.6-2.6
		c-0.5-0.9-1.4-1.6-2.1-2.3c-0.4-0.4-2.5-1.9-2.2-2.6c0.3-0.6,2.7,1.7,2.9,2c0.9,1,1.5,2,2.1,3.3c0.4,0.8,2-1,2.5-1.2
		c0.8-0.4,4.9-2.2,5.6-1.3c-2.5,1.2-6.3,1.8-7.5,4.7C680,66.8,679.8,66.6,679.7,66.5C679.6,66.7,679.9,66.7,679.7,66.5z M655.6,90.2
		c0.7,0,1,0.3,0.9,1c-0.1,0.6-2.1,0.5-2.6,0.8c-1.7,0.9-3.6,1.7-4.6,3.4c-0.3,0.5-0.8,1-1.4,0.4c-0.4-0.4,1.5-2.1,1.8-2.3
		C651.2,91.8,653.2,90.3,655.6,90.2C656.4,90.3,655.5,90.2,655.6,90.2z M695.2,52.6c2.2-0.1,4.4-0.3,6.6-0.4c1,0,1.9,0,2.9,0.2
		c0.9,0.2,0.2,1-0.4,1.1c-2,0.2-4.1,0-6.2,0c-1,0-2.1,0.1-3.1,0C694.3,53.4,694.4,52.5,695.2,52.6C695.6,52.6,694.7,52.5,695.2,52.6
		z M648.4,88.4L648.4,88.4C648.2,88.2,648.2,88.5,648.4,88.4C648.3,88.3,648.3,88.4,648.4,88.4z M647.3,89.4c0,1-0.1,2.1-0.2,3.1
		c-0.2,1.1-1.2,0.2-1.2-0.4c0.1-1.1,0.4-2.2,0.3-3.3c-0.2-1.5,0.6-1.1,1.9-1.1c1.2,0,2.3-0.1,3.4-0.3c1.2-0.2,0.7,0.6,0.3,1
		C650.9,89.5,648.4,88.1,647.3,89.4C647.2,90,647.3,89.4,647.3,89.4z M660.6,63.4c0.5,2.1-4.9,3.8-5.6,1.7c-0.4-1.3,2-2.3,3-1.9
		c0.3,0.1,0.3,0.8,0.5,0.8C659.3,64.2,659.8,63.5,660.6,63.4C660.7,63.8,660.5,63.4,660.6,63.4z M722.9,74.4c1.1,1.5-1.6,3-2.4,4.3
		c0.7,0,3.6-1.4,3.6,0c0,1.3-1.9,0.9-2.9,1.1C716.7,80.7,722,75.7,722.9,74.4C723.1,74.6,722.7,74.7,722.9,74.4z M723.1,107.5
		c-1.7-0.6-0.3-5.1-0.8-6.5c-0.3-1-5.2-0.8-4.8-1.4c0.1-0.1,2.3-0.3,2.5-0.2c0.9,0.1,2.2-0.4,2.8,0.5c0.6,1,0.4,2.3,0.4,3.4
		C723.2,104.6,723.6,106.3,723.1,107.5C722.3,107.2,723.2,107.3,723.1,107.5z M724.2,109.5c0,0.7-5,1.4-5.8,1.5
		c-1,0.1-3.6,0.6-4.4,0.2c-1.2-0.6,1.2-0.9,1.2-0.9c1.2,0,2.4-0.2,3.5-0.2C719.3,110,724.2,108.8,724.2,109.5
		C724.2,109.9,724.2,109.2,724.2,109.5z M719.5,96.7c-1.6,0-2.4,0.2-3.6-0.7c-0.7-0.6,3.3-0.5,3.6-0.6c0.7,0,3.4-0.9,3.4,0.5
		C722.8,96.9,719.5,96.6,719.5,96.7C718.8,96.7,719.5,96.8,719.5,96.7z M655.3,60.1c0.5-0.6,4.4-1.7,4.3-0.5
		C659.4,61.3,655.4,61.7,655.3,60.1C655.4,59.9,655.3,60.7,655.3,60.1z M697.3,60.8c0.5-0.1,4.4-1.3,4.4-1.3
		c-0.5,0.5-5.7,3.5-5.9,2.1C695.8,60.9,697.7,61.8,697.3,60.8C698,60.6,697.5,61.2,697.3,60.8z M681,91.1c0.4,0.6,2.1,3.3,0.5,3.2
		C680.9,94.3,680.6,91.4,681,91.1C681.1,91.3,680.9,91.2,681,91.1z M727,137.7c-0.8-0.6-0.9-4.2-0.3-5
		C727.4,133.5,727.1,136.6,727,137.7C726.9,137.6,727,137.2,727,137.7z M685.5,145.7c0.2,0.6-1.5,1-1.9,0.5
		C682.9,145,685.2,145.6,685.5,145.7C685.7,146,685,145.6,685.5,145.7z M668.6,49c-0.4,0-2.9,0-3-0.3
		C665.9,48.6,669.1,48.4,668.6,49C667.6,48.9,668.6,48.9,668.6,49z M652.9,49c1-0.1,2.8-0.5,3.7,0C656.4,49.3,652.8,49.4,652.9,49
		C654,48.9,652.9,49.1,652.9,49z M688.8,69.2c0.8-0.2,1.6-0.4,2.3-0.6c0.1,0.4-0.8,0.1-0.2,0.6C690.2,69.5,689.5,69.7,688.8,69.2
		C689.6,69,689.5,69.7,688.8,69.2z M660.9,146.1c0,0.1,0,0.2,0,0.3c-0.7-0.1-2.4-0.1-2.4-1C659.4,145.7,660.1,145.9,660.9,146.1
		C660.9,146.2,660.1,145.9,660.9,146.1z M646.5,138.8c0,0.6,0.7,0.4,1,0.7c-0.7,0.6-1.6-0.3-2.1-0.8
		C645.8,138.8,646.2,138.8,646.5,138.8C646.5,139.4,646.1,138.8,646.5,138.8z M726.1,63.2c-0.1,0.8-0.1,1.8-0.6,2.4
		c-0.1,0-0.1,0-0.2-0.1C725.4,65,725.6,63.5,726.1,63.2C726,63.9,725.7,63.4,726.1,63.2z M723.9,68.6L723.9,68.6L723.9,68.6
		L723.9,68.6C724,68.5,723.9,68.7,723.9,68.6L723.9,68.6L723.9,68.6L723.9,68.6 M658.4,48.9c-0.4,0.2-1.4,0.2-1.6,0
		C657.4,48.6,657.9,48.9,658.4,48.9z M702.5,144.4C704.5,143.6,702.9,145.3,702.5,144.4C702.7,144.3,702.5,144.4,702.5,144.4z
		 M702.5,58.3c0,0.5-0.3,0.8-0.7,0.8C701.8,58.7,702,58.2,702.5,58.3C702.4,58.6,702.1,58.2,702.5,58.3z M725,66.6
		c0.2,0.4,0,0.7-0.6,1.1C724.4,67.3,724.6,67,725,66.6z M696.3,69.2c-0.3,0.2-0.6,0.4-0.8,0.6C695.5,69.2,695.7,69.1,696.3,69.2z
		 M665.8,146.8c0.3-0.1,0.7-0.2,1,0.1C666.5,147.1,666.1,147,665.8,146.8z M697.6,144.6c-0.3-0.1-0.6-0.1-0.8-0.2
		C696.7,144,697.6,144.1,697.6,144.6C697.3,144.6,697.6,144.2,697.6,144.6z M700.9,144.9c-0.3,0.1-0.6,0-0.7-0.2
		C700.5,144.5,701,144.2,700.9,144.9C700.6,144.8,700.9,144.6,700.9,144.9z M662.8,48.7c0.4,0,0.6-0.3,0.9,0
		C663.6,48.7,662.7,49.2,662.8,48.7C663.1,48.7,662.8,48.7,662.8,48.7z M644.8,60.9c-0.4-0.5-0.4-0.3-0.1-0.7
		C644.9,60.4,645,60.6,644.8,60.9C644.6,60.7,644.8,60.7,644.8,60.9z M643,87.4c0,0.2,0.1,0.5,0.1,0.7
		C642.7,88.2,642.6,87.5,643,87.4C643,87.7,642.9,87.4,643,87.4z M644,68.4c0.2,0.2,0.6,0.9,0,0.9C644,69,644,68.7,644,68.4
		C644.3,68.7,644,68.8,644,68.4z M724.2,143c-0.2,0.2-0.4,0.3-0.7,0.2c0-0.1,0-0.1,0-0.2C723.7,142.9,724.1,142.8,724.2,143
		C724.1,143.1,724.2,143,724.2,143z M694.3,144.6c0.1-0.2,0.1-0.3,0.2-0.5C694.8,144.3,694.8,144.8,694.3,144.6
		C694.4,144.4,694.4,144.6,694.3,144.6z M690.1,145.4c-0.2-0.8-0.2-0.7,0.5-0.2C690.4,145.2,690.3,145.3,690.1,145.4
		C690.1,145.2,690.3,145.3,690.1,145.4z M699.6,68.6c-0.2-0.1-0.4-0.1-0.6-0.2C699.1,68,699.7,68.1,699.6,68.6
		C699.4,68.5,699.6,68.5,699.6,68.6z M698.5,68.5c-0.3,0.3-0.5,0.3-0.6,0C698.2,68.2,698.4,68.2,698.5,68.5
		C698.3,68.6,698.5,68.5,698.5,68.5z M677.6,48.3c0.2,0,0.4,0.1,0.6,0.1C678.1,48.9,677.5,48.8,677.6,48.3
		C677.8,48.4,677.6,48.4,677.6,48.3z M678.4,48.3c0.2,0,0.4,0.1,0.7,0.1C678.7,48.7,678.6,48.7,678.4,48.3z M676.5,48.4
		c0.5-0.2,0.7-0.1,0.6,0.1C676.7,48.8,676.5,48.7,676.5,48.4C676.8,48.5,676.5,48.5,676.5,48.4z M643.3,83.3c0.1,0.4,0,0.6-0.3,0.5
		C642.9,83.4,643,83.2,643.3,83.3C643.3,83.5,643.2,83.3,643.3,83.3z M686,145.7c0.4-0.3,0.5-0.3,0.6,0C686.2,146,686,146,686,145.7
		C686.1,145.7,686,145.8,686,145.7z M700,68.4c-0.2-0.3-0.2-0.5,0.1-0.5C700.3,68.2,700.3,68.3,700,68.4
		C700,68.2,700.1,68.3,700,68.4z M701.5,143.6c0.3-0.1,0.4-0.1,0.4,0.1C701.6,143.9,701.5,143.9,701.5,143.6
		C701.6,143.6,701.5,143.7,701.5,143.6z M695.6,145.8c-0.2,0.2-0.3,0.2-0.4,0C695.4,145.6,695.5,145.6,695.6,145.8
		C695.5,145.9,695.5,145.7,695.6,145.8z M660.9,48.8c0.2-0.2,0.4-0.2,0.4,0.1C661.1,49.1,660.9,49,660.9,48.8
		C661,48.8,660.9,48.9,660.9,48.8z M694,145.8c0.1-0.1,0.2-0.1,0.4-0.1C694.5,145.9,694.2,146.1,694,145.8
		C694.1,145.7,694,145.8,694,145.8z M701.9,68c-0.3,0.1-0.5,0.1-0.4-0.1C701.8,67.7,701.9,67.8,701.9,68
		C701.7,68,701.9,67.9,701.9,68z M643.4,82.5c0.1,0.3,0.1,0.4-0.1,0.4C643,82.6,643.1,82.4,643.4,82.5
		C643.4,82.6,643.3,82.5,643.4,82.5z M701.5,144.6c0,0.3-0.1,0.3-0.3,0.2C701.3,144.5,701.3,144.4,701.5,144.6
		C701.5,144.6,701.5,144.5,701.5,144.6z M661.8,146.4c0.3-0.1,0.4,0,0.4,0.2C661.8,146.7,661.7,146.6,661.8,146.4
		C661.9,146.4,661.8,146.4,661.8,146.4z M699.4,145.5c-0.3,0-0.4-0.1-0.3-0.3C699.4,145.2,699.5,145.3,699.4,145.5
		C699.3,145.4,699.4,145.4,699.4,145.5z M712.6,144.2c-0.3,0.1-0.4,0.1-0.4-0.1C712.5,144,712.7,144,712.6,144.2
		C712.5,144.2,712.6,144.2,712.6,144.2z M675.7,48.3c0.3,0.1,0.4,0.2,0.2,0.4C675.6,48.6,675.5,48.4,675.7,48.3
		C675.8,48.4,675.7,48.3,675.7,48.3z M712,125.9c-0.1,0-0.2-0.1-0.4-0.1C711.6,125.6,712,125.7,712,125.9
		C711.8,125.9,712,125.9,712,125.9z M661.8,48.6c0.1,0,0.2,0.1,0.3,0.1C662,48.9,661.7,48.8,661.8,48.6
		C661.9,48.6,661.8,48.6,661.8,48.6z M701,67.8c-0.2,0.2-0.3,0.2-0.4,0C700.8,67.6,701,67.6,701,67.8C700.9,67.9,701,67.8,701,67.8z
		 M691.7,145.1c-0.1-0.2,0-0.3,0.1-0.3C691.9,145.1,691.9,145.2,691.7,145.1C691.7,145,691.8,145.1,691.7,145.1z M649.8,140.1
		c0.3-0.2,0.4-0.1,0.4,0.1C649.9,140.4,649.8,140.3,649.8,140.1C649.9,140.1,649.8,140.2,649.8,140.1z M688.5,62
		c-0.2,0.1-0.3,0.1-0.3-0.1C688.4,61.8,688.5,61.8,688.5,62C688.4,62,688.5,61.9,688.5,62z M693.6,144.7c-0.2,0-0.3-0.1-0.2-0.2
		C693.7,144.5,693.7,144.6,693.6,144.7C693.5,144.7,693.6,144.7,693.6,144.7z M659.4,140.7c0.1,0.1,0.1,0.2,0,0.3
		C659.3,140.8,659.3,140.7,659.4,140.7C659.5,140.7,659.4,140.7,659.4,140.7z M692.4,144.4c0.2-0.1,0.3-0.1,0.3,0.1
		C692.5,144.7,692.3,144.6,692.4,144.4C692.5,144.4,692.4,144.5,692.4,144.4z M675.1,48.6c-0.2,0-0.3,0-0.2-0.2
		C675.1,48.4,675.2,48.4,675.1,48.6C675,48.6,675.1,48.6,675.1,48.6z M687.6,146.1c0.2-0.1,0.3,0,0.3,0.2
		C687.6,146.4,687.5,146.3,687.6,146.1C687.7,146.1,687.6,146.2,687.6,146.1z M642.9,89.5c0-0.1,0-0.2,0-0.4
		C643.2,89,643,89.4,642.9,89.5C642.9,89.3,643,89.3,642.9,89.5z M693.6,146c-0.1-0.2-0.1-0.3,0.1-0.3
		C693.8,146,693.7,146,693.6,146C693.6,145.9,693.6,146,693.6,146z M702.8,143.6C702.5,143.9,702.5,143.4,702.8,143.6
		C702.7,143.7,702.7,143.6,702.8,143.6z M644.8,58.7c-0.1-0.1-0.1-0.2,0-0.2C644.9,58.5,644.9,58.6,644.8,58.7
		C644.8,58.6,644.9,58.6,644.8,58.7z M727.7,141.6C727.9,142,727.5,141.9,727.7,141.6C727.8,141.7,727.7,141.7,727.7,141.6z
		 M695.5,61.5C695.3,61.6,695.3,61.3,695.5,61.5C695.4,61.5,695.5,61.5,695.5,61.5z M670.1,146.9
		C669.9,146.4,670.3,146.8,670.1,146.9C670.1,146.8,670.2,146.9,670.1,146.9z M678.8,142.8c-0.1,0.1-0.2,0.1-0.3,0
		C678.6,142.6,678.7,142.6,678.8,142.8C678.7,142.8,678.7,142.7,678.8,142.8z M660.3,48.9C660.1,49,660.1,48.7,660.3,48.9
		L660.3,48.9z M643.9,70.7c-0.2,0.2-0.3,0.1-0.3,0C643.7,70.6,643.8,70.6,643.9,70.7C643.7,70.7,643.7,70.6,643.9,70.7z
		 M665.3,146.6C665.3,147,665,146.6,665.3,146.6C665.3,146.7,665.2,146.6,665.3,146.6z M680.8,48.3C681,48.5,680.6,48.5,680.8,48.3
		L680.8,48.3z M671.6,146.6C671.3,146.8,671.3,146.4,671.6,146.6C671.5,146.7,671.5,146.6,671.6,146.6z M651.4,49.5
		C651.1,49.5,651.3,49.3,651.4,49.5C651.3,49.5,651.4,49.5,651.4,49.5z M655.9,76.2C656,76,656.1,76.3,655.9,76.2
		C655.9,76.1,655.9,76.2,655.9,76.2z M687,145.7C686.6,145.6,687,145.5,687,145.7C687,145.6,687,145.6,687,145.7z M694.3,68
		C694,68.1,694.1,67.8,694.3,68C694.2,68,694.3,68,694.3,68z M672,48.7C672.2,48.6,672.3,48.7,672,48.7L672,48.7z M665.7,88.6
		C665.5,88.7,665.4,88.4,665.7,88.6C665.6,88.6,665.6,88.5,665.7,88.6z M693.2,146C692.9,146,693.1,145.8,693.2,146
		C693.1,146,693.1,146,693.2,146z M674.1,144C673.8,144.1,674,143.8,674.1,144C674,144,674,144,674.1,144z M695.3,144.9
		C695.2,145.1,695.1,144.7,695.3,144.9L695.3,144.9z M713.9,126.8C714,127,713.8,126.9,713.9,126.8
		C714,126.9,713.9,126.9,713.9,126.8z M723.4,70.2C723.2,70.3,723.2,70.1,723.4,70.2C723.3,70.2,723.3,70.2,723.4,70.2z
		 M662.9,146.6C662.9,146.4,663,146.5,662.9,146.6L662.9,146.6z M677.3,146.8C677.4,147,677.2,146.9,677.3,146.8L677.3,146.8z
		 M643,85.4C642.9,85.5,642.9,85.3,643,85.4L643,85.4z M649.3,139.8C649.3,139.9,649.2,139.8,649.3,139.8
		C649.3,139.9,649.3,139.8,649.3,139.8z M644.6,66.2C644.4,66.3,644.4,66.1,644.6,66.2C644.5,66.2,644.5,66.2,644.6,66.2z
		 M712.3,126.1C712.2,126.2,712.3,126,712.3,126.1L712.3,126.1z M700,48.7C700.1,48.8,699.9,48.8,700,48.7L700,48.7z M695.4,144.3
		C695.4,144.4,695.4,144.3,695.4,144.3L695.4,144.3z M699.7,68C699.6,68,699.6,67.9,699.7,68C699.6,68,699.7,67.9,699.7,68z
		 M667.3,146.9C667.2,146.9,667.2,146.8,667.3,146.9L667.3,146.9z M648.1,139.8L648.1,139.8 M643.4,79.8L643.4,79.8 M695.4,67.6
		C695.4,67.5,695.5,67.5,695.4,67.6L695.4,67.6z M672,48.7C671.9,48.7,672,48.7,672,48.7C671.9,48.7,672,48.7,672,48.7z M710.4,51.4
		L710.4,51.4L710.4,51.4z M710.4,51.4L710.4,51.4L710.4,51.4z M725.9,61.5C725.9,61.5,725.9,61.6,725.9,61.5
		C725.9,61.6,725.9,61.5,725.9,61.5z M646,140.6L646,140.6c0.2-0.2,2.9,0.7,3.7,0.9c0.6,0.1,1.4,0,1.7-0.6c0.2-0.5-0.8-0.4-0.8-0.8
		c1.2-0.6,0.4-3.6,0.5-4.8c0-0.7,0.1-1.3,0.2-1.9c0.1-1.4,0-2.5,0.5-3.9c1.4-4.3,3.4-7.9,6.5-11.3c1.4-1.5,2.4-3.5,3.8-5.1
		c1.5-1.7,3.1-3.3,4.5-5c1.2-1.4,2.3-2.7,3.2-4.4c0.2-0.4,0.1-1.6,0.7-1.7c1-0.3-0.5-1.3-0.1-1.7c0.1,0.1,0.9,0.9,1,0.9
		c0.3,0,0.6-0.9,0.9-0.4c0.5,0.8,0.9,1.4-0.2,1.3c-0.2,1.6-1.5,3.5-2.5,4.8c-1.2,1.4-2,3-3.3,4.5c-1.4,1.7-2.8,3.2-3.8,5.1
		c-0.2,0.2-0.4,0.2-0.6,0c-0.2,0.4-0.4,0.7-0.5,1.1c-0.2,0.4-1.8,2.4-1.3,2.7c0.4-0.3,1.6-1.5,1.6-0.2c0,1.1-2.1,2.9-2.8,3.7
		c-1.7,2.2-3,5.1-3.5,7.8c-0.2,1.4-0.1,2.9-0.2,4.3c-0.1,1.4,0.7,2.1,1,3.5c0.5,2.5-2.4,1.4-3.6,0.3c-0.6,2,0.4,1.1,1.6,1.9
		c-0.5,0.9-1.1,0.3-2.2,0.4c-1.3,0.2-2.8-0.1-4.1-0.2c-1.4-0.2-5.6-0.4-6.1-2.2c0.7-0.4,2.2-1.1,3-0.6c-0.6,0.3-1.2,0.5-1.7,0.8
		C643.2,140.6,645.8,140.3,646,140.6C646.1,140.5,646.1,140.6,646,140.6z M683.2,140.6c0,0,0.1-0.1-0.1-0.4
		C683.1,140.4,683.1,140.5,683.2,140.6z M683.5,140.9c-0.2-0.1-0.3-0.2-0.3-0.2C683.3,140.8,683.4,140.9,683.5,140.9z M683.1,140.3
		L683.1,140.3C683,140.6,682.9,140.2,683.1,140.3L683.1,140.3c0.1,0.2,0.2,0.2,0.3,0.3c-0.2-0.5-0.7-1.2-0.8-1.5
		c-0.5-1.1-1-2.2-1.7-3.2C680.9,136.7,682.2,140.2,683.1,140.3L683.1,140.3L683.1,140.3z M723.9,68.7
		C723.9,68.6,723.9,68.6,723.9,68.7c0.1-0.2,0.1-0.3,0.2-0.4c0.2,0.5,0.1,0.9-0.3,1.2C723.2,68.9,723.9,68.9,723.9,68.7z
		 M646.9,64.6c-0.5-0.6,1.9-1.1,2.2-1.2c1.5-0.4-1.5-2.9-0.9-4.1c0.8-1.5,1.9-2.3,3.3-3.1c0.3-0.2,1.2-1,1.5-1.1
		c0.3,0.1,0.5,0.3,0.7,0.4c0.5,0.1,1.2-0.3,1.7-0.5c0.9-0.4,1.6,0.2,2.4,0.6c1.3,0.6,1.7,0.3,3-0.1c2.6-1,3,2.6,4.7,3.2
		c2.2,0.7,4.4-2.6,5.3,0.8c0.6,2.3,3,3.4,4.7,4.7c1.8,1.3,2.1,3.8,1.9,5.9c-0.1,1.1-0.6,2-0.8,3.1c-0.1,0.6,1.6,0.9,1.8,0.5
		c1.2-1.9,2-3.5,4.1-4.5c0.9-0.5,1.9-0.8,2.8-1.2c0.8-0.4,2-0.8,2.9-1c1.9-0.5,3.6-1.4,5.4-1.9c1.9-0.6,4-0.7,6-1.2
		c1.9-0.5,3.8-1.6,5.3-2.8c0.5-0.3,1.9-1.4,2-2c0.1-0.3,0.3-0.4,0.5-0.4c-0.4-0.3,0.3-1.1,0.5-1.5c0.3,0.7,1.1-1.8,1.3-2.4
		c0.3-0.7,0.5-1.5,0.8-2.2c0.3-0.6,1-0.3,1-0.8c0.2-1.6,1.9,0.5,1.4,1.7c-0.4,0.9,0.8,2.7,0.5,3.9c-0.8,2.5-1.6,5.1-3.6,7.1
		c-1.1,1.1-2.4,1.7-3.6,2.6c-0.3,0.3-3.1,1.4-3.7,0.8c0.8-0.3,2.1-0.6,2.8-1.1c0.8-0.6,1.5-2,2.1-2.8c0.4-0.5,3.6-5.2,2.9-5.6
		c-1,1.2-1.5,2.7-2.6,3.9c-1.3,1.4-2.7,2.2-4.5,2.9c-1.6,0.6-2.7,1.4-4.4,1.8c-2.2,0.5-4.5,0.4-6.7,0.9c-1,0.2-3.7,0.7-3.7,2.1
		c-0.1,1.4-0.9,1.7-1.9,2.7c-0.6,0.6-3,2.5-2.6,3.6c0.6,1.7,2.4-0.7,3-1.1c2.1-1.2,5.1-3,7.6-2.9c0,0,8.4-2,9.2-2.3
		c1.7-0.6,3.5-1.1,4.9-2.1c1.6-1.1,2.4-2.6,3.6-4.1c1.2-1.5,2.3-3,2.8-4.8c0.2-0.9,0.3-1.8,0.2-2.8c-0.1-1.3,0.2-0.8,0.9-1.1
		c-0.1-0.6-0.3-1.2-0.4-1.8c2.4,1.1,0.3,5.6-0.5,7.2c-0.3,0.7-3.4,7.1-3.9,6c-0.5,0.3,0.1,0.3,0.1,0.7c-0.1,0.4-0.8,1.3-1,1.6
		c-0.8,0.7-2.1,2.3-3.3,2.1c0.3-0.6,4.5-2.7,2.6-3c-0.5,1.7-3.8,2.6-5.2,3.2c0.7,0.4,1.4-0.4,2.1,0c-0.7,0.7-2.9,0.8-3.9,1
		c-1.8,0.3-3.7,0.5-5.5,0.8c-2.8,0.4-7.2,1.4-8.8,4c-0.4-1.1-0.8-0.3-1.3,0.4c-0.6,1-0.8,1.2,0.2,2c0.6,0.5,1.9-2.2,2.7-2.4
		c5-1.1-2.6,4.3-0.6,4.7c0.6,0.1,2.6-2.4,3.2-2.8c1.3-1,2.4-1.5,3.9-1.9c1.9-0.5,3.9-0.9,5.8-1.3c1.4-0.3,2.7-1.2,4.1-1.4
		c0,0.7-0.3,0.7-0.6,1.2c0.5-0.2,0.8-0.4,1.3-0.3c-2.2,2.5-6.4,2.3-9.5,2.7c0.2,1.5-2.3,1.5-3.3,2.2c-0.7,0.6-1.2,1.2-1.7,1.9
		c-0.3,0.5-0.8,1.2-1,1.8c-1,2.3,1.9-1,2.2-1.4c0.6-0.6,1.8-0.2,1,0.6c-0.4,0.5-0.7,1.4-0.8,1.7c1.1,0.5,0.3,0.2,1.2-0.1
		c0.4-0.1,0.3,0.8,0.7,0.9c0.7,0.2,2.9-1,3.5-1.3c1.1-0.6,2.7-1.1,3.6-1.9c0.4-0.3,0.9-0.6,1.3-0.9c0.4-0.3,0.9,0.4,0.6,0.7
		c-1.7,2.1-4.8,2.7-6.6,4.8c-0.7,0.8-2.1,2.2-2.5,3.1c-0.2,0.5,1.1,3.9,1.5,3.7s0.9-1.6,1.2-2c0.4-0.5,0.8-1.1,1.2-1.7
		c1.1-1.5,2.6-2.7,4-4c0.7-0.7,1.4-1.3,2.2-1.9c0.6-0.5,1.6-0.8,2.1-1.3c0.6-0.6,1.3-1.1,2-1.5c0.5-0.4,0.7,0.7,0.2,0.9
		c-0.5,0.3-1.9,1.3-2.2,1.8c-0.2,0.4-1,0.7-1.1,1.1c0,0-0.7,0.7-0.8,0.8c-1.2,0.6-2.4,2.2-3.3,3.2c-1.3,1.5-1.5,3-2.4,4.6
		c1.4,0.7,3.2-3.3,4.2-2.9c1.4,0.6-2.5,4-2.3,5c0.1,0.4-0.6,1.2-0.8,1.6c-0.3,0.8-0.6,2.2-0.8,3.1c-0.5,2.5,0,4.9,0.9,7.1
		c0.9,2.3,1.2,4.4,2.6,6.6c0.7,1.1,1.4,2.1,2.4,3.1c0.1,0.1,1.3,1.5,0.1,1.3c-1-0.2-1,0.3-1.7-0.7s-1.4-2-2-3.1
		c-0.4-0.7-3.8-7.6-4.1-7.5c0.4,3.2,0.9,6.4,2.7,9.1c0.4-0.7,1.1,1.6,1.5,2.1c1.2,1.6,2.2,3.2,3.8,4.4c0.7,0.6,1.9,0.9,2.7,1.2
		c0.5,0.2,1,0.5,1.4,0.8c0.7,0.6-0.2,0.6-0.3,0.8c1.6,0.9,3.1,1.4,4.9,1.9c0.8,0.2,1.1,0.8,2.1,0.5c0.4-0.1,1.7-0.6,1.9-0.2
		c-0.3,0.2-0.6,0.4-0.8,0.6c1.1,0.4,2.3,0.4,3.5,0.4s2.2-0.6,3.4-0.7c0.3,0,0.8,0.7,1.1-0.1c0.3-1,0.2-1.6,0.1-2.6
		c-2.9,0.8-5.5,0.5-8.4,0c-0.7-0.1-8.6-3.3-7.3-4.7c0.3-0.3,3.1,1.6,3.5,1.8c1.8,0.8,3.4,1.3,5.3,1.5c1.8,0.2,3.4,0.7,5.2,0.2
		c2-0.6,1.8-1.1,2-3c-1.1,0.3-2.2,0.8-3.4,0.8c-1.4,0-2.9-0.4-4.3-0.4c-0.9,0-2.1-0.8-2.9-1.1c-1.3-0.5-2.5-1-3.9-1.3
		c-1.1-0.3-1.9-1.7-2.6-2.5c-0.8-0.9-1.7-1.8-2.6-2.6c-1.6-1.6-3.2-4.3-3.7-6.5c-0.8-3-0.3-5.9,0.3-8.8c0.6-2.5,1.7-4.5,2.6-6.9
		c1.1-2.9,2.8-5.4,4.3-8.1c0.3-0.6,1.3-2.6,2-2.8c0.8-0.3,0.9-0.5,1.5-1.3c0.2-0.3,0.8-1.5,1.2-1.3c-0.1,0.8-1.3,1.5-1.2,2.3
		c0.4-0.4,2.9-3.1,2.5-3.4c-0.1,0.2-0.7,1.1-1,1c0.2-0.8,0.8-1.8-0.8-1.3c-0.4,0.1-3.3,2.6-3,1.7c0.9-2.6,4-3.9,5.7-6.1
		c2.3-3,4.5-6.6,5.5-10.3c0.4-1.6,0.5-3.2,0.7-4.9c0-0.5-0.2-3.9-0.1-3.9c0.3,0,0.5,0.8,0.6,1c0.7-0.7-0.8-3.1-0.5-3.9
		c0.2-0.8,1,0.4,1,0.5c0.1,0.7,0.9,0.4,1.2,1c0.7,1.6,0.6,3.7,0.5,5.5c0,0.6,0.3,4.9-0.6,4.1c-0.6,1.6-4,7.6-2.7,8.8
		c-1,0.1-0.6,0-0.7,0.7c-0.1,0.5-0.4,0.3-0.5,0.9c-0.4,1.4-2,2.9-2.9,4c-2,2.8-3.9,6-6.2,8.5c-2.2,2.5-5.4,6-6.3,9.2
		c-0.8,3.1-1.2,6.8-0.9,10c0.4,3.6,0.7,6.4,3.3,9c2.3,2.3,5,3.9,7.8,5.4c1.4,0.8,9.5,3.2,10.1,0.7c0.3-1.5,0.8-3.3,0.8-5
		c0-0.7-0.4-3.1,0.6-3.2c-1.2-0.5-0.2-8.2,0-8.2c0.7,5.4,0.1,11.1,0.2,16.6c0.5-0.1,0.9-0.2,1.4-0.2c-0.5,1.1-1.7,0.8-1.6,2.4
		c0.1,0.7-0.1,1.4,0.1,2.1c0.2,0.6-0.4,0.9-0.6,1.5c-0.4,1.5-0.1,2.1,0.6,3.3c0.2,0.4-1.2,3.3-1.4,3.9c-0.3-0.4-0.6-0.7-1-1.1
		c-1.5,1.5-5.4,0.9-7.2,0.3c-2.9-1-5.8-1.9-8.7-3c-0.4-0.2-2.5-0.9-2.2,0.5c0.3,1.1,2.7,2.2,3.6,2.8c1.4,0.8,2.9,1.5,4.4,2
		c0.7,0.3,1.5,0.6,2.2,0.8c2.5,0.8-0.4-0.3,0.8,0.6c0.6-0.6,0.5-0.6,1.3-0.4c-1.5,0.5,0.1,0.7,0.7,0.7c1,0,2,0.1,3,0.1
		c0.5,0,1.5,0,2,0.2c1.1,0.4-1.6,0.9-1.5,0.8c-1.4,0.7-5.3,0.1-6.9-0.6c-1.9-0.8-3.9-1.2-5.8-1.9c-0.7-0.3-0.2-1.1-0.7-1.3
		c-1.2-0.5-2.2-0.8-3.3-1.5c-2-1.3-3.9-3.2-6-4.2c-0.9-0.4-1.2-1.4-1.9-2.1c-0.6-0.7,0.3-1.9,1.1-1c1.1,1.4,3.5,3.4,5.2,1.5
		c-0.4-0.4-0.4,0.4,0,0c-0.8-0.6-0.6-1.4-1.4-2.1c-0.8-0.7-2.5-1.5-3.1-2.4c-1.7-2.4-2.8-4.7-3.5-7.6c-0.7-3-1.5-6.2-1.8-9.3
		c-0.3-2.7-0.5-5.7-1.4-8.2c-0.4-1-1.1-0.7-1.3-1.9c-0.3-1.5-0.7-3-1.3-4.5c-0.4-1-1.1-1.6-1.8-2.4c-0.7-0.8-0.7-1.7-1.4-2.4
		c-0.9-1-2.5-4.9-4.1-4.5c0.3-0.1-1.5-1.9-1.7-2c-1.1-0.9-2.2-1.3-3.5-2c0-0.2,0.2-0.3,0.4-0.3c-0.4-0.4-0.6,0-1,0.1
		c0.1,0-1.3-1-1.3-1c-0.6-0.3-4-0.5-4.1-1.4c-0.1-0.6-0.7-0.6-1.1-0.9c-0.4-0.3-0.1-1.3,0.4-1c0.9,0.6,2.6,1.3,1.9-0.6
		c0.2-0.1,0.4-0.1,0.6,0.2c0-0.7,0.2-0.8-0.3-1.1c-0.2-0.2,0.2-1,0.2-1.2c-0.1-0.6-0.4-1-0.7-1.5c0.6-0.3-0.3-1.1-0.4-1.4
		c-0.9-1.3-1.8-1.9-3.2-2.8c-1-0.7-1.5-2.1-1.9-3.1c-0.6-1.5-0.3-0.8-1.7-0.6c-1.4,0.1-1,1.2-1.8,1.9c-0.8,0.8-3.1,0.4-3.8-0.4
		c-1.4-1.7,2.5-0.9,2.6-1.7c0-0.3-1.5-2-1.8-2.3c-0.3,0.2,0.3,0.5-0.1,0.7c-0.9-1.5-1.4-1.5-3.1-0.6c-1.6,0.9-2-0.7-3.7-0.8
		c-0.5,0-1.1,0-1.6,0.1c-1,0.2-1.5-0.1-2.4-0.1c-1.5,0-2.1,2-1.9,3.1c0.7,0,0.8,0.3,1.5,1.1c1.2,1.5-0.5,1.7-0.9,2.9
		c-0.3,1-1.5,0.4-2.2,1c-0.9,0.8,0.1,3.2,1.6,2.7c1-0.3,2.8,1.1,3.4,1.7c1.1,1.2,1.3,2.5,1.9,3.9c0.3,0.8,0.4,1.5,0.6,2.3
		c0.1,0.8-0.8,0.4-1.1,0c-0.6-1.1-0.4-2.8-1.4-3.6c-1.8,3.3,0.2,7.4,3.1,9.2c2.3,1.4,7.4,2.6,9.8,0.4c-0.4-0.2-1.3-0.1-1.2-0.6
		c0.4,0,1.3,0.4,1.6,0.1c0.4-0.4-0.7-2.1-0.9-2.6c-0.5-1.9,1.3-1,1.9-0.2c1,1.4,1.7,2.6,1.7,4.2c0,1.8,0.4,3.6,0.5,5.3
		c0.1,2.3-0.2,4.6-0.4,6.9c-0.1,1.6-0.9,3.1-1.3,4.6c-0.1,0.7-0.5,1.3-0.7,2c-0.1,0.6-0.5,0.9-1,1c0.1,0.2,0.1,0.4,0.1,0.6
		c-0.3,1.4-1.7,2.5-2.3,3.7s-1.6,2.6-2.5,3.6c-0.9,1.1-1.8,2.5-2.7,3.7s-1.5,2.5-2.5,3.5c-0.8,0.8-2.8,2-2.5,3.3
		c0,0.3-0.9,0.6-1,0.9c-0.3,0.8-0.7,0.9-1.2,1.6c-0.3,0.5-0.6,1.3-1,1.8c-0.5,0.8-0.8,1.7-1,2.6c-0.7,2.2-0.9,4.6-0.9,6.9
		c0,1.1,0.7,4.8-1.2,4c0.1,0.3,0.1,0.6-0.1,0.9c-0.6-0.3-0.6-1.5-1.2-1c-0.4-3.5,0.1-7.4,1.5-10.7c1.2-2.7,1.9-6.2,3.7-8.6
		c0.8-1.1,1.5-2.3,2.5-3.2c0.5-0.4,1.9-2,2-2.5c0.3-0.9,2.1-2.8,2.8-3.3c0.2-0.5,0.9-1.3,1-1.7c0-0.6,2-1,1.1-1.6
		c-3.5,2.1-7.1,4.2-9.8,7.3c-0.6,0.6-1,1.3-1.6,2c-0.7,0.8-0.6-1-0.3-1.4c1-1.4,2.1-2.5,3.1-3.8c0.6-0.7,1.3-1.2,2-1.8
		c1.2-1.2,0.3-0.8-0.5-1.3c-1.9-1.2,2.5-3.2,3-3.5c1.8-1.1,3.7-2.1,5.4-3.3c1.3-0.9,5.3-4.1,3.7-5.7c-3.9,4-8.9,7-14.1,8.9
		c-3.4,1.2-5.9,2.9-7.9,5.9c-0.7,1.1-1,1.1-1.1,2.5c0,0.4-0.4,3.3,0.6,2.5c0.5-0.3,1.1-1.7,1.4-2.2c0.5-0.9,1.5-1.8,2.3-2.4
		c0.8-0.7,1.6-1.4,2.5-2c0.4-0.2,0.8-0.9,1.3-1c1-0.2-0.1,1.7-0.2,1.9c-2.3,2.3-5,5.1-6.2,8.1c-0.5,1.2-1.5,2.6-1.2,3.9
		c0.1,0.5-0.1,3.2-0.6,3.3c0.6,0.4-0.1,1-0.3,1.4c0.6,0.3,2.8-4.2,3-5s0.6-1.4,1.5-0.9s-0.3,2.3-0.6,3c-1.8,4.9-2.7,9.9-1.7,15
		c-1.6,0-0.5-6.1-1.8-5.7c0,0.8,0.3,2-0.4,2.7c-0.3-0.6-0.2-1.7-0.2-2.3c0-0.7-0.3-1.2-0.4-2c-0.1-2-0.2-4-0.1-6
		c0.2-3.6,0.4-7.1,0.5-10.8c0.1-3.3,0.1-6.8,0.1-10.2c0-2.2,0.2-4.5,0-6.8c-0.1-1-0.4-4.6,0.4-5.1c0.4,3,0,6.1,0.1,9.1
		c0,1.1-0.8,8.3,0.1,8.6c0.5-0.8,0.9-1.5,1.5-2.3c1-1.2,2.4-1.8,3.4-3c-1.6,0.4-3.2,1.1-4.5,2.1c-0.7-1.1,7.6-3.7,8.5-4
		c3-1.1,5.4-2.7,8-4.3c2.6-1.5,4.8-5.3,6-7.9c0.6-1.4,1.1-2.9,1-4.5c-0.1-1.1,0.8-2.8-1-1.9c-5.3,2.7-13.6-0.6-15.2-6.3
		c-0.3-1.1-0.5-2.5-0.5-3.6c0-1.7,0.7-2.4-0.1-4c-0.6-1.2-1.9-0.3-2.7-0.4c-1.1-0.1-2-4.6-1-4.6L646.9,64.6z"/>
</g>
</svg>
