<?xml version="1.0" encoding="utf-8"?>
<!-- Generator: Adobe Illustrator 22.0.1, SVG Export Plug-In . SVG Version: 6.00 Build 0)  -->
<svg version="1.1" id="Capa_1" xmlns="http://www.w3.org/2000/svg" xmlns:xlink="http://www.w3.org/1999/xlink" x="0px" y="0px"
	 viewBox="0 0 1366 768" style="enable-background:new 0 0 1366 768;" xml:space="preserve">
<style type="text/css">
	.st0{fill:none;}
	.st1{fill:#FFF8EB;}
	.st2{opacity:0.6;fill:#353535;}
	.st3{fill:#61002E;}
	.st4{fill:#93002F;}
	.st5{fill:#444444;}
	.st6{fill:#E0D7CA;}
</style>
<g>
	<g>
		<path class="st0" d="M1180,497.4c0,0.3,0,0.7,0,1C1180,498.1,1180,497.7,1180,497.4z"/>
		<path class="st1" d="M1180,504.1c0-0.3,0-0.7,0-1c0.2-20.8,25.1-41.1,58.4-44c1.8-0.2,3.6-0.3,5.5-0.3c6.3-0.2,11.9,0.4,17,1.6
			c21.9,5.3,32.3,22.2,32.7,36.6c0,1.3,0,2.6-0.1,3.8l0.2,0l2.7,234.2l70-27.6l-9.9-331.1l-658.8,77.8l2.8,273l47.5-1.4L746.2,544
			l-0.1-2.6c0-0.2,0-0.5,0-0.7c0.1-14.6,15.6-28.9,36.4-30.8c1.1-0.1,2.3-0.2,3.4-0.2c3.9-0.1,7.4,0.3,10.6,1.2
			c13.7,3.8,20.2,15.7,20.5,25.8c0,0.9,0,1.8-0.1,2.7l0.1,0l2,184.3l20.4-0.6l-2-184.1l-0.1-3c0-0.3,0-0.6,0-0.8
			c0.1-16.8,17.9-33.1,41.8-35.4c1.3-0.1,2.6-0.2,3.9-0.2c4.5-0.1,8.5,0.4,12.1,1.4c15.7,4.3,23.2,18,23.5,29.6c0,1,0,2.1-0.1,3.1
			l0.2,0l2.1,187l22.3-0.7l-2.1-189.1l-0.1-3.2c0-0.3,0-0.6,0-0.9c0.1-18.2,19.3-35.9,45.2-38.3c1.4-0.1,2.8-0.2,4.3-0.3
			c4.9-0.1,9.2,0.4,13.2,1.5c17,4.7,25.1,19.5,25.5,32.1c0,1.1,0,2.3-0.1,3.4l0.2,0l2.2,224.2l23.6-1.2l-2.4-229.2l-0.1-3.4
			c0-0.3,0-0.6,0-0.9c0.1-19.1,21.3-37.9,49.8-40.5c1.5-0.1,3.1-0.2,4.7-0.3c5.4-0.2,10.2,0.4,14.5,1.5c18.7,4.9,27.6,20.5,28,33.8
			c0,1.2,0,2.4-0.1,3.5l0.2,0l2.5,241.3l30.4-3.2l-2.6-243.1L1180,504.1z"/>
		<path class="st2" d="M1180,504.1c0-0.3,0-0.7,0-1c0.2-20.8,25.1-41.1,58.4-44c1.8-0.2,3.6-0.3,5.5-0.3c6.3-0.2,11.9,0.4,17,1.6
			c0,0,0,0,0,0c-50.8-15.1-91.7,21.8-91,44l0.1,3.7l2.8,240.3l10.1,2.5l-2.8-243.1L1180,504.1z"/>
		<path class="st2" d="M1052.7,515.5c0-0.3,0-0.6,0-0.9c0.1-19.1,21.3-37.9,49.8-40.5c1.5-0.1,3.1-0.2,4.7-0.3
			c5.4-0.2,10.2,0.4,14.5,1.5c0,0,0,0,0,0c-43.4-14-78.2,19.9-77.6,40.4l0.1,3.4l2.5,225l8.6,3.9l-2.5-229.2L1052.7,515.5z"/>
		<path class="st2" d="M941.1,527.6c0-0.3,0-0.6,0-0.9c0.1-18.2,19.3-35.9,45.2-38.3c1.4-0.1,2.8-0.2,4.3-0.3
			c4.9-0.1,9.2,0.4,13.2,1.5c0,0,0,0,0,0c-39.5-13.4-71.1,18.8-70.5,38.2l0.1,3.2l2.4,189.1l7.9-0.2l-2.4-189.1L941.1,527.6z"/>
		<path class="st2" d="M837.4,535.9c0-0.3,0-0.6,0-0.8c0.1-16.8,17.9-33.1,41.8-35.4c1.3-0.1,2.6-0.2,3.9-0.2
			c4.5-0.1,8.5,0.4,12.1,1.4c0,0,0,0,0,0c-36.5-12.3-65.6,17.3-65.1,35.3l0.1,3l2.2,184.1l7.2-0.2l-2.2-184.1L837.4,535.9z"/>
		<path class="st2" d="M746.2,541.4c0-0.2,0-0.5,0-0.7c0.1-14.6,15.6-28.9,36.4-30.8c1.1-0.1,2.3-0.2,3.4-0.2
			c3.9-0.1,7.4,0.3,10.6,1.2c0,0,0,0,0,0c-31.7-10.7-57.1,15.1-56.7,30.7l0.1,2.6l2.2,181.7l6.3-0.2L746.2,544L746.2,541.4z"/>
		<polygon class="st3" points="1356.6,369.6 647.6,452.3 649.3,467 1356.6,392.6 		"/>
		<polygon class="st4" points="1389.5,349.2 698.6,424.2 647.6,452.3 1356.6,376.4 		"/>
		<g>
			<path class="st5" d="M1215.3,433.6c-0.8-3.9,0.1-7.6,2.2-10.2c-3.3,2.2-4.9,6.6-3.9,11.3c1.4,6.5,6.9,11.3,12.4,10.8
				c0.5,0,0.9-0.1,1.4-0.2C1221.8,444.9,1216.6,440,1215.3,433.6z"/>
			<path class="st5" d="M1236.1,432c-0.6-4-2.8-7.4-5.7-9.6c4,1.6,7.2,5.7,7.9,10.5c0.9,6.6-2.9,12.1-8.5,12.4c-0.5,0-1,0-1.4,0
				C1233.6,444.1,1237.1,438.5,1236.1,432z"/>
			<path class="st5" d="M1246.3,444.7c1,0.3,2.1,0.6,3.1,0.8c1,0.2,2.1,0.3,3.1,0.4c0.5,0,1,0,1.5-0.1c0.5-0.1,1-0.2,1.5-0.3
				c0.1,0,0.2-0.1,0.3-0.1c0.1-0.1,0.2-0.1,0.3-0.2c0.1-0.1,0.2-0.1,0.3-0.2c0.1-0.1,0.2-0.1,0.3-0.2c0.1-0.1,0.2-0.2,0.3-0.2
				c0,0,0.1-0.1,0.1-0.1c0,0,0.1-0.1,0.1-0.1c0.1-0.1,0.2-0.2,0.3-0.3c0.1-0.1,0.2-0.2,0.3-0.3c0.4-0.6,0.9-1.1,1.4-1.4
				c0.5-0.4,1.1-0.7,1.6-0.8c0.3-0.1,0.6-0.2,0.8-0.2c0.1,0,0.3,0,0.4-0.1c0.1,0,0.3,0,0.4,0c0.6,0,1.1,0,1.7,0.1
				c1.1,0.2,2.2,0.6,3.2,1.1c1,0.5,2,1.1,2.9,1.9c-1-0.5-2-0.9-3.1-1.2c-0.5-0.2-1-0.3-1.5-0.4c-0.5-0.1-1-0.2-1.5-0.2
				c-0.1,0-0.3,0-0.4,0c-0.1,0-0.3,0-0.4,0c-0.1,0-0.3,0-0.4,0c-0.1,0-0.1,0-0.2,0c-0.1,0-0.1,0-0.2,0c-0.3,0-0.5,0.1-0.7,0.1
				c-0.2,0.1-0.5,0.1-0.7,0.2c-0.9,0.4-1.8,1-2.4,1.9c-0.1,0.1-0.2,0.3-0.3,0.4c-0.1,0.1-0.2,0.3-0.3,0.4c-0.1,0.1-0.1,0.1-0.2,0.2
				c-0.1,0.1-0.1,0.1-0.2,0.2c-0.1,0.1-0.2,0.2-0.4,0.3c-0.5,0.4-1.1,0.6-1.6,0.8c-1.1,0.3-2.2,0.3-3.3,0.2
				c-1.1-0.2-2.1-0.4-3.2-0.8C1248.3,445.9,1247.3,445.4,1246.3,444.7z"/>
			<path class="st5" d="M1260,450.9c1,0.3,2,0.6,3,0.9c1,0.2,2,0.4,3,0.5c0.5,0,1,0,1.5,0c0.5,0,1-0.1,1.4-0.3
				c0.1,0,0.2-0.1,0.3-0.1c0.1,0,0.2-0.1,0.3-0.1c0.1-0.1,0.2-0.1,0.3-0.2c0.1-0.1,0.2-0.1,0.3-0.2c0.1-0.1,0.2-0.2,0.3-0.2
				c0,0,0.1-0.1,0.1-0.1c0,0,0.1-0.1,0.1-0.1c0.1-0.1,0.2-0.2,0.3-0.3c0.1-0.1,0.2-0.2,0.3-0.3c0.4-0.6,0.9-1,1.4-1.4
				c0.5-0.4,1.1-0.6,1.6-0.8c0.3-0.1,0.6-0.1,0.8-0.2c0.1,0,0.3,0,0.4,0c0.1,0,0.3,0,0.4,0c0.6,0,1.1,0,1.6,0.2
				c1.1,0.2,2.1,0.6,3.1,1.2c1,0.6,1.9,1.2,2.8,2c-1-0.5-2-0.9-3-1.3c-0.5-0.2-1-0.3-1.5-0.4c-0.5-0.1-1-0.2-1.5-0.2
				c-0.1,0-0.3,0-0.4,0c-0.1,0-0.3,0-0.4,0c-0.1,0-0.2,0-0.4,0c-0.1,0-0.1,0-0.2,0c-0.1,0-0.1,0-0.2,0c-0.2,0-0.5,0.1-0.7,0.1
				c-0.2,0.1-0.5,0.1-0.7,0.2c-0.9,0.3-1.8,1-2.5,1.9c-0.1,0.1-0.2,0.3-0.3,0.4c-0.1,0.1-0.2,0.3-0.4,0.4c-0.1,0.1-0.1,0.1-0.2,0.2
				c-0.1,0.1-0.1,0.1-0.2,0.2c-0.1,0.1-0.3,0.2-0.4,0.3c-0.5,0.3-1.1,0.6-1.6,0.7c-1.1,0.3-2.2,0.2-3.2,0.1c-1.1-0.2-2.1-0.5-3.1-1
				C1261.9,452.1,1260.9,451.6,1260,450.9z"/>
			<path class="st5" d="M1273.2,454.9c1,0.4,2,0.7,3,1c1,0.3,2,0.5,3,0.6c0.5,0,1,0.1,1.5,0c0.5,0,1-0.1,1.5-0.2
				c0.1,0,0.2-0.1,0.4-0.1c0.1,0,0.2-0.1,0.3-0.1c0.1-0.1,0.2-0.1,0.3-0.2c0.1-0.1,0.2-0.1,0.3-0.2c0.1-0.1,0.2-0.1,0.3-0.2
				c0.1,0,0.1-0.1,0.2-0.1c0,0,0.1-0.1,0.1-0.1c0.1-0.1,0.2-0.2,0.3-0.3c0.1-0.1,0.2-0.2,0.3-0.3c0.4-0.5,0.9-1,1.5-1.3
				c0.5-0.4,1.1-0.6,1.6-0.7c0.3-0.1,0.6-0.1,0.8-0.2c0.1,0,0.3,0,0.4,0c0.1,0,0.3,0,0.4,0c0.6,0,1.1,0.1,1.6,0.2
				c1.1,0.3,2.1,0.7,3,1.3c1,0.6,1.9,1.3,2.7,2.1c-1-0.5-1.9-1-2.9-1.4c-0.5-0.2-1-0.4-1.5-0.5c-0.5-0.1-1-0.2-1.5-0.3
				c-0.1,0-0.2,0-0.4,0c-0.1,0-0.2,0-0.4,0c-0.1,0-0.2,0-0.4,0c-0.1,0-0.1,0-0.2,0c-0.1,0-0.1,0-0.2,0c-0.2,0-0.5,0-0.7,0.1
				c-0.2,0.1-0.5,0.1-0.7,0.2c-0.9,0.3-1.8,0.9-2.5,1.8c-0.1,0.1-0.2,0.3-0.3,0.4c-0.1,0.1-0.2,0.2-0.4,0.4
				c-0.1,0.1-0.1,0.1-0.2,0.2c-0.1,0-0.1,0.1-0.2,0.1c-0.1,0.1-0.3,0.2-0.4,0.3c-0.5,0.3-1.1,0.5-1.6,0.7c-1.1,0.2-2.2,0.2-3.2-0.1
				c-1-0.2-2-0.6-3-1.1C1275.1,456.1,1274.1,455.6,1273.2,454.9z"/>
			<path class="st5" d="M1228.5,447.6c1-0.1,2.1-0.1,3.1-0.3c1-0.1,2-0.4,3-0.7c0.5-0.2,1-0.3,1.4-0.6c0.5-0.2,0.9-0.5,1.3-0.8
				c0.1-0.1,0.2-0.2,0.3-0.2c0.1-0.1,0.2-0.2,0.3-0.3c0.1-0.1,0.2-0.2,0.3-0.3c0.1-0.1,0.2-0.2,0.3-0.3c0.1-0.1,0.2-0.2,0.2-0.3
				c0-0.1,0.1-0.1,0.1-0.2c0-0.1,0.1-0.1,0.1-0.2c0.1-0.1,0.1-0.2,0.2-0.4c0.1-0.1,0.1-0.3,0.2-0.4c0.3-0.7,0.6-1.3,1-1.9
				c0.4-0.5,0.9-1,1.4-1.4c0.2-0.2,0.5-0.3,0.8-0.5c0.1-0.1,0.3-0.1,0.4-0.2c0.1-0.1,0.3-0.1,0.4-0.2c0.5-0.2,1.1-0.4,1.6-0.4
				c1.1-0.2,2.2-0.2,3.3,0c1.1,0.2,2.2,0.5,3.2,0.9c-1.1-0.1-2.1-0.2-3.2-0.1c-0.5,0-1.1,0.1-1.6,0.1c-0.5,0.1-1,0.2-1.5,0.3
				c-0.1,0-0.2,0.1-0.4,0.1c-0.1,0-0.2,0.1-0.4,0.1c-0.1,0-0.2,0.1-0.4,0.1c-0.1,0-0.1,0-0.2,0.1c-0.1,0-0.1,0.1-0.2,0.1
				c-0.2,0.1-0.5,0.2-0.7,0.4c-0.2,0.1-0.4,0.3-0.6,0.5c-0.8,0.7-1.5,1.6-2,2.7c-0.1,0.2-0.1,0.3-0.2,0.5c-0.1,0.2-0.2,0.3-0.3,0.5
				c0,0.1-0.1,0.2-0.1,0.2c0,0.1-0.1,0.1-0.1,0.2c-0.1,0.1-0.2,0.3-0.3,0.4c-0.4,0.5-0.9,1-1.4,1.3c-1,0.7-2,1-3.1,1.3
				c-1.1,0.2-2.1,0.3-3.2,0.2C1230.6,448.1,1229.6,447.9,1228.5,447.6z"/>
			<path class="st5" d="M1246.3,444.7c1,0.3,2.1,0.6,3.1,0.8c1,0.2,2.1,0.3,3.1,0.4c0.5,0,1,0,1.5-0.1c0.5-0.1,1-0.2,1.5-0.3
				c0.1,0,0.2-0.1,0.3-0.1c0.1-0.1,0.2-0.1,0.3-0.2c0.1-0.1,0.2-0.1,0.3-0.2c0.1-0.1,0.2-0.1,0.3-0.2c0.1-0.1,0.2-0.2,0.3-0.2
				c0,0,0.1-0.1,0.1-0.1c0,0,0.1-0.1,0.1-0.1c0.1-0.1,0.2-0.2,0.3-0.3c0.1-0.1,0.2-0.2,0.3-0.3c0.4-0.6,0.9-1.1,1.4-1.4
				c0.5-0.4,1.1-0.7,1.6-0.8c0.3-0.1,0.6-0.2,0.8-0.2c0.1,0,0.3,0,0.4-0.1c0.1,0,0.3,0,0.4,0c0.6,0,1.1,0,1.7,0.1
				c1.1,0.2,2.2,0.6,3.2,1.1c1,0.5,2,1.1,2.9,1.9c-1-0.5-2-0.9-3.1-1.2c-0.5-0.2-1-0.3-1.5-0.4c-0.5-0.1-1-0.2-1.5-0.2
				c-0.1,0-0.3,0-0.4,0c-0.1,0-0.3,0-0.4,0c-0.1,0-0.3,0-0.4,0c-0.1,0-0.1,0-0.2,0c-0.1,0-0.1,0-0.2,0c-0.3,0-0.5,0.1-0.7,0.1
				c-0.2,0.1-0.5,0.1-0.7,0.2c-0.9,0.4-1.8,1-2.4,1.9c-0.1,0.1-0.2,0.3-0.3,0.4c-0.1,0.1-0.2,0.3-0.3,0.4c-0.1,0.1-0.1,0.1-0.2,0.2
				c-0.1,0.1-0.1,0.1-0.2,0.2c-0.1,0.1-0.2,0.2-0.4,0.3c-0.5,0.4-1.1,0.6-1.6,0.8c-1.1,0.3-2.2,0.3-3.3,0.2
				c-1.1-0.2-2.1-0.4-3.2-0.8C1248.3,445.9,1247.3,445.4,1246.3,444.7z"/>
			<path class="st5" d="M1260,450.9c1,0.3,2,0.6,3,0.9c1,0.2,2,0.4,3,0.5c0.5,0,1,0,1.5,0c0.5,0,1-0.1,1.4-0.3
				c0.1,0,0.2-0.1,0.3-0.1c0.1,0,0.2-0.1,0.3-0.1c0.1-0.1,0.2-0.1,0.3-0.2c0.1-0.1,0.2-0.1,0.3-0.2c0.1-0.1,0.2-0.2,0.3-0.2
				c0,0,0.1-0.1,0.1-0.1c0,0,0.1-0.1,0.1-0.1c0.1-0.1,0.2-0.2,0.3-0.3c0.1-0.1,0.2-0.2,0.3-0.3c0.4-0.6,0.9-1,1.4-1.4
				c0.5-0.4,1.1-0.6,1.6-0.8c0.3-0.1,0.6-0.1,0.8-0.2c0.1,0,0.3,0,0.4,0c0.1,0,0.3,0,0.4,0c0.6,0,1.1,0,1.6,0.2
				c1.1,0.2,2.1,0.6,3.1,1.2c1,0.6,1.9,1.2,2.8,2c-1-0.5-2-0.9-3-1.3c-0.5-0.2-1-0.3-1.5-0.4c-0.5-0.1-1-0.2-1.5-0.2
				c-0.1,0-0.3,0-0.4,0c-0.1,0-0.3,0-0.4,0c-0.1,0-0.2,0-0.4,0c-0.1,0-0.1,0-0.2,0c-0.1,0-0.1,0-0.2,0c-0.2,0-0.5,0.1-0.7,0.1
				c-0.2,0.1-0.5,0.1-0.7,0.2c-0.9,0.3-1.8,1-2.5,1.9c-0.1,0.1-0.2,0.3-0.3,0.4c-0.1,0.1-0.2,0.3-0.4,0.4c-0.1,0.1-0.1,0.1-0.2,0.2
				c-0.1,0.1-0.1,0.1-0.2,0.2c-0.1,0.1-0.3,0.2-0.4,0.3c-0.5,0.3-1.1,0.6-1.6,0.7c-1.1,0.3-2.2,0.2-3.2,0.1c-1.1-0.2-2.1-0.5-3.1-1
				C1261.9,452.1,1260.9,451.6,1260,450.9z"/>
			<path class="st5" d="M1273.2,454.9c1,0.4,2,0.7,3,1c1,0.3,2,0.5,3,0.6c0.5,0,1,0.1,1.5,0c0.5,0,1-0.1,1.5-0.2
				c0.1,0,0.2-0.1,0.4-0.1c0.1,0,0.2-0.1,0.3-0.1c0.1-0.1,0.2-0.1,0.3-0.2c0.1-0.1,0.2-0.1,0.3-0.2c0.1-0.1,0.2-0.1,0.3-0.2
				c0.1,0,0.1-0.1,0.2-0.1c0,0,0.1-0.1,0.1-0.1c0.1-0.1,0.2-0.2,0.3-0.3c0.1-0.1,0.2-0.2,0.3-0.3c0.4-0.5,0.9-1,1.5-1.3
				c0.5-0.4,1.1-0.6,1.6-0.7c0.3-0.1,0.6-0.1,0.8-0.2c0.1,0,0.3,0,0.4,0c0.1,0,0.3,0,0.4,0c0.6,0,1.1,0.1,1.6,0.2
				c1.1,0.3,2.1,0.7,3,1.3c1,0.6,1.9,1.3,2.7,2.1c-1-0.5-1.9-1-2.9-1.4c-0.5-0.2-1-0.4-1.5-0.5c-0.5-0.1-1-0.2-1.5-0.3
				c-0.1,0-0.2,0-0.4,0c-0.1,0-0.2,0-0.4,0c-0.1,0-0.2,0-0.4,0c-0.1,0-0.1,0-0.2,0c-0.1,0-0.1,0-0.2,0c-0.2,0-0.5,0-0.7,0.1
				c-0.2,0.1-0.5,0.1-0.7,0.2c-0.9,0.3-1.8,0.9-2.5,1.8c-0.1,0.1-0.2,0.3-0.3,0.4c-0.1,0.1-0.2,0.2-0.4,0.4
				c-0.1,0.1-0.1,0.1-0.2,0.2c-0.1,0-0.1,0.1-0.2,0.1c-0.1,0.1-0.3,0.2-0.4,0.3c-0.5,0.3-1.1,0.5-1.6,0.7c-1.1,0.2-2.2,0.2-3.2-0.1
				c-1-0.2-2-0.6-3-1.1C1275.1,456.1,1274.1,455.6,1273.2,454.9z"/>
			<path class="st5" d="M1228.5,447.6c1-0.1,2.1-0.1,3.1-0.3c1-0.1,2-0.4,3-0.7c0.5-0.2,1-0.3,1.4-0.6c0.5-0.2,0.9-0.5,1.3-0.8
				c0.1-0.1,0.2-0.2,0.3-0.2c0.1-0.1,0.2-0.2,0.3-0.3c0.1-0.1,0.2-0.2,0.3-0.3c0.1-0.1,0.2-0.2,0.3-0.3c0.1-0.1,0.2-0.2,0.2-0.3
				c0-0.1,0.1-0.1,0.1-0.2c0-0.1,0.1-0.1,0.1-0.2c0.1-0.1,0.1-0.2,0.2-0.4c0.1-0.1,0.1-0.3,0.2-0.4c0.3-0.7,0.6-1.3,1-1.9
				c0.4-0.5,0.9-1,1.4-1.4c0.2-0.2,0.5-0.3,0.8-0.5c0.1-0.1,0.3-0.1,0.4-0.2c0.1-0.1,0.3-0.1,0.4-0.2c0.5-0.2,1.1-0.4,1.6-0.4
				c1.1-0.2,2.2-0.2,3.3,0c1.1,0.2,2.2,0.5,3.2,0.9c-1.1-0.1-2.1-0.2-3.2-0.1c-0.5,0-1.1,0.1-1.6,0.1c-0.5,0.1-1,0.2-1.5,0.3
				c-0.1,0-0.2,0.1-0.4,0.1c-0.1,0-0.2,0.1-0.4,0.1c-0.1,0-0.2,0.1-0.4,0.1c-0.1,0-0.1,0-0.2,0.1c-0.1,0-0.1,0.1-0.2,0.1
				c-0.2,0.1-0.5,0.2-0.7,0.4c-0.2,0.1-0.4,0.3-0.6,0.5c-0.8,0.7-1.5,1.6-2,2.7c-0.1,0.2-0.1,0.3-0.2,0.5c-0.1,0.2-0.2,0.3-0.3,0.5
				c0,0.1-0.1,0.2-0.1,0.2c0,0.1-0.1,0.1-0.1,0.2c-0.1,0.1-0.2,0.3-0.3,0.4c-0.4,0.5-0.9,1-1.4,1.3c-1,0.7-2,1-3.1,1.3
				c-1.1,0.2-2.1,0.3-3.2,0.2C1230.6,448.1,1229.6,447.9,1228.5,447.6z"/>
			<path class="st5" d="M1209.4,448.8c-0.9,0.5-1.9,1-2.8,1.4c-1,0.4-1.9,0.8-2.9,1c-0.5,0.1-1,0.2-1.5,0.3c-0.5,0-1,0-1.5,0
				c-0.1,0-0.2,0-0.4-0.1c-0.1,0-0.2-0.1-0.4-0.1c-0.1,0-0.2-0.1-0.4-0.1c-0.1,0-0.2-0.1-0.3-0.1c-0.1,0-0.2-0.1-0.3-0.2
				c-0.1,0-0.1-0.1-0.2-0.1c-0.1,0-0.1-0.1-0.2-0.1c-0.1-0.1-0.2-0.1-0.3-0.2c-0.1-0.1-0.2-0.2-0.3-0.3c-0.5-0.5-1.1-0.8-1.6-1.1
				c-0.6-0.3-1.2-0.4-1.7-0.5c-0.3,0-0.6,0-0.9,0c-0.1,0-0.3,0-0.4,0c-0.1,0-0.3,0-0.4,0.1c-0.5,0.1-1.1,0.2-1.6,0.5
				c-1,0.4-1.9,1-2.8,1.7c-0.9,0.7-1.7,1.5-2.3,2.5c0.9-0.7,1.7-1.3,2.7-1.8c0.5-0.3,0.9-0.5,1.4-0.7c0.5-0.2,0.9-0.4,1.4-0.5
				c0.1,0,0.2-0.1,0.4-0.1c0.1,0,0.2-0.1,0.4-0.1c0.1,0,0.2,0,0.4-0.1c0.1,0,0.1,0,0.2,0c0.1,0,0.1,0,0.2,0c0.2,0,0.5,0,0.7,0
				c0.2,0,0.5,0,0.7,0.1c1,0.1,1.9,0.6,2.8,1.4c0.1,0.1,0.3,0.2,0.4,0.3c0.1,0.1,0.3,0.2,0.4,0.3c0.1,0,0.1,0.1,0.2,0.1
				c0.1,0,0.1,0.1,0.2,0.1c0.1,0.1,0.3,0.2,0.4,0.2c0.6,0.2,1.1,0.4,1.7,0.4c1.1,0.1,2.2-0.2,3.2-0.5c1-0.4,2-0.9,2.9-1.5
				C1207.8,450.4,1208.6,449.7,1209.4,448.8z"/>
			<path class="st5" d="M1197.6,457.8c-0.9,0.5-1.8,1.1-2.7,1.5c-0.9,0.4-1.9,0.8-2.8,1.1c-0.5,0.1-1,0.2-1.4,0.3
				c-0.5,0.1-1,0.1-1.4,0c-0.1,0-0.2,0-0.4,0c-0.1,0-0.2,0-0.4-0.1c-0.1,0-0.2-0.1-0.4-0.1c-0.1,0-0.2-0.1-0.3-0.1
				c-0.1,0-0.2-0.1-0.3-0.2c-0.1,0-0.1-0.1-0.2-0.1c-0.1,0-0.1-0.1-0.2-0.1c-0.1-0.1-0.2-0.1-0.3-0.2c-0.1-0.1-0.2-0.2-0.3-0.3
				c-0.5-0.5-1.1-0.8-1.6-1.1c-0.6-0.3-1.1-0.4-1.7-0.4c-0.3,0-0.6,0-0.8,0c-0.1,0-0.3,0-0.4,0c-0.1,0-0.3,0.1-0.4,0.1
				c-0.5,0.1-1,0.3-1.5,0.5c-1,0.5-1.9,1.1-2.7,1.8c-0.8,0.8-1.6,1.6-2.2,2.6c0.8-0.7,1.7-1.3,2.5-1.9c0.4-0.3,0.9-0.5,1.3-0.7
				c0.5-0.2,0.9-0.4,1.4-0.6c0.1,0,0.2-0.1,0.4-0.1c0.1,0,0.2-0.1,0.4-0.1c0.1,0,0.2,0,0.4-0.1c0.1,0,0.1,0,0.2,0c0.1,0,0.1,0,0.2,0
				c0.2,0,0.5,0,0.7-0.1c0.2,0,0.5,0,0.7,0.1c1,0.1,1.9,0.5,2.7,1.3c0.1,0.1,0.3,0.2,0.4,0.3c0.1,0.1,0.3,0.2,0.4,0.3
				c0.1,0,0.1,0.1,0.2,0.1c0.1,0,0.1,0.1,0.2,0.1c0.1,0.1,0.3,0.2,0.4,0.2c0.6,0.2,1.1,0.3,1.7,0.4c1.1,0,2.1-0.2,3.1-0.6
				c1-0.4,1.9-1,2.7-1.6C1196,459.4,1196.9,458.6,1197.6,457.8z"/>
			<path class="st5" d="M1185.8,464.5c-0.9,0.6-1.7,1.1-2.6,1.6c-0.9,0.5-1.8,0.9-2.7,1.2c-0.5,0.1-0.9,0.3-1.4,0.4
				c-0.5,0.1-0.9,0.1-1.4,0.1c-0.1,0-0.2,0-0.4,0c-0.1,0-0.2,0-0.4-0.1c-0.1,0-0.2-0.1-0.3-0.1c-0.1,0-0.2-0.1-0.3-0.1
				c-0.1,0-0.2-0.1-0.3-0.2c-0.1,0-0.1-0.1-0.2-0.1c-0.1,0-0.1-0.1-0.2-0.1c-0.1-0.1-0.2-0.1-0.3-0.2c-0.1-0.1-0.2-0.2-0.3-0.3
				c-0.5-0.4-1.1-0.8-1.7-1c-0.6-0.2-1.1-0.3-1.7-0.4c-0.3,0-0.6,0-0.8,0c-0.1,0-0.3,0-0.4,0.1c-0.1,0-0.3,0.1-0.4,0.1
				c-0.5,0.1-1,0.3-1.5,0.6c-0.9,0.5-1.8,1.1-2.6,1.9c-0.8,0.8-1.5,1.6-2.1,2.7c0.8-0.7,1.6-1.4,2.4-2c0.4-0.3,0.9-0.5,1.3-0.8
				c0.4-0.2,0.9-0.4,1.3-0.6c0.1,0,0.2-0.1,0.3-0.1c0.1,0,0.2-0.1,0.3-0.1c0.1,0,0.2-0.1,0.3-0.1c0.1,0,0.1,0,0.2,0
				c0.1,0,0.1,0,0.2,0c0.2,0,0.5-0.1,0.7-0.1c0.2,0,0.5,0,0.7,0c1,0.1,1.9,0.5,2.8,1.2c0.1,0.1,0.3,0.2,0.4,0.3
				c0.1,0.1,0.3,0.2,0.4,0.3c0.1,0,0.1,0.1,0.2,0.1c0.1,0,0.1,0.1,0.2,0.1c0.1,0.1,0.3,0.1,0.4,0.2c0.6,0.2,1.1,0.3,1.7,0.3
				c1.1,0,2.1-0.3,3-0.7c0.9-0.4,1.8-1,2.6-1.7C1184.3,466.1,1185.1,465.4,1185.8,464.5z"/>
			<path class="st5" d="M1227.3,447.8c-1,0.2-2.1,0.3-3.1,0.4c-1,0.1-2.1,0.1-3.1,0c-0.5,0-1-0.1-1.5-0.2c-0.5-0.1-1-0.3-1.5-0.5
				c-0.1-0.1-0.2-0.1-0.4-0.2c-0.1-0.1-0.2-0.1-0.3-0.2c-0.1-0.1-0.2-0.1-0.3-0.2c-0.1-0.1-0.2-0.2-0.3-0.3
				c-0.1-0.1-0.2-0.2-0.3-0.3c0,0-0.1-0.1-0.1-0.1c0-0.1-0.1-0.1-0.1-0.2c-0.1-0.1-0.2-0.2-0.3-0.3c-0.1-0.1-0.2-0.2-0.3-0.4
				c-0.4-0.6-0.9-1.1-1.4-1.6c-0.5-0.4-1.1-0.8-1.6-1c-0.3-0.1-0.6-0.2-0.8-0.3c-0.1,0-0.3-0.1-0.4-0.1c-0.1,0-0.3-0.1-0.4-0.1
				c-0.6-0.1-1.1-0.1-1.7-0.1c-1.1,0.1-2.2,0.3-3.2,0.7c-1,0.4-2,0.9-2.9,1.6c1-0.4,2-0.6,3-0.8c0.5-0.1,1-0.2,1.5-0.2
				c0.5,0,1,0,1.5,0c0.1,0,0.3,0,0.4,0c0.1,0,0.3,0,0.4,0c0.1,0,0.3,0,0.4,0.1c0.1,0,0.1,0,0.2,0c0.1,0,0.1,0,0.2,0
				c0.3,0.1,0.5,0.1,0.7,0.2c0.2,0.1,0.5,0.2,0.7,0.3c1,0.5,1.8,1.2,2.5,2.2c0.1,0.1,0.2,0.3,0.3,0.4c0.1,0.2,0.2,0.3,0.4,0.4
				c0.1,0.1,0.1,0.1,0.2,0.2c0.1,0.1,0.1,0.1,0.2,0.2c0.1,0.1,0.3,0.2,0.4,0.3c0.5,0.4,1.1,0.7,1.6,1c1.1,0.4,2.2,0.6,3.3,0.6
				c1.1,0,2.1-0.2,3.1-0.5C1225.4,448.7,1226.4,448.3,1227.3,447.8z"/>
		</g>
		<g>
			<path class="st5" d="M1083.1,453.2c-0.7-3.4,0.1-6.5,1.9-8.7c-2.8,1.9-4.2,5.7-3.4,9.7c1.2,5.6,5.9,9.7,10.7,9.3
				c0.4,0,0.8-0.1,1.2-0.2C1088.7,462.9,1084.3,458.7,1083.1,453.2z"/>
			<path class="st5" d="M1101,451.8c-0.5-3.4-2.4-6.4-4.9-8.2c3.4,1.4,6.2,4.9,6.7,9c0.8,5.6-2.5,10.4-7.3,10.7c-0.4,0-0.8,0-1.2,0
				C1098.8,462.1,1101.8,457.4,1101,451.8z"/>
			<path class="st5" d="M1109.8,462.7c0.9,0.3,1.8,0.5,2.7,0.6c0.9,0.2,1.8,0.3,2.6,0.3c0.4,0,0.9,0,1.3-0.1
				c0.4-0.1,0.8-0.1,1.2-0.3c0.1,0,0.2-0.1,0.3-0.1c0.1,0,0.2-0.1,0.3-0.1c0.1-0.1,0.2-0.1,0.3-0.2c0.1-0.1,0.2-0.1,0.3-0.2
				c0.1-0.1,0.2-0.1,0.3-0.2c0,0,0.1-0.1,0.1-0.1c0,0,0.1-0.1,0.1-0.1c0.1-0.1,0.2-0.2,0.2-0.3c0.1-0.1,0.1-0.2,0.2-0.3
				c0.3-0.5,0.8-0.9,1.2-1.2c0.4-0.3,0.9-0.6,1.4-0.7c0.2-0.1,0.5-0.1,0.7-0.2c0.1,0,0.2,0,0.4-0.1c0.1,0,0.2,0,0.4,0
				c0.5,0,1,0,1.4,0.1c0.9,0.2,1.9,0.5,2.7,0.9c0.9,0.5,1.7,1,2.5,1.7c-0.9-0.4-1.7-0.7-2.6-1c-0.4-0.1-0.9-0.2-1.3-0.3
				c-0.4-0.1-0.9-0.1-1.3-0.2c-0.1,0-0.2,0-0.3,0c-0.1,0-0.2,0-0.3,0c-0.1,0-0.2,0-0.3,0c-0.1,0-0.1,0-0.2,0c-0.1,0-0.1,0-0.2,0
				c-0.2,0-0.4,0.1-0.6,0.1c-0.2,0.1-0.4,0.1-0.6,0.2c-0.8,0.3-1.5,0.9-2.1,1.7c-0.1,0.1-0.2,0.2-0.3,0.3c-0.1,0.1-0.2,0.2-0.3,0.3
				c-0.1,0.1-0.1,0.1-0.2,0.2c-0.1,0-0.1,0.1-0.2,0.1c-0.1,0.1-0.2,0.2-0.3,0.3c-0.4,0.3-0.9,0.5-1.4,0.7c-0.9,0.3-1.9,0.3-2.8,0.2
				c-0.9-0.1-1.8-0.4-2.7-0.7C1111.5,463.7,1110.6,463.3,1109.8,462.7z"/>
			<path class="st5" d="M1121.5,468c0.9,0.3,1.7,0.5,2.6,0.7c0.9,0.2,1.7,0.3,2.6,0.4c0.4,0,0.9,0,1.3,0c0.4,0,0.8-0.1,1.2-0.2
				c0.1,0,0.2-0.1,0.3-0.1c0.1,0,0.2-0.1,0.3-0.1c0.1-0.1,0.2-0.1,0.3-0.2c0.1,0,0.2-0.1,0.3-0.2c0.1-0.1,0.2-0.1,0.3-0.2
				c0,0,0.1-0.1,0.1-0.1c0,0,0.1-0.1,0.1-0.1c0.1-0.1,0.2-0.2,0.2-0.3c0.1-0.1,0.2-0.2,0.2-0.3c0.4-0.5,0.8-0.9,1.2-1.2
				c0.4-0.3,0.9-0.5,1.4-0.7c0.2-0.1,0.5-0.1,0.7-0.2c0.1,0,0.2,0,0.4,0c0.1,0,0.2,0,0.4,0c0.5,0,0.9,0,1.4,0.1
				c0.9,0.2,1.8,0.6,2.7,1c0.8,0.5,1.6,1,2.4,1.8c-0.8-0.4-1.7-0.8-2.5-1.1c-0.4-0.1-0.9-0.3-1.3-0.4c-0.4-0.1-0.9-0.2-1.3-0.2
				c-0.1,0-0.2,0-0.3,0c-0.1,0-0.2,0-0.3,0c-0.1,0-0.2,0-0.3,0c-0.1,0-0.1,0-0.2,0c-0.1,0-0.1,0-0.2,0c-0.2,0-0.4,0.1-0.6,0.1
				c-0.2,0.1-0.4,0.1-0.6,0.2c-0.8,0.3-1.5,0.8-2.1,1.6c-0.1,0.1-0.2,0.2-0.3,0.3c-0.1,0.1-0.2,0.2-0.3,0.3
				c-0.1,0.1-0.1,0.1-0.2,0.2c-0.1,0-0.1,0.1-0.2,0.1c-0.1,0.1-0.2,0.2-0.3,0.2c-0.4,0.3-0.9,0.5-1.4,0.6c-0.9,0.2-1.9,0.2-2.8,0
				c-0.9-0.2-1.8-0.4-2.6-0.8C1123.1,469,1122.3,468.6,1121.5,468z"/>
			<path class="st5" d="M1132.8,471.4c0.9,0.3,1.7,0.6,2.6,0.8c0.9,0.2,1.7,0.4,2.6,0.5c0.4,0,0.9,0.1,1.3,0c0.4,0,0.8-0.1,1.2-0.2
				c0.1,0,0.2-0.1,0.3-0.1c0.1,0,0.2-0.1,0.3-0.1c0.1,0,0.2-0.1,0.3-0.1c0.1,0,0.2-0.1,0.3-0.2c0.1-0.1,0.2-0.1,0.3-0.2
				c0,0,0.1-0.1,0.1-0.1c0,0,0.1-0.1,0.1-0.1c0.1-0.1,0.2-0.1,0.2-0.2c0.1-0.1,0.2-0.2,0.2-0.3c0.4-0.5,0.8-0.8,1.3-1.2
				c0.5-0.3,0.9-0.5,1.4-0.6c0.2-0.1,0.5-0.1,0.7-0.1c0.1,0,0.2,0,0.4,0c0.1,0,0.2,0,0.4,0c0.5,0,0.9,0.1,1.4,0.2
				c0.9,0.2,1.8,0.6,2.6,1.1c0.8,0.5,1.6,1.1,2.3,1.8c-0.8-0.5-1.6-0.9-2.5-1.2c-0.4-0.2-0.8-0.3-1.3-0.4c-0.4-0.1-0.9-0.2-1.3-0.3
				c-0.1,0-0.2,0-0.3,0c-0.1,0-0.2,0-0.3,0c-0.1,0-0.2,0-0.3,0c-0.1,0-0.1,0-0.2,0c-0.1,0-0.1,0-0.2,0c-0.2,0-0.4,0-0.6,0.1
				c-0.2,0-0.4,0.1-0.6,0.2c-0.8,0.2-1.6,0.8-2.2,1.5c-0.1,0.1-0.2,0.2-0.3,0.3c-0.1,0.1-0.2,0.2-0.3,0.3c-0.1,0-0.1,0.1-0.2,0.1
				c-0.1,0-0.1,0.1-0.2,0.1c-0.1,0.1-0.2,0.2-0.3,0.2c-0.5,0.3-0.9,0.5-1.4,0.6c-0.9,0.2-1.9,0.1-2.8-0.1c-0.9-0.2-1.8-0.5-2.6-0.9
				C1134.4,472.5,1133.6,472,1132.8,471.4z"/>
			<path class="st5" d="M1094.5,465.2c0.9,0,1.8-0.1,2.7-0.2c0.9-0.1,1.7-0.3,2.6-0.6c0.4-0.1,0.8-0.3,1.2-0.5
				c0.4-0.2,0.8-0.4,1.1-0.7c0.1-0.1,0.2-0.1,0.3-0.2c0.1-0.1,0.2-0.2,0.3-0.2c0.1-0.1,0.2-0.2,0.2-0.3c0.1-0.1,0.1-0.2,0.2-0.3
				c0.1-0.1,0.1-0.2,0.2-0.3c0,0,0.1-0.1,0.1-0.1c0-0.1,0.1-0.1,0.1-0.2c0.1-0.1,0.1-0.2,0.2-0.3c0.1-0.1,0.1-0.2,0.2-0.4
				c0.2-0.6,0.5-1.1,0.9-1.6c0.4-0.5,0.8-0.8,1.2-1.2c0.2-0.2,0.4-0.3,0.7-0.4c0.1-0.1,0.2-0.1,0.3-0.2c0.1-0.1,0.2-0.1,0.3-0.1
				c0.5-0.2,0.9-0.3,1.4-0.4c0.9-0.2,1.9-0.1,2.8,0c0.9,0.2,1.9,0.4,2.7,0.8c-0.9-0.1-1.8-0.2-2.7-0.1c-0.5,0-0.9,0.1-1.3,0.1
				c-0.4,0.1-0.9,0.2-1.3,0.3c-0.1,0-0.2,0.1-0.3,0.1c-0.1,0-0.2,0.1-0.3,0.1c-0.1,0-0.2,0.1-0.3,0.1c-0.1,0-0.1,0-0.2,0.1
				c-0.1,0-0.1,0-0.2,0.1c-0.2,0.1-0.4,0.2-0.6,0.3c-0.2,0.1-0.4,0.2-0.6,0.4c-0.7,0.6-1.3,1.4-1.7,2.3c-0.1,0.1-0.1,0.3-0.2,0.4
				c-0.1,0.2-0.1,0.3-0.2,0.4c0,0.1-0.1,0.1-0.1,0.2c0,0.1-0.1,0.1-0.1,0.2c-0.1,0.1-0.2,0.3-0.3,0.4c-0.4,0.5-0.8,0.8-1.2,1.1
				c-0.8,0.6-1.8,0.9-2.7,1.1c-0.9,0.2-1.8,0.2-2.7,0.2C1096.3,465.6,1095.4,465.4,1094.5,465.2z"/>
			<path class="st5" d="M1109.8,462.7c0.9,0.3,1.8,0.5,2.7,0.6c0.9,0.2,1.8,0.3,2.6,0.3c0.4,0,0.9,0,1.3-0.1
				c0.4-0.1,0.8-0.1,1.2-0.3c0.1,0,0.2-0.1,0.3-0.1c0.1,0,0.2-0.1,0.3-0.1c0.1-0.1,0.2-0.1,0.3-0.2c0.1-0.1,0.2-0.1,0.3-0.2
				c0.1-0.1,0.2-0.1,0.3-0.2c0,0,0.1-0.1,0.1-0.1c0,0,0.1-0.1,0.1-0.1c0.1-0.1,0.2-0.2,0.2-0.3c0.1-0.1,0.1-0.2,0.2-0.3
				c0.3-0.5,0.8-0.9,1.2-1.2c0.4-0.3,0.9-0.6,1.4-0.7c0.2-0.1,0.5-0.1,0.7-0.2c0.1,0,0.2,0,0.4-0.1c0.1,0,0.2,0,0.4,0
				c0.5,0,1,0,1.4,0.1c0.9,0.2,1.9,0.5,2.7,0.9c0.9,0.5,1.7,1,2.5,1.7c-0.9-0.4-1.7-0.7-2.6-1c-0.4-0.1-0.9-0.2-1.3-0.3
				c-0.4-0.1-0.9-0.1-1.3-0.2c-0.1,0-0.2,0-0.3,0c-0.1,0-0.2,0-0.3,0c-0.1,0-0.2,0-0.3,0c-0.1,0-0.1,0-0.2,0c-0.1,0-0.1,0-0.2,0
				c-0.2,0-0.4,0.1-0.6,0.1c-0.2,0.1-0.4,0.1-0.6,0.2c-0.8,0.3-1.5,0.9-2.1,1.7c-0.1,0.1-0.2,0.2-0.3,0.3c-0.1,0.1-0.2,0.2-0.3,0.3
				c-0.1,0.1-0.1,0.1-0.2,0.2c-0.1,0-0.1,0.1-0.2,0.1c-0.1,0.1-0.2,0.2-0.3,0.3c-0.4,0.3-0.9,0.5-1.4,0.7c-0.9,0.3-1.9,0.3-2.8,0.2
				c-0.9-0.1-1.8-0.4-2.7-0.7C1111.5,463.7,1110.6,463.3,1109.8,462.7z"/>
			<path class="st5" d="M1121.5,468c0.9,0.3,1.7,0.5,2.6,0.7c0.9,0.2,1.7,0.3,2.6,0.4c0.4,0,0.9,0,1.3,0c0.4,0,0.8-0.1,1.2-0.2
				c0.1,0,0.2-0.1,0.3-0.1c0.1,0,0.2-0.1,0.3-0.1c0.1-0.1,0.2-0.1,0.3-0.2c0.1,0,0.2-0.1,0.3-0.2c0.1-0.1,0.2-0.1,0.3-0.2
				c0,0,0.1-0.1,0.1-0.1c0,0,0.1-0.1,0.1-0.1c0.1-0.1,0.2-0.2,0.2-0.3c0.1-0.1,0.2-0.2,0.2-0.3c0.4-0.5,0.8-0.9,1.2-1.2
				c0.4-0.3,0.9-0.5,1.4-0.7c0.2-0.1,0.5-0.1,0.7-0.2c0.1,0,0.2,0,0.4,0c0.1,0,0.2,0,0.4,0c0.5,0,0.9,0,1.4,0.1
				c0.9,0.2,1.8,0.6,2.7,1c0.8,0.5,1.6,1,2.4,1.8c-0.8-0.4-1.7-0.8-2.5-1.1c-0.4-0.1-0.9-0.3-1.3-0.4c-0.4-0.1-0.9-0.2-1.3-0.2
				c-0.1,0-0.2,0-0.3,0c-0.1,0-0.2,0-0.3,0c-0.1,0-0.2,0-0.3,0c-0.1,0-0.1,0-0.2,0c-0.1,0-0.1,0-0.2,0c-0.2,0-0.4,0.1-0.6,0.1
				c-0.2,0.1-0.4,0.1-0.6,0.2c-0.8,0.3-1.5,0.8-2.1,1.6c-0.1,0.1-0.2,0.2-0.3,0.3c-0.1,0.1-0.2,0.2-0.3,0.3
				c-0.1,0.1-0.1,0.1-0.2,0.2c-0.1,0-0.1,0.1-0.2,0.1c-0.1,0.1-0.2,0.2-0.3,0.2c-0.4,0.3-0.9,0.5-1.4,0.6c-0.9,0.2-1.9,0.2-2.8,0
				c-0.9-0.2-1.8-0.4-2.6-0.8C1123.1,469,1122.3,468.6,1121.5,468z"/>
			<path class="st5" d="M1132.8,471.4c0.9,0.3,1.7,0.6,2.6,0.8c0.9,0.2,1.7,0.4,2.6,0.5c0.4,0,0.9,0.1,1.3,0c0.4,0,0.8-0.1,1.2-0.2
				c0.1,0,0.2-0.1,0.3-0.1c0.1,0,0.2-0.1,0.3-0.1c0.1,0,0.2-0.1,0.3-0.1c0.1,0,0.2-0.1,0.3-0.2c0.1-0.1,0.2-0.1,0.3-0.2
				c0,0,0.1-0.1,0.1-0.1c0,0,0.1-0.1,0.1-0.1c0.1-0.1,0.2-0.1,0.2-0.2c0.1-0.1,0.2-0.2,0.2-0.3c0.4-0.5,0.8-0.8,1.3-1.2
				c0.5-0.3,0.9-0.5,1.4-0.6c0.2-0.1,0.5-0.1,0.7-0.1c0.1,0,0.2,0,0.4,0c0.1,0,0.2,0,0.4,0c0.5,0,0.9,0.1,1.4,0.2
				c0.9,0.2,1.8,0.6,2.6,1.1c0.8,0.5,1.6,1.1,2.3,1.8c-0.8-0.5-1.6-0.9-2.5-1.2c-0.4-0.2-0.8-0.3-1.3-0.4c-0.4-0.1-0.9-0.2-1.3-0.3
				c-0.1,0-0.2,0-0.3,0c-0.1,0-0.2,0-0.3,0c-0.1,0-0.2,0-0.3,0c-0.1,0-0.1,0-0.2,0c-0.1,0-0.1,0-0.2,0c-0.2,0-0.4,0-0.6,0.1
				c-0.2,0-0.4,0.1-0.6,0.2c-0.8,0.2-1.6,0.8-2.2,1.5c-0.1,0.1-0.2,0.2-0.3,0.3c-0.1,0.1-0.2,0.2-0.3,0.3c-0.1,0-0.1,0.1-0.2,0.1
				c-0.1,0-0.1,0.1-0.2,0.1c-0.1,0.1-0.2,0.2-0.3,0.2c-0.5,0.3-0.9,0.5-1.4,0.6c-0.9,0.2-1.9,0.1-2.8-0.1c-0.9-0.2-1.8-0.5-2.6-0.9
				C1134.4,472.5,1133.6,472,1132.8,471.4z"/>
			<path class="st5" d="M1094.5,465.2c0.9,0,1.8-0.1,2.7-0.2c0.9-0.1,1.7-0.3,2.6-0.6c0.4-0.1,0.8-0.3,1.2-0.5
				c0.4-0.2,0.8-0.4,1.1-0.7c0.1-0.1,0.2-0.1,0.3-0.2c0.1-0.1,0.2-0.2,0.3-0.2c0.1-0.1,0.2-0.2,0.2-0.3c0.1-0.1,0.1-0.2,0.2-0.3
				c0.1-0.1,0.1-0.2,0.2-0.3c0,0,0.1-0.1,0.1-0.1c0-0.1,0.1-0.1,0.1-0.2c0.1-0.1,0.1-0.2,0.2-0.3c0.1-0.1,0.1-0.2,0.2-0.4
				c0.2-0.6,0.5-1.1,0.9-1.6c0.4-0.5,0.8-0.8,1.2-1.2c0.2-0.2,0.4-0.3,0.7-0.4c0.1-0.1,0.2-0.1,0.3-0.2c0.1-0.1,0.2-0.1,0.3-0.1
				c0.5-0.2,0.9-0.3,1.4-0.4c0.9-0.2,1.9-0.1,2.8,0c0.9,0.2,1.9,0.4,2.7,0.8c-0.9-0.1-1.8-0.2-2.7-0.1c-0.5,0-0.9,0.1-1.3,0.1
				c-0.4,0.1-0.9,0.2-1.3,0.3c-0.1,0-0.2,0.1-0.3,0.1c-0.1,0-0.2,0.1-0.3,0.1c-0.1,0-0.2,0.1-0.3,0.1c-0.1,0-0.1,0-0.2,0.1
				c-0.1,0-0.1,0-0.2,0.1c-0.2,0.1-0.4,0.2-0.6,0.3c-0.2,0.1-0.4,0.2-0.6,0.4c-0.7,0.6-1.3,1.4-1.7,2.3c-0.1,0.1-0.1,0.3-0.2,0.4
				c-0.1,0.2-0.1,0.3-0.2,0.4c0,0.1-0.1,0.1-0.1,0.2c0,0.1-0.1,0.1-0.1,0.2c-0.1,0.1-0.2,0.3-0.3,0.4c-0.4,0.5-0.8,0.8-1.2,1.1
				c-0.8,0.6-1.8,0.9-2.7,1.1c-0.9,0.2-1.8,0.2-2.7,0.2C1096.3,465.6,1095.4,465.4,1094.5,465.2z"/>
			<path class="st5" d="M1078.1,466.2c-0.8,0.4-1.6,0.9-2.4,1.2c-0.8,0.4-1.6,0.7-2.5,0.9c-0.4,0.1-0.8,0.2-1.3,0.2
				c-0.4,0-0.8,0-1.3,0c-0.1,0-0.2,0-0.3,0c-0.1,0-0.2,0-0.3-0.1c-0.1,0-0.2-0.1-0.3-0.1c-0.1,0-0.2-0.1-0.3-0.1
				c-0.1,0-0.2-0.1-0.3-0.1c0,0-0.1-0.1-0.1-0.1c0,0-0.1-0.1-0.1-0.1c-0.1-0.1-0.2-0.1-0.3-0.2c-0.1-0.1-0.2-0.2-0.3-0.2
				c-0.4-0.4-0.9-0.7-1.4-1c-0.5-0.2-1-0.4-1.5-0.4c-0.2,0-0.5,0-0.7,0c-0.1,0-0.2,0-0.4,0c-0.1,0-0.2,0-0.4,0.1
				c-0.5,0.1-0.9,0.2-1.3,0.4c-0.9,0.4-1.7,0.9-2.4,1.5c-0.7,0.6-1.4,1.3-2,2.2c0.7-0.6,1.5-1.1,2.3-1.5c0.4-0.2,0.8-0.4,1.2-0.6
				c0.4-0.2,0.8-0.3,1.2-0.4c0.1,0,0.2-0.1,0.3-0.1c0.1,0,0.2,0,0.3-0.1c0.1,0,0.2,0,0.3-0.1c0.1,0,0.1,0,0.2,0c0.1,0,0.1,0,0.2,0
				c0.2,0,0.4,0,0.6,0c0.2,0,0.4,0,0.6,0.1c0.8,0.1,1.7,0.5,2.4,1.2c0.1,0.1,0.2,0.2,0.3,0.3c0.1,0.1,0.2,0.2,0.4,0.3
				c0.1,0,0.1,0.1,0.2,0.1c0.1,0,0.1,0.1,0.2,0.1c0.1,0.1,0.2,0.1,0.4,0.2c0.5,0.2,1,0.3,1.5,0.4c1,0.1,1.9-0.1,2.7-0.5
				c0.9-0.3,1.7-0.8,2.5-1.3C1076.7,467.5,1077.4,466.9,1078.1,466.2z"/>
			<path class="st5" d="M1068,473.9c-0.8,0.5-1.6,0.9-2.3,1.3c-0.8,0.4-1.6,0.7-2.4,0.9c-0.4,0.1-0.8,0.2-1.2,0.3
				c-0.4,0-0.8,0.1-1.2,0c-0.1,0-0.2,0-0.3,0c-0.1,0-0.2,0-0.3-0.1c-0.1,0-0.2-0.1-0.3-0.1c-0.1,0-0.2-0.1-0.3-0.1
				c-0.1,0-0.2-0.1-0.3-0.1c0,0-0.1,0-0.1-0.1c0,0-0.1-0.1-0.1-0.1c-0.1-0.1-0.2-0.1-0.3-0.2c-0.1-0.1-0.2-0.2-0.3-0.2
				c-0.4-0.4-0.9-0.7-1.4-0.9c-0.5-0.2-1-0.3-1.5-0.4c-0.2,0-0.5,0-0.7,0c-0.1,0-0.2,0-0.3,0c-0.1,0-0.2,0-0.3,0.1
				c-0.5,0.1-0.9,0.2-1.3,0.4c-0.8,0.4-1.6,0.9-2.3,1.6c-0.7,0.6-1.3,1.4-1.9,2.2c0.7-0.6,1.4-1.1,2.2-1.6c0.4-0.2,0.8-0.4,1.1-0.6
				c0.4-0.2,0.8-0.3,1.2-0.5c0.1,0,0.2-0.1,0.3-0.1c0.1,0,0.2,0,0.3-0.1c0.1,0,0.2,0,0.3-0.1c0.1,0,0.1,0,0.2,0c0.1,0,0.1,0,0.2,0
				c0.2,0,0.4,0,0.6,0c0.2,0,0.4,0,0.6,0c0.8,0.1,1.6,0.5,2.4,1.1c0.1,0.1,0.2,0.2,0.3,0.3c0.1,0.1,0.2,0.2,0.4,0.3
				c0.1,0,0.1,0.1,0.2,0.1c0.1,0,0.1,0.1,0.2,0.1c0.1,0.1,0.2,0.1,0.4,0.2c0.5,0.2,1,0.3,1.4,0.3c0.9,0,1.8-0.2,2.7-0.5
				c0.8-0.4,1.6-0.8,2.4-1.4C1066.6,475.2,1067.3,474.6,1068,473.9z"/>
			<path class="st5" d="M1057.8,479.6c-0.7,0.5-1.5,1-2.3,1.4c-0.8,0.4-1.5,0.8-2.3,1c-0.4,0.1-0.8,0.2-1.2,0.3
				c-0.4,0.1-0.8,0.1-1.2,0.1c-0.1,0-0.2,0-0.3,0c-0.1,0-0.2,0-0.3,0c-0.1,0-0.2-0.1-0.3-0.1c-0.1,0-0.2-0.1-0.3-0.1
				c-0.1,0-0.2-0.1-0.3-0.1c0,0-0.1,0-0.1-0.1c0,0-0.1-0.1-0.1-0.1c-0.1-0.1-0.2-0.1-0.3-0.2c-0.1-0.1-0.2-0.1-0.3-0.2
				c-0.5-0.4-0.9-0.7-1.4-0.9c-0.5-0.2-1-0.3-1.5-0.3c-0.2,0-0.5,0-0.7,0c-0.1,0-0.2,0-0.3,0.1c-0.1,0-0.2,0.1-0.3,0.1
				c-0.4,0.1-0.9,0.3-1.3,0.5c-0.8,0.4-1.5,1-2.2,1.6c-0.7,0.7-1.3,1.4-1.8,2.3c0.7-0.6,1.4-1.2,2.1-1.7c0.4-0.2,0.7-0.5,1.1-0.7
				c0.4-0.2,0.8-0.4,1.2-0.5c0.1,0,0.2-0.1,0.3-0.1c0.1,0,0.2-0.1,0.3-0.1c0.1,0,0.2,0,0.3-0.1c0,0,0.1,0,0.1,0c0.1,0,0.1,0,0.2,0
				c0.2,0,0.4,0,0.6-0.1c0.2,0,0.4,0,0.6,0c0.8,0.1,1.6,0.4,2.4,1c0.1,0.1,0.2,0.2,0.3,0.3c0.1,0.1,0.2,0.2,0.4,0.2
				c0.1,0,0.1,0.1,0.2,0.1c0.1,0,0.1,0.1,0.2,0.1c0.1,0.1,0.2,0.1,0.4,0.2c0.5,0.2,1,0.3,1.4,0.3c0.9,0,1.8-0.3,2.6-0.6
				c0.8-0.4,1.6-0.9,2.3-1.5C1056.5,481,1057.2,480.4,1057.8,479.6z"/>
			<path class="st5" d="M1093.5,465.3c-0.9,0.2-1.8,0.3-2.7,0.3c-0.9,0.1-1.8,0.1-2.6,0c-0.4,0-0.9-0.1-1.3-0.2
				c-0.4-0.1-0.8-0.2-1.3-0.4c-0.1-0.1-0.2-0.1-0.3-0.1c-0.1-0.1-0.2-0.1-0.3-0.2c-0.1-0.1-0.2-0.1-0.3-0.2
				c-0.1-0.1-0.2-0.1-0.3-0.2c-0.1-0.1-0.2-0.2-0.3-0.2c0,0-0.1-0.1-0.1-0.1c0,0-0.1-0.1-0.1-0.1c-0.1-0.1-0.2-0.2-0.2-0.3
				c-0.1-0.1-0.2-0.2-0.2-0.3c-0.4-0.5-0.8-1-1.2-1.4c-0.4-0.4-0.9-0.7-1.4-0.9c-0.2-0.1-0.5-0.2-0.7-0.3c-0.1,0-0.2-0.1-0.4-0.1
				c-0.1,0-0.2,0-0.4-0.1c-0.5-0.1-1-0.1-1.4-0.1c-0.9,0.1-1.9,0.3-2.7,0.6c-0.9,0.3-1.7,0.8-2.5,1.4c0.9-0.3,1.7-0.5,2.6-0.7
				c0.4-0.1,0.9-0.1,1.3-0.2c0.4,0,0.9,0,1.3,0c0.1,0,0.2,0,0.3,0c0.1,0,0.2,0,0.3,0c0.1,0,0.2,0,0.3,0.1c0.1,0,0.1,0,0.2,0
				c0.1,0,0.1,0,0.2,0c0.2,0,0.4,0.1,0.6,0.2c0.2,0.1,0.4,0.2,0.6,0.3c0.8,0.4,1.6,1,2.1,1.9c0.1,0.1,0.2,0.3,0.3,0.4
				c0.1,0.1,0.2,0.2,0.3,0.4c0.1,0.1,0.1,0.1,0.2,0.2c0.1,0.1,0.1,0.1,0.2,0.2c0.1,0.1,0.2,0.2,0.3,0.3c0.5,0.4,0.9,0.6,1.4,0.8
				c0.9,0.4,1.9,0.5,2.8,0.5c0.9,0,1.8-0.2,2.7-0.4C1091.8,466.1,1092.7,465.7,1093.5,465.3z"/>
		</g>
		<g>
			<path class="st5" d="M969.1,469.4c-0.6-2.8,0-5.5,1.6-7.3c-2.4,1.6-3.6,4.8-2.8,8.2c1,4.7,5,8.1,9,7.8c0.3,0,0.7-0.1,1-0.2
				C973.9,477.5,970.1,474,969.1,469.4z"/>
			<path class="st5" d="M984.2,468.2c-0.4-2.9-2-5.4-4.1-6.9c2.9,1.2,5.2,4.1,5.7,7.5c0.6,4.7-2.1,8.7-6.1,9c-0.3,0-0.7,0-1,0
				C982.3,476.9,984.9,472.9,984.2,468.2z"/>
			<path class="st5" d="M991.5,477.4c0.8,0.2,1.5,0.4,2.2,0.5c0.7,0.1,1.5,0.2,2.2,0.3c0.4,0,0.7,0,1.1-0.1c0.4,0,0.7-0.1,1-0.2
				c0.1,0,0.2-0.1,0.3-0.1c0.1,0,0.2-0.1,0.2-0.1c0.1,0,0.2-0.1,0.2-0.1c0.1,0,0.1-0.1,0.2-0.2c0.1,0,0.1-0.1,0.2-0.2
				c0,0,0.1-0.1,0.1-0.1c0,0,0.1-0.1,0.1-0.1c0.1-0.1,0.1-0.1,0.2-0.2c0.1-0.1,0.1-0.2,0.2-0.2c0.3-0.4,0.6-0.8,1-1
				c0.4-0.3,0.8-0.5,1.2-0.6c0.2-0.1,0.4-0.1,0.6-0.2c0.1,0,0.2,0,0.3,0c0.1,0,0.2,0,0.3,0c0.4,0,0.8,0,1.2,0.1
				c0.8,0.1,1.6,0.4,2.3,0.8c0.7,0.4,1.4,0.8,2.1,1.4c-0.7-0.3-1.5-0.6-2.2-0.8c-0.4-0.1-0.7-0.2-1.1-0.3c-0.4-0.1-0.7-0.1-1.1-0.1
				c-0.1,0-0.2,0-0.3,0c-0.1,0-0.2,0-0.3,0c-0.1,0-0.2,0-0.3,0c0,0-0.1,0-0.1,0c0,0-0.1,0-0.1,0c-0.2,0-0.4,0.1-0.5,0.1
				c-0.2,0.1-0.3,0.1-0.5,0.2c-0.7,0.3-1.3,0.7-1.8,1.4c-0.1,0.1-0.1,0.2-0.2,0.3c-0.1,0.1-0.2,0.2-0.2,0.3c0,0-0.1,0.1-0.1,0.1
				c0,0-0.1,0.1-0.1,0.1c-0.1,0.1-0.2,0.2-0.3,0.2c-0.4,0.3-0.8,0.4-1.2,0.6c-0.8,0.2-1.6,0.2-2.4,0.1c-0.8-0.1-1.5-0.3-2.3-0.6
				C993,478.2,992.2,477.8,991.5,477.4z"/>
			<path class="st5" d="M1001.4,481.8c0.7,0.2,1.5,0.5,2.2,0.6c0.7,0.2,1.5,0.3,2.2,0.3c0.4,0,0.7,0,1.1,0c0.4,0,0.7-0.1,1-0.2
				c0.1,0,0.2-0.1,0.3-0.1c0.1,0,0.2-0.1,0.2-0.1c0.1,0,0.2-0.1,0.2-0.1c0.1,0,0.2-0.1,0.2-0.1c0.1,0,0.1-0.1,0.2-0.2
				c0,0,0.1-0.1,0.1-0.1c0,0,0.1-0.1,0.1-0.1c0.1-0.1,0.1-0.1,0.2-0.2c0.1-0.1,0.1-0.2,0.2-0.2c0.3-0.4,0.7-0.7,1-1
				c0.4-0.3,0.8-0.4,1.2-0.6c0.2-0.1,0.4-0.1,0.6-0.1c0.1,0,0.2,0,0.3,0c0.1,0,0.2,0,0.3,0c0.4,0,0.8,0,1.2,0.1
				c0.8,0.2,1.5,0.5,2.2,0.9c0.7,0.4,1.4,0.9,2,1.5c-0.7-0.4-1.4-0.7-2.1-0.9c-0.4-0.1-0.7-0.2-1.1-0.3c-0.4-0.1-0.7-0.1-1.1-0.2
				c-0.1,0-0.2,0-0.3,0c-0.1,0-0.2,0-0.3,0c-0.1,0-0.2,0-0.3,0c0,0-0.1,0-0.1,0c0,0-0.1,0-0.1,0c-0.2,0-0.4,0-0.5,0.1
				c-0.2,0-0.3,0.1-0.5,0.1c-0.7,0.2-1.3,0.7-1.8,1.3c-0.1,0.1-0.2,0.2-0.2,0.3c-0.1,0.1-0.2,0.2-0.3,0.3c0,0-0.1,0.1-0.1,0.1
				c0,0-0.1,0.1-0.1,0.1c-0.1,0.1-0.2,0.2-0.3,0.2c-0.4,0.3-0.8,0.4-1.2,0.5c-0.8,0.2-1.6,0.2-2.3,0c-0.8-0.1-1.5-0.4-2.2-0.7
				C1002.7,482.7,1002,482.3,1001.4,481.8z"/>
			<path class="st5" d="M1010.9,484.7c0.7,0.3,1.4,0.5,2.2,0.7c0.7,0.2,1.4,0.3,2.2,0.4c0.4,0,0.7,0,1.1,0c0.4,0,0.7-0.1,1-0.2
				c0.1,0,0.2,0,0.3-0.1c0.1,0,0.2-0.1,0.2-0.1c0.1,0,0.2-0.1,0.2-0.1c0.1,0,0.2-0.1,0.2-0.1c0.1,0,0.1-0.1,0.2-0.2
				c0,0,0.1-0.1,0.1-0.1c0,0,0.1-0.1,0.1-0.1c0.1-0.1,0.1-0.1,0.2-0.2c0.1-0.1,0.1-0.2,0.2-0.2c0.3-0.4,0.7-0.7,1.1-1
				c0.4-0.3,0.8-0.4,1.2-0.5c0.2-0.1,0.4-0.1,0.6-0.1c0.1,0,0.2,0,0.3,0c0.1,0,0.2,0,0.3,0c0.4,0,0.8,0.1,1.2,0.2
				c0.8,0.2,1.5,0.5,2.2,0.9c0.7,0.4,1.3,0.9,1.9,1.5c-0.7-0.4-1.4-0.7-2.1-1c-0.4-0.1-0.7-0.3-1.1-0.4c-0.4-0.1-0.7-0.2-1.1-0.2
				c-0.1,0-0.2,0-0.3,0c-0.1,0-0.2,0-0.3,0c-0.1,0-0.2,0-0.3,0c0,0-0.1,0-0.1,0c0,0-0.1,0-0.1,0c-0.2,0-0.4,0-0.5,0.1
				c-0.2,0-0.3,0.1-0.5,0.1c-0.7,0.2-1.3,0.6-1.8,1.3c-0.1,0.1-0.2,0.2-0.2,0.3c-0.1,0.1-0.2,0.2-0.3,0.3c0,0-0.1,0.1-0.1,0.1
				c0,0-0.1,0.1-0.1,0.1c-0.1,0.1-0.2,0.1-0.3,0.2c-0.4,0.2-0.8,0.4-1.2,0.5c-0.8,0.2-1.6,0.1-2.3,0c-0.7-0.2-1.5-0.4-2.2-0.8
				C1012.2,485.6,1011.5,485.2,1010.9,484.7z"/>
			<path class="st5" d="M978.7,479.5c0.8,0,1.5-0.1,2.2-0.2c0.7-0.1,1.5-0.3,2.2-0.5c0.4-0.1,0.7-0.3,1-0.4c0.3-0.2,0.7-0.4,1-0.6
				c0.1-0.1,0.2-0.1,0.2-0.2c0.1-0.1,0.1-0.1,0.2-0.2c0.1-0.1,0.1-0.1,0.2-0.2c0.1-0.1,0.1-0.2,0.2-0.2c0.1-0.1,0.1-0.2,0.2-0.2
				c0,0,0.1-0.1,0.1-0.1c0,0,0-0.1,0.1-0.1c0-0.1,0.1-0.2,0.1-0.3c0-0.1,0.1-0.2,0.1-0.3c0.2-0.5,0.5-0.9,0.7-1.3
				c0.3-0.4,0.6-0.7,1-1c0.2-0.1,0.4-0.2,0.5-0.4c0.1,0,0.2-0.1,0.3-0.1c0.1,0,0.2-0.1,0.3-0.1c0.4-0.1,0.8-0.3,1.2-0.3
				c0.8-0.1,1.6-0.1,2.4,0c0.8,0.1,1.6,0.3,2.3,0.7c-0.8-0.1-1.5-0.1-2.3-0.1c-0.4,0-0.8,0-1.1,0.1c-0.4,0.1-0.7,0.1-1.1,0.2
				c-0.1,0-0.2,0.1-0.3,0.1c-0.1,0-0.2,0.1-0.3,0.1c-0.1,0-0.2,0.1-0.3,0.1c0,0-0.1,0-0.1,0.1c0,0-0.1,0-0.1,0.1
				c-0.2,0.1-0.3,0.2-0.5,0.3c-0.2,0.1-0.3,0.2-0.5,0.3c-0.6,0.5-1.1,1.1-1.4,1.9c-0.1,0.1-0.1,0.2-0.2,0.4
				c-0.1,0.1-0.1,0.2-0.2,0.4c0,0.1-0.1,0.1-0.1,0.2c0,0.1-0.1,0.1-0.1,0.2c-0.1,0.1-0.1,0.2-0.2,0.3c-0.3,0.4-0.6,0.7-1,0.9
				c-0.7,0.5-1.5,0.7-2.2,0.9c-0.8,0.1-1.5,0.2-2.3,0.2C980.2,479.8,979.4,479.7,978.7,479.5z"/>
			<path class="st5" d="M991.5,477.4c0.8,0.2,1.5,0.4,2.2,0.5c0.7,0.1,1.5,0.2,2.2,0.3c0.4,0,0.7,0,1.1-0.1c0.4,0,0.7-0.1,1-0.2
				c0.1,0,0.2-0.1,0.3-0.1c0.1,0,0.2-0.1,0.2-0.1c0.1,0,0.2-0.1,0.2-0.1c0.1,0,0.1-0.1,0.2-0.2c0.1,0,0.1-0.1,0.2-0.2
				c0,0,0.1-0.1,0.1-0.1c0,0,0.1-0.1,0.1-0.1c0.1-0.1,0.1-0.1,0.2-0.2c0.1-0.1,0.1-0.2,0.2-0.2c0.3-0.4,0.6-0.8,1-1
				c0.4-0.3,0.8-0.5,1.2-0.6c0.2-0.1,0.4-0.1,0.6-0.2c0.1,0,0.2,0,0.3,0c0.1,0,0.2,0,0.3,0c0.4,0,0.8,0,1.2,0.1
				c0.8,0.1,1.6,0.4,2.3,0.8c0.7,0.4,1.4,0.8,2.1,1.4c-0.7-0.3-1.5-0.6-2.2-0.8c-0.4-0.1-0.7-0.2-1.1-0.3c-0.4-0.1-0.7-0.1-1.1-0.1
				c-0.1,0-0.2,0-0.3,0c-0.1,0-0.2,0-0.3,0c-0.1,0-0.2,0-0.3,0c0,0-0.1,0-0.1,0c0,0-0.1,0-0.1,0c-0.2,0-0.4,0.1-0.5,0.1
				c-0.2,0.1-0.3,0.1-0.5,0.2c-0.7,0.3-1.3,0.7-1.8,1.4c-0.1,0.1-0.1,0.2-0.2,0.3c-0.1,0.1-0.2,0.2-0.2,0.3c0,0-0.1,0.1-0.1,0.1
				c0,0-0.1,0.1-0.1,0.1c-0.1,0.1-0.2,0.2-0.3,0.2c-0.4,0.3-0.8,0.4-1.2,0.6c-0.8,0.2-1.6,0.2-2.4,0.1c-0.8-0.1-1.5-0.3-2.3-0.6
				C993,478.2,992.2,477.8,991.5,477.4z"/>
			<path class="st5" d="M1001.4,481.8c0.7,0.2,1.5,0.5,2.2,0.6c0.7,0.2,1.5,0.3,2.2,0.3c0.4,0,0.7,0,1.1,0c0.4,0,0.7-0.1,1-0.2
				c0.1,0,0.2-0.1,0.3-0.1c0.1,0,0.2-0.1,0.2-0.1c0.1,0,0.2-0.1,0.2-0.1c0.1,0,0.2-0.1,0.2-0.1c0.1,0,0.1-0.1,0.2-0.2
				c0,0,0.1-0.1,0.1-0.1c0,0,0.1-0.1,0.1-0.1c0.1-0.1,0.1-0.1,0.2-0.2c0.1-0.1,0.1-0.2,0.2-0.2c0.3-0.4,0.7-0.7,1-1
				c0.4-0.3,0.8-0.4,1.2-0.6c0.2-0.1,0.4-0.1,0.6-0.1c0.1,0,0.2,0,0.3,0c0.1,0,0.2,0,0.3,0c0.4,0,0.8,0,1.2,0.1
				c0.8,0.2,1.5,0.5,2.2,0.9c0.7,0.4,1.4,0.9,2,1.5c-0.7-0.4-1.4-0.7-2.1-0.9c-0.4-0.1-0.7-0.2-1.1-0.3c-0.4-0.1-0.7-0.1-1.1-0.2
				c-0.1,0-0.2,0-0.3,0c-0.1,0-0.2,0-0.3,0c-0.1,0-0.2,0-0.3,0c0,0-0.1,0-0.1,0c0,0-0.1,0-0.1,0c-0.2,0-0.4,0-0.5,0.1
				c-0.2,0-0.3,0.1-0.5,0.1c-0.7,0.2-1.3,0.7-1.8,1.3c-0.1,0.1-0.2,0.2-0.2,0.3c-0.1,0.1-0.2,0.2-0.3,0.3c0,0-0.1,0.1-0.1,0.1
				c0,0-0.1,0.1-0.1,0.1c-0.1,0.1-0.2,0.2-0.3,0.2c-0.4,0.3-0.8,0.4-1.2,0.5c-0.8,0.2-1.6,0.2-2.3,0c-0.8-0.1-1.5-0.4-2.2-0.7
				C1002.7,482.7,1002,482.3,1001.4,481.8z"/>
			<path class="st5" d="M1010.9,484.7c0.7,0.3,1.4,0.5,2.2,0.7c0.7,0.2,1.4,0.3,2.2,0.4c0.4,0,0.7,0,1.1,0c0.4,0,0.7-0.1,1-0.2
				c0.1,0,0.2,0,0.3-0.1c0.1,0,0.2-0.1,0.2-0.1c0.1,0,0.2-0.1,0.2-0.1c0.1,0,0.2-0.1,0.2-0.1c0.1,0,0.1-0.1,0.2-0.2
				c0,0,0.1-0.1,0.1-0.1c0,0,0.1-0.1,0.1-0.1c0.1-0.1,0.1-0.1,0.2-0.2c0.1-0.1,0.1-0.2,0.2-0.2c0.3-0.4,0.7-0.7,1.1-1
				c0.4-0.3,0.8-0.4,1.2-0.5c0.2-0.1,0.4-0.1,0.6-0.1c0.1,0,0.2,0,0.3,0c0.1,0,0.2,0,0.3,0c0.4,0,0.8,0.1,1.2,0.2
				c0.8,0.2,1.5,0.5,2.2,0.9c0.7,0.4,1.3,0.9,1.9,1.5c-0.7-0.4-1.4-0.7-2.1-1c-0.4-0.1-0.7-0.3-1.1-0.4c-0.4-0.1-0.7-0.2-1.1-0.2
				c-0.1,0-0.2,0-0.3,0c-0.1,0-0.2,0-0.3,0c-0.1,0-0.2,0-0.3,0c0,0-0.1,0-0.1,0c0,0-0.1,0-0.1,0c-0.2,0-0.4,0-0.5,0.1
				c-0.2,0-0.3,0.1-0.5,0.1c-0.7,0.2-1.3,0.6-1.8,1.3c-0.1,0.1-0.2,0.2-0.2,0.3c-0.1,0.1-0.2,0.2-0.3,0.3c0,0-0.1,0.1-0.1,0.1
				c0,0-0.1,0.1-0.1,0.1c-0.1,0.1-0.2,0.1-0.3,0.2c-0.4,0.2-0.8,0.4-1.2,0.5c-0.8,0.2-1.6,0.1-2.3,0c-0.7-0.2-1.5-0.4-2.2-0.8
				C1012.2,485.6,1011.5,485.2,1010.9,484.7z"/>
			<path class="st5" d="M978.7,479.5c0.8,0,1.5-0.1,2.2-0.2c0.7-0.1,1.5-0.3,2.2-0.5c0.4-0.1,0.7-0.3,1-0.4c0.3-0.2,0.7-0.4,1-0.6
				c0.1-0.1,0.2-0.1,0.2-0.2c0.1-0.1,0.1-0.1,0.2-0.2c0.1-0.1,0.1-0.1,0.2-0.2c0.1-0.1,0.1-0.2,0.2-0.2c0.1-0.1,0.1-0.2,0.2-0.2
				c0,0,0.1-0.1,0.1-0.1c0,0,0-0.1,0.1-0.1c0-0.1,0.1-0.2,0.1-0.3c0-0.1,0.1-0.2,0.1-0.3c0.2-0.5,0.5-0.9,0.7-1.3
				c0.3-0.4,0.6-0.7,1-1c0.2-0.1,0.4-0.2,0.5-0.4c0.1,0,0.2-0.1,0.3-0.1c0.1,0,0.2-0.1,0.3-0.1c0.4-0.1,0.8-0.3,1.2-0.3
				c0.8-0.1,1.6-0.1,2.4,0c0.8,0.1,1.6,0.3,2.3,0.7c-0.8-0.1-1.5-0.1-2.3-0.1c-0.4,0-0.8,0-1.1,0.1c-0.4,0.1-0.7,0.1-1.1,0.2
				c-0.1,0-0.2,0.1-0.3,0.1c-0.1,0-0.2,0.1-0.3,0.1c-0.1,0-0.2,0.1-0.3,0.1c0,0-0.1,0-0.1,0.1c0,0-0.1,0-0.1,0.1
				c-0.2,0.1-0.3,0.2-0.5,0.3c-0.2,0.1-0.3,0.2-0.5,0.3c-0.6,0.5-1.1,1.1-1.4,1.9c-0.1,0.1-0.1,0.2-0.2,0.4
				c-0.1,0.1-0.1,0.2-0.2,0.4c0,0.1-0.1,0.1-0.1,0.2c0,0.1-0.1,0.1-0.1,0.2c-0.1,0.1-0.1,0.2-0.2,0.3c-0.3,0.4-0.6,0.7-1,0.9
				c-0.7,0.5-1.5,0.7-2.2,0.9c-0.8,0.1-1.5,0.2-2.3,0.2C980.2,479.8,979.4,479.7,978.7,479.5z"/>
			<path class="st5" d="M964.9,480.3c-0.7,0.4-1.4,0.7-2.1,1c-0.7,0.3-1.4,0.6-2.1,0.7c-0.4,0.1-0.7,0.1-1.1,0.2c-0.4,0-0.7,0-1.1,0
				c-0.1,0-0.2,0-0.3,0c-0.1,0-0.2,0-0.3-0.1c-0.1,0-0.2-0.1-0.3-0.1c-0.1,0-0.2-0.1-0.2-0.1c-0.1,0-0.2-0.1-0.2-0.1
				c0,0-0.1,0-0.1-0.1c0,0-0.1-0.1-0.1-0.1c-0.1-0.1-0.2-0.1-0.2-0.2c-0.1-0.1-0.2-0.1-0.2-0.2c-0.4-0.3-0.8-0.6-1.2-0.8
				c-0.4-0.2-0.8-0.3-1.2-0.3c-0.2,0-0.4,0-0.6,0c-0.1,0-0.2,0-0.3,0c-0.1,0-0.2,0-0.3,0c-0.4,0.1-0.8,0.2-1.1,0.3
				c-0.7,0.3-1.4,0.7-2,1.3c-0.6,0.5-1.2,1.1-1.7,1.8c0.6-0.5,1.3-0.9,1.9-1.3c0.3-0.2,0.7-0.4,1-0.5c0.3-0.1,0.7-0.3,1-0.4
				c0.1,0,0.2,0,0.3-0.1c0.1,0,0.2,0,0.3-0.1c0.1,0,0.2,0,0.3,0c0,0,0.1,0,0.1,0c0,0,0.1,0,0.1,0c0.2,0,0.4,0,0.5,0
				c0.2,0,0.4,0,0.5,0.1c0.7,0.1,1.4,0.4,2,1c0.1,0.1,0.2,0.2,0.3,0.2c0.1,0.1,0.2,0.2,0.3,0.2c0.1,0,0.1,0.1,0.2,0.1
				c0.1,0,0.1,0.1,0.2,0.1c0.1,0.1,0.2,0.1,0.3,0.2c0.4,0.2,0.8,0.3,1.2,0.3c0.8,0.1,1.6-0.1,2.3-0.4c0.7-0.3,1.4-0.6,2.1-1.1
				C963.7,481.4,964.4,480.9,964.9,480.3z"/>
			<path class="st5" d="M956.4,486.8c-0.7,0.4-1.3,0.8-2,1.1c-0.7,0.3-1.3,0.6-2,0.8c-0.3,0.1-0.7,0.2-1,0.2c-0.3,0-0.7,0.1-1,0
				c-0.1,0-0.2,0-0.3,0c-0.1,0-0.2,0-0.3,0c-0.1,0-0.2,0-0.3-0.1c-0.1,0-0.2-0.1-0.2-0.1c-0.1,0-0.2-0.1-0.2-0.1c0,0-0.1,0-0.1-0.1
				c0,0-0.1-0.1-0.1-0.1c-0.1-0.1-0.2-0.1-0.2-0.2c-0.1-0.1-0.2-0.1-0.2-0.2c-0.4-0.3-0.8-0.6-1.2-0.8c-0.4-0.2-0.8-0.3-1.2-0.3
				c-0.2,0-0.4,0-0.6,0c-0.1,0-0.2,0-0.3,0c-0.1,0-0.2,0-0.3,0.1c-0.4,0.1-0.7,0.2-1.1,0.4c-0.7,0.3-1.3,0.8-1.9,1.3
				c-0.6,0.5-1.1,1.1-1.6,1.9c0.6-0.5,1.2-1,1.8-1.3c0.3-0.2,0.6-0.4,1-0.5c0.3-0.2,0.7-0.3,1-0.4c0.1,0,0.2-0.1,0.3-0.1
				c0.1,0,0.2,0,0.3-0.1c0.1,0,0.2,0,0.3-0.1c0,0,0.1,0,0.1,0c0,0,0.1,0,0.1,0c0.2,0,0.3,0,0.5,0c0.2,0,0.3,0,0.5,0
				c0.7,0.1,1.4,0.4,2,0.9c0.1,0.1,0.2,0.2,0.3,0.2c0.1,0.1,0.2,0.1,0.3,0.2c0.1,0,0.1,0.1,0.2,0.1c0.1,0,0.1,0.1,0.2,0.1
				c0.1,0.1,0.2,0.1,0.3,0.1c0.4,0.2,0.8,0.2,1.2,0.3c0.8,0,1.5-0.2,2.2-0.5c0.7-0.3,1.4-0.7,2-1.2
				C955.3,487.9,955.9,487.4,956.4,486.8z"/>
			<path class="st5" d="M947.9,491.6c-0.6,0.4-1.3,0.8-1.9,1.1c-0.6,0.3-1.3,0.6-2,0.9c-0.3,0.1-0.7,0.2-1,0.3
				c-0.3,0.1-0.7,0.1-1,0.1c-0.1,0-0.2,0-0.3,0c-0.1,0-0.2,0-0.3,0c-0.1,0-0.2,0-0.3-0.1c-0.1,0-0.2-0.1-0.2-0.1
				c-0.1,0-0.2-0.1-0.2-0.1c0,0-0.1,0-0.1-0.1c0,0-0.1,0-0.1-0.1c-0.1,0-0.2-0.1-0.2-0.2c-0.1-0.1-0.2-0.1-0.2-0.2
				c-0.4-0.3-0.8-0.6-1.2-0.7c-0.4-0.2-0.8-0.2-1.2-0.3c-0.2,0-0.4,0-0.6,0c-0.1,0-0.2,0-0.3,0c-0.1,0-0.2,0-0.3,0.1
				c-0.4,0.1-0.7,0.2-1.1,0.4c-0.7,0.3-1.3,0.8-1.9,1.4c-0.6,0.6-1.1,1.2-1.5,1.9c0.6-0.5,1.1-1,1.7-1.4c0.3-0.2,0.6-0.4,0.9-0.6
				c0.3-0.2,0.6-0.3,1-0.4c0.1,0,0.2-0.1,0.2-0.1c0.1,0,0.2,0,0.3-0.1c0.1,0,0.2,0,0.3-0.1c0,0,0.1,0,0.1,0c0,0,0.1,0,0.1,0
				c0.2,0,0.3,0,0.5-0.1c0.2,0,0.3,0,0.5,0c0.7,0.1,1.4,0.3,2,0.9c0.1,0.1,0.2,0.1,0.3,0.2c0.1,0.1,0.2,0.1,0.3,0.2
				c0.1,0,0.1,0.1,0.2,0.1c0.1,0,0.1,0,0.2,0.1c0.1,0,0.2,0.1,0.3,0.1c0.4,0.2,0.8,0.2,1.2,0.2c0.8,0,1.5-0.2,2.2-0.5
				c0.7-0.3,1.3-0.7,1.9-1.2C946.8,492.8,947.4,492.2,947.9,491.6z"/>
			<path class="st5" d="M977.8,479.6c-0.7,0.1-1.5,0.2-2.2,0.3c-0.7,0.1-1.5,0.1-2.2,0c-0.4,0-0.7-0.1-1.1-0.2
				c-0.4-0.1-0.7-0.2-1.1-0.4c-0.1,0-0.2-0.1-0.3-0.1c-0.1,0-0.2-0.1-0.2-0.1c-0.1-0.1-0.2-0.1-0.2-0.2c-0.1-0.1-0.2-0.1-0.2-0.2
				c-0.1-0.1-0.1-0.1-0.2-0.2c0,0-0.1-0.1-0.1-0.1c0,0-0.1-0.1-0.1-0.1c-0.1-0.1-0.1-0.1-0.2-0.2c-0.1-0.1-0.1-0.2-0.2-0.3
				c-0.3-0.4-0.6-0.8-1-1.1c-0.4-0.3-0.8-0.6-1.2-0.7c-0.2-0.1-0.4-0.2-0.6-0.2c-0.1,0-0.2-0.1-0.3-0.1c-0.1,0-0.2,0-0.3-0.1
				c-0.4-0.1-0.8-0.1-1.2-0.1c-0.8,0-1.6,0.2-2.3,0.5c-0.7,0.3-1.4,0.7-2.1,1.2c0.7-0.3,1.5-0.5,2.2-0.6c0.4-0.1,0.7-0.1,1.1-0.1
				c0.4,0,0.7,0,1.1,0c0.1,0,0.2,0,0.3,0c0.1,0,0.2,0,0.3,0c0.1,0,0.2,0,0.3,0c0,0,0.1,0,0.1,0c0,0,0.1,0,0.1,0
				c0.2,0,0.4,0.1,0.5,0.2c0.2,0.1,0.4,0.1,0.5,0.2c0.7,0.3,1.3,0.9,1.8,1.6c0.1,0.1,0.2,0.2,0.2,0.3c0.1,0.1,0.2,0.2,0.3,0.3
				c0,0,0.1,0.1,0.1,0.1c0,0,0.1,0.1,0.1,0.1c0.1,0.1,0.2,0.2,0.3,0.2c0.4,0.3,0.8,0.5,1.2,0.7c0.8,0.3,1.6,0.4,2.4,0.4
				c0.8,0,1.5-0.1,2.3-0.3C976.4,480.2,977.2,479.9,977.8,479.6z"/>
		</g>
		<g>
			<path class="st5" d="M863.5,481.8c-0.6-2.8,0-5.5,1.6-7.3c-2.4,1.6-3.6,4.8-2.8,8.2c1,4.7,5,8.1,9,7.8c0.3,0,0.7-0.1,1-0.2
				C868.2,489.9,864.4,486.4,863.5,481.8z"/>
			<path class="st5" d="M878.5,480.6c-0.4-2.9-2-5.4-4.1-6.9c2.9,1.2,5.2,4.1,5.7,7.5c0.6,4.7-2.1,8.7-6.1,9c-0.3,0-0.7,0-1,0
				C876.7,489.3,879.2,485.3,878.5,480.6z"/>
			<path class="st5" d="M885.9,489.8c0.8,0.2,1.5,0.4,2.2,0.5c0.7,0.1,1.5,0.2,2.2,0.3c0.4,0,0.7,0,1.1-0.1c0.4,0,0.7-0.1,1-0.2
				c0.1,0,0.2-0.1,0.3-0.1c0.1,0,0.2-0.1,0.2-0.1c0.1,0,0.2-0.1,0.2-0.1c0.1,0,0.1-0.1,0.2-0.2c0.1,0,0.1-0.1,0.2-0.2
				c0,0,0.1-0.1,0.1-0.1c0,0,0.1-0.1,0.1-0.1c0.1-0.1,0.1-0.1,0.2-0.2c0.1-0.1,0.1-0.2,0.2-0.2c0.3-0.4,0.6-0.8,1-1
				c0.4-0.3,0.8-0.5,1.2-0.6c0.2-0.1,0.4-0.1,0.6-0.2c0.1,0,0.2,0,0.3,0c0.1,0,0.2,0,0.3,0c0.4,0,0.8,0,1.2,0.1
				c0.8,0.1,1.6,0.4,2.3,0.8c0.7,0.4,1.4,0.8,2.1,1.4c-0.7-0.3-1.5-0.6-2.2-0.8c-0.4-0.1-0.7-0.2-1.1-0.3c-0.4-0.1-0.7-0.1-1.1-0.1
				c-0.1,0-0.2,0-0.3,0c-0.1,0-0.2,0-0.3,0c-0.1,0-0.2,0-0.3,0c0,0-0.1,0-0.1,0c0,0-0.1,0-0.1,0c-0.2,0-0.4,0.1-0.5,0.1
				c-0.2,0.1-0.3,0.1-0.5,0.2c-0.7,0.3-1.3,0.7-1.8,1.4c-0.1,0.1-0.1,0.2-0.2,0.3c-0.1,0.1-0.2,0.2-0.2,0.3c0,0-0.1,0.1-0.1,0.1
				c0,0-0.1,0.1-0.1,0.1c-0.1,0.1-0.2,0.2-0.3,0.2c-0.4,0.3-0.8,0.4-1.2,0.6c-0.8,0.2-1.6,0.2-2.4,0.1c-0.8-0.1-1.5-0.3-2.3-0.6
				C887.3,490.6,886.6,490.3,885.9,489.8z"/>
			<path class="st5" d="M895.7,494.2c0.7,0.2,1.5,0.5,2.2,0.6c0.7,0.2,1.5,0.3,2.2,0.3c0.4,0,0.7,0,1.1,0c0.4,0,0.7-0.1,1-0.2
				c0.1,0,0.2-0.1,0.3-0.1c0.1,0,0.2-0.1,0.2-0.1c0.1,0,0.2-0.1,0.2-0.1c0.1,0,0.2-0.1,0.2-0.1c0.1,0,0.1-0.1,0.2-0.2
				c0,0,0.1-0.1,0.1-0.1c0,0,0.1-0.1,0.1-0.1c0.1-0.1,0.1-0.1,0.2-0.2c0.1-0.1,0.1-0.2,0.2-0.2c0.3-0.4,0.7-0.7,1-1
				c0.4-0.3,0.8-0.4,1.2-0.6c0.2-0.1,0.4-0.1,0.6-0.1c0.1,0,0.2,0,0.3,0c0.1,0,0.2,0,0.3,0c0.4,0,0.8,0,1.2,0.1
				c0.8,0.2,1.5,0.5,2.2,0.9c0.7,0.4,1.4,0.9,2,1.5c-0.7-0.4-1.4-0.7-2.1-0.9c-0.4-0.1-0.7-0.2-1.1-0.3c-0.4-0.1-0.7-0.1-1.1-0.2
				c-0.1,0-0.2,0-0.3,0c-0.1,0-0.2,0-0.3,0c-0.1,0-0.2,0-0.3,0c0,0-0.1,0-0.1,0c0,0-0.1,0-0.1,0c-0.2,0-0.4,0-0.5,0.1
				c-0.2,0-0.3,0.1-0.5,0.1c-0.7,0.2-1.3,0.7-1.8,1.3c-0.1,0.1-0.2,0.2-0.2,0.3c-0.1,0.1-0.2,0.2-0.3,0.3c0,0-0.1,0.1-0.1,0.1
				c0,0-0.1,0.1-0.1,0.1c-0.1,0.1-0.2,0.2-0.3,0.2c-0.4,0.3-0.8,0.4-1.2,0.5c-0.8,0.2-1.6,0.2-2.3,0c-0.8-0.1-1.5-0.4-2.2-0.7
				C897.1,495.1,896.4,494.7,895.7,494.2z"/>
			<path class="st5" d="M905.2,497.1c0.7,0.3,1.4,0.5,2.2,0.7c0.7,0.2,1.4,0.3,2.2,0.4c0.4,0,0.7,0,1.1,0c0.4,0,0.7-0.1,1-0.2
				c0.1,0,0.2,0,0.3-0.1c0.1,0,0.2-0.1,0.2-0.1c0.1,0,0.2-0.1,0.2-0.1c0.1,0,0.2-0.1,0.2-0.1c0.1,0,0.1-0.1,0.2-0.2
				c0,0,0.1-0.1,0.1-0.1c0,0,0.1-0.1,0.1-0.1c0.1-0.1,0.1-0.1,0.2-0.2c0.1-0.1,0.1-0.2,0.2-0.2c0.3-0.4,0.7-0.7,1.1-1
				c0.4-0.3,0.8-0.4,1.2-0.5c0.2-0.1,0.4-0.1,0.6-0.1c0.1,0,0.2,0,0.3,0c0.1,0,0.2,0,0.3,0c0.4,0,0.8,0.1,1.2,0.2
				c0.8,0.2,1.5,0.5,2.2,0.9c0.7,0.4,1.3,0.9,1.9,1.5c-0.7-0.4-1.4-0.7-2.1-1c-0.4-0.1-0.7-0.3-1.1-0.4c-0.4-0.1-0.7-0.2-1.1-0.2
				c-0.1,0-0.2,0-0.3,0c-0.1,0-0.2,0-0.3,0c-0.1,0-0.2,0-0.3,0c0,0-0.1,0-0.1,0c0,0-0.1,0-0.1,0c-0.2,0-0.4,0-0.5,0.1
				c-0.2,0-0.3,0.1-0.5,0.1c-0.7,0.2-1.3,0.6-1.8,1.3c-0.1,0.1-0.2,0.2-0.2,0.3c-0.1,0.1-0.2,0.2-0.3,0.3c0,0-0.1,0.1-0.1,0.1
				c0,0-0.1,0.1-0.1,0.1c-0.1,0.1-0.2,0.1-0.3,0.2c-0.4,0.2-0.8,0.4-1.2,0.5c-0.8,0.2-1.6,0.1-2.3,0c-0.7-0.2-1.5-0.4-2.2-0.8
				C906.6,498,905.9,497.6,905.2,497.1z"/>
			<path class="st5" d="M873,491.9c0.8,0,1.5-0.1,2.2-0.2c0.7-0.1,1.5-0.3,2.2-0.5c0.4-0.1,0.7-0.3,1-0.4c0.3-0.2,0.7-0.4,1-0.6
				c0.1-0.1,0.2-0.1,0.2-0.2c0.1-0.1,0.1-0.1,0.2-0.2c0.1-0.1,0.1-0.1,0.2-0.2c0.1-0.1,0.1-0.2,0.2-0.2c0.1-0.1,0.1-0.2,0.2-0.2
				c0,0,0.1-0.1,0.1-0.1c0,0,0-0.1,0.1-0.1c0-0.1,0.1-0.2,0.1-0.3c0-0.1,0.1-0.2,0.1-0.3c0.2-0.5,0.5-0.9,0.7-1.3
				c0.3-0.4,0.6-0.7,1-1c0.2-0.1,0.4-0.2,0.5-0.4c0.1,0,0.2-0.1,0.3-0.1c0.1,0,0.2-0.1,0.3-0.1c0.4-0.1,0.8-0.3,1.2-0.3
				c0.8-0.1,1.6-0.1,2.4,0c0.8,0.1,1.6,0.3,2.3,0.7c-0.8-0.1-1.5-0.1-2.3-0.1c-0.4,0-0.8,0-1.1,0.1c-0.4,0.1-0.7,0.1-1.1,0.2
				c-0.1,0-0.2,0.1-0.3,0.1c-0.1,0-0.2,0.1-0.3,0.1c-0.1,0-0.2,0.1-0.3,0.1c0,0-0.1,0-0.1,0.1c0,0-0.1,0-0.1,0.1
				c-0.2,0.1-0.3,0.2-0.5,0.3c-0.2,0.1-0.3,0.2-0.5,0.3c-0.6,0.5-1.1,1.1-1.4,1.9c-0.1,0.1-0.1,0.2-0.2,0.4
				c-0.1,0.1-0.1,0.2-0.2,0.4c0,0.1-0.1,0.1-0.1,0.2c0,0.1-0.1,0.1-0.1,0.2c-0.1,0.1-0.1,0.2-0.2,0.3c-0.3,0.4-0.6,0.7-1,0.9
				c-0.7,0.5-1.5,0.7-2.2,0.9c-0.8,0.1-1.5,0.2-2.3,0.2C874.5,492.2,873.8,492.1,873,491.9z"/>
			<path class="st5" d="M885.9,489.8c0.8,0.2,1.5,0.4,2.2,0.5c0.7,0.1,1.5,0.2,2.2,0.3c0.4,0,0.7,0,1.1-0.1c0.4,0,0.7-0.1,1-0.2
				c0.1,0,0.2-0.1,0.3-0.1c0.1,0,0.2-0.1,0.2-0.1c0.1,0,0.2-0.1,0.2-0.1c0.1,0,0.1-0.1,0.2-0.2c0.1,0,0.1-0.1,0.2-0.2
				c0,0,0.1-0.1,0.1-0.1c0,0,0.1-0.1,0.1-0.1c0.1-0.1,0.1-0.1,0.2-0.2c0.1-0.1,0.1-0.2,0.2-0.2c0.3-0.4,0.6-0.8,1-1
				c0.4-0.3,0.8-0.5,1.2-0.6c0.2-0.1,0.4-0.1,0.6-0.2c0.1,0,0.2,0,0.3,0c0.1,0,0.2,0,0.3,0c0.4,0,0.8,0,1.2,0.1
				c0.8,0.1,1.6,0.4,2.3,0.8c0.7,0.4,1.4,0.8,2.1,1.4c-0.7-0.3-1.5-0.6-2.2-0.8c-0.4-0.1-0.7-0.2-1.1-0.3c-0.4-0.1-0.7-0.1-1.1-0.1
				c-0.1,0-0.2,0-0.3,0c-0.1,0-0.2,0-0.3,0c-0.1,0-0.2,0-0.3,0c0,0-0.1,0-0.1,0c0,0-0.1,0-0.1,0c-0.2,0-0.4,0.1-0.5,0.1
				c-0.2,0.1-0.3,0.1-0.5,0.2c-0.7,0.3-1.3,0.7-1.8,1.4c-0.1,0.1-0.1,0.2-0.2,0.3c-0.1,0.1-0.2,0.2-0.2,0.3c0,0-0.1,0.1-0.1,0.1
				c0,0-0.1,0.1-0.1,0.1c-0.1,0.1-0.2,0.2-0.3,0.2c-0.4,0.3-0.8,0.4-1.2,0.6c-0.8,0.2-1.6,0.2-2.4,0.1c-0.8-0.1-1.5-0.3-2.3-0.6
				C887.3,490.6,886.6,490.3,885.9,489.8z"/>
			<path class="st5" d="M895.7,494.2c0.7,0.2,1.5,0.5,2.2,0.6c0.7,0.2,1.5,0.3,2.2,0.3c0.4,0,0.7,0,1.1,0c0.4,0,0.7-0.1,1-0.2
				c0.1,0,0.2-0.1,0.3-0.1c0.1,0,0.2-0.1,0.2-0.1c0.1,0,0.2-0.1,0.2-0.1c0.1,0,0.2-0.1,0.2-0.1c0.1,0,0.1-0.1,0.2-0.2
				c0,0,0.1-0.1,0.1-0.1c0,0,0.1-0.1,0.1-0.1c0.1-0.1,0.1-0.1,0.2-0.2c0.1-0.1,0.1-0.2,0.2-0.2c0.3-0.4,0.7-0.7,1-1
				c0.4-0.3,0.8-0.4,1.2-0.6c0.2-0.1,0.4-0.1,0.6-0.1c0.1,0,0.2,0,0.3,0c0.1,0,0.2,0,0.3,0c0.4,0,0.8,0,1.2,0.1
				c0.8,0.2,1.5,0.5,2.2,0.9c0.7,0.4,1.4,0.9,2,1.5c-0.7-0.4-1.4-0.7-2.1-0.9c-0.4-0.1-0.7-0.2-1.1-0.3c-0.4-0.1-0.7-0.1-1.1-0.2
				c-0.1,0-0.2,0-0.3,0c-0.1,0-0.2,0-0.3,0c-0.1,0-0.2,0-0.3,0c0,0-0.1,0-0.1,0c0,0-0.1,0-0.1,0c-0.2,0-0.4,0-0.5,0.1
				c-0.2,0-0.3,0.1-0.5,0.1c-0.7,0.2-1.3,0.7-1.8,1.3c-0.1,0.1-0.2,0.2-0.2,0.3c-0.1,0.1-0.2,0.2-0.3,0.3c0,0-0.1,0.1-0.1,0.1
				c0,0-0.1,0.1-0.1,0.1c-0.1,0.1-0.2,0.2-0.3,0.2c-0.4,0.3-0.8,0.4-1.2,0.5c-0.8,0.2-1.6,0.2-2.3,0c-0.8-0.1-1.5-0.4-2.2-0.7
				C897.1,495.1,896.4,494.7,895.7,494.2z"/>
			<path class="st5" d="M905.2,497.1c0.7,0.3,1.4,0.5,2.2,0.7c0.7,0.2,1.4,0.3,2.2,0.4c0.4,0,0.7,0,1.1,0c0.4,0,0.7-0.1,1-0.2
				c0.1,0,0.2,0,0.3-0.1c0.1,0,0.2-0.1,0.2-0.1c0.1,0,0.2-0.1,0.2-0.1c0.1,0,0.2-0.1,0.2-0.1c0.1,0,0.1-0.1,0.2-0.2
				c0,0,0.1-0.1,0.1-0.1c0,0,0.1-0.1,0.1-0.1c0.1-0.1,0.1-0.1,0.2-0.2c0.1-0.1,0.1-0.2,0.2-0.2c0.3-0.4,0.7-0.7,1.1-1
				c0.4-0.3,0.8-0.4,1.2-0.5c0.2-0.1,0.4-0.1,0.6-0.1c0.1,0,0.2,0,0.3,0c0.1,0,0.2,0,0.3,0c0.4,0,0.8,0.1,1.2,0.2
				c0.8,0.2,1.5,0.5,2.2,0.9c0.7,0.4,1.3,0.9,1.9,1.5c-0.7-0.4-1.4-0.7-2.1-1c-0.4-0.1-0.7-0.3-1.1-0.4c-0.4-0.1-0.7-0.2-1.1-0.2
				c-0.1,0-0.2,0-0.3,0c-0.1,0-0.2,0-0.3,0c-0.1,0-0.2,0-0.3,0c0,0-0.1,0-0.1,0c0,0-0.1,0-0.1,0c-0.2,0-0.4,0-0.5,0.1
				c-0.2,0-0.3,0.1-0.5,0.1c-0.7,0.2-1.3,0.6-1.8,1.3c-0.1,0.1-0.2,0.2-0.2,0.3c-0.1,0.1-0.2,0.2-0.3,0.3c0,0-0.1,0.1-0.1,0.1
				c0,0-0.1,0.1-0.1,0.1c-0.1,0.1-0.2,0.1-0.3,0.2c-0.4,0.2-0.8,0.4-1.2,0.5c-0.8,0.2-1.6,0.1-2.3,0c-0.7-0.2-1.5-0.4-2.2-0.8
				C906.6,498,905.9,497.6,905.2,497.1z"/>
			<path class="st5" d="M873,491.9c0.8,0,1.5-0.1,2.2-0.2c0.7-0.1,1.5-0.3,2.2-0.5c0.4-0.1,0.7-0.3,1-0.4c0.3-0.2,0.7-0.4,1-0.6
				c0.1-0.1,0.2-0.1,0.2-0.2c0.1-0.1,0.1-0.1,0.2-0.2c0.1-0.1,0.1-0.1,0.2-0.2c0.1-0.1,0.1-0.2,0.2-0.2c0.1-0.1,0.1-0.2,0.2-0.2
				c0,0,0.1-0.1,0.1-0.1c0,0,0-0.1,0.1-0.1c0-0.1,0.1-0.2,0.1-0.3c0-0.1,0.1-0.2,0.1-0.3c0.2-0.5,0.5-0.9,0.7-1.3
				c0.3-0.4,0.6-0.7,1-1c0.2-0.1,0.4-0.2,0.5-0.4c0.1,0,0.2-0.1,0.3-0.1c0.1,0,0.2-0.1,0.3-0.1c0.4-0.1,0.8-0.3,1.2-0.3
				c0.8-0.1,1.6-0.1,2.4,0c0.8,0.1,1.6,0.3,2.3,0.7c-0.8-0.1-1.5-0.1-2.3-0.1c-0.4,0-0.8,0-1.1,0.1c-0.4,0.1-0.7,0.1-1.1,0.2
				c-0.1,0-0.2,0.1-0.3,0.1c-0.1,0-0.2,0.1-0.3,0.1c-0.1,0-0.2,0.1-0.3,0.1c0,0-0.1,0-0.1,0.1c0,0-0.1,0-0.1,0.1
				c-0.2,0.1-0.3,0.2-0.5,0.3c-0.2,0.1-0.3,0.2-0.5,0.3c-0.6,0.5-1.1,1.1-1.4,1.9c-0.1,0.1-0.1,0.2-0.2,0.4
				c-0.1,0.1-0.1,0.2-0.2,0.4c0,0.1-0.1,0.1-0.1,0.2c0,0.1-0.1,0.1-0.1,0.2c-0.1,0.1-0.1,0.2-0.2,0.3c-0.3,0.4-0.6,0.7-1,0.9
				c-0.7,0.5-1.5,0.7-2.2,0.9c-0.8,0.1-1.5,0.2-2.3,0.2C874.5,492.2,873.8,492.1,873,491.9z"/>
			<path class="st5" d="M859.3,492.7c-0.7,0.4-1.4,0.7-2.1,1c-0.7,0.3-1.4,0.6-2.1,0.7c-0.4,0.1-0.7,0.1-1.1,0.2c-0.4,0-0.7,0-1.1,0
				c-0.1,0-0.2,0-0.3,0c-0.1,0-0.2,0-0.3-0.1c-0.1,0-0.2-0.1-0.3-0.1c-0.1,0-0.2-0.1-0.2-0.1c-0.1,0-0.2-0.1-0.2-0.1
				c0,0-0.1,0-0.1-0.1c0,0-0.1-0.1-0.1-0.1c-0.1-0.1-0.2-0.1-0.2-0.2c-0.1-0.1-0.2-0.1-0.2-0.2c-0.4-0.3-0.8-0.6-1.2-0.8
				c-0.4-0.2-0.8-0.3-1.2-0.3c-0.2,0-0.4,0-0.6,0c-0.1,0-0.2,0-0.3,0c-0.1,0-0.2,0-0.3,0c-0.4,0.1-0.8,0.2-1.1,0.3
				c-0.7,0.3-1.4,0.7-2,1.3c-0.6,0.5-1.2,1.1-1.7,1.8c0.6-0.5,1.3-0.9,1.9-1.3c0.3-0.2,0.7-0.4,1-0.5c0.3-0.1,0.7-0.3,1-0.4
				c0.1,0,0.2,0,0.3-0.1c0.1,0,0.2,0,0.3-0.1c0.1,0,0.2,0,0.3,0c0,0,0.1,0,0.1,0c0,0,0.1,0,0.1,0c0.2,0,0.4,0,0.5,0
				c0.2,0,0.4,0,0.5,0.1c0.7,0.1,1.4,0.4,2,1c0.1,0.1,0.2,0.2,0.3,0.2c0.1,0.1,0.2,0.2,0.3,0.2c0.1,0,0.1,0.1,0.2,0.1
				c0.1,0,0.1,0.1,0.2,0.1c0.1,0.1,0.2,0.1,0.3,0.2c0.4,0.2,0.8,0.3,1.2,0.3c0.8,0.1,1.6-0.1,2.3-0.4c0.7-0.3,1.4-0.6,2.1-1.1
				C858.1,493.8,858.7,493.3,859.3,492.7z"/>
			<path class="st5" d="M850.8,499.2c-0.7,0.4-1.3,0.8-2,1.1c-0.7,0.3-1.3,0.6-2,0.8c-0.3,0.1-0.7,0.2-1,0.2c-0.3,0-0.7,0.1-1,0
				c-0.1,0-0.2,0-0.3,0c-0.1,0-0.2,0-0.3,0c-0.1,0-0.2,0-0.3-0.1c-0.1,0-0.2-0.1-0.2-0.1c-0.1,0-0.2-0.1-0.2-0.1c0,0-0.1,0-0.1-0.1
				c0,0-0.1-0.1-0.1-0.1c-0.1-0.1-0.2-0.1-0.2-0.2c-0.1-0.1-0.2-0.1-0.2-0.2c-0.4-0.3-0.8-0.6-1.2-0.8c-0.4-0.2-0.8-0.3-1.2-0.3
				c-0.2,0-0.4,0-0.6,0c-0.1,0-0.2,0-0.3,0c-0.1,0-0.2,0-0.3,0.1c-0.4,0.1-0.7,0.2-1.1,0.4c-0.7,0.3-1.3,0.8-1.9,1.3
				c-0.6,0.5-1.1,1.1-1.6,1.9c0.6-0.5,1.2-1,1.8-1.3c0.3-0.2,0.6-0.4,1-0.5c0.3-0.2,0.7-0.3,1-0.4c0.1,0,0.2-0.1,0.3-0.1
				c0.1,0,0.2,0,0.3-0.1c0.1,0,0.2,0,0.3-0.1c0,0,0.1,0,0.1,0c0,0,0.1,0,0.1,0c0.2,0,0.3,0,0.5,0c0.2,0,0.3,0,0.5,0
				c0.7,0.1,1.4,0.4,2,0.9c0.1,0.1,0.2,0.2,0.3,0.2c0.1,0.1,0.2,0.1,0.3,0.2c0.1,0,0.1,0.1,0.2,0.1c0.1,0,0.1,0.1,0.2,0.1
				c0.1,0.1,0.2,0.1,0.3,0.1c0.4,0.2,0.8,0.2,1.2,0.3c0.8,0,1.5-0.2,2.2-0.5c0.7-0.3,1.4-0.7,2-1.2
				C849.6,500.3,850.2,499.8,850.8,499.2z"/>
			<path class="st5" d="M842.2,504c-0.6,0.4-1.3,0.8-1.9,1.1c-0.6,0.3-1.3,0.6-2,0.9c-0.3,0.1-0.7,0.2-1,0.3c-0.3,0.1-0.7,0.1-1,0.1
				c-0.1,0-0.2,0-0.3,0c-0.1,0-0.2,0-0.3,0c-0.1,0-0.2,0-0.3-0.1c-0.1,0-0.2-0.1-0.2-0.1c-0.1,0-0.2-0.1-0.2-0.1c0,0-0.1,0-0.1-0.1
				c0,0-0.1,0-0.1-0.1c-0.1,0-0.2-0.1-0.2-0.2c-0.1-0.1-0.2-0.1-0.2-0.2c-0.4-0.3-0.8-0.6-1.2-0.7c-0.4-0.2-0.8-0.2-1.2-0.3
				c-0.2,0-0.4,0-0.6,0c-0.1,0-0.2,0-0.3,0c-0.1,0-0.2,0-0.3,0.1c-0.4,0.1-0.7,0.2-1.1,0.4c-0.7,0.3-1.3,0.8-1.9,1.4
				c-0.6,0.6-1.1,1.2-1.5,1.9c0.6-0.5,1.1-1,1.7-1.4c0.3-0.2,0.6-0.4,0.9-0.6c0.3-0.2,0.6-0.3,1-0.4c0.1,0,0.2-0.1,0.2-0.1
				c0.1,0,0.2,0,0.3-0.1c0.1,0,0.2,0,0.3-0.1c0,0,0.1,0,0.1,0c0,0,0.1,0,0.1,0c0.2,0,0.3,0,0.5-0.1c0.2,0,0.3,0,0.5,0
				c0.7,0.1,1.4,0.3,2,0.9c0.1,0.1,0.2,0.1,0.3,0.2c0.1,0.1,0.2,0.1,0.3,0.2c0.1,0,0.1,0.1,0.2,0.1c0.1,0,0.1,0,0.2,0.1
				c0.1,0,0.2,0.1,0.3,0.1c0.4,0.2,0.8,0.2,1.2,0.2c0.8,0,1.5-0.2,2.2-0.5c0.7-0.3,1.3-0.7,1.9-1.2
				C841.2,505.2,841.7,504.7,842.2,504z"/>
			<path class="st5" d="M872.2,492c-0.7,0.1-1.5,0.2-2.2,0.3c-0.7,0.1-1.5,0.1-2.2,0c-0.4,0-0.7-0.1-1.1-0.2
				c-0.4-0.1-0.7-0.2-1.1-0.4c-0.1,0-0.2-0.1-0.3-0.1c-0.1,0-0.2-0.1-0.2-0.1c-0.1-0.1-0.2-0.1-0.2-0.2c-0.1-0.1-0.2-0.1-0.2-0.2
				c-0.1-0.1-0.1-0.1-0.2-0.2c0,0-0.1-0.1-0.1-0.1c0,0-0.1-0.1-0.1-0.1c-0.1-0.1-0.1-0.1-0.2-0.2c-0.1-0.1-0.1-0.2-0.2-0.3
				c-0.3-0.4-0.6-0.8-1-1.1c-0.4-0.3-0.8-0.6-1.2-0.7c-0.2-0.1-0.4-0.2-0.6-0.2c-0.1,0-0.2-0.1-0.3-0.1c-0.1,0-0.2,0-0.3-0.1
				c-0.4-0.1-0.8-0.1-1.2-0.1c-0.8,0-1.6,0.2-2.3,0.5c-0.7,0.3-1.4,0.7-2.1,1.2c0.7-0.3,1.5-0.5,2.2-0.6c0.4-0.1,0.7-0.1,1.1-0.1
				c0.4,0,0.7,0,1.1,0c0.1,0,0.2,0,0.3,0c0.1,0,0.2,0,0.3,0c0.1,0,0.2,0,0.3,0c0,0,0.1,0,0.1,0c0,0,0.1,0,0.1,0
				c0.2,0,0.4,0.1,0.5,0.2c0.2,0.1,0.4,0.1,0.5,0.2c0.7,0.3,1.3,0.9,1.8,1.6c0.1,0.1,0.2,0.2,0.2,0.3c0.1,0.1,0.2,0.2,0.3,0.3
				c0,0,0.1,0.1,0.1,0.1c0,0,0.1,0.1,0.1,0.1c0.1,0.1,0.2,0.2,0.3,0.2c0.4,0.3,0.8,0.5,1.2,0.7c0.8,0.3,1.6,0.4,2.4,0.4
				c0.8,0,1.5-0.1,2.3-0.3C870.8,492.6,871.5,492.4,872.2,492z"/>
		</g>
		<g>
			<path class="st5" d="M768.6,494c-0.5-2.5,0-4.8,1.4-6.4c-2.1,1.4-3.1,4.2-2.5,7.2c0.9,4.1,4.4,7.1,7.9,6.8c0.3,0,0.6-0.1,0.9-0.1
				C772.7,501.2,769.4,498.1,768.6,494z"/>
			<path class="st5" d="M781.8,493c-0.4-2.5-1.7-4.7-3.6-6.1c2.5,1,4.5,3.6,5,6.6c0.6,4.2-1.9,7.6-5.4,7.9c-0.3,0-0.6,0-0.9,0
				C780.1,500.6,782.3,497.1,781.8,493z"/>
			<path class="st5" d="M788.2,501.1c0.7,0.2,1.3,0.4,2,0.5c0.7,0.1,1.3,0.2,2,0.2c0.3,0,0.6,0,1,0c0.3,0,0.6-0.1,0.9-0.2
				c0.1,0,0.1-0.1,0.2-0.1c0.1,0,0.1-0.1,0.2-0.1c0.1,0,0.1-0.1,0.2-0.1c0.1,0,0.1-0.1,0.2-0.1c0.1,0,0.1-0.1,0.2-0.2
				c0,0,0.1-0.1,0.1-0.1c0,0,0.1-0.1,0.1-0.1c0.1-0.1,0.1-0.1,0.2-0.2c0.1-0.1,0.1-0.1,0.2-0.2c0.3-0.4,0.6-0.7,0.9-0.9
				c0.3-0.2,0.7-0.4,1-0.5c0.2-0.1,0.4-0.1,0.5-0.1c0.1,0,0.2,0,0.3,0c0.1,0,0.2,0,0.3,0c0.4,0,0.7,0,1.1,0.1c0.7,0.1,1.4,0.4,2,0.7
				c0.6,0.3,1.3,0.7,1.8,1.2c-0.6-0.3-1.3-0.5-1.9-0.7c-0.3-0.1-0.6-0.2-1-0.2c-0.3-0.1-0.7-0.1-1-0.1c-0.1,0-0.2,0-0.2,0
				c-0.1,0-0.2,0-0.2,0c-0.1,0-0.2,0-0.2,0c0,0-0.1,0-0.1,0c0,0-0.1,0-0.1,0c-0.2,0-0.3,0.1-0.5,0.1c-0.2,0-0.3,0.1-0.5,0.1
				c-0.6,0.2-1.1,0.6-1.5,1.2c-0.1,0.1-0.1,0.2-0.2,0.3c-0.1,0.1-0.1,0.2-0.2,0.2c0,0-0.1,0.1-0.1,0.1c0,0-0.1,0.1-0.1,0.1
				c-0.1,0.1-0.2,0.1-0.2,0.2c-0.3,0.2-0.7,0.4-1,0.5c-0.7,0.2-1.4,0.2-2.1,0.1c-0.7-0.1-1.3-0.3-2-0.5
				C789.5,501.8,788.8,501.5,788.2,501.1z"/>
			<path class="st5" d="M796.8,504.9c0.6,0.2,1.3,0.4,1.9,0.5c0.6,0.1,1.3,0.3,1.9,0.3c0.3,0,0.6,0,0.9,0c0.3,0,0.6-0.1,0.9-0.2
				c0.1,0,0.1,0,0.2-0.1c0.1,0,0.1-0.1,0.2-0.1c0.1,0,0.1-0.1,0.2-0.1c0.1,0,0.1-0.1,0.2-0.1c0.1,0,0.1-0.1,0.2-0.1
				c0,0,0.1-0.1,0.1-0.1c0,0,0.1-0.1,0.1-0.1c0.1-0.1,0.1-0.1,0.2-0.2c0.1-0.1,0.1-0.1,0.2-0.2c0.3-0.4,0.6-0.6,0.9-0.9
				c0.3-0.2,0.7-0.4,1-0.5c0.2-0.1,0.4-0.1,0.5-0.1c0.1,0,0.2,0,0.3,0c0.1,0,0.2,0,0.3,0c0.3,0,0.7,0,1,0.1c0.7,0.1,1.3,0.4,2,0.8
				c0.6,0.4,1.2,0.8,1.8,1.3c-0.6-0.3-1.2-0.6-1.9-0.8c-0.3-0.1-0.6-0.2-1-0.3c-0.3-0.1-0.6-0.1-1-0.2c-0.1,0-0.2,0-0.2,0
				c-0.1,0-0.2,0-0.2,0c-0.1,0-0.2,0-0.2,0c0,0-0.1,0-0.1,0c0,0-0.1,0-0.1,0c-0.2,0-0.3,0-0.5,0.1c-0.2,0-0.3,0.1-0.5,0.1
				c-0.6,0.2-1.1,0.6-1.6,1.2c-0.1,0.1-0.1,0.2-0.2,0.2c-0.1,0.1-0.1,0.2-0.2,0.2c0,0-0.1,0.1-0.1,0.1c0,0-0.1,0.1-0.1,0.1
				c-0.1,0.1-0.2,0.1-0.2,0.2c-0.3,0.2-0.7,0.4-1,0.5c-0.7,0.2-1.4,0.2-2,0c-0.7-0.1-1.3-0.3-1.9-0.6
				C798,505.7,797.4,505.4,796.8,504.9z"/>
			<path class="st5" d="M805.2,507.4c0.6,0.2,1.3,0.5,1.9,0.6c0.6,0.2,1.3,0.3,1.9,0.4c0.3,0,0.6,0,0.9,0c0.3,0,0.6-0.1,0.9-0.1
				c0.1,0,0.1,0,0.2-0.1c0.1,0,0.1-0.1,0.2-0.1c0.1,0,0.1-0.1,0.2-0.1c0.1,0,0.1-0.1,0.2-0.1c0.1,0,0.1-0.1,0.2-0.1
				c0,0,0.1,0,0.1-0.1c0,0,0.1-0.1,0.1-0.1c0.1-0.1,0.1-0.1,0.2-0.2c0.1-0.1,0.1-0.1,0.2-0.2c0.3-0.3,0.6-0.6,0.9-0.8
				c0.3-0.2,0.7-0.4,1-0.5c0.2,0,0.4-0.1,0.5-0.1c0.1,0,0.2,0,0.3,0c0.1,0,0.2,0,0.3,0c0.3,0,0.7,0.1,1,0.1c0.7,0.2,1.3,0.5,1.9,0.8
				c0.6,0.4,1.2,0.8,1.7,1.4c-0.6-0.3-1.2-0.6-1.8-0.9c-0.3-0.1-0.6-0.2-0.9-0.3c-0.3-0.1-0.6-0.1-0.9-0.2c-0.1,0-0.2,0-0.2,0
				c-0.1,0-0.2,0-0.2,0c-0.1,0-0.2,0-0.2,0c0,0-0.1,0-0.1,0c0,0-0.1,0-0.1,0c-0.2,0-0.3,0-0.5,0.1c-0.2,0-0.3,0.1-0.5,0.1
				c-0.6,0.2-1.2,0.6-1.6,1.1c-0.1,0.1-0.1,0.2-0.2,0.2c-0.1,0.1-0.2,0.2-0.2,0.2c0,0-0.1,0.1-0.1,0.1c0,0-0.1,0.1-0.1,0.1
				c-0.1,0.1-0.2,0.1-0.2,0.2c-0.3,0.2-0.7,0.3-1,0.4c-0.7,0.2-1.4,0.1-2,0c-0.7-0.1-1.3-0.4-1.9-0.7
				C806.3,508.2,805.7,507.9,805.2,507.4z"/>
			<path class="st5" d="M776.9,502.9c0.7,0,1.3-0.1,2-0.2c0.6-0.1,1.3-0.2,1.9-0.4c0.3-0.1,0.6-0.2,0.9-0.4c0.3-0.1,0.6-0.3,0.8-0.5
				c0.1-0.1,0.1-0.1,0.2-0.2c0.1-0.1,0.1-0.1,0.2-0.2c0.1-0.1,0.1-0.1,0.2-0.2c0.1-0.1,0.1-0.1,0.2-0.2c0.1-0.1,0.1-0.1,0.1-0.2
				c0,0,0-0.1,0.1-0.1c0,0,0-0.1,0.1-0.1c0-0.1,0.1-0.2,0.1-0.2c0-0.1,0.1-0.2,0.1-0.3c0.2-0.4,0.4-0.8,0.7-1.2
				c0.3-0.3,0.6-0.6,0.9-0.9c0.2-0.1,0.3-0.2,0.5-0.3c0.1,0,0.2-0.1,0.2-0.1c0.1,0,0.2-0.1,0.3-0.1c0.3-0.1,0.7-0.2,1-0.3
				c0.7-0.1,1.4-0.1,2.1,0c0.7,0.1,1.4,0.3,2,0.6c-0.7-0.1-1.4-0.1-2-0.1c-0.3,0-0.7,0-1,0.1c-0.3,0-0.6,0.1-1,0.2
				c-0.1,0-0.2,0-0.2,0.1c-0.1,0-0.2,0.1-0.2,0.1c-0.1,0-0.2,0.1-0.2,0.1c0,0-0.1,0-0.1,0c0,0-0.1,0-0.1,0.1
				c-0.1,0.1-0.3,0.2-0.4,0.2c-0.1,0.1-0.3,0.2-0.4,0.3c-0.5,0.4-1,1-1.2,1.7c0,0.1-0.1,0.2-0.1,0.3c0,0.1-0.1,0.2-0.2,0.3
				c0,0.1-0.1,0.1-0.1,0.2c0,0-0.1,0.1-0.1,0.1c-0.1,0.1-0.1,0.2-0.2,0.3c-0.3,0.3-0.6,0.6-0.9,0.8c-0.6,0.4-1.3,0.7-2,0.8
				c-0.7,0.1-1.3,0.2-2,0.1C778.3,503.2,777.6,503.1,776.9,502.9z"/>
			<path class="st5" d="M788.2,501.1c0.7,0.2,1.3,0.4,2,0.5c0.7,0.1,1.3,0.2,2,0.2c0.3,0,0.6,0,1,0c0.3,0,0.6-0.1,0.9-0.2
				c0.1,0,0.1-0.1,0.2-0.1c0.1,0,0.1-0.1,0.2-0.1c0.1,0,0.1-0.1,0.2-0.1c0.1,0,0.1-0.1,0.2-0.1c0.1,0,0.1-0.1,0.2-0.2
				c0,0,0.1-0.1,0.1-0.1c0,0,0.1-0.1,0.1-0.1c0.1-0.1,0.1-0.1,0.2-0.2c0.1-0.1,0.1-0.1,0.2-0.2c0.3-0.4,0.6-0.7,0.9-0.9
				c0.3-0.2,0.7-0.4,1-0.5c0.2-0.1,0.4-0.1,0.5-0.1c0.1,0,0.2,0,0.3,0c0.1,0,0.2,0,0.3,0c0.4,0,0.7,0,1.1,0.1c0.7,0.1,1.4,0.4,2,0.7
				c0.6,0.3,1.3,0.7,1.8,1.2c-0.6-0.3-1.3-0.5-1.9-0.7c-0.3-0.1-0.6-0.2-1-0.2c-0.3-0.1-0.7-0.1-1-0.1c-0.1,0-0.2,0-0.2,0
				c-0.1,0-0.2,0-0.2,0c-0.1,0-0.2,0-0.2,0c0,0-0.1,0-0.1,0c0,0-0.1,0-0.1,0c-0.2,0-0.3,0.1-0.5,0.1c-0.2,0-0.3,0.1-0.5,0.1
				c-0.6,0.2-1.1,0.6-1.5,1.2c-0.1,0.1-0.1,0.2-0.2,0.3c-0.1,0.1-0.1,0.2-0.2,0.2c0,0-0.1,0.1-0.1,0.1c0,0-0.1,0.1-0.1,0.1
				c-0.1,0.1-0.2,0.1-0.2,0.2c-0.3,0.2-0.7,0.4-1,0.5c-0.7,0.2-1.4,0.2-2.1,0.1c-0.7-0.1-1.3-0.3-2-0.5
				C789.5,501.8,788.8,501.5,788.2,501.1z"/>
			<path class="st5" d="M796.8,504.9c0.6,0.2,1.3,0.4,1.9,0.5c0.6,0.1,1.3,0.3,1.9,0.3c0.3,0,0.6,0,0.9,0c0.3,0,0.6-0.1,0.9-0.2
				c0.1,0,0.1,0,0.2-0.1c0.1,0,0.1-0.1,0.2-0.1c0.1,0,0.1-0.1,0.2-0.1c0.1,0,0.1-0.1,0.2-0.1c0.1,0,0.1-0.1,0.2-0.1
				c0,0,0.1-0.1,0.1-0.1c0,0,0.1-0.1,0.1-0.1c0.1-0.1,0.1-0.1,0.2-0.2c0.1-0.1,0.1-0.1,0.2-0.2c0.3-0.4,0.6-0.6,0.9-0.9
				c0.3-0.2,0.7-0.4,1-0.5c0.2-0.1,0.4-0.1,0.5-0.1c0.1,0,0.2,0,0.3,0c0.1,0,0.2,0,0.3,0c0.3,0,0.7,0,1,0.1c0.7,0.1,1.3,0.4,2,0.8
				c0.6,0.4,1.2,0.8,1.8,1.3c-0.6-0.3-1.2-0.6-1.9-0.8c-0.3-0.1-0.6-0.2-1-0.3c-0.3-0.1-0.6-0.1-1-0.2c-0.1,0-0.2,0-0.2,0
				c-0.1,0-0.2,0-0.2,0c-0.1,0-0.2,0-0.2,0c0,0-0.1,0-0.1,0c0,0-0.1,0-0.1,0c-0.2,0-0.3,0-0.5,0.1c-0.2,0-0.3,0.1-0.5,0.1
				c-0.6,0.2-1.1,0.6-1.6,1.2c-0.1,0.1-0.1,0.2-0.2,0.2c-0.1,0.1-0.1,0.2-0.2,0.2c0,0-0.1,0.1-0.1,0.1c0,0-0.1,0.1-0.1,0.1
				c-0.1,0.1-0.2,0.1-0.2,0.2c-0.3,0.2-0.7,0.4-1,0.5c-0.7,0.2-1.4,0.2-2,0c-0.7-0.1-1.3-0.3-1.9-0.6
				C798,505.7,797.4,505.4,796.8,504.9z"/>
			<path class="st5" d="M805.2,507.4c0.6,0.2,1.3,0.5,1.9,0.6c0.6,0.2,1.3,0.3,1.9,0.4c0.3,0,0.6,0,0.9,0c0.3,0,0.6-0.1,0.9-0.1
				c0.1,0,0.1,0,0.2-0.1c0.1,0,0.1-0.1,0.2-0.1c0.1,0,0.1-0.1,0.2-0.1c0.1,0,0.1-0.1,0.2-0.1c0.1,0,0.1-0.1,0.2-0.1
				c0,0,0.1,0,0.1-0.1c0,0,0.1-0.1,0.1-0.1c0.1-0.1,0.1-0.1,0.2-0.2c0.1-0.1,0.1-0.1,0.2-0.2c0.3-0.3,0.6-0.6,0.9-0.8
				c0.3-0.2,0.7-0.4,1-0.5c0.2,0,0.4-0.1,0.5-0.1c0.1,0,0.2,0,0.3,0c0.1,0,0.2,0,0.3,0c0.3,0,0.7,0.1,1,0.1c0.7,0.2,1.3,0.5,1.9,0.8
				c0.6,0.4,1.2,0.8,1.7,1.4c-0.6-0.3-1.2-0.6-1.8-0.9c-0.3-0.1-0.6-0.2-0.9-0.3c-0.3-0.1-0.6-0.1-0.9-0.2c-0.1,0-0.2,0-0.2,0
				c-0.1,0-0.2,0-0.2,0c-0.1,0-0.2,0-0.2,0c0,0-0.1,0-0.1,0c0,0-0.1,0-0.1,0c-0.2,0-0.3,0-0.5,0.1c-0.2,0-0.3,0.1-0.5,0.1
				c-0.6,0.2-1.2,0.6-1.6,1.1c-0.1,0.1-0.1,0.2-0.2,0.2c-0.1,0.1-0.2,0.2-0.2,0.2c0,0-0.1,0.1-0.1,0.1c0,0-0.1,0.1-0.1,0.1
				c-0.1,0.1-0.2,0.1-0.2,0.2c-0.3,0.2-0.7,0.3-1,0.4c-0.7,0.2-1.4,0.1-2,0c-0.7-0.1-1.3-0.4-1.9-0.7
				C806.3,508.2,805.7,507.9,805.2,507.4z"/>
			<path class="st5" d="M776.9,502.9c0.7,0,1.3-0.1,2-0.2c0.6-0.1,1.3-0.2,1.9-0.4c0.3-0.1,0.6-0.2,0.9-0.4c0.3-0.1,0.6-0.3,0.8-0.5
				c0.1-0.1,0.1-0.1,0.2-0.2c0.1-0.1,0.1-0.1,0.2-0.2c0.1-0.1,0.1-0.1,0.2-0.2c0.1-0.1,0.1-0.1,0.2-0.2c0.1-0.1,0.1-0.1,0.1-0.2
				c0,0,0-0.1,0.1-0.1c0,0,0-0.1,0.1-0.1c0-0.1,0.1-0.2,0.1-0.2c0-0.1,0.1-0.2,0.1-0.3c0.2-0.4,0.4-0.8,0.7-1.2
				c0.3-0.3,0.6-0.6,0.9-0.9c0.2-0.1,0.3-0.2,0.5-0.3c0.1,0,0.2-0.1,0.2-0.1c0.1,0,0.2-0.1,0.3-0.1c0.3-0.1,0.7-0.2,1-0.3
				c0.7-0.1,1.4-0.1,2.1,0c0.7,0.1,1.4,0.3,2,0.6c-0.7-0.1-1.4-0.1-2-0.1c-0.3,0-0.7,0-1,0.1c-0.3,0-0.6,0.1-1,0.2
				c-0.1,0-0.2,0-0.2,0.1c-0.1,0-0.2,0.1-0.2,0.1c-0.1,0-0.2,0.1-0.2,0.1c0,0-0.1,0-0.1,0c0,0-0.1,0-0.1,0.1
				c-0.1,0.1-0.3,0.2-0.4,0.2c-0.1,0.1-0.3,0.2-0.4,0.3c-0.5,0.4-1,1-1.2,1.7c0,0.1-0.1,0.2-0.1,0.3c0,0.1-0.1,0.2-0.2,0.3
				c0,0.1-0.1,0.1-0.1,0.2c0,0-0.1,0.1-0.1,0.1c-0.1,0.1-0.1,0.2-0.2,0.3c-0.3,0.3-0.6,0.6-0.9,0.8c-0.6,0.4-1.3,0.7-2,0.8
				c-0.7,0.1-1.3,0.2-2,0.1C778.3,503.2,777.6,503.1,776.9,502.9z"/>
			<path class="st5" d="M764.9,503.6c-0.6,0.3-1.2,0.6-1.8,0.9c-0.6,0.3-1.2,0.5-1.8,0.6c-0.3,0.1-0.6,0.1-0.9,0.2
				c-0.3,0-0.6,0-0.9,0c-0.1,0-0.2,0-0.2,0c-0.1,0-0.2,0-0.2-0.1c-0.1,0-0.1,0-0.2-0.1c-0.1,0-0.1-0.1-0.2-0.1
				c-0.1,0-0.1-0.1-0.2-0.1c0,0-0.1,0-0.1-0.1c0,0-0.1,0-0.1-0.1c-0.1,0-0.1-0.1-0.2-0.2c-0.1-0.1-0.1-0.1-0.2-0.2
				c-0.3-0.3-0.7-0.5-1-0.7c-0.4-0.2-0.7-0.3-1.1-0.3c-0.2,0-0.4,0-0.5,0c-0.1,0-0.2,0-0.3,0c-0.1,0-0.2,0-0.3,0
				c-0.3,0.1-0.7,0.2-1,0.3c-0.6,0.3-1.2,0.6-1.8,1.1c-0.5,0.5-1,1-1.5,1.6c0.5-0.4,1.1-0.8,1.7-1.1c0.3-0.2,0.6-0.3,0.9-0.4
				c0.3-0.1,0.6-0.2,0.9-0.3c0.1,0,0.2,0,0.2-0.1c0.1,0,0.2,0,0.2,0c0.1,0,0.2,0,0.2,0c0,0,0.1,0,0.1,0c0,0,0.1,0,0.1,0
				c0.2,0,0.3,0,0.5,0c0.2,0,0.3,0,0.5,0c0.6,0.1,1.2,0.4,1.7,0.9c0.1,0.1,0.2,0.1,0.2,0.2c0.1,0.1,0.2,0.1,0.3,0.2
				c0,0,0.1,0.1,0.1,0.1c0,0,0.1,0,0.1,0.1c0.1,0,0.2,0.1,0.3,0.1c0.4,0.2,0.7,0.2,1.1,0.3c0.7,0,1.4-0.1,2-0.3
				c0.6-0.2,1.2-0.6,1.8-1C763.8,504.6,764.4,504.2,764.9,503.6z"/>
			<path class="st5" d="M757.4,509.3c-0.6,0.3-1.1,0.7-1.7,0.9c-0.6,0.3-1.2,0.5-1.8,0.7c-0.3,0.1-0.6,0.1-0.9,0.2
				c-0.3,0-0.6,0-0.9,0c-0.1,0-0.2,0-0.2,0c-0.1,0-0.1,0-0.2,0c-0.1,0-0.1,0-0.2-0.1c-0.1,0-0.1-0.1-0.2-0.1c-0.1,0-0.1-0.1-0.2-0.1
				c0,0-0.1,0-0.1-0.1c0,0-0.1,0-0.1-0.1c-0.1,0-0.1-0.1-0.2-0.1c-0.1-0.1-0.1-0.1-0.2-0.2c-0.3-0.3-0.7-0.5-1-0.7
				c-0.4-0.2-0.7-0.2-1.1-0.3c-0.2,0-0.4,0-0.5,0c-0.1,0-0.2,0-0.3,0c-0.1,0-0.2,0-0.3,0c-0.3,0.1-0.7,0.2-1,0.3
				c-0.6,0.3-1.2,0.7-1.7,1.2c-0.5,0.5-1,1-1.4,1.6c0.5-0.4,1-0.8,1.6-1.2c0.3-0.2,0.6-0.3,0.8-0.5c0.3-0.1,0.6-0.3,0.9-0.4
				c0.1,0,0.1,0,0.2-0.1c0.1,0,0.1,0,0.2-0.1c0.1,0,0.2,0,0.2,0c0,0,0.1,0,0.1,0c0,0,0.1,0,0.1,0c0.2,0,0.3,0,0.5,0
				c0.2,0,0.3,0,0.5,0c0.6,0.1,1.2,0.3,1.7,0.8c0.1,0.1,0.2,0.1,0.2,0.2c0.1,0.1,0.2,0.1,0.3,0.2c0,0,0.1,0.1,0.1,0.1
				c0,0,0.1,0,0.1,0.1c0.1,0,0.2,0.1,0.3,0.1c0.4,0.1,0.7,0.2,1.1,0.2c0.7,0,1.3-0.1,2-0.4c0.6-0.3,1.2-0.6,1.7-1
				C756.4,510.3,756.9,509.8,757.4,509.3z"/>
			<path class="st5" d="M750,513.5c-0.6,0.4-1.1,0.7-1.7,1c-0.6,0.3-1.1,0.6-1.7,0.8c-0.3,0.1-0.6,0.2-0.9,0.2
				c-0.3,0-0.6,0.1-0.9,0.1c-0.1,0-0.1,0-0.2,0c-0.1,0-0.1,0-0.2,0c-0.1,0-0.1,0-0.2-0.1c-0.1,0-0.1-0.1-0.2-0.1
				c-0.1,0-0.1-0.1-0.2-0.1c0,0-0.1,0-0.1-0.1c0,0-0.1,0-0.1-0.1c-0.1,0-0.1-0.1-0.2-0.1c-0.1-0.1-0.1-0.1-0.2-0.2
				c-0.3-0.3-0.7-0.5-1-0.6c-0.4-0.1-0.7-0.2-1.1-0.2c-0.2,0-0.3,0-0.5,0c-0.1,0-0.2,0-0.3,0c-0.1,0-0.2,0-0.2,0.1
				c-0.3,0.1-0.6,0.2-0.9,0.4c-0.6,0.3-1.1,0.7-1.6,1.2c-0.5,0.5-0.9,1-1.3,1.7c0.5-0.5,1-0.9,1.5-1.2c0.3-0.2,0.5-0.3,0.8-0.5
				c0.3-0.1,0.6-0.3,0.8-0.4c0.1,0,0.1-0.1,0.2-0.1c0.1,0,0.1,0,0.2-0.1c0.1,0,0.1,0,0.2-0.1c0,0,0.1,0,0.1,0c0,0,0.1,0,0.1,0
				c0.1,0,0.3,0,0.4,0c0.2,0,0.3,0,0.5,0c0.6,0.1,1.2,0.3,1.7,0.8c0.1,0.1,0.2,0.1,0.2,0.2c0.1,0.1,0.2,0.1,0.3,0.2
				c0,0,0.1,0.1,0.1,0.1c0,0,0.1,0,0.1,0.1c0.1,0,0.2,0.1,0.3,0.1c0.4,0.1,0.7,0.2,1.1,0.2c0.7,0,1.3-0.2,1.9-0.5
				c0.6-0.3,1.1-0.6,1.7-1.1C749,514.6,749.5,514.1,750,513.5z"/>
			<path class="st5" d="M776.2,503c-0.7,0.1-1.3,0.2-2,0.2c-0.6,0-1.3,0.1-1.9,0c-0.3,0-0.6-0.1-1-0.2c-0.3-0.1-0.6-0.2-0.9-0.3
				c-0.1,0-0.1-0.1-0.2-0.1c-0.1,0-0.1-0.1-0.2-0.1c-0.1,0-0.1-0.1-0.2-0.1c-0.1,0-0.1-0.1-0.2-0.2c-0.1-0.1-0.1-0.1-0.2-0.2
				c0,0-0.1-0.1-0.1-0.1c0,0-0.1-0.1-0.1-0.1c-0.1-0.1-0.1-0.1-0.2-0.2c-0.1-0.1-0.1-0.2-0.2-0.2c-0.3-0.4-0.6-0.7-0.9-1
				c-0.3-0.3-0.7-0.5-1-0.6c-0.2-0.1-0.4-0.1-0.5-0.2c-0.1,0-0.2,0-0.3-0.1c-0.1,0-0.2,0-0.3,0c-0.4-0.1-0.7-0.1-1.1,0
				c-0.7,0-1.4,0.2-2,0.5c-0.6,0.3-1.3,0.6-1.8,1c0.6-0.2,1.3-0.4,1.9-0.5c0.3-0.1,0.6-0.1,1-0.1c0.3,0,0.7,0,1,0c0.1,0,0.2,0,0.2,0
				c0.1,0,0.2,0,0.2,0c0.1,0,0.2,0,0.2,0c0,0,0.1,0,0.1,0c0,0,0.1,0,0.1,0c0.2,0,0.3,0.1,0.5,0.1c0.2,0.1,0.3,0.1,0.5,0.2
				c0.6,0.3,1.1,0.8,1.6,1.4c0.1,0.1,0.1,0.2,0.2,0.3c0.1,0.1,0.1,0.2,0.2,0.3c0,0,0.1,0.1,0.1,0.1c0,0,0.1,0.1,0.1,0.1
				c0.1,0.1,0.2,0.2,0.2,0.2c0.3,0.3,0.7,0.5,1,0.6c0.7,0.3,1.4,0.4,2.1,0.3c0.7,0,1.3-0.1,2-0.3C775,503.5,775.6,503.3,776.2,503z"
				/>
		</g>
	</g>
	<polygon class="st6" points="1394.2,675 1349.7,675 1349.7,377.1 1389.5,349.2 	"/>
</g>
</svg>
