<?xml version="1.0" encoding="utf-8"?>
<!-- Generator: Adobe Illustrator 22.0.1, SVG Export Plug-In . SVG Version: 6.00 Build 0)  -->
<svg version="1.1" id="Capa_1" xmlns="http://www.w3.org/2000/svg" xmlns:xlink="http://www.w3.org/1999/xlink" x="0px" y="0px"
	 viewBox="0 0 1366 768" style="enable-background:new 0 0 1366 768;" xml:space="preserve">
<style type="text/css">
	.st0{fill-rule:evenodd;clip-rule:evenodd;fill:#300827;}
	.st1{fill-rule:evenodd;clip-rule:evenodd;fill:#C9292C;}
	.st2{fill:#C9292C;}
</style>
<g>
	<g>
		<path class="st0" d="M550.7,304.3c-3-1.1-5.7-2.7-8-4.8c-1.4-1.3-2.5-2.7-3.4-4.1c-0.9-1.5-1.6-2.9-2.1-4.4
			c-0.5-1.5-0.9-3-1.1-4.5c-0.2-1.5-0.3-3-0.3-4.4c0-1,0.1-2.1,0.3-3.4c0.2-1.3,0.5-2.7,1-4.1c0.5-1.4,1.1-2.9,2-4.4
			c0.8-1.5,1.9-2.9,3.2-4.2c0.8-0.9,1.8-1.7,2.9-2.5c1.1-0.8,2.4-1.5,3.8-2c1.4-0.5,3-1,4.8-1.3c1.8-0.3,3.8-0.5,6-0.5
			c1.2,0,2.5,0,4,0.1c1.5,0.1,3,0.3,4.4,0.6c1.1,0.2,2.1,0.4,3.1,0.5c0.9,0.2,1.9,0.3,2.8,0.4c0.3,0,0.5,0.1,0.6,0.2
			c0.1,0.1,0.1,0.2,0.1,0.4c0,0.2,0,0.6-0.1,1c-0.1,0.5-0.1,1.2-0.2,2.3c0,0.5-0.1,1-0.1,1.6c0,0.6,0,1.2,0,1.8c0,0.6,0,1.1,0,1.6
			c0,0.5,0,0.8,0,1.1c0,0.8-0.2,1.2-0.5,1.2c-0.3,0-0.5-0.4-0.5-1.2c0-1.1-0.2-2.3-0.6-3.4c-0.4-1.1-1-2-1.8-2.7
			c-1-0.9-2.5-1.7-4.6-2.4c-2.1-0.7-4.4-1-6.9-1c-1.9,0-3.6,0.1-5,0.4c-1.4,0.3-2.7,0.6-3.7,1c-1.1,0.4-2,0.9-2.7,1.4
			c-0.7,0.5-1.3,1-1.8,1.5c-2.1,2.1-3.5,4.4-4.2,7c-0.7,2.6-1,5.4-1,8.4c0,2.8,0.5,5.5,1.5,8.1c1,2.6,2.4,4.9,4.3,6.9
			c1.8,2,4,3.6,6.6,4.8c2.6,1.2,5.4,1.8,8.5,1.8c2.2,0,4.1-0.2,5.8-0.6c1.7-0.4,3.1-1.2,4.2-2.4c0.6-0.7,1.1-1.5,1.5-2.6
			c0.4-1,0.6-1.8,0.7-2.4c0.1-0.6,0.3-0.9,0.6-0.9c0.2,0,0.3,0.1,0.3,0.3c0.1,0.2,0.1,0.4,0.1,0.6c0,0.1,0,0.5-0.1,1.1
			c-0.1,0.6-0.2,1.3-0.3,2.1c-0.1,0.8-0.3,1.6-0.4,2.4c-0.2,0.8-0.3,1.5-0.5,2c-0.2,0.6-0.4,0.9-0.5,1.1c-0.1,0.2-0.5,0.4-1,0.6
			c-0.6,0.2-1.3,0.4-2.1,0.6c-0.8,0.2-1.7,0.3-2.6,0.4c-0.9,0.1-1.9,0.2-2.9,0.2c-1,0.1-1.9,0.1-2.9,0.1
			C557.4,305.9,553.7,305.3,550.7,304.3"/>
		<path class="st0" d="M582,271.7c0-1.5,0-2.8,0-3.8c0-1,0-1.8,0-2.3c0-0.6,0-1.1,0-1.4c0-0.4,0-0.7-0.1-1c-0.1-0.7-0.2-1.2-0.4-1.5
			c-0.2-0.3-0.6-0.6-1.3-0.7c-0.2-0.1-0.4-0.1-0.6-0.1c-0.3,0-0.5,0-0.7,0c-0.2,0-0.3-0.1-0.3-0.2c0-0.2,0.2-0.3,0.6-0.3
			c0.4,0,0.9,0,1.4,0c0.5,0,0.9,0,1.4,0c0.4,0,0.8,0,1.1,0c0.3,0,0.5,0,0.6,0c0.1,0,0.3,0,0.6,0c0.3,0,0.7,0,1,0c0.4,0,0.8,0,1.2,0
			c0.4,0,0.7,0,1,0c0.4,0,0.6,0.1,0.6,0.3c0,0.2-0.1,0.2-0.3,0.2l-0.4,0c-0.1,0-0.3,0-0.6,0.1c-0.5,0.1-0.9,0.3-1.1,0.7
			c-0.2,0.4-0.3,0.9-0.4,1.6c0,0.3,0,0.7-0.1,1c0,0.4,0,0.8,0,1.4c0,0.6,0,1.4,0,2.3c0,1,0,2.2,0,3.8v5.6c0,1.4,0.1,2.7,0.2,3.7
			c0.1,1,0.3,2,0.6,2.7c0.3,0.8,0.6,1.4,0.9,2c0.4,0.5,0.7,1,1.2,1.4c1,0.9,1.9,1.5,2.8,1.8c0.9,0.3,1.9,0.4,3.1,0.4
			c1.2,0,2.3-0.3,3.4-0.8c1.1-0.5,2-1.2,2.7-2.1c0.9-1.1,1.5-2.5,1.8-4.2c0.3-1.6,0.4-3.5,0.4-5.6v-5c0-1.5,0-2.8,0-3.8
			c0-1,0-1.8,0-2.3c0-0.6,0-1.1,0-1.4c0-0.4,0-0.7-0.1-1c0-0.7-0.2-1.2-0.4-1.5c-0.2-0.3-0.6-0.6-1.3-0.7c-0.2-0.1-0.4-0.1-0.6-0.1
			c-0.3,0-0.5,0-0.7,0c-0.2,0-0.3-0.1-0.3-0.2c0-0.2,0.2-0.3,0.6-0.3c0.4,0,0.9,0,1.4,0c0.5,0,0.9,0,1.3,0c0.4,0,0.7,0,1,0
			c0.3,0,0.4,0,0.5,0c0.1,0,0.2,0,0.5,0c0.2,0,0.5,0,0.8,0c0.3,0,0.7,0,1,0c0.3,0,0.7,0,1,0c0.4,0,0.6,0.1,0.6,0.3
			c0,0.2-0.1,0.2-0.3,0.2l-0.4,0c-0.1,0-0.3,0-0.6,0.1c-0.5,0.1-0.9,0.4-1.1,0.7c-0.2,0.3-0.3,0.9-0.4,1.5c0,0.3,0,0.7-0.1,1
			c0,0.4,0,0.8,0,1.4c0,0.6,0,1.4,0,2.3c0,1,0,2.2,0,3.8l0,4.2c0,1.1,0,2.2-0.1,3.3c-0.1,1.1-0.2,2.2-0.5,3.2c-0.3,1-0.6,2-1.1,2.9
			c-0.5,0.9-1.1,1.7-1.9,2.4c-0.7,0.6-1.4,1.1-2.1,1.5c-0.7,0.4-1.4,0.7-2.1,0.9c-0.7,0.2-1.3,0.3-2,0.4c-0.6,0.1-1.3,0.1-1.8,0.1
			c-0.3,0-0.8,0-1.4-0.1c-0.6,0-1.3-0.2-2-0.3c-0.8-0.2-1.5-0.5-2.3-0.9c-0.8-0.4-1.5-0.9-2.2-1.6c-0.5-0.5-0.9-1-1.3-1.6
			c-0.4-0.6-0.8-1.3-1.1-2.1c-0.3-0.8-0.6-1.8-0.7-2.9c-0.2-1.1-0.3-2.4-0.3-3.8V271.7z"/>
		<path class="st0" d="M616.5,271.7c0-1.5,0-2.8,0-3.8c0-1,0-1.8,0-2.3c0-0.6,0-1.1,0-1.4c0-0.4,0-0.7-0.1-1
			c-0.1-0.7-0.2-1.2-0.4-1.5c-0.2-0.3-0.6-0.6-1.3-0.7c-0.2-0.1-0.4-0.1-0.6-0.1c-0.3,0-0.5,0-0.7,0c-0.2,0-0.3-0.1-0.3-0.2
			c0-0.2,0.2-0.3,0.6-0.3c0.4,0,0.9,0,1.4,0c0.5,0,1,0,1.4,0l1.6,0.1c0.1,0,0.5,0,1.4,0c0.9,0,1.8,0,2.8,0c1.1,0,2.1,0,3,0
			c0.9,0,1.5,0,1.7,0c0.7-0.1,1.3-0.1,1.7-0.2l0.3-0.1l0.3-0.1c0.1,0,0.2,0.1,0.2,0.4c0,0.1,0,0.3-0.1,0.6c-0.1,0.3-0.1,0.7-0.2,1.3
			c0,0.1,0,0.3,0,0.5c0,0.2,0,0.5-0.1,0.8c0,0.3,0,0.5-0.1,0.8c0,0.3,0,0.4-0.1,0.5l-0.1,0.3l-0.2,0.1c-0.2,0-0.3-0.2-0.3-0.5
			c0-0.1,0-0.3,0-0.6c0-0.3-0.1-0.6-0.2-0.8c-0.1-0.3-0.4-0.6-0.7-0.8c-0.3-0.2-1-0.4-2.1-0.5c-0.2,0-0.5,0-1-0.1
			c-0.5,0-1.1,0-1.7,0c-0.6,0-1.2,0-1.7,0c-0.5,0-0.8,0-0.9,0c-0.2,0-0.2,0.1-0.2,0.4c0,0,0,17.4,0,18.1c0,0.7,0,1.4,0,2.1
			c0,0.7,0,1.4,0,2c0,0.6,0,1,0,1.2c0,0.7,0.1,1.2,0.2,1.7c0.1,0.4,0.3,0.8,0.7,1c0.3,0.2,0.8,0.4,1.3,0.5c0.6,0.1,1.3,0.1,2.3,0.1
			c0.5,0,1.1,0,1.9-0.1c0.7,0,1.3-0.2,1.9-0.4c0.5-0.2,0.9-0.5,1.2-1c0.3-0.4,0.5-1.1,0.6-1.9c0.1-0.4,0.2-0.6,0.3-0.6l0.2,0.2
			l0,0.4c0,0.1,0,0.3-0.1,0.6c0,0.3-0.1,0.7-0.1,1.1c-0.1,0.4-0.1,0.8-0.2,1.2c-0.1,0.4-0.1,0.7-0.2,0.9c-0.1,0.3-0.2,0.5-0.2,0.6
			l-0.4,0.3c-0.2,0.1-0.3,0.1-0.6,0.1c-0.2,0-0.5,0-0.9,0c-1.5,0-2.7,0-3.8,0c-1.1,0-2-0.1-2.7-0.1c-0.8-0.1-1.4-0.1-1.9-0.1
			c-0.5,0-0.9,0-1.2,0c-0.1,0-0.2,0-0.5,0c-0.3,0-0.6,0-1,0c-0.4,0-0.8,0-1.2,0c-0.4,0-0.8,0-1,0c-0.4,0-0.6-0.1-0.6-0.3
			c0-0.2,0.1-0.2,0.3-0.2c0.2,0,0.4,0,0.6,0c0.2,0,0.4-0.1,0.6-0.1c0.4-0.1,0.7-0.3,0.8-0.7c0.1-0.4,0.3-0.9,0.3-1.5
			c0.1-0.8,0.2-2,0.2-3.5c0-1.5,0-3.2,0-5.1L616.5,271.7z"/>
		<path class="st0" d="M741.7,278.7c0,1.9,0,3.6,0,5.1c0,1.5,0.1,2.7,0.2,3.5c0,0.6,0.2,1.1,0.3,1.5c0.2,0.4,0.6,0.6,1.2,0.7
			c0.3,0.1,0.6,0.1,1,0.1c0.3,0,0.6,0,0.8,0c0.2,0,0.3,0.1,0.3,0.2c0,0.2-0.2,0.3-0.6,0.3c-0.5,0-1.1,0-1.6,0c-0.5,0-1,0-1.5,0
			c-0.5,0-0.8,0-1.1,0c-0.3,0-0.5,0-0.5,0c-0.1,0-0.2,0-0.5,0c-0.3,0-0.6,0-1,0c-0.4,0-0.8,0-1.2,0c-0.4,0-0.8,0-1,0
			c-0.4,0-0.6-0.1-0.6-0.3c0-0.2,0.1-0.2,0.3-0.2c0.2,0,0.4,0,0.6,0c0.2,0,0.4-0.1,0.6-0.1c0.4-0.1,0.7-0.3,0.8-0.7
			c0.1-0.4,0.3-0.9,0.3-1.5c0.1-0.8,0.2-2,0.2-3.5c0-1.5,0-3.2,0-5.1l0-7c0-1.5,0-2.8,0-3.8c0-1,0-1.8,0-2.3c0-0.6,0-1.1,0-1.4
			c0-0.4,0-0.7-0.1-1c-0.1-1.3-0.5-2-1.3-2.2c-0.2-0.1-0.4-0.1-0.7-0.1c-0.2,0-0.4,0-0.5,0c-0.2,0-0.3-0.1-0.3-0.2
			c0-0.2,0.2-0.3,0.6-0.3c0.3,0,0.7,0,1.1,0c0.4,0,0.9,0,1.2,0c0.4,0,0.7,0,1,0c0.3,0,0.5,0,0.5,0c0.1,0,0.2,0,0.5,0
			c0.3,0,0.6,0,1,0c0.4,0,0.8,0,1.2,0c0.4,0,0.8,0,1,0c0.4,0,0.6,0.1,0.6,0.3c0,0.2-0.1,0.2-0.3,0.2l-0.4,0c-0.1,0-0.3,0-0.6,0.1
			c-0.5,0.1-0.9,0.3-1.1,0.7c-0.2,0.4-0.3,0.9-0.4,1.6c0,0.3,0,0.7-0.1,1c0,0.4,0,0.8,0,1.4c0,0.6,0,1.4,0,2.3c0,1,0,2.2,0,3.8
			L741.7,278.7z"/>
		<path class="st0" d="M782.5,281.2c0,1.6,0,3,0,4.1c0,1.2-0.1,2.2-0.1,3.1c-0.1,0.9-0.2,1.7-0.4,2.4c-0.2,0.7-0.4,1.4-0.7,2.1
			c-0.4,1-1.1,2-2,3c-0.9,1-2.1,2-3.7,3.1c-0.3,0.2-0.5,0.4-0.8,0.6c-0.3,0.2-0.5,0.3-0.7,0.4l-0.3,0.1c-0.2,0-0.3-0.1-0.3-0.2
			l0.1-0.3c0.1-0.1,0.2-0.2,0.4-0.3c0.2-0.1,0.5-0.3,0.7-0.5c0.2-0.2,0.5-0.4,0.6-0.6c0.6-0.7,1.2-1.3,1.6-2
			c0.5-0.7,0.9-1.5,1.2-2.6c0.3-1.1,0.5-2.4,0.7-4c0.2-1.6,0.2-3.7,0.2-6.3v-11.5c0-1.5,0-2.8,0-3.8c0-1,0-1.8,0-2.3
			c0-0.6,0-1.1,0-1.4c0-0.4,0-0.7-0.1-1c0-0.7-0.2-1.2-0.4-1.5c-0.2-0.3-0.6-0.6-1.3-0.7c-0.2-0.1-0.4-0.1-0.6-0.1
			c-0.3,0-0.5,0-0.7,0c-0.2,0-0.3-0.1-0.3-0.2c0-0.2,0.2-0.3,0.6-0.3c0.4,0,0.9,0,1.4,0c0.5,0,1,0,1.4,0c0.4,0,0.8,0,1.1,0
			c0.3,0,0.5,0,0.5,0c0.1,0,0.2,0,0.5,0c0.3,0,0.6,0,1,0c0.4,0,0.8,0,1.2,0c0.4,0,0.8,0,1,0c0.4,0,0.6,0.1,0.6,0.3
			c0,0.2-0.1,0.2-0.3,0.2l-0.4,0c-0.1,0-0.3,0-0.6,0.1c-0.5,0.1-0.9,0.3-1.1,0.7c-0.2,0.4-0.3,0.9-0.4,1.6c0,0.3,0,0.7-0.1,1
			c0,0.4,0,0.8,0,1.4c0,0.6,0,1.4,0,2.3c0,1,0,2.2,0,3.8V281.2z"/>
		<path class="st0" d="M789.2,277.6c0.4-1.8,1-3.5,1.8-5.2c0.8-1.7,1.8-3.3,3-4.9c1.2-1.5,2.6-2.9,4.3-4.1c1.7-1.2,3.6-2.1,5.7-2.8
			c2.1-0.7,4.5-1,7.2-1c3.2,0,6.2,0.5,8.9,1.5c2.8,1,5.1,2.5,7.1,4.4c2,1.9,3.6,4.2,4.7,6.9c1.1,2.7,1.7,5.8,1.7,9.2
			c0,3.3-0.5,6.4-1.6,9.3c-1.1,2.9-2.6,5.4-4.6,7.6c-2,2.2-4.4,3.9-7.2,5.2c-2.8,1.3-6,1.9-9.4,1.9c-3.9,0-7.3-0.7-10.1-2.1
			c-2.8-1.4-5.1-3.2-6.9-5.4c-1.8-2.2-3.1-4.7-4-7.4c-0.8-2.7-1.3-5.4-1.3-8.1C788.6,281,788.8,279.3,789.2,277.6 M795.4,290.2
			c0.9,2.8,2.2,5.1,3.9,7.1c1.7,2,3.6,3.5,5.8,4.5c2.2,1.1,4.6,1.6,7.2,1.6c1.3,0,2.8-0.2,4.6-0.7c1.8-0.5,3.5-1.5,5.2-2.9
			c1.7-1.4,3.1-3.5,4.2-6.1c1.2-2.6,1.7-6.1,1.7-10.3c0-3.5-0.5-6.6-1.5-9.3c-1-2.7-2.3-5-3.9-6.8c-1.6-1.8-3.5-3.2-5.6-4.1
			c-2.1-0.9-4.3-1.4-6.5-1.4c-2.4,0-4.6,0.4-6.7,1.2c-2,0.8-3.8,2-5.3,3.6c-1.5,1.6-2.7,3.6-3.5,6c-0.8,2.4-1.3,5.2-1.3,8.4
			C794,284.3,794.5,287.4,795.4,290.2z"/>
		<path class="st0" d="M656.4,282c-1.3-1.7-2.8-3.6-4.4-5.7c1.7-1.6,2.4-3,3.1-4.5c0.7-1.5,1.1-3,1.1-4.5c0-0.7-0.1-1.3-0.3-1.9
			c-0.2-0.6-0.4-1.1-0.7-1.5c-0.3-0.4-0.6-0.8-0.9-1.2c-0.3-0.3-0.6-0.6-0.8-0.8c-1-0.8-2.2-1.2-3.4-1.4c-1.2-0.2-2.5-0.3-3.7-0.3
			c-0.3,0-0.7,0-1.2,0c-0.5,0-0.9,0-1.4,0c-0.5,0-0.9,0-1.3,0c-0.4,0-0.6,0-0.7,0c-0.1,0-0.2,0-0.5,0c-0.3,0-0.7,0-1.1,0
			c-0.4,0-0.9,0-1.4,0c-0.5,0-1,0-1.4,0c-0.4,0-0.6,0.1-0.6,0.3c0,0.2,0.1,0.2,0.3,0.2c0.2,0,0.4,0,0.7,0c0.3,0,0.5,0,0.6,0.1
			c0.6,0.1,1.1,0.4,1.3,0.7c0.2,0.3,0.3,0.9,0.4,1.5c0,0.3,0,0.7,0.1,1c0,0.4,0,0.8,0,1.4c0,0.6,0,1.4,0,2.3c0,1,0,2.2,0,3.8v7
			c0,1.9,0,3.6,0,5.1c0,1.5-0.1,2.7-0.2,3.5c-0.1,0.6-0.2,1.1-0.3,1.5c-0.1,0.4-0.4,0.6-0.8,0.7c-0.2,0.1-0.4,0.1-0.6,0.1
			c-0.2,0-0.4,0-0.6,0c-0.2,0-0.3,0.1-0.3,0.2c0,0.2,0.2,0.3,0.6,0.3c0.3,0,0.6,0,1,0c0.4,0,0.8,0,1.2,0c0.4,0,0.9,0,1.4-0.1
			c0.1,0,0.2,0,0.5,0c0.3,0,0.7,0,1.1,0c0.5,0,1,0,1.5,0c0.5,0,1.1,0,1.6,0c0.4,0,0.6-0.1,0.6-0.3c0-0.2-0.1-0.2-0.3-0.2
			c-0.2,0-0.5,0-0.8,0c-0.3,0-0.7-0.1-0.9-0.1c-0.6-0.1-1-0.3-1.2-0.7c-0.2-0.4-0.3-0.9-0.3-1.5c-0.1-0.8-0.2-2-0.2-3.5
			c0-1.5,0-3.2,0-5.1v-1c0-0.2,0.1-0.3,0.3-0.3l4.8,0.1c0.2,0,0.3,0.1,0.5,0.2c0.2,0.3,0.4,0.6,0.8,1.1c0.3,0.4,0.7,0.9,1.1,1.4
			c0.4,0.5,0.8,1.1,1.2,1.7c0.4,0.6,0.8,1.2,1.2,1.7c0.2,0.3,0.4,0.6,0.6,0.8c22.9,30.2,49.4,10.2,49.4,10.2
			C675.3,308.8,656.4,282,656.4,282 M650.5,275.5c-0.4,0.3-0.9,0.5-1.4,0.6c-0.5,0.1-1,0.1-1.5,0.1c-0.9,0-1.7-0.1-2.5-0.2
			c-0.8-0.1-1.3-0.3-1.6-0.5c-0.2-0.1-0.3-0.3-0.3-0.5v-13c0-0.2,0.1-0.4,0.3-0.5c0.2-0.1,0.5-0.1,1-0.2c0.5-0.1,1-0.1,1.6-0.1
			c2.1,0,3.7,0.7,4.9,2.1c1.2,1.4,1.8,3.3,1.8,5.8c0,1.5-0.2,2.8-0.7,3.8C651.8,274.3,651.2,275,650.5,275.5z"/>
		<path class="st0" d="M732,260.2c-0.3,0-0.6,0-0.9,0c-0.3,0-0.6,0-0.9,0c-0.3,0-0.6,0-0.8,0c-0.2,0-0.4,0-0.4,0
			c-0.2,0-0.7,0-1.5-0.1c-0.8,0-1.5-0.1-2.3-0.1c-0.6,0-0.9,0.1-0.9,0.3c0,0.2,0.1,0.2,0.4,0.2c0.2,0,0.4,0,0.7,0
			c0.3,0,0.5,0.1,0.8,0.1c0.2,0.1,0.3,0.2,0.4,0.4c0.1,0.2,0.1,0.3,0.1,0.5c0,0.2,0,0.4-0.1,0.7c-0.1,0.3-0.1,0.5-0.3,0.8
			c-0.2,0.5-0.4,1.2-0.8,2.3c-0.3,1-0.8,2.2-1.3,3.5c-0.5,1.3-1,2.8-1.6,4.3c-0.6,1.5-1.2,3-1.7,4.5c-0.6,1.5-1.1,2.9-1.6,4.1
			c-0.5,1.3-1,2.4-1.3,3.3l-4.2-11.3c0,0-19.3-49.1-62.5-21c0,0,39.7-22,60.1,24.2l0,0l4.3,11.1c0.4,1,0.6,1.6,0.8,1.9
			c0.2,0.3,0.4,0.5,0.6,0.5c0.2,0,0.4-0.2,0.5-0.6c0.2-0.4,0.5-1.2,1.1-2.4c0.4-1,1.1-2.5,1.9-4.6c0.9-2.1,1.9-4.5,3.1-7.5
			c0.5-1.2,1-2.4,1.5-3.6c0.5-1.2,0.9-2.2,1.3-3.2c0.4-1,0.7-1.8,1-2.5c0.3-0.7,0.5-1.2,0.6-1.5c0.3-0.7,0.5-1.2,0.7-1.7
			c0.2-0.4,0.4-0.8,0.6-1.1c0.2-0.3,0.3-0.5,0.5-0.6l0.4-0.3c0.4-0.2,0.7-0.4,1.1-0.4c0.4,0,0.6-0.1,0.8-0.1c0.3,0,0.5-0.1,0.5-0.3
			C732.7,260.3,732.4,260.2,732,260.2"/>
		<path class="st0" d="M620.5,277c-0.6-0.3-1-0.5-1.3-0.6c-0.4-0.2-0.7-0.4-1.1-0.6c-0.4-0.2-0.9-0.3-1.5-0.3
			c-0.3,0-0.6,0.1-0.9,0.2c-0.3,0.1-0.5,0.3-0.7,0.4c-0.2,0.2-0.3,0.3-0.5,0.5l-0.3,0.4c-0.2,0.2-0.4,0.4-0.5,0.4l-0.2-0.2l0.1-0.3
			l0.2-0.3c0.1-0.2,0.3-0.5,0.6-0.8c0.2-0.3,0.5-0.6,0.8-0.9c0.3-0.3,0.6-0.6,1-0.8c0.3-0.2,0.7-0.3,1-0.3c0.5,0,1,0.1,1.5,0.4
			c0.6,0.3,1.1,0.5,1.7,0.8c0.3,0.1,0.7,0.3,1.1,0.4c0.5,0.2,0.8,0.2,1.1,0.2c0.4,0,0.7-0.1,1-0.2c0.3-0.1,0.5-0.2,0.7-0.4
			c0.2-0.1,0.3-0.3,0.5-0.4l0.2-0.3c0.2-0.3,0.3-0.4,0.5-0.4c0.2,0,0.3,0.1,0.3,0.2c0,0.1-0.1,0.3-0.2,0.5c-0.1,0.2-0.2,0.4-0.5,0.7
			c-0.2,0.3-0.5,0.6-0.8,0.9c-0.3,0.3-0.6,0.6-1,0.8c-0.3,0.2-0.7,0.3-1,0.3C621.7,277.4,621.1,277.2,620.5,277"/>
		<path class="st0" d="M755.5,271.7c0-1.5,0-2.8,0-3.8c0-1,0-1.8,0-2.3c0-0.6,0-1.1,0-1.4c0-0.4,0-0.7-0.1-1
			c-0.1-0.7-0.2-1.2-0.4-1.5c-0.2-0.3-0.6-0.6-1.3-0.7c-0.2-0.1-0.4-0.1-0.6-0.1c-0.3,0-0.5,0-0.7,0c-0.2,0-0.3-0.1-0.3-0.2
			c0-0.2,0.2-0.3,0.6-0.3c0.4,0,0.9,0,1.4,0c0.5,0,1,0,1.4,0l1.6,0.1c0.1,0,0.5,0,1.4,0c0.9,0,1.8,0,2.8,0c1.1,0,2.1,0,3,0
			c0.9,0,1.5,0,1.7,0c0.8-0.1,1.3-0.1,1.7-0.2l0.3-0.1l0.3-0.1c0.1,0,0.2,0.1,0.2,0.4c0,0.1,0,0.3-0.1,0.6c-0.1,0.3-0.1,0.7-0.2,1.3
			c0,0.1,0,0.3,0,0.5c0,0.2,0,0.5-0.1,0.8c0,0.3,0,0.5-0.1,0.8c0,0.3,0,0.4-0.1,0.5l-0.1,0.3l-0.2,0.1c-0.2,0-0.3-0.2-0.3-0.5
			c0-0.1,0-0.3,0-0.6c0-0.3-0.1-0.6-0.2-0.8c-0.1-0.3-0.4-0.6-0.7-0.8c-0.3-0.2-1-0.4-2.1-0.5c-0.2,0-0.5,0-1-0.1
			c-0.5,0-1.1,0-1.7,0c-0.6,0-1.2,0-1.7,0c-0.5,0-0.8,0-0.9,0c-0.2,0-0.2,0.1-0.2,0.4c0,0,0,17.4,0,18.1c0,0.7,0,1.4,0,2.1
			c0,0.7,0,1.4,0,2c0,0.6,0,1,0,1.2c0,0.7,0.1,1.2,0.2,1.7c0.1,0.4,0.3,0.8,0.7,1c0.3,0.2,0.8,0.4,1.3,0.5c0.6,0.1,1.3,0.1,2.3,0.1
			c0.5,0,1.1,0,1.9-0.1c0.7,0,1.3-0.2,1.9-0.4c0.5-0.2,0.9-0.5,1.2-1c0.3-0.4,0.5-1.1,0.6-1.9c0.1-0.4,0.2-0.6,0.4-0.6l0.2,0.2
			l0,0.4c0,0.1,0,0.3-0.1,0.6c0,0.3-0.1,0.7-0.1,1.1c-0.1,0.4-0.1,0.8-0.2,1.2c-0.1,0.4-0.1,0.7-0.2,0.9c-0.1,0.3-0.2,0.5-0.2,0.6
			l-0.4,0.3c-0.2,0.1-0.4,0.1-0.6,0.1c-0.2,0-0.5,0-0.9,0c-1.5,0-2.8,0-3.8,0c-1.1,0-2-0.1-2.7-0.1c-0.8-0.1-1.4-0.1-1.9-0.1
			c-0.5,0-0.9,0-1.2,0c-0.1,0-0.2,0-0.5,0c-0.3,0-0.6,0-1,0c-0.4,0-0.8,0-1.2,0c-0.4,0-0.8,0-1,0c-0.4,0-0.6-0.1-0.6-0.3
			c0-0.2,0.1-0.2,0.3-0.2c0.2,0,0.4,0,0.6,0c0.2,0,0.4-0.1,0.6-0.1c0.4-0.1,0.7-0.3,0.8-0.7c0.1-0.4,0.3-0.9,0.3-1.5
			c0.1-0.8,0.2-2,0.2-3.5c0-1.5,0-3.2,0-5.1V271.7z"/>
		<path class="st0" d="M759.6,277c-0.6-0.3-1-0.5-1.3-0.6c-0.4-0.2-0.7-0.4-1.1-0.6c-0.4-0.2-0.9-0.3-1.5-0.3
			c-0.3,0-0.6,0.1-0.9,0.2c-0.3,0.1-0.5,0.3-0.7,0.4c-0.2,0.2-0.3,0.3-0.5,0.5l-0.3,0.4c-0.2,0.2-0.4,0.4-0.5,0.4l-0.2-0.2l0.1-0.3
			l0.2-0.3c0.1-0.2,0.3-0.5,0.6-0.8c0.2-0.3,0.5-0.6,0.8-0.9c0.3-0.3,0.6-0.6,1-0.8c0.3-0.2,0.7-0.3,1-0.3c0.5,0,1,0.1,1.5,0.4
			c0.6,0.3,1.1,0.5,1.7,0.8c0.3,0.1,0.7,0.3,1.1,0.4c0.5,0.2,0.8,0.2,1.1,0.2c0.4,0,0.7-0.1,1-0.2c0.3-0.1,0.5-0.2,0.7-0.4
			c0.2-0.1,0.3-0.3,0.5-0.4l0.2-0.3c0.2-0.3,0.3-0.4,0.5-0.4c0.2,0,0.3,0.1,0.3,0.2c0,0.1-0.1,0.3-0.2,0.5c-0.1,0.2-0.2,0.4-0.5,0.7
			c-0.2,0.3-0.5,0.6-0.8,0.9c-0.3,0.3-0.6,0.6-1,0.8c-0.3,0.2-0.7,0.3-1,0.3C760.8,277.4,760.1,277.2,759.6,277"/>
		<path class="st0" d="M577.2,327.8c-0.5-0.1-0.9-0.2-1.4-0.4l-0.3-0.2c0-0.1,0-0.3,0-0.6c0-0.5,0-1,0-1.4c0-0.4,0-0.7,0.1-0.9
			c0-0.2,0.1-0.3,0.2-0.3l0.1,0.2l0,0.4l0.1,0.4c0.1,0.4,0.2,0.7,0.4,1c0.2,0.3,0.4,0.5,0.7,0.7c0.3,0.2,0.6,0.3,0.9,0.4
			c0.3,0.1,0.7,0.1,1,0.1c0.5,0,0.9-0.1,1.3-0.3c0.4-0.2,0.7-0.4,0.9-0.6c0.2-0.3,0.4-0.6,0.5-0.9c0.1-0.3,0.2-0.7,0.2-1
			c0-0.4,0-0.7-0.1-1c-0.1-0.3-0.2-0.6-0.4-0.9c-0.2-0.3-0.4-0.6-0.7-0.9c-0.3-0.3-0.7-0.7-1.1-1l-0.9-0.8c-0.6-0.5-1-0.9-1.4-1.3
			c-0.4-0.4-0.6-0.8-0.8-1.2c-0.2-0.4-0.3-0.7-0.4-1.1c-0.1-0.4-0.1-0.7-0.1-1.1c0-0.6,0.1-1.1,0.3-1.6c0.2-0.5,0.5-0.9,0.9-1.2
			c0.4-0.3,0.8-0.6,1.4-0.8c0.5-0.2,1.1-0.3,1.8-0.3c0.4,0,0.8,0,1.1,0.1c0.3,0,0.6,0.1,0.9,0.2c0.2,0,0.3,0.1,0.5,0.1l0.3,0
			l0.2,0.1c0,0.1,0,0.3,0,0.6c0,0.4,0,0.9,0,1.6c0,0.3,0,0.5-0.1,0.5l-0.1-0.1l0-0.2c0-0.1,0-0.3-0.1-0.5c0-0.2-0.1-0.4-0.2-0.5
			l-0.2-0.3c-0.1-0.1-0.2-0.3-0.4-0.4c-0.2-0.1-0.5-0.2-0.8-0.3c-0.3-0.1-0.7-0.1-1.2-0.1c-0.7,0-1.3,0.2-1.8,0.7
			c-0.5,0.4-0.7,1-0.7,1.8c0,0.3,0,0.6,0.1,0.8c0.1,0.3,0.2,0.5,0.4,0.8c0.2,0.3,0.5,0.6,0.8,0.9c0.3,0.3,0.7,0.7,1.2,1.1l0.6,0.5
			c0.6,0.5,1.1,1,1.5,1.4c0.4,0.4,0.7,0.8,0.9,1.2c0.2,0.4,0.4,0.8,0.5,1.2c0.1,0.4,0.1,0.8,0.1,1.2c0,0.2,0,0.5-0.1,0.8
			c0,0.3-0.1,0.6-0.3,0.9c-0.1,0.3-0.3,0.7-0.5,1c-0.2,0.3-0.5,0.6-0.9,0.9c-0.4,0.3-0.9,0.6-1.5,0.7c-0.5,0.1-1.1,0.2-1.7,0.2
			C578.2,327.9,577.7,327.9,577.2,327.8"/>
		<path class="st0" d="M604.3,324.7c0,0.4,0,0.8,0.1,1.1c0,0.3,0.1,0.5,0.2,0.7c0.1,0.2,0.1,0.3,0.2,0.4l0.4,0.2
			c0.2,0.1,0.4,0.1,0.6,0.1c0.2,0,0.4,0,0.4,0l0.2,0.1c0,0.1-0.1,0.2-0.4,0.2c-0.6,0-1.1,0-1.5,0c-0.4,0-0.6,0-0.7,0
			c-0.1,0-0.3,0-0.7,0c-0.4,0-0.8,0-1.3,0c-0.2,0-0.3-0.1-0.3-0.2l0.2-0.1c0.1,0,0.2,0,0.4,0l0.5-0.1c0.3-0.1,0.4-0.3,0.5-0.7
			c0.1-0.4,0.1-1.1,0.1-2l0-12.2c0-0.4,0-0.7,0-0.8l0.2-0.2c0.1,0,0.2,0.1,0.3,0.3c0.1,0.2,0.3,0.3,0.4,0.4c0.1,0.1,0.3,0.4,0.7,0.8
			c0.4,0.4,0.9,1,1.5,1.7c0.6,0.7,1.3,1.4,2.1,2.3c0.8,0.8,1.5,1.7,2.4,2.6c0.5,0.6,1,1.1,1.6,1.7c0.5,0.6,1,1.1,1.5,1.6
			c0.5,0.5,0.9,1,1.2,1.4c0.4,0.4,0.6,0.7,0.8,0.8l-0.2-10.9c0-0.7-0.1-1.2-0.2-1.5c-0.1-0.3-0.3-0.5-0.6-0.6
			c-0.2,0-0.4-0.1-0.6-0.1c-0.2,0-0.3,0-0.4,0l-0.2-0.1c0-0.1,0.1-0.1,0.4-0.1c0.2,0,0.5,0,0.7,0c0.2,0,0.4,0,0.6,0
			c0.2,0,0.4,0,0.5,0l0.3,0c0.1,0,0.3,0,0.6,0c0.3,0,0.7,0,1.1,0c0.3,0,0.4,0,0.4,0.1l-0.2,0.1l-0.2,0l-0.3,0.1
			c-0.3,0.1-0.6,0.2-0.6,0.5c-0.1,0.3-0.1,0.7-0.1,1.4l0,12.5c0,0.4,0,0.6,0,0.8c0,0.2,0,0.3,0,0.4l-0.1,0.2l-0.1,0l-0.2-0.1
			l-0.3-0.2c-0.1-0.1-0.3-0.2-0.4-0.4c-0.2-0.2-0.4-0.4-0.7-0.7c-0.1-0.1-0.3-0.3-0.6-0.7c-0.4-0.4-0.8-0.8-1.3-1.4
			c-0.5-0.6-1.1-1.2-1.7-1.8c-0.6-0.7-1.2-1.3-1.8-1.9c-0.6-0.7-1.2-1.3-1.8-2c-0.6-0.6-1.1-1.2-1.6-1.8c-0.5-0.6-0.9-1-1.3-1.4
			c-0.4-0.4-0.6-0.7-0.8-0.9L604.3,324.7z"/>
		<path class="st0" d="M633.5,322.2c0-0.4,0-0.8,0-1c0-0.3-0.1-0.5-0.1-0.6l-0.3-0.3c-0.1-0.1-0.3-0.1-0.5-0.2l-0.3-0.1l-0.4,0
			l-0.2-0.1c0-0.1,0.1-0.2,0.3-0.2c0.2,0,0.5,0,0.8,0c0.3,0,0.5,0,0.7,0c0.2,0,0.4,0,0.6,0l0.3,0l0.3,0c0.2,0,0.3,0,0.6,0
			c0.2,0,0.4,0,0.6,0c0.2,0,0.4,0,0.6,0c0.2,0,0.3,0.1,0.3,0.2l-0.2,0.1l-0.2,0l-0.3,0.1c-0.3,0.1-0.5,0.2-0.6,0.4
			c-0.1,0.2-0.2,0.5-0.2,0.8c0,0.3,0,0.7,0,1c0,0.3,0,0.7,0,1.2v2.4c0,0.2,0,0.4,0,0.6l0,0.3l-0.1,0.2L635,327
			c-0.3,0.2-0.7,0.3-1.1,0.5c-0.4,0.1-0.8,0.2-1.2,0.3c-0.4,0.1-0.8,0.1-1.2,0.2c-0.4,0-0.7,0-1,0c-0.4,0-0.9,0-1.4-0.1
			c-0.5,0-1.1-0.1-1.7-0.3c-0.6-0.2-1.3-0.4-1.9-0.7c-0.6-0.3-1.2-0.7-1.8-1.2c-0.3-0.3-0.6-0.6-0.9-1.1c-0.3-0.4-0.6-0.9-0.8-1.4
			c-0.2-0.5-0.4-1.1-0.6-1.7c-0.1-0.6-0.2-1.3-0.2-1.9c0-0.9,0.1-1.6,0.3-2.4c0.2-0.7,0.4-1.4,0.8-2c0.3-0.6,0.7-1.1,1.1-1.6
			c0.4-0.5,0.9-0.8,1.3-1.1c0.5-0.3,1-0.5,1.4-0.7c0.5-0.2,1-0.3,1.4-0.4c0.5-0.1,0.9-0.2,1.4-0.2c0.5,0,0.9,0,1.3,0
			c0.3,0,0.7,0,1,0c0.3,0,0.7,0.1,0.9,0.1c0.3,0,0.5,0.1,0.8,0.1c0.2,0,0.4,0.1,0.5,0.1c0.2,0.1,0.5,0.1,0.8,0.1
			c0.3,0,0.6,0.1,0.9,0.1l0.2,0.1l0,0.1l0,0.3c0,0.1,0,0.3-0.1,0.5c0,0.2,0,0.5,0,0.9c0,0.4,0,0.8,0,1.3c0,0.2,0,0.3,0,0.4l-0.2,0.1
			c-0.1,0-0.1-0.1-0.1-0.3c0-0.2,0-0.4-0.1-0.6c-0.1-0.3-0.2-0.5-0.3-0.8c-0.1-0.2-0.3-0.4-0.6-0.6c-0.3-0.2-0.6-0.4-1-0.6
			c-0.4-0.2-0.9-0.3-1.4-0.4c-0.5-0.1-1.2-0.2-1.8-0.2c-0.3,0-0.7,0-1,0c-0.4,0-0.7,0.1-1.1,0.2c-0.4,0.1-0.8,0.2-1.2,0.4
			c-0.4,0.2-0.8,0.4-1.2,0.8c-0.6,0.5-1.1,1.2-1.5,2.2c-0.4,0.9-0.6,2-0.6,3.3c0,0.8,0.1,1.5,0.2,2.1c0.2,0.6,0.4,1.2,0.6,1.7
			c0.2,0.5,0.5,0.9,0.7,1.3c0.3,0.4,0.5,0.6,0.7,0.8c0.8,0.8,1.7,1.4,2.6,1.8c0.9,0.3,1.9,0.5,2.8,0.5c0.2,0,0.4,0,0.6,0
			c0.2,0,0.4,0,0.7-0.1c0.2,0,0.4-0.1,0.6-0.1c0.2-0.1,0.4-0.1,0.5-0.2c0.3-0.2,0.4-0.4,0.4-0.8V322.2z"/>
		<path class="st0" d="M641.6,317.7c0-0.8,0-1.5,0-2c0-0.5,0-0.9,0-1.3c0-0.3,0-0.6,0-0.8c0-0.2,0-0.4,0-0.5c0-0.4-0.1-0.6-0.2-0.8
			c-0.1-0.2-0.3-0.3-0.7-0.4l-0.3-0.1l-0.4,0l-0.2-0.1c0-0.1,0.1-0.2,0.3-0.2c0.2,0,0.5,0,0.8,0c0.3,0,0.5,0,0.7,0
			c0.2,0,0.4,0,0.6,0l0.3,0c0.1,0,0.2,0,0.4,0c0.2,0,0.4,0,0.7,0c0.3,0,0.5,0,0.8,0c0.3,0,0.5,0,0.6,0c0.7,0,1.3,0.1,2,0.2
			c0.7,0.1,1.3,0.4,1.8,0.8c0.1,0.1,0.3,0.2,0.4,0.4c0.2,0.2,0.3,0.4,0.5,0.6c0.1,0.2,0.3,0.5,0.4,0.8c0.1,0.3,0.2,0.7,0.2,1
			c0,0.8-0.2,1.6-0.6,2.4c-0.4,0.8-1,1.6-2,2.5c0.9,1.1,1.7,2.2,2.4,3.1c0.7,0.9,1.4,1.7,2,2.4c0.6,0.6,1.1,1,1.5,1.2
			c0.4,0.2,0.8,0.3,1,0.3c0.2,0,0.4,0,0.5,0.1l0.3,0l0.2,0.1l-0.1,0.1c-0.1,0-0.2,0-0.4,0h-1.5c-0.6,0-1,0-1.4-0.1
			c-0.3-0.1-0.6-0.2-0.9-0.3c-0.4-0.2-0.9-0.6-1.3-1.1c-0.4-0.5-0.9-1.2-1.5-2c-0.2-0.3-0.4-0.6-0.7-0.9c-0.2-0.3-0.4-0.6-0.6-0.9
			c-0.2-0.3-0.4-0.5-0.6-0.8c-0.2-0.2-0.3-0.4-0.4-0.6l-0.3-0.1l-2.6,0l-0.1,0.2v0.5c0,1,0,1.9,0,2.7c0,0.8,0,1.4,0.1,1.9
			c0,0.3,0.1,0.6,0.2,0.8c0.1,0.2,0.3,0.3,0.6,0.4c0.2,0,0.3,0.1,0.5,0.1c0.2,0,0.3,0,0.4,0l0.2,0.1c0,0.1-0.1,0.2-0.3,0.2
			c-0.3,0-0.6,0-0.9,0c-0.3,0-0.6,0-0.8,0c-0.2,0-0.4,0-0.6,0l-0.3,0c-0.3,0-0.5,0-0.8,0c-0.2,0-0.4,0-0.6,0c-0.2,0-0.4,0-0.6,0
			c-0.2,0-0.3-0.1-0.3-0.2l0.2-0.1l0.3,0l0.3-0.1c0.2,0,0.4-0.2,0.4-0.4c0.1-0.2,0.1-0.5,0.2-0.8c0.1-0.5,0.1-1.1,0.1-1.9
			c0-0.8,0-1.7,0-2.7L641.6,317.7z M643.3,319.5l0.1,0.3c0.2,0.1,0.4,0.2,0.9,0.2c0.4,0.1,0.9,0.1,1.3,0.1c0.2,0,0.5,0,0.8-0.1
			c0.3,0,0.5-0.2,0.8-0.3c0.4-0.3,0.7-0.7,0.9-1.2c0.2-0.6,0.4-1.2,0.4-2.1c0-1.3-0.3-2.4-1-3.1c-0.6-0.8-1.5-1.1-2.7-1.1
			c-0.3,0-0.6,0-0.9,0c-0.2,0-0.4,0.1-0.5,0.1l-0.2,0.3V319.5z"/>
		<path class="st0" d="M676.9,317.7c0-0.8,0-1.5,0-2c0-0.5,0-0.9,0-1.3c0-0.3,0-0.6,0-0.8c0-0.2,0-0.4,0-0.5c0-0.4-0.1-0.6-0.2-0.8
			c-0.1-0.2-0.3-0.3-0.7-0.4l-0.3-0.1l-0.4,0l-0.2-0.1c0-0.1,0.1-0.2,0.3-0.2c0.2,0,0.5,0,0.8,0c0.3,0,0.5,0,0.7,0
			c0.2,0,0.4,0,0.6,0l0.3,0c0.1,0,0.2,0,0.4,0c0.2,0,0.4,0,0.7,0c0.3,0,0.5,0,0.8,0c0.3,0,0.6,0,0.9,0c0.5,0,1.1,0,1.8,0
			c0.7,0,1.4,0.1,2.2,0.2c0.8,0.1,1.5,0.4,2.3,0.7c0.8,0.3,1.4,0.8,2.1,1.5c0.3,0.3,0.5,0.6,0.8,1c0.2,0.4,0.5,0.8,0.6,1.2
			c0.2,0.4,0.3,0.9,0.5,1.5c0.1,0.5,0.2,1.1,0.2,1.8c0,0.7-0.1,1.3-0.2,1.9c-0.1,0.6-0.3,1.2-0.5,1.7c-0.2,0.5-0.5,1-0.7,1.4
			c-0.3,0.4-0.6,0.8-0.8,1.1c-0.2,0.2-0.5,0.5-0.9,0.8c-0.4,0.3-0.8,0.6-1.3,0.8c-0.5,0.2-1.1,0.5-1.8,0.6c-0.7,0.2-1.5,0.3-2.4,0.3
			c-0.4,0-0.9,0-1.5,0c-0.5,0-1-0.1-1.5-0.1c-0.5,0-0.9-0.1-1.2-0.1c-0.3,0-0.5,0-0.6,0h-0.3c-0.2,0-0.3,0-0.6,0c-0.2,0-0.4,0-0.7,0
			c-0.2,0-0.4,0-0.6,0c-0.2,0-0.3-0.1-0.3-0.2l0.2-0.1l0.3,0l0.3-0.1c0.2,0,0.3-0.2,0.4-0.4c0.1-0.2,0.1-0.5,0.2-0.8
			c0.1-0.5,0.1-1.1,0.1-1.9c0-0.8,0-1.7,0-2.7L676.9,317.7z M678.7,320c0,0.6,0,1.1,0,1.6c0,0.5,0,1,0,1.4c0,0.4,0,0.8,0,1
			c0,0.3,0,0.5,0,0.6l0,0.4l0,0.5l0.1,0.4l0.1,0.3l0.3,0.3c0.1,0.1,0.4,0.2,0.6,0.3c0.3,0.1,0.6,0.2,1,0.2c0.4,0,0.9,0.1,1.6,0.1
			c1,0,1.9-0.2,2.7-0.5c0.9-0.3,1.6-0.8,2.2-1.5c0.3-0.3,0.5-0.6,0.7-1c0.2-0.4,0.4-0.8,0.5-1.3c0.1-0.4,0.3-0.9,0.3-1.4
			c0.1-0.5,0.1-1,0.1-1.5c0-0.7-0.1-1.3-0.2-1.9c-0.1-0.6-0.3-1.1-0.5-1.5c-0.2-0.5-0.4-0.8-0.7-1.2c-0.2-0.3-0.5-0.6-0.7-0.8
			c-0.5-0.5-1-1-1.5-1.3c-0.5-0.3-1.1-0.6-1.7-0.7c-0.6-0.2-1.2-0.3-1.8-0.3c-0.6-0.1-1.2-0.1-1.8-0.1l-0.4,0l-0.4,0l-0.4,0.1
			l-0.2,0.1c-0.2,0.1-0.3,0.2-0.3,0.4c0,0.2,0,0.4,0,0.8c0,0.3,0,0.7,0,1.2c0,0.4,0,0.8,0,1.3c0,0.5,0,0.9,0,1.3V320z"/>
		<path class="st0" d="M664.8,324.9l-0.1-0.1c-0.1,0-0.1,0.1-0.2,0.3c-0.1,0.4-0.2,0.8-0.3,1c-0.1,0.2-0.3,0.4-0.6,0.5
			c-0.3,0.1-0.6,0.2-1,0.2c-0.4,0-0.7,0-1,0c-0.5,0-0.9,0-1.2-0.1c-0.3,0-0.5-0.1-0.7-0.3c-0.2-0.1-0.3-0.3-0.4-0.5
			c-0.1-0.2-0.1-0.5-0.1-0.9c0-0.1,0-0.3,0-0.7c0-0.3,0-0.7,0-1.1c0-0.4,0-0.8,0-1.1c0-0.1,0-0.9,0-1.9c0.1,0.1,0.3,0.1,0.4,0.2
			c0.3,0.1,0.6,0.2,1,0.2c0.2,0,0.3-0.1,0.5-0.2c0.2-0.1,0.4-0.3,0.5-0.4c0.2-0.2,0.3-0.3,0.4-0.5l0.3-0.4l0.1-0.3l-0.1-0.1
			l-0.2,0.2l-0.1,0.1l-0.3,0.2l-0.4,0.2c-0.2,0.1-0.3,0.1-0.5,0.1c-0.2,0-0.4,0-0.6-0.1c-0.2-0.1-0.4-0.2-0.6-0.2l-0.3-0.2
			c0-2.8,0-6.6,0-6.6l0.1-0.2c0.1,0,0.2,0,0.5,0c0.3,0,0.6,0,0.9,0c0.3,0,0.6,0,0.9,0c0.3,0,0.5,0,0.6,0c0.6,0.1,0.9,0.2,1.1,0.3
			c0.2,0.1,0.3,0.3,0.4,0.4l0.1,0.4l0,0.3c0,0.2,0.1,0.3,0.2,0.3l0.1-0.1l0.1-0.2l0-0.3l0-0.4l0-0.4l0-0.3c0-0.3,0.1-0.5,0.1-0.7
			l0.1-0.3l-0.1-0.2l-0.1,0l-0.1,0.1c-0.2,0-0.5,0.1-0.9,0.1c-0.1,0-0.4,0-0.9,0c-0.5,0-1,0-1.6,0c-0.6,0-1.1,0-1.5,0
			c-0.5,0-0.7,0-0.7,0l-0.9,0c-0.2,0-0.5,0-0.8,0c-0.3,0-0.5,0-0.8,0c-0.2,0-0.3,0.1-0.3,0.2l0.2,0.1l0.4,0l0.3,0.1
			c0.3,0.1,0.6,0.2,0.7,0.4c0.1,0.2,0.2,0.5,0.2,0.8c0,0.2,0,0.4,0,0.5c0,0.2,0,0.5,0,0.8c0,0.3,0,0.7,0,1.3c0,0.5,0,1.2,0,2l0,1.1
			l-0.2,0.1c-0.2,0.1-0.4,0.3-0.5,0.4c-0.2,0.2-0.3,0.3-0.4,0.5c-0.1,0.2-0.2,0.3-0.3,0.4l-0.1,0.2l0,0.1l0.1,0.1l0.3-0.2l0.2-0.2
			l0.3-0.3l0.4-0.2l0.4-0.1v1.7c0,1,0,1.9,0,2.7c0,0.8,0,1.4-0.1,1.9c0,0.3-0.1,0.6-0.2,0.8c-0.1,0.2-0.2,0.3-0.4,0.4l-0.3,0.1
			l-0.3,0l-0.2,0.1c0,0.1,0.1,0.2,0.3,0.2c0.1,0,0.3,0,0.6,0c0.2,0,0.4,0,0.6,0c0.2,0,0.4,0,0.6,0h0.3c0.2,0,0.4,0,0.6,0
			c0.3,0,0.6,0,1,0.1c0.4,0,0.9,0,1.5,0c0.6,0,1.3,0,2.1,0c0.2,0,0.4,0,0.5,0l0.3-0.1l0.2-0.2l0.1-0.3c0-0.1,0.1-0.3,0.1-0.5
			c0-0.2,0.1-0.4,0.1-0.7c0-0.2,0.1-0.4,0.1-0.6c0-0.2,0-0.3,0-0.3L664.8,324.9z"/>
		<path class="st0" d="M723.6,324.9l-0.1-0.1c-0.1,0-0.1,0.1-0.2,0.3c-0.1,0.4-0.2,0.8-0.3,1c-0.1,0.2-0.3,0.4-0.6,0.5
			c-0.3,0.1-0.6,0.2-1,0.2c-0.4,0-0.7,0-1,0c-0.5,0-0.9,0-1.2-0.1c-0.3,0-0.5-0.1-0.7-0.3c-0.2-0.1-0.3-0.3-0.4-0.5
			c-0.1-0.2-0.1-0.5-0.1-0.9c0-0.1,0-0.3,0-0.7c0-0.3,0-0.7,0-1.1c0-0.4,0-0.8,0-1.1c0-0.1,0-0.9,0-1.9c0.1,0.1,0.3,0.1,0.4,0.2
			c0.3,0.1,0.6,0.2,1,0.2c0.2,0,0.3-0.1,0.5-0.2c0.2-0.1,0.4-0.3,0.5-0.4c0.2-0.2,0.3-0.3,0.4-0.5l0.3-0.4l0.1-0.3l-0.1-0.1
			l-0.2,0.2l-0.1,0.1l-0.2,0.2l-0.4,0.2c-0.2,0.1-0.3,0.1-0.5,0.1c-0.2,0-0.4,0-0.6-0.1c-0.2-0.1-0.4-0.2-0.6-0.2l-0.3-0.2
			c0-2.8,0-6.6,0-6.6l0.1-0.2c0.1,0,0.2,0,0.5,0c0.3,0,0.6,0,0.9,0c0.3,0,0.6,0,0.9,0c0.3,0,0.5,0,0.6,0c0.6,0.1,0.9,0.2,1.1,0.3
			c0.2,0.1,0.3,0.3,0.4,0.4l0.1,0.4l0,0.3c0,0.2,0.1,0.3,0.2,0.3l0.1-0.1l0.1-0.2l0-0.3l0-0.4l0-0.4l0-0.3c0-0.3,0.1-0.5,0.1-0.7
			l0.1-0.3l-0.1-0.2l-0.1,0l-0.1,0.1c-0.2,0-0.5,0.1-0.9,0.1c-0.1,0-0.4,0-0.9,0c-0.5,0-1,0-1.6,0c-0.6,0-1.1,0-1.5,0
			c-0.4,0-0.7,0-0.7,0l-0.9,0c-0.2,0-0.5,0-0.8,0c-0.3,0-0.5,0-0.8,0c-0.2,0-0.3,0.1-0.3,0.2l0.2,0.1l0.4,0l0.3,0.1
			c0.3,0.1,0.6,0.2,0.7,0.4c0.1,0.2,0.2,0.5,0.2,0.8c0,0.2,0,0.4,0,0.5c0,0.2,0,0.5,0,0.8c0,0.3,0,0.7,0,1.3c0,0.5,0,1.2,0,2v1.1
			l-0.2,0.1c-0.2,0.1-0.4,0.3-0.5,0.4c-0.2,0.2-0.3,0.3-0.4,0.5c-0.1,0.2-0.2,0.3-0.3,0.4l-0.1,0.2l0,0.1l0.1,0.1l0.3-0.2l0.2-0.2
			l0.3-0.3l0.4-0.2l0.4-0.1v1.7c0,1,0,1.9,0,2.7c0,0.8,0,1.4-0.1,1.9c0,0.3-0.1,0.6-0.2,0.8c-0.1,0.2-0.2,0.3-0.4,0.4l-0.3,0.1
			l-0.3,0l-0.2,0.1c0,0.1,0.1,0.2,0.3,0.2c0.1,0,0.3,0,0.6,0c0.2,0,0.4,0,0.6,0c0.2,0,0.4,0,0.6,0h0.3c0.2,0,0.4,0,0.6,0
			c0.3,0,0.6,0,1,0.1c0.4,0,0.9,0,1.5,0c0.6,0,1.3,0,2.1,0c0.2,0,0.4,0,0.5,0l0.3-0.1l0.2-0.2l0.1-0.3c0-0.1,0.1-0.3,0.1-0.5
			c0-0.2,0.1-0.4,0.1-0.7c0-0.2,0.1-0.4,0.1-0.6c0-0.2,0-0.3,0-0.3L723.6,324.9z"/>
		<path class="st0" d="M751,324.9l-0.1-0.1c-0.1,0-0.1,0.1-0.2,0.3c-0.1,0.4-0.2,0.8-0.3,1c-0.1,0.2-0.3,0.4-0.6,0.5
			c-0.3,0.1-0.6,0.2-1,0.2c-0.4,0-0.7,0-1,0c-0.5,0-0.9,0-1.2-0.1c-0.3,0-0.5-0.1-0.7-0.3c-0.2-0.1-0.3-0.3-0.4-0.5
			c-0.1-0.2-0.1-0.5-0.1-0.9c0-0.1,0-0.3,0-0.7c0-0.3,0-0.7,0-1.1c0-0.4,0-0.8,0-1.1c0-0.1,0-0.9,0-1.9c0.1,0.1,0.3,0.1,0.4,0.2
			c0.3,0.1,0.6,0.2,1,0.2c0.2,0,0.3-0.1,0.5-0.2c0.2-0.1,0.4-0.3,0.5-0.4c0.2-0.2,0.3-0.3,0.4-0.5l0.3-0.4l0.1-0.3l-0.1-0.1
			l-0.2,0.2l-0.1,0.1l-0.2,0.2l-0.4,0.2c-0.2,0.1-0.3,0.1-0.5,0.1c-0.2,0-0.4,0-0.6-0.1c-0.2-0.1-0.4-0.2-0.6-0.2l-0.3-0.2
			c0-2.8,0-6.6,0-6.6l0.1-0.2c0.1,0,0.2,0,0.5,0c0.3,0,0.6,0,0.9,0c0.3,0,0.6,0,0.9,0c0.3,0,0.5,0,0.6,0c0.6,0.1,0.9,0.2,1.1,0.3
			c0.2,0.1,0.3,0.3,0.4,0.4l0.1,0.4l0,0.3c0,0.2,0.1,0.3,0.2,0.3l0.1-0.1l0.1-0.2l0-0.3l0-0.4l0-0.4l0-0.3c0-0.3,0.1-0.5,0.1-0.7
			l0.1-0.3l-0.1-0.2l-0.1,0l-0.1,0.1c-0.2,0-0.5,0.1-0.9,0.1c-0.1,0-0.4,0-0.9,0c-0.5,0-1,0-1.6,0c-0.6,0-1.1,0-1.5,0
			c-0.4,0-0.7,0-0.7,0l-0.9,0c-0.2,0-0.5,0-0.8,0c-0.3,0-0.5,0-0.7,0c-0.2,0-0.3,0.1-0.3,0.2l0.2,0.1l0.4,0l0.3,0.1
			c0.3,0.1,0.6,0.2,0.7,0.4c0.1,0.2,0.2,0.5,0.2,0.8c0,0.2,0,0.4,0,0.5c0,0.2,0,0.5,0,0.8c0,0.3,0,0.7,0,1.3c0,0.5,0,1.2,0,2l0,1.1
			l-0.2,0.1c-0.2,0.1-0.4,0.3-0.5,0.4c-0.2,0.2-0.3,0.3-0.4,0.5c-0.1,0.2-0.2,0.3-0.3,0.4l-0.1,0.2l0,0.1l0.1,0.1l0.3-0.2l0.2-0.2
			l0.3-0.3l0.4-0.2l0.4-0.1v1.7c0,1,0,1.9,0,2.7c0,0.8,0,1.4-0.1,1.9c0,0.3-0.1,0.6-0.2,0.8c-0.1,0.2-0.2,0.3-0.4,0.4l-0.3,0.1
			l-0.3,0l-0.2,0.1c0,0.1,0.1,0.2,0.3,0.2c0.1,0,0.3,0,0.6,0c0.2,0,0.4,0,0.6,0c0.2,0,0.4,0,0.6,0h0.3c0.2,0,0.4,0,0.6,0
			c0.3,0,0.6,0,1,0.1c0.4,0,0.9,0,1.5,0c0.6,0,1.3,0,2.1,0c0.2,0,0.4,0,0.5,0l0.3-0.1l0.2-0.2l0.1-0.3c0-0.1,0.1-0.3,0.1-0.5
			c0-0.2,0.1-0.4,0.1-0.7c0-0.2,0.1-0.4,0.1-0.6c0-0.2,0-0.3,0-0.3L751,324.9z"/>
		<path class="st0" d="M679.1,320.5c-0.3-0.2-0.5-0.3-0.7-0.3c-0.2-0.1-0.4-0.2-0.6-0.3c-0.2-0.1-0.5-0.2-0.8-0.2
			c-0.2,0-0.3,0-0.5,0.1l-0.4,0.2l-0.3,0.3l-0.2,0.2l-0.3,0.2l-0.1-0.1l0-0.1l0.1-0.2c0.1-0.1,0.2-0.3,0.3-0.4
			c0.1-0.2,0.3-0.3,0.4-0.5c0.2-0.2,0.3-0.3,0.5-0.4c0.2-0.1,0.4-0.2,0.5-0.2c0.3,0,0.5,0.1,0.8,0.2c0.3,0.1,0.6,0.3,0.9,0.4
			c0.2,0.1,0.3,0.1,0.6,0.2c0.2,0.1,0.4,0.1,0.6,0.1c0.2,0,0.4,0,0.5-0.1l0.4-0.2l0.2-0.2l0.1-0.1l0.2-0.2l0.1,0.1l-0.1,0.3
			l-0.2,0.4c-0.1,0.2-0.3,0.3-0.4,0.5c-0.2,0.2-0.3,0.3-0.5,0.4c-0.2,0.1-0.4,0.2-0.5,0.2C679.7,320.7,679.4,320.7,679.1,320.5"/>
		<path class="st0" d="M600.6,327.3l-0.4,0l-0.5-0.1l-0.4-0.1c-0.1-0.1-0.3-0.2-0.4-0.4c-0.1-0.2-0.3-0.4-0.5-0.7
			c-0.2-0.3-0.4-0.7-0.5-1.2c-0.2-0.5-0.5-1.2-0.8-2c-0.3-0.8-0.6-1.7-1-2.6c-0.3-0.9-0.7-1.8-1-2.7c-0.3-0.9-0.7-1.8-1-2.6
			c-0.3-0.8-0.5-1.4-0.7-2c-0.2-0.5-0.3-0.9-0.4-1c-0.1-0.3-0.2-0.5-0.3-0.6l-0.2-0.1l-0.2,0.1c-0.1,0.1-0.1,0.3-0.3,0.7l-4.7,13.3
			c-0.2,0.5-0.4,1-0.7,1.4c-0.2,0.4-0.6,0.6-1.1,0.6l-0.3,0l-0.3,0l-0.2,0.1c0,0.1,0.1,0.2,0.4,0.2c0.3,0,0.5,0,0.8,0
			c0.3,0,0.5,0,0.7,0c0.2,0,0.4,0,0.6,0l0.3,0l0.3,0l0.4,0c0.2,0,0.3,0,0.5,0c0.2,0,0.3,0,0.4,0c0.2,0,0.3-0.1,0.3-0.2l-0.2-0.1
			h-0.2c-0.2,0-0.4,0-0.5-0.2c-0.2-0.1-0.3-0.3-0.3-0.5c0-0.4,0.1-0.9,0.3-1.4l0.6-1.7l0.7-2l0.2-0.2l0.4-0.2
			c0.1-0.1,0.3-0.1,0.5-0.1c0.3,0,0.6,0.1,0.8,0.2c0.2,0.1,0.4,0.2,0.6,0.3c0.2,0.1,0.4,0.2,0.7,0.3c0.3,0.1,0.6,0.2,1,0.2
			c0.2,0,0.3-0.1,0.5-0.2l0.4-0.3l0.7,1.9l1.2,3.2c0.1,0.2,0.1,0.3,0,0.4l-0.2,0.2l-0.1,0.2l0.2,0.1c0.1,0,0.3,0,0.5,0
			c0.4,0,0.7,0,1.1,0c0.4,0,0.7,0,1,0c0.3,0,0.6,0,0.8,0c0.2,0,0.4,0,0.5,0l0.3,0l0.1-0.1L600.6,327.3z M594.1,321.1
			c-0.2,0-0.4,0-0.6-0.1c-0.2-0.1-0.4-0.2-0.6-0.2c-0.3-0.2-0.6-0.3-0.9-0.4c-0.3-0.1-0.6-0.2-0.8-0.2c-0.2,0-0.3,0.1-0.5,0.2
			l-0.5,0.4l1.1-3.5l0.8-2.5c0.1-0.3,0.2-0.3,0.3,0l1,2.9l1.2,3.4C594.5,321.1,594.3,321.1,594.1,321.1z"/>
		<path class="st0" d="M705.4,321.4c0,3.1,0,4.3,0.4,4.7c0.3,0.3,1.2,0.5,2.8,0.5c1.1,0,2,0,2.5-0.6c0.3-0.3,0.4-0.8,0.5-1.2
			l0.2-0.3c0.1,0,0.1,0.1,0.1,0.3c0,0.2-0.1,1.5-0.3,2.1c-0.1,0.5-0.2,0.6-1.3,0.6c-1.5,0-2.7,0-3.7-0.1c-1,0-1.7,0-2.3,0
			c-0.1,0-0.5,0-0.9,0c-0.4,0-0.9,0-1.2,0c-0.2,0-0.3,0-0.3-0.2l0.2-0.2c0.2,0,0.5,0,0.6-0.1c0.4-0.1,0.5-0.5,0.6-1.1
			c0.1-0.9,0.1-2.5,0.1-4.5l0-3.7c0-3.2,0-3.8,0-4.5c0-0.7-0.2-1.1-0.9-1.1c-0.2,0-0.5,0-0.7,0l-0.2-0.2c0-0.1,0.1-0.2,0.3-0.2
			c1,0,2.3,0,2.4,0c0.1,0,1.7,0,2.3,0c0.2,0,0.3,0,0.3,0.2l-0.2,0.1c-0.1,0-0.5,0-0.7,0c-0.6,0.1-0.7,0.4-0.8,1.2c0,0.7,0,1.2,0,4.5
			L705.4,321.4z"/>
		<path class="st0" d="M731.5,322c0-1.1-0.1-1.5-0.5-2.1c-0.2-0.3-3-4.9-3.7-6c-0.5-0.8-1-1.2-1.4-1.5c-0.3-0.2-0.7-0.3-0.9-0.3
			l-0.2-0.2c0-0.1,0.1-0.1,0.3-0.1c0.4,0,2,0,2.1,0c0.1,0,1,0,1.8,0c0.2,0,0.3,0,0.3,0.1c0,0.1-0.1,0.1-0.3,0.2
			c-0.2,0.1-0.3,0.2-0.3,0.3c0,0.3,0.1,0.5,0.3,0.8l3.8,6.5c0.4-0.9,3.1-5.3,3.4-6c0.3-0.5,0.4-0.8,0.4-1.1c0-0.3-0.1-0.5-0.3-0.5
			c-0.2,0-0.3-0.1-0.3-0.2c0-0.1,0.1-0.1,0.3-0.1c0.6,0,1.3,0,1.5,0c0.1,0,1.7,0,2.1,0l0.3,0.1c0,0.1-0.1,0.2-0.3,0.2
			c-0.2,0-0.6,0.1-1,0.3c-0.4,0.2-0.6,0.5-1.1,1c-0.7,0.8-3.7,5.7-4.1,6.6c-0.4,0.7-0.3,1.4-0.3,2.1l0,1.8c0,0.3,0,1.2,0.1,2.1
			c0,0.6,0.2,1,0.8,1.1c0.3,0,0.8,0.1,1,0.1l0.2,0.2c0,0.1-0.1,0.2-0.3,0.2c-1.2,0-2.5-0.1-2.7-0.1c-0.1,0-1.4,0.1-2.1,0.1
			c-0.2,0-0.3,0-0.3-0.2l0.2-0.2c0.2,0,0.4,0,0.6-0.1c0.4-0.1,0.6-0.5,0.6-1.1c0-0.9,0-1.7,0-2.1V322z"/>
		<path class="st0" d="M755.3,324.6c0.1,1.7,0.2,2.2,0.8,2.4c0.4,0.1,0.9,0.1,1.1,0.1l0.2,0.2c0,0.1-0.1,0.2-0.4,0.2
			c-1.2,0-2-0.1-2.2-0.1c-0.2,0-1.1,0.1-2,0.1c-0.2,0-0.3,0-0.3-0.2l0.2-0.2c0.2,0,0.6,0,0.9-0.1c0.5-0.1,0.6-0.7,0.6-2.6v-11.9
			c0-0.8,0.1-1.1,0.3-1.1c0.2,0,0.6,0.4,0.8,0.6c0.3,0.3,3.4,3.7,6.7,7.1c2.1,2.2,4.3,4.7,5,5.4l-0.2-10.4c0-1.3-0.1-1.8-0.8-1.9
			c-0.4-0.1-0.9-0.1-1-0.1l-0.2-0.2c0-0.1,0.2-0.1,0.4-0.1c1,0,2,0,2.2,0c0.2,0,0.9,0,1.8,0c0.2,0,0.4,0,0.4,0.1L769,312
			c-0.1,0-0.3,0-0.5,0c-0.7,0.1-0.7,0.6-0.7,1.8l0,12.2c0,1.4,0,1.5-0.2,1.5c-0.2,0-0.4-0.2-1.6-1.3c-0.2-0.2-3.3-3.3-5.5-5.6
			c-2.4-2.6-4.8-5.2-5.5-5.9L755.3,324.6z"/>
		<path class="st0" d="M773.2,317.7c0-3.2,0-3.8,0-4.5c0-0.7-0.2-1.1-0.9-1.1c-0.2,0-0.5,0-0.7,0l-0.2-0.2c0-0.1,0.1-0.2,0.3-0.2
			c1,0,2.3,0,2.4,0c0.2,0,1.6,0,2.8,0c2.1,0,6-0.2,8.5,2.4c1.1,1.1,2.1,2.8,2.1,5.3c0,2.6-1.1,4.6-2.3,5.8c-0.9,1-2.8,2.4-6.4,2.4
			c-0.9,0-2-0.1-2.9-0.1c-0.9-0.1-1.6-0.1-1.7-0.1c0,0-0.4,0-0.9,0c-0.4,0-0.9,0-1.3,0c-0.2,0-0.3,0-0.3-0.2l0.2-0.2
			c0.2,0,0.5,0,0.6-0.1c0.4-0.1,0.5-0.5,0.6-1.1c0.1-0.9,0.1-2.5,0.1-4.5L773.2,317.7z M775.1,319.9c0,2.2,0,4.1,0,4.5
			c0,0.5,0.1,1.3,0.2,1.5c0.3,0.4,1,0.8,3.5,0.8c1.9,0,3.7-0.7,4.9-1.9c1.1-1.1,1.7-3,1.7-4.9c0-2.6-1.1-4.3-2-5.2
			c-2-2.1-4.3-2.3-6.8-2.3c-0.4,0-1.1,0.1-1.3,0.1c-0.2,0.1-0.3,0.2-0.3,0.4V319.9z"/>
		<path class="st0" d="M803.2,327.3l-0.4,0l-0.5-0.1L802,327c-0.1-0.1-0.3-0.2-0.4-0.4c-0.1-0.2-0.3-0.4-0.5-0.7
			c-0.2-0.3-0.4-0.7-0.5-1.2c-0.2-0.5-0.5-1.2-0.8-2c-0.3-0.8-0.6-1.7-1-2.6c-0.3-0.9-0.7-1.8-1-2.7c-0.3-0.9-0.7-1.8-1-2.6
			c-0.3-0.8-0.5-1.4-0.7-2c-0.2-0.5-0.3-0.9-0.4-1c-0.1-0.3-0.2-0.5-0.3-0.6l-0.2-0.1l-0.2,0.1c-0.1,0.1-0.1,0.3-0.3,0.7l-4.7,13.3
			c-0.2,0.5-0.4,1-0.7,1.4c-0.2,0.4-0.6,0.6-1.1,0.7l-0.3,0l-0.3,0l-0.2,0.1c0,0.1,0.1,0.2,0.4,0.2c0.3,0,0.5,0,0.8,0
			c0.3,0,0.5,0,0.7,0c0.2,0,0.4,0,0.6,0l0.3,0l0.3,0l0.4,0c0.2,0,0.3,0,0.5,0c0.2,0,0.3,0,0.4,0c0.2,0,0.3-0.1,0.3-0.2l-0.2-0.1
			h-0.2c-0.2,0-0.4-0.1-0.5-0.2c-0.2-0.1-0.3-0.3-0.3-0.5c0-0.4,0.1-0.9,0.3-1.4l0.6-1.7l0.6-2l0.2-0.2l0.4-0.2
			c0.1-0.1,0.3-0.1,0.5-0.1c0.3,0,0.6,0.1,0.8,0.2c0.2,0.1,0.4,0.2,0.6,0.3c0.2,0.1,0.4,0.2,0.7,0.3c0.3,0.1,0.6,0.2,1,0.2
			c0.2,0,0.3-0.1,0.5-0.2l0.4-0.3l0.7,1.9l1.2,3.2c0.1,0.2,0.1,0.3,0,0.4l-0.2,0.2l-0.1,0.1l0.2,0.1c0.1,0,0.3,0,0.5,0
			c0.4,0,0.7,0,1.1,0c0.4,0,0.7,0,1,0c0.3,0,0.6,0,0.8,0c0.2,0,0.4,0,0.5,0l0.3,0l0.1-0.1L803.2,327.3z M796.8,321
			c-0.2,0-0.4,0-0.6-0.1c-0.2-0.1-0.4-0.2-0.6-0.2c-0.3-0.2-0.6-0.3-0.9-0.4c-0.3-0.1-0.6-0.2-0.8-0.2c-0.2,0-0.3,0.1-0.5,0.2
			l-0.5,0.4l1.1-3.5l0.8-2.5c0.1-0.3,0.2-0.3,0.3,0l1,2.9l1.2,3.4C797.1,321,796.9,321,796.8,321z"/>
		<path class="st1" d="M665.5,267.7c0.7-1.9,1.7-3.7,3-5.3c1.4-1.6,3.1-3,5.2-4c2.1-1.1,4.6-1.6,7.6-1.6c2.4,0,4.6,0.4,6.7,1.1
			c2,0.7,3.8,1.8,5.3,3.1c1.5,1.4,2.7,3,3.5,4.9c0.9,1.9,1.3,4.1,1.3,6.5c0,2.3-0.4,4.5-1.2,6.6c-0.8,2.1-2,3.9-3.4,5.4
			c-1.5,1.5-3.3,2.8-5.4,3.7c-2.1,0.9-4.4,1.4-7,1.4c-2.9,0-5.4-0.5-7.5-1.5c-2.1-1-3.8-2.3-5.2-3.9c-1.4-1.6-2.3-3.4-3-5.3
			c-0.6-2-1-3.9-1-5.7C664.5,271.4,664.8,269.6,665.5,267.7 M685.8,273.6l-0.1,0L685.8,273.6c-0.4-0.4-1.2-0.6-1.7-0.9l-0.4-0.4
			l0-0.2l-0.1,0c-1-1.2-1.7-2.8-1.7-2.8c0,0-0.1,0.1-0.2,0.3c-0.2-0.1-0.3,0.1-0.7,0.6c-0.2,0.3-0.3,0.7-0.4,1
			c-0.2,0.4-0.6,0.4-0.9,0.7c-0.2,0.2-0.2,0.7-0.4,1l-0.4,0.3c-0.3,0.1-0.7,0.2-1,0.4l0,0l0.9-0.8c-0.6,0.3-1.2,0.7-1.3,1.1
			c0.4,0.1,0.9,0.4,1.3,0.6c0.4,0.3,0.6,0.8,1.2,0.6c-0.1,0.5,0.4,1.1,0.7,1.5c0.3,0.3,0.5,0.3,0.8,0.6c0.1,0.2,0.2,0.5,0.2,0.7
			l0,0.1l0-0.1l0.1,0.2c0.2-0.5,0.4-1,0.7-1.4l0.3-0.6l0.1-0.3l-0.1-0.3c0.2-0.2,0.4-0.1,0.5-0.2c0.2-0.2,0.4-0.5,0.6-0.6
			c0.5-0.4,1.1-0.4,1.5-0.9L685.8,273.6z M669.9,278.6c0.7,2,1.6,3.6,2.8,5c1.2,1.4,2.6,2.4,4.2,3.2c1.6,0.7,3.4,1.1,5.3,1.1
			c1,0,2.1-0.2,3.4-0.5c1.3-0.3,2.6-1,3.8-2c1.2-1,2.2-2.5,3.1-4.3c0.8-1.9,1.3-4.3,1.3-7.3c0-2.5-0.3-4.7-1-6.6
			c-0.7-1.9-1.6-3.5-2.8-4.8c-1.2-1.3-2.5-2.2-4-2.9c-1.5-0.7-3.1-1-4.8-1c-1.8,0-3.4,0.3-4.9,0.9c-1.5,0.6-2.8,1.4-3.9,2.6
			c-1.1,1.1-1.9,2.6-2.5,4.3c-0.6,1.7-0.9,3.7-0.9,6C668.9,274.4,669.2,276.6,669.9,278.6z"/>
		<path class="st0" d="M683.2,272.9l-0.5,0.5C682.9,273.3,683.1,273.1,683.2,272.9"/>
		<path class="st0" d="M829.3,261.1v-5h2.2c0.5,0,0.8,0,1,0.1c0.2,0.1,0.4,0.3,0.6,0.5c0.1,0.2,0.2,0.5,0.2,0.8
			c0,0.4-0.1,0.7-0.3,0.9c-0.2,0.2-0.6,0.4-1.1,0.5c0.2,0.1,0.3,0.2,0.4,0.3c0.2,0.2,0.4,0.4,0.6,0.7l0.9,1.4h-0.8l-0.7-1
			c-0.2-0.3-0.4-0.5-0.5-0.7l-0.3-0.3l-0.3-0.1c-0.1,0-0.2,0-0.4,0H830v2.2H829.3z M830,258.3h1.4c0.3,0,0.5,0,0.7-0.1
			c0.2-0.1,0.3-0.2,0.4-0.3l0.1-0.5c0-0.2-0.1-0.4-0.3-0.6c-0.2-0.2-0.4-0.2-0.8-0.2l-1.6,0V258.3z"/>
		<path class="st0" d="M831.3,253.8c-2.6,0-4.7,2.1-4.7,4.7c0,2.6,2.1,4.7,4.7,4.7c2.6,0,4.7-2.1,4.7-4.7
			C836,255.9,833.9,253.8,831.3,253.8 M831.3,262.4c-2.2,0-4-1.8-4-4c0-2.2,1.8-4,4-4c2.2,0,4,1.8,4,4
			C835.2,260.7,833.5,262.4,831.3,262.4z"/>
	</g>
	<path class="st2" d="M667.9,180.1L667.9,180.1L667.9,180.1L667.9,180.1L667.9,180.1L667.9,180.1L667.9,180.1L667.9,180.1
		L667.9,180.1L667.9,180.1L667.9,180.1L667.9,180.1L667.9,180.1L667.9,180.1L667.9,180.1L667.9,180.1L667.9,180.1L667.9,180.1
		L667.9,180.1L667.9,180.1L667.9,180.1L667.9,180.1L667.9,180.1L667.9,180.1L667.9,180.1L667.9,180.1L667.9,180.1L667.9,180.1
		L667.9,180.1L667.9,180.1L667.9,180.1L667.9,180.1L667.9,180.1L667.9,180.1L667.9,180.1L667.9,180.1L667.9,180.1L667.9,180.1
		L667.9,180.1L667.9,180.1L667.9,180.1L667.9,180.1L667.9,180.1L667.9,180.1L667.9,180.1L667.9,180.1L667.9,180.1L667.9,180.1
		L667.9,180.1L667.9,180.1L667.9,180.1L667.9,180.1L667.9,180.1L667.9,180.1L667.9,180.1L667.9,180.1L667.9,180.1L667.9,180.1
		L667.9,180.1L667.9,180.1L667.9,180.1L667.9,180.1L667.9,180.1L667.9,180.1L667.9,180.1L667.9,180.1L667.9,180.1L667.9,180.1
		L667.9,180.1L667.9,180.1L667.9,180.1L667.9,180.1L667.9,180.1L667.9,180.1L667.9,180.1L667.9,180.1L667.9,180.1L667.9,180.1
		L667.9,180.1L667.9,180.1L667.9,180.1L667.9,180.1L667.9,180.1L667.9,180.1L667.9,180.1L667.9,180.1L667.9,180.1L667.9,180.1
		L667.9,180.1L667.9,180.1L667.9,180.1L667.9,180.1L667.9,180.1L667.9,180.1L667.9,180.1L667.9,180.1L667.9,180.1L667.9,180.1
		L667.9,180.1L667.9,180.1z M704.4,184.2L704.4,184.2C704.4,184.2,704.4,184.3,704.4,184.2C704.4,184.2,704.4,184.2,704.4,184.2z
		 M675.5,146.6L675.5,146.6C675.4,146.5,675.4,146.7,675.5,146.6C675.5,146.6,675.5,146.6,675.5,146.6z M680.9,154.2L680.9,154.2
		C680.8,154.2,680.8,154.4,680.9,154.2C680.9,154.2,680.9,154.3,680.9,154.2z M655,187.2L655,187.2
		C654.9,187.3,655.1,187.3,655,187.2C655,187.2,655.1,187.2,655,187.2z M711.3,146.5L711.3,146.5
		C711.4,146.4,711.2,146.4,711.3,146.5C711.3,146.5,711.3,146.5,711.3,146.5z M726.2,141.7L726.2,141.7L726.2,141.7L726.2,141.7
		L726.2,141.7L726.2,141.7L726.2,141.7L726.2,141.7L726.2,141.7L726.2,141.7L726.2,141.7L726.2,141.7L726.2,141.7L726.2,141.7
		L726.2,141.7L726.2,141.7L726.2,141.7L726.2,141.7L726.2,141.7L726.2,141.7L726.2,141.7L726.2,141.7L726.2,141.7L726.2,141.7
		L726.2,141.7L726.2,141.7L726.2,141.7L726.2,141.7L726.2,141.7L726.2,141.7L726.2,141.7L726.2,141.7L726.2,141.7L726.2,141.7
		L726.2,141.7L726.2,141.7L726.2,141.7L726.2,141.7L726.2,141.7L726.2,141.7L726.2,141.7L726.2,141.7L726.2,141.7L726.2,141.7
		L726.2,141.7L726.2,141.7L726.2,141.7L726.2,141.7L726.2,141.7L726.2,141.7L726.2,141.7L726.2,141.7L726.2,141.7L726.2,141.7
		L726.2,141.7L726.2,141.7L726.2,141.7L726.2,141.7L726.2,141.7L726.2,141.7L726.2,141.7L726.2,141.7L726.2,141.7L726.2,141.7
		L726.2,141.7L726.2,141.7L726.2,141.7L726.2,141.7L726.2,141.7L726.2,141.7L726.2,141.7L726.2,141.7L726.2,141.7L726.2,141.7
		L726.2,141.7L726.2,141.7L726.2,141.7L726.2,141.7L726.2,141.7L726.2,141.7L726.2,141.7L726.2,141.7L726.2,141.7L726.2,141.7
		L726.2,141.7L726.2,141.7L726.2,141.7L726.2,141.7L726.2,141.7L726.2,141.7L726.2,141.7L726.2,141.7L726.2,141.7L726.2,141.7
		L726.2,141.7L726.2,141.7L726.2,141.7L726.2,141.7L726.2,141.7L726.2,141.7z M655.6,136.4L655.6,136.4
		C655.4,136.5,655.6,136.5,655.6,136.4C655.5,136.4,655.6,136.4,655.6,136.4z M642.6,202.8L642.6,202.8
		C642.4,202.9,642.6,203.1,642.6,202.8C642.6,202.8,642.6,202.9,642.6,202.8z M728.1,204.9L728.1,204.9L728.1,204.9L728.1,204.9
		L728.1,204.9L728.1,204.9L728.1,204.9L728.1,204.9L728.1,204.9L728.1,204.9L728.1,204.9L728.1,204.9L728.1,204.9L728.1,204.9
		L728.1,204.9L728.1,204.9L728.1,204.9L728.1,204.9L728.1,204.9L728.1,204.9L728.1,204.9L728.1,204.9L728.1,204.9L728.1,204.9
		L728.1,204.9L728.1,204.9L728.1,204.9L728.1,204.9L728.1,204.9L728.1,204.9L728.1,204.9L728.1,204.9L728.1,204.9L728.1,204.9
		L728.1,204.9L728.1,204.9L728.1,204.9L728.1,204.9L728.1,204.9L728.1,204.9L728.1,204.9L728.1,204.9L728.1,204.9L728.1,204.9
		L728.1,204.9L728.1,204.9L728.1,204.9L728.1,204.9L728.1,204.9L728.1,204.9L728.1,204.9L728.1,204.9L728.1,204.9L728.1,204.9
		L728.1,204.9L728.1,204.9L728.1,204.9L728.1,204.9L728.1,204.9L728.1,204.9L728.1,204.9L728.1,204.9L728.1,204.9L728.1,204.9
		L728.1,204.9L728.1,204.9L728.1,204.9L728.1,204.9L728.1,204.9L728.1,204.9L728.1,204.9L728.1,204.9L728.1,204.9L728.1,204.9
		L728.1,204.9L728.1,204.9L728.1,204.9L728.1,204.9L728.1,204.9L728.1,204.9L728.1,204.9L728.1,204.9L728.1,204.9L728.1,204.9
		L728.1,204.9L728.1,204.9L728.1,204.9l-0.1,0l0,0l0,0l0,0l0,0l0,0l0,0l0,0l0,0l0,0l0,0l0,0l0,0l0,0l0,0l0,0v0l0,0l0,0l0,0l0,0l0,0
		l0,0l0,0l0,0l0,0l0,0l0,0l0,0l0,0l0,0L728.1,204.9L728.1,204.9L728.1,204.9L728.1,204.9L728.1,204.9L728.1,204.9L728.1,204.9
		L728.1,204.9L728.1,204.9L728.1,204.9L728.1,204.9L728.1,204.9L728.1,204.9L728.1,204.9L728.1,204.9z M716.1,157.5L716.1,157.5
		C715.9,157.2,715.9,157.5,716.1,157.5C716.1,157.4,716,157.5,716.1,157.5z M662.6,182.1L662.6,182.1
		C662.7,182.2,662.9,182,662.6,182.1C662.6,182.1,662.7,182.1,662.6,182.1z M712.2,135.7L712.2,135.7
		C711.9,135.6,711.9,135.8,712.2,135.7C712.1,135.7,712.1,135.8,712.2,135.7z M712.5,163L712.5,163C712.2,162.8,712.3,163,712.5,163
		C712.4,162.9,712.4,163,712.5,163z M682.1,151.9L682.1,151.9C681.9,151.8,681.9,152.1,682.1,151.9
		C682.1,151.9,682.1,151.9,682.1,151.9z M705.3,179.4L705.3,179.4C705.4,179.2,705.2,179.1,705.3,179.4
		C705.3,179.3,705.3,179.3,705.3,179.4z M692.9,146.9L692.9,146.9C693,146.7,692.7,146.6,692.9,146.9
		C692.9,146.9,692.8,146.9,692.9,146.9z M676.3,149.2L676.3,149.2c0.1,0,0.1-0.1,0-0.2C676.2,149,676.2,149.1,676.3,149.2
		C676.3,149.2,676.3,149.1,676.3,149.2z M695.9,166.5L695.9,166.5C696.1,166.3,695.6,166.3,695.9,166.5
		C695.9,166.5,695.8,166.5,695.9,166.5z M647.8,217.7L647.8,217.7c0.2,0.1,0.2-0.1,0.1-0.3C647.8,217.3,647.7,217.4,647.8,217.7
		C647.8,217.7,647.8,217.6,647.8,217.7z M647.6,191.2L647.6,191.2C647.3,191.6,647.8,191.4,647.6,191.2
		C647.5,191.3,647.6,191.3,647.6,191.2z M696.8,158.3L696.8,158.3C697.2,158.5,697,158.1,696.8,158.3
		C696.9,158.4,696.9,158.3,696.8,158.3z M667.2,181.8L667.2,181.8c-0.2,0-0.1,0.2,0,0.3C667.3,182,667.3,181.9,667.2,181.8
		C667.1,181.8,667.2,181.8,667.2,181.8z M705.3,180L705.3,180c-0.3-0.1-0.4,0.2-0.2,0.3C705.2,180.2,705.3,180.1,705.3,180
		C705.3,180,705.3,180.1,705.3,180z M704.6,156.1L704.6,156.1c0.1,0.2,0.2,0.2,0.4,0C704.9,155.8,704.8,155.8,704.6,156.1
		C704.7,156.1,704.7,156,704.6,156.1z M675.8,147.5L675.8,147.5c-0.3,0.1-0.2,0.2,0.1,0.5C676.1,147.9,676.1,147.7,675.8,147.5
		C675.8,147.5,675.9,147.6,675.8,147.5z M728,199L728,199c0.1-0.2,0-0.3-0.3-0.2C727.7,199,727.8,199.1,728,199
		C728,198.9,727.9,199,728,199z M714.8,199.3L714.8,199.3c0.2-0.2,0-0.3-0.4-0.3C714.2,199.2,714.3,199.3,714.8,199.3
		C714.8,199.3,714.6,199.2,714.8,199.3z M711,141.4L711,141.4c-0.1-0.3-0.3-0.2-0.5,0.1C710.7,141.8,710.8,141.7,711,141.4
		C711,141.4,710.9,141.5,711,141.4z M724.6,211.6L724.6,211.6c-0.1-0.3-0.2-0.2-0.5,0.1C724.3,212,724.4,211.9,724.6,211.6
		C724.6,211.6,724.5,211.7,724.6,211.6z M696.8,146.5L696.8,146.5c0,0.3,0.2,0.3,0.5,0.1C697.3,146.3,697.1,146.3,696.8,146.5
		C696.8,146.5,696.9,146.4,696.8,146.5z M687.4,149.5L687.4,149.5c-0.2-0.2-0.3-0.2-0.5,0C687.1,149.7,687.2,149.7,687.4,149.5
		C687.3,149.4,687.3,149.6,687.4,149.5z M704.3,156.5L704.3,156.5c0.1-0.2,0-0.3-0.4-0.2C703.9,156.5,704,156.6,704.3,156.5
		C704.3,156.4,704.2,156.5,704.3,156.5z M693.7,168.9L693.7,168.9c-0.3,0.1-0.3,0.2,0,0.5C693.9,169.3,693.9,169.1,693.7,168.9
		C693.6,168.9,693.7,169,693.7,168.9z M700.4,187.1L700.4,187.1c-0.2,0.4-0.1,0.5,0.2,0.6C700.5,187.5,700.5,187.3,700.4,187.1z
		 M694.1,169.4L694.1,169.4c-0.3,0.2-0.3,0.5,0.2,0.8C694.5,169.9,694.4,169.7,694.1,169.4C694,169.6,694.2,169.7,694.1,169.4z
		 M711.8,164.9L711.8,164.9c0.2-0.3,0.4-0.7,0.7-1C712.1,164,711.8,164.4,711.8,164.9z M644.2,196.3L644.2,196.3
		c-0.3-0.6-0.7,0.3-0.8,0.5C643.8,197,644,196.9,644.2,196.3C644.2,196.2,644,196.5,644.2,196.3z M681.6,151.7L681.6,151.7
		c-0.4-0.4-1.1,0.3-0.7,0.6C681.2,152.5,681.5,152.3,681.6,151.7C681.5,151.7,681.4,152,681.6,151.7z M712.3,138.3L712.3,138.3
		c-0.4-0.1-0.8,1.2-0.6,1.6C712.1,139.5,712.1,138.8,712.3,138.3C712.2,138.3,712.2,138.6,712.3,138.3z M643.4,197.7L643.4,197.7
		C642.3,199.9,644.2,198.5,643.4,197.7C643.3,198,643.7,198,643.4,197.7z M710.1,142.6L710.1,142.6c-0.1,0-1.5,1.8-1.8,2.1
		C708.9,145.1,710,143,710.1,142.6C710.1,142.6,709.8,143.5,710.1,142.6z M696,173.7L696,173.7c0-0.8-0.8-1.2-0.5-2.1
		C694.8,172,695.3,173.3,696,173.7C696,173.4,695.4,173.3,696,173.7z M647.8,216.5L647.8,216.5c0.5,0,0.4-2.6,0.3-3
		C647.6,213.6,647.8,216.1,647.8,216.5C647.9,216.5,647.8,216.3,647.8,216.5z M687,156.4L687,156.4c-0.3-0.4-1.8,1-1.5,1.8
		C686.2,157.6,686.6,157,687,156.4C687,156.3,687,156.5,687,156.4z M643.4,209.2L643.4,209.2c-0.6,0.4-1.1,0.3-0.5,0.9
		c-0.4,0-0.5,0.2-0.3,0.6C643.7,211,643.5,209.7,643.4,209.2C643.2,209.4,643.5,209.6,643.4,209.2z M717.3,156.7L717.3,156.7
		c0-0.6,0.7-1.4,1-1.9c-0.3-0.2-1.9,1.8-2.2,2.2C716.7,157.5,716.8,157,717.3,156.7C717.3,156.3,717.2,156.8,717.3,156.7z
		 M681.6,151.2L681.6,151.2c1.5,0.9,3.7-0.6,5.2-1.5c-0.6-0.5-2.2,0.3-2.8,0.6C683,150.9,682.7,151,681.6,151.2
		C682,151.5,681.9,151.2,681.6,151.2z M685.8,151.6L685.8,151.6c-1.1-0.5-2.9,1.4-3.8,1.8c-0.3,0.2-2,2.2-1.3,2.1
		c0.9-0.2,1.5-1.3,2.2-2C683.8,152.5,684.9,152.4,685.8,151.6C685.3,151.4,685.4,152,685.8,151.6z M705.3,189L705.3,189
		c0.6,0.1,0-3.5,0-4c0-0.8,0.3-3.9-0.4-4.4c-0.4,1-0.5,2.1-0.5,3.3c0.2,0.1,0.3,0,0.4-0.3C704.7,185.4,704.6,187.3,705.3,189
		C705.4,189,704.6,187.2,705.3,189z M666.4,222.9L666.4,222.9C666.4,222.9,666.4,222.8,666.4,222.9
		C666.4,222.9,666.4,222.9,666.4,222.9z M673.3,195.6L673.3,195.6L673.3,195.6L673.3,195.6L673.3,195.6L673.3,195.6L673.3,195.6
		L673.3,195.6L673.3,195.6L673.3,195.6L673.3,195.6L673.3,195.6L673.3,195.6L673.3,195.6L673.3,195.6L673.3,195.6L673.3,195.6
		L673.3,195.6L673.3,195.6L673.3,195.6L673.3,195.6L673.3,195.6L673.3,195.6L673.3,195.6L673.3,195.6L673.3,195.6L673.3,195.6
		L673.3,195.6L673.3,195.6L673.3,195.6L673.3,195.6L673.3,195.6L673.3,195.6L673.3,195.6L673.3,195.6L673.3,195.6L673.3,195.6
		L673.3,195.6L673.3,195.6L673.3,195.6L673.3,195.6L673.3,195.6L673.3,195.6L673.3,195.6L673.3,195.6L673.3,195.6L673.3,195.6
		L673.3,195.6L673.3,195.6L673.3,195.6L673.3,195.6L673.3,195.6L673.3,195.6L673.3,195.6L673.3,195.6L673.3,195.6L673.3,195.6
		L673.3,195.6L673.3,195.6L673.3,195.6L673.3,195.6L673.3,195.6L673.3,195.6L673.3,195.6L673.3,195.6L673.3,195.6L673.3,195.6
		L673.3,195.6L673.3,195.6L673.3,195.6L673.3,195.6L673.3,195.6L673.3,195.6L673.3,195.6L673.3,195.6L673.3,195.6L673.3,195.6
		L673.3,195.6L673.3,195.6L673.3,195.6L673.3,195.6L673.3,195.6z M675.5,218.5L675.5,218.5c-0.2,0-0.2,0.2,0,0.4
		C675.7,218.9,675.7,218.7,675.5,218.5C675.4,218.5,675.5,218.6,675.5,218.5z M668.5,221.9L668.5,221.9c1,0.5,0.8-0.1,0.2-0.8
		C668.4,221.3,668.4,221.5,668.5,221.9C668.7,222,668.6,221.7,668.5,221.9z M674.6,208.1L674.6,208.1c-0.5-0.1-0.6,1.8-0.4,2.2
		C674.7,209.7,674.5,208.8,674.6,208.1C674.5,208.1,674.6,208.3,674.6,208.1z M668.4,222.8L668.4,222.8c-0.2-0.7-0.9-0.6-1.5-0.5
		c-0.3,0-0.2,1.1,0.4,0.2C667.5,222.9,667.9,223,668.4,222.8C668.3,222.4,668.1,222.8,668.4,222.8z M674.3,214.2L674.3,214.2
		c-0.5,0,0.8,3.7,0.9,4C675.5,218.2,674.4,214.8,674.3,214.2C674.3,214.2,674.7,215.6,674.3,214.2z M676,213.7L676,213.7
		c-0.3,1.5,2.3,7.2,3.5,7.7C678.4,218.8,677.2,216.2,676,213.7z M672,223.1c0.4-1,4.1-0.2,4.9-0.1c0.4-0.6-2.4-3.8-2.5-4.6
		c-0.1-0.8-0.7-1.7-0.9-2.4c-0.3-1.1-0.3-2.3-0.4-3.4c-0.2-2,0-3.8,0.7-5.7c0.2-0.5,0.9-2.4,1.5-2.4c0.5-0.1,1.3,0.6,1.1,1.2
		c-1.2,4.3-0.1,7.9,1.8,11.7c0.9,1.8,1.6,3.6,2.8,5.2c0.1,0.2,0.2,1.3,0.3,1.3c0.6,0.2,1.3,0.7,1.8,0.9c-1.6,1.3-3.9-2.5-5.1-1.6
		c-0.8,0.6-2,0.1-3,0.1c-1.3,0-2.7-0.1-4,0.1c0.4,0.4,0.4,0.8,0.1,1.2c-1.3-1.4-2.5-1.2-4.3-1.3c-0.5,0-1,0-1.5-0.1
		c-0.1-0.6-0.9-0.9-0.4,0c-0.5,0-2.4-0.3-2.3,0.3c0.2,1.1-1.3-0.4-1.6-0.4c-1.3,0.1-6.3,0.6-6.6-0.9c2,0.4,4.4,0.5,6.7,0.3
		c-0.2-0.8-0.5-0.6-1.1-0.5c0-0.3,0.1-0.5,0.4-0.6c0-0.3-0.7-1.4-0.8-1.7c-0.5-1.3-0.8-2.6-0.9-3.9c-0.2-2.6-0.2-4.4,0.5-6.9
		c0.1-0.4,0.2-0.8,0.3-1.1c0.3-0.5,1,0.3,1,0.6c-0.1,0.9-0.6,2-0.5,2.9c0,0.7,0.3,5.6,1,5.6c0.1-0.3,0.3-2.4,1-2.1
		c0.9,0.5,0.5,2.6,0.7,3.4c0.2,1.2,0.5,2.2,1.2,3.3c0.6,0.9,2.4-0.2,2.2,0.9c0,0,1.7-0.4,2-0.4c-0.6-1.4-1.8-2.6-2.4-4.1
		c-0.5-1.5-1.2-2.9-1.7-4.4c-1-3.1,0.6-6,1.8-8.7c0.6-1.4,1.5-2.8,2.4-4c0.5-0.6,0.9-1.3,1.2-2c0.3-0.5,0.7-0.1,1-0.5
		c0.9-1.1,1.9-1.9,2.8-3c0.9-1.1,1.4-0.8,2.2-1.6c0.6-0.7-0.1,1.9-0.4,2.2c-0.9,1.2-1.8,2.3-2.5,3.6c-1.5,2.5-3.6,4.9-4.5,7.6
		c-0.9,2.9-1.7,6.7-0.4,9.5c0.8,1.6,1.5,3.1,2.2,4.7C670.4,222.5,671.7,222.1,672,223.1C672.3,222.2,671.8,222.4,672,223.1z
		 M676.5,177.1L676.5,177.1C676.5,177.1,676.4,177.2,676.5,177.1C676.5,177.1,676.5,177.1,676.5,177.1z M672.6,189.4L672.6,189.4
		c0.4,0.2,0.8-0.8,0.4-1C672.9,188.7,672.8,189,672.6,189.4C672.7,189.4,672.8,189,672.6,189.4z M673.4,185.5
		c0.9-2.4,2.5-7.2,1.4-9.6c-0.7,0.5-0.5,2.2-1.4,2.3c-0.4,0.1-1,1.6-1.3,0.8c-0.6-1.4,0.2-2.7,0.5-4.1c0.2-0.7,1-3,0.7-3.7
		c-0.5-0.9,0.1-2.7,0.2-3.6c0.1-1.1-0.4-2.7-0.9-3.7c-0.3-0.7-0.5-1.6-0.6-2.3c-0.3-2.3,1.4-0.2,1.9,0.5c1.2,1.9,2.8,3,4,4.9
		c0.6,1,1.9,2.5,1.4,3.8c-0.1,0.3,0.3,1,0.3,1.4c0,0.6-0.2,1.2-0.1,1.8c0.6,4.8-1.7,10.1-4.2,14.2c-1,1.7-1.8,3.5-2.6,5.3
		c-0.7,1.5-0.8-0.2-1.3,0.8c-0.3,0.6-1.2,1.9-1.6,2.4c-0.7,0.7-1.5,1.2-2.3,2c-0.7,0.8-0.9,1.7-1.5,2.6c-0.4,0.6-2.7,6-3.2,5.7
		c-0.5-0.3-0.5-2-0.4-2.4c0.3-1.4,0.9-2.6,1.5-3.8c1.2-2.1,2.5-3.7,3.9-5.5c0.7-1,1.6-2,2.1-3.1c0.3-0.7,1.3-1.2,1.5-2
		c0.2-0.6,0.7-1.3,1.1-2c0.3-0.6,0.6-1.2,0.9-1.8c0.1-0.2-0.1-0.8-0.1-0.9C673.1,185.5,673.3,185.5,673.4,185.5
		C673.6,185.1,673.3,185.6,673.4,185.5z M654.7,220.1L654.7,220.1C654.6,220,654.6,220.2,654.7,220.1
		C654.7,220.1,654.7,220.1,654.7,220.1z M659.3,201.5L659.3,201.5L659.3,201.5L659.3,201.5L659.3,201.5L659.3,201.5L659.3,201.5
		L659.3,201.5L659.3,201.5L659.3,201.5L659.3,201.5L659.3,201.5L659.3,201.5L659.3,201.5L659.3,201.5L659.3,201.5L659.3,201.5
		L659.3,201.5L659.3,201.5L659.3,201.5L659.3,201.5L659.3,201.5L659.3,201.5L659.3,201.5L659.3,201.5L659.3,201.5L659.3,201.5
		L659.3,201.5L659.3,201.5L659.3,201.5L659.3,201.5L659.3,201.5L659.3,201.5L659.3,201.5L659.3,201.5L659.3,201.5L659.3,201.5
		L659.3,201.5L659.3,201.5L659.3,201.5L659.3,201.5L659.3,201.5L659.3,201.5L659.3,201.5L659.3,201.5L659.3,201.5L659.3,201.5
		L659.3,201.5L659.3,201.5L659.3,201.5L659.3,201.5L659.3,201.5L659.3,201.5L659.3,201.5L659.3,201.5L659.3,201.5L659.3,201.5
		L659.3,201.5L659.3,201.5L659.3,201.5L659.3,201.5L659.3,201.5L659.3,201.5L659.3,201.5L659.3,201.5L659.3,201.5L659.3,201.5
		L659.3,201.5L659.3,201.5L659.3,201.5L659.3,201.5L659.3,201.5L659.3,201.5L659.3,201.5L659.3,201.5L659.3,201.5L659.3,201.5
		L659.3,201.5L659.3,201.5L659.3,201.5L659.3,201.5L659.3,201.5L659.3,201.5L659.3,201.5L659.3,201.5L659.3,201.5L659.3,201.5
		L659.3,201.5L659.3,201.5L659.3,201.5L659.3,201.5L659.3,201.5L659.3,201.5L659.3,201.5L659.3,201.5L659.3,201.5L659.3,201.5
		L659.3,201.5L659.3,201.5z M652.6,218.8L652.6,218.8c-0.2-0.1-0.1,0.2-0.1,0.3C652.6,219.1,652.6,219,652.6,218.8
		C652.6,218.8,652.6,218.9,652.6,218.8z M646,221.3L646,221.3L646,221.3L646,221.3 M712.5,224L712.5,224L712.5,224L712.5,224
		L712.5,224L712.5,224L712.5,224L712.5,224L712.5,224L712.5,224L712.5,224L712.5,224L712.5,224L712.5,224L712.5,224L712.5,224
		L712.5,224L712.5,224L712.5,224L712.5,224L712.5,224L712.5,224L712.5,224L712.5,224L712.5,224L712.5,224L712.5,224L712.5,224
		L712.5,224L712.5,224L712.5,224L712.5,224L712.5,224L712.5,224L712.5,224L712.5,224L712.5,224L712.5,224L712.5,224L712.5,224
		L712.5,224L712.5,224L712.5,224L712.5,224L712.5,224L712.5,224L712.5,224L712.5,224L712.5,224L712.5,224L712.5,224L712.5,224
		L712.5,224L712.5,224L712.5,224L712.5,224L712.5,224L712.5,224L712.5,224L712.5,224L712.5,224L712.5,224L712.5,224L712.5,224
		L712.5,224L712.5,224L712.5,224L712.5,224L712.5,224L712.5,224L712.5,224L712.5,224L712.5,224L712.5,224L712.5,224L712.5,224
		L712.5,224L712.5,224L712.5,224L712.5,224L712.5,224L712.5,224z M705.3,215.7L705.3,215.7C705.1,215.5,705.2,215.8,705.3,215.7
		C705.3,215.7,705.3,215.7,705.3,215.7z M705.9,216.1L705.9,216.1c-0.2,0.2,0.1,0.5,0.3,0.3C706.1,216.3,706,216.2,705.9,216.1
		C705.9,216.1,706,216.2,705.9,216.1z M714,223.2L714,223.2c0-0.2-0.1-0.3-0.4-0.1C713.6,223.3,713.7,223.3,714,223.2
		C714,223.2,713.9,223.2,714,223.2z M719.7,223.2c-0.1,0.2-0.3,0.4-0.4,0.6c0.9,0.6,1.8-0.4,2.6-0.6c-0.2,1.3,0.5,0.1,1.1,0.2
		c1,0.1-0.2,0.8-0.6,0.8c-1.5,0-3,0.3-4.5,0.4c-0.7,0.1-1.3,0.4-2.1,0.4c-1.1,0-1.8-0.5-2.7-0.7c-1.1-0.1-3.7,0.7-4.3,0.3
		c0.4-0.2,0.6-1.2,1.1-0.8c0.7,0.5,1.2-0.9,2,0c0.3-1.8-4.8-3.8-6.3-4.8c-2.5-1.5-4.5-4.3-6.5-6.3c-2.1-2-3.5-4.9-4.8-7.4
		c-1.1-2.1-3.2-6.7-1.9-8.9c0.9,0.5,1.3,3,1.8,3.9c0.7,1.5,1.3,2.8,2.3,4.1c1.9,2.5,3.6,5.1,5.8,7.5c2.3,2.4,5,4.4,7.8,6.1
		c0.8,0.5,2.6,0.4,3.1,1.2c0.7,1.1-2.2,0.1-2.3,0.2c1.9,1.2,3.5,1.9,5.7,1.8c0.7,0,1.8,0.5,2.2,0.9
		C719.2,222.7,718.9,223.2,719.7,223.2C719.5,223.4,719.1,223.2,719.7,223.2z M720.9,136.4L720.9,136.4
		C720.7,136.2,720.8,136.6,720.9,136.4C720.9,136.4,720.9,136.4,720.9,136.4z M714.7,150.4L714.7,150.4
		C714.5,150.3,714.5,150.6,714.7,150.4C714.7,150.4,714.7,150.5,714.7,150.4z M715.5,149L715.5,149c-0.3-0.4-0.8,0.5-0.5,0.7
		C715.1,149.4,715.3,149.2,715.5,149C715.4,148.9,715.3,149.2,715.5,149z M720.9,138.9L720.9,138.9c0.4,0,0.2-1.4,0-1.6
		C720.8,137.8,720.9,138.4,720.9,138.9C720.9,138.9,720.9,138.4,720.9,138.9z M716.5,150.4L716.5,150.4c1.1-0.1,2.3-3.2,2.7-4
		c1.1-2.1,1.8-4.5,1.8-6.8c-0.3,0-1.5,4.1-1.7,4.7C718.5,146.4,717.5,148.3,716.5,150.4C716.6,150.3,716.7,149.9,716.5,150.4z
		 M714.6,151c-1,0.4-2.5,0.9-3.3,2.1c-0.6,1-2.3,0.1-1-0.6c0.9-0.5,1.6-1.8,2.3-2.6c0.5,0.7,0.7-1.2,1.4-1.9
		c1.3-1.4,2.6-3.6,3.2-5.4c0.8-2.3,1.3-4.9,1.6-7.3c0.2-1.4,0.8-2.2,2.1-2.5c0.1,2.6,0.5,5,0.2,7.7c-0.3,3.2-1.2,5.7-2.8,8.5
		c-2.7,4.7-7.5,8.5-12.6,10.3c-2.2,0.8-5.1,1.5-6.4,3.7c-0.5,0.9-1.9,0.4-1-0.7c0.9-1.1,2.1-2.1,3.3-2.9c2.4-1.8,5.2-2.2,7.8-3.6
		C711.2,154.8,714.5,153,714.6,151z M681.7,177.3c0.1-0.2,0.2-0.4,0.3-0.5c0.7,0.7,0.4,1.4,0.7,2.3c0.3,0.9,0.8,1.7,0.9,2.7
		c0.1,1.1,0.2,2.3,0.2,3.5c0.1,0.4-0.1,0.6-0.4,0.7c-0.4,0-0.4,1.5-0.3,1.4c-0.9,4.6-3.5,7.7-6.1,11.5c-1.2,1.8-2.6,3.1-3.5,5
		c-0.8,1.7-1.4,3.6-1.8,5.5c-0.4,1.6-1.2,4.2-0.6,5.8c0.3,0.7,1.3,2.3,1.1,3.1c-0.4,1.2-1.6-1.7-1.6-1.7c-2-4.6-0.9-8.9,1.3-13.2
		c1.9-3.6,5.4-6.4,7-10.2c0.4-0.9,1-1.6,1-2.7c0-0.4,0.1-1.5-0.7-0.7c-0.5,0.6-1,1.8-2,1.5c-1.1-0.4,0.3-2.2,0.6-2.7
		c1.2-1.9,2.4-3.8,2.9-6c0.3-1.1,0.5-2.2,0.5-3.3C681.2,178.4,680.5,177.4,681.7,177.3C681.7,177.3,681,177.4,681.7,177.3z
		 M683.2,199.8L683.2,199.8C683.1,199.6,683,199.9,683.2,199.8C683.2,199.7,683.2,199.8,683.2,199.8z M681.4,200.5
		c-0.4-0.9,2.5-4,3-4.8c1.2-2.1,1.3-3.7,1.6-6c0.1-0.8,0.3-1.8-0.2-2.6c-0.4-0.6,0.7-0.7,0.8-1.1c0.7-1.9,1.7-0.7,2.5,0.5
		c2.1,3.2,2.2,6.5,0.5,9.9c-0.3,0.5-2,4.8-2.4,4c-0.4-0.8,0.6-1.6,0.2-2.3c-0.3-0.5-0.9,0.1-0.7-0.9c0.7-3.5,5.1-6.6,1.5-10.2
		c-1.7-1.7-0.5,2.1-0.4,2.6c0.3,2.2-0.7,4.5-1.5,6.5c-1.4,3.4-3.5,7.1-3.9,10.8c-0.3,2.7,2.1,5.8,3,8.4c-1.1-0.8-1.5-0.3-2.1-1.5
		c-0.9,1.5-1.2-0.5-1.5-1.4c-0.4-1.3-0.7-2.5-1.1-3.8C679.9,205.8,679.6,203.2,681.4,200.5C681.2,200.2,681.1,200.9,681.4,200.5z
		 M687.7,177.5L687.7,177.5C687.5,177.2,687.5,177.7,687.7,177.5C687.6,177.5,687.6,177.5,687.7,177.5z M688,174.9L688,174.9
		c-0.2,0.1-0.1,0.4,0.1,0.3C688,175.1,688,175,688,174.9C687.9,174.9,688,175,688,174.9z M685.4,172.1L685.4,172.1
		c0,0.3,0,0.6,0.1,0.9C685.9,172.7,685.8,172.3,685.4,172.1z M681.9,164.7L681.9,164.7L681.9,164.7L681.9,164.7z M683.4,170.1
		c0.5,0.6,1.1,1.2,1.6,1.8c0.1-1.8-0.3-6.6-2.9-7c0.4,0.6,1.4,2.1,0.8,2.9c-0.5,0.7-1.2-1.2-1.4-1.4c-1.8-2.2-4.3-4.4-6.6-6
		c-0.7-0.5-2.8-1.6-2.5-2.7c0.1-0.3,1.9,0.7,2.4,0.6c2.1-0.5,5.5,2.6,6.9,3.8c4.6,3.9,7.3,10.6,7,16.4c0,0.4-0.4,3.6-1.1,3.3
		c-0.5-0.2-0.5-1.3-0.5-1.7c0-0.7-0.4-0.7-0.7-1.2c-0.7-1.3-0.9-2.9-1.5-4.2C684.5,173.5,682.8,171.6,683.4,170.1
		C684,170.7,683.2,170.6,683.4,170.1z M694,185.1c-0.3,0.2,0.4,3,0.5,3.4c0.4,1.5,1,2.9,1.6,4.3c0.7,1.6,1.4,3.3,2.1,5
		c0.2,0.5,2.2,3.8,0.7,3.7c-1.1-0.1-2.9-3.5-3.3-4.5c-0.8-1.7-1.1-3.9-2-5.5c-0.8-1.5-0.7-3.2-1.1-4.7c-0.5-1.8-0.8-4-0.5-5.9
		c0.1-0.8-0.7-1.8-0.9-2.6c-0.2-1.1-0.4-2.2-0.7-3.3c-0.4-1.8-1.1-3.6-2-5.2c-0.8-1.3-1.2-2.9-2.3-4.1c-0.8-0.8-1.6-1.5-2.2-2.5
		c-0.8-1.4,0.7-0.8,1.3-0.4c3.1,2.4,5.1,6.4,6.5,10c0.7,1.9,1.2,3.5,1.4,5.5C693.2,180.3,692.8,183.3,694,185.1
		C693.7,185.3,693.8,184.9,694,185.1z M707.4,225L707.4,225C707.6,224.9,707.3,224.9,707.4,225C707.4,225,707.4,225,707.4,225z
		 M689.8,201.9c-1.3,3.2,0.5,6.9,2,9.7c0.7,1.3,1.4,2.8,2.6,3.8c0.8,0.7,2.8,1.4,0.9,1.9c-2.5,0.6-4.9-4-5.6-6c-1-3-2-7.2-1-10.3
		c1.1-3.4,3.3,2.8,3.6,4c0.7,3.1,2.2,6,4.2,8.5c2.1,2.6,4.8,5.7,7.9,7.1c1,0.5,1.3,1,2.2,1.5c1.7,1,1.5,1.2,2.2,2.8
		c-1,0.7-2.8,0.3-3.9,0.1c0.2,0.8-0.7,0.6-1,0.2c-0.3-0.5,0.4-1.5,1-1.2c0.4-1.3,3.4,2.1,3.4,0.2c-0.6,0.3-0.8-0.3-1.6-0.3
		c0.5-0.9-0.8-1.2-1.6-1.6c-1.4-0.7-2.6-1.7-3.8-2.6c-1.6-1.3-3.2-2.7-4.5-4.3c-1.7-2-3.2-4-4.2-6.3
		C692.1,208.3,690.5,201.9,689.8,201.9C689.7,202.1,689.8,201.9,689.8,201.9z M683.9,220.5L683.9,220.5
		C683.9,220.6,684,220.5,683.9,220.5C683.9,220.5,683.9,220.5,683.9,220.5z M686.3,219.2L686.3,219.2
		C686.2,219.4,686.4,219.3,686.3,219.2C686.3,219.3,686.3,219.3,686.3,219.2z M685.6,223.6L685.6,223.6c-0.5-0.5-0.9-0.9-1.4-1.3
		C683.9,222.8,684.6,223.4,685.6,223.6z M687.2,225.7c-0.6-1-1.4-0.7-2.4-1.3c-1.2-0.7-2.2-1.7-2.8-2.9c-1.4-3.1-3.3-6.7-3.5-10.1
		c-0.1-1.2-0.6-4.2,0-5.2c0.7-1.2,1.1,2,1.1,2.2c-0.1,2,0.9,3.8,1.6,5.7c0.7,1.6,1.6,4.4,3.1,5.4c-0.5-1.5-0.1-0.8,0.7-1.1
		c0.3-0.1-0.3-0.8,0.1-1c0.5-0.2,0.7,1,0.8,1.2c0.1,0.2,1.4,0.9,0.8,1.2c-0.6,0.3,0.4,1.2,0.5,1.4c0.5-0.4,0-0.7-0.3-1
		c0.7-0.6,1.8,2.6,1.7,3.4c-0.1,1-0.9,0.2-1.2,0.6C687.1,224.4,687.7,225.4,687.2,225.7C687,225.5,687.2,225.6,687.2,225.7z
		 M691.7,220.7L691.7,220.7c0.3-0.2,0.2-0.5-0.4-0.7C691,220.2,691.1,220.5,691.7,220.7C691.7,220.7,691.5,220.5,691.7,220.7z
		 M686.9,212.2L686.9,212.2c-0.7,0.2,3.1,8,4,7.3C690.1,217,688,214.6,686.9,212.2C686.8,212.2,687.4,213.3,686.9,212.2z M693,221.2
		c0.7,0.8,1.4,1.3,2.2,1.9c0.4,0.4,0.5,1.4-0.2,0.9c-2-1.4-4.1-2.9-5.6-4.8c-1.4-1.8-2.4-4-3.1-6.1c-0.7-2.4-2-5.7-1.2-8.1
		c0.1-0.5,0.7-0.5,0.8,0.1c0.2,1.3,0.3,2.6,0.7,3.9c0.8,2.5,2,4.9,3.4,7.1c1.2,1.9,3,4.4,5,5.6c1.1,0.7,4.5,1.7,4.1,3.3
		c-0.6-0.2-1-0.7-1.6-0.5c-0.4,0.1-0.6-0.5-0.9-0.7C695.5,223,694.3,221.4,693,221.2C693.6,221.8,693.1,221.2,693,221.2z
		 M725.2,223.2L725.2,223.2c0-0.2-0.1-0.2-0.3-0.1C724.9,223.3,725,223.4,725.2,223.2C725.2,223.2,725.1,223.2,725.2,223.2z
		 M725.7,223.4c0.1,0.1,0.1,0.2,0.2,0.3c-0.5,0-0.9,0-1.4,0c-0.2-0.9,0-1.1-1-1.4c-1.2-0.4-2.3-0.6-3.5-1c-1.7-0.4-5.7-0.9-6.7-2.5
		c-1.5-2.5,2.6-0.3,3.2-0.2c1.9,0.4,3.5,0.7,5.4,0.6c0.1,0.2,0,0.3-0.2,0.4c0.8,0.1,1.6,0,2.4-0.1c0.5,0,1.1,0,1.6-0.1
		c1.5,0,0.5-0.1,1.2-1c2,1.9-2.2,2.1-0.8,4.4c0.9-0.9,0.8-0.6,1.4,0c0.6,0.6,1.4-1,2.1-0.6c0.6,0.4-1,1-1.2,1
		C728.1,223.7,726.1,223.4,725.7,223.4z M714.1,182.1c0,1-0.1,2-0.1,3c0,0-0.1,3.2-0.7,2c-0.5-1-0.2-2.4-0.2-3.5
		c-0.1-1.1-0.4-2.1-0.1-3.3c0.2-1.1-0.2-2.8-0.3-3.9c0-0.7,0.4-3.3,0.1-3.8c-0.3-0.5-1.4-1.3-0.2-1.8c0.5-0.2,1.1,0.2,1.5,0
		c0.9-0.3,1.8-0.3,2.7-0.3c1.3,0,6.9-1,7.5,0c0.8,1.4-5,1.3-6,1.2c-1.3-0.1-5.4-0.3-4.8,2.1C714.3,176.5,713.4,179.5,714.1,182.1
		C714.1,182.3,714,181.6,714.1,182.1z M663.7,167.1c-0.4,0.9-0.1,1.5-0.3,2.4c-0.2,1.1-0.8,2-1.5,2.9c-0.6,0.8-1.5,1.8-2.5,2.2
		c-0.4,0.1-2.5,0.2-1.4-0.6c0.9-0.6,6.2-4.8,2.7-4.6c-1.1,0.1-2.4-0.1-3.4-0.6c-0.2-0.1-3.3-1.3-2.5-1.9c0.5-0.4,3.5,1,4.4,1
		C660.1,167.8,663.8,166.3,663.7,167.1C663.7,167.1,663.8,166.7,663.7,167.1z M711,177.3c-0.2,1.8-0.4,4-0.1,5.8
		c0.1,0.8,1.2,4.3,0.7,4.9c-0.8,1.1-1.5-2.3-1.6-2.6c-0.4-1.8,0.2-4.3-0.5-6c-0.6,1-0.5,2.5-1.4,3.2c-0.9,0.8-0.2-2.8-0.2-2.9
		c0.1-0.4,1.4-2.5,1.3-2.7C708.7,175,711.2,175.6,711,177.3C710.9,177.7,711,176.9,711,177.3z M663.4,135.1c-0.5,0.3-3.4-0.9-4.1-1
		c-1.5-0.2-3-0.2-4.5-0.3c-0.3,0-3.1-0.1-2.9-0.8c0.1-0.3,3.2-0.5,3.6-0.5c3.4,0,6.9-0.2,10.3-0.2c0.5,0,0.8,0.4,0.6,0.9
		c-0.2,0.5-2.1,0.4-2.6,0.3C662.2,133.4,663.1,133.9,663.4,135.1C663.4,135.1,663.4,135,663.4,135.1z M721.4,167.8
		c-0.3,1.3-9.9,0.4-5.1-2.8c1.7-1.1,2.5-1.9,4.7-2.2c0.7-0.1,2-0.4,2.2,0.6c0.1,0.6-0.3,0.7-0.7,0.4c-1.4-0.9-4.1,0.8-5.2,1.6
		c-2.3,1.6,1.5,1.4,2.4,1.3c0.7-0.1,1.5-0.5,2.2-0.3c0.3,0.1,0.4,0.5,0.7,0.6C725.4,167.1,723.1,168.6,721.4,167.8
		C721.3,168.4,721.7,168,721.4,167.8z M689.1,133.5c-1.9,0.2-3.9,0-5.8,0.1c-1.9,0.1-3.9,0.4-5.8,0.3c-1.8,0-3.4,0.4-5.2,0.1
		c-1-0.2-3.2-1-0.8-1.1c4.2-0.1,8.5-0.3,12.7-0.3c2,0,4,0,6,0C693.4,132.6,689.1,134.3,689.1,133.5
		C688.7,133.6,689.1,133.6,689.1,133.5z M646.4,178.6c0,0.3-0.3,1.8,0.1,1.9c0.4,0.2,2.7-1.7,3.2-2c1.1-0.6,2.4-1,3.5-1.5
		c1.2-0.5,1.4,1-0.1,1.3c-1.6,0.3-3.1,1.1-4.3,2.1c-0.4,0.3-3.5,4-4,3.2c-0.6-0.8,0.2-2.6,0.3-3.6c0.1-1.2-0.2-3.3,0.4-4.3
		C645.8,176,646.6,178.6,646.4,178.6C646.3,179.1,646.4,178.6,646.4,178.6z M691.2,138.1L691.2,138.1
		C691.2,138.2,691.3,138.2,691.2,138.1C691.2,138.1,691.2,138.1,691.2,138.1z M693.4,138.1L693.4,138.1c0.5-0.2,0.6-0.5,0.3-0.7
		C693.2,137.5,693.1,137.8,693.4,138.1C693.5,137.9,693.3,137.9,693.4,138.1z M694.7,137.7c0.4,0.1,0.5,0.4,0.5,0.7
		c-0.1,0.3-1.9,0.8-1.9,0c-0.6,0.3-1.2-0.4-1.5,0.1c-0.3,0.5-2.8-0.1-3.3-0.1c-2.1,0.1-5.2,1.7-6.6,3.3c-1.4-0.9,3.2-3.2,3.9-3.5
		c2.3-0.8,4.5-1.3,6.9-1.2c0.2,0,6.2,0,5.3,1.2C697.4,138.7,694.7,137,694.7,137.7C694.8,137.8,694.7,137.6,694.7,137.7z
		 M666.2,136.1c0.8-2.4,6.4-0.3,8.2,0.1c1.5,0.4,3.5,1,4.7,2c0.5-0.3,3.3-1.8,3.7-1.2c-1,0.5-2.8,1.1-3.2,2.3c0-0.1-2.7-1.3-3.2-1.5
		c-1.5-0.5-2.9-0.9-4.5-1.3C671,136.4,666.4,136.6,666.2,136.1C666.3,135.9,666.4,136.6,666.2,136.1z M707.4,183.6
		c0.1,1,1.1,1.9,0.3,2.7c0.9,0.1,0.7,1.2,0.8,1.8c0.2,1.3,0.8,2.5,1.8,3.4c1,0.9,2.1,1.5,3.2,2.2c1.7,1,0.5,1.3-0.8,0.7
		c-2.1-1-4.1-2.4-5.1-4.5C707.3,189.2,705.9,183.5,707.4,183.6C707.4,183.9,707.3,183.6,707.4,183.6z M678.3,200.1
		c0.2-1.9,1.6-3,2.7-4.5c0.4-0.5,2.4-4.5,3-3.5c0.6,1-1.9,4.9-2.4,5.9C680.9,199.3,679.2,203,678.3,200.1
		C678.5,198.7,678.4,200.4,678.3,200.1z M716.8,195.1c2.2,0,4.3-0.2,6.5-0.5c0.3-0.1,0.6,0,0.7,0.3c0.2,0.7-1.5,0.8-1.6,0.8
		c-0.5,0.1-3.7,0.2-3.7,0.7c1.1,0.6,2.4,0.9,3.6,1.3c0.5,0.2,2.5,1.4,0.7,1.3C720.5,198.8,716.5,198.1,716.8,195.1
		C717.5,195.1,716.7,195.4,716.8,195.1z M647.7,162.4c0,0.5,0.1,3.7-0.9,3c-0.9-0.6-0.2-3-0.2-3.8c0-0.4-0.1-4.6,0.4-4.6
		c1.1,0.1,0.9,1.8,1.1,2.5c0.3,1.4,0.6,2.8,1.7,3.9c0.4,0.4,2.1,1.1,2.2,1.6C652.4,166.7,647.2,162.5,647.7,162.4
		C647.7,162.8,647.7,162.4,647.7,162.4z M725.7,151c-0.6,0.8-0.8,1.8-1.8,2.1c-0.3-1,0.5-1.8,1-2.6c0.2-0.3,1.3-2,1.2-2.3
		c-0.2-1.3,1.4,0.1,1.3,1.1c-0.3,1.9-0.7,3.8-0.9,5.7c0,0.1-0.5,3.8-1.3,2.5C724.6,156.3,726.7,151.6,725.7,151
		C725.6,151.2,725.8,151.1,725.7,151z M679.7,147.2c0,0.2-0.1,0.3-0.1,0.5c-0.3-0.9-0.2-1.8-0.6-2.6c-0.5-0.9-1.4-1.6-2.1-2.3
		c-0.4-0.4-2.5-1.9-2.2-2.6c0.3-0.6,2.7,1.7,2.9,2c0.9,1,1.5,2,2.1,3.3c0.4,0.8,2-1,2.5-1.2c0.8-0.4,4.9-2.2,5.6-1.3
		c-2.5,1.2-6.3,1.8-7.5,4.7C680,147.5,679.8,147.3,679.7,147.2C679.6,147.4,679.9,147.4,679.7,147.2z M655.6,170.9
		c0.7,0,1,0.3,0.9,1c-0.1,0.6-2.1,0.5-2.6,0.8c-1.7,0.9-3.6,1.7-4.6,3.4c-0.3,0.5-0.8,1-1.4,0.4c-0.4-0.4,1.5-2.1,1.8-2.3
		C651.2,172.5,653.2,171,655.6,170.9C656.4,171,655.5,170.9,655.6,170.9z M695.2,133.3c2.2-0.1,4.4-0.3,6.6-0.4c1,0,1.9,0,2.9,0.2
		c0.9,0.2,0.2,1-0.4,1.1c-2,0.2-4.1,0-6.2,0c-1,0-2.1,0.1-3.1,0C694.3,134.1,694.4,133.2,695.2,133.3
		C695.6,133.3,694.7,133.2,695.2,133.3z M648.4,169.1L648.4,169.1C648.2,168.9,648.2,169.2,648.4,169.1
		C648.3,169,648.3,169.1,648.4,169.1z M647.3,170.1c0,1-0.1,2.1-0.2,3.1c-0.2,1.1-1.2,0.2-1.2-0.4c0.1-1.1,0.4-2.2,0.3-3.3
		c-0.2-1.5,0.6-1.1,1.9-1.1c1.2,0,2.3-0.1,3.4-0.3c1.2-0.2,0.7,0.6,0.3,1C650.9,170.2,648.4,168.8,647.3,170.1
		C647.2,170.7,647.3,170.1,647.3,170.1z M660.6,144.1c0.5,2.1-4.9,3.8-5.6,1.7c-0.4-1.3,2-2.3,3-1.9c0.3,0.1,0.3,0.8,0.5,0.8
		C659.3,144.9,659.8,144.2,660.6,144.1C660.7,144.5,660.5,144.1,660.6,144.1z M722.9,155.1c1.1,1.5-1.6,3-2.4,4.3
		c0.7,0,3.6-1.4,3.6,0c0,1.3-1.9,0.9-2.9,1.1C716.7,161.4,722,156.4,722.9,155.1C723.1,155.3,722.7,155.4,722.9,155.1z M723.1,188.2
		c-1.7-0.6-0.3-5.1-0.8-6.5c-0.3-1-5.2-0.8-4.8-1.4c0.1-0.1,2.3-0.3,2.5-0.2c0.9,0.1,2.2-0.4,2.8,0.5c0.6,1,0.4,2.3,0.4,3.4
		C723.2,185.3,723.6,187,723.1,188.2C722.3,187.9,723.2,188,723.1,188.2z M724.2,190.2c0,0.7-5,1.4-5.8,1.5c-1,0.1-3.6,0.6-4.4,0.2
		c-1.2-0.6,1.2-0.9,1.2-0.9c1.2,0,2.4-0.2,3.5-0.2C719.3,190.7,724.2,189.5,724.2,190.2C724.2,190.6,724.2,189.9,724.2,190.2z
		 M719.5,177.4c-1.6,0-2.4,0.2-3.6-0.7c-0.7-0.6,3.3-0.5,3.6-0.6c0.7,0,3.4-0.9,3.4,0.5C722.8,177.6,719.5,177.3,719.5,177.4
		C718.8,177.4,719.5,177.5,719.5,177.4z M655.3,140.8c0.5-0.6,4.4-1.7,4.3-0.5C659.4,142,655.4,142.4,655.3,140.8
		C655.4,140.6,655.3,141.4,655.3,140.8z M697.3,141.5c0.5-0.1,4.4-1.3,4.4-1.3c-0.5,0.5-5.7,3.5-5.9,2.1
		C695.8,141.6,697.7,142.5,697.3,141.5C698,141.3,697.5,141.9,697.3,141.5z M681,171.8c0.4,0.6,2.1,3.3,0.5,3.2
		C680.9,175,680.6,172.1,681,171.8C681.1,172,680.9,171.9,681,171.8z M727,218.4c-0.8-0.6-0.9-4.2-0.3-5
		C727.4,214.2,727.1,217.3,727,218.4C726.9,218.3,727,217.9,727,218.4z M685.5,226.4c0.2,0.6-1.5,1-1.9,0.5
		C682.9,225.7,685.2,226.3,685.5,226.4C685.7,226.7,685,226.3,685.5,226.4z M668.6,129.7c-0.4,0-2.9,0-3-0.3
		C665.9,129.3,669.1,129.1,668.6,129.7C667.6,129.6,668.6,129.6,668.6,129.7z M652.9,129.7c1-0.1,2.8-0.5,3.7,0
		C656.4,130,652.8,130.1,652.9,129.7C654,129.6,652.9,129.8,652.9,129.7z M688.8,149.9c0.8-0.2,1.6-0.4,2.3-0.6
		c0.1,0.4-0.8,0.1-0.2,0.6C690.2,150.2,689.5,150.4,688.8,149.9C689.6,149.7,689.5,150.4,688.8,149.9z M660.9,226.8
		c0,0.1,0,0.2,0,0.3c-0.7-0.1-2.4-0.1-2.4-1C659.4,226.4,660.1,226.6,660.9,226.8C660.9,226.9,660.1,226.6,660.9,226.8z
		 M646.5,219.5c0,0.6,0.7,0.4,1,0.7c-0.7,0.6-1.6-0.3-2.1-0.8C645.8,219.5,646.2,219.5,646.5,219.5
		C646.5,220.1,646.1,219.5,646.5,219.5z M726.1,143.9c-0.1,0.8-0.1,1.8-0.6,2.4c-0.1,0-0.1,0-0.2-0.1
		C725.4,145.7,725.6,144.2,726.1,143.9C726,144.6,725.7,144.1,726.1,143.9z M723.9,149.3L723.9,149.3L723.9,149.3L723.9,149.3
		C724,149.2,723.9,149.4,723.9,149.3L723.9,149.3L723.9,149.3L723.9,149.3 M658.4,129.6c-0.4,0.2-1.4,0.2-1.6,0
		C657.4,129.3,657.9,129.6,658.4,129.6z M702.5,225.1C704.5,224.3,702.9,226,702.5,225.1C702.7,225,702.5,225.1,702.5,225.1z
		 M702.5,139c0,0.5-0.3,0.8-0.7,0.8C701.8,139.4,702,138.9,702.5,139C702.4,139.3,702.1,138.9,702.5,139z M725,147.3
		c0.2,0.4,0,0.7-0.6,1.1C724.4,148,724.6,147.7,725,147.3z M696.3,149.9c-0.3,0.2-0.6,0.4-0.8,0.6
		C695.5,149.9,695.7,149.8,696.3,149.9z M665.8,227.5c0.3-0.1,0.7-0.2,1,0.1C666.5,227.8,666.1,227.7,665.8,227.5z M697.6,225.3
		c-0.3-0.1-0.6-0.1-0.8-0.2C696.7,224.7,697.6,224.8,697.6,225.3C697.3,225.3,697.6,224.9,697.6,225.3z M700.9,225.6
		c-0.3,0.1-0.6,0-0.7-0.2C700.5,225.2,701,224.9,700.9,225.6C700.6,225.5,700.9,225.3,700.9,225.6z M662.8,129.4
		c0.4,0,0.6-0.3,0.9,0C663.6,129.4,662.7,129.9,662.8,129.4C663.1,129.4,662.8,129.4,662.8,129.4z M644.8,141.6
		c-0.4-0.5-0.4-0.3-0.1-0.7C644.9,141.1,645,141.3,644.8,141.6C644.6,141.4,644.8,141.4,644.8,141.6z M643,168.1
		c0,0.2,0.1,0.5,0.1,0.7C642.7,168.9,642.6,168.2,643,168.1C643,168.4,642.9,168.1,643,168.1z M644,149.1c0.2,0.2,0.6,0.9,0,0.9
		C644,149.7,644,149.4,644,149.1C644.3,149.4,644,149.5,644,149.1z M724.2,223.7c-0.2,0.2-0.4,0.3-0.7,0.2c0-0.1,0-0.1,0-0.2
		C723.7,223.6,724.1,223.5,724.2,223.7C724.1,223.8,724.2,223.7,724.2,223.7z M694.3,225.3c0.1-0.2,0.1-0.3,0.2-0.5
		C694.8,225,694.8,225.5,694.3,225.3C694.4,225.1,694.4,225.3,694.3,225.3z M690.1,226.1c-0.2-0.8-0.2-0.7,0.5-0.2
		C690.4,225.9,690.3,226,690.1,226.1C690.1,225.9,690.3,226,690.1,226.1z M699.6,149.3c-0.2-0.1-0.4-0.1-0.6-0.2
		C699.1,148.7,699.7,148.8,699.6,149.3C699.4,149.2,699.6,149.2,699.6,149.3z M698.5,149.2c-0.3,0.3-0.5,0.3-0.6,0
		C698.2,148.9,698.4,148.9,698.5,149.2C698.3,149.3,698.5,149.2,698.5,149.2z M677.6,129c0.2,0,0.4,0.1,0.6,0.1
		C678.1,129.6,677.5,129.5,677.6,129C677.8,129.1,677.6,129.1,677.6,129z M678.4,129c0.2,0,0.4,0.1,0.7,0.1
		C678.7,129.4,678.6,129.4,678.4,129z M676.5,129.1c0.5-0.2,0.7-0.1,0.6,0.1C676.7,129.5,676.5,129.4,676.5,129.1
		C676.8,129.2,676.5,129.2,676.5,129.1z M643.3,164c0.1,0.4,0,0.6-0.3,0.5C642.9,164.1,643,163.9,643.3,164
		C643.3,164.2,643.2,164,643.3,164z M686,226.4c0.4-0.3,0.5-0.3,0.6,0C686.2,226.7,686,226.7,686,226.4
		C686.1,226.4,686,226.5,686,226.4z M700,149.1c-0.2-0.3-0.2-0.5,0.1-0.5C700.3,148.9,700.3,149,700,149.1
		C700,148.9,700.1,149,700,149.1z M701.5,224.3c0.3-0.1,0.4-0.1,0.4,0.1C701.6,224.6,701.5,224.6,701.5,224.3
		C701.6,224.3,701.5,224.4,701.5,224.3z M695.6,226.5c-0.2,0.2-0.3,0.2-0.4,0C695.4,226.3,695.5,226.3,695.6,226.5
		C695.5,226.6,695.5,226.4,695.6,226.5z M660.9,129.5c0.2-0.2,0.4-0.2,0.4,0.1C661.1,129.8,660.9,129.7,660.9,129.5
		C661,129.5,660.9,129.6,660.9,129.5z M694,226.5c0.1-0.1,0.2-0.1,0.4-0.1C694.5,226.6,694.2,226.8,694,226.5
		C694.1,226.4,694,226.5,694,226.5z M701.9,148.7c-0.3,0.1-0.5,0.1-0.4-0.1C701.8,148.4,701.9,148.5,701.9,148.7
		C701.7,148.7,701.9,148.6,701.9,148.7z M643.4,163.2c0.1,0.3,0.1,0.4-0.1,0.4C643,163.3,643.1,163.1,643.4,163.2
		C643.4,163.3,643.3,163.2,643.4,163.2z M701.5,225.3c0,0.3-0.1,0.3-0.3,0.2C701.3,225.2,701.3,225.1,701.5,225.3
		C701.5,225.3,701.5,225.2,701.5,225.3z M661.8,227.1c0.3-0.1,0.4,0,0.4,0.2C661.8,227.4,661.7,227.3,661.8,227.1
		C661.9,227.1,661.8,227.1,661.8,227.1z M699.4,226.2c-0.3,0-0.4-0.1-0.3-0.3C699.4,225.9,699.5,226,699.4,226.2
		C699.3,226.1,699.4,226.1,699.4,226.2z M712.6,224.9c-0.3,0.1-0.4,0.1-0.4-0.1C712.5,224.7,712.7,224.7,712.6,224.9
		C712.5,224.9,712.6,224.9,712.6,224.9z M675.7,129c0.3,0.1,0.4,0.2,0.2,0.4C675.6,129.3,675.5,129.1,675.7,129
		C675.8,129.1,675.7,129,675.7,129z M712,206.6c-0.1,0-0.2-0.1-0.4-0.1C711.6,206.3,712,206.4,712,206.6
		C711.8,206.6,712,206.6,712,206.6z M661.8,129.3c0.1,0,0.2,0.1,0.3,0.1C662,129.6,661.7,129.5,661.8,129.3
		C661.9,129.3,661.8,129.3,661.8,129.3z M701,148.5c-0.2,0.2-0.3,0.2-0.4,0C700.8,148.3,701,148.3,701,148.5
		C700.9,148.6,701,148.5,701,148.5z M691.7,225.8c-0.1-0.2,0-0.3,0.1-0.3C691.9,225.8,691.9,225.9,691.7,225.8
		C691.7,225.7,691.8,225.8,691.7,225.8z M649.8,220.8c0.3-0.2,0.4-0.1,0.4,0.1C649.9,221.1,649.8,221,649.8,220.8
		C649.9,220.8,649.8,220.9,649.8,220.8z M688.5,142.7c-0.2,0.1-0.3,0.1-0.3-0.1C688.4,142.5,688.5,142.5,688.5,142.7
		C688.4,142.7,688.5,142.6,688.5,142.7z M693.6,225.4c-0.2,0-0.3-0.1-0.2-0.2C693.7,225.2,693.7,225.3,693.6,225.4
		C693.5,225.4,693.6,225.4,693.6,225.4z M659.4,221.4c0.1,0.1,0.1,0.2,0,0.3C659.3,221.5,659.3,221.4,659.4,221.4
		C659.5,221.4,659.4,221.4,659.4,221.4z M692.4,225.1c0.2-0.1,0.3-0.1,0.3,0.1C692.5,225.4,692.3,225.3,692.4,225.1
		C692.5,225.1,692.4,225.2,692.4,225.1z M675.1,129.3c-0.2,0-0.3,0-0.2-0.2C675.1,129.1,675.2,129.1,675.1,129.3
		C675,129.3,675.1,129.3,675.1,129.3z M687.6,226.8c0.2-0.1,0.3,0,0.3,0.2C687.6,227.1,687.5,227,687.6,226.8
		C687.7,226.8,687.6,226.9,687.6,226.8z M642.9,170.2c0-0.1,0-0.2,0-0.4C643.2,169.7,643,170.1,642.9,170.2
		C642.9,170,643,170,642.9,170.2z M693.6,226.7c-0.1-0.2-0.1-0.3,0.1-0.3C693.8,226.7,693.7,226.7,693.6,226.7
		C693.6,226.6,693.6,226.7,693.6,226.7z M702.8,224.3C702.5,224.6,702.5,224.1,702.8,224.3C702.7,224.4,702.7,224.3,702.8,224.3z
		 M644.8,139.4c-0.1-0.1-0.1-0.2,0-0.2C644.9,139.2,644.9,139.3,644.8,139.4C644.8,139.3,644.9,139.3,644.8,139.4z M727.7,222.3
		C727.9,222.7,727.5,222.6,727.7,222.3C727.8,222.4,727.7,222.4,727.7,222.3z M695.5,142.2C695.3,142.3,695.3,142,695.5,142.2
		C695.4,142.2,695.5,142.2,695.5,142.2z M670.1,227.6C669.9,227.1,670.3,227.5,670.1,227.6C670.1,227.5,670.2,227.6,670.1,227.6z
		 M678.8,223.5c-0.1,0.1-0.2,0.1-0.3,0C678.6,223.3,678.7,223.3,678.8,223.5C678.7,223.5,678.7,223.4,678.8,223.5z M660.3,129.6
		C660.1,129.7,660.1,129.4,660.3,129.6C660.3,129.6,660.3,129.6,660.3,129.6z M643.9,151.4c-0.2,0.2-0.3,0.1-0.3,0
		C643.7,151.3,643.8,151.3,643.9,151.4C643.7,151.4,643.7,151.3,643.9,151.4z M665.3,227.3C665.3,227.7,665,227.3,665.3,227.3
		C665.3,227.4,665.2,227.3,665.3,227.3z M680.8,129C681,129.2,680.6,129.2,680.8,129C680.8,129,680.8,129,680.8,129z M671.6,227.3
		C671.3,227.5,671.3,227.1,671.6,227.3C671.5,227.4,671.5,227.3,671.6,227.3z M651.4,130.2C651.1,130.2,651.3,130,651.4,130.2
		C651.3,130.2,651.4,130.2,651.4,130.2z M655.9,156.9C656,156.7,656.1,157,655.9,156.9C655.9,156.8,655.9,156.9,655.9,156.9z
		 M687,226.4C686.6,226.3,687,226.2,687,226.4C687,226.3,687,226.3,687,226.4z M694.3,148.7C694,148.8,694.1,148.5,694.3,148.7
		C694.2,148.7,694.3,148.7,694.3,148.7z M672,129.4C672.2,129.3,672.3,129.4,672,129.4C672,129.4,672,129.4,672,129.4z M665.7,169.3
		C665.5,169.4,665.4,169.1,665.7,169.3C665.6,169.3,665.6,169.2,665.7,169.3z M693.2,226.7C692.9,226.7,693.1,226.5,693.2,226.7
		C693.1,226.7,693.1,226.7,693.2,226.7z M674.1,224.7C673.8,224.8,674,224.5,674.1,224.7C674,224.7,674,224.7,674.1,224.7z
		 M695.3,225.6C695.2,225.8,695.1,225.4,695.3,225.6C695.3,225.6,695.3,225.6,695.3,225.6z M713.9,207.5
		C714,207.7,713.8,207.6,713.9,207.5C714,207.6,713.9,207.6,713.9,207.5z M723.4,150.9C723.2,151,723.2,150.8,723.4,150.9
		C723.3,150.9,723.3,150.9,723.4,150.9z M662.9,227.3C662.9,227.1,663,227.2,662.9,227.3C662.9,227.3,662.9,227.3,662.9,227.3z
		 M677.3,227.5C677.4,227.7,677.2,227.6,677.3,227.5C677.3,227.5,677.3,227.5,677.3,227.5z M643,166.1
		C642.9,166.2,642.9,166,643,166.1C643,166.1,643,166.1,643,166.1z M649.3,220.5C649.3,220.6,649.2,220.5,649.3,220.5
		C649.3,220.6,649.3,220.5,649.3,220.5z M644.6,146.9C644.4,147,644.4,146.8,644.6,146.9C644.5,146.9,644.5,146.9,644.6,146.9z
		 M712.3,206.8C712.2,206.9,712.3,206.7,712.3,206.8C712.3,206.8,712.3,206.8,712.3,206.8z M700,129.4
		C700.1,129.5,699.9,129.5,700,129.4C700,129.4,700,129.4,700,129.4z M695.4,225C695.4,225.1,695.4,225,695.4,225
		C695.4,225,695.4,225,695.4,225z M699.7,148.7C699.6,148.7,699.6,148.6,699.7,148.7C699.6,148.7,699.7,148.6,699.7,148.7z
		 M667.3,227.6C667.2,227.6,667.2,227.5,667.3,227.6C667.3,227.6,667.3,227.6,667.3,227.6z M712.8,207 M643.1,169.3 M726.8,221.2
		 M648.1,220.5C648.1,220.5,648.1,220.5,648.1,220.5 M643.4,160.5C643.4,160.5,643.4,160.5,643.4,160.5 M695.4,148.3
		C695.4,148.2,695.5,148.2,695.4,148.3C695.4,148.3,695.4,148.3,695.4,148.3z M672,129.4C671.9,129.4,672,129.4,672,129.4
		C671.9,129.4,672,129.4,672,129.4z M725.1,147 M710.4,132.1L710.4,132.1L710.4,132.1z M710.4,132.1L710.4,132.1L710.4,132.1z
		 M725.9,142.2C725.9,142.2,725.9,142.3,725.9,142.2C725.9,142.3,725.9,142.2,725.9,142.2z M646,221.3
		C646,221.3,646,221.3,646,221.3c0.2-0.2,2.9,0.7,3.7,0.9c0.6,0.1,1.4,0,1.7-0.6c0.2-0.5-0.8-0.4-0.8-0.8c1.2-0.6,0.4-3.6,0.5-4.8
		c0-0.7,0.1-1.3,0.2-1.9c0.1-1.4,0-2.5,0.5-3.9c1.4-4.3,3.4-7.9,6.5-11.3c1.4-1.5,2.4-3.5,3.8-5.1c1.5-1.7,3.1-3.3,4.5-5
		c1.2-1.4,2.3-2.7,3.2-4.4c0.2-0.4,0.1-1.6,0.7-1.7c1-0.3-0.5-1.3-0.1-1.7c0.1,0.1,0.9,0.9,1,0.9c0.3,0,0.6-0.9,0.9-0.4
		c0.5,0.8,0.9,1.4-0.2,1.3c-0.2,1.6-1.5,3.5-2.5,4.8c-1.2,1.4-2,3-3.3,4.5c-1.4,1.7-2.8,3.2-3.8,5.1c-0.2,0.2-0.4,0.2-0.6,0
		c-0.2,0.4-0.4,0.7-0.5,1.1c-0.2,0.4-1.8,2.4-1.3,2.7c0.4-0.3,1.6-1.5,1.6-0.2c0,1.1-2.1,2.9-2.8,3.7c-1.7,2.2-3,5.1-3.5,7.8
		c-0.2,1.4-0.1,2.9-0.2,4.3c-0.1,1.4,0.7,2.1,1,3.5c0.5,2.5-2.4,1.4-3.6,0.3c-0.6,2,0.4,1.1,1.6,1.9c-0.5,0.9-1.1,0.3-2.2,0.4
		c-1.3,0.2-2.8-0.1-4.1-0.2c-1.4-0.2-5.6-0.4-6.1-2.2c0.7-0.4,2.2-1.1,3-0.6c-0.6,0.3-1.2,0.5-1.7,0.8
		C643.2,221.3,645.8,221,646,221.3C646.1,221.2,646.1,221.3,646,221.3z M683.2,221.3c0,0,0.1-0.1-0.1-0.4
		C683.1,221.1,683.1,221.2,683.2,221.3z M683.5,221.6c-0.2-0.1-0.3-0.2-0.3-0.2C683.3,221.5,683.4,221.6,683.5,221.6z M683.1,221
		L683.1,221C683,221.3,682.9,220.9,683.1,221L683.1,221c0.1,0.2,0.2,0.2,0.3,0.3c-0.2-0.5-0.7-1.2-0.8-1.5c-0.5-1.1-1-2.2-1.7-3.2
		C680.9,217.4,682.2,220.9,683.1,221L683.1,221L683.1,221z M723.9,149.4C723.9,149.3,723.9,149.3,723.9,149.4
		c0.1-0.2,0.1-0.3,0.2-0.4c0.2,0.5,0.1,0.9-0.3,1.2C723.2,149.6,723.9,149.6,723.9,149.4z M646.9,145.3c-0.5-0.6,1.9-1.1,2.2-1.2
		c1.5-0.4-1.5-2.9-0.9-4.1c0.8-1.5,1.9-2.3,3.3-3.1c0.3-0.2,1.2-1,1.5-1.1c0.3,0.1,0.5,0.3,0.7,0.4c0.5,0.1,1.2-0.3,1.7-0.5
		c0.9-0.4,1.6,0.2,2.4,0.6c1.3,0.6,1.7,0.3,3-0.1c2.6-1,3,2.6,4.7,3.2c2.2,0.7,4.4-2.6,5.3,0.8c0.6,2.3,3,3.4,4.7,4.7
		c1.8,1.3,2.1,3.8,1.9,5.9c-0.1,1.1-0.6,2-0.8,3.1c-0.1,0.6,1.6,0.9,1.8,0.5c1.2-1.9,2-3.5,4.1-4.5c0.9-0.5,1.9-0.8,2.8-1.2
		c0.8-0.4,2-0.8,2.9-1c1.9-0.5,3.6-1.4,5.4-1.9c1.9-0.6,4-0.7,6-1.2c1.9-0.5,3.8-1.6,5.3-2.8c0.5-0.3,1.9-1.4,2-2
		c0.1-0.3,0.3-0.4,0.5-0.4c-0.4-0.3,0.3-1.1,0.5-1.5c0.3,0.7,1.1-1.8,1.3-2.4c0.3-0.7,0.5-1.5,0.8-2.2c0.3-0.6,1-0.3,1-0.8
		c0.2-1.6,1.9,0.5,1.4,1.7c-0.4,0.9,0.8,2.7,0.5,3.9c-0.8,2.5-1.6,5.1-3.6,7.1c-1.1,1.1-2.4,1.7-3.6,2.6c-0.3,0.3-3.1,1.4-3.7,0.8
		c0.8-0.3,2.1-0.6,2.8-1.1c0.8-0.6,1.5-2,2.1-2.8c0.4-0.5,3.6-5.2,2.9-5.6c-1,1.2-1.5,2.7-2.6,3.9c-1.3,1.4-2.7,2.2-4.5,2.9
		c-1.6,0.6-2.7,1.4-4.4,1.8c-2.2,0.5-4.5,0.4-6.7,0.9c-1,0.2-3.7,0.7-3.7,2.1c-0.1,1.4-0.9,1.7-1.9,2.7c-0.6,0.6-3,2.5-2.6,3.6
		c0.6,1.7,2.4-0.7,3-1.1c2.1-1.2,5.1-3,7.6-2.9c0,0,8.4-2,9.2-2.3c1.7-0.6,3.5-1.1,4.9-2.1c1.6-1.1,2.4-2.6,3.6-4.1
		c1.2-1.5,2.3-3,2.8-4.8c0.2-0.9,0.3-1.8,0.2-2.8c-0.1-1.3,0.2-0.8,0.9-1.1c-0.1-0.6-0.3-1.2-0.4-1.8c2.4,1.1,0.3,5.6-0.5,7.2
		c-0.3,0.7-3.4,7.1-3.9,6c-0.5,0.3,0.1,0.3,0.1,0.7c-0.1,0.4-0.8,1.3-1,1.6c-0.8,0.7-2.1,2.3-3.3,2.1c0.3-0.6,4.5-2.7,2.6-3
		c-0.5,1.7-3.8,2.6-5.2,3.2c0.7,0.4,1.4-0.4,2.1,0c-0.7,0.7-2.9,0.8-3.9,1c-1.8,0.3-3.7,0.5-5.5,0.8c-2.8,0.4-7.2,1.4-8.8,4
		c-0.4-1.1-0.8-0.3-1.3,0.4c-0.6,1-0.8,1.2,0.2,2c0.6,0.5,1.9-2.2,2.7-2.4c5-1.1-2.6,4.3-0.6,4.7c0.6,0.1,2.6-2.4,3.2-2.8
		c1.3-1,2.4-1.5,3.9-1.9c1.9-0.5,3.9-0.9,5.8-1.3c1.4-0.3,2.7-1.2,4.1-1.4c0,0.7-0.3,0.7-0.6,1.2c0.5-0.2,0.8-0.4,1.3-0.3
		c-2.2,2.5-6.4,2.3-9.5,2.7c0.2,1.5-2.3,1.5-3.3,2.2c-0.7,0.6-1.2,1.2-1.7,1.9c-0.3,0.5-0.8,1.2-1,1.8c-1,2.3,1.9-1,2.2-1.4
		c0.6-0.6,1.8-0.2,1,0.6c-0.4,0.5-0.7,1.4-0.8,1.7c1.1,0.5,0.3,0.2,1.2-0.1c0.4-0.1,0.3,0.8,0.7,0.9c0.7,0.2,2.9-1,3.5-1.3
		c1.1-0.6,2.7-1.1,3.6-1.9c0.4-0.3,0.9-0.6,1.3-0.9c0.4-0.3,0.9,0.4,0.6,0.7c-1.7,2.1-4.8,2.7-6.6,4.8c-0.7,0.8-2.1,2.2-2.5,3.1
		c-0.2,0.5,1.1,3.9,1.5,3.7c0.4-0.2,0.9-1.6,1.2-2c0.4-0.5,0.8-1.1,1.2-1.7c1.1-1.5,2.6-2.7,4-4c0.7-0.7,1.4-1.3,2.2-1.9
		c0.6-0.5,1.6-0.8,2.1-1.3c0.6-0.6,1.3-1.1,2-1.5c0.5-0.4,0.7,0.7,0.2,0.9c-0.5,0.3-1.9,1.3-2.2,1.8c-0.2,0.4-1,0.7-1.1,1.1
		c0,0-0.7,0.7-0.8,0.8c-1.2,0.6-2.4,2.2-3.3,3.2c-1.3,1.5-1.5,3-2.4,4.6c1.4,0.7,3.2-3.3,4.2-2.9c1.4,0.6-2.5,4-2.3,5
		c0.1,0.4-0.6,1.2-0.8,1.6c-0.3,0.8-0.6,2.2-0.8,3.1c-0.5,2.5,0,4.9,0.9,7.1c0.9,2.3,1.2,4.4,2.6,6.6c0.7,1.1,1.4,2.1,2.4,3.1
		c0.1,0.1,1.3,1.5,0.1,1.3c-1-0.2-1,0.3-1.7-0.7c-0.7-1-1.4-2-2-3.1c-0.4-0.7-3.8-7.6-4.1-7.5c0.4,3.2,0.9,6.4,2.7,9.1
		c0.4-0.7,1.1,1.6,1.5,2.1c1.2,1.6,2.2,3.2,3.8,4.4c0.7,0.6,1.9,0.9,2.7,1.2c0.5,0.2,1,0.5,1.4,0.8c0.7,0.6-0.2,0.6-0.3,0.8
		c1.6,0.9,3.1,1.4,4.9,1.9c0.8,0.2,1.1,0.8,2.1,0.5c0.4-0.1,1.7-0.6,1.9-0.2c-0.3,0.2-0.6,0.4-0.8,0.6c1.1,0.4,2.3,0.4,3.5,0.4
		c1.2,0,2.2-0.6,3.4-0.7c0.3,0,0.8,0.7,1.1-0.1c0.3-1,0.2-1.6,0.1-2.6c-2.9,0.8-5.5,0.5-8.4,0c-0.7-0.1-8.6-3.3-7.3-4.7
		c0.3-0.3,3.1,1.6,3.5,1.8c1.8,0.8,3.4,1.3,5.3,1.5c1.8,0.2,3.4,0.7,5.2,0.2c2-0.6,1.8-1.1,2-3c-1.1,0.3-2.2,0.8-3.4,0.8
		c-1.4,0-2.9-0.4-4.3-0.4c-0.9,0-2.1-0.8-2.9-1.1c-1.3-0.5-2.5-1-3.9-1.3c-1.1-0.3-1.9-1.7-2.6-2.5c-0.8-0.9-1.7-1.8-2.6-2.6
		c-1.6-1.6-3.2-4.3-3.7-6.5c-0.8-3-0.3-5.9,0.3-8.8c0.6-2.5,1.7-4.5,2.6-6.9c1.1-2.9,2.8-5.4,4.3-8.1c0.3-0.6,1.3-2.6,2-2.8
		c0.8-0.3,0.9-0.5,1.5-1.3c0.2-0.3,0.8-1.5,1.2-1.3c-0.1,0.8-1.3,1.5-1.2,2.3c0.4-0.4,2.9-3.1,2.5-3.4c-0.1,0.2-0.7,1.1-1,1
		c0.2-0.8,0.8-1.8-0.8-1.3c-0.4,0.1-3.3,2.6-3,1.7c0.9-2.6,4-3.9,5.7-6.1c2.3-3,4.5-6.6,5.5-10.3c0.4-1.6,0.5-3.2,0.7-4.9
		c0-0.5-0.2-3.9-0.1-3.9c0.3,0,0.5,0.8,0.6,1c0.7-0.7-0.8-3.1-0.5-3.9c0.2-0.8,1,0.4,1,0.5c0.1,0.7,0.9,0.4,1.2,1
		c0.7,1.6,0.6,3.7,0.5,5.5c0,0.6,0.3,4.9-0.6,4.1c-0.6,1.6-4,7.6-2.7,8.8c-1,0.1-0.6,0-0.7,0.7c-0.1,0.5-0.4,0.3-0.5,0.9
		c-0.4,1.4-2,2.9-2.9,4c-2,2.8-3.9,6-6.2,8.5c-2.2,2.5-5.4,6-6.3,9.2c-0.8,3.1-1.2,6.8-0.9,10c0.4,3.6,0.7,6.4,3.3,9
		c2.3,2.3,5,3.9,7.8,5.4c1.4,0.8,9.5,3.2,10.1,0.7c0.3-1.5,0.8-3.3,0.8-5c0-0.7-0.4-3.1,0.6-3.2c-1.2-0.5-0.2-8.2,0-8.2
		c0.7,5.4,0.1,11.1,0.2,16.6c0.5-0.1,0.9-0.2,1.4-0.2c-0.5,1.1-1.7,0.8-1.6,2.4c0.1,0.7-0.1,1.4,0.1,2.1c0.2,0.6-0.4,0.9-0.6,1.5
		c-0.4,1.5-0.1,2.1,0.6,3.3c0.2,0.4-1.2,3.3-1.4,3.9c-0.3-0.4-0.6-0.7-1-1.1c-1.5,1.5-5.4,0.9-7.2,0.3c-2.9-1-5.8-1.9-8.7-3
		c-0.4-0.2-2.5-0.9-2.2,0.5c0.3,1.1,2.7,2.2,3.6,2.8c1.4,0.8,2.9,1.5,4.4,2c0.7,0.3,1.5,0.6,2.2,0.8c2.5,0.8-0.4-0.3,0.8,0.6
		c0.6-0.6,0.5-0.6,1.3-0.4c-1.5,0.5,0.1,0.7,0.7,0.7c1,0,2,0.1,3,0.1c0.5,0,1.5,0,2,0.2c1.1,0.4-1.6,0.9-1.5,0.8
		c-1.4,0.7-5.3,0.1-6.9-0.6c-1.9-0.8-3.9-1.2-5.8-1.9c-0.7-0.3-0.2-1.1-0.7-1.3c-1.2-0.5-2.2-0.8-3.3-1.5c-2-1.3-3.9-3.2-6-4.2
		c-0.9-0.4-1.2-1.4-1.9-2.1c-0.6-0.7,0.3-1.9,1.1-1c1.1,1.4,3.5,3.4,5.2,1.5c-0.4-0.4-0.4,0.4,0,0c-0.8-0.6-0.6-1.4-1.4-2.1
		c-0.8-0.7-2.5-1.5-3.1-2.4c-1.7-2.4-2.8-4.7-3.5-7.6c-0.7-3-1.5-6.2-1.8-9.3c-0.3-2.7-0.5-5.7-1.4-8.2c-0.4-1-1.1-0.7-1.3-1.9
		c-0.3-1.5-0.7-3-1.3-4.5c-0.4-1-1.1-1.6-1.8-2.4c-0.7-0.8-0.7-1.7-1.4-2.4c-0.9-1-2.5-4.9-4.1-4.5c0.3-0.1-1.5-1.9-1.7-2
		c-1.1-0.9-2.2-1.3-3.5-2c0-0.2,0.2-0.3,0.4-0.3c-0.4-0.4-0.6,0-1,0.1c0.1,0-1.3-1-1.3-1c-0.6-0.3-4-0.5-4.1-1.4
		c-0.1-0.6-0.7-0.6-1.1-0.9c-0.4-0.3-0.1-1.3,0.4-1c0.9,0.6,2.6,1.3,1.9-0.6c0.2-0.1,0.4-0.1,0.6,0.2c0-0.7,0.2-0.8-0.3-1.1
		c-0.2-0.2,0.2-1,0.2-1.2c-0.1-0.6-0.4-1-0.7-1.5c0.6-0.3-0.3-1.1-0.4-1.4c-0.9-1.3-1.8-1.9-3.2-2.8c-1-0.7-1.5-2.1-1.9-3.1
		c-0.6-1.5-0.3-0.8-1.7-0.6c-1.4,0.1-1,1.2-1.8,1.9c-0.8,0.8-3.1,0.4-3.8-0.4c-1.4-1.7,2.5-0.9,2.6-1.7c0-0.3-1.5-2-1.8-2.3
		c-0.3,0.2,0.3,0.5-0.1,0.7c-0.9-1.5-1.4-1.5-3.1-0.6c-1.6,0.9-2-0.7-3.7-0.8c-0.5,0-1.1,0-1.6,0.1c-1,0.2-1.5-0.1-2.4-0.1
		c-1.5,0-2.1,2-1.9,3.1c0.7,0,0.8,0.3,1.5,1.1c1.2,1.5-0.5,1.7-0.9,2.9c-0.3,1-1.5,0.4-2.2,1c-0.9,0.8,0.1,3.2,1.6,2.7
		c1-0.3,2.8,1.1,3.4,1.7c1.1,1.2,1.3,2.5,1.9,3.9c0.3,0.8,0.4,1.5,0.6,2.3c0.1,0.8-0.8,0.4-1.1,0c-0.6-1.1-0.4-2.8-1.4-3.6
		c-1.8,3.3,0.2,7.4,3.1,9.2c2.3,1.4,7.4,2.6,9.8,0.4c-0.4-0.2-1.3-0.1-1.2-0.6c0.4,0,1.3,0.4,1.6,0.1c0.4-0.4-0.7-2.1-0.9-2.6
		c-0.5-1.9,1.3-1,1.9-0.2c1,1.4,1.7,2.6,1.7,4.2c0,1.8,0.4,3.6,0.5,5.3c0.1,2.3-0.2,4.6-0.4,6.9c-0.1,1.6-0.9,3.1-1.3,4.6
		c-0.1,0.7-0.5,1.3-0.7,2c-0.1,0.6-0.5,0.9-1,1c0.1,0.2,0.1,0.4,0.1,0.6c-0.3,1.4-1.7,2.5-2.3,3.7c-0.6,1.2-1.6,2.6-2.5,3.6
		c-0.9,1.1-1.8,2.5-2.7,3.7c-0.9,1.2-1.5,2.5-2.5,3.5c-0.8,0.8-2.8,2-2.5,3.3c0,0.3-0.9,0.6-1,0.9c-0.3,0.8-0.7,0.9-1.2,1.6
		c-0.3,0.5-0.6,1.3-1,1.8c-0.5,0.8-0.8,1.7-1,2.6c-0.7,2.2-0.9,4.6-0.9,6.9c0,1.1,0.7,4.8-1.2,4c0.1,0.3,0.1,0.6-0.1,0.9
		c-0.6-0.3-0.6-1.5-1.2-1c-0.4-3.5,0.1-7.4,1.5-10.7c1.2-2.7,1.9-6.2,3.7-8.6c0.8-1.1,1.5-2.3,2.5-3.2c0.5-0.4,1.9-2,2-2.5
		c0.3-0.9,2.1-2.8,2.8-3.3c0.2-0.5,0.9-1.3,1-1.7c0-0.6,2-1,1.1-1.6c-3.5,2.1-7.1,4.2-9.8,7.3c-0.6,0.6-1,1.3-1.6,2
		c-0.7,0.8-0.6-1-0.3-1.4c1-1.4,2.1-2.5,3.1-3.8c0.6-0.7,1.3-1.2,2-1.8c1.2-1.2,0.3-0.8-0.5-1.3c-1.9-1.2,2.5-3.2,3-3.5
		c1.8-1.1,3.7-2.1,5.4-3.3c1.3-0.9,5.3-4.1,3.7-5.7c-3.9,4-8.9,7-14.1,8.9c-3.4,1.2-5.9,2.9-7.9,5.9c-0.7,1.1-1,1.1-1.1,2.5
		c0,0.4-0.4,3.3,0.6,2.5c0.5-0.3,1.1-1.7,1.4-2.2c0.5-0.9,1.5-1.8,2.3-2.4c0.8-0.7,1.6-1.4,2.5-2c0.4-0.2,0.8-0.9,1.3-1
		c1-0.2-0.1,1.7-0.2,1.9c-2.3,2.3-5,5.1-6.2,8.1c-0.5,1.2-1.5,2.6-1.2,3.9c0.1,0.5-0.1,3.2-0.6,3.3c0.6,0.4-0.1,1-0.3,1.4
		c0.6,0.3,2.8-4.2,3-5c0.2-0.8,0.6-1.4,1.5-0.9c0.9,0.5-0.3,2.3-0.6,3c-1.8,4.9-2.7,9.9-1.7,15c-1.6,0-0.5-6.1-1.8-5.7
		c0,0.8,0.3,2-0.4,2.7c-0.3-0.6-0.2-1.7-0.2-2.3c0-0.7-0.3-1.2-0.4-2c-0.1-2-0.2-4-0.1-6c0.2-3.6,0.4-7.1,0.5-10.8
		c0.1-3.3,0.1-6.8,0.1-10.2c0-2.2,0.2-4.5,0-6.8c-0.1-1-0.4-4.6,0.4-5.1c0.4,3,0,6.1,0.1,9.1c0,1.1-0.8,8.3,0.1,8.6
		c0.5-0.8,0.9-1.5,1.5-2.3c1-1.2,2.4-1.8,3.4-3c-1.6,0.4-3.2,1.1-4.5,2.1c-0.7-1.1,7.6-3.7,8.5-4c3-1.1,5.4-2.7,8-4.3
		c2.6-1.5,4.8-5.3,6-7.9c0.6-1.4,1.1-2.9,1-4.5c-0.1-1.1,0.8-2.8-1-1.9c-5.3,2.7-13.6-0.6-15.2-6.3c-0.3-1.1-0.5-2.5-0.5-3.6
		c0-1.7,0.7-2.4-0.1-4c-0.6-1.2-1.9-0.3-2.7-0.4c-1.1-0.1-2-4.6-1-4.6L646.9,145.3z"/>
</g>
</svg>
