<?xml version="1.0" encoding="utf-8"?>
<!-- Generator: Adobe Illustrator 22.0.1, SVG Export Plug-In . SVG Version: 6.00 Build 0)  -->
<svg version="1.1" id="Capa_1" xmlns="http://www.w3.org/2000/svg" xmlns:xlink="http://www.w3.org/1999/xlink" x="0px" y="0px"
	 viewBox="0 0 1366 768" style="enable-background:new 0 0 1366 768;" xml:space="preserve">
<style type="text/css">
	.st0{fill-rule:evenodd;clip-rule:evenodd;fill:#FFF9EA;}
</style>
<g>
	<path class="st0" d="M1160.8,260.9c28-6.7,62.4-19.7,103.2-38.8c-139.6,85-301.2,127.1-464.5,121.1c45.5-3.3,77.3-6.8,95.6-10.6
		c12.4-22.1,23.6-29,33.7-20.7c2.2-5.6,5.3-7.3,9.2-4.9c39-57,68.1-66.6,87.5-28.7c18.8-15.4,30.5-16.3,35.1-2.8
		c32.7-33.9,51.6-36.4,56.5-7.4C1140.4,248.7,1154.9,246.3,1160.8,260.9z"/>
	<path class="st0" d="M198.1,177c-19.3-4.7-43.1-13.6-71.4-26.8C223.3,209,335,238.1,448,234c-31.5-2.3-53.5-4.7-66.1-7.3
		c-8.6-15.3-16.3-20.1-23.3-14.3c-1.5-3.9-3.7-5-6.3-3.4c-27-39.5-47.1-46.1-60.5-19.9c-13-10.6-21.1-11.3-24.3-1.9
		c-22.6-23.5-35.7-25.2-39.1-5.1C212.2,168.6,202.2,166.9,198.1,177z"/>
</g>
</svg>
