<?xml version="1.0" encoding="utf-8"?>
<!-- Generator: Adobe Illustrator 22.0.1, SVG Export Plug-In . SVG Version: 6.00 Build 0)  -->
<svg version="1.1" id="Capa_1" xmlns="http://www.w3.org/2000/svg" xmlns:xlink="http://www.w3.org/1999/xlink" x="0px" y="0px"
	 viewBox="0 0 1366 768" style="enable-background:new 0 0 1366 768;" xml:space="preserve">
<style type="text/css">
	.st0{clip-path:url(#SVGID_2_);}
	.st1{fill:#61002E;}
	.st2{fill:#1681D8;}
</style>
<g>
	<defs>
		<rect id="SVGID_1_" x="-7" y="-34" width="1377" height="830"/>
	</defs>
	<clipPath id="SVGID_2_">
		<use xlink:href="#SVGID_1_"  style="overflow:visible;"/>
	</clipPath>
	<g class="st0">
		<path class="st1" d="M403.4,620.3c-65.9-14.8-133.5-18.7-199.9-30.2c-11.6-2-23.2-4.3-34.8-6.6c-2.5-0.5-5.1-1-7.6-1.6l-41.7-9.4
			c-0.5-0.1-0.9-0.2-1.4-0.3c0,0,0,0,0,0c0,0,0,0,0,0c-2.8-0.7-9.9-1.3-20.2-2c-31.6-2.1-93.7-4.2-156.4-6.4c0,0.1,0,0.2,0,0.3
			c0,0.2,0,0.3,0,0.5c0,0.4,0,0.8,0,1.2c0,0.6-0.1,1.3-0.1,1.9c0,1-0.2,2-0.4,2.9c-0.2,0.8-0.5,1.5-0.9,2.1
			c-0.3,0.4-0.6,0.7-0.9,1.1c-0.1,0.1-0.3,0.2-0.4,0.3c-0.9,0.5-1.8,1.1-2.8,1.6c-0.2,0.1-0.3,0.2-0.5,0.3c-0.2,0.1-0.4,0.1-0.5,0.2
			c-0.2,0.1-0.4,0.1-0.6,0.3c-0.2,0.1-0.4,0.3-0.5,0.4c-0.1,0.2-0.3,0.3-0.4,0.5c-0.1,0.1-0.1,0.1-0.2,0.2c-0.1,0.1-0.2,0.2-0.3,0.2
			c-0.1,0.1-0.2,0.2-0.3,0.2c-0.1,0-0.1,0.1-0.2,0.1c-0.2,0.1-0.3,0.2-0.5,0.3c0,0,0,0,0,0c0,0,0,0,0,0c0,0,0,0,0,0
			c-0.3,0.2-0.5,0.4-0.7,0.6c-0.1,0.1-0.1,0.2-0.2,0.3c-0.5,1.2-1.5,1.9-2.4,2.6c-0.4,0.3-0.9,0.5-1.1,1c-0.2,0.1-0.3,0.2-0.5,0.3
			c-0.1,0.1-0.3,0.2-0.4,0.3c0,0,0,0,0,0c-0.2,0.1-0.3,0.3-0.5,0.4c-0.2,0.1-0.3,0.2-0.5,0.3c-0.2,0.1-0.4,0.2-0.6,0.3
			c-0.2,0.1-0.4,0.2-0.7,0.2c-0.9,0.2-1.7,0.4-2.6,0.4c-0.4,0-0.9,0-1.3-0.1c-0.8-0.2-1.7-0.2-2.5,0c-0.1,0-0.1,0-0.2,0
			c-0.1,0-0.1,0-0.2,0c-0.1,0-0.3-0.1-0.4-0.1c-0.4-0.1-0.8,0-1.3,0c-0.6-0.1-1.3-0.1-1.9-0.3c-0.4-0.1-0.8-0.2-1.3-0.2
			c-0.4,0-0.8,0-1.3-0.1c0,0-0.1,0-0.1,0c-0.4,0-0.8-0.1-1.3-0.1c-0.1,0-0.2,0-0.4,0.1c-0.2,0-0.3,0.1-0.5,0.1c-0.1,0-0.2,0-0.3,0.1
			c0,0,0,0-0.1,0c0,0,0,0,0,0c-0.1,0-0.1-0.1-0.2-0.1c0,0,0,0,0,0c0,0-0.1,0-0.1,0.1c-0.1,0.1-0.2,0.2-0.4,0.2
			c-0.9,0.3-1.9,0.6-2.8,0.8c-0.2,0-0.4,0.1-0.5,0c-0.2,0-0.3-0.1-0.5-0.1c-0.5-0.1-1-0.3-1.4-0.6c-1-0.8-2-1.5-2.9-2.4c0,0,0,0,0,0
			c-0.1-0.1-0.1-0.1-0.2-0.1c-0.4-0.4-0.9-0.7-1.3-1.1c-0.1-0.1-0.2-0.2-0.3-0.2c-0.2-0.1-0.4-0.2-0.6-0.2c-0.1,0-0.2,0-0.3,0
			c-0.7,0-1.5-0.1-2.2-0.3s-1.4-0.5-2-0.7c-0.3-0.1-0.6-0.2-0.9-0.4c-0.5-0.2-0.9-0.4-1.4-0.6c0,0-0.1,0-0.1,0
			c-0.5-0.2-0.9-0.3-1.4-0.4c-0.5-0.1-0.9-0.2-1.4-0.1c-0.1,0-0.1,0.1-0.2,0.1c-0.6,0-1.1,0.2-1.6,0.5c-0.4,0.2-0.8,0.2-1.1,0.1
			c-0.3-0.1-0.6-0.1-0.9,0c-0.1,0-0.2,0.1-0.3,0.1c-0.1,0-0.2,0.1-0.4,0.1c-0.5,0.1-0.9,0.2-1.3,0.4c-0.1,0.1-0.3,0.2-0.4,0.2
			c-0.1,0.1-0.3,0.2-0.4,0.2c-0.3,0.1-0.6,0.2-0.9,0.2c-0.2,0-0.3,0-0.5,0c-0.5,0-0.9,0-1.4-0.1c0,0,0,0-0.1,0
			c-0.2,0-0.3-0.1-0.5-0.1c-0.2-0.1-0.4-0.1-0.5-0.2c0,0,0,0,0,0c-0.1,0-0.3-0.1-0.4-0.2c-0.1-0.1-0.3-0.1-0.4-0.1
			c-0.1,0-0.3-0.1-0.4-0.1c0,0-0.1-0.1-0.1-0.1c0,0-0.1-0.1-0.1-0.1c-0.1-0.1-0.2-0.2-0.3-0.3l0,0c-0.1-0.1-0.1-0.1-0.1-0.2
			c-0.1-0.1-0.1-0.2-0.1-0.3c0,0,0,0,0,0l0,0c-0.1-0.2-0.1-0.3-0.2-0.5c0,0,0-0.1-0.1-0.1c-0.1-0.1-0.2-0.3-0.2-0.4
			c0,0-0.1-0.1-0.1-0.1c-0.1-0.1-0.1-0.2-0.2-0.3c-0.2-0.4-0.5-0.7-0.7-1.1c-0.4-0.4-0.8-0.8-1.3-1.1c-0.2-0.2-0.4-0.3-0.6-0.5
			c0,0,0,0,0,0c-0.1-0.1-0.3-0.2-0.4-0.3c0,0-0.1,0-0.1-0.1c-0.2-0.1-0.3-0.2-0.5-0.3c-0.1-0.1-0.3-0.1-0.4-0.2c0,0-0.1,0-0.1,0
			c-0.4-0.1-0.8-0.2-1.2-0.3c-0.4-0.1-0.9-0.2-1.3-0.4c-0.1-0.1-0.3-0.1-0.4-0.2c-0.2-0.1-0.5-0.2-0.8-0.3c-0.1,0-0.2,0-0.3-0.1
			c-0.1,0-0.2,0-0.3-0.1h0c-0.2-0.1-0.4-0.1-0.5-0.2c0,0,0,0,0,0c-0.3-0.2-0.6-0.4-0.9-0.7c0,0,0,0,0,0c-0.2-0.2-0.4-0.4-0.6-0.6
			c-0.1-0.1-0.3-0.3-0.3-0.5c-0.3-0.6-0.5-1.1-0.7-1.7l0,0l0-0.1l0,0c-0.3-0.4-0.6-0.8-1-1.1c-0.3-0.3-0.6-0.5-0.9-0.7
			c-0.2-0.1-0.5-0.3-0.7-0.4c-0.1-0.1-0.2-0.1-0.3-0.2c-0.1-0.1-0.3-0.1-0.4-0.2c-0.4-0.2-0.9-0.4-1.3-0.6c-0.3-0.2-0.4-0.5-0.7-0.5
			c-0.3-0.1-0.4-0.3-0.6-0.5c-0.1-0.1-0.1-0.1-0.2-0.2c-0.2-0.2-0.5-0.4-0.7-0.6c-0.1-0.1-0.3-0.3-0.4-0.5c-0.1-0.2-0.2-0.3-0.4-0.5
			c-0.3-0.2-0.4-0.6-0.6-0.9c0,0,0-0.1,0-0.1c-0.1-0.2-0.2-0.5-0.3-0.7c-50.5-2-90.2-4-97.7-6.1v175.6C-146.4,698-6.1,836.8,94,820
			c23.9-4,347.1-48.2,371-52c20-3.2,117-69,64-109C504.6,648.5,429.2,626.2,403.4,620.3z"/>
		<ellipse class="st2" cx="1141.5" cy="729.7" rx="948.5" ry="110.2"/>
	</g>
</g>
</svg>
