<?xml version="1.0" encoding="utf-8"?>
<!-- Generator: Adobe Illustrator 22.0.1, SVG Export Plug-In . SVG Version: 6.00 Build 0)  -->
<svg version="1.1" id="Capa_1" xmlns="http://www.w3.org/2000/svg" xmlns:xlink="http://www.w3.org/1999/xlink" x="0px" y="0px"
	 viewBox="0 0 1366 768" style="enable-background:new 0 0 1366 768;" xml:space="preserve">
<style type="text/css">
	.st0{fill:#FFF8EB;}
	.st1{fill:#300827;}
</style>
<g>
	<g>
		<path class="st0" d="M634.4,861.9h-6.1V493.7c0-39.6-15.5-76.8-43.7-104.8s-65.7-43.4-105.5-43.4s-77.4,15.4-105.5,43.4
			c-28.2,28-43.7,65.2-43.7,104.8v368.2h-6.1V493.7c0-41.2,16.2-80,45.5-109.1s68.3-45.2,109.8-45.2s80.5,16.1,109.8,45.2
			c29.3,29.2,45.5,67.9,45.5,109.1V861.9z"/>
	</g>
	<g>
		<path class="st1" d="M397.4,380.2c-2,0.3-4,0.3-5.9-0.1c-1.2-0.2-2.2-0.6-3.2-1c-1-0.5-1.8-1-2.6-1.6c-0.8-0.6-1.4-1.2-2-2
			c-0.6-0.7-1.1-1.4-1.5-2.2c-0.3-0.5-0.6-1.1-0.9-1.9s-0.5-1.6-0.6-2.5s-0.2-1.9-0.1-3s0.3-2.2,0.8-3.3c0.3-0.8,0.7-1.5,1.2-2.3
			s1.1-1.6,1.9-2.4s1.7-1.6,2.8-2.3c1.1-0.8,2.4-1.5,3.9-2.2c0.8-0.4,1.7-0.8,2.7-1.2c1-0.4,2.1-0.8,3.1-1c0.8-0.2,1.5-0.4,2.2-0.6
			s1.3-0.4,2-0.6c0.2-0.1,0.4-0.1,0.5-0.1s0.2,0.1,0.2,0.2c0.1,0.1,0.1,0.3,0.2,0.6c0.1,0.3,0.2,0.7,0.4,1.3
			c0.1,0.3,0.2,0.6,0.3,0.9c0.1,0.3,0.3,0.7,0.4,1s0.3,0.6,0.3,0.9c0.1,0.3,0.2,0.5,0.2,0.6c0.2,0.5,0.1,0.7-0.1,0.8
			c-0.2,0.1-0.4-0.1-0.6-0.6c-0.3-0.6-0.7-1.2-1.2-1.7s-1.1-0.8-1.8-1c-0.9-0.2-2.1-0.2-3.6,0.1c-1.5,0.3-3.2,0.8-4.8,1.6
			c-1.3,0.6-2.3,1.2-3.2,1.8c-0.9,0.6-1.6,1.2-2.2,1.8c-0.6,0.6-1,1.1-1.4,1.7c-0.3,0.5-0.6,1-0.8,1.4c-0.8,1.8-1,3.5-0.6,5.1
			c0.3,1.6,1,3.2,1.9,4.7c0.8,1.5,1.9,2.7,3.3,3.7s2.9,1.8,4.5,2.2c1.6,0.5,3.3,0.7,5.2,0.5c1.8-0.1,3.6-0.6,5.4-1.4
			c1.3-0.6,2.4-1.2,3.3-1.9c0.9-0.6,1.5-1.4,1.9-2.4c0.2-0.5,0.3-1.1,0.3-1.8c0-0.7-0.1-1.2-0.2-1.5c-0.1-0.4,0-0.6,0.1-0.6
			s0.2,0,0.3,0.1c0.1,0.1,0.1,0.2,0.2,0.3c0,0.1,0.1,0.3,0.2,0.6c0.1,0.4,0.2,0.8,0.3,1.2c0.1,0.5,0.2,0.9,0.3,1.4
			c0.1,0.5,0.2,0.9,0.2,1.2c0,0.4,0,0.6,0,0.7s-0.2,0.3-0.4,0.6c-0.3,0.3-0.6,0.6-1.1,0.9c-0.4,0.3-0.9,0.6-1.4,0.9s-1,0.6-1.6,0.9
			s-1.1,0.6-1.6,0.8C401.7,379.1,399.5,379.9,397.4,380.2"/>
		<path class="st1" d="M408.7,353.7c-0.3-0.9-0.6-1.6-0.8-2.1c-0.2-0.5-0.4-1-0.5-1.3s-0.2-0.6-0.3-0.8c-0.1-0.2-0.2-0.4-0.3-0.6
			c-0.2-0.4-0.4-0.6-0.6-0.8c-0.2-0.1-0.6-0.2-1-0.1c-0.1,0-0.3,0-0.5,0.1s-0.3,0.1-0.5,0.2c-0.1,0.1-0.2,0-0.3-0.1
			c0-0.1,0.1-0.2,0.4-0.3c0.3-0.1,0.6-0.2,0.9-0.4c0.3-0.1,0.6-0.2,0.9-0.3c0.3-0.1,0.6-0.2,0.8-0.3c0.2-0.1,0.4-0.1,0.4-0.1
			c0.1,0,0.2-0.1,0.4-0.2c0.2-0.1,0.4-0.2,0.7-0.3c0.3-0.1,0.5-0.2,0.8-0.3c0.3-0.1,0.5-0.2,0.7-0.3c0.3-0.1,0.4-0.1,0.5,0
			c0,0.1,0,0.2-0.2,0.2c-0.1,0-0.2,0.1-0.3,0.1c-0.1,0-0.2,0.1-0.4,0.2c-0.3,0.2-0.5,0.4-0.6,0.6c-0.1,0.3,0,0.6,0.1,1
			c0,0.2,0.1,0.4,0.2,0.6s0.2,0.5,0.3,0.8c0.1,0.3,0.3,0.8,0.5,1.3c0.2,0.6,0.5,1.3,0.8,2.1c0.4,1,0.8,2.1,1.2,3.1
			c0.3,0.8,0.6,1.5,0.9,2c0.3,0.6,0.6,1,0.9,1.4s0.7,0.7,1,0.9c0.3,0.2,0.7,0.4,1,0.5c0.8,0.3,1.5,0.4,2.1,0.4
			c0.6-0.1,1.3-0.2,2-0.4c0.8-0.3,1.4-0.6,2-1.2c0.6-0.5,1-1.1,1.3-1.7c0.4-0.8,0.5-1.7,0.4-2.7s-0.3-2.1-0.7-3.3
			c-0.3-1-0.6-1.9-0.9-2.9c-0.3-0.9-0.5-1.6-0.7-2.2s-0.3-1-0.4-1.3c-0.1-0.4-0.2-0.6-0.3-0.8c-0.1-0.2-0.1-0.4-0.2-0.6
			c-0.2-0.4-0.3-0.7-0.5-0.8c-0.2-0.2-0.5-0.2-1-0.1c-0.1,0-0.3,0-0.5,0.1s-0.3,0.1-0.5,0.1c-0.1,0-0.2,0-0.3-0.1
			c0-0.1,0.1-0.2,0.4-0.3c0.3-0.1,0.6-0.2,0.9-0.3c0.3-0.1,0.6-0.2,0.9-0.2c0.3-0.1,0.5-0.1,0.7-0.2s0.3-0.1,0.3-0.1
			c0.1,0,0.2-0.1,0.3-0.1c0.2-0.1,0.3-0.1,0.6-0.2c0.2-0.1,0.5-0.2,0.7-0.2c0.2-0.1,0.5-0.1,0.7-0.2c0.3-0.1,0.5-0.1,0.5,0.1
			c0,0.1,0,0.2-0.2,0.2c-0.1,0-0.2,0.1-0.3,0.1c-0.1,0-0.2,0.1-0.4,0.2c-0.3,0.2-0.5,0.4-0.6,0.6s-0.1,0.6,0,1
			c0,0.2,0.1,0.4,0.1,0.6s0.1,0.5,0.2,0.8s0.2,0.8,0.4,1.3c0.2,0.6,0.4,1.3,0.6,2.2c0.2,0.8,0.5,1.6,0.7,2.4
			c0.2,0.6,0.3,1.3,0.5,1.9c0.1,0.6,0.2,1.3,0.2,1.9c0,0.7-0.1,1.3-0.2,1.9s-0.4,1.2-0.8,1.8c-0.3,0.5-0.7,0.9-1.1,1.3
			s-0.8,0.7-1.2,0.9c-0.4,0.3-0.8,0.5-1.2,0.6c-0.4,0.2-0.8,0.3-1.1,0.4c-0.2,0.1-0.5,0.2-0.9,0.3c-0.4,0.1-0.8,0.2-1.3,0.3
			c-0.5,0.1-1,0.1-1.6,0c-0.6,0-1.1-0.2-1.7-0.4c-0.4-0.2-0.8-0.4-1.2-0.6c-0.4-0.2-0.8-0.6-1.1-0.9c-0.4-0.4-0.7-0.9-1.1-1.4
			c-0.3-0.6-0.7-1.3-1-2.1C409.5,355.9,409.1,354.8,408.7,353.7z"/>
		<path class="st1" d="M431.8,346.5c-0.2-0.9-0.4-1.6-0.5-2.2s-0.3-1-0.3-1.4c-0.1-0.4-0.2-0.6-0.2-0.8c-0.1-0.2-0.1-0.4-0.2-0.6
			c-0.1-0.4-0.3-0.7-0.5-0.8c-0.2-0.2-0.5-0.2-1-0.2c-0.1,0-0.3,0-0.5,0.1c-0.2,0-0.4,0.1-0.5,0.1s-0.2,0-0.3-0.1
			c0-0.1,0.1-0.2,0.4-0.3c0.3-0.1,0.6-0.2,1-0.3c0.3-0.1,0.7-0.2,1-0.2c0.4-0.1,0.8-0.2,1.1-0.2c0.1,0,0.4-0.1,1-0.2s1.3-0.3,2-0.5
			s1.4-0.3,2.1-0.5c0.6-0.1,1.1-0.2,1.2-0.3c0.5-0.1,0.9-0.3,1.2-0.4c0.1,0,0.1-0.1,0.2-0.1s0.1-0.1,0.2-0.1s0.1,0,0.2,0.2
			c0,0.1,0,0.2,0,0.4c0,0.2,0,0.4,0,0.8c0,0.1,0,0.2,0,0.3c0,0.1,0,0.3,0.1,0.5c0,0.2,0,0.3,0.1,0.5c0,0.1,0,0.3,0,0.3
			c0,0.1,0,0.1,0,0.2l-0.1,0.1c-0.1,0-0.2-0.1-0.3-0.3c0-0.1-0.1-0.2-0.1-0.4c-0.1-0.2-0.1-0.3-0.2-0.4c-0.1-0.2-0.3-0.3-0.6-0.4
			c-0.3-0.1-0.8-0.1-1.5,0c-0.1,0-0.4,0-0.7,0.1c-0.4,0.1-0.8,0.2-1.2,0.2c-0.4,0.1-0.8,0.2-1.2,0.3c-0.3,0.1-0.6,0.1-0.6,0.1
			c-0.1,0-0.1,0.1-0.1,0.3c0,0,2.4,10.2,2.5,10.6s0.2,0.8,0.3,1.2c0.1,0.4,0.2,0.8,0.3,1.2c0.1,0.4,0.1,0.6,0.2,0.7
			c0.1,0.4,0.2,0.7,0.4,0.9c0.1,0.2,0.3,0.4,0.6,0.5c0.2,0.1,0.6,0.1,0.9,0.1c0.4,0,0.9-0.1,1.5-0.3c0.3-0.1,0.7-0.2,1.2-0.3
			c0.5-0.1,0.9-0.3,1.2-0.5c0.3-0.2,0.5-0.4,0.6-0.7c0.1-0.3,0.2-0.7,0.2-1.2c0-0.2,0.1-0.4,0.2-0.4s0.1,0.1,0.2,0.1
			c0,0.1,0,0.2,0.1,0.2c0,0,0,0.2,0,0.4c0,0.2,0,0.4,0,0.7c0,0.3,0,0.5,0,0.7s0,0.4,0,0.6s0,0.3-0.1,0.4s-0.1,0.1-0.2,0.2
			s-0.2,0.1-0.4,0.1c-0.1,0-0.3,0.1-0.6,0.1c-1,0.2-1.8,0.4-2.5,0.5s-1.3,0.3-1.8,0.3c-0.5,0.1-0.9,0.2-1.2,0.2
			c-0.3,0.1-0.6,0.1-0.8,0.2c0,0-0.1,0-0.3,0.1c-0.2,0-0.4,0.1-0.7,0.2c-0.3,0.1-0.5,0.1-0.8,0.2s-0.5,0.1-0.7,0.2
			c-0.3,0.1-0.4,0-0.4-0.1s0-0.2,0.2-0.2c0.1,0,0.2-0.1,0.4-0.1c0.1,0,0.2-0.1,0.4-0.2c0.2-0.1,0.4-0.3,0.4-0.5c0-0.3,0-0.6,0-0.9
			c-0.1-0.5-0.2-1.2-0.4-2.1c-0.2-0.9-0.4-1.9-0.7-3C432.5,349.2,432.1,347.8,431.8,346.5z"/>
		<path class="st1" d="M517.5,348.8c-0.2,1.1-0.4,2.1-0.6,3s-0.3,1.6-0.3,2.1c0,0.4,0,0.7,0,0.9c0.1,0.3,0.3,0.5,0.7,0.6
			c0.2,0.1,0.4,0.1,0.6,0.2s0.4,0.1,0.5,0.1c0.1,0,0.2,0.1,0.2,0.2s-0.2,0.2-0.4,0.1c-0.4-0.1-0.7-0.2-1.1-0.2
			c-0.3-0.1-0.7-0.2-1-0.2c-0.3-0.1-0.5-0.1-0.7-0.2c-0.2,0-0.3-0.1-0.3-0.1s-0.1,0-0.3-0.1c-0.2,0-0.4-0.1-0.7-0.1
			c-0.3,0-0.5-0.1-0.8-0.1s-0.5-0.1-0.7-0.1c-0.3,0-0.4-0.1-0.4-0.3c0-0.1,0.1-0.1,0.2-0.1c0.1,0,0.2,0,0.4,0c0.1,0,0.3,0,0.4,0
			c0.3,0,0.5-0.1,0.6-0.3c0.1-0.2,0.3-0.5,0.4-0.8c0.2-0.5,0.3-1.2,0.5-2c0.2-0.9,0.4-1.9,0.6-3c0.3-1.4,0.5-2.7,0.8-4.1
			c0.2-0.9,0.3-1.6,0.4-2.2c0.1-0.6,0.2-1,0.3-1.4s0.1-0.6,0.2-0.9c0-0.2,0.1-0.4,0.1-0.6c0.1-0.8-0.1-1.3-0.7-1.5
			c-0.1-0.1-0.3-0.1-0.5-0.2c-0.2,0-0.3-0.1-0.4-0.1c-0.1,0-0.2-0.1-0.2-0.2s0.2-0.2,0.5-0.1c0.2,0,0.5,0.1,0.8,0.2s0.6,0.1,0.9,0.2
			s0.5,0.1,0.7,0.2c0.2,0,0.3,0.1,0.4,0.1c0,0,0.2,0,0.4,0.1c0.2,0,0.5,0.1,0.7,0.1c0.3,0,0.6,0.1,0.9,0.2s0.5,0.1,0.7,0.1
			c0.3,0.1,0.4,0.2,0.4,0.3c0,0.1-0.1,0.1-0.2,0.1c-0.1,0-0.2,0-0.3-0.1c-0.1,0-0.2,0-0.4,0c-0.4,0-0.7,0.1-0.8,0.3
			c-0.2,0.2-0.3,0.5-0.5,0.9c-0.1,0.2-0.1,0.4-0.2,0.6c-0.1,0.2-0.1,0.5-0.2,0.8c-0.1,0.3-0.2,0.8-0.3,1.4c-0.1,0.6-0.3,1.3-0.5,2.2
			C518.1,346.1,517.8,347.5,517.5,348.8z"/>
		<path class="st1" d="M543.9,357.9c-0.3,0.9-0.6,1.7-0.9,2.3c-0.2,0.6-0.5,1.2-0.7,1.7s-0.5,0.9-0.7,1.3s-0.5,0.7-0.8,1.1
			c-0.5,0.5-1.1,0.9-1.8,1.2c-0.7,0.4-1.7,0.7-2.9,1c-0.2,0.1-0.4,0.1-0.6,0.2c-0.2,0-0.4,0.1-0.5,0.1c-0.1,0-0.1,0-0.2,0
			c-0.1,0-0.2-0.1-0.1-0.2l0.1-0.1c0.1,0,0.2,0,0.3-0.1c0.2,0,0.3-0.1,0.5-0.1c0.2-0.1,0.4-0.1,0.5-0.2c0.5-0.2,1-0.5,1.4-0.8
			c0.4-0.3,0.8-0.7,1.2-1.2s0.8-1.3,1.2-2.1c0.4-0.9,0.9-2.1,1.4-3.5c0.8-2.2,1.5-4.3,2.3-6.5c0.3-0.9,0.6-1.6,0.7-2.1
			c0.2-0.6,0.3-1,0.5-1.3c0.1-0.3,0.2-0.6,0.3-0.8c0.1-0.2,0.1-0.4,0.2-0.6c0.1-0.4,0.1-0.7,0-1c-0.1-0.2-0.3-0.5-0.7-0.7
			c-0.1-0.1-0.2-0.1-0.4-0.2s-0.3-0.1-0.5-0.2c-0.1,0-0.2-0.1-0.2-0.2s0.2-0.1,0.5,0s0.6,0.2,1,0.3c0.3,0.1,0.7,0.2,0.9,0.4
			c0.3,0.1,0.5,0.2,0.7,0.3c0.2,0.1,0.3,0.1,0.4,0.1c0,0,0.2,0.1,0.4,0.1c0.2,0.1,0.4,0.1,0.7,0.2c0.3,0.1,0.5,0.2,0.8,0.3
			c0.3,0.1,0.5,0.2,0.7,0.3c0.3,0.1,0.4,0.2,0.4,0.3c0,0.1-0.1,0.1-0.3,0.1c-0.1,0-0.2-0.1-0.3-0.1s-0.2-0.1-0.4-0.1
			c-0.4-0.1-0.7,0-0.9,0.1c-0.2,0.2-0.4,0.4-0.6,0.8c-0.1,0.2-0.2,0.4-0.2,0.6c-0.1,0.2-0.2,0.5-0.3,0.8c-0.1,0.3-0.3,0.8-0.5,1.3
			c-0.2,0.6-0.5,1.3-0.8,2.1C545.2,354.3,544.5,356.1,543.9,357.9z"/>
		<path class="st1" d="M549,357.4c0.6-0.9,1.4-1.7,2.3-2.4c0.9-0.7,1.9-1.4,3.1-1.9s2.4-0.9,3.8-1c1.4-0.2,2.9-0.1,4.5,0.2
			c1.6,0.3,3.3,0.8,5,1.7c2.1,1,4,2.3,5.5,3.8s2.6,3.1,3.4,4.8c0.7,1.7,1,3.5,0.9,5.3s-0.7,3.6-1.7,5.4c-1,1.7-2.3,3.1-3.8,4.2
			s-3.2,1.9-4.9,2.4c-1.8,0.5-3.6,0.6-5.6,0.5c-2-0.2-3.9-0.7-5.9-1.7c-2.3-1.1-4-2.4-5.4-3.9c-1.3-1.5-2.3-3.1-2.8-4.8
			c-0.6-1.7-0.8-3.4-0.8-5.1c0.1-1.7,0.4-3.3,1-4.8C547.9,359.2,548.3,358.3,549,357.4 M550.1,366.1c-0.1,1.8,0.2,3.4,0.7,4.9
			s1.3,2.8,2.4,4c1,1.2,2.3,2.1,3.8,2.9c0.8,0.4,1.7,0.7,2.9,0.9c1.2,0.3,2.4,0.3,3.8,0c1.4-0.3,2.8-0.9,4.2-1.9
			c1.5-1,2.8-2.6,4.1-4.8c1-1.8,1.7-3.6,1.8-5.4c0.2-1.8,0-3.4-0.5-4.9s-1.3-2.9-2.4-4.1c-1.1-1.2-2.4-2.2-3.9-2.9
			c-1.6-0.8-3.2-1.2-4.7-1.4c-1.6-0.2-3,0-4.4,0.4c-1.4,0.5-2.6,1.3-3.7,2.4c-1.1,1.1-2,2.6-2.7,4.3
			C550.6,362.4,550.2,364.3,550.1,366.1z"/>
		<path class="st1" d="M459.9,347.9c-1-0.9-2.1-2-3.3-3.1c1.1-1.1,1.4-1.9,1.8-2.9c0.4-0.9,0.5-1.9,0.5-2.7c0-0.4-0.1-0.8-0.3-1.1
			c-0.2-0.3-0.4-0.6-0.6-0.9c-0.2-0.2-0.5-0.5-0.7-0.6c-0.2-0.2-0.5-0.3-0.6-0.4c-0.8-0.4-1.6-0.6-2.5-0.6s-1.8,0-2.7,0.2
			c-0.2,0-0.5,0.1-0.8,0.1c-0.3,0.1-0.7,0.1-1,0.2s-0.6,0.1-0.9,0.2c-0.3,0-0.4,0.1-0.5,0.1c0,0-0.2,0-0.4,0c-0.2,0-0.5,0.1-0.8,0.1
			s-0.6,0.1-1,0.1s-0.7,0.1-1,0.2s-0.4,0.1-0.4,0.3c0,0.1,0.1,0.1,0.2,0.1s0.3,0,0.5-0.1c0.2,0,0.3,0,0.5,0c0.5,0,0.8,0.1,1,0.3
			c0.2,0.2,0.3,0.5,0.4,0.9c0,0.2,0.1,0.4,0.1,0.6s0.1,0.5,0.2,0.9c0.1,0.3,0.1,0.8,0.2,1.4s0.2,1.3,0.4,2.2
			c0.2,1.4,0.4,2.8,0.7,4.1c0.2,1.1,0.3,2.1,0.5,3c0.1,0.9,0.2,1.6,0.2,2.1c0,0.4,0,0.7-0.1,0.9c-0.1,0.3-0.2,0.4-0.4,0.5
			c-0.1,0.1-0.2,0.1-0.4,0.1c-0.1,0-0.3,0.1-0.4,0.1s-0.2,0.1-0.2,0.2s0.2,0.2,0.4,0.1c0.2,0,0.4-0.1,0.7-0.1
			c0.3-0.1,0.5-0.1,0.8-0.1s0.6-0.1,0.9-0.2c0,0,0.1,0,0.3,0c0.2,0,0.4-0.1,0.7-0.1c0.3,0,0.6-0.1,1-0.1s0.7-0.1,1.1-0.1
			c0.3,0,0.4-0.1,0.4-0.2s-0.1-0.1-0.2-0.1s-0.3,0-0.5,0s-0.4,0-0.6,0c-0.4,0-0.7-0.1-0.8-0.3c-0.2-0.2-0.3-0.5-0.4-0.8
			c-0.1-0.5-0.3-1.2-0.4-2.1s-0.3-1.9-0.5-3c0-0.2-0.1-0.4-0.1-0.6c0-0.1,0-0.2,0.2-0.2c1.1-0.1,2.2-0.3,3.2-0.4
			c0.1,0,0.2,0,0.4,0.1c0.1,0.1,0.3,0.3,0.6,0.6c0.3,0.2,0.5,0.5,0.8,0.8s0.6,0.6,0.9,0.9s0.6,0.6,0.9,0.9c0.2,0.2,0.3,0.3,0.5,0.4
			c8.6,8.2,16.1,9.4,22.2,8.7c6-0.7,10.4-3.4,10.4-3.4C473.1,362.2,460.4,347.9,459.9,347.9 M455.5,344.4c-0.3,0.2-0.6,0.4-0.9,0.5
			s-0.7,0.2-1,0.2c-0.6,0.1-1.1,0.1-1.7,0.1c-0.5,0-0.9,0-1.1-0.1c-0.1,0-0.2-0.1-0.2-0.3c-0.4-2.6-0.8-5.1-1.1-7.7
			c0-0.1,0-0.2,0.2-0.3c0.1-0.1,0.4-0.1,0.7-0.2c0.3-0.1,0.7-0.1,1.1-0.2c1.5-0.2,2.7,0.1,3.7,0.8c0.9,0.7,1.5,1.8,1.7,3.3
			c0.1,0.9,0,1.7-0.2,2.3C456.2,343.6,455.9,344.1,455.5,344.4z"/>
		<path class="st1" d="M512.8,336.7c-0.2,0-0.4-0.1-0.7-0.1c-0.2,0-0.5-0.1-0.7-0.1s-0.4,0-0.6-0.1c-0.2,0-0.3,0-0.3,0
			c-0.2,0-0.5-0.1-1.1-0.2c-0.5-0.1-1.1-0.2-1.6-0.3c-0.4-0.1-0.6,0-0.6,0.1s0.1,0.2,0.3,0.2c0.1,0,0.3,0,0.5,0.1
			c0.2,0,0.4,0.1,0.5,0.2s0.2,0.2,0.3,0.3c0,0.1,0,0.2,0,0.3c0,0.1-0.1,0.2-0.1,0.4c-0.1,0.1-0.2,0.3-0.3,0.5
			c-0.2,0.3-0.4,0.7-0.7,1.3c-0.3,0.6-0.7,1.2-1.2,2c-0.5,0.7-0.9,1.5-1.5,2.4c-0.5,0.8-1,1.7-1.5,2.5s-1,1.6-1.4,2.3
			c-0.4,0.7-0.8,1.3-1.1,1.9c-0.7-2.4-1.3-4.7-2.1-7.1c-0.2,0-2.3-7.8-9.7-13.4c-7.2-5.6-19.6-9.1-34.8,1.2
			c-0.1,0.1,6.9-4.3,16.3-4.4c9.2-0.2,20.8,3.8,26.4,18.4l0,0c0.8,2.3,1.5,4.6,2.2,6.9c0.2,0.6,0.3,1,0.4,1.2s0.2,0.3,0.4,0.4
			c0.1,0,0.2-0.1,0.4-0.3c0.1-0.2,0.4-0.7,0.9-1.3c0.4-0.5,0.9-1.4,1.6-2.6s1.6-2.5,2.7-4.2c0.4-0.7,0.9-1.3,1.3-2
			c0.4-0.6,0.8-1.2,1.2-1.8c0.4-0.5,0.7-1,0.9-1.4c0.3-0.4,0.4-0.6,0.5-0.8c0.2-0.4,0.5-0.7,0.6-0.9c0.2-0.2,0.4-0.4,0.5-0.6
			c0.1-0.1,0.3-0.3,0.4-0.3c0.1-0.1,0.2-0.1,0.3-0.2c0.3-0.1,0.6-0.1,0.8-0.1c0.3,0,0.5,0,0.5,0.1c0.2,0,0.3,0,0.4-0.1
			C513.3,336.8,513.1,336.7,512.8,336.7"/>
		<path class="st1" d="M435.3,348.9c-0.4-0.1-0.7-0.1-0.9-0.2c-0.3,0-0.5-0.1-0.8-0.2s-0.7,0-1.1,0c-0.2,0.1-0.4,0.1-0.6,0.3
			c-0.2,0.1-0.3,0.2-0.4,0.4c-0.1,0.1-0.2,0.2-0.2,0.4c0,0.1-0.1,0.2-0.1,0.3c-0.1,0.2-0.2,0.3-0.3,0.3c-0.1,0-0.1-0.1-0.2-0.1
			c0-0.1,0-0.1,0-0.2s0.1-0.1,0.1-0.2c0.1-0.1,0.1-0.3,0.3-0.6c0.1-0.2,0.3-0.5,0.4-0.7c0.2-0.2,0.3-0.4,0.5-0.6s0.4-0.3,0.6-0.3
			c0.3-0.1,0.7-0.1,1.1,0s0.8,0.1,1.3,0.2c0.2,0,0.5,0.1,0.8,0.1s0.6,0,0.8,0c0.2-0.1,0.5-0.1,0.6-0.2c0.2-0.1,0.3-0.2,0.4-0.3
			c0.1-0.1,0.2-0.2,0.3-0.3c0-0.1,0.1-0.1,0.1-0.2c0.1-0.2,0.2-0.3,0.3-0.3c0.1,0,0.2,0,0.2,0.1s0,0.2,0,0.3c0,0.1-0.1,0.3-0.2,0.5
			s-0.3,0.4-0.4,0.7c-0.2,0.2-0.4,0.4-0.6,0.6s-0.4,0.3-0.6,0.3C436.1,349,435.7,349,435.3,348.9"/>
		<path class="st1" d="M527.8,346.9c0.2-0.9,0.4-1.6,0.6-2.2c0.1-0.6,0.3-1,0.3-1.4c0.1-0.4,0.2-0.6,0.2-0.8c0-0.2,0.1-0.4,0.1-0.6
			c0.1-0.4,0.1-0.7,0-1c-0.1-0.2-0.4-0.5-0.8-0.6c-0.1-0.1-0.2-0.1-0.4-0.2s-0.3-0.1-0.5-0.1c-0.1,0-0.2-0.1-0.2-0.2
			s0.2-0.2,0.5-0.1s0.6,0.2,1,0.2c0.3,0.1,0.7,0.2,1,0.3c0.4,0.1,0.7,0.2,1.1,0.3c0.1,0,0.4,0.1,1,0.3c0.6,0.2,1.3,0.3,2,0.5
			s1.4,0.4,2.1,0.6c0.6,0.2,1,0.3,1.2,0.3c0.5,0.1,0.9,0.2,1.2,0.2c0.1,0,0.1,0,0.2,0c0.1,0,0.1,0,0.2,0c0.1,0,0.1,0.1,0,0.2
			c0,0.1-0.1,0.2-0.2,0.3c-0.1,0.1-0.2,0.4-0.4,0.7c0,0.1-0.1,0.2-0.1,0.3c0,0.1-0.1,0.3-0.2,0.4c-0.1,0.2-0.1,0.3-0.2,0.4
			c-0.1,0.1-0.1,0.2-0.1,0.3l-0.1,0.1h-0.1c-0.1,0-0.2-0.2-0.1-0.4c0-0.1,0.1-0.2,0.1-0.4c0-0.2,0-0.3,0-0.5s-0.1-0.4-0.3-0.6
			c-0.2-0.2-0.6-0.4-1.3-0.7c-0.1,0-0.3-0.1-0.7-0.2s-0.8-0.2-1.2-0.4c-0.4-0.1-0.8-0.2-1.2-0.3c-0.3-0.1-0.6-0.2-0.6-0.2
			c-0.1,0-0.2,0-0.2,0.2c0,0-2.7,10.1-2.8,10.5s-0.2,0.8-0.3,1.2c-0.1,0.4-0.2,0.8-0.3,1.2c-0.1,0.4-0.2,0.6-0.2,0.7
			c-0.1,0.4-0.1,0.7-0.1,1s0.1,0.5,0.3,0.7s0.4,0.4,0.8,0.5c0.4,0.1,0.8,0.3,1.4,0.5c0.3,0.1,0.7,0.2,1.2,0.3
			c0.5,0.1,0.9,0.2,1.3,0.1c0.4,0,0.7-0.1,0.9-0.3c0.2-0.2,0.5-0.5,0.7-1c0.1-0.2,0.2-0.3,0.3-0.3c0,0.1,0.1,0.1,0.1,0.2
			s0,0.2-0.1,0.2c0,0-0.1,0.2-0.1,0.3c-0.1,0.2-0.2,0.4-0.3,0.6s-0.2,0.4-0.3,0.7c-0.1,0.2-0.2,0.4-0.3,0.5s-0.2,0.2-0.3,0.3
			c-0.1,0-0.2,0.1-0.3,0.1s-0.2,0-0.4,0c-0.2,0-0.3-0.1-0.6-0.2c-0.9-0.3-1.7-0.5-2.4-0.7c-0.7-0.2-1.3-0.4-1.7-0.5
			c-0.5-0.2-0.9-0.3-1.2-0.4s-0.6-0.2-0.7-0.2c0,0-0.1,0-0.3-0.1c-0.2,0-0.4-0.1-0.7-0.2c-0.2-0.1-0.5-0.1-0.8-0.2s-0.5-0.1-0.7-0.1
			c-0.3-0.1-0.4-0.2-0.4-0.3c0-0.1,0.1-0.1,0.2-0.1c0.1,0,0.2,0.1,0.4,0.1c0.1,0,0.3,0,0.4,0c0.3,0,0.5-0.1,0.6-0.3
			c0.2-0.2,0.3-0.5,0.4-0.8c0.2-0.5,0.4-1.1,0.6-2s0.5-1.9,0.8-3C527.1,349.6,527.4,348.3,527.8,346.9z"/>
		<path class="st1" d="M529.7,350.7c-0.3-0.3-0.6-0.5-0.7-0.6c-0.2-0.2-0.4-0.3-0.7-0.5c-0.2-0.2-0.5-0.4-1-0.5
			c-0.2-0.1-0.4-0.1-0.6-0.1s-0.4,0.1-0.5,0.1c-0.2,0.1-0.3,0.1-0.4,0.2c-0.1,0.1-0.2,0.1-0.2,0.2c-0.2,0.1-0.3,0.1-0.4,0.1
			c0-0.1-0.1-0.1-0.1-0.2l0.1-0.1c0.1-0.1,0.1-0.1,0.2-0.2c0.1-0.1,0.3-0.2,0.5-0.4c0.2-0.1,0.4-0.3,0.7-0.4
			c0.3-0.1,0.5-0.2,0.8-0.3c0.3-0.1,0.5-0.1,0.7,0c0.3,0.1,0.6,0.2,1,0.5c0.3,0.3,0.7,0.5,1,0.8c0.2,0.1,0.4,0.3,0.7,0.5
			c0.3,0.2,0.5,0.3,0.7,0.4s0.5,0.1,0.7,0.1s0.4,0,0.5-0.1c0.2,0,0.3-0.1,0.4-0.1c0.1,0,0.1-0.1,0.2-0.1c0.2-0.1,0.3-0.2,0.4-0.2
			c0.1,0,0.2,0.1,0.1,0.2c0,0.1-0.1,0.2-0.2,0.3c-0.1,0.1-0.2,0.2-0.4,0.3c-0.2,0.1-0.4,0.3-0.7,0.4s-0.5,0.2-0.8,0.3
			c-0.3,0.1-0.5,0.1-0.7,0C530.4,351.1,530,351,529.7,350.7"/>
		<path class="st1" d="M465.4,338.8c0.4-1.2,1-2.3,1.9-3.3s2.1-1.9,3.6-2.6s3.3-1.1,5.5-1.1c1.7,0,3.3,0.2,4.8,0.6
			c1.5,0.5,2.8,1.1,3.8,2s1.8,1.9,2.4,3.1s0.8,2.5,0.7,4c-0.1,1.4-0.4,2.7-1,3.9c-0.6,1.2-1.4,2.3-2.4,3.2c-1,0.9-2.2,1.6-3.6,2.1
			s-2.9,0.8-4.6,0.8c-1.9,0-3.5-0.2-4.9-0.8c-1.4-0.5-2.6-1.3-3.5-2.2c-1-0.9-1.7-1.9-2.2-3.1c-0.5-1.1-0.8-2.3-0.9-3.4
			C464.8,341.1,465,340,465.4,338.8 M479.6,341.9L479.6,341.9L479.6,341.9c-0.2-0.3-0.8-0.3-1.2-0.5c-0.1-0.1-0.2-0.2-0.3-0.3V341
			H478c-0.7-0.7-1.2-1.7-1.2-1.7s0,0.1-0.1,0.2c-0.1-0.1-0.2,0-0.5,0.4c-0.1,0.2-0.2,0.4-0.3,0.6c-0.2,0.2-0.4,0.2-0.6,0.4
			c-0.1,0.2-0.1,0.4-0.2,0.6c-0.1,0.1-0.2,0.1-0.3,0.2c-0.2,0.1-0.5,0.1-0.7,0.2l0,0c0.2-0.2,0.4-0.3,0.6-0.5
			c-0.4,0.2-0.9,0.4-0.9,0.7c0.3,0.1,0.6,0.2,0.9,0.3c0.3,0.1,0.5,0.5,0.9,0.3c-0.1,0.3,0.3,0.7,0.5,0.9c0.2,0.2,0.4,0.2,0.5,0.4
			c0.1,0.1,0.1,0.3,0.2,0.4v0.1c0,0,0,0,0-0.1v0.1c0.1-0.3,0.3-0.6,0.5-0.9c0.1-0.1,0.2-0.2,0.2-0.3c0-0.1,0.1-0.1,0.1-0.2
			s0-0.1-0.1-0.2c0.1-0.1,0.2,0,0.3-0.1c0.1-0.1,0.3-0.3,0.4-0.4c0.3-0.2,0.8-0.3,1-0.6C479.6,341.9,479.6,341.9,479.6,341.9z
			 M468.8,345.1c0.5,1.1,1.2,2.1,2,2.9s1.8,1.4,2.9,1.8s2.3,0.6,3.5,0.6c0.6,0,1.4-0.1,2.2-0.3c0.9-0.2,1.7-0.6,2.5-1.2
			s1.5-1.4,2.1-2.5s0.9-2.5,1-4.4c0-1.5-0.2-2.8-0.6-4c-0.5-1.2-1.1-2.1-1.9-2.9s-1.8-1.4-2.9-1.8s-2.3-0.6-3.5-0.6
			c-1.3,0-2.5,0.2-3.5,0.6c-1.1,0.4-2,0.9-2.7,1.6s-1.3,1.6-1.7,2.6c-0.4,1-0.5,2.2-0.4,3.6C468,342.7,468.3,344,468.8,345.1z"/>
		<path class="st1" d="M477.8,341.5c-0.1,0.1-0.2,0.2-0.4,0.3C477.6,341.7,477.8,341.6,477.8,341.5"/>
	</g>
</g>
</svg>
