<?xml version="1.0" encoding="utf-8"?>
<!-- Generator: Adobe Illustrator 22.0.1, SVG Export Plug-In . SVG Version: 6.00 Build 0)  -->
<svg version="1.1" id="Capa_1" xmlns="http://www.w3.org/2000/svg" xmlns:xlink="http://www.w3.org/1999/xlink" x="0px" y="0px"
	 viewBox="0 0 1366 768" style="enable-background:new 0 0 1366 768;" xml:space="preserve">
<style type="text/css">
	.st0{opacity:0.4;}
	.st1{fill-rule:evenodd;clip-rule:evenodd;fill:#C9292C;}
</style>
<g class="st0">
	<path class="st1" d="M1186,256.8c29.3-7.1,65.4-20.6,108.3-40.7c-146.5,89.2-316,133.4-487.3,127.1c47.7-3.5,81.1-7.2,100.2-11.1
		c13-23.2,24.8-30.4,35.4-21.7c2.3-5.9,5.5-7.6,9.6-5.1c40.9-59.9,71.5-69.9,91.8-30.1c19.8-16.1,32-17.1,36.8-2.9
		c34.3-35.6,54.1-38.1,59.3-7.7C1164.5,244,1179.8,241.4,1186,256.8z"/>
	<path class="st1" d="M145.6,194.7c-20.3-4.9-45.3-14.3-74.9-28.1c101.3,61.7,218.6,92.3,337.1,87.9c-33-2.4-56.1-5-69.3-7.7
		c-9-16-17.1-21.1-24.5-15c-1.6-4.1-3.8-5.3-6.6-3.6c-28.3-41.4-49.5-48.4-63.5-20.9c-13.7-11.2-22.2-11.8-25.5-2
		c-23.7-24.6-37.4-26.4-41-5.3C160.5,185.9,149.9,184.1,145.6,194.7z"/>
</g>
</svg>
