<?xml version="1.0" encoding="utf-8"?>
<!-- Generator: Adobe Illustrator 22.0.1, SVG Export Plug-In . SVG Version: 6.00 Build 0)  -->
<svg version="1.1" id="Capa_1" xmlns="http://www.w3.org/2000/svg" xmlns:xlink="http://www.w3.org/1999/xlink" x="0px" y="0px"
	 viewBox="0 0 550.5 391.3" style="enable-background:new 0 0 550.5 391.3;" xml:space="preserve">
<style type="text/css">
	.st0{fill-rule:evenodd;clip-rule:evenodd;fill:#300827;}
	.st1{fill-rule:evenodd;clip-rule:evenodd;fill:#C9292C;}
	.st2{fill:#C9292C;}
</style>
<g>
	<g>
		<path class="st0" d="M97.1,296.8c-4-1.4-7.5-3.5-10.5-6.3c-1.8-1.7-3.3-3.5-4.5-5.4c-1.2-1.9-2.1-3.9-2.8-5.8
			c-0.7-2-1.2-4-1.4-5.9c-0.3-2-0.4-3.9-0.4-5.8c0-1.3,0.1-2.8,0.4-4.5c0.3-1.7,0.7-3.6,1.3-5.4c0.6-1.9,1.5-3.8,2.6-5.8
			c1.1-1.9,2.5-3.8,4.2-5.5c1.1-1.1,2.4-2.2,3.9-3.3c1.5-1,3.1-1.9,5-2.6c1.9-0.7,4-1.3,6.4-1.8c2.4-0.4,5-0.7,7.9-0.7
			c1.5,0,3.3,0.1,5.2,0.2c2,0.1,3.9,0.4,5.8,0.7c1.5,0.3,2.8,0.5,4.1,0.7c1.2,0.2,2.5,0.4,3.7,0.5c0.4,0.1,0.7,0.1,0.8,0.3
			c0.1,0.1,0.2,0.3,0.2,0.6c0,0.3,0,0.8-0.1,1.4c-0.1,0.6-0.2,1.6-0.3,3c-0.1,0.6-0.1,1.3-0.1,2.1c0,0.8,0,1.6,0,2.4
			c0,0.8,0,1.5,0,2.1c0,0.6,0,1.1,0,1.4c0,1.1-0.3,1.6-0.7,1.6c-0.4,0-0.6-0.5-0.6-1.6c0-1.5-0.3-3-0.8-4.4
			c-0.6-1.5-1.3-2.6-2.4-3.5c-1.3-1.2-3.3-2.2-6.1-3.1c-2.7-0.9-5.8-1.3-9.1-1.3c-2.5,0-4.7,0.2-6.6,0.5c-1.9,0.3-3.5,0.8-4.9,1.3
			c-1.4,0.5-2.6,1.2-3.5,1.8c-1,0.7-1.8,1.3-2.4,2c-2.8,2.8-4.6,5.8-5.5,9.2c-0.9,3.4-1.3,7.1-1.3,11.1c0,3.7,0.7,7.3,2,10.7
			c1.3,3.4,3.2,6.4,5.6,9.1c2.4,2.6,5.3,4.7,8.7,6.3c3.4,1.6,7.1,2.4,11.1,2.4c2.9,0,5.4-0.2,7.6-0.7c2.2-0.5,4.1-1.5,5.6-3.1
			c0.8-0.9,1.5-2,1.9-3.4c0.5-1.4,0.8-2.4,0.9-3.1c0.1-0.8,0.4-1.2,0.8-1.2c0.2,0,0.3,0.1,0.4,0.3c0.1,0.2,0.1,0.5,0.1,0.8
			c0,0.2-0.1,0.6-0.2,1.4c-0.1,0.8-0.2,1.7-0.4,2.8c-0.2,1-0.3,2.1-0.5,3.2c-0.2,1.1-0.4,1.9-0.6,2.6c-0.3,0.7-0.5,1.2-0.6,1.4
			c-0.2,0.2-0.6,0.5-1.3,0.8c-0.8,0.3-1.7,0.6-2.7,0.8c-1.1,0.2-2.2,0.4-3.4,0.5c-1.2,0.1-2.5,0.2-3.8,0.3c-1.3,0.1-2.5,0.1-3.8,0.1
			C105.9,298.9,101.1,298.1,97.1,296.8"/>
		<path class="st0" d="M138.3,253.8c0-2,0-3.7,0-5c0-1.3,0-2.3,0-3.1c0-0.8,0-1.4,0-1.9c0-0.5,0-0.9-0.1-1.3c-0.1-0.9-0.2-1.6-0.5-2
			c-0.3-0.5-0.8-0.8-1.7-0.9c-0.2-0.1-0.5-0.1-0.8-0.1c-0.4,0-0.7,0-0.9,0c-0.3,0-0.4-0.1-0.4-0.3c0-0.3,0.3-0.4,0.8-0.4
			c0.6,0,1.2,0,1.8,0c0.6,0,1.2,0,1.8,0.1c0.6,0,1.1,0,1.5,0.1c0.4,0,0.7,0,0.8,0c0.1,0,0.4,0,0.8,0c0.4,0,0.9,0,1.4-0.1
			c0.5,0,1,0,1.6-0.1c0.5,0,1,0,1.4,0c0.5,0,0.8,0.1,0.8,0.4c0,0.2-0.1,0.3-0.4,0.3l-0.5,0c-0.2,0-0.4,0.1-0.7,0.1
			c-0.7,0.1-1.2,0.4-1.4,0.9c-0.3,0.5-0.4,1.2-0.5,2.1c0,0.4-0.1,0.9-0.1,1.3c0,0.5,0,1.1,0,1.9c0,0.8,0,1.8,0,3.1c0,1.3,0,3,0,5
			v7.3c0,1.9,0.1,3.5,0.3,4.9c0.2,1.4,0.5,2.6,0.8,3.6c0.3,1,0.8,1.9,1.2,2.6c0.5,0.7,1,1.3,1.5,1.9c1.3,1.2,2.5,2,3.7,2.4
			c1.2,0.3,2.6,0.5,4,0.5c1.6,0,3.1-0.3,4.5-1c1.4-0.7,2.6-1.6,3.5-2.7c1.2-1.5,2-3.3,2.4-5.5c0.4-2.2,0.6-4.6,0.6-7.3v-6.5
			c0-2,0-3.7,0-5c0-1.3,0-2.3,0-3.1c0-0.8,0-1.4,0-1.9c0-0.5,0-0.9-0.1-1.3c-0.1-0.9-0.2-1.6-0.5-2c-0.3-0.5-0.8-0.8-1.7-0.9
			c-0.2-0.1-0.5-0.1-0.8-0.1c-0.4,0-0.7,0-0.9,0c-0.3,0-0.4-0.1-0.4-0.3c0-0.3,0.3-0.4,0.8-0.4c0.6,0,1.2,0,1.8,0
			c0.6,0,1.2,0,1.7,0.1c0.5,0,1,0,1.3,0.1c0.4,0,0.6,0,0.6,0c0.1,0,0.3,0,0.6,0c0.3,0,0.7,0,1.1-0.1c0.4,0,0.9,0,1.3-0.1
			c0.5,0,0.9,0,1.3,0c0.5,0,0.8,0.1,0.8,0.4c0,0.2-0.1,0.3-0.4,0.3l-0.5,0c-0.2,0-0.4,0.1-0.7,0.1c-0.7,0.2-1.2,0.5-1.4,0.9
			c-0.3,0.5-0.4,1.1-0.5,2c0,0.4-0.1,0.9-0.1,1.3c0,0.5,0,1.1,0,1.9c0,0.8,0,1.8,0,3.1c0,1.3,0,3,0,5l0,5.6c0,1.4-0.1,2.9-0.2,4.3
			c-0.1,1.4-0.3,2.9-0.7,4.2c-0.3,1.4-0.8,2.7-1.4,3.9c-0.6,1.2-1.4,2.3-2.5,3.2c-0.9,0.8-1.8,1.5-2.8,2c-0.9,0.5-1.9,0.9-2.7,1.2
			c-0.9,0.3-1.8,0.5-2.6,0.5c-0.9,0.1-1.7,0.1-2.4,0.1c-0.4,0-1.1,0-1.9-0.1c-0.8-0.1-1.7-0.2-2.7-0.4c-1-0.2-2-0.6-3-1.1
			c-1-0.5-2-1.2-2.9-2.1c-0.6-0.6-1.2-1.3-1.7-2.1c-0.5-0.8-1-1.7-1.4-2.8c-0.4-1.1-0.7-2.4-0.9-3.8c-0.2-1.4-0.3-3.1-0.3-5V253.8z"
			/>
		<path class="st0" d="M183.8,253.8c0-2,0-3.7,0-5c0-1.3,0-2.3,0-3.1c0-0.8,0-1.4,0-1.9c0-0.5,0-0.9-0.1-1.3c-0.1-0.9-0.2-1.6-0.5-2
			c-0.3-0.5-0.8-0.8-1.7-0.9c-0.2-0.1-0.5-0.1-0.8-0.1c-0.4,0-0.7,0-0.9,0c-0.3,0-0.4-0.1-0.4-0.3c0-0.3,0.3-0.4,0.8-0.4
			c0.6,0,1.2,0,1.8,0c0.7,0,1.3,0,1.8,0.1l2.1,0.1c0.1,0,0.7,0,1.8,0c1.1,0,2.4,0,3.7,0c1.4,0,2.7,0,3.9,0c1.2,0,2,0,2.3,0
			c1-0.1,1.7-0.2,2.2-0.3l0.4-0.2l0.4-0.1c0.1,0,0.2,0.2,0.2,0.5c0,0.2-0.1,0.4-0.2,0.8c-0.1,0.4-0.2,0.9-0.3,1.7c0,0.1,0,0.4,0,0.7
			c0,0.3,0,0.7-0.1,1c0,0.4-0.1,0.7-0.1,1c0,0.3,0,0.6-0.1,0.7L200,245l-0.2,0.2c-0.3,0-0.4-0.2-0.4-0.7c0-0.2,0-0.5-0.1-0.8
			c0-0.4-0.1-0.7-0.3-1c-0.2-0.4-0.5-0.8-0.9-1.1c-0.4-0.3-1.3-0.5-2.7-0.7c-0.2,0-0.7-0.1-1.4-0.1c-0.7,0-1.5,0-2.2-0.1
			c-0.8,0-1.5,0-2.2,0c-0.6,0-1,0-1.2,0c-0.2,0-0.3,0.2-0.3,0.5c0,0,0,22.9,0,23.8c0,0.9,0,1.8,0,2.7c0,0.9,0,1.8,0,2.6
			c0,0.8,0,1.3,0,1.6c0,0.9,0.1,1.6,0.3,2.2c0.2,0.6,0.4,1,0.9,1.3c0.4,0.3,1,0.5,1.8,0.6c0.7,0.1,1.8,0.2,3,0.2
			c0.7,0,1.5,0,2.5-0.1c1-0.1,1.8-0.2,2.5-0.5c0.7-0.3,1.2-0.7,1.5-1.3c0.3-0.6,0.6-1.4,0.8-2.5c0.1-0.5,0.3-0.8,0.5-0.8l0.3,0.3
			l0,0.5c0,0.1,0,0.4-0.1,0.8c-0.1,0.4-0.1,0.9-0.2,1.5c-0.1,0.5-0.1,1.1-0.2,1.6c-0.1,0.5-0.1,0.9-0.2,1.2
			c-0.1,0.3-0.2,0.6-0.3,0.8l-0.5,0.4c-0.2,0.1-0.5,0.1-0.8,0.2c-0.3,0-0.7,0-1.2,0c-1.9,0-3.6,0-5-0.1c-1.4,0-2.6-0.1-3.6-0.1
			c-1-0.1-1.8-0.1-2.5-0.1c-0.6,0-1.2,0-1.5,0c-0.1,0-0.3,0-0.7,0c-0.4,0-0.8,0-1.4,0.1c-0.5,0-1,0-1.6,0.1c-0.5,0-1,0.1-1.4,0.1
			c-0.5,0-0.8-0.1-0.8-0.4c0-0.2,0.1-0.3,0.4-0.3c0.2,0,0.5,0,0.8-0.1c0.3,0,0.5-0.1,0.8-0.2c0.5-0.1,0.9-0.4,1.1-0.9
			c0.2-0.5,0.3-1.2,0.4-1.9c0.1-1.1,0.2-2.7,0.2-4.6c0-2,0-4.2,0-6.7L183.8,253.8z"/>
		<path class="st0" d="M348.9,263c0,2.5,0,4.8,0,6.7c0,2,0.1,3.5,0.2,4.6c0.1,0.8,0.2,1.4,0.5,1.9c0.2,0.5,0.7,0.8,1.5,0.9
			c0.4,0.1,0.8,0.1,1.3,0.2c0.5,0,0.8,0.1,1,0.1c0.3,0,0.4,0.1,0.4,0.3c0,0.3-0.3,0.4-0.8,0.4c-0.7,0-1.4,0-2.2,0
			c-0.7,0-1.4,0-2-0.1c-0.6,0-1.1,0-1.5-0.1c-0.4,0-0.6,0-0.7,0c-0.1,0-0.3,0-0.7,0c-0.4,0-0.8,0-1.4,0.1c-0.5,0-1,0-1.6,0.1
			c-0.5,0-1,0-1.4,0c-0.5,0-0.8-0.1-0.8-0.4c0-0.2,0.1-0.3,0.4-0.3c0.2,0,0.5,0,0.8-0.1c0.3,0,0.5-0.1,0.8-0.2
			c0.5-0.1,0.9-0.4,1.1-0.9c0.2-0.5,0.3-1.2,0.4-1.9c0.1-1.1,0.2-2.7,0.2-4.6c0-2,0-4.2,0-6.7l0-9.2c0-2,0-3.7,0-5
			c0-1.3,0-2.3,0-3.1c0-0.8,0-1.4,0-1.9c0-0.5,0-0.9-0.1-1.3c-0.1-1.7-0.7-2.7-1.7-2.9c-0.3-0.1-0.6-0.1-0.9-0.2
			c-0.3,0-0.5-0.1-0.7-0.1c-0.3,0-0.4-0.1-0.4-0.3c0-0.3,0.3-0.4,0.8-0.4c0.4,0,0.9,0,1.5,0c0.6,0,1.1,0,1.6,0.1c0.5,0,1,0,1.4,0.1
			c0.4,0,0.6,0,0.7,0c0.1,0,0.3,0,0.7,0c0.4,0,0.8,0,1.4-0.1c0.5,0,1,0,1.6-0.1c0.5,0,1,0,1.4,0c0.5,0,0.8,0.1,0.8,0.4
			c0,0.2-0.1,0.3-0.4,0.3l-0.5,0c-0.2,0-0.4,0.1-0.7,0.1c-0.7,0.1-1.2,0.4-1.4,0.9c-0.3,0.5-0.4,1.2-0.5,2.1c0,0.4-0.1,0.9-0.1,1.3
			c0,0.5,0,1.1,0,1.9c0,0.8,0,1.8,0,3.1c0,1.3,0,3,0,5L348.9,263z"/>
		<path class="st0" d="M402.7,266.4c0,2.1,0,3.9,0,5.5c0,1.5-0.1,2.9-0.2,4c-0.1,1.2-0.3,2.2-0.5,3.1c-0.2,0.9-0.5,1.9-0.9,2.8
			c-0.5,1.3-1.4,2.6-2.6,3.9c-1.2,1.3-2.8,2.6-4.9,4.1c-0.3,0.2-0.7,0.5-1.1,0.7c-0.4,0.2-0.7,0.4-0.9,0.6l-0.4,0.1
			c-0.2,0-0.4-0.1-0.4-0.3l0.2-0.4c0.1-0.1,0.3-0.2,0.5-0.4c0.3-0.2,0.6-0.4,0.9-0.7c0.3-0.3,0.6-0.5,0.8-0.8
			c0.8-0.9,1.5-1.8,2.2-2.6c0.6-0.9,1.1-2,1.5-3.5c0.4-1.4,0.7-3.2,0.9-5.3c0.2-2.1,0.3-4.9,0.3-8.3v-15.1c0-2,0-3.7,0-5
			c0-1.3,0-2.3,0-3.1c0-0.8,0-1.4,0-1.9c0-0.5,0-0.9-0.1-1.3c-0.1-0.9-0.2-1.6-0.5-2c-0.3-0.5-0.8-0.8-1.7-0.9
			c-0.2-0.1-0.5-0.1-0.8-0.1c-0.4,0-0.7,0-0.9,0c-0.3,0-0.4-0.1-0.4-0.3c0-0.3,0.3-0.4,0.8-0.4c0.6,0,1.2,0,1.8,0
			c0.6,0,1.3,0,1.8,0.1c0.6,0,1,0,1.4,0.1c0.4,0,0.6,0,0.7,0c0.1,0,0.3,0,0.7,0c0.4,0,0.8,0,1.4-0.1c0.5,0,1,0,1.6-0.1
			c0.5,0,1,0,1.4,0c0.5,0,0.8,0.1,0.8,0.4c0,0.2-0.1,0.3-0.4,0.3l-0.5,0c-0.2,0-0.4,0.1-0.7,0.1c-0.7,0.1-1.2,0.4-1.4,0.9
			c-0.3,0.5-0.4,1.2-0.5,2.1c0,0.4-0.1,0.9-0.1,1.3c0,0.5,0,1.1,0,1.9c0,0.8,0,1.8,0,3.1c0,1.3,0,3,0,5V266.4z"/>
		<path class="st0" d="M411.5,261.5c0.5-2.3,1.3-4.6,2.3-6.8c1.1-2.2,2.4-4.4,4-6.4c1.6-2,3.5-3.8,5.7-5.4c2.2-1.5,4.7-2.8,7.6-3.7
			c2.8-0.9,6-1.3,9.4-1.3c4.2,0,8.2,0.7,11.8,2c3.6,1.3,6.8,3.3,9.4,5.7c2.6,2.5,4.7,5.5,6.2,9.1c1.5,3.6,2.3,7.6,2.3,12.1
			c0,4.3-0.7,8.4-2.2,12.2c-1.4,3.8-3.5,7.2-6.1,10c-2.6,2.9-5.8,5.1-9.5,6.8c-3.7,1.7-7.9,2.5-12.4,2.5c-5.2,0-9.6-0.9-13.3-2.8
			c-3.7-1.9-6.7-4.2-9.1-7.2c-2.4-2.9-4.1-6.2-5.2-9.8c-1.1-3.6-1.7-7.1-1.7-10.6C410.7,266,411,263.9,411.5,261.5 M419.7,278.1
			c1.2,3.7,3,6.8,5.1,9.3c2.2,2.6,4.7,4.6,7.7,5.9c2.9,1.4,6.1,2.1,9.5,2.1c1.7,0,3.8-0.3,6.1-1c2.4-0.6,4.7-1.9,6.8-3.8
			c2.2-1.9,4.1-4.6,5.6-8.1c1.5-3.5,2.3-8,2.3-13.6c0-4.6-0.6-8.7-1.9-12.3c-1.3-3.6-3-6.5-5.1-8.9c-2.1-2.4-4.6-4.2-7.3-5.4
			c-2.8-1.2-5.6-1.9-8.6-1.9c-3.2,0-6.1,0.5-8.8,1.6c-2.7,1.1-5,2.7-7,4.8c-2,2.1-3.5,4.8-4.6,8c-1.1,3.2-1.7,6.9-1.7,11.1
			C417.9,270.4,418.5,274.5,419.7,278.1z"/>
		<path class="st0" d="M236.5,267.3c-1.7-2.3-3.7-4.8-5.8-7.5c2.3-2.2,3.2-3.9,4.1-5.9c0.9-2,1.4-3.9,1.4-5.9c0-0.9-0.1-1.7-0.4-2.5
			c-0.3-0.8-0.6-1.4-0.9-2c-0.4-0.6-0.7-1.1-1.2-1.5c-0.4-0.4-0.8-0.8-1.1-1c-1.4-1-2.9-1.6-4.5-1.9c-1.6-0.3-3.3-0.4-4.9-0.4
			c-0.4,0-0.9,0-1.5,0c-0.6,0-1.2,0-1.9,0.1c-0.6,0-1.2,0-1.7,0.1c-0.5,0-0.8,0-0.9,0c-0.1,0-0.3,0-0.7,0c-0.4,0-0.9,0-1.4-0.1
			c-0.6,0-1.2,0-1.8-0.1c-0.7,0-1.3,0-1.8,0c-0.5,0-0.8,0.1-0.8,0.4c0,0.2,0.1,0.3,0.4,0.3c0.2,0,0.5,0,0.9,0c0.4,0,0.6,0.1,0.8,0.1
			c0.9,0.2,1.4,0.5,1.7,0.9c0.3,0.5,0.4,1.1,0.5,2c0,0.4,0.1,0.9,0.1,1.3c0,0.5,0,1.1,0,1.9c0,0.8,0,1.8,0,3.1c0,1.3,0,3,0,5v9.2
			c0,2.5,0,4.8,0,6.7c0,2-0.1,3.5-0.2,4.6c-0.1,0.8-0.2,1.4-0.4,1.9c-0.2,0.5-0.5,0.8-1,0.9c-0.2,0.1-0.5,0.1-0.8,0.2
			c-0.3,0-0.5,0.1-0.8,0.1c-0.3,0-0.4,0.1-0.4,0.3c0,0.3,0.3,0.4,0.8,0.4c0.4,0,0.8,0,1.4,0c0.5,0,1.1,0,1.6-0.1
			c0.5,0,1.1,0,1.8-0.1c0.1,0,0.3,0,0.7,0c0.4,0,0.9,0,1.5,0.1c0.6,0,1.3,0,2,0.1c0.7,0,1.4,0,2.2,0c0.5,0,0.8-0.1,0.8-0.4
			c0-0.2-0.1-0.3-0.4-0.3c-0.2,0-0.6,0-1.1-0.1c-0.5,0-0.9-0.1-1.3-0.2c-0.8-0.1-1.3-0.4-1.5-0.9c-0.2-0.5-0.4-1.2-0.5-1.9
			c-0.1-1.1-0.2-2.7-0.2-4.6c0-2,0-4.2,0-6.7v-1.3c0-0.3,0.1-0.4,0.4-0.4l6.3,0.1c0.2,0,0.5,0.1,0.7,0.3c0.2,0.3,0.6,0.8,1,1.4
			c0.4,0.6,0.9,1.2,1.4,1.9c0.5,0.7,1,1.4,1.6,2.2c0.5,0.8,1.1,1.5,1.6,2.3c0.3,0.4,0.5,0.7,0.8,1.1C263.1,310.4,298,284,298,284
			C261.4,302.6,236.5,267.3,236.5,267.3 M228.7,258.8c-0.6,0.4-1.2,0.7-1.9,0.8c-0.7,0.1-1.3,0.2-1.9,0.2c-1.1,0-2.2-0.1-3.3-0.2
			c-1-0.2-1.8-0.4-2.1-0.6c-0.2-0.1-0.4-0.3-0.4-0.6v-17.1c0-0.3,0.1-0.5,0.4-0.6c0.3-0.1,0.7-0.1,1.3-0.2c0.6-0.1,1.3-0.1,2.1-0.1
			c2.8,0,4.9,0.9,6.5,2.8c1.6,1.9,2.4,4.4,2.4,7.7c0,2-0.3,3.7-0.9,5C230.4,257.2,229.6,258.2,228.7,258.8z"/>
		<path class="st0" d="M336.1,238.6c-0.4,0-0.8,0-1.2,0c-0.4,0-0.8,0-1.2,0.1c-0.4,0-0.7,0-1,0.1c-0.3,0-0.5,0-0.5,0
			c-0.3,0-1,0-2-0.1c-1-0.1-2-0.1-3-0.1c-0.8,0-1.1,0.1-1.1,0.4c0,0.2,0.2,0.3,0.6,0.3c0.3,0,0.6,0,0.9,0c0.4,0,0.7,0.1,1,0.2
			c0.3,0.1,0.5,0.3,0.5,0.5c0.1,0.2,0.1,0.4,0.1,0.7c0,0.2,0,0.5-0.1,0.9c-0.1,0.3-0.2,0.7-0.3,1.1c-0.2,0.6-0.5,1.6-1,3
			c-0.5,1.4-1,2.9-1.7,4.7c-0.6,1.8-1.4,3.6-2.1,5.7c-0.8,2-1.5,4-2.3,5.9c-0.8,1.9-1.5,3.8-2.2,5.5c-0.7,1.7-1.3,3.2-1.7,4.3
			l-5.5-15c0,0-25.4-64.8-82.4-27.7c0,0,52.3-29,79.2,32l0,0l5.7,14.6c0.5,1.3,0.8,2.1,1,2.6c0.2,0.4,0.5,0.7,0.8,0.7
			c0.2,0,0.5-0.3,0.7-0.8c0.2-0.5,0.7-1.6,1.4-3.2c0.6-1.3,1.4-3.3,2.6-6c1.1-2.7,2.5-6,4-9.8c0.6-1.6,1.3-3.2,1.9-4.7
			c0.6-1.5,1.2-2.9,1.7-4.2c0.5-1.3,1-2.4,1.3-3.3c0.4-0.9,0.6-1.5,0.8-1.9c0.3-0.9,0.6-1.6,0.9-2.2c0.3-0.6,0.5-1.1,0.7-1.4
			c0.2-0.4,0.4-0.6,0.6-0.8l0.5-0.4c0.5-0.3,1-0.5,1.5-0.5c0.5-0.1,0.8-0.1,1-0.1c0.4,0,0.6-0.1,0.6-0.4
			C337,238.8,336.7,238.6,336.1,238.6"/>
		<path class="st0" d="M189.2,260.7c-0.7-0.4-1.3-0.6-1.7-0.8c-0.5-0.2-1-0.5-1.5-0.8c-0.5-0.3-1.2-0.4-2-0.4
			c-0.4,0-0.8,0.1-1.2,0.2c-0.4,0.2-0.7,0.3-0.9,0.5c-0.3,0.2-0.5,0.4-0.6,0.6l-0.4,0.5c-0.3,0.3-0.5,0.5-0.7,0.5l-0.3-0.3l0.1-0.4
			l0.3-0.4c0.2-0.3,0.4-0.6,0.7-1c0.3-0.4,0.7-0.8,1.1-1.2c0.4-0.4,0.8-0.7,1.3-1c0.4-0.3,0.9-0.4,1.3-0.4c0.6,0,1.3,0.2,2,0.5
			c0.7,0.3,1.5,0.7,2.3,1.1c0.4,0.2,0.9,0.4,1.5,0.6c0.6,0.2,1.1,0.3,1.5,0.3c0.5,0,0.9-0.1,1.3-0.2c0.4-0.1,0.7-0.3,0.9-0.5
			c0.3-0.2,0.5-0.3,0.6-0.5l0.3-0.3c0.2-0.4,0.4-0.6,0.6-0.6c0.2,0,0.4,0.1,0.4,0.3c0,0.2-0.1,0.4-0.2,0.7c-0.1,0.2-0.3,0.5-0.6,0.9
			c-0.3,0.4-0.7,0.8-1.1,1.2c-0.4,0.4-0.8,0.8-1.3,1.1c-0.4,0.3-0.9,0.4-1.3,0.4C190.7,261.3,189.9,261.1,189.2,260.7"/>
		<path class="st0" d="M367.1,253.8c0-2,0-3.7,0-5c0-1.3,0-2.3,0-3.1c0-0.8,0-1.4,0-1.9c0-0.5,0-0.9-0.1-1.3c-0.1-0.9-0.2-1.6-0.5-2
			c-0.3-0.5-0.8-0.8-1.7-0.9c-0.2-0.1-0.5-0.1-0.8-0.1c-0.4,0-0.7,0-0.9,0c-0.3,0-0.4-0.1-0.4-0.3c0-0.3,0.3-0.4,0.8-0.4
			c0.6,0,1.2,0,1.8,0c0.6,0,1.3,0,1.8,0.1l2.1,0.1c0.1,0,0.7,0,1.8,0c1.1,0,2.4,0,3.7,0c1.4,0,2.7,0,3.9,0c1.2,0,2,0,2.3,0
			c1-0.1,1.7-0.2,2.2-0.3l0.4-0.2l0.4-0.1c0.1,0,0.2,0.2,0.2,0.5c0,0.2,0,0.4-0.2,0.8c-0.1,0.4-0.2,0.9-0.3,1.7c0,0.1,0,0.4,0,0.7
			c0,0.3,0,0.7-0.1,1c0,0.4-0.1,0.7-0.1,1c0,0.3,0,0.6-0.1,0.7l-0.1,0.4l-0.2,0.2c-0.3,0-0.4-0.2-0.4-0.7c0-0.2,0-0.5,0-0.8
			c0-0.4-0.1-0.7-0.3-1c-0.2-0.4-0.5-0.8-0.9-1.1c-0.4-0.3-1.3-0.5-2.7-0.7c-0.2,0-0.7-0.1-1.4-0.1c-0.7,0-1.5,0-2.2-0.1
			c-0.8,0-1.5,0-2.2,0c-0.6,0-1,0-1.2,0c-0.2,0-0.3,0.2-0.3,0.5c0,0,0,22.9,0,23.8c0,0.9,0,1.8,0,2.7c0,0.9,0,1.8,0,2.6
			c0,0.8,0,1.3,0,1.6c0,0.9,0.1,1.6,0.3,2.2c0.2,0.6,0.4,1,0.9,1.3c0.4,0.3,1,0.5,1.8,0.6c0.8,0.1,1.8,0.2,3,0.2
			c0.7,0,1.5,0,2.5-0.1c1-0.1,1.8-0.2,2.5-0.5c0.7-0.3,1.2-0.7,1.5-1.3c0.3-0.6,0.6-1.4,0.8-2.5c0.1-0.5,0.3-0.8,0.5-0.8l0.3,0.3
			l0,0.5c0,0.1,0,0.4-0.1,0.8c-0.1,0.4-0.1,0.9-0.2,1.5c-0.1,0.5-0.1,1.1-0.2,1.6c-0.1,0.5-0.1,0.9-0.2,1.2
			c-0.1,0.3-0.2,0.6-0.3,0.8l-0.5,0.4c-0.2,0.1-0.5,0.1-0.8,0.2c-0.3,0-0.7,0-1.2,0c-1.9,0-3.6,0-5-0.1c-1.4,0-2.6-0.1-3.6-0.1
			c-1-0.1-1.8-0.1-2.5-0.1c-0.6,0-1.2,0-1.5,0c-0.1,0-0.3,0-0.7,0c-0.4,0-0.8,0-1.4,0.1c-0.5,0-1,0-1.6,0.1c-0.5,0-1,0.1-1.4,0.1
			c-0.5,0-0.8-0.1-0.8-0.4c0-0.2,0.1-0.3,0.4-0.3c0.2,0,0.5,0,0.8-0.1c0.3,0,0.5-0.1,0.8-0.2c0.5-0.1,0.9-0.4,1-0.9
			c0.2-0.5,0.3-1.2,0.4-1.9c0.1-1.1,0.2-2.7,0.2-4.6c0-2,0-4.2,0-6.7V253.8z"/>
		<path class="st0" d="M372.5,260.7c-0.7-0.4-1.3-0.6-1.7-0.8c-0.5-0.2-1-0.5-1.5-0.8c-0.5-0.3-1.2-0.4-2-0.4
			c-0.4,0-0.8,0.1-1.2,0.2c-0.4,0.2-0.7,0.3-0.9,0.5c-0.3,0.2-0.5,0.4-0.6,0.6l-0.4,0.5c-0.3,0.3-0.5,0.5-0.7,0.5l-0.3-0.3l0.1-0.4
			l0.3-0.4c0.2-0.3,0.4-0.6,0.7-1c0.3-0.4,0.7-0.8,1.1-1.2c0.4-0.4,0.8-0.7,1.3-1c0.4-0.3,0.9-0.4,1.3-0.4c0.6,0,1.3,0.2,2,0.5
			c0.7,0.3,1.5,0.7,2.3,1.1c0.4,0.2,0.9,0.4,1.5,0.6c0.6,0.2,1.1,0.3,1.5,0.3c0.5,0,0.9-0.1,1.3-0.2c0.4-0.1,0.7-0.3,0.9-0.5
			c0.3-0.2,0.5-0.3,0.6-0.5l0.3-0.3c0.2-0.4,0.4-0.6,0.6-0.6c0.2,0,0.4,0.1,0.4,0.3c0,0.2-0.1,0.4-0.2,0.7c-0.1,0.2-0.3,0.5-0.6,0.9
			c-0.3,0.4-0.7,0.8-1.1,1.2c-0.4,0.4-0.8,0.8-1.3,1.1c-0.4,0.3-0.9,0.4-1.3,0.4C374,261.3,373.2,261.1,372.5,260.7"/>
		<path class="st0" d="M132.1,327.8c-0.6-0.1-1.2-0.3-1.8-0.6l-0.4-0.3c0-0.1-0.1-0.4-0.1-0.7c0-0.7,0-1.3,0.1-1.9
			c0-0.5,0.1-0.9,0.1-1.1c0-0.3,0.1-0.5,0.2-0.5l0.2,0.3l0,0.5l0.1,0.6c0.1,0.5,0.3,1,0.6,1.3c0.3,0.4,0.6,0.7,0.9,0.9
			c0.4,0.2,0.8,0.4,1.2,0.5c0.4,0.1,0.9,0.2,1.3,0.2c0.7,0,1.2-0.1,1.7-0.3c0.5-0.2,0.9-0.5,1.2-0.9c0.3-0.4,0.6-0.7,0.7-1.2
			c0.2-0.5,0.2-0.9,0.2-1.4c0-0.5-0.1-0.9-0.2-1.3c-0.1-0.4-0.3-0.8-0.5-1.2c-0.3-0.4-0.6-0.8-1-1.2c-0.4-0.4-0.9-0.9-1.5-1.4
			l-1.2-1c-0.7-0.6-1.3-1.2-1.8-1.7c-0.5-0.5-0.8-1-1.1-1.5c-0.3-0.5-0.4-1-0.5-1.4c-0.1-0.5-0.2-0.9-0.2-1.4c0-0.8,0.1-1.4,0.4-2.1
			c0.3-0.6,0.6-1.2,1.1-1.6c0.5-0.4,1.1-0.8,1.8-1c0.7-0.2,1.5-0.4,2.4-0.4c0.5,0,1,0,1.4,0.1c0.4,0.1,0.8,0.1,1.1,0.2
			c0.3,0.1,0.5,0.1,0.6,0.1l0.4,0l0.3,0.2c0,0.1,0,0.4-0.1,0.8c0,0.5-0.1,1.2-0.1,2.2c0,0.4-0.1,0.6-0.2,0.6l-0.2-0.1l-0.1-0.3
			c0-0.2-0.1-0.4-0.1-0.7c-0.1-0.3-0.1-0.5-0.2-0.7l-0.2-0.4c-0.1-0.2-0.3-0.3-0.6-0.5c-0.3-0.2-0.6-0.3-1-0.4
			c-0.4-0.1-0.9-0.2-1.6-0.2c-1,0-1.8,0.3-2.4,0.9c-0.7,0.6-1,1.4-1,2.4c0,0.4,0,0.8,0.2,1.1c0.1,0.3,0.3,0.7,0.5,1.1
			c0.3,0.4,0.6,0.7,1,1.2c0.4,0.4,1,0.9,1.6,1.4l0.8,0.6c0.8,0.7,1.5,1.3,2,1.8c0.5,0.6,0.9,1.1,1.2,1.6c0.3,0.5,0.5,1,0.6,1.5
			c0.1,0.5,0.2,1.1,0.2,1.6c0,0.3,0,0.6-0.1,1c-0.1,0.4-0.2,0.8-0.4,1.2c-0.2,0.4-0.4,0.9-0.7,1.3c-0.3,0.4-0.7,0.8-1.2,1.1
			c-0.6,0.4-1.2,0.7-2,0.9c-0.7,0.2-1.5,0.3-2.2,0.3C133.3,327.9,132.7,327.9,132.1,327.8"/>
		<path class="st0" d="M167.8,323.7c0,0.6,0,1.1,0.1,1.5c0.1,0.4,0.1,0.7,0.2,1c0.1,0.2,0.2,0.4,0.3,0.6l0.5,0.3
			c0.3,0.1,0.5,0.1,0.8,0.1c0.3,0,0.5,0,0.6,0l0.2,0.2c0,0.2-0.2,0.2-0.5,0.2c-0.8,0-1.4,0-2,0c-0.5,0-0.8,0-1,0c-0.1,0-0.4,0-1,0
			c-0.5,0-1.1,0-1.7,0c-0.3,0-0.4-0.1-0.4-0.2l0.2-0.2c0.1,0,0.3,0,0.5,0l0.6-0.1c0.3-0.1,0.6-0.4,0.7-0.9c0.1-0.5,0.2-1.4,0.2-2.7
			l0-16.1c0-0.5,0-0.9,0.1-1.1l0.2-0.3c0.1,0,0.3,0.1,0.5,0.3c0.2,0.2,0.4,0.4,0.5,0.6c0.1,0.1,0.4,0.5,0.9,1.1
			c0.5,0.6,1.2,1.3,2,2.2c0.8,0.9,1.7,1.9,2.7,3c1,1.1,2,2.2,3.1,3.4c0.7,0.7,1.4,1.5,2.1,2.3c0.7,0.8,1.3,1.5,1.9,2.2
			c0.6,0.7,1.1,1.3,1.6,1.8c0.5,0.5,0.8,0.9,1,1.1l-0.3-14.3c0-0.9-0.1-1.6-0.2-1.9c-0.1-0.4-0.4-0.6-0.8-0.7
			c-0.3-0.1-0.5-0.1-0.8-0.1c-0.3,0-0.5,0-0.6,0l-0.2-0.2c0-0.1,0.2-0.2,0.5-0.2c0.3,0,0.6,0,0.9,0c0.3,0,0.6,0,0.9,0
			c0.3,0,0.5,0,0.7,0l0.4,0c0.1,0,0.4,0,0.9,0c0.4,0,0.9,0,1.5,0c0.3,0,0.5,0.1,0.5,0.2l-0.3,0.2l-0.3,0l-0.4,0.1
			c-0.5,0.1-0.7,0.3-0.9,0.7c-0.1,0.4-0.2,1-0.2,1.8l-0.1,16.5c0,0.5,0,0.8,0,1.1c0,0.3,0,0.5,0,0.6l-0.1,0.3l-0.1,0.1l-0.2-0.1
			l-0.3-0.3c-0.1-0.1-0.3-0.3-0.6-0.5c-0.2-0.2-0.5-0.5-0.9-0.9c-0.1-0.1-0.4-0.4-0.8-0.9c-0.5-0.5-1.1-1.1-1.8-1.9
			c-0.7-0.7-1.5-1.5-2.3-2.4c-0.8-0.9-1.6-1.7-2.3-2.5c-0.8-0.9-1.6-1.8-2.4-2.6c-0.8-0.9-1.5-1.6-2.1-2.4c-0.6-0.7-1.2-1.4-1.7-1.9
			c-0.5-0.5-0.8-0.9-1-1.2L167.8,323.7z"/>
		<path class="st0" d="M206.2,320.4c0-0.6,0-1,0-1.4c0-0.3-0.1-0.6-0.2-0.8l-0.4-0.4c-0.2-0.1-0.4-0.2-0.7-0.3l-0.5-0.1l-0.5,0
			l-0.2-0.2c0-0.1,0.2-0.2,0.4-0.2c0.3,0,0.6,0,1,0c0.4,0,0.7,0,1,0c0.3,0,0.6,0,0.8,0l0.4,0l0.4,0c0.2,0,0.5,0,0.7,0
			c0.3,0,0.6,0,0.9,0c0.3,0,0.5,0,0.7,0c0.3,0,0.4,0.1,0.4,0.2l-0.2,0.2l-0.3,0l-0.4,0.1c-0.4,0.1-0.6,0.2-0.8,0.5
			c-0.1,0.2-0.2,0.6-0.3,1.1c0,0.5-0.1,0.9-0.1,1.3c0,0.5,0,1,0,1.6v3.2c0,0.3,0,0.6,0,0.7l0,0.4l-0.1,0.2l-0.2,0.1
			c-0.4,0.2-0.9,0.4-1.4,0.6c-0.5,0.2-1,0.3-1.6,0.4c-0.5,0.1-1,0.2-1.5,0.2c-0.5,0-0.9,0.1-1.3,0.1c-0.5,0-1.2,0-1.9-0.1
			c-0.7-0.1-1.5-0.2-2.3-0.4c-0.8-0.2-1.7-0.5-2.5-0.9c-0.8-0.4-1.6-0.9-2.4-1.6c-0.4-0.4-0.8-0.8-1.2-1.4c-0.4-0.6-0.7-1.2-1-1.9
			c-0.3-0.7-0.5-1.4-0.7-2.2c-0.2-0.8-0.3-1.6-0.3-2.5c0-1.1,0.1-2.2,0.4-3.1c0.3-1,0.6-1.8,1-2.6c0.4-0.8,0.9-1.5,1.5-2.1
			c0.6-0.6,1.1-1.1,1.7-1.5c0.6-0.4,1.3-0.7,1.9-0.9c0.6-0.2,1.3-0.4,1.9-0.5c0.6-0.1,1.2-0.2,1.8-0.2c0.6,0,1.2-0.1,1.7-0.1
			c0.4,0,0.9,0,1.3,0.1c0.4,0,0.9,0.1,1.2,0.1c0.4,0.1,0.7,0.1,1,0.2c0.3,0.1,0.5,0.1,0.6,0.1c0.3,0.1,0.6,0.1,1.1,0.2
			c0.4,0.1,0.8,0.1,1.2,0.1l0.3,0.1l0.1,0.2l0,0.4c0,0.2,0,0.4-0.1,0.7c0,0.3,0,0.7-0.1,1.2c0,0.5,0,1.1,0,1.7c0,0.2,0,0.4-0.1,0.5
			l-0.2,0.1c-0.1,0-0.2-0.1-0.2-0.4c0-0.2-0.1-0.5-0.2-0.8c-0.1-0.4-0.2-0.7-0.4-1c-0.2-0.3-0.4-0.5-0.8-0.8
			c-0.4-0.3-0.8-0.5-1.4-0.7c-0.5-0.2-1.2-0.4-1.9-0.5c-0.7-0.1-1.5-0.2-2.4-0.2c-0.4,0-0.9,0-1.4,0.1c-0.5,0-1,0.1-1.4,0.2
			c-0.5,0.1-1,0.3-1.5,0.6c-0.5,0.3-1,0.6-1.6,1c-0.8,0.7-1.5,1.6-2,2.8c-0.5,1.2-0.8,2.7-0.8,4.3c0,1,0.1,1.9,0.3,2.8
			c0.2,0.8,0.5,1.6,0.8,2.3c0.3,0.7,0.6,1.2,1,1.7c0.3,0.5,0.6,0.8,0.9,1.1c1.1,1.1,2.3,1.9,3.5,2.3c1.2,0.5,2.5,0.7,3.7,0.7
			c0.2,0,0.5,0,0.8,0c0.3,0,0.6-0.1,0.9-0.1c0.3,0,0.6-0.1,0.8-0.2c0.3-0.1,0.5-0.2,0.7-0.3c0.4-0.2,0.5-0.5,0.5-1V320.4z"/>
		<path class="st0" d="M216.9,314.4c0-1.1,0-2,0-2.7c0-0.7,0-1.2,0-1.7c0-0.4,0-0.8,0-1c0-0.3,0-0.5,0-0.7c0-0.5-0.1-0.9-0.3-1.1
			c-0.1-0.2-0.5-0.4-0.9-0.5l-0.5-0.1l-0.5,0l-0.2-0.2c0-0.1,0.1-0.2,0.4-0.2c0.3,0,0.6,0,1,0c0.4,0,0.7,0,1,0c0.3,0,0.6,0,0.8,0
			l0.4,0c0.1,0,0.2,0,0.5,0c0.3,0,0.6,0,0.9,0c0.3,0,0.7,0,1,0c0.3,0,0.6,0,0.8,0c0.9,0,1.8,0.1,2.6,0.2c0.9,0.1,1.7,0.5,2.4,1
			c0.2,0.1,0.4,0.3,0.6,0.5c0.2,0.2,0.4,0.5,0.6,0.8c0.2,0.3,0.4,0.7,0.5,1.1c0.1,0.4,0.2,0.9,0.2,1.4c0,1.1-0.2,2.1-0.7,3.2
			c-0.5,1.1-1.4,2.2-2.6,3.3c1.1,1.5,2.2,2.8,3.1,4.1c0.9,1.2,1.8,2.3,2.6,3.2c0.8,0.8,1.4,1.3,2,1.6c0.6,0.2,1,0.4,1.4,0.4
			c0.3,0,0.5,0.1,0.7,0.1l0.4,0l0.2,0.2l-0.1,0.2c-0.1,0-0.3,0-0.5,0h-2c-0.8,0-1.4,0-1.8-0.1c-0.4-0.1-0.8-0.2-1.2-0.4
			c-0.6-0.3-1.2-0.8-1.7-1.5c-0.6-0.7-1.2-1.6-2-2.6c-0.3-0.4-0.6-0.8-0.9-1.2c-0.3-0.4-0.6-0.8-0.8-1.2c-0.3-0.4-0.5-0.7-0.7-1
			c-0.2-0.3-0.4-0.6-0.5-0.7l-0.4-0.2l-3.4-0.1l-0.2,0.2v0.7c0,1.4,0,2.6,0,3.6c0,1.1,0.1,1.9,0.1,2.5c0,0.4,0.1,0.8,0.2,1
			c0.1,0.3,0.4,0.5,0.8,0.5c0.2,0,0.4,0.1,0.7,0.1c0.2,0,0.4,0,0.6,0l0.2,0.2c0,0.2-0.2,0.2-0.4,0.2c-0.4,0-0.8,0-1.2,0
			c-0.4,0-0.7,0-1.1,0c-0.3,0-0.6,0-0.8,0l-0.4,0c-0.4,0-0.7,0-1,0c-0.3,0-0.6,0-0.9,0c-0.3,0-0.5,0-0.7,0c-0.3,0-0.4-0.1-0.4-0.2
			l0.2-0.2l0.4,0l0.4-0.1c0.3-0.1,0.5-0.2,0.6-0.5c0.1-0.3,0.2-0.6,0.2-1c0.1-0.6,0.1-1.4,0.1-2.5c0-1.1,0-2.3,0-3.6L216.9,314.4z
			 M219.1,316.9l0.2,0.3c0.2,0.1,0.6,0.2,1.1,0.3c0.6,0.1,1.1,0.1,1.8,0.1c0.3,0,0.7,0,1-0.1c0.4-0.1,0.7-0.2,1-0.4
			c0.5-0.3,0.9-0.9,1.2-1.6c0.3-0.7,0.5-1.6,0.5-2.7c0-1.8-0.4-3.1-1.3-4.1c-0.8-1-2-1.5-3.5-1.5c-0.4,0-0.8,0-1.1,0.1
			c-0.3,0-0.6,0.1-0.7,0.1l-0.2,0.3V316.9z"/>
		<path class="st0" d="M263.5,314.4c0-1.1,0-2,0-2.7c0-0.7,0-1.2,0-1.7c0-0.4,0-0.8,0-1c0-0.3,0-0.5,0-0.7c0-0.5-0.1-0.9-0.3-1.1
			c-0.1-0.2-0.5-0.4-0.9-0.5l-0.5-0.1l-0.5,0l-0.2-0.2c0-0.1,0.1-0.2,0.4-0.2c0.3,0,0.6,0,1,0c0.4,0,0.7,0,1,0c0.3,0,0.6,0,0.8,0
			l0.4,0c0.1,0,0.2,0,0.5,0c0.3,0,0.5,0,0.9,0c0.3,0,0.7,0,1.1,0c0.4,0,0.8,0,1.2,0c0.7,0,1.5,0,2.4,0c0.9,0,1.9,0.1,2.9,0.3
			c1,0.2,2,0.5,3,0.9c1,0.4,1.9,1.1,2.7,2c0.3,0.4,0.7,0.8,1,1.3c0.3,0.5,0.6,1,0.9,1.6c0.2,0.6,0.4,1.2,0.6,2
			c0.1,0.7,0.2,1.5,0.2,2.3c0,0.9-0.1,1.7-0.2,2.5c-0.2,0.8-0.4,1.5-0.7,2.2c-0.3,0.7-0.6,1.3-1,1.8c-0.4,0.5-0.7,1-1.1,1.4
			c-0.3,0.3-0.7,0.7-1.1,1c-0.5,0.4-1,0.7-1.7,1.1c-0.7,0.3-1.5,0.6-2.4,0.8c-0.9,0.2-1.9,0.3-3.1,0.3c-0.6,0-1.2,0-1.9-0.1
			c-0.7,0-1.3-0.1-1.9-0.1c-0.6,0-1.1-0.1-1.5-0.1c-0.4,0-0.7-0.1-0.7-0.1h-0.4c-0.2,0-0.5,0-0.7,0c-0.3,0-0.6,0-0.9,0
			c-0.3,0-0.5,0-0.7,0c-0.3,0-0.4-0.1-0.4-0.2l0.2-0.2l0.4,0l0.4-0.1c0.3-0.1,0.5-0.2,0.6-0.5c0.1-0.3,0.2-0.6,0.2-1
			c0.1-0.6,0.1-1.4,0.1-2.5c0-1.1,0-2.3,0-3.6L263.5,314.4z M265.8,317.5c0,0.8,0,1.5,0,2.1c0,0.7,0,1.3,0,1.8c0,0.5,0,1,0,1.4
			c0,0.4,0,0.6,0,0.8l0,0.6l0,0.6l0.1,0.6l0.1,0.4l0.4,0.4c0.2,0.1,0.5,0.3,0.8,0.4c0.4,0.1,0.8,0.2,1.4,0.3
			c0.6,0.1,1.2,0.1,2.1,0.1c1.3,0,2.5-0.2,3.6-0.7c1.1-0.5,2.1-1.1,2.9-1.9c0.3-0.4,0.7-0.8,0.9-1.3c0.3-0.5,0.5-1.1,0.7-1.7
			c0.2-0.6,0.3-1.2,0.4-1.8c0.1-0.6,0.1-1.3,0.1-1.9c0-0.9-0.1-1.7-0.3-2.5c-0.2-0.7-0.4-1.4-0.6-2c-0.3-0.6-0.6-1.1-0.9-1.5
			c-0.3-0.4-0.6-0.8-0.9-1.1c-0.6-0.7-1.3-1.3-2-1.7c-0.7-0.4-1.5-0.7-2.2-1c-0.8-0.2-1.5-0.4-2.3-0.4c-0.8-0.1-1.6-0.1-2.4-0.1
			l-0.5,0l-0.5,0l-0.5,0.1l-0.3,0.1c-0.2,0.1-0.3,0.3-0.3,0.6c0,0.2,0,0.6,0,1c0,0.5,0,1,0,1.5c0,0.5,0,1.1,0,1.7c0,0.6,0,1.2,0,1.7
			V317.5z"/>
		<path class="st0" d="M247.6,323.9l-0.2-0.1c-0.1,0-0.2,0.1-0.3,0.4c-0.1,0.6-0.2,1-0.4,1.3c-0.2,0.3-0.5,0.5-0.8,0.7
			c-0.4,0.2-0.8,0.2-1.3,0.3c-0.5,0-1,0-1.3,0c-0.7,0-1.2,0-1.6-0.1c-0.4-0.1-0.7-0.2-0.9-0.3c-0.2-0.2-0.4-0.4-0.5-0.7
			c-0.1-0.3-0.1-0.7-0.2-1.2c0-0.2,0-0.4,0-0.9c0-0.4,0-0.9,0-1.4c0-0.5,0-1,0-1.5c0-0.1,0-1.2,0-2.6c0.2,0.1,0.3,0.2,0.6,0.3
			c0.4,0.2,0.8,0.3,1.3,0.3c0.2,0,0.4-0.1,0.7-0.2c0.2-0.2,0.5-0.3,0.7-0.6c0.2-0.2,0.4-0.4,0.6-0.6l0.3-0.5l0.1-0.4l-0.2-0.2
			l-0.3,0.3l-0.2,0.2l-0.3,0.3l-0.5,0.3c-0.2,0.1-0.4,0.1-0.7,0.1c-0.2,0-0.5-0.1-0.8-0.2c-0.3-0.1-0.6-0.2-0.8-0.3l-0.4-0.2
			c0-3.7,0-8.8,0-8.8l0.2-0.3c0.1,0,0.3,0,0.6,0c0.4,0,0.8,0,1.2,0c0.4,0,0.8,0,1.2,0c0.4,0,0.6,0,0.7,0c0.7,0.1,1.2,0.2,1.5,0.4
			c0.2,0.2,0.4,0.4,0.5,0.6l0.1,0.6l0,0.5c0,0.2,0.1,0.4,0.2,0.4l0.1-0.1l0.1-0.2l0-0.4l0-0.6l0-0.5l0-0.4c0-0.4,0.1-0.7,0.1-0.9
			l0.1-0.4l-0.1-0.3l-0.2,0.1l-0.2,0.1c-0.3,0.1-0.7,0.1-1.2,0.1c-0.2,0-0.6,0-1.2,0c-0.7,0-1.4,0-2.1,0c-0.7,0-1.4,0-2,0
			c-0.6,0-0.9,0-1,0l-1.1-0.1c-0.3,0-0.6,0-1,0c-0.3,0-0.7,0-1,0c-0.3,0-0.4,0.1-0.4,0.2l0.2,0.2l0.5,0l0.5,0.1
			c0.5,0.1,0.8,0.3,0.9,0.5c0.1,0.2,0.2,0.6,0.3,1.1c0,0.2,0,0.5,0,0.7c0,0.2,0,0.6,0,1c0,0.4,0,1,0,1.7c0,0.7,0,1.6,0,2.7l0,1.5
			l-0.2,0.1c-0.2,0.1-0.5,0.3-0.7,0.5c-0.2,0.2-0.4,0.4-0.6,0.7c-0.2,0.2-0.3,0.4-0.4,0.6l-0.1,0.2l0,0.2l0.2,0.2l0.4-0.3l0.2-0.3
			l0.3-0.3l0.5-0.3l0.5-0.1v2.3c0,1.3,0,2.6,0,3.6c0,1.1-0.1,1.9-0.1,2.5c-0.1,0.4-0.1,0.8-0.2,1c-0.1,0.3-0.3,0.4-0.6,0.5l-0.4,0.1
			l-0.4,0l-0.2,0.2c0,0.2,0.1,0.2,0.4,0.2c0.2,0,0.4,0,0.7,0c0.3,0,0.6,0,0.9,0c0.3,0,0.5,0,0.7,0h0.4c0.2,0,0.5,0,0.8,0
			c0.4,0,0.8,0,1.3,0.1c0.5,0,1.2,0,1.9,0c0.8,0,1.7,0,2.7,0c0.3,0,0.5,0,0.7,0l0.4-0.1l0.2-0.2l0.2-0.4c0-0.1,0.1-0.4,0.1-0.6
			c0-0.3,0.1-0.6,0.1-0.9c0-0.3,0.1-0.6,0.1-0.8c0-0.2,0-0.4,0-0.4L247.6,323.9z"/>
		<path class="st0" d="M325,323.9l-0.2-0.1c-0.1,0-0.2,0.1-0.3,0.4c-0.1,0.6-0.2,1-0.4,1.3c-0.2,0.3-0.5,0.5-0.8,0.7
			c-0.4,0.2-0.8,0.2-1.3,0.3c-0.5,0-1,0-1.3,0c-0.7,0-1.2,0-1.6-0.1c-0.4-0.1-0.7-0.2-0.9-0.3c-0.2-0.2-0.4-0.4-0.5-0.7
			c-0.1-0.3-0.1-0.7-0.2-1.2c0-0.2,0-0.4,0-0.9c0-0.4,0-0.9,0-1.4c0-0.5,0-1,0-1.5c0-0.1,0-1.2,0-2.6c0.2,0.1,0.3,0.2,0.6,0.3
			c0.4,0.2,0.8,0.3,1.3,0.3c0.2,0,0.4-0.1,0.7-0.2c0.2-0.2,0.5-0.3,0.7-0.6c0.2-0.2,0.4-0.4,0.6-0.6l0.3-0.5l0.1-0.4l-0.2-0.2
			l-0.3,0.3l-0.2,0.2l-0.3,0.3l-0.5,0.3c-0.2,0.1-0.4,0.1-0.7,0.1c-0.2,0-0.5-0.1-0.8-0.2c-0.3-0.1-0.6-0.2-0.8-0.3l-0.4-0.2
			c0-3.7,0-8.8,0-8.8l0.2-0.3c0.1,0,0.3,0,0.6,0c0.4,0,0.8,0,1.2,0c0.4,0,0.8,0,1.2,0c0.4,0,0.6,0,0.7,0c0.7,0.1,1.2,0.2,1.5,0.4
			c0.2,0.2,0.4,0.4,0.5,0.6l0.1,0.6l0,0.5c0,0.2,0.1,0.4,0.2,0.4l0.1-0.1l0.1-0.2l0-0.4l0-0.6l0-0.5l0-0.4c0-0.4,0.1-0.7,0.1-0.9
			l0.1-0.4l-0.1-0.3l-0.2,0.1l-0.2,0.1c-0.3,0.1-0.7,0.1-1.2,0.1c-0.2,0-0.6,0-1.2,0c-0.7,0-1.4,0-2.1,0c-0.7,0-1.4,0-2,0
			c-0.6,0-0.9,0-1,0l-1.1-0.1c-0.3,0-0.6,0-1,0c-0.3,0-0.7,0-1,0c-0.3,0-0.4,0.1-0.4,0.2l0.2,0.2l0.5,0l0.5,0.1
			c0.5,0.1,0.8,0.3,0.9,0.5c0.1,0.2,0.2,0.6,0.3,1.1c0,0.2,0,0.5,0,0.7c0,0.2,0,0.6,0,1c0,0.4,0,1,0,1.7c0,0.7,0,1.6,0,2.7v1.5
			L315,316c-0.2,0.1-0.5,0.3-0.7,0.5c-0.2,0.2-0.4,0.4-0.6,0.7c-0.2,0.2-0.3,0.4-0.4,0.6l-0.1,0.2l0,0.2l0.2,0.2l0.4-0.3l0.2-0.3
			l0.3-0.3l0.5-0.3l0.5-0.1v2.3c0,1.3,0,2.6,0,3.6c0,1.1-0.1,1.9-0.1,2.5c0,0.4-0.1,0.8-0.2,1c-0.1,0.3-0.3,0.4-0.6,0.5l-0.4,0.1
			l-0.4,0l-0.2,0.2c0,0.2,0.1,0.2,0.4,0.2c0.2,0,0.4,0,0.7,0c0.3,0,0.6,0,0.9,0c0.3,0,0.5,0,0.7,0h0.4c0.2,0,0.5,0,0.8,0
			c0.3,0,0.8,0,1.3,0.1c0.5,0,1.2,0,1.9,0c0.8,0,1.7,0,2.7,0c0.3,0,0.5,0,0.7,0l0.4-0.1l0.2-0.2l0.2-0.4c0-0.1,0.1-0.4,0.1-0.6
			c0-0.3,0.1-0.6,0.1-0.9c0-0.3,0.1-0.6,0.1-0.8c0-0.2,0-0.4,0-0.4L325,323.9z"/>
		<path class="st0" d="M361.2,323.9l-0.2-0.1c-0.1,0-0.2,0.1-0.3,0.4c-0.1,0.6-0.2,1-0.4,1.3c-0.2,0.3-0.5,0.5-0.8,0.7
			c-0.4,0.2-0.8,0.2-1.3,0.3c-0.5,0-1,0-1.3,0c-0.7,0-1.2,0-1.6-0.1c-0.4-0.1-0.7-0.2-0.9-0.3c-0.2-0.2-0.4-0.4-0.5-0.7
			c-0.1-0.3-0.1-0.7-0.2-1.2c0-0.2,0-0.4,0-0.9c0-0.4,0-0.9,0-1.4c0-0.5,0-1,0-1.5c0-0.1,0-1.2,0-2.6c0.2,0.1,0.3,0.2,0.6,0.3
			c0.4,0.2,0.8,0.3,1.3,0.3c0.2,0,0.5-0.1,0.7-0.2c0.2-0.2,0.5-0.3,0.7-0.6c0.2-0.2,0.4-0.4,0.6-0.6l0.3-0.5l0.1-0.4l-0.2-0.2
			l-0.3,0.3l-0.2,0.2l-0.3,0.3l-0.5,0.3c-0.2,0.1-0.4,0.1-0.7,0.1c-0.2,0-0.5-0.1-0.8-0.2c-0.3-0.1-0.6-0.2-0.8-0.3l-0.4-0.2
			c0-3.7,0-8.8,0-8.8l0.2-0.3c0.1,0,0.3,0,0.6,0c0.4,0,0.8,0,1.2,0c0.4,0,0.8,0,1.2,0c0.4,0,0.6,0,0.7,0c0.7,0.1,1.2,0.2,1.5,0.4
			c0.2,0.2,0.4,0.4,0.5,0.6l0.1,0.6l0,0.5c0,0.2,0.1,0.4,0.2,0.4l0.1-0.1l0.1-0.2l0-0.4l0-0.6l0-0.5l0-0.4c0-0.4,0.1-0.7,0.1-0.9
			l0.1-0.4l-0.1-0.3l-0.2,0.1l-0.2,0.1c-0.3,0.1-0.7,0.1-1.2,0.1c-0.2,0-0.6,0-1.2,0c-0.6,0-1.4,0-2.1,0c-0.7,0-1.4,0-2,0
			c-0.6,0-0.9,0-1,0l-1.1-0.1c-0.3,0-0.6,0-1,0c-0.3,0-0.7,0-1,0c-0.3,0-0.4,0.1-0.4,0.2l0.2,0.2l0.5,0l0.5,0.1
			c0.5,0.1,0.8,0.3,0.9,0.5c0.1,0.2,0.2,0.6,0.3,1.1c0,0.2,0,0.5,0,0.7c0,0.2,0,0.6,0,1c0,0.4,0,1,0,1.7c0,0.7,0,1.6,0,2.7l0,1.5
			l-0.2,0.1c-0.2,0.1-0.5,0.3-0.7,0.5c-0.2,0.2-0.4,0.4-0.6,0.7c-0.2,0.2-0.3,0.4-0.4,0.6l-0.1,0.2l0,0.2l0.2,0.2l0.4-0.3l0.2-0.3
			l0.3-0.3l0.5-0.3l0.5-0.1v2.3c0,1.3,0,2.6,0,3.6c0,1.1,0,1.9-0.1,2.5c-0.1,0.4-0.1,0.8-0.2,1c-0.1,0.3-0.3,0.4-0.6,0.5l-0.4,0.1
			l-0.4,0l-0.2,0.2c0,0.2,0.1,0.2,0.4,0.2c0.2,0,0.4,0,0.7,0c0.3,0,0.6,0,0.9,0c0.3,0,0.5,0,0.7,0h0.4c0.2,0,0.5,0,0.8,0
			c0.4,0,0.8,0,1.3,0.1c0.5,0,1.2,0,1.9,0c0.8,0,1.7,0,2.7,0c0.3,0,0.5,0,0.7,0l0.4-0.1l0.2-0.2l0.2-0.4c0-0.1,0.1-0.4,0.1-0.6
			c0-0.3,0.1-0.6,0.1-0.9c0-0.3,0.1-0.6,0.1-0.8c0-0.2,0-0.4,0-0.4L361.2,323.9z"/>
		<path class="st0" d="M266.3,318.2c-0.4-0.2-0.7-0.3-0.9-0.4c-0.3-0.1-0.5-0.2-0.8-0.4c-0.3-0.2-0.6-0.2-1.1-0.2
			c-0.2,0-0.4,0-0.6,0.1l-0.5,0.3l-0.3,0.3l-0.2,0.3l-0.4,0.3l-0.2-0.2l0-0.2l0.1-0.2c0.1-0.2,0.2-0.3,0.4-0.6
			c0.2-0.2,0.4-0.4,0.6-0.7c0.2-0.2,0.4-0.4,0.7-0.5c0.2-0.2,0.5-0.2,0.7-0.2c0.3,0,0.7,0.1,1.1,0.3c0.4,0.2,0.8,0.4,1.2,0.6
			c0.2,0.1,0.5,0.2,0.8,0.3c0.3,0.1,0.6,0.2,0.8,0.2c0.3,0,0.5,0,0.7-0.1l0.5-0.3l0.3-0.3l0.2-0.2l0.3-0.3l0.2,0.2l-0.1,0.4
			l-0.3,0.5c-0.2,0.2-0.4,0.4-0.6,0.6c-0.2,0.2-0.5,0.4-0.7,0.6c-0.2,0.2-0.5,0.2-0.7,0.2C267.2,318.5,266.7,318.4,266.3,318.2"/>
		<path class="st0" d="M162.8,327.2l-0.5,0l-0.6-0.1l-0.5-0.2c-0.2-0.1-0.4-0.3-0.5-0.5c-0.2-0.2-0.4-0.5-0.6-0.9
			c-0.2-0.4-0.5-0.9-0.7-1.5c-0.3-0.7-0.6-1.6-1-2.7c-0.4-1.1-0.8-2.2-1.3-3.4c-0.4-1.2-0.9-2.4-1.4-3.6c-0.5-1.2-0.9-2.3-1.3-3.4
			c-0.4-1-0.7-1.9-1-2.6c-0.3-0.7-0.4-1.2-0.5-1.3c-0.2-0.4-0.3-0.7-0.4-0.8l-0.3-0.2l-0.2,0.2c-0.1,0.1-0.2,0.4-0.4,0.9l-6.3,17.5
			c-0.3,0.7-0.5,1.3-0.9,1.8c-0.3,0.5-0.8,0.8-1.5,0.9l-0.4,0l-0.4,0l-0.2,0.2c0,0.2,0.2,0.2,0.5,0.2c0.3,0,0.7,0,1,0
			c0.3,0,0.6,0,0.9,0c0.3,0,0.5,0,0.8,0l0.4,0l0.4,0l0.6,0c0.2,0,0.4,0,0.6,0c0.2,0,0.4,0,0.6,0c0.3,0,0.4-0.1,0.4-0.2l-0.3-0.2
			h-0.3c-0.2,0-0.5-0.1-0.7-0.2c-0.2-0.1-0.3-0.3-0.3-0.6c0-0.5,0.1-1.2,0.4-1.9l0.8-2.3l0.9-2.6l0.3-0.3l0.5-0.3
			c0.2-0.1,0.4-0.1,0.6-0.1c0.4,0,0.8,0.1,1.1,0.2c0.3,0.2,0.6,0.3,0.8,0.4c0.2,0.1,0.5,0.2,0.9,0.4c0.4,0.2,0.8,0.3,1.3,0.3
			c0.2,0,0.4-0.1,0.7-0.2l0.5-0.4l0.9,2.5l1.5,4.2c0.1,0.2,0.1,0.4,0.1,0.5l-0.2,0.2l-0.2,0.2l0.2,0.2c0.1,0,0.3,0,0.6,0
			c0.5,0,1,0,1.4,0c0.5,0,0.9,0,1.3,0c0.4,0,0.7,0,1,0c0.3,0,0.5,0,0.6,0l0.4,0l0.2-0.2L162.8,327.2z M154.3,318.9
			c-0.2,0-0.5-0.1-0.8-0.2c-0.3-0.1-0.6-0.2-0.8-0.3c-0.4-0.2-0.8-0.4-1.2-0.6c-0.4-0.2-0.8-0.3-1.1-0.3c-0.2,0-0.4,0.1-0.7,0.2
			l-0.6,0.5l1.5-4.6l1-3.3c0.1-0.4,0.3-0.4,0.4,0l1.3,3.8l1.6,4.5C154.8,318.9,154.6,318.9,154.3,318.9z"/>
		<path class="st0" d="M301.1,319.3c0,4,0.1,5.7,0.6,6.2c0.4,0.4,1.5,0.6,3.7,0.6c1.4,0,2.7,0,3.3-0.8c0.3-0.4,0.6-1,0.7-1.6
			l0.3-0.4c0.1,0,0.2,0.1,0.2,0.4c0,0.3-0.2,1.9-0.4,2.7c-0.2,0.6-0.3,0.7-1.8,0.7c-2,0-3.5,0-4.8-0.1c-1.3,0-2.2-0.1-3-0.1
			c-0.1,0-0.6,0-1.1,0c-0.6,0-1.2,0.1-1.6,0.1c-0.3,0-0.4-0.1-0.4-0.2l0.2-0.2c0.3,0,0.6-0.1,0.9-0.1c0.5-0.1,0.6-0.6,0.7-1.4
			c0.2-1.1,0.2-3.3,0.2-5.9l0-4.8c0-4.3,0-5-0.1-5.9c-0.1-0.9-0.2-1.4-1.1-1.5c-0.2,0-0.7-0.1-0.9-0.1l-0.2-0.2
			c0-0.2,0.1-0.2,0.4-0.2c1.3,0,3,0.1,3.2,0.1c0.1,0,2.2-0.1,3.1-0.1c0.3,0,0.4,0.1,0.4,0.2l-0.2,0.2c-0.2,0-0.6,0-0.9,0.1
			c-0.8,0.2-1,0.6-1,1.5c0,0.9,0,1.6,0,5.9L301.1,319.3z"/>
		<path class="st0" d="M335.4,320.1c0-1.5-0.2-2-0.6-2.8c-0.2-0.4-4-6.5-4.9-8c-0.7-1-1.3-1.6-1.8-2c-0.4-0.3-0.9-0.4-1.2-0.4
			l-0.3-0.3c0-0.1,0.1-0.2,0.3-0.2c0.5,0,2.6,0.1,2.7,0.1c0.2,0,1.3-0.1,2.4-0.1c0.3,0,0.4,0.1,0.4,0.2c0,0.1-0.2,0.2-0.4,0.3
			c-0.2,0.1-0.3,0.2-0.3,0.4c0,0.4,0.2,0.7,0.4,1.1l5.1,8.6c0.6-1.2,4-7,4.5-7.9c0.3-0.6,0.5-1.1,0.5-1.4c0-0.4-0.1-0.6-0.4-0.7
			c-0.3-0.1-0.4-0.2-0.4-0.3c0-0.1,0.2-0.2,0.4-0.2c0.7,0,1.7,0.1,1.9,0.1c0.2,0,2.2-0.1,2.7-0.1l0.3,0.2c0,0.1-0.1,0.3-0.3,0.3
			c-0.3,0-0.9,0.1-1.3,0.4c-0.5,0.3-0.8,0.6-1.4,1.4c-0.9,1.1-4.8,7.6-5.4,8.7c-0.5,1-0.3,1.8-0.3,2.7l0,2.4c0,0.4,0,1.6,0.1,2.7
			c0.1,0.8,0.3,1.3,1.1,1.4c0.4,0.1,1,0.1,1.3,0.1l0.2,0.2c0,0.1-0.2,0.2-0.4,0.2c-1.5,0-3.3-0.1-3.5-0.1c-0.1,0-1.9,0.1-2.7,0.1
			c-0.3,0-0.4-0.1-0.4-0.2l0.2-0.2c0.3,0,0.6-0.1,0.8-0.1c0.6-0.1,0.8-0.6,0.8-1.4c0.1-1.1,0.1-2.3,0.1-2.7V320.1z"/>
		<path class="st0" d="M366.8,323.5c0.1,2.3,0.3,2.9,1.1,3.1c0.5,0.1,1.1,0.2,1.4,0.2l0.2,0.2c0,0.2-0.2,0.2-0.5,0.2
			c-1.6,0-2.7-0.1-2.9-0.1c-0.3,0-1.4,0.1-2.7,0.1c-0.3,0-0.4,0-0.4-0.2l0.2-0.2c0.2,0,0.7,0,1.1-0.2c0.7-0.2,0.8-0.9,0.8-3.4v-15.7
			c0-1.1,0.2-1.4,0.4-1.4c0.3,0,0.8,0.5,1.1,0.8c0.4,0.5,4.5,4.8,8.8,9.4c2.7,2.9,5.7,6.2,6.6,7.1l-0.3-13.7c0-1.8-0.2-2.4-1-2.6
			c-0.5-0.1-1.1-0.1-1.4-0.1l-0.2-0.3c0-0.2,0.2-0.2,0.5-0.2c1.3,0,2.6,0.1,2.9,0.1c0.3,0,1.2-0.1,2.4-0.1c0.3,0,0.5,0,0.5,0.2
			l-0.3,0.3c-0.1,0-0.3,0-0.7,0.1c-0.9,0.2-1,0.7-1,2.4l-0.1,16.1c0,1.8,0,2-0.2,2c-0.3,0-0.6-0.2-2.1-1.7c-0.3-0.3-4.3-4.3-7.2-7.4
			c-3.2-3.5-6.3-6.8-7.2-7.8L366.8,323.5z"/>
		<path class="st0" d="M390.4,314.4c0-4.3,0-5-0.1-5.9c-0.1-0.9-0.2-1.4-1.1-1.5c-0.2,0-0.7-0.1-0.9-0.1l-0.2-0.2
			c0-0.2,0.1-0.2,0.4-0.2c1.3,0,3.1,0.1,3.2,0.1c0.3,0,2.1-0.1,3.7-0.1c2.8,0,7.9-0.3,11.1,3.1c1.4,1.4,2.7,3.7,2.7,7
			c0,3.5-1.5,6.1-3,7.7c-1.2,1.3-3.7,3.2-8.4,3.2c-1.2,0-2.7-0.1-3.9-0.2c-1.2-0.1-2.1-0.2-2.3-0.2c-0.1,0-0.6,0-1.1,0
			c-0.6,0-1.2,0.1-1.7,0.1c-0.3,0-0.4-0.1-0.4-0.2l0.2-0.2c0.2,0,0.6-0.1,0.9-0.1c0.5-0.1,0.6-0.6,0.7-1.4c0.2-1.1,0.2-3.3,0.2-5.9
			L390.4,314.4z M392.9,317.4c0,2.9,0,5.5,0,6c0,0.7,0.1,1.7,0.3,2c0.3,0.5,1.3,1.1,4.6,1.1c2.6,0,4.8-0.9,6.5-2.5
			c1.5-1.4,2.2-4,2.2-6.5c0-3.5-1.5-5.7-2.6-6.9c-2.6-2.7-5.7-3.1-9-3.1c-0.5,0-1.4,0.1-1.7,0.2c-0.3,0.1-0.3,0.2-0.3,0.5V317.4z"/>
		<path class="st0" d="M430,327.1l-0.5,0l-0.6-0.1l-0.5-0.2c-0.2-0.1-0.4-0.3-0.5-0.5c-0.2-0.2-0.4-0.5-0.6-0.9
			c-0.2-0.4-0.5-0.9-0.7-1.5c-0.3-0.7-0.6-1.6-1-2.7c-0.4-1.1-0.8-2.2-1.3-3.4c-0.4-1.2-0.9-2.4-1.4-3.6c-0.5-1.2-0.9-2.3-1.3-3.4
			c-0.4-1-0.7-1.9-1-2.6c-0.3-0.7-0.4-1.2-0.5-1.3c-0.2-0.4-0.3-0.7-0.4-0.8l-0.3-0.2l-0.2,0.2c-0.1,0.1-0.2,0.4-0.4,0.9l-6.3,17.5
			c-0.3,0.7-0.5,1.3-0.9,1.8c-0.3,0.5-0.8,0.8-1.5,0.9l-0.4,0l-0.4,0l-0.2,0.2c0,0.2,0.2,0.2,0.5,0.2c0.3,0,0.7,0,1,0
			c0.3,0,0.6,0,0.9,0c0.3,0,0.5,0,0.8,0l0.4,0l0.4,0l0.6,0c0.2,0,0.4,0,0.6,0c0.2,0,0.4,0,0.6,0c0.3,0,0.4-0.1,0.4-0.2l-0.3-0.2
			h-0.3c-0.2,0-0.5-0.1-0.7-0.2c-0.2-0.1-0.3-0.3-0.3-0.6c0-0.5,0.1-1.2,0.4-1.9l0.8-2.3l0.9-2.6l0.3-0.3l0.5-0.3
			c0.2-0.1,0.4-0.1,0.7-0.1c0.4,0,0.8,0.1,1.1,0.2c0.3,0.2,0.6,0.3,0.8,0.4c0.2,0.1,0.5,0.2,0.9,0.4c0.4,0.2,0.8,0.3,1.3,0.3
			c0.2,0,0.4-0.1,0.7-0.2l0.5-0.4l0.9,2.5l1.5,4.2c0.1,0.2,0.1,0.4,0.1,0.5l-0.2,0.2l-0.2,0.2l0.2,0.2c0.1,0,0.3,0,0.6,0
			c0.5,0,1,0,1.4,0c0.5,0,0.9,0,1.3,0c0.4,0,0.7,0,1,0c0.3,0,0.5,0,0.6,0l0.4,0l0.2-0.2L430,327.1z M421.5,318.8
			c-0.2,0-0.5-0.1-0.8-0.2c-0.3-0.1-0.6-0.2-0.8-0.3c-0.4-0.2-0.8-0.4-1.2-0.6c-0.4-0.2-0.8-0.3-1.1-0.3c-0.2,0-0.4,0.1-0.7,0.2
			l-0.6,0.5l1.5-4.6l1-3.3c0.1-0.4,0.3-0.4,0.4,0l1.3,3.8l1.6,4.5C422,318.8,421.7,318.8,421.5,318.8z"/>
		<path class="st1" d="M248.4,248.6c0.9-2.5,2.2-4.9,4-7c1.8-2.1,4.1-3.9,6.9-5.3c2.8-1.4,6.1-2.1,10-2.1c3.1,0,6.1,0.5,8.8,1.4
			c2.7,1,5,2.3,7,4.1c2,1.8,3.5,4,4.6,6.5c1.1,2.6,1.7,5.4,1.7,8.6c0,3.1-0.5,6-1.6,8.7c-1.1,2.8-2.6,5.1-4.5,7.2
			c-1.9,2-4.3,3.6-7.1,4.8c-2.8,1.2-5.8,1.8-9.2,1.8c-3.8,0-7.1-0.7-9.8-2c-2.8-1.3-5-3-6.8-5.1c-1.8-2.1-3.1-4.4-3.9-7
			c-0.9-2.6-1.3-5.1-1.3-7.6C247.1,253.5,247.6,251.1,248.4,248.6 M275.2,256.3l-0.1,0L275.2,256.3c-0.5-0.6-1.6-0.7-2.3-1.1
			l-0.6-0.6l-0.1-0.3l-0.2,0c-1.3-1.6-2.2-3.7-2.2-3.7c0,0-0.1,0.2-0.2,0.4c-0.2-0.1-0.4,0.1-0.9,0.8c-0.2,0.4-0.4,1-0.6,1.3
			c-0.3,0.5-0.8,0.5-1.1,0.9c-0.3,0.3-0.2,1-0.5,1.4l-0.6,0.4c-0.4,0.2-0.9,0.3-1.3,0.5l0,0l1.2-1c-0.7,0.5-1.6,0.9-1.7,1.4
			c0.5,0.2,1.2,0.5,1.7,0.8c0.6,0.3,0.8,1.1,1.6,0.7c-0.1,0.6,0.5,1.5,0.9,1.9c0.3,0.4,0.7,0.4,1,0.8c0.2,0.3,0.2,0.6,0.3,0.9l0,0.2
			l0-0.1l0.1,0.2c0.2-0.7,0.5-1.3,1-1.9l0.4-0.7l0.2-0.4l-0.1-0.4c0.3-0.3,0.5-0.1,0.6-0.2c0.3-0.2,0.5-0.6,0.8-0.8
			c0.7-0.5,1.5-0.6,2-1.2L275.2,256.3z M254.2,262.8c0.9,2.6,2.1,4.8,3.7,6.6c1.6,1.8,3.5,3.2,5.6,4.2c2.1,1,4.5,1.5,7,1.5
			c1.3,0,2.8-0.2,4.5-0.7c1.7-0.5,3.4-1.4,5-2.7c1.6-1.3,2.9-3.2,4-5.7c1.1-2.4,1.7-5.7,1.7-9.6c0-3.3-0.5-6.2-1.4-8.7
			c-0.9-2.5-2.1-4.6-3.7-6.3c-1.5-1.7-3.3-3-5.3-3.8c-2-0.9-4.1-1.3-6.3-1.3c-2.3,0-4.5,0.4-6.4,1.1c-2,0.8-3.7,1.9-5.1,3.4
			c-1.4,1.5-2.5,3.4-3.3,5.6c-0.8,2.2-1.2,4.9-1.2,7.9C252.9,257.4,253.3,260.3,254.2,262.8z"/>
		<path class="st0" d="M271.7,255.4L271,256C271.3,255.8,271.6,255.6,271.7,255.4"/>
		<path class="st0" d="M464.4,239.8v-6.6h2.9c0.6,0,1,0.1,1.4,0.2c0.3,0.1,0.6,0.3,0.7,0.6c0.2,0.3,0.3,0.6,0.3,1
			c0,0.5-0.2,0.9-0.5,1.2c-0.3,0.3-0.8,0.5-1.4,0.6c0.2,0.1,0.4,0.2,0.5,0.3c0.3,0.2,0.5,0.5,0.7,0.9l1.2,1.8h-1.1l-0.9-1.4
			c-0.3-0.4-0.5-0.7-0.6-0.9l-0.4-0.4l-0.4-0.2c-0.1,0-0.3,0-0.5,0h-1v3H464.4z M465.3,236.1h1.9c0.4,0,0.7,0,0.9-0.1
			c0.2-0.1,0.4-0.2,0.5-0.4l0.2-0.6c0-0.3-0.1-0.6-0.3-0.8c-0.2-0.2-0.6-0.3-1.1-0.3l-2.1,0V236.1z"/>
		<path class="st0" d="M467,230.1c-3.4,0-6.2,2.8-6.2,6.2c0,3.4,2.8,6.2,6.2,6.2c3.4,0,6.2-2.8,6.2-6.2
			C473.2,232.9,470.4,230.1,467,230.1 M467,241.6c-2.9,0-5.2-2.3-5.2-5.2c0-2.9,2.3-5.2,5.2-5.2c2.9,0,5.2,2.3,5.2,5.2
			C472.2,239.2,469.9,241.6,467,241.6z"/>
	</g>
	<path class="st2" d="M251.6,133.1L251.6,133.1L251.6,133.1L251.6,133.1L251.6,133.1L251.6,133.1L251.6,133.1L251.6,133.1
		L251.6,133.1L251.6,133.1L251.6,133.1L251.6,133.1L251.6,133.1L251.6,133.1L251.6,133.1L251.6,133.1L251.6,133.1L251.6,133.1
		L251.6,133.1L251.6,133.1L251.6,133.1L251.6,133.1L251.6,133.1L251.6,133.1L251.6,133.1L251.6,133.1L251.6,133.1L251.6,133.1
		L251.6,133.1L251.6,133.1L251.6,133.1L251.6,133.1L251.6,133.1L251.6,133.1L251.6,133.1L251.6,133.1L251.6,133.1L251.6,133.1
		L251.6,133.1L251.6,133.1L251.6,133.1L251.6,133.1L251.6,133.1L251.6,133.1L251.6,133.1L251.6,133.1L251.6,133.1L251.6,133.1
		L251.6,133.1L251.6,133.1L251.6,133.1L251.6,133.1L251.6,133.1L251.6,133.1L251.6,133.1L251.6,133.1L251.6,133.1L251.6,133.1
		L251.6,133.1L251.6,133.1L251.6,133.1L251.6,133.1L251.6,133.1L251.6,133.1L251.6,133.1L251.6,133.1L251.6,133.1L251.6,133.1
		L251.6,133.1L251.6,133.1L251.6,133.1L251.6,133.1L251.6,133.1L251.6,133.1L251.6,133.1L251.6,133.1L251.6,133.1L251.6,133.1
		L251.6,133.1L251.6,133.1L251.6,133.1L251.6,133.1L251.6,133.1L251.6,133.1L251.6,133.1L251.6,133.1L251.6,133.1L251.6,133.1
		L251.6,133.1L251.6,133.1L251.6,133.1L251.6,133.1L251.6,133.1L251.6,133.1L251.6,133.1L251.6,133.1L251.6,133.1L251.6,133.1
		L251.6,133.1L251.6,133.1z M299.8,138.5L299.8,138.5C299.7,138.4,299.7,138.6,299.8,138.5C299.7,138.5,299.7,138.5,299.8,138.5z
		 M261.6,88.9L261.6,88.9C261.5,88.8,261.4,89,261.6,88.9C261.6,88.9,261.6,88.9,261.6,88.9z M268.7,98.9L268.7,98.9
		C268.6,98.9,268.6,99.1,268.7,98.9C268.7,98.9,268.7,99,268.7,98.9z M234.7,142.4L234.7,142.4C234.5,142.6,234.7,142.5,234.7,142.4
		C234.6,142.5,234.7,142.4,234.7,142.4z M308.9,88.8L308.9,88.8C308.9,88.6,308.7,88.7,308.9,88.8C308.9,88.7,308.8,88.8,308.9,88.8
		z M328.5,82.4L328.5,82.4L328.5,82.4L328.5,82.4L328.5,82.4L328.5,82.4L328.5,82.4L328.5,82.4L328.5,82.4L328.5,82.4L328.5,82.4
		L328.5,82.4L328.5,82.4L328.5,82.4L328.5,82.4L328.5,82.4L328.5,82.4L328.5,82.4L328.5,82.4L328.5,82.4L328.5,82.4L328.5,82.4
		L328.5,82.4L328.5,82.4L328.5,82.4L328.5,82.4L328.5,82.4L328.5,82.4L328.5,82.4L328.5,82.4L328.5,82.4L328.5,82.4L328.5,82.4
		L328.5,82.4L328.5,82.4L328.5,82.4L328.5,82.4L328.5,82.4L328.5,82.4L328.5,82.4L328.5,82.4L328.5,82.4L328.5,82.4L328.5,82.4
		L328.5,82.4L328.5,82.4L328.5,82.4L328.5,82.4L328.5,82.4L328.5,82.4L328.5,82.4L328.5,82.4L328.5,82.4L328.5,82.4L328.5,82.4
		L328.5,82.4L328.5,82.4l-0.1,0l0,0l0,0l0,0l0,0l0,0l0,0l0,0l0,0v0l0,0l0,0l0,0l0,0l0,0l0,0l0,0l0,0L328.5,82.4L328.5,82.4
		L328.5,82.4L328.5,82.4L328.5,82.4L328.5,82.4L328.5,82.4L328.5,82.4L328.5,82.4L328.5,82.4L328.5,82.4L328.5,82.4L328.5,82.4
		L328.5,82.4L328.5,82.4L328.5,82.4L328.5,82.4L328.5,82.4L328.5,82.4L328.5,82.4L328.5,82.4L328.5,82.4L328.5,82.4L328.5,82.4
		L328.5,82.4z M235.3,75.4L235.3,75.4C235.2,75.5,235.4,75.6,235.3,75.4C235.3,75.4,235.3,75.4,235.3,75.4z M218.2,163L218.2,163
		C218,163.1,218.3,163.4,218.2,163C218.2,163,218.2,163.1,218.2,163z M330.9,165.7L330.9,165.7L330.9,165.7L330.9,165.7L330.9,165.7
		L330.9,165.7L330.9,165.7L330.9,165.7L330.9,165.7L330.9,165.7L330.9,165.7L330.9,165.7L330.9,165.7L330.9,165.7L330.9,165.7
		L330.9,165.7L330.9,165.7L330.9,165.7L330.9,165.7L330.9,165.7L330.9,165.7L330.9,165.7L330.9,165.7L330.9,165.7L330.9,165.7
		L330.9,165.7L330.9,165.7L330.9,165.7L330.9,165.7L330.9,165.7L330.9,165.7L330.9,165.7L330.9,165.7L330.9,165.7L330.9,165.7
		L330.9,165.7L330.9,165.7L330.9,165.7L330.9,165.7L330.9,165.7L330.9,165.7L330.9,165.7L330.9,165.7L330.9,165.7L330.9,165.7
		L330.9,165.7L330.9,165.7L330.9,165.7L330.9,165.7L330.9,165.7L330.9,165.7L330.9,165.7L330.9,165.7L330.9,165.7L330.9,165.7
		L330.9,165.7L330.9,165.7L330.9,165.7L330.9,165.7L330.9,165.7L330.9,165.7L330.9,165.7L330.9,165.7L330.9,165.7L330.9,165.7
		L330.9,165.7L330.9,165.7L330.9,165.7L330.9,165.7L330.9,165.7L330.9,165.7L330.9,165.7L330.9,165.7L330.9,165.7L330.9,165.7
		L330.9,165.7L330.9,165.7L330.9,165.7L330.9,165.7L330.9,165.7L330.9,165.7L330.9,165.7l-0.1-0.1l0,0l0,0l0,0l0,0l0,0l0,0l0,0l0,0
		l0,0l0,0l0,0l0,0l0,0l0,0l0,0l0,0l0,0l0,0l0,0l0,0v0l0,0l0,0l0,0l0,0l0,0l0,0l0,0l0,0l0,0l0,0l0,0l0,0l0,0l0,0h0l0,0l0,0l0,0l0,0
		L330.9,165.7L330.9,165.7L330.9,165.7L330.9,165.7L330.9,165.7L330.9,165.7L330.9,165.7L330.9,165.7L330.9,165.7L330.9,165.7z
		 M315.1,103.2L315.1,103.2C314.9,102.9,314.8,103.3,315.1,103.2C315.1,103.1,315.1,103.2,315.1,103.2z M244.6,135.7L244.6,135.7
		C244.8,135.9,245,135.6,244.6,135.7C244.7,135.7,244.7,135.7,244.6,135.7z M310,74.5L310,74.5C309.6,74.4,309.6,74.7,310,74.5
		C309.9,74.5,309.8,74.6,310,74.5z M310.4,110.4L310.4,110.4C310.1,110.2,310.1,110.5,310.4,110.4
		C310.3,110.4,310.3,110.5,310.4,110.4z M270.3,95.9L270.3,95.9C270.1,95.7,270.1,96.1,270.3,95.9C270.3,95.8,270.3,95.9,270.3,95.9
		z M300.9,132.1L300.9,132.1C301.1,131.8,300.7,131.8,300.9,132.1C300.9,132,300.8,132,300.9,132.1z M284.5,89.3L284.5,89.3
		C284.7,89,284.2,88.9,284.5,89.3C284.6,89.2,284.5,89.2,284.5,89.3z M262.7,92.3L262.7,92.3c0.2-0.1,0.2-0.2,0-0.3
		C262.5,92,262.5,92.1,262.7,92.3C262.7,92.2,262.6,92.2,262.7,92.3z M288.5,115.1L288.5,115.1C288.7,114.8,288.2,114.9,288.5,115.1
		C288.5,115.1,288.4,115.1,288.5,115.1z M225.1,182.6L225.1,182.6c0.3,0.1,0.3-0.1,0.2-0.4C225.1,182.1,225,182.2,225.1,182.6
		C225.1,182.6,225.1,182.4,225.1,182.6z M224.8,147.7L224.8,147.7C224.5,148.2,225.1,148,224.8,147.7
		C224.7,147.8,224.8,147.8,224.8,147.7z M289.7,104.3L289.7,104.3C290.2,104.6,290,104,289.7,104.3
		C289.8,104.4,289.8,104.3,289.7,104.3z M250.6,135.2L250.6,135.2c-0.3,0-0.1,0.2,0,0.4C250.8,135.6,250.8,135.4,250.6,135.2
		C250.6,135.2,250.7,135.3,250.6,135.2z M300.9,132.9L300.9,132.9c-0.3-0.2-0.5,0.2-0.2,0.4C300.8,133.2,300.9,133,300.9,132.9
		C300.9,132.9,300.9,133,300.9,132.9z M300,101.4L300,101.4c0.1,0.3,0.2,0.2,0.5,0C300.4,101,300.3,101.1,300,101.4
		C300.1,101.4,300.2,101.3,300,101.4z M262.1,90.1L262.1,90.1c-0.4,0.1-0.3,0.3,0.1,0.6C262.4,90.6,262.4,90.4,262.1,90.1
		C262,90.1,262.1,90.2,262.1,90.1z M330.9,157.9L330.9,157.9c0.1-0.3,0-0.4-0.4-0.3C330.4,158,330.5,158.1,330.9,157.9
		C330.9,157.9,330.7,157.9,330.9,157.9z M313.4,158.4L313.4,158.4c0.2-0.3,0-0.4-0.6-0.5C312.6,158.2,312.8,158.4,313.4,158.4
		C313.4,158.3,313.2,158.3,313.4,158.4z M308.5,82.1L308.5,82.1c-0.1-0.3-0.4-0.3-0.6,0.1C308,82.5,308.2,82.5,308.5,82.1
		C308.4,82,308.3,82.2,308.5,82.1z M326.4,174.6L326.4,174.6c-0.1-0.3-0.3-0.3-0.6,0.1C325.9,175.1,326.1,175,326.4,174.6
		C326.4,174.6,326.2,174.7,326.4,174.6z M289.7,88.7L289.7,88.7c0,0.3,0.2,0.4,0.7,0.1C290.4,88.5,290.2,88.4,289.7,88.7
		C289.7,88.8,289.9,88.7,289.7,88.7z M277.3,92.7L277.3,92.7c-0.2-0.3-0.4-0.3-0.6,0C276.9,92.9,277.1,93,277.3,92.7
		C277.1,92.5,277.1,92.8,277.3,92.7z M299.6,101.9L299.6,101.9c0.1-0.3,0-0.4-0.5-0.3C299,101.9,299.2,102,299.6,101.9
		C299.6,101.8,299.4,101.9,299.6,101.9z M285.6,118.2L285.6,118.2c-0.4,0.1-0.4,0.3,0,0.6C285.9,118.8,285.9,118.6,285.6,118.2
		C285.5,118.3,285.7,118.4,285.6,118.2z M294.5,142.3L294.5,142.3c-0.2,0.6-0.2,0.6,0.2,0.8C294.6,142.7,294.5,142.5,294.5,142.3z
		 M286.1,119L286.1,119c-0.4,0.3-0.4,0.6,0.2,1C286.7,119.7,286.6,119.3,286.1,119C286,119.1,286.3,119.3,286.1,119z M309.5,113
		L309.5,113c0.3-0.4,0.6-0.9,0.9-1.4C309.8,111.8,309.4,112.3,309.5,113z M220.4,154.4L220.4,154.4c-0.3-0.8-0.9,0.4-1,0.6
		C219.8,155.4,220.1,155.2,220.4,154.4C220.3,154.3,220.1,154.6,220.4,154.4z M269.6,95.7L269.6,95.7c-0.5-0.5-1.4,0.4-1,0.8
		C269.2,96.6,269.5,96.3,269.6,95.7C269.6,95.6,269.4,95.9,269.6,95.7z M310.1,77.9L310.1,77.9c-0.5-0.2-1.1,1.6-0.8,2.1
		C309.8,79.5,309.9,78.6,310.1,77.9C310.1,77.9,310,78.3,310.1,77.9z M219.3,156.3L219.3,156.3C217.9,159.1,220.4,157.4,219.3,156.3
		C219.1,156.7,219.7,156.7,219.3,156.3z M307.3,83.6L307.3,83.6c-0.1-0.1-2,2.4-2.3,2.7C305.7,86.9,307.1,84.1,307.3,83.6
		C307.2,83.6,306.8,84.8,307.3,83.6z M288.7,124.7L288.7,124.7c0-1.1-1-1.6-0.7-2.8C287.1,122.4,287.7,124,288.7,124.7
		C288.7,124.2,287.8,124.1,288.7,124.7z M225.1,181.1L225.1,181.1c0.6,0,0.6-3.4,0.4-3.9C224.8,177.2,225.1,180.5,225.1,181.1
		C225.2,181.1,225.1,180.7,225.1,181.1z M276.8,101.8L276.8,101.8c-0.5-0.5-2.4,1.3-1.9,2.3C275.7,103.4,276.2,102.6,276.8,101.8
		C276.8,101.7,276.7,101.9,276.8,101.8z M219.4,171.4L219.4,171.4c-0.8,0.5-1.5,0.4-0.6,1.2c-0.6-0.1-0.7,0.2-0.4,0.8
		C219.6,173.7,219.5,172.1,219.4,171.4C219,171.6,219.4,171.9,219.4,171.4z M316.8,102.1L316.8,102.1c-0.1-0.8,0.9-1.8,1.3-2.5
		c-0.4-0.3-2.5,2.4-2.9,2.9C315.9,103.2,316,102.6,316.8,102.1C316.7,101.6,316.6,102.3,316.8,102.1z M269.7,95L269.7,95
		c2,1.2,4.9-0.8,6.8-2c-0.8-0.7-2.9,0.3-3.7,0.8C271.6,94.5,271.1,94.7,269.7,95C270.2,95.3,270,94.9,269.7,95z M275.2,95.5
		L275.2,95.5c-1.4-0.7-3.8,1.8-5,2.4c-0.4,0.2-2.6,2.9-1.7,2.7c1.2-0.3,2-1.8,2.9-2.7C272.6,96.7,274,96.5,275.2,95.5
		C274.6,95.2,274.7,95.9,275.2,95.5z M301,144.8L301,144.8c0.8,0.1-0.1-4.6,0-5.2c0-1,0.4-5.1-0.5-5.8c-0.6,1.4-0.7,2.8-0.7,4.3
		c0.3,0.1,0.4,0,0.5-0.5C300.2,140,300,142.5,301,144.8C301,144.8,300,142.5,301,144.8z M249.6,189.5L249.6,189.5
		C249.7,189.5,249.6,189.4,249.6,189.5C249.6,189.5,249.6,189.5,249.6,189.5z M258.8,153.5L258.8,153.5L258.8,153.5L258.8,153.5
		L258.8,153.5L258.8,153.5L258.8,153.5L258.8,153.5L258.8,153.5L258.8,153.5L258.8,153.5L258.8,153.5L258.8,153.5L258.8,153.5
		L258.8,153.5L258.8,153.5L258.8,153.5L258.8,153.5L258.8,153.5L258.8,153.5L258.8,153.5L258.8,153.5L258.8,153.5L258.8,153.5
		L258.8,153.5L258.8,153.5L258.8,153.5L258.8,153.5L258.8,153.5L258.8,153.5L258.8,153.5L258.8,153.5L258.8,153.5L258.8,153.5
		L258.8,153.5L258.8,153.5L258.8,153.5L258.8,153.5L258.8,153.5L258.8,153.5L258.8,153.5L258.8,153.5L258.8,153.5L258.8,153.5
		L258.8,153.5L258.8,153.5L258.8,153.5L258.8,153.5L258.8,153.5L258.8,153.5L258.8,153.5L258.8,153.5L258.8,153.5L258.8,153.5
		L258.8,153.5L258.8,153.5L258.8,153.5L258.8,153.5L258.8,153.5L258.8,153.5L258.8,153.5L258.8,153.5L258.8,153.5L258.8,153.5
		L258.8,153.5L258.8,153.5L258.8,153.5L258.8,153.5L258.8,153.5L258.8,153.5L258.8,153.5L258.8,153.5L258.8,153.5L258.8,153.5
		L258.8,153.5L258.8,153.5L258.8,153.5L258.8,153.5L258.8,153.5L258.8,153.5L258.8,153.5L258.8,153.5z M261.6,183.7L261.6,183.7
		c-0.3,0-0.3,0.2,0,0.5C261.8,184.1,261.8,184,261.6,183.7C261.5,183.7,261.6,183.8,261.6,183.7z M252.4,188.2L252.4,188.2
		c1.3,0.6,1-0.2,0.3-1C252.3,187.3,252.2,187.7,252.4,188.2C252.6,188.3,252.5,187.8,252.4,188.2z M260.4,169.9L260.4,169.9
		c-0.6-0.1-0.8,2.4-0.6,2.9C260.5,172.1,260.4,170.8,260.4,169.9C260.4,169.9,260.4,170.2,260.4,169.9z M252.3,189.3L252.3,189.3
		c-0.3-0.9-1.2-0.8-2-0.7c-0.3,0.1-0.2,1.4,0.6,0.3C251.1,189.5,251.6,189.7,252.3,189.3C252.1,188.9,251.9,189.4,252.3,189.3z
		 M260,178L260,178c-0.7,0,1,4.8,1.2,5.3C261.7,183.2,260.2,178.7,260,178C260,178,260.5,179.8,260,178z M262.3,177.3L262.3,177.3
		c-0.3,2,3.1,9.4,4.6,10.2C265.4,184.1,263.9,180.7,262.3,177.3z M257,189.7c0.5-1.3,5.4-0.3,6.4-0.2c0.5-0.8-3.2-5-3.3-6.1
		c-0.1-1.1-0.9-2.2-1.2-3.2c-0.4-1.4-0.4-3-0.5-4.5c-0.3-2.6,0-5,0.9-7.5c0.2-0.7,1.2-3.1,2-3.2c0.7-0.1,1.7,0.8,1.5,1.5
		c-1.6,5.6-0.1,10.4,2.4,15.4c1.2,2.3,2.2,4.7,3.7,6.8c0.2,0.2,0.3,1.7,0.4,1.7c0.7,0.2,1.7,0.9,2.4,1.2c-2.1,1.7-5.1-3.2-6.7-2.1
		c-1.1,0.8-2.7,0.2-4,0.2c-1.7,0-3.6-0.1-5.2,0.2c0.5,0.5,0.6,1.1,0.1,1.5c-1.7-1.8-3.2-1.6-5.7-1.7c-0.6,0-1.4,0-2-0.1
		c-0.1-0.8-1.2-1.2-0.6,0c-0.7,0-3.2-0.4-3.1,0.4c0.3,1.4-1.7-0.5-2.1-0.5c-1.8,0.1-8.4,0.8-8.7-1.2c2.7,0.5,5.7,0.7,8.8,0.4
		c-0.2-1-0.7-0.7-1.5-0.7c0-0.3,0.2-0.6,0.6-0.8c0.1-0.3-1-1.8-1.1-2.2c-0.6-1.7-1-3.4-1.1-5.1c-0.3-3.5-0.3-5.8,0.7-9.1
		c0.1-0.5,0.2-1,0.4-1.5c0.5-0.7,1.4,0.4,1.3,0.8c-0.2,1.1-0.8,2.7-0.7,3.8c0.1,0.9,0.4,7.3,1.3,7.4c0.1-0.5,0.4-3.2,1.3-2.7
		c1.1,0.6,0.7,3.5,0.9,4.5c0.3,1.6,0.6,2.9,1.5,4.3c0.8,1.2,3.2-0.2,2.9,1.2c0,0,2.3-0.5,2.6-0.6c-0.8-1.9-2.4-3.4-3.1-5.4
		c-0.7-1.9-1.6-3.8-2.3-5.7c-1.3-4.1,0.8-7.9,2.4-11.5c0.8-1.8,2-3.7,3.2-5.3c0.6-0.9,1.1-1.7,1.6-2.7c0.3-0.6,0.9-0.1,1.3-0.6
		c1.1-1.4,2.5-2.6,3.6-3.9c1.2-1.5,1.9-1,2.9-2.1c0.8-0.9-0.2,2.5-0.5,3c-1.1,1.6-2.4,3.1-3.3,4.7c-1.9,3.2-4.7,6.4-5.9,10.1
		c-1.2,3.8-2.3,8.8-0.5,12.5c1,2.1,1.9,4.2,3,6.2C254.9,189,256.7,188.4,257,189.7C257.4,188.6,256.8,188.8,257,189.7z M262.9,129.1
		L262.9,129.1C262.9,129,262.7,129.3,262.9,129.1C262.9,129.1,262.9,129.1,262.9,129.1z M257.8,145.3L257.8,145.3
		c0.6,0.2,1.1-1,0.5-1.4C258.2,144.4,258,144.8,257.8,145.3C257.9,145.3,258,144.8,257.8,145.3z M258.8,140.2
		c1.2-3.2,3.2-9.4,1.9-12.7c-0.9,0.7-0.7,2.8-1.8,3c-0.6,0.1-1.3,2.2-1.8,1.1c-0.8-1.8,0.2-3.6,0.6-5.4c0.2-1,1.3-4,0.9-4.9
		c-0.6-1.2,0.1-3.5,0.2-4.8c0.1-1.4-0.6-3.6-1.2-4.8c-0.5-0.9-0.6-2.1-0.8-3.1c-0.4-3,1.9-0.3,2.4,0.7c1.5,2.5,3.7,4,5.2,6.5
		c0.8,1.3,2.5,3.4,1.9,5c-0.2,0.4,0.4,1.4,0.4,1.9c0,0.8-0.2,1.6-0.1,2.4c0.9,6.4-2.3,13.4-5.5,18.7c-1.4,2.2-2.4,4.6-3.5,7
		c-0.9,1.9-1-0.3-1.7,1c-0.4,0.8-1.5,2.5-2.1,3.1c-0.9,0.9-2,1.6-3,2.7c-0.9,1.1-1.2,2.3-2,3.4c-0.5,0.8-3.6,7.9-4.2,7.6
		c-0.7-0.4-0.7-2.6-0.5-3.2c0.4-1.8,1.1-3.4,2-5c1.5-2.7,3.3-4.8,5.1-7.3c0.9-1.3,2.1-2.6,2.7-4c0.4-1,1.7-1.6,2-2.6
		c0.3-0.8,1-1.8,1.4-2.6c0.4-0.8,0.7-1.6,1.1-2.4c0.2-0.3-0.2-1.1-0.1-1.2C258.5,140.2,258.7,140.2,258.8,140.2
		C259,139.6,258.7,140.2,258.8,140.2z M234.2,185.8L234.2,185.8C234.1,185.7,234.1,185.9,234.2,185.8
		C234.2,185.8,234.2,185.8,234.2,185.8z M240.3,161.3L240.3,161.3L240.3,161.3L240.3,161.3L240.3,161.3L240.3,161.3L240.3,161.3
		L240.3,161.3L240.3,161.3L240.3,161.3L240.3,161.3L240.3,161.3L240.3,161.3L240.3,161.3L240.3,161.3L240.3,161.3L240.3,161.3
		L240.3,161.3L240.3,161.3L240.3,161.3L240.3,161.3L240.3,161.3L240.3,161.3L240.3,161.3L240.3,161.3L240.3,161.3L240.3,161.3
		L240.3,161.3L240.3,161.3L240.3,161.3L240.3,161.3L240.3,161.3L240.3,161.3L240.3,161.3L240.3,161.3L240.3,161.3L240.3,161.3
		L240.3,161.3L240.3,161.3L240.3,161.3L240.3,161.3L240.3,161.3L240.3,161.3L240.3,161.3L240.3,161.3L240.3,161.3L240.3,161.3
		L240.3,161.3L240.3,161.3L240.3,161.3L240.3,161.3L240.3,161.3L240.3,161.3L240.3,161.3L240.3,161.3L240.3,161.3L240.3,161.3
		L240.3,161.3L240.3,161.3L240.3,161.3L240.3,161.3L240.3,161.3L240.3,161.3L240.3,161.3L240.3,161.3L240.3,161.3L240.3,161.3
		L240.3,161.3L240.3,161.3L240.3,161.3L240.3,161.3L240.3,161.3L240.3,161.3L240.3,161.3L240.3,161.3L240.3,161.3L240.3,161.3
		L240.3,161.3L240.3,161.3L240.3,161.3L240.3,161.3L240.3,161.3L240.3,161.3L240.3,161.3L240.3,161.3L240.3,161.3L240.3,161.3
		L240.3,161.3L240.3,161.3L240.3,161.3L240.3,161.3L240.3,161.3L240.3,161.3L240.3,161.3L240.3,161.3L240.3,161.3L240.3,161.3
		L240.3,161.3L240.3,161.3z M231.4,184.1L231.4,184.1c-0.2-0.1-0.2,0.2-0.2,0.4C231.4,184.5,231.5,184.3,231.4,184.1
		C231.4,184.1,231.4,184.2,231.4,184.1z M222.8,187.3L222.8,187.3L222.8,187.3L222.8,187.3 M310.4,191L310.4,191L310.4,191
		L310.4,191L310.4,191L310.4,191L310.4,191L310.4,191L310.4,191L310.4,191L310.4,191L310.4,191L310.4,191L310.4,191L310.4,191
		L310.4,191L310.4,191L310.4,191L310.4,191L310.4,191L310.4,191L310.4,191L310.4,191L310.4,191L310.4,191L310.4,191L310.4,191
		L310.4,191L310.4,191L310.4,191L310.4,191L310.4,191L310.4,191L310.4,191L310.4,191L310.4,191L310.4,191L310.4,191L310.4,191
		L310.4,191L310.4,191L310.4,191L310.4,191L310.4,191L310.4,191L310.4,191L310.4,191L310.4,191L310.4,191L310.4,191L310.4,191
		L310.4,191L310.4,191L310.4,191L310.4,191L310.4,191L310.4,191L310.4,191L310.4,191L310.4,191L310.4,191L310.4,191L310.4,191
		L310.4,191L310.4,191L310.4,191L310.4,191L310.4,191L310.4,191L310.4,191L310.4,191L310.4,191L310.4,191L310.4,191L310.4,191
		L310.4,191L310.4,191L310.4,191L310.4,191L310.4,191L310.4,191L310.4,191z M300.9,179.9L300.9,179.9
		C300.6,179.7,300.7,180.1,300.9,179.9C300.9,179.9,300.9,180,300.9,179.9z M301.7,180.5L301.7,180.5c-0.3,0.3,0.2,0.7,0.5,0.4
		C302,180.8,301.8,180.6,301.7,180.5C301.6,180.5,301.8,180.6,301.7,180.5z M312.4,189.9L312.4,189.9c0.1-0.3-0.1-0.3-0.6-0.2
		C311.8,190,312,190,312.4,189.9C312.4,189.8,312.2,189.9,312.4,189.9z M319.9,189.9c-0.2,0.3-0.3,0.5-0.5,0.8
		c1.2,0.8,2.3-0.5,3.5-0.8c-0.2,1.7,0.7,0.2,1.4,0.2c1.3,0.1-0.3,1-0.8,1c-2,0.1-3.9,0.4-5.9,0.6c-0.9,0.1-1.8,0.5-2.7,0.6
		c-1.4,0.1-2.3-0.7-3.6-0.9c-1.4-0.1-4.8,0.9-5.7,0.4c0.5-0.2,0.8-1.6,1.5-1.1c0.9,0.7,1.6-1.2,2.7,0c0.4-2.4-6.4-5-8.3-6.3
		c-3.2-2-5.9-5.7-8.6-8.4c-2.7-2.7-4.6-6.5-6.4-9.8c-1.5-2.7-4.2-8.9-2.5-11.8c1.2,0.7,1.8,3.9,2.4,5.2c0.9,1.9,1.7,3.7,3.1,5.4
		c2.6,3.3,4.7,6.8,7.6,9.8c3,3.2,6.6,5.7,10.3,8c1,0.6,3.4,0.5,4.1,1.6c0.9,1.4-2.9,0.1-3,0.3c2.5,1.6,4.6,2.5,7.6,2.4
		c0.9,0,2.3,0.6,2.9,1.2C319.3,189.1,318.8,189.8,319.9,189.9C319.7,190.2,319.1,189.8,319.9,189.9z M321.5,75.4L321.5,75.4
		C321.3,75.2,321.3,75.7,321.5,75.4C321.4,75.4,321.4,75.4,321.5,75.4z M313.4,93.9L313.4,93.9C313.1,93.7,313.1,94.1,313.4,93.9
		C313.3,93.9,313.3,94,313.4,93.9z M314.3,92L314.3,92c-0.4-0.5-1.1,0.7-0.6,0.9C313.9,92.6,314.1,92.3,314.3,92
		C314.2,91.9,314.1,92.3,314.3,92z M321.4,78.7L321.4,78.7c0.5,0,0.3-1.8-0.1-2.1C321.4,77.3,321.4,78,321.4,78.7
		C321.5,78.7,321.4,78,321.4,78.7z M315.7,93.8L315.7,93.8c1.4-0.2,3-4.2,3.6-5.3c1.4-2.7,2.4-5.9,2.3-9c-0.4,0-2,5.5-2.3,6.2
		C318.3,88.6,317,91.1,315.7,93.8C315.9,93.8,316,93.3,315.7,93.8z M313.2,94.7c-1.4,0.6-3.4,1.1-4.4,2.7c-0.8,1.3-3,0.1-1.3-0.8
		c1.2-0.7,2.2-2.3,3-3.4c0.7,0.9,1-1.5,1.9-2.5c1.7-1.8,3.5-4.8,4.3-7.1c1-3.1,1.7-6.5,2.1-9.7c0.3-1.9,1-3,2.8-3.3
		c0.1,3.5,0.7,6.6,0.3,10.1c-0.5,4.2-1.6,7.5-3.8,11.2c-3.6,6.2-9.9,11.2-16.6,13.6c-2.9,1.1-6.7,2-8.4,4.8
		c-0.7,1.2-2.5,0.5-1.3-0.9c1.2-1.5,2.8-2.8,4.3-3.9c3.2-2.3,6.8-2.9,10.2-4.8C308.6,99.7,313.1,97.4,313.2,94.7z M269.8,129.4
		c0.2-0.2,0.3-0.5,0.4-0.7c1,0.9,0.5,1.9,0.9,3.1c0.4,1.2,1,2.3,1.2,3.6c0.2,1.5,0.2,3,0.3,4.6c0.1,0.5-0.1,0.8-0.6,0.9
		c-0.5,0-0.5,2-0.4,1.8c-1.2,6.1-4.6,10.2-8,15.2c-1.6,2.3-3.4,4-4.7,6.7c-1.1,2.3-1.8,4.8-2.4,7.2c-0.5,2.1-1.6,5.5-0.8,7.7
		c0.3,0.9,1.8,3.1,1.5,4c-0.5,1.6-2.1-2.2-2.1-2.2c-2.6-6-1.2-11.8,1.7-17.4c2.5-4.8,7.2-8.5,9.2-13.5c0.5-1.2,1.3-2.2,1.4-3.5
		c0-0.5,0.1-2-0.9-0.9c-0.7,0.8-1.3,2.4-2.6,2c-1.5-0.5,0.4-2.9,0.8-3.6c1.6-2.5,3.1-5.1,3.9-7.9c0.4-1.4,0.6-2.9,0.6-4.4
		C269.2,130.8,268.2,129.5,269.8,129.4C269.8,129.4,268.8,129.4,269.8,129.4z M271.8,159L271.8,159
		C271.6,158.7,271.6,159.1,271.8,159C271.8,158.9,271.7,159,271.8,159z M269.3,160c-0.5-1.2,3.3-5.2,3.9-6.3c1.6-2.7,1.8-4.9,2.1-8
		c0.1-1.1,0.4-2.4-0.2-3.4c-0.5-0.8,0.9-0.9,1.1-1.5c0.9-2.5,2.3-1,3.3,0.7c2.8,4.2,3,8.6,0.6,13.1c-0.4,0.7-2.7,6.3-3.2,5.3
		c-0.5-1.1,0.7-2.2,0.2-3c-0.4-0.6-1.2,0.2-1-1.2c0.9-4.7,6.8-8.7,2-13.4c-2.2-2.2-0.6,2.8-0.6,3.4c0.3,2.9-0.9,5.9-1.9,8.6
		c-1.8,4.5-4.7,9.4-5.1,14.2c-0.3,3.6,2.8,7.7,4,11.1c-1.4-1-1.9-0.3-2.8-2c-1.2,2-1.6-0.6-1.9-1.8c-0.5-1.7-0.9-3.3-1.4-5
		C267.5,166.9,267,163.5,269.3,160C269.1,159.5,269,160.5,269.3,160z M277.7,129.6L277.7,129.6C277.4,129.3,277.4,129.9,277.7,129.6
		C277.6,129.6,277.6,129.7,277.7,129.6z M278.1,126.2L278.1,126.2c-0.3,0.1-0.1,0.5,0.1,0.4C278.1,126.5,278.1,126.3,278.1,126.2
		C278,126.2,278.1,126.3,278.1,126.2z M274.7,122.5L274.7,122.5c0,0.4,0.1,0.8,0.1,1.2C275.3,123.2,275.3,122.7,274.7,122.5z
		 M270.1,112.8L270.1,112.8L270.1,112.8L270.1,112.8z M272.1,119.9c0.7,0.8,1.4,1.6,2.1,2.4c0.1-2.4-0.4-8.8-3.8-9.2
		c0.5,0.8,1.8,2.8,1.1,3.8c-0.6,0.9-1.6-1.6-1.8-1.9c-2.3-2.9-5.6-5.7-8.7-7.9c-0.9-0.7-3.7-2.1-3.3-3.6c0.1-0.4,2.5,0.9,3.2,0.8
		c2.8-0.6,7.3,3.5,9.1,5c6,5.1,9.6,13.9,9.2,21.7c0,0.6-0.5,4.7-1.5,4.4c-0.7-0.2-0.6-1.8-0.6-2.2c0-0.9-0.6-0.9-1-1.6
		c-0.9-1.7-1.1-3.8-1.9-5.5C273.5,124.3,271.2,121.8,272.1,119.9C272.8,120.7,271.8,120.5,272.1,119.9z M286,139.6
		c-0.4,0.3,0.5,3.9,0.6,4.5c0.6,2,1.3,3.8,2.1,5.7c1,2.2,1.8,4.4,2.7,6.6c0.3,0.7,2.9,5,0.9,4.9c-1.5-0.1-3.8-4.6-4.4-6
		c-1-2.3-1.5-5.1-2.6-7.2c-1.1-1.9-0.9-4.2-1.5-6.2c-0.7-2.3-1-5.3-0.7-7.7c0.1-1-0.9-2.4-1.1-3.4c-0.3-1.5-0.6-2.9-0.9-4.4
		c-0.6-2.4-1.4-4.7-2.7-6.9c-1-1.8-1.6-3.8-3-5.4c-1-1.1-2.2-2-2.9-3.3c-1-1.8,0.9-1.1,1.7-0.6c4.1,3.1,6.7,8.4,8.6,13.1
		c0.9,2.5,1.5,4.7,1.9,7.2C285,133.3,284.4,137.3,286,139.6C285.6,139.8,285.8,139.3,286,139.6z M303.7,192.3L303.7,192.3
		C303.9,192,303.5,192.1,303.7,192.3C303.7,192.3,303.6,192.3,303.7,192.3z M280.5,161.8c-1.7,4.2,0.6,9.1,2.6,12.7
		c0.9,1.8,1.8,3.7,3.4,5c1.1,0.9,3.7,1.9,1.2,2.5c-3.3,0.8-6.4-5.2-7.4-7.9c-1.4-3.9-2.6-9.5-1.3-13.6c1.5-4.5,4.4,3.7,4.8,5.3
		c0.9,4.1,2.9,7.9,5.6,11.2c2.8,3.5,6.3,7.6,10.5,9.4c1.3,0.6,1.7,1.3,2.9,2c2.2,1.4,2,1.6,2.9,3.7c-1.3,0.9-3.7,0.4-5.2,0.1
		c0.3,1-1,0.7-1.3,0.2c-0.4-0.6,0.6-2,1.3-1.5c0.5-1.7,4.5,2.8,4.4,0.2c-0.8,0.4-1-0.4-2.1-0.4c0.6-1.2-1.1-1.6-2.1-2.1
		c-1.8-0.9-3.4-2.2-5-3.4c-2.1-1.7-4.2-3.6-6-5.7c-2.2-2.6-4.2-5.3-5.6-8.3C283.5,170.2,281.4,161.8,280.5,161.8
		C280.4,162,280.5,161.8,280.5,161.8z M272.7,186.2L272.7,186.2C272.7,186.4,272.8,186.3,272.7,186.2
		C272.7,186.3,272.8,186.3,272.7,186.2z M275.8,184.6L275.8,184.6C275.7,184.8,275.9,184.8,275.8,184.6
		C275.8,184.7,275.9,184.7,275.8,184.6z M274.9,190.4L274.9,190.4c-0.7-0.6-1.2-1.2-1.8-1.8C272.7,189.3,273.7,190.2,274.9,190.4z
		 M277,193.1c-0.8-1.3-1.9-1-3.2-1.7c-1.5-0.9-2.9-2.2-3.6-3.8c-1.9-4.1-4.3-8.8-4.7-13.3c-0.1-1.6-0.8-5.5,0.1-6.8
		c1-1.5,1.4,2.6,1.4,2.9c-0.1,2.7,1.2,5.1,2.1,7.5c0.9,2.1,2.1,5.8,4,7.1c-0.6-1.9-0.1-1.1,0.9-1.4c0.4-0.1-0.4-1.1,0.2-1.3
		c0.6-0.3,0.9,1.3,1.1,1.5c0.2,0.2,1.8,1.2,1.1,1.5c-0.7,0.3,0.5,1.6,0.7,1.9c0.7-0.5,0-0.9-0.4-1.3c0.9-0.8,2.4,3.5,2.3,4.4
		c-0.2,1.3-1.2,0.3-1.6,0.8C276.9,191.5,277.7,192.8,277,193.1C276.8,192.8,277.1,193.1,277,193.1z M283,186.6L283,186.6
		c0.4-0.3,0.3-0.6-0.5-1C282,185.9,282.2,186.2,283,186.6C283,186.6,282.7,186.3,283,186.6z M276.6,175.3L276.6,175.3
		c-0.9,0.2,4,10.5,5.3,9.6C280.8,181.7,278.1,178.5,276.6,175.3C276.5,175.4,277.3,176.8,276.6,175.3z M284.7,187.2
		c0.9,1,1.9,1.7,2.9,2.5c0.6,0.5,0.7,1.8-0.3,1.1c-2.6-1.9-5.4-3.8-7.4-6.4c-1.9-2.4-3.2-5.2-4-8.1c-0.9-3.2-2.6-7.5-1.6-10.7
		c0.2-0.6,0.9-0.6,1,0.1c0.3,1.7,0.4,3.4,1,5.1c1.1,3.3,2.6,6.4,4.4,9.3c1.6,2.5,3.9,5.8,6.6,7.4c1.5,0.9,5.9,2.3,5.4,4.3
		c-0.7-0.2-1.3-0.9-2.1-0.6c-0.5,0.2-0.8-0.7-1.2-0.9C287.9,189.6,286.3,187.5,284.7,187.2C285.5,188,284.8,187.2,284.7,187.2z
		 M327.1,189.9L327.1,189.9c0-0.2-0.1-0.3-0.4-0.1C326.7,190,326.9,190.1,327.1,189.9C327.1,189.8,327,189.9,327.1,189.9z
		 M327.7,190.1c0.1,0.1,0.1,0.3,0.2,0.4c-0.6,0-1.2,0-1.8,0.1c-0.3-1.2-0.1-1.5-1.3-1.9c-1.5-0.5-3.1-0.8-4.6-1.3
		c-2.2-0.6-7.5-1.2-8.8-3.4c-2-3.3,3.4-0.4,4.3-0.2c2.5,0.6,4.6,1,7.1,0.8c0.1,0.2,0,0.4-0.3,0.6c1,0.1,2.1,0,3.2-0.1
		c0.7,0,1.4-0.1,2.1-0.1c2,0,0.7-0.2,1.6-1.4c2.7,2.5-2.9,2.8-1,5.8c1.2-1.2,1.1-0.8,1.8,0c0.8,0.8,1.8-1.3,2.7-0.8
		c0.8,0.5-1.4,1.3-1.6,1.3C331,190.6,328.4,190.2,327.7,190.1z M312.5,135.7c0,1.3-0.1,2.6-0.1,3.9c0,0-0.2,4.2-0.9,2.6
		c-0.7-1.4-0.2-3.2-0.3-4.6c-0.1-1.4-0.5-2.8-0.1-4.3c0.3-1.5-0.3-3.7-0.3-5.2c0-0.9,0.5-4.4,0.1-5c-0.4-0.7-1.8-1.7-0.3-2.4
		c0.7-0.3,1.4,0.3,2,0.1c1.1-0.4,2.3-0.3,3.5-0.4c1.7,0,9.1-1.4,9.9,0.1c1.1,1.9-6.6,1.7-8,1.6c-1.8-0.1-7.1-0.3-6.3,2.8
		C312.7,128.3,311.5,132.2,312.5,135.7C312.5,135.9,312.4,135.1,312.5,135.7z M246.1,115.9c-0.6,1.1-0.2,2-0.3,3.2
		c-0.2,1.4-1.1,2.6-2,3.8c-0.8,1.1-2,2.4-3.4,2.8c-0.5,0.2-3.3,0.2-1.9-0.8c1.2-0.8,8.2-6.3,3.6-6.1c-1.5,0.1-3.1-0.2-4.5-0.8
		c-0.3-0.1-4.4-1.7-3.3-2.5c0.7-0.5,4.7,1.3,5.8,1.3C241.3,116.8,246.2,114.8,246.1,115.9C246.1,116,246.2,115.4,246.1,115.9z
		 M308.4,129.4c-0.3,2.4-0.5,5.3-0.1,7.7c0.2,1,1.5,5.6,0.9,6.5c-1,1.4-2-3-2.1-3.5c-0.5-2.4,0.3-5.6-0.7-7.9
		c-0.8,1.3-0.7,3.3-1.8,4.3c-1.1,1-0.3-3.7-0.2-3.9c0.2-0.6,1.8-3.3,1.8-3.6C305.4,126.3,308.6,127.1,308.4,129.4
		C308.3,129.9,308.4,128.8,308.4,129.4z M245.7,73.7c-0.7,0.3-4.4-1.2-5.4-1.4c-2-0.3-3.9-0.2-5.9-0.4c-0.4,0-4.1-0.2-3.8-1.1
		c0.1-0.4,4.2-0.7,4.8-0.7c4.5,0,9.1-0.3,13.6-0.2c0.7,0,1.1,0.6,0.8,1.2c-0.3,0.6-2.8,0.5-3.4,0.4
		C244.1,71.4,245.2,72.2,245.7,73.7C245.6,73.8,245.7,73.6,245.7,73.7z M322.2,116.9c-0.3,1.7-13.1,0.5-6.7-3.7
		c2.2-1.5,3.3-2.4,6.2-2.9c0.9-0.1,2.6-0.5,2.9,0.8c0.1,0.7-0.4,0.9-0.9,0.6c-1.9-1.1-5.4,1.1-6.9,2.1c-3.1,2.1,2,1.9,3.1,1.8
		c0.9-0.1,2-0.6,2.9-0.4c0.4,0.1,0.5,0.7,1,0.7C327.3,115.9,324.3,117.8,322.2,116.9C322,117.6,322.5,117,322.2,116.9z M279.5,71.6
		c-2.5,0.2-5.1-0.1-7.6,0.1c-2.5,0.1-5.1,0.5-7.7,0.4c-2.3,0-4.5,0.5-6.9,0.1c-1.4-0.2-4.2-1.3-1.1-1.4c5.6-0.1,11.1-0.4,16.7-0.4
		c2.6,0,5.2,0,7.9,0C285.2,70.5,279.6,72.7,279.5,71.6C279,71.7,279.5,71.7,279.5,71.6z M223.2,131.1c0,0.4-0.4,2.3,0.1,2.6
		c0.6,0.3,3.6-2.3,4.2-2.6c1.5-0.8,3.1-1.4,4.7-2c1.5-0.6,1.9,1.3-0.1,1.7c-2.1,0.4-4,1.5-5.7,2.7c-0.6,0.4-4.7,5.2-5.3,4.2
		c-0.7-1.1,0.3-3.5,0.4-4.7c0.1-1.6-0.3-4.4,0.6-5.7C222.5,127.6,223.6,131.1,223.2,131.1C223.2,131.8,223.2,131.1,223.2,131.1z
		 M282.3,77.6L282.3,77.6C282.3,77.8,282.5,77.8,282.3,77.6C282.3,77.7,282.3,77.7,282.3,77.6z M285.2,77.7L285.2,77.7
		c0.6-0.3,0.7-0.6,0.4-1C284.9,76.9,284.8,77.2,285.2,77.7C285.4,77.4,285,77.4,285.2,77.7z M286.9,77.1c0.5,0.2,0.7,0.5,0.7,1
		c-0.1,0.4-2.5,1-2.6-0.1c-0.8,0.4-1.6-0.6-2,0.1c-0.5,0.7-3.7-0.2-4.4-0.1c-2.8,0.2-6.9,2.3-8.7,4.4c-1.8-1.3,4.2-4.3,5.1-4.6
		c3-1,5.9-1.7,9.1-1.6c0.3,0,8.2,0,6.9,1.6C290.5,78.4,287,76.2,286.9,77.1C287.1,77.3,286.9,77,286.9,77.1z M249.4,75
		c1.1-3.2,8.4-0.5,10.8,0.2c2,0.5,4.6,1.3,6.1,2.6c0.6-0.5,4.4-2.4,4.8-1.5c-1.3,0.7-3.7,1.5-4.2,3.1c0-0.1-3.6-1.8-4.2-2
		c-2-0.7-3.9-1.2-6-1.7C255.7,75.5,249.6,75.7,249.4,75C249.5,74.7,249.6,75.6,249.4,75z M303.6,137.7c0.1,1.4,1.4,2.5,0.5,3.6
		c1.2,0.1,1,1.5,1.1,2.3c0.3,1.7,1.1,3.2,2.3,4.4c1.3,1.2,2.7,2,4.2,2.9c2.2,1.3,0.6,1.7-1,1c-2.7-1.3-5.5-3.2-6.8-5.9
		C303.6,145.1,301.7,137.5,303.6,137.7C303.6,138.1,303.6,137.7,303.6,137.7z M265.3,159.4c0.3-2.5,2.1-4,3.5-5.9
		c0.5-0.7,3.1-6,3.9-4.6c0.7,1.3-2.5,6.4-3.2,7.7C268.7,158.4,266.5,163.2,265.3,159.4C265.5,157.6,265.5,159.9,265.3,159.4z
		 M316,152.8c2.9,0,5.7-0.3,8.6-0.7c0.5-0.1,0.8,0,1,0.5c0.3,0.9-2,1-2.1,1c-0.7,0.1-4.9,0.2-4.9,0.9c1.4,0.8,3.2,1.2,4.8,1.7
		c0.6,0.2,3.3,1.8,0.9,1.7C321,157.7,315.6,156.8,316,152.8C317,152.7,316,153.2,316,152.8z M225,109.7c0,0.6,0.1,4.8-1.2,4
		c-1.2-0.8-0.3-4-0.3-5c0-0.6-0.2-6.1,0.5-6c1.5,0.1,1.2,2.4,1.4,3.3c0.5,1.9,0.7,3.7,2.2,5.1c0.6,0.5,2.7,1.5,2.9,2.1
		C231.1,115.4,224.3,109.8,225,109.7C224.9,110.2,225,109.7,225,109.7z M327.8,94.7c-0.8,1-1.1,2.4-2.4,2.8
		c-0.4-1.3,0.6-2.3,1.3-3.4c0.2-0.4,1.6-2.7,1.6-3.1c-0.2-1.7,1.9,0.2,1.7,1.4c-0.4,2.5-0.9,5-1.2,7.5c0,0.2-0.6,5.1-1.7,3.3
		C326.3,101.7,329.1,95.4,327.8,94.7C327.6,95,327.9,94.8,327.8,94.7z M267.1,89.7c-0.1,0.2-0.1,0.4-0.2,0.6
		c-0.4-1.1-0.2-2.4-0.8-3.4c-0.6-1.2-1.8-2.1-2.8-3.1c-0.6-0.6-3.3-2.5-2.8-3.4c0.4-0.8,3.5,2.3,3.8,2.6c1.1,1.4,2,2.7,2.7,4.3
		c0.5,1,2.7-1.3,3.3-1.6c1.1-0.6,6.4-2.9,7.4-1.7c-3.3,1.6-8.3,2.4-9.9,6.2C267.6,90,267.3,89.9,267.1,89.7
		C267,89.9,267.4,89.9,267.1,89.7z M235.3,120.9c0.9,0,1.3,0.3,1.2,1.3c-0.1,0.8-2.7,0.7-3.5,1.1c-2.2,1.2-4.8,2.2-6.1,4.5
		c-0.4,0.7-1,1.3-1.8,0.5c-0.5-0.5,2-2.7,2.4-3.1C229.6,123,232.2,121,235.3,120.9C236.4,121,235.3,120.9,235.3,120.9z M287.6,71.3
		c2.9-0.1,5.8-0.4,8.7-0.5c1.3,0,2.5,0,3.8,0.3c1.2,0.2,0.3,1.3-0.5,1.4c-2.6,0.2-5.5,0-8.1,0.1c-1.4,0-2.7,0.1-4.1,0
		C286.4,72.4,286.6,71.2,287.6,71.3C288.1,71.3,287,71.2,287.6,71.3z M225.9,118.5L225.9,118.5C225.6,118.2,225.7,118.6,225.9,118.5
		C225.8,118.4,225.8,118.5,225.9,118.5z M224.4,119.9c0,1.4-0.1,2.7-0.3,4.1c-0.2,1.4-1.6,0.3-1.6-0.5c0.1-1.5,0.6-2.8,0.4-4.4
		c-0.3-2,0.7-1.5,2.5-1.5c1.5,0,3-0.1,4.5-0.4c1.5-0.2,0.9,0.8,0.5,1.3C229.2,120,225.8,118.2,224.4,119.9
		C224.4,120.6,224.4,119.9,224.4,119.9z M241.9,85.5c0.7,2.8-6.5,5-7.4,2.3c-0.6-1.8,2.6-3,3.9-2.4c0.3,0.1,0.4,1.1,0.7,1.1
		C240.3,86.6,240.9,85.8,241.9,85.5C242.1,86.1,241.8,85.6,241.9,85.5z M324.2,100.1c1.4,2-2.1,3.9-3.1,5.6c0.9,0,4.8-1.8,4.7,0
		c0,1.7-2.5,1.2-3.9,1.5C315.9,108.4,322.9,101.8,324.2,100.1C324.4,100.4,323.8,100.5,324.2,100.1z M324.4,143.7
		c-2.2-0.7-0.5-6.7-1-8.6c-0.4-1.3-6.8-1-6.3-1.8c0.1-0.1,3-0.3,3.3-0.3c1.2,0.1,2.8-0.5,3.6,0.7c0.8,1.3,0.5,3,0.5,4.5
		C324.5,140,325.1,142.2,324.4,143.7C323.4,143.4,324.5,143.5,324.4,143.7z M325.9,146.4c0,1-6.6,1.8-7.7,2
		c-1.3,0.2-4.8,0.8-5.8,0.2c-1.6-0.8,1.6-1.2,1.6-1.2c1.5,0,3.1-0.2,4.7-0.3C319.4,147,325.9,145.5,325.9,146.4
		C325.8,146.8,325.9,146,325.9,146.4z M319.6,129.5c-2.1,0.1-3.2,0.3-4.8-0.9c-0.9-0.7,4.3-0.7,4.7-0.7c0.9,0,4.5-1.2,4.4,0.6
		C323.9,129.7,319.6,129.4,319.6,129.5C318.7,129.5,319.6,129.6,319.6,129.5z M234.9,81.2c0.6-0.8,5.8-2.2,5.7-0.6
		C240.3,82.8,235.1,83.3,234.9,81.2C235.1,81,235,82,234.9,81.2z M290.4,82.2c0.6-0.2,5.8-1.8,5.8-1.8c-0.7,0.7-7.5,4.6-7.8,2.7
		C288.3,82.3,290.9,83.4,290.4,82.2C291.3,81.9,290.6,82.7,290.4,82.2z M268.9,122.2c0.5,0.8,2.8,4.4,0.7,4.2
		C268.7,126.3,268.3,122.4,268.9,122.2C269,122.4,268.8,122.2,268.9,122.2z M329.5,183.5c-1-0.8-1.2-5.5-0.4-6.6
		C330,177.9,329.6,182.1,329.5,183.5C329.4,183.4,329.5,182.9,329.5,183.5z M274.9,194c0.2,0.8-2,1.3-2.4,0.7
		C271.4,193.2,274.5,194,274.9,194C275,194.5,274.1,193.9,274.9,194z M252.5,66.5c-0.5,0-3.9,0-3.9-0.4
		C249,66.1,253.2,65.8,252.5,66.5C251.2,66.5,252.5,66.5,252.5,66.5z M231.8,66.6c1.4-0.1,3.6-0.7,4.8,0
		C236.5,67,231.7,67.2,231.8,66.6C233.3,66.5,231.8,66.7,231.8,66.6z M279.2,93.2c1-0.3,2.1-0.5,3.1-0.8c0.1,0.5-1,0.1-0.3,0.8
		C281,93.6,280.1,93.8,279.2,93.2C280.2,93,280.1,93.9,279.2,93.2z M242.4,194.6c0,0.1,0,0.3,0.1,0.4c-0.9-0.1-3.2-0.1-3.1-1.3
		C240.3,194.1,241.4,194.4,242.4,194.6C242.4,194.7,241.3,194.3,242.4,194.6z M223.4,185c-0.1,0.8,1,0.5,1.3,0.9
		c-1,0.8-2.1-0.4-2.8-1C222.5,184.9,223,185,223.4,185C223.4,185.8,222.9,185,223.4,185z M328.3,85.3c-0.2,1.1-0.2,2.3-0.8,3.2
		c-0.1,0-0.2-0.1-0.2-0.1C327.3,87.7,327.7,85.7,328.3,85.3C328.2,86.3,327.8,85.6,328.3,85.3z M325.4,92.5L325.4,92.5L325.4,92.5
		L325.4,92.5C325.5,92.3,325.4,92.5,325.4,92.5L325.4,92.5L325.4,92.5L325.4,92.5 M239.1,66.5c-0.5,0.3-1.9,0.2-2.1-0.1
		C237.7,66.1,238.4,66.5,239.1,66.5z M297.2,192.3C299.9,191.3,297.7,193.6,297.2,192.3C297.5,192.2,297.2,192.4,297.2,192.3z
		 M297.3,78.8c0,0.7-0.4,1-0.9,1.1C296.3,79.4,296.5,78.7,297.3,78.8C297.1,79.2,296.7,78.8,297.3,78.8z M326.8,89.9
		c0.3,0.5,0.1,0.9-0.7,1.4C326.1,90.7,326.4,90.3,326.8,89.9z M289,93.2c-0.4,0.3-0.8,0.6-1.1,0.8C288,93.2,288.2,93.1,289,93.2z
		 M248.9,195.5c0.5-0.2,0.9-0.3,1.4,0.1C249.7,195.9,249.3,195.7,248.9,195.5z M290.7,192.6c-0.4-0.1-0.7-0.1-1.1-0.2
		C289.6,191.8,290.7,192,290.7,192.6C290.3,192.6,290.7,192.1,290.7,192.6z M295,193c-0.4,0.1-0.7,0-0.9-0.3
		C294.5,192.5,295.3,192.1,295,193C294.7,192.9,295.1,192.6,295,193z M244.9,66.1c0.5,0.1,0.8-0.4,1.2,0
		C246,66.2,244.8,66.8,244.9,66.1C245.3,66.2,244.9,66.2,244.9,66.1z M221.1,82.3c-0.5-0.6-0.5-0.4-0.1-0.9
		C221.3,81.7,221.4,81.9,221.1,82.3C220.9,82,221.2,82.1,221.1,82.3z M218.7,117.2c0.1,0.3,0.1,0.6,0.2,1
		C218.4,118.3,218.2,117.3,218.7,117.2C218.8,117.6,218.7,117.3,218.7,117.2z M220.1,92.2c0.3,0.2,0.7,1.2,0,1.2
		C220.1,93,220.1,92.6,220.1,92.2C220.5,92.6,220.1,92.7,220.1,92.2z M325.9,190.5c-0.3,0.3-0.5,0.3-0.9,0.2c0-0.1-0.1-0.2,0-0.2
		C325.2,190.4,325.7,190.3,325.9,190.5C325.7,190.6,325.9,190.5,325.9,190.5z M286.4,192.6c0.1-0.2,0.1-0.4,0.2-0.6
		C287.1,192.3,287,192.9,286.4,192.6C286.5,192.4,286.5,192.7,286.4,192.6z M280.9,193.7c-0.2-1-0.3-1,0.6-0.3
		C281.3,193.5,281.1,193.6,280.9,193.7C280.8,193.4,281.1,193.6,280.9,193.7z M293.3,92.4c-0.3-0.1-0.6-0.2-0.8-0.2
		C292.7,91.6,293.5,91.8,293.3,92.4C293.1,92.3,293.4,92.3,293.3,92.4z M291.9,92.3c-0.4,0.4-0.6,0.5-0.7,0
		C291.6,92,291.8,91.9,291.9,92.3C291.7,92.4,291.9,92.3,291.9,92.3z M264.4,65.7c0.3,0.1,0.5,0.1,0.8,0.2
		C265,66.4,264.2,66.3,264.4,65.7C264.6,65.8,264.4,65.8,264.4,65.7z M265.4,65.7c0.3,0,0.6,0.1,0.9,0.1
		C265.8,66.2,265.7,66.2,265.4,65.7z M263,65.9c0.6-0.3,0.9-0.2,0.9,0.2C263.2,66.3,263,66.2,263,65.9C263.3,65.9,263,65.9,263,65.9
		z M219.2,111.9c0.1,0.6,0,0.8-0.4,0.6C218.7,111.9,218.8,111.7,219.2,111.9C219.1,112.1,219.1,111.8,219.2,111.9z M275.4,194.1
		c0.5-0.3,0.7-0.3,0.7,0.1C275.7,194.5,275.4,194.5,275.4,194.1C275.7,194,275.4,194.2,275.4,194.1z M293.9,92.1
		c-0.3-0.4-0.3-0.6,0.1-0.7C294.3,91.9,294.3,92.1,293.9,92.1C293.9,91.9,294,92.1,293.9,92.1z M295.9,191.3
		c0.4-0.2,0.5-0.1,0.5,0.2C296,191.7,295.8,191.7,295.9,191.3C296,191.3,295.9,191.4,295.9,191.3z M288.2,194.2
		c-0.2,0.3-0.4,0.3-0.6,0C287.8,193.9,288,193.9,288.2,194.2C288,194.3,288,194.1,288.2,194.2z M242.4,66.4c0.3-0.3,0.5-0.2,0.5,0.1
		C242.6,66.7,242.4,66.7,242.4,66.4C242.5,66.3,242.4,66.4,242.4,66.4z M286,194.2c0.2-0.1,0.3-0.1,0.5-0.2
		C286.7,194.3,286.2,194.6,286,194.2C286.2,194.1,286.1,194.2,286,194.2z M296.4,91.6c-0.4,0.2-0.6,0.1-0.6-0.2
		C296.3,91.3,296.5,91.3,296.4,91.6C296.2,91.6,296.4,91.6,296.4,91.6z M219.2,110.8c0.2,0.4,0.1,0.5-0.2,0.5
		C218.8,110.8,218.9,110.7,219.2,110.8C219.2,110.9,219.2,110.8,219.2,110.8z M295.9,192.6c0,0.3-0.2,0.4-0.4,0.3
		C295.6,192.5,295.7,192.4,295.9,192.6C295.9,192.7,295.9,192.5,295.9,192.6z M243.5,195c0.4-0.1,0.5,0,0.5,0.2
		C243.6,195.4,243.4,195.3,243.5,195C243.7,195,243.5,195.1,243.5,195z M293.1,193.8c-0.4,0-0.6-0.2-0.4-0.4
		C293.2,193.4,293.3,193.5,293.1,193.8C292.9,193.7,293.1,193.7,293.1,193.8z M310.6,192.1c-0.3,0.2-0.5,0.1-0.5-0.1
		C310.4,191.8,310.6,191.8,310.6,192.1C310.4,192.2,310.6,192.1,310.6,192.1z M261.9,65.7c0.4,0.1,0.5,0.3,0.2,0.5
		C261.7,66,261.6,65.9,261.9,65.7C262,65.8,261.8,65.7,261.9,65.7z M309.7,168c-0.2,0-0.3-0.1-0.5-0.1
		C309.3,167.6,309.7,167.7,309.7,168C309.5,168,309.7,168,309.7,168z M243.6,66c0.1,0.1,0.3,0.1,0.4,0.2
		C243.8,66.5,243.5,66.4,243.6,66C243.7,66.1,243.5,66.1,243.6,66z M295.3,91.4c-0.2,0.3-0.4,0.3-0.5,0
		C295,91.1,295.2,91.1,295.3,91.4C295.1,91.5,295.2,91.3,295.3,91.4z M283,193.3c-0.1-0.3-0.1-0.4,0.2-0.4
		C283.3,193.3,283.2,193.4,283,193.3C283,193.2,283,193.3,283,193.3z M227.7,186.7c0.3-0.2,0.5-0.2,0.5,0.1
		C227.9,187,227.7,187,227.7,186.7C227.9,186.7,227.7,186.8,227.7,186.7z M278.8,83.7c-0.2,0.2-0.3,0.1-0.4-0.1
		C278.6,83.5,278.7,83.5,278.8,83.7C278.7,83.8,278.7,83.6,278.8,83.7z M285.5,192.8c-0.3,0-0.4-0.1-0.3-0.3
		C285.6,192.5,285.7,192.6,285.5,192.8C285.4,192.8,285.5,192.8,285.5,192.8z M240.4,187.4c0.2,0.2,0.2,0.3-0.1,0.4
		C240.2,187.6,240.3,187.5,240.4,187.4C240.5,187.5,240.4,187.5,240.4,187.4z M283.9,192.4c0.3-0.2,0.4-0.1,0.4,0.1
		C284,192.7,283.8,192.7,283.9,192.4C284,192.4,283.9,192.5,283.9,192.4z M261.1,66.1c-0.3,0-0.4,0-0.3-0.3
		C261.1,65.7,261.2,65.8,261.1,66.1C260.9,66.1,261.1,66,261.1,66.1z M277.6,194.6c0.3-0.1,0.4,0,0.3,0.2
		C277.6,195,277.5,194.9,277.6,194.6C277.7,194.7,277.5,194.7,277.6,194.6z M218.7,119.9c0-0.2,0-0.3-0.1-0.5
		C219,119.3,218.7,119.9,218.7,119.9C218.7,119.7,218.8,119.7,218.7,119.9z M285.4,194.5c-0.1-0.3-0.1-0.4,0.1-0.4
		C285.7,194.4,285.7,194.5,285.4,194.5C285.4,194.4,285.5,194.5,285.4,194.5z M297.6,191.4C297.2,191.6,297.2,191.1,297.6,191.4
		C297.5,191.4,297.5,191.3,297.6,191.4z M221.2,79.4c-0.2-0.1-0.2-0.2,0-0.3C221.3,79.1,221.3,79.2,221.2,79.4
		C221.1,79.3,221.2,79.3,221.2,79.4z M330.5,188.7C330.8,189.1,330.2,189.1,330.5,188.7C330.5,188.8,330.4,188.8,330.5,188.7z
		 M288,83.1C287.7,83.2,287.8,82.8,288,83.1C287.9,83.1,287.9,83,288,83.1z M254.5,195.6C254.3,195,254.8,195.5,254.5,195.6
		C254.5,195.5,254.6,195.6,254.5,195.6z M266,190.2c-0.2,0.1-0.3,0.1-0.4,0C265.7,190,265.9,190,266,190.2
		C265.9,190.3,265.8,190.1,266,190.2z M241.6,66.5C241.3,66.7,241.3,66.2,241.6,66.5C241.6,66.5,241.6,66.4,241.6,66.5z M219.9,95.2
		c-0.3,0.2-0.4,0.2-0.4,0C219.6,95.1,219.8,95.1,219.9,95.2C219.7,95.3,219.7,95.1,219.9,95.2z M248.1,195.3
		C248.2,195.8,247.8,195.3,248.1,195.3C248.1,195.3,248.1,195.3,248.1,195.3z M268.6,65.7C268.9,65.9,268.3,66,268.6,65.7
		C268.6,65.7,268.6,65.7,268.6,65.7z M256.4,195.3C256.1,195.5,256.1,195,256.4,195.3C256.4,195.3,256.4,195.2,256.4,195.3z
		 M229.8,67.3C229.5,67.3,229.8,67.1,229.8,67.3C229.8,67.3,229.8,67.2,229.8,67.3z M235.8,102.4C235.9,102.2,236,102.6,235.8,102.4
		C235.8,102.4,235.8,102.4,235.8,102.4z M276.8,194C276.2,193.9,276.8,193.8,276.8,194C276.7,194,276.8,194,276.8,194z M286.4,91.7
		C286,91.8,286.2,91.4,286.4,91.7C286.3,91.7,286.4,91.6,286.4,91.7z M257,66.2C257.3,66.1,257.4,66.1,257,66.2
		C257,66.2,257,66.2,257,66.2z M248.7,118.8C248.4,118.9,248.3,118.5,248.7,118.8C248.6,118.9,248.5,118.7,248.7,118.8z
		 M284.9,194.5C284.6,194.5,284.8,194.2,284.9,194.5C284.8,194.5,284.9,194.4,284.9,194.5z M259.7,191.9
		C259.4,191.9,259.6,191.6,259.7,191.9C259.7,191.9,259.7,191.8,259.7,191.9z M287.7,193C287.6,193.3,287.5,192.8,287.7,193
		C287.7,193,287.7,193,287.7,193z M312.3,169.2C312.4,169.5,312,169.3,312.3,169.2C312.3,169.3,312.2,169.2,312.3,169.2z
		 M324.7,94.6C324.5,94.7,324.5,94.3,324.7,94.6C324.7,94.6,324.7,94.5,324.7,94.6z M245,195.2C245,195.1,245.2,195.1,245,195.2
		C245,195.2,245.1,195.2,245,195.2z M264,195.6C264.1,195.7,263.8,195.7,264,195.6C264,195.6,263.9,195.6,264,195.6z M218.8,114.6
		C218.7,114.7,218.6,114.4,218.8,114.6C218.8,114.6,218.8,114.5,218.8,114.6z M227.1,186.4C227.1,186.5,226.9,186.3,227.1,186.4
		C227.1,186.4,227.1,186.4,227.1,186.4z M220.8,89.3C220.6,89.4,220.7,89.1,220.8,89.3C220.8,89.3,220.8,89.2,220.8,89.3z
		 M310.2,168.3C310,168.4,310.1,168.2,310.2,168.3C310.1,168.3,310.2,168.3,310.2,168.3z M294,66.2C294.1,66.3,293.8,66.3,294,66.2
		C294,66.2,293.9,66.2,294,66.2z M287.9,192.2C287.8,192.3,287.8,192.2,287.9,192.2C287.9,192.3,287.9,192.2,287.9,192.2z
		 M293.5,91.6C293.4,91.6,293.4,91.5,293.5,91.6C293.5,91.6,293.5,91.6,293.5,91.6z M250.8,195.6
		C250.7,195.7,250.7,195.6,250.8,195.6C250.8,195.6,250.8,195.6,250.8,195.6z M310.8,168.5 M218.9,118.8 M329.2,187.2 M225.4,186.3
		C225.5,186.3,225.5,186.3,225.4,186.3 M219.3,107.2C219.2,107.2,219.2,107.2,219.3,107.2 M287.8,91.1C287.8,91,287.9,91,287.8,91.1
		C287.8,91.1,287.8,91.1,287.8,91.1z M256.9,66.2C256.8,66.2,257,66.2,256.9,66.2C256.9,66.2,256.9,66.2,256.9,66.2z M327,89.4
		 M307.6,69.8L307.6,69.8L307.6,69.8z M307.6,69.7L307.6,69.7L307.6,69.7z M328,83.1C328.1,83.1,328.1,83.2,328,83.1
		C328.1,83.2,328.1,83.1,328,83.1z M222.8,187.3C222.8,187.3,222.8,187.3,222.8,187.3c0.3-0.3,3.8,1,4.9,1.1c0.8,0.1,1.9,0,2.3-0.8
		c0.3-0.7-1-0.5-1-1.1c1.6-0.7,0.5-4.8,0.6-6.3c0.1-0.9,0.2-1.7,0.2-2.5c0.1-1.9,0.1-3.3,0.7-5.1c1.8-5.7,4.4-10.5,8.6-14.9
		c1.9-2,3.1-4.7,5-6.7c2-2.2,4-4.3,5.9-6.6c1.5-1.8,3-3.6,4.2-5.8c0.3-0.6,0.1-2.1,0.9-2.3c1.3-0.4-0.6-1.8-0.1-2.3
		c0.2,0.1,1.1,1.2,1.4,1.2c0.4,0,0.8-1.1,1.2-0.5c0.7,1,1.2,1.9-0.3,1.7c-0.3,2.1-2,4.6-3.3,6.3c-1.5,1.9-2.7,4-4.3,5.9
		c-1.9,2.2-3.7,4.3-5.1,6.7c-0.3,0.2-0.5,0.2-0.8,0c-0.3,0.5-0.5,1-0.7,1.5c-0.3,0.6-2.4,3.1-1.7,3.5c0.5-0.4,2.1-2,2.2-0.3
		c0.1,1.4-2.8,3.8-3.7,4.9c-2.2,2.9-3.9,6.7-4.6,10.3c-0.3,1.8-0.2,3.8-0.3,5.6c-0.1,1.8,0.9,2.8,1.3,4.6c0.7,3.3-3.1,1.8-4.8,0.4
		c-0.8,2.7,0.6,1.5,2.1,2.5c-0.7,1.2-1.5,0.4-2.9,0.5c-1.7,0.2-3.7-0.1-5.4-0.3c-1.9-0.2-7.4-0.6-8-2.9c1-0.5,2.9-1.5,3.9-0.8
		c-0.8,0.4-1.5,0.7-2.3,1.1C219,187.4,222.5,187,222.8,187.3C222.9,187.2,222.8,187.3,222.8,187.3z M271.8,187.4
		c0,0,0.1-0.1-0.1-0.5C271.7,187.1,271.7,187.3,271.8,187.4z M272.2,187.8c-0.2-0.2-0.3-0.2-0.4-0.3
		C271.9,187.6,272,187.7,272.2,187.8z M271.7,186.9L271.7,186.9C271.5,187.3,271.3,186.9,271.7,186.9L271.7,186.9
		c0.1,0.2,0.3,0.3,0.4,0.4c-0.3-0.6-0.9-1.6-1.1-1.9c-0.6-1.5-1.4-2.9-2.2-4.2C268.7,182.2,270.4,186.8,271.7,186.9L271.7,186.9
		L271.7,186.9z M325.4,92.5C325.4,92.5,325.4,92.5,325.4,92.5c0.1-0.2,0.2-0.4,0.2-0.5c0.2,0.6,0.1,1.1-0.4,1.6
		C324.5,92.8,325.4,92.8,325.4,92.5z M224,87.1c-0.7-0.8,2.5-1.5,2.9-1.6c2-0.5-2-3.8-1.2-5.4c1-2,2.5-3,4.3-4.1
		c0.4-0.2,1.6-1.4,1.9-1.4c0.3,0.2,0.7,0.4,1,0.6c0.7,0.1,1.6-0.4,2.3-0.7c1.2-0.5,2.1,0.3,3.2,0.7c1.7,0.8,2.3,0.4,3.9-0.2
		c3.4-1.3,4,3.5,6.2,4.2c2.8,1,5.8-3.4,7,1.1c0.8,3,3.9,4.4,6.2,6.1c2.3,1.7,2.8,5,2.5,7.7c-0.2,1.4-0.8,2.7-1.1,4.1
		c-0.2,0.8,2.1,1.2,2.4,0.7c1.6-2.5,2.6-4.6,5.4-6c1.2-0.6,2.5-1,3.7-1.6c1.1-0.5,2.6-1.1,3.8-1.4c2.4-0.6,4.8-1.8,7.2-2.5
		c2.5-0.7,5.3-0.9,7.9-1.6c2.5-0.7,5-2.2,7-3.7c0.6-0.5,2.5-1.9,2.7-2.6c0.1-0.3,0.4-0.5,0.7-0.6c-0.6-0.4,0.4-1.4,0.6-2
		c0.4,0.9,1.4-2.4,1.7-3.2c0.4-1,0.6-2,1.1-3c0.4-0.8,1.3-0.4,1.4-1.1c0.3-2.2,2.5,0.6,1.8,2.3c-0.5,1.2,1.1,3.5,0.6,5.1
		c-1.1,3.3-2.1,6.7-4.7,9.4c-1.4,1.5-3.2,2.2-4.7,3.5c-0.4,0.3-4.1,1.8-4.9,1.1c1.1-0.4,2.7-0.8,3.7-1.4c1.1-0.7,2-2.6,2.8-3.7
		c0.5-0.7,4.7-6.9,3.8-7.4c-1.3,1.6-2,3.6-3.5,5.2c-1.7,1.9-3.6,2.8-5.9,3.8c-2.1,0.8-3.6,1.8-5.9,2.3c-3,0.7-6,0.5-8.9,1.2
		c-1.3,0.3-4.8,0.9-4.9,2.7c-0.1,1.9-1.2,2.2-2.5,3.6c-0.7,0.8-3.9,3.4-3.4,4.7c0.8,2.2,3.2-1,4-1.4c2.8-1.5,6.8-3.9,10-3.8
		c0,0,11-2.7,12.2-3.1c2.2-0.8,4.6-1.4,6.5-2.8c2-1.4,3.2-3.5,4.7-5.4c1.6-2,3.1-3.9,3.7-6.4c0.3-1.3,0.4-2.4,0.3-3.7
		c-0.1-1.7,0.3-1,1.2-1.5c-0.2-0.8-0.4-1.6-0.5-2.4c3.1,1.5,0.3,7.4-0.6,9.4c-0.4,0.9-4.4,9.3-5.2,8c-0.6,0.4,0.2,0.4,0.1,0.9
		c-0.1,0.5-1,1.7-1.3,2.1c-1,1-2.8,3.1-4.4,2.7c0.4-0.8,5.9-3.6,3.5-3.9c-0.7,2.2-5,3.4-6.9,4.2c1,0.5,1.8-0.6,2.8,0
		c-0.9,1-3.8,1-5.1,1.3c-2.4,0.4-4.9,0.7-7.3,1.1c-3.7,0.6-9.4,1.9-11.6,5.2c-0.5-1.4-1.1-0.5-1.7,0.5c-0.8,1.3-1,1.5,0.3,2.6
		c0.7,0.6,2.5-2.9,3.6-3.1c6.6-1.5-3.4,5.7-0.8,6.2c0.8,0.2,3.4-3.1,4.2-3.7c1.7-1.3,3.1-1.9,5.2-2.5c2.6-0.7,5.1-1.2,7.7-1.8
		c1.8-0.4,3.6-1.6,5.4-1.8c-0.1,0.9-0.4,1-0.8,1.6c0.7-0.2,1.1-0.5,1.8-0.3c-2.9,3.3-8.5,3-12.5,3.6c0.3,1.9-3,1.9-4.4,2.9
		c-0.9,0.7-1.5,1.5-2.2,2.5c-0.4,0.6-1,1.6-1.4,2.4c-1.3,3.1,2.5-1.3,2.9-1.8c0.8-0.8,2.4-0.3,1.3,0.8c-0.6,0.6-1,1.8-1.1,2.3
		c1.5,0.6,0.4,0.2,1.6-0.1c0.5-0.1,0.4,1,0.9,1.2c0.9,0.3,3.8-1.3,4.7-1.8c1.5-0.8,3.5-1.5,4.8-2.5c0.6-0.4,1.1-0.8,1.7-1.2
		c0.5-0.4,1.2,0.5,0.8,0.9c-2.3,2.7-6.4,3.6-8.7,6.3c-0.9,1.1-2.8,2.9-3.3,4.1c-0.2,0.6,1.4,5.2,2,4.9c0.5-0.2,1.2-2.2,1.6-2.7
		c0.6-0.7,1.1-1.5,1.6-2.2c1.5-2,3.5-3.5,5.2-5.2c0.9-0.9,1.9-1.7,2.9-2.5c0.8-0.6,2.1-1,2.7-1.7c0.7-0.8,1.8-1.4,2.6-2
		c0.7-0.5,0.9,0.9,0.3,1.2c-0.6,0.4-2.5,1.7-2.9,2.4c-0.3,0.6-1.3,0.9-1.4,1.4c0,0-0.9,0.9-1.1,1c-1.6,0.7-3.2,2.9-4.3,4.2
		c-1.7,2-2,4-3.2,6.1c1.9,0.9,4.2-4.4,5.5-3.8c1.8,0.8-3.3,5.2-3,6.6c0.1,0.6-0.8,1.6-1.1,2.2c-0.5,1.1-0.8,2.9-1.1,4.1
		c-0.7,3.3,0,6.4,1.1,9.4c1.1,3,1.6,5.9,3.4,8.7c1,1.5,1.8,2.8,3.1,4c0.2,0.2,1.7,2,0.1,1.7c-1.3-0.2-1.3,0.4-2.2-0.9
		c-0.9-1.3-1.8-2.7-2.7-4.1c-0.6-0.9-5-10-5.4-9.9c0.5,4.2,1.3,8.4,3.6,12c0.5-0.9,1.5,2.1,1.9,2.7c1.5,2.2,2.9,4.2,5,5.9
		c0.9,0.7,2.5,1.2,3.5,1.6c0.6,0.3,1.4,0.6,1.9,1c0.9,0.8-0.3,0.8-0.4,1.1c2.1,1.1,4.1,1.9,6.5,2.5c1.1,0.3,1.5,1,2.8,0.7
		c0.5-0.1,2.2-0.8,2.5-0.2c-0.4,0.3-0.7,0.5-1.1,0.8c1.5,0.5,3,0.5,4.6,0.5c1.6,0,2.9-0.8,4.4-0.9c0.4,0,1.1,1,1.4-0.1
		c0.4-1.3,0.3-2.1,0.1-3.4c-3.8,1.1-7.3,0.7-11.1,0c-0.9-0.2-11.4-4.4-9.6-6.2c0.4-0.4,4.1,2.1,4.7,2.3c2.3,1.1,4.4,1.7,7,2
		c2.4,0.3,4.5,1,6.9,0.3c2.6-0.7,2.4-1.4,2.7-4c-1.5,0.4-2.9,1-4.5,1c-1.8,0-3.9-0.6-5.7-0.5c-1.2,0.1-2.7-1.1-3.8-1.5
		c-1.8-0.6-3.3-1.3-5.1-1.8c-1.4-0.3-2.5-2.3-3.5-3.3c-1.1-1.2-2.3-2.3-3.4-3.5c-2.2-2.1-4.2-5.7-4.9-8.5c-1-3.9-0.4-7.7,0.5-11.6
		c0.7-3.3,2.2-5.9,3.5-9.1c1.5-3.8,3.6-7.1,5.7-10.6c0.5-0.8,1.7-3.4,2.6-3.7c1-0.3,1.2-0.7,2-1.7c0.3-0.4,1-1.9,1.6-1.7
		c-0.2,1.1-1.7,2-1.6,3c0.5-0.5,3.8-4,3.3-4.5c-0.2,0.2-1,1.4-1.3,1.3c0.3-1,1-2.4-1.1-1.7c-0.5,0.2-4.3,3.4-3.9,2.3
		c1.1-3.4,5.3-5.1,7.5-8c3-4,5.9-8.7,7.2-13.6c0.5-2.1,0.7-4.2,0.9-6.4c0.1-0.6-0.2-5.1-0.1-5.1c0.4,0,0.6,1.1,0.8,1.3
		c0.9-1-1-4.1-0.7-5.2c0.3-1.1,1.3,0.5,1.4,0.7c0.2,0.9,1.2,0.6,1.6,1.4c0.9,2.1,0.8,4.9,0.7,7.2c0,0.8,0.4,6.5-0.8,5.5
		c-0.8,2.2-5.3,10-3.5,11.5c-1.4,0.1-0.7,0.1-0.9,1c-0.1,0.7-0.5,0.5-0.7,1.2c-0.5,1.8-2.7,3.8-3.8,5.3c-2.7,3.7-5.2,7.9-8.2,11.2
		c-2.9,3.2-7.1,7.9-8.3,12.2c-1.1,4.1-1.6,9-1.1,13.2c0.5,4.7,0.9,8.4,4.4,11.8c3,3,6.6,5.1,10.3,7.2c1.9,1.1,12.6,4.2,13.3,0.9
		c0.5-2,1-4.4,1.1-6.6c0-1-0.5-4,0.8-4.2c-1.6-0.6-0.3-10.9,0-10.9c0.9,7.2,0.2,14.6,0.2,21.9c0.7-0.1,1.2-0.3,1.9-0.2
		c-0.6,1.5-2.3,1.1-2.1,3.2c0.1,0.9-0.1,1.8,0.1,2.7c0.2,0.8-0.6,1.2-0.8,1.9c-0.5,2-0.2,2.7,0.7,4.3c0.3,0.5-1.5,4.4-1.8,5.2
		c-0.4-0.5-0.9-0.9-1.3-1.4c-1.9,2-7.1,1.2-9.5,0.3c-3.8-1.3-7.7-2.5-11.5-3.9c-0.6-0.2-3.3-1.2-2.9,0.7c0.3,1.4,3.6,3,4.7,3.6
		c1.9,1.1,3.8,1.9,5.8,2.7c1,0.3,1.9,0.7,2.9,1.1c3.2,1.1-0.5-0.3,1.1,0.8c0.7-0.8,0.6-0.8,1.7-0.5c-2,0.7,0.1,0.9,0.9,0.9
		c1.4,0,2.6,0.2,4,0.1c0.7,0,2,0,2.6,0.3c1.5,0.5-2.2,1.2-2,1.1c-1.8,1-7,0.1-9.1-0.8c-2.4-1-5.2-1.6-7.7-2.5
		c-0.9-0.4-0.3-1.5-1-1.7c-1.6-0.6-2.9-1.1-4.4-2c-2.6-1.7-5.1-4.2-7.9-5.5c-1.2-0.6-1.6-1.8-2.5-2.7c-0.8-0.9,0.4-2.6,1.4-1.3
		c1.5,1.8,4.6,4.5,6.9,2c-0.6-0.5-0.5,0.6,0,0c-1-0.8-0.8-1.9-1.8-2.8c-1.1-0.9-3.3-2-4.1-3.1c-2.2-3.1-3.7-6.2-4.6-10
		c-1-3.9-1.9-8.2-2.3-12.2c-0.4-3.5-0.6-7.5-1.9-10.8c-0.5-1.3-1.4-1-1.7-2.5c-0.5-2-1-4-1.8-5.9c-0.6-1.3-1.5-2.1-2.4-3.2
		c-0.9-1.1-0.9-2.2-1.9-3.2c-1.2-1.3-3.3-6.4-5.5-6c0.4-0.1-2-2.5-2.2-2.7c-1.4-1.2-3-1.7-4.6-2.6c0-0.3,0.2-0.4,0.6-0.4
		c-0.5-0.5-0.8,0-1.3,0.2c0.1,0-1.7-1.4-1.7-1.3c-0.8-0.4-5.2-0.7-5.4-1.9c-0.1-0.8-1-0.8-1.4-1.1c-0.5-0.4-0.1-1.7,0.5-1.3
		c1.2,0.8,3.4,1.7,2.5-0.8c0.2-0.2,0.5-0.1,0.8,0.2c0.1-0.9,0.2-1-0.4-1.5c-0.3-0.2,0.3-1.3,0.3-1.6c-0.1-0.8-0.5-1.3-0.9-1.9
		c0.8-0.4-0.3-1.5-0.5-1.8c-1.2-1.7-2.4-2.6-4.2-3.7c-1.3-0.9-2-2.7-2.5-4.1c-0.8-2-0.4-1-2.3-0.8c-1.8,0.2-1.4,1.5-2.4,2.5
		c-1.1,1-4.1,0.6-5-0.5c-1.8-2.2,3.3-1.2,3.5-2.2c0.1-0.4-2-2.7-2.3-3.1c-0.5,0.3,0.4,0.7-0.1,1c-1.2-2-1.8-2-4-0.8
		c-2.1,1.2-2.7-0.9-4.9-1c-0.7-0.1-1.4,0-2.1,0.2c-1.3,0.3-1.9-0.1-3.1-0.1c-1.9,0-2.7,2.6-2.6,4.1c1,0,1.1,0.3,1.9,1.4
		c1.5,2-0.7,2.3-1.2,3.8c-0.5,1.3-2,0.6-2.9,1.4c-1.2,1.1,0.2,4.2,2.1,3.5c1.3-0.4,3.7,1.4,4.5,2.2c1.5,1.6,1.7,3.3,2.4,5.2
		c0.4,1,0.6,2,0.8,3.1c0.2,1-1.1,0.5-1.4,0c-0.8-1.4-0.6-3.7-1.8-4.8c-2.4,4.3,0.3,9.8,4.1,12.1c3.1,1.8,9.8,3.5,12.9,0.5
		c-0.5-0.3-1.7-0.1-1.6-0.8c0.5,0,1.7,0.5,2.1,0.2c0.5-0.5-1-2.8-1.1-3.4c-0.7-2.5,1.7-1.4,2.5-0.2c1.3,1.8,2.3,3.4,2.2,5.6
		c0,2.3,0.6,4.7,0.6,7c0.1,3.1-0.3,6-0.6,9.1c-0.2,2.2-1.2,4-1.7,6.1c-0.2,0.9-0.6,1.8-0.9,2.6c-0.2,0.7-0.6,1.2-1.4,1.3
		c0.1,0.3,0.2,0.5,0.2,0.8c-0.4,1.8-2.3,3.3-3.1,4.9c-0.8,1.6-2.2,3.5-3.3,4.8c-1.2,1.5-2.3,3.3-3.5,4.9c-1.2,1.5-2,3.4-3.3,4.6
		c-1.1,1-3.7,2.6-3.3,4.3c0.1,0.3-1.2,0.8-1.3,1.2c-0.4,1.1-0.9,1.2-1.5,2.1c-0.4,0.6-0.8,1.7-1.3,2.4c-0.7,1-1,2.2-1.4,3.4
		c-0.9,2.9-1.2,6-1.2,9c0,1.5,0.9,6.3-1.6,5.3c0.1,0.4,0.1,0.8-0.1,1.2c-0.8-0.5-0.8-1.9-1.6-1.4c-0.5-4.6,0.1-9.8,2-14.1
		c1.5-3.6,2.4-8.2,4.9-11.4c1-1.4,2-3,3.3-4.2c0.6-0.5,2.5-2.6,2.7-3.3c0.4-1.1,2.8-3.7,3.7-4.4c0.3-0.7,1.2-1.7,1.3-2.3
		c0-0.8,2.6-1.3,1.4-2.2c-4.6,2.8-9.3,5.6-12.9,9.7c-0.7,0.8-1.4,1.8-2.1,2.6c-0.9,1-0.8-1.4-0.4-1.9c1.3-1.8,2.7-3.4,4.1-5.1
		c0.8-0.9,1.7-1.5,2.6-2.4c1.5-1.5,0.4-1-0.7-1.7c-2.5-1.6,3.3-4.2,4-4.6c2.3-1.5,4.8-2.8,7.2-4.3c1.7-1.1,7-5.4,4.9-7.5
		c-5.2,5.2-11.7,9.3-18.6,11.7c-4.4,1.5-7.8,3.8-10.4,7.8c-0.9,1.4-1.4,1.4-1.4,3.3c0,0.6-0.5,4.4,0.8,3.3c0.6-0.4,1.4-2.2,1.8-2.9
		c0.7-1.1,2-2.3,3-3.2c1-0.9,2.2-1.9,3.3-2.7c0.5-0.3,1.1-1.2,1.7-1.3c1.3-0.3-0.1,2.3-0.3,2.5c-3,3-6.6,6.7-8.2,10.7
		c-0.6,1.5-2,3.5-1.6,5.2c0.2,0.7-0.1,4.2-0.8,4.4c0.8,0.5-0.1,1.3-0.4,1.8c0.7,0.3,3.7-5.5,4-6.5c0.2-1,0.8-1.8,2-1.2
		c1.2,0.6-0.5,3-0.8,3.9c-2.4,6.4-3.6,13-2.2,19.7c-2.1,0.1-0.6-8-2.4-7.5c0,1.1,0.4,2.7-0.5,3.5c-0.4-0.8-0.3-2.3-0.2-3.1
		c0-0.9-0.4-1.6-0.5-2.7c-0.2-2.6-0.3-5.3-0.1-7.9c0.3-4.7,0.5-9.4,0.7-14.2c0.2-4.4,0.2-9,0.2-13.5c0-2.9,0.2-6,0-8.9
		c-0.1-1.3-0.6-6,0.5-6.7c0.5,3.9,0,8,0.1,12c0,1.5-1,10.9,0.1,11.3c0.7-1.1,1.1-2,2-3c1.3-1.5,3.2-2.4,4.5-3.9
		c-2.2,0.5-4.2,1.5-6,2.8c-1-1.5,10.1-4.9,11.2-5.3c3.9-1.4,7.1-3.6,10.6-5.7c3.4-2,6.3-6.9,7.8-10.4c0.8-1.9,1.5-3.9,1.3-5.9
		c-0.1-1.5,1.1-3.7-1.3-2.4c-7,3.6-18-0.8-20.1-8.3c-0.4-1.4-0.7-3.3-0.7-4.8c0-2.3,0.9-3.1-0.1-5.3c-0.8-1.5-2.5-0.4-3.5-0.5
		c-1.4-0.2-2.7-6.1-1.3-6.1L224,87.1z"/>
</g>
</svg>
