<?xml version="1.0" encoding="utf-8"?>
<!-- Generator: Adobe Illustrator 22.0.1, SVG Export Plug-In . SVG Version: 6.00 Build 0)  -->
<svg version="1.1" id="Capa_1" xmlns="http://www.w3.org/2000/svg" xmlns:xlink="http://www.w3.org/1999/xlink" x="0px" y="0px"
	 viewBox="0 0 165.9 162.3" style="enable-background:new 0 0 165.9 162.3;" xml:space="preserve">
<style type="text/css">
	.st0{clip-path:url(#SVGID_2_);fill:url(#SVGID_3_);}
</style>
<g>
	<g>
		<g>
			<defs>
				<path id="SVGID_1_" d="M54.6,84L54.6,84L54.6,84L54.6,84L54.6,84L54.6,84L54.6,84L54.6,84L54.6,84L54.6,84L54.6,84L54.6,84
					L54.6,84L54.6,84L54.6,84L54.6,84L54.6,84L54.6,84L54.6,84L54.6,84L54.6,84L54.6,84L54.6,84L54.6,84L54.6,84L54.6,84L54.6,84
					L54.6,84L54.6,84L54.6,84L54.6,84L54.6,84L54.6,84L54.6,84L54.6,84L54.6,84L54.6,84L54.6,84L54.6,84L54.6,84L54.6,84L54.6,84
					L54.6,84L54.6,84L54.6,84L54.6,84L54.6,84L54.6,84L54.6,84L54.6,84L54.6,84L54.6,84L54.6,84L54.6,84L54.6,84L54.6,84L54.6,84
					L54.6,84L54.6,84L54.6,84L54.6,84L54.6,84L54.6,84L54.6,84L54.6,84L54.6,84L54.6,84L54.6,84L54.6,84L54.6,84L54.6,84L54.6,84
					L54.6,84L54.6,84L54.6,84L54.6,84L54.6,84L54.6,84L54.6,84L54.6,84L54.6,84L54.6,84L54.6,84L54.6,84L54.6,84L54.6,84L54.6,84
					L54.6,84L54.6,84L54.6,84L54.6,84L54.6,84L54.6,84L54.6,84L54.6,84L54.6,84L54.6,84L54.6,84L54.6,84L54.6,84z M112.2,90.4
					L112.2,90.4C112.1,90.3,112.1,90.5,112.2,90.4L112.2,90.4z M66.5,31.2L66.5,31.2C66.4,31,66.4,31.2,66.5,31.2
					C66.5,31.1,66.5,31.2,66.5,31.2z M75,43.2L75,43.2C75,43,74.8,43.3,75,43.2C75,43.1,75,43.2,75,43.2z M34.3,95.2L34.3,95.2
					C34.1,95.3,34.4,95.2,34.3,95.2L34.3,95.2z M123,31L123,31C123.1,30.8,122.8,30.9,123,31C123.1,30.9,123,30.9,123,31z
					 M146.6,23.4L146.6,23.4L146.6,23.4L146.6,23.4L146.6,23.4L146.6,23.4L146.6,23.4L146.6,23.4L146.6,23.4L146.6,23.4L146.6,23.4
					L146.6,23.4L146.6,23.4L146.6,23.4L146.6,23.4L146.6,23.4L146.6,23.4L146.6,23.4L146.6,23.4L146.6,23.4L146.6,23.4L146.6,23.4
					L146.6,23.4L146.6,23.4L146.6,23.4L146.6,23.4L146.6,23.4L146.6,23.4L146.6,23.4L146.6,23.4L146.6,23.4L146.6,23.4L146.6,23.4
					L146.6,23.4L146.6,23.4L146.6,23.4L146.6,23.4L146.6,23.4L146.6,23.4L146.6,23.4L146.6,23.4L146.6,23.4L146.6,23.4L146.6,23.4
					L146.6,23.4L146.6,23.4L146.6,23.4L146.6,23.4L146.6,23.4L146.6,23.4L146.6,23.4L146.6,23.4L146.6,23.4L146.6,23.4L146.6,23.4
					L146.6,23.4L146.6,23.4L146.6,23.4L146.6,23.4L146.6,23.4L146.6,23.4L146.6,23.4L146.6,23.4L146.6,23.4L146.6,23.4L146.6,23.4
					L146.6,23.4L146.6,23.4L146.6,23.4L146.6,23.4L146.6,23.4L146.6,23.4L146.6,23.4L146.6,23.4L146.6,23.4L146.6,23.4L146.6,23.4
					L146.6,23.4L146.6,23.4L146.6,23.4L146.6,23.4L146.6,23.4L146.6,23.4L146.6,23.4L146.6,23.4L146.6,23.4L146.6,23.4L146.6,23.4
					L146.6,23.4L146.6,23.4L146.6,23.4L146.6,23.4L146.6,23.4L146.6,23.4L146.6,23.4L146.6,23.4L146.6,23.4L146.6,23.4L146.6,23.4
					L146.6,23.4z M35.1,15L35.1,15C34.9,15.1,35.2,15.2,35.1,15C35.1,15,35.1,15,35.1,15z M14.7,119.8L14.7,119.8
					C14.4,119.9,14.8,120.1,14.7,119.8C14.6,119.8,14.7,119.8,14.7,119.8z M149.4,123L149.4,123L149.4,123L149.4,123L149.4,123
					L149.4,123L149.4,123L149.4,123L149.4,123L149.4,123L149.4,123L149.4,123L149.4,123L149.4,123L149.4,123L149.4,123L149.4,123
					L149.4,123L149.4,123L149.4,123L149.4,123L149.4,123L149.4,123L149.4,123L149.4,123L149.4,123L149.4,123L149.4,123L149.4,123
					L149.4,123L149.4,123L149.4,123L149.4,123L149.4,123L149.4,123L149.4,123L149.4,123L149.4,123L149.4,123L149.4,123L149.4,123
					L149.4,123L149.4,123L149.4,123L149.4,123L149.4,123L149.4,123L149.4,123L149.4,123L149.4,123L149.4,123L149.4,123L149.4,123
					L149.4,123L149.4,123L149.4,123L149.4,123L149.4,123L149.4,123L149.4,123L149.4,123L149.4,123L149.4,123L149.4,123L149.4,123
					L149.4,123L149.4,123L149.4,123L149.4,123L149.4,123L149.4,123L149.4,123L149.4,123L149.4,123L149.4,123L149.4,123L149.4,123
					L149.4,123L149.4,123L149.4,123L149.4,123L149.4,123L149.4,123L149.4,123L149.4,123L149.4,123L149.4,123L149.4,123L149.4,123
					L149.4,123L149.4,123L149.4,123L149.4,123L149.4,123L149.4,123L149.4,123L149.4,123L149.4,123L149.4,123L149.4,123L149.4,123
					L149.4,123L149.4,123L149.4,123L149.4,123L149.4,123L149.4,123L149.4,123L149.4,123L149.4,123L149.4,123L149.4,123L149.4,123
					L149.4,123L149.4,123L149.4,123L149.4,123L149.4,123L149.4,123L149.4,123L149.4,123L149.4,123L149.4,123L149.4,123L149.4,123
					L149.4,123L149.4,123L149.4,123L149.4,123L149.4,123L149.4,123L149.4,123L149.4,123z M130.5,48.2L130.5,48.2
					C130.3,47.9,130.2,48.3,130.5,48.2C130.5,48.1,130.5,48.2,130.5,48.2z M46.3,87.1L46.3,87.1C46.5,87.3,46.7,86.9,46.3,87.1
					C46.3,87.1,46.3,87,46.3,87.1z M124.4,13.9L124.4,13.9C124,13.8,123.9,14.1,124.4,13.9C124.3,13.9,124.2,14,124.4,13.9z
					 M124.9,56.9L124.9,56.9C124.5,56.6,124.5,57,124.9,56.9C124.7,56.8,124.8,56.9,124.9,56.9z M76.9,39.5L76.9,39.5
					C76.7,39.2,76.6,39.7,76.9,39.5C76.9,39.4,76.9,39.5,76.9,39.5z M113.5,82.7L113.5,82.7C113.8,82.4,113.3,82.4,113.5,82.7
					C113.6,82.6,113.4,82.6,113.5,82.7z M93.9,31.6L93.9,31.6C94.2,31.3,93.6,31.2,93.9,31.6C94,31.5,93.9,31.5,93.9,31.6z
					 M67.8,35.2L67.8,35.2c0.2-0.1,0.2-0.2,0-0.4C67.6,34.9,67.6,35,67.8,35.2C67.9,35.1,67.8,35,67.8,35.2z M98.7,62.5L98.7,62.5
					C99,62.1,98.3,62.2,98.7,62.5C98.7,62.4,98.6,62.4,98.7,62.5z M22.9,143.1L22.9,143.1c0.3,0.1,0.4-0.1,0.2-0.5
					C22.8,142.6,22.8,142.7,22.9,143.1C23,143.1,22.9,142.9,22.9,143.1z M22.5,101.4L22.5,101.4C22.2,102,22.9,101.8,22.5,101.4
					C22.4,101.5,22.6,101.5,22.5,101.4z M100.1,49.6L100.1,49.6C100.7,49.9,100.4,49.2,100.1,49.6C100.3,49.6,100.2,49.5,100.1,49.6
					z M53.4,86.5L53.4,86.5c-0.4,0-0.2,0.3,0,0.4C53.6,86.9,53.6,86.7,53.4,86.5C53.4,86.5,53.4,86.6,53.4,86.5z M113.6,83.7
					L113.6,83.7c-0.4-0.2-0.6,0.3-0.3,0.4C113.4,84,113.5,83.9,113.6,83.7C113.5,83.7,113.5,83.9,113.6,83.7z M112.5,46L112.5,46
					c0.1,0.3,0.3,0.3,0.6-0.1C112.9,45.6,112.7,45.7,112.5,46C112.5,46.1,112.6,45.9,112.5,46z M67.1,32.5L67.1,32.5
					c-0.4,0.1-0.4,0.3,0.1,0.7C67.6,33.1,67.5,32.9,67.1,32.5C67,32.5,67.2,32.7,67.1,32.5z M149.4,113.7L149.4,113.7
					c0.1-0.3,0-0.4-0.4-0.3C148.8,113.7,148.9,113.8,149.4,113.7C149.4,113.6,149.2,113.7,149.4,113.7z M128.5,114.2L128.5,114.2
					c0.3-0.4,0-0.5-0.7-0.6C127.5,114,127.8,114.2,128.5,114.2C128.5,114.1,128.2,114.1,128.5,114.2z M122.6,22.9L122.6,22.9
					c-0.2-0.4-0.4-0.3-0.8,0.2C122,23.5,122.2,23.4,122.6,22.9C122.6,22.9,122.4,23.1,122.6,22.9z M144,133.6L144,133.6
					c-0.1-0.4-0.4-0.4-0.8,0.1C143.4,134.1,143.7,134.1,144,133.6C144,133.6,143.8,133.8,144,133.6z M100.1,30.9L100.1,30.9
					c0,0.4,0.3,0.4,0.8,0.1C101,30.6,100.7,30.5,100.1,30.9C100.1,30.9,100.4,30.9,100.1,30.9z M85.3,35.6L85.3,35.6
					c-0.3-0.4-0.5-0.4-0.7-0.1C84.8,35.9,85,36,85.3,35.6C85.1,35.5,85.1,35.7,85.3,35.6z M112,46.7L112,46.7
					c0.1-0.4-0.1-0.5-0.6-0.3C111.3,46.7,111.5,46.8,112,46.7C112,46.6,111.8,46.6,112,46.7z M95.2,66.2L95.2,66.2
					c-0.4,0.1-0.4,0.4,0,0.8C95.6,66.8,95.6,66.6,95.2,66.2C95.1,66.2,95.3,66.4,95.2,66.2z M105.8,94.9L105.8,94.9
					c-0.3,0.6-0.3,0.8,0.3,0.9C106,95.5,106,95.2,105.8,94.9z M95.9,67L95.9,67c-0.5,0.4-0.4,0.8,0.3,1.2
					C96.5,67.9,96.4,67.5,95.9,67C95.6,67.3,96.1,67.4,95.9,67z M123.8,59.9L123.8,59.9c0.3-0.5,0.7-1,1.1-1.6
					C124.2,58.5,123.7,59.1,123.8,59.9z M17.3,109.4L17.3,109.4c-0.4-1-1.1,0.5-1.2,0.8C16.6,110.6,16.9,110.4,17.3,109.4
					C17.2,109.3,16.9,109.7,17.3,109.4z M76.2,39.2L76.2,39.2c-0.6-0.6-1.6,0.5-1.1,0.9C75.6,40.3,76,40,76.2,39.2
					C76.1,39.1,75.9,39.5,76.2,39.2z M124.6,18L124.6,18c-0.6-0.3-1.3,2-1,2.5C124.2,19.9,124.3,18.8,124.6,18
					C124.5,17.9,124.5,18.4,124.6,18z M16,111.7L16,111.7C14.3,115.1,17.3,113,16,111.7C15.7,112.2,16.4,112.2,16,111.7z
					 M121.2,24.8L121.2,24.8c-0.1-0.1-2.4,2.9-2.8,3.2C119.2,28.7,120.9,25.4,121.2,24.8C121.1,24.7,120.6,26.2,121.2,24.8z
					 M98.9,73.9L98.9,73.9c0-1.3-1.3-2-0.9-3.3C97,71.2,97.7,73.1,98.9,73.9C98.9,73.3,97.8,73.2,98.9,73.9z M22.9,141.4L22.9,141.4
					c0.7-0.1,0.7-4.1,0.4-4.7C22.6,136.7,22.8,140.7,22.9,141.4C23,141.4,22.9,140.9,22.9,141.4z M84.7,46.5L84.7,46.5
					c-0.6-0.6-2.9,1.6-2.3,2.8C83.3,48.5,84,47.5,84.7,46.5C84.7,46.4,84.6,46.6,84.7,46.5z M16,129.8L16,129.8
					c-0.9,0.6-1.7,0.4-0.8,1.4c-0.7-0.1-0.8,0.3-0.4,1C16.4,132.6,16.2,130.6,16,129.8C15.6,130.1,16.1,130.3,16,129.8z M132.5,47
					L132.5,47c-0.1-1,1.1-2.2,1.6-3c-0.5-0.3-3,2.9-3.5,3.5C131.5,48.2,131.6,47.5,132.5,47C132.4,46.3,132.3,47.1,132.5,47z
					 M76.2,38.4L76.2,38.4c2.3,1.4,5.8-1,8.2-2.3c-1-0.8-3.4,0.4-4.4,1C78.5,37.8,77.9,38.1,76.2,38.4
					C76.8,38.7,76.6,38.3,76.2,38.4z M82.8,39L82.8,39c-1.6-0.8-4.6,2.2-6,2.9c-0.5,0.3-3.1,3.5-2,3.2c1.5-0.3,2.4-2.1,3.4-3.2
					C79.7,40.4,81.4,40.2,82.8,39C82,38.6,82.2,39.5,82.8,39z M113.6,97.9L113.6,97.9c1,0.1-0.1-5.4-0.1-6.3c0-1.2,0.4-6.1-0.6-6.9
					c-0.7,1.6-0.8,3.4-0.8,5.1c0.3,0.1,0.5-0.1,0.6-0.6C112.7,92.2,112.4,95.2,113.6,97.9C113.7,98,112.4,95.2,113.6,97.9z
					 M52.2,151.4L52.2,151.4C52.3,151.4,52.2,151.3,52.2,151.4L52.2,151.4z M63.1,108.4L63.1,108.4L63.1,108.4L63.1,108.4
					L63.1,108.4L63.1,108.4L63.1,108.4L63.1,108.4L63.1,108.4L63.1,108.4L63.1,108.4L63.1,108.4L63.1,108.4L63.1,108.4L63.1,108.4
					L63.1,108.4L63.1,108.4L63.1,108.4L63.1,108.4L63.1,108.4L63.1,108.4L63.1,108.4L63.1,108.4L63.1,108.4L63.1,108.4L63.1,108.4
					L63.1,108.4L63.1,108.4L63.1,108.4L63.1,108.4L63.1,108.4L63.1,108.4L63.1,108.4L63.1,108.4L63.1,108.4L63.1,108.4L63.1,108.4
					L63.1,108.4L63.1,108.4L63.1,108.4L63.1,108.4L63.1,108.4L63.1,108.4L63.1,108.4L63.1,108.4L63.1,108.4L63.1,108.4L63.1,108.4
					L63.1,108.4L63.1,108.4L63.1,108.4L63.1,108.4L63.1,108.4L63.1,108.4L63.1,108.4L63.1,108.4L63.1,108.4L63.1,108.4L63.1,108.4
					L63.1,108.4L63.1,108.4L63.1,108.4L63.1,108.4L63.1,108.4L63.1,108.4L63.1,108.4L63.1,108.4L63.1,108.4L63.1,108.4L63.1,108.4
					L63.1,108.4L63.1,108.4L63.1,108.4L63.1,108.4L63.1,108.4L63.1,108.4L63.1,108.4L63.1,108.4L63.1,108.4L63.1,108.4L63.1,108.4
					L63.1,108.4z M66.5,144.5L66.5,144.5c-0.4,0.1-0.4,0.3,0,0.6C66.8,145,66.8,144.8,66.5,144.5C66.5,144.5,66.6,144.7,66.5,144.5z
					 M55.6,149.9L55.6,149.9c1.5,0.7,1.2-0.2,0.3-1.3C55.5,148.8,55.3,149.2,55.6,149.9C55.8,150,55.6,149.4,55.6,149.9z M65.1,128
					L65.1,128c-0.8-0.1-1,2.9-0.7,3.4C65.3,130.7,65,129.1,65.1,128C65,128,65.1,128.3,65.1,128z M55.3,151.2L55.3,151.2
					c-0.4-1.1-1.5-1-2.4-0.8c-0.4,0.1-0.3,1.7,0.7,0.3C53.9,151.4,54.5,151.6,55.3,151.2C55.1,150.6,54.9,151.2,55.3,151.2z
					 M64.6,137.7L64.6,137.7c-0.9,0,1.2,5.8,1.4,6.3C66.6,143.9,64.9,138.5,64.6,137.7C64.6,137.7,65.2,139.8,64.6,137.7z
					 M67.4,136.9L67.4,136.9c-0.4,2.3,3.7,11.3,5.5,12.2C71,144.9,69.3,140.9,67.4,136.9z M61,151.6c0.6-1.6,6.4-0.3,7.7-0.2
					c0.6-1-3.8-6-3.9-7.2c-0.2-1.3-1-2.6-1.4-3.9c-0.4-1.7-0.5-3.6-0.6-5.4c-0.3-3.1-0.1-6,1.1-8.9c0.3-0.8,1.4-3.7,2.3-3.9
					c0.9-0.1,2,1,1.8,1.8c-1.9,6.7-0.1,12.4,2.9,18.4c1.4,2.8,2.6,5.6,4.4,8.1c0.2,0.3,0.3,2,0.4,2c0.9,0.3,2,1.1,2.9,1.5
					c-2.5,2.1-6.1-3.9-8-2.5c-1.3,1-3.2,0.2-4.8,0.2c-2,0-4.3-0.1-6.3,0.2c0.6,0.6,0.6,1.3,0.1,1.8c-2.1-2.2-3.9-1.9-6.8-2
					c-0.8,0-1.6,0.1-2.4-0.2c-0.1-1-1.4-1.4-0.7-0.1c-0.8,0-3.9-0.4-3.7,0.4c0.3,1.6-2-0.6-2.5-0.6c-2.1,0.1-10,1-10.3-1.5
					c3.2,0.6,6.8,0.8,10.5,0.5c-0.3-1.2-0.8-0.9-1.8-0.8c0-0.4,0.2-0.7,0.7-0.9c0.1-0.4-1.1-2.2-1.3-2.7c-0.8-2-1.2-4.1-1.3-6.1
					c-0.3-4.1-0.3-6.9,0.8-11c0.1-0.6,0.3-1.2,0.5-1.8c0.6-0.8,1.6,0.4,1.5,1c-0.3,1.3-1,3.2-0.8,4.5c0.1,1,0.5,8.7,1.5,8.8
					c0.1-0.6,0.5-3.8,1.5-3.2c1.5,1,1,4.4,1.2,5.7c0.4,1.9,0.8,3.5,1.8,5.2c0.9,1.4,3.8-0.3,3.5,1.5c0.1,0,2.7-0.6,3.1-0.6
					c-1-2.3-2.9-4.1-3.7-6.5c-0.8-2.3-2-4.6-2.7-6.8c-1.6-4.9,1-9.4,2.9-13.7c1-2.2,2.4-4.4,3.8-6.3c0.8-1,1.3-2.1,2-3.2
					c0.4-0.8,1.1-0.1,1.6-0.8c1.4-1.6,3-3,4.4-4.7c1.5-1.8,2.3-1.2,3.5-2.5c1-1.1-0.2,3-0.6,3.5c-1.3,1.8-2.8,3.7-4,5.6
					c-2.3,3.9-5.6,7.7-7,12c-1.5,4.5-2.7,10.6-0.6,15c1.2,2.5,2.3,4.9,3.5,7.4C58.5,150.8,60.7,150.1,61,151.6
					C61.5,150.3,60.8,150.6,61,151.6z M68.1,79.2L68.1,79.2C68.1,79.1,67.9,79.4,68.1,79.2C68.1,79.2,68.1,79.3,68.1,79.2z M62,98.5
					L62,98.5c0.7,0.3,1.3-1.2,0.6-1.6C62.4,97.5,62.2,98,62,98.5C62.1,98.6,62.2,98,62,98.5z M63.2,92.4c1.5-3.8,3.9-11.3,2.2-15.2
					c-1.1,0.8-0.8,3.4-2.2,3.6c-0.7,0.1-1.5,2.6-2.1,1.3c-1-2.2,0.3-4.3,0.8-6.4c0.3-1.1,1.6-4.8,1.1-5.8c-0.8-1.5,0.1-4.2,0.3-5.7
					c0.1-1.7-0.7-4.3-1.5-5.8c-0.6-1-0.8-2.5-1-3.7c-0.5-3.5,2.2-0.3,2.9,0.8c1.8,3,4.4,4.8,6.3,7.7c1,1.6,3,4,2.3,6
					c-0.2,0.5,0.4,1.6,0.4,2.3c0,1-0.3,1.9-0.2,2.9c1,7.6-2.7,16-6.6,22.4c-1.6,2.7-2.9,5.6-4.2,8.3c-1.1,2.3-1.3-0.3-2,1.2
					c-0.5,1-1.8,3-2.5,3.7c-1.1,1.1-2.4,1.9-3.5,3.2c-1.1,1.3-1.5,2.7-2.4,4.1c-0.6,1-4.3,9.5-5.1,9.1c-0.9-0.5-0.8-3.1-0.6-3.9
					c0.4-2.2,1.3-4.1,2.4-6c1.8-3.3,4-5.8,6.1-8.7c1.1-1.5,2.5-3.2,3.2-4.8c0.5-1.1,2-1.9,2.3-3.1c0.3-1,1.1-2.1,1.7-3.1
					c0.5-1,0.9-1.9,1.4-2.9c0.2-0.4-0.2-1.3-0.1-1.5C62.8,92.4,63,92.4,63.2,92.4C63.5,91.8,63.1,92.5,63.2,92.4z M33.7,147
					L33.7,147C33.6,146.9,33.6,147.1,33.7,147L33.7,147z M41.1,117.7L41.1,117.7L41.1,117.7L41.1,117.7L41.1,117.7L41.1,117.7
					L41.1,117.7L41.1,117.7L41.1,117.7L41.1,117.7L41.1,117.7L41.1,117.7L41.1,117.7L41.1,117.7L41.1,117.7L41.1,117.7L41.1,117.7
					L41.1,117.7L41.1,117.7L41.1,117.7L41.1,117.7L41.1,117.7L41.1,117.7L41.1,117.7L41.1,117.7L41.1,117.7L41.1,117.7L41.1,117.7
					L41.1,117.7L41.1,117.7L41.1,117.7L41.1,117.7L41.1,117.7L41.1,117.7L41.1,117.7L41.1,117.7L41.1,117.7L41.1,117.7L41.1,117.7
					L41.1,117.7L41.1,117.7L41.1,117.7L41.1,117.7L41.1,117.7L41.1,117.7L41.1,117.7L41.1,117.7L41.1,117.7L41.1,117.7L41.1,117.7
					L41.1,117.7L41.1,117.7L41.1,117.7L41.1,117.7L41.1,117.7L41.1,117.7L41.1,117.7L41.1,117.7L41.1,117.7L41.1,117.7L41.1,117.7
					L41.1,117.7L41.1,117.7L41.1,117.7L41.1,117.7L41.1,117.7L41.1,117.7L41.1,117.7L41.1,117.7L41.1,117.7L41.1,117.7L41.1,117.7
					L41.1,117.7L41.1,117.7L41.1,117.7L41.1,117.7L41.1,117.7L41.1,117.7L41.1,117.7L41.1,117.7L41.1,117.7L41.1,117.7L41.1,117.7
					L41.1,117.7L41.1,117.7L41.1,117.7L41.1,117.7L41.1,117.7L41.1,117.7L41.1,117.7L41.1,117.7L41.1,117.7L41.1,117.7L41.1,117.7
					L41.1,117.7L41.1,117.7L41.1,117.7L41.1,117.7L41.1,117.7z M30.4,145L30.4,145c-0.3-0.1-0.2,0.3-0.2,0.4
					C30.4,145.4,30.5,145.2,30.4,145C30.4,144.9,30.4,145.1,30.4,145z M20.1,148.8L20.1,148.8L20.1,148.8L20.1,148.8 M124.8,153.1
					L124.8,153.1L124.8,153.1L124.8,153.1L124.8,153.1L124.8,153.1L124.8,153.1L124.8,153.1L124.8,153.1L124.8,153.1L124.8,153.1
					L124.8,153.1L124.8,153.1L124.8,153.1L124.8,153.1L124.8,153.1L124.8,153.1L124.8,153.1L124.8,153.1L124.8,153.1L124.8,153.1
					L124.8,153.1L124.8,153.1L124.8,153.1L124.8,153.1L124.8,153.1L124.8,153.1L124.8,153.1L124.8,153.1L124.8,153.1L124.8,153.1
					L124.8,153.1L124.8,153.1L124.8,153.1L124.8,153.1L124.8,153.1L124.8,153.1L124.8,153.1L124.8,153.1L124.8,153.1L124.8,153.1
					L124.8,153.1L124.8,153.1L124.8,153.1L124.8,153.1L124.8,153.1L124.8,153.1L124.8,153.1L124.8,153.1L124.8,153.1L124.8,153.1
					L124.8,153.1L124.8,153.1L124.8,153.1L124.8,153.1L124.8,153.1L124.8,153.1L124.8,153.1L124.8,153.1L124.8,153.1L124.8,153.1
					L124.8,153.1L124.8,153.1L124.8,153.1L124.8,153.1L124.8,153.1L124.8,153.1L124.8,153.1L124.8,153.1L124.8,153.1L124.8,153.1
					L124.8,153.1L124.8,153.1L124.8,153.1L124.8,153.1L124.8,153.1L124.8,153.1L124.8,153.1L124.8,153.1L124.8,153.1L124.8,153.1
					L124.8,153.1z M113.6,140L113.6,140C113.2,139.8,113.3,140.2,113.6,140C113.5,140,113.5,140,113.6,140z M114.4,140.7
					L114.4,140.7c-0.3,0.3,0.3,0.8,0.6,0.4C114.8,141,114.6,140.8,114.4,140.7C114.4,140.7,114.6,140.8,114.4,140.7z M127.3,151.9
					L127.3,151.9c0.1-0.3-0.1-0.4-0.6-0.2C126.5,151.9,126.8,152.1,127.3,151.9C127.3,151.8,127.1,151.8,127.3,151.9z M136.2,151.8
					c-0.2,0.3-0.4,0.6-0.6,1c1.4,1,2.8-0.6,4.1-1c-0.3,2,0.9,0.2,1.7,0.3c1.6,0.1-0.4,1.2-0.9,1.3c-2.3,0.1-4.6,0.4-7,0.7
					c-1,0.1-2.1,0.6-3.3,0.7c-1.7,0.1-2.8-0.9-4.3-1c-1.6-0.2-5.8,1.1-6.8,0.4c0.6-0.3,1-1.9,1.8-1.3c1.1,0.9,1.8-1.5,3.2,0
					c0.4-2.9-7.6-6-9.9-7.5c-3.9-2.4-7-6.8-10.3-10c-3.2-3.2-5.5-7.7-7.6-11.7c-1.8-3.2-5.1-10.6-3-14.1c1.4,0.9,2.1,4.7,2.9,6.2
					c1.1,2.3,2.1,4.4,3.7,6.5c3,3.9,5.6,8.1,9.1,11.7c3.5,3.7,7.9,6.8,12.3,9.6c1.3,0.8,4.1,0.6,4.9,1.9c1.1,1.6-3.5,0.2-3.6,0.4
					c2.9,1.9,5.5,3,9.1,2.9c1.1-0.1,2.8,0.7,3.5,1.5C135.5,151,134.9,151.8,136.2,151.8C135.9,152.3,135.3,151.8,136.2,151.8z
					 M138.1,15L138.1,15C137.9,14.8,138,15.3,138.1,15C138.1,15,138.1,15,138.1,15z M128.4,37.1L128.4,37.1
					C128.1,36.9,128.1,37.4,128.4,37.1C128.3,37.1,128.3,37.2,128.4,37.1z M129.5,34.9L129.5,34.9c-0.5-0.6-1.3,0.8-0.8,1.1
					C129,35.5,129.3,35.2,129.5,34.9C129.5,34.8,129.3,35.2,129.5,34.9z M138.1,18.9L138.1,18.9c0.6-0.1,0.4-2.2-0.1-2.5
					C138,17.2,138.1,18.1,138.1,18.9C138.1,18.9,138.1,18.1,138.1,18.9z M131.2,37L131.2,37c1.6-0.3,3.6-5,4.3-6.3
					c1.7-3.2,2.9-7.1,2.8-10.8c-0.5-0.1-2.3,6.5-2.7,7.5C134.3,30.8,132.8,33.7,131.2,37C131.4,37,131.6,36.4,131.2,37z M128.3,38.1
					c-1.6,0.7-4,1.4-5.3,3.3c-1,1.6-3.5,0.1-1.5-1c1.5-0.8,2.6-2.8,3.5-4.1c0.8,1.1,1.1-1.8,2.2-3c2-2.2,4.2-5.7,5.1-8.5
					c1.2-3.7,2-7.7,2.5-11.6c0.3-2.2,1.2-3.5,3.4-3.9c0.1,4.1,0.8,7.9,0.4,12.1c-0.6,5.1-2,8.9-4.5,13.4
					c-4.2,7.4-11.8,13.4-19.8,16.2c-3.5,1.3-8,2.4-10.1,5.8c-0.8,1.4-3,0.6-1.5-1.1c1.5-1.8,3.4-3.3,5.2-4.6
					c3.8-2.8,8.2-3.5,12.2-5.7C122.8,44,128.1,41.3,128.3,38.1z M76.3,79.5c0.2-0.3,0.4-0.6,0.5-0.9c1.1,1.1,0.6,2.3,1.1,3.7
					c0.5,1.4,1.2,2.7,1.4,4.2c0.3,1.8,0.3,3.6,0.4,5.4c0.1,0.6-0.1,1-0.7,1.1c-0.6,0.1-0.6,2.3-0.5,2.2c-1.4,7.3-5.4,12.2-9.6,18.1
					c-1.9,2.8-4.1,4.8-5.6,8c-1.3,2.7-2.2,5.7-2.9,8.6c-0.6,2.5-1.9,6.6-1,9.1c0.4,1.1,2.2,3.7,1.8,4.8c-0.6,1.9-2.5-2.7-2.5-2.7
					c-3.1-7.2-1.5-14.1,2-20.8c3-5.8,8.6-10.1,11-16.2c0.6-1.5,1.6-2.6,1.6-4.2c0-0.6,0.1-2.4-1.1-1.1c-0.8,0.9-1.6,2.9-3.1,2.3
					c-1.7-0.6,0.4-3.5,1-4.2c1.9-3,3.7-6.1,4.6-9.4c0.4-1.7,0.7-3.5,0.8-5.3C75.6,81.2,74.4,79.6,76.3,79.5
					C76.3,79.5,75.2,79.6,76.3,79.5z M78.7,114.9L78.7,114.9C78.5,114.6,78.5,115.1,78.7,114.9C78.7,114.9,78.6,114.9,78.7,114.9z
					 M75.8,116.1c-0.6-1.4,3.9-6.3,4.7-7.5c1.9-3.2,2.1-5.9,2.5-9.5c0.1-1.3,0.4-2.9-0.3-4.1c-0.6-1,1.1-1.1,1.3-1.8
					c1.1-2.9,2.7-1.1,4,0.8c3.4,5.1,3.5,10.3,0.7,15.7c-0.4,0.8-3.2,7.6-3.8,6.4c-0.6-1.3,0.9-2.6,0.3-3.5c-0.4-0.7-1.5,0.2-1.1-1.4
					c1.1-5.6,8.1-10.4,2.4-16.1c-2.6-2.6-0.8,3.4-0.6,4.1c0.4,3.5-1.1,7.1-2.3,10.3c-2.2,5.4-5.6,11.2-6.1,17
					c-0.4,4.3,3.3,9.2,4.8,13.2c-1.7-1.3-2.3-0.4-3.4-2.3c-1.4,2.4-1.9-0.8-2.3-2.2c-0.6-2-1.1-4-1.6-6
					C73.5,124.4,72.9,120.3,75.8,116.1C75.5,115.5,75.4,116.7,75.8,116.1z M85.7,79.8L85.7,79.8C85.4,79.4,85.4,80.1,85.7,79.8
					C85.7,79.7,85.7,79.8,85.7,79.8z M86.2,75.7L86.2,75.7c-0.3,0.1-0.2,0.6,0.2,0.5C86.3,76,86.3,75.8,86.2,75.7
					C86.1,75.7,86.3,75.8,86.2,75.7z M82.3,71.3L82.3,71.3c0.1,0.5,0.1,1,0.1,1.5C82.9,72.2,82.8,71.6,82.3,71.3z M76.7,59.7
					L76.7,59.7L76.7,59.7L76.7,59.7z M79.1,68.2c0.8,1,1.6,1.9,2.5,2.9c0.1-2.9-0.5-10.5-4.5-11c0.6,1,2.2,3.4,1.3,4.6
					c-0.8,1.1-2-2-2.2-2.2c-2.8-3.5-6.7-6.9-10.4-9.4c-1.1-0.8-4.4-2.5-3.9-4.2c0.1-0.5,2.9,1.1,3.8,1c3.4-0.8,8.7,4.1,10.9,6
					c7.2,6.1,11.5,16.7,11,25.9c0,0.6-0.6,5.6-1.8,5.3c-0.8-0.3-0.8-2.1-0.8-2.7c0-1.1-0.7-1.1-1.1-2c-1.1-2-1.3-4.6-2.3-6.7
					C80.7,73.4,78,70.5,79.1,68.2C79.9,69.1,78.7,68.9,79.1,68.2z M95.6,91.7c-0.4,0.3,0.6,4.7,0.8,5.3c0.7,2.3,1.5,4.6,2.5,6.8
					c1.1,2.6,2.2,5.3,3.2,7.9c0.4,0.8,3.5,6,1.1,5.8c-1.8-0.1-4.5-5.6-5.2-7.1c-1.2-2.7-1.8-6.1-3.2-8.7c-1.3-2.3-1.1-5.1-1.8-7.3
					c-0.8-2.8-1.2-6.3-0.8-9.3c0.1-1.3-1.1-2.8-1.3-4.1c-0.4-1.7-0.7-3.5-1.1-5.2c-0.7-2.9-1.7-5.6-3.2-8.2
					c-1.3-2.1-1.9-4.6-3.6-6.5c-1.2-1.3-2.6-2.3-3.5-3.9c-1.2-2.2,1.1-1.3,2-0.7c4.9,3.7,8,10.1,10.3,15.7c1.1,3,1.8,5.6,2.3,8.7
					C94.5,84.2,93.9,89,95.6,91.7C95.2,92,95.4,91.4,95.6,91.7z M116.9,154.7L116.9,154.7C117.1,154.5,116.7,154.5,116.9,154.7
					C116.9,154.7,116.8,154.7,116.9,154.7z M89.1,118.3c-2,5,0.8,10.8,3.1,15.2c1.1,2.1,2.2,4.4,4.1,6c1.3,1.1,4.5,2.2,1.5,3
					c-3.9,1-7.7-6.3-8.8-9.4c-1.6-4.7-3.1-11.3-1.5-16.2c1.8-5.4,5.3,4.4,5.7,6.3c1.1,4.9,3.5,9.4,6.7,13.4
					c3.3,4.1,7.5,9.1,12.5,11.2c1.6,0.7,2.1,1.6,3.4,2.4c2.6,1.6,2.4,1.9,3.5,4.4c-1.6,1.1-4.4,0.5-6.2,0.1c0.4,1.2-1.1,0.9-1.6,0.3
					c-0.5-0.8,0.7-2.4,1.5-1.8c0.6-2,5.3,3.3,5.3,0.3c-1,0.4-1.2-0.5-2.5-0.4c0.8-1.4-1.3-1.9-2.5-2.5c-2.2-1-4.1-2.7-6-4.1
					c-2.5-2-5-4.3-7.1-6.8c-2.7-3.1-4.9-6.3-6.7-10C92.8,128.3,90.2,118.3,89.1,118.3C89,118.6,89.2,118.3,89.1,118.3z M79.9,147.5
					L79.9,147.5C79.8,147.7,79.9,147.6,79.9,147.5C79.9,147.6,79.9,147.6,79.9,147.5z M83.5,145.6L83.5,145.6
					C83.5,145.8,83.7,145.7,83.5,145.6C83.5,145.6,83.6,145.6,83.5,145.6z M82.4,152.5L82.4,152.5c-0.8-0.8-1.5-1.4-2.2-2.1
					C79.9,151.2,80.9,152.2,82.4,152.5z M84.9,155.7c-1-1.6-2.2-1.1-3.8-2.1c-1.8-1.1-3.5-2.7-4.3-4.6c-2.2-4.9-5.1-10.5-5.6-15.9
					c-0.1-1.8-1-6.6,0.1-8.2c1.2-1.8,1.6,3.1,1.6,3.4c-0.1,3.2,1.4,6.1,2.6,8.9c1.1,2.5,2.5,6.9,4.8,8.6c-0.8-2.3-0.1-1.3,1.1-1.7
					c0.4-0.2-0.5-1.3,0.3-1.6c0.8-0.3,1.1,1.5,1.3,1.8c0.2,0.3,2.2,1.5,1.3,1.8c-0.9,0.4,0.6,1.9,0.8,2.2c0.8-0.6,0-1.1-0.4-1.6
					c1.1-1,2.9,4.2,2.7,5.3c-0.3,1.6-1.4,0.3-1.9,0.9C84.9,153.8,85.8,155.4,84.9,155.7C84.7,155.4,85,155.7,84.9,155.7z M92.1,148
					L92.1,148c0.5-0.3,0.3-0.7-0.6-1.2C90.9,147.1,91.1,147.5,92.1,148C92.1,147.9,91.8,147.6,92.1,148z M84.5,134.5L84.5,134.5
					c-1.1,0.3,4.8,12.5,6.3,11.5C89.5,142.1,86.3,138.2,84.5,134.5C84.4,134.5,85.3,136.2,84.5,134.5z M94.2,148.6
					c1.1,1.2,2.2,2,3.4,3c0.7,0.6,0.8,2.2-0.3,1.3c-3.2-2.3-6.5-4.5-8.9-7.6c-2.2-2.8-3.9-6.2-4.8-9.6c-1.1-3.8-3.1-8.9-1.9-12.9
					c0.3-0.8,1.1-0.7,1.3,0.1c0.3,2,0.5,4.1,1.1,6.1c1.3,3.9,3.2,7.7,5.3,11.2c1.9,3,4.7,7,7.9,8.9c1.8,1.1,7,2.7,6.5,5.2
					c-0.9-0.3-1.6-1-2.5-0.7c-0.6,0.2-1-0.8-1.5-1.1C98,151.6,96.1,149,94.2,148.6C95.1,149.7,94.3,148.7,94.2,148.6z M144.9,151.9
					L144.9,151.9c0-0.3-0.1-0.3-0.4-0.1C144.4,152.1,144.5,152.1,144.9,151.9C144.9,151.8,144.7,151.9,144.9,151.9z M145.6,152.1
					c0.1,0.2,0.2,0.3,0.3,0.5c-0.7,0-1.5,0.1-2.2,0.1c-0.3-1.5-0.1-1.8-1.6-2.3c-1.8-0.6-3.7-1-5.6-1.5c-2.7-0.7-9-1.5-10.5-4
					c-2.4-4,4.1-0.5,5.1-0.3c2.9,0.7,5.4,1.1,8.4,1c0.1,0.3,0,0.5-0.4,0.7c1.2,0.2,2.5-0.1,3.8-0.1c0.8-0.1,1.6-0.1,2.5-0.1
					c2.3,0,0.8-0.2,1.8-1.6c3.2,2.9-3.5,3.4-1.2,6.9c1.4-1.4,1.3-1,2.2,0c1,1,2.2-1.6,3.2-1c1,0.6-1.6,1.6-2,1.6
					C149.5,152.7,146.4,152.3,145.6,152.1z M127.4,87.1c0.1,1.6-0.1,3.1-0.1,4.7c0,0-0.2,5-1.1,3.1c-0.8-1.6-0.3-3.8-0.4-5.5
					s-0.6-3.3-0.2-5.1c0.4-1.7-0.3-4.4-0.4-6.2c-0.1-1.1,0.6-5.3,0.2-6c-0.4-0.8-2.2-2.1-0.3-2.9c0.8-0.4,1.7,0.4,2.4,0.1
					c1.3-0.5,2.8-0.4,4.2-0.4c2-0.1,10.9-1.6,11.9,0.1c1.3,2.3-7.9,2-9.5,2c-2.1-0.1-8.5-0.4-7.5,3.4
					C127.7,78.3,126.2,82.9,127.4,87.1C127.4,87.3,127.2,86.3,127.4,87.1z M48,63.4c-0.7,1.3-0.2,2.3-0.4,3.8
					c-0.3,1.7-1.3,3.2-2.3,4.5c-1,1.3-2.4,2.9-4,3.4c-0.6,0.2-4,0.3-2.2-1c1.4-1,9.8-7.5,4.3-7.3c-1.8,0.1-3.7-0.3-5.4-1
					c-0.3-0.1-5.2-2-3.9-2.9c0.8-0.6,5.6,1.5,6.9,1.5C42.2,64.5,48.1,62.2,48,63.4C48,63.5,48,62.8,48,63.4z M122.4,79.5
					c-0.4,2.9-0.6,6.3-0.1,9.2c0.2,1.2,1.8,6.8,1.1,7.8c-1.3,1.6-2.4-3.6-2.5-4.2c-0.6-2.9,0.4-6.7-0.9-9.4
					c-0.9,1.5-0.8,3.9-2.2,5.1c-1.4,1.2-0.3-4.4-0.3-4.6c0.3-0.7,2.2-3.9,2.1-4.2C118.9,75.8,122.8,76.8,122.4,79.5
					C122.4,80.2,122.6,78.9,122.4,79.5z M47.5,12.9c-0.8,0.4-5.3-1.5-6.4-1.6c-2.4-0.3-4.7-0.3-7-0.5c-0.5-0.1-4.9-0.2-4.6-1.3
					c0.2-0.4,5.1-0.8,5.7-0.8c5.4,0,10.8-0.3,16.3-0.3c0.8,0,1.3,0.6,1,1.5c-0.4,0.8-3.3,0.6-4.1,0.5C45.6,10.2,47,11.1,47.5,12.9
					C47.4,13,47.5,12.8,47.5,12.9z M139,64.6c-0.4,2-15.7,0.6-8-4.5c2.7-1.8,3.9-2.9,7.3-3.5c1.1-0.2,3.2-0.6,3.4,1
					c0.2,0.9-0.4,1.1-1.1,0.7c-2.2-1.3-6.5,1.3-8.2,2.5c-3.7,2.5,2.3,2.2,3.7,2.1c1.1-0.1,2.4-0.8,3.4-0.4c0.5,0.2,0.6,0.9,1.1,0.9
					C145.1,63.4,141.6,65.7,139,64.6C138.8,65.5,139.3,64.8,139,64.6z M88,10.5c-3,0.3-6.1-0.1-9.1,0.1c-3,0.2-6.1,0.6-9.2,0.5
					c-2.8-0.1-5.4,0.6-8.2,0.1c-1.6-0.3-4.9-1.6-1.3-1.6c6.7-0.1,13.3-0.4,20-0.4c3.2,0,6.2,0,9.4-0.1C94.7,9.1,88,11.8,88,10.5
					C87.3,10.5,88,10.5,88,10.5z M20.6,81.5c0,0.4-0.5,2.8,0.1,3c0.7,0.3,4.3-2.7,5.1-3.1c1.8-1,3.7-1.6,5.6-2.3
					c1.8-0.7,2.2,1.5-0.2,2c-2.5,0.4-4.8,1.8-6.8,3.3c-0.7,0.5-5.6,6.3-6.4,5.1c-0.9-1.3,0.4-4.2,0.4-5.6c0.1-1.8-0.3-5.3,0.7-6.8
					C19.7,77.4,21.1,81.6,20.6,81.5C20.6,82.4,20.6,81.5,20.6,81.5z M91.3,17.7L91.3,17.7C91.3,17.9,91.5,17.8,91.3,17.7L91.3,17.7z
					 M94.7,17.7L94.7,17.7c0.8-0.3,0.9-0.7,0.4-1.1C94.4,16.8,94.2,17.2,94.7,17.7C95,17.4,94.6,17.4,94.7,17.7z M96.8,17
					c0.6,0.3,0.8,0.6,0.8,1.1c-0.1,0.4-3,1.3-3-0.1c-1,0.4-1.8-0.7-2.4,0.1c-0.6,0.8-4.4-0.2-5.3-0.2c-3.4,0.2-8.2,2.8-10.4,5.3
					c-2.2-1.5,5.1-5.1,6.1-5.4c3.5-1.2,7.1-2,10.9-2c0.4,0,9.8-0.1,8.3,1.8C101.1,18.6,96.9,16,96.8,17C97,17.3,96.8,16.9,96.8,17z
					 M52,14.6c1.3-3.8,10.1-0.6,12.9,0.2c2.3,0.6,5.4,1.6,7.3,3.2c0.7-0.6,5.3-2.9,5.8-1.8c-1.6,0.8-4.4,1.7-5.1,3.7
					c0.1-0.2-4.3-2.1-5-2.3c-2.5-0.8-4.6-1.5-7.2-2.1C59.5,15,52.2,15.3,52,14.6C52.1,14.1,52.2,15.3,52,14.6z M116.8,89.5
					c0.1,1.6,1.7,3,0.6,4.2c1.4,0.1,1.1,1.8,1.3,2.8c0.4,2,1.3,3.9,2.8,5.3c1.5,1.5,3.3,2.4,5.1,3.5c2.7,1.6,0.7,2.1-1.2,1.1
					c-3.2-1.5-6.5-3.8-8-7.1C116.7,98.3,114.4,89.2,116.8,89.5C116.8,89.9,116.7,89.5,116.8,89.5z M71,115.4c0.3-3,2.5-4.8,4.2-7.1
					c0.6-0.8,3.7-7.2,4.7-5.5c0.9,1.6-3,7.7-3.8,9.3C75,114.2,72.4,120,71,115.4C71.2,113.2,71.2,116,71,115.4z M131.6,107.5
					c3.4-0.1,6.8-0.3,10.2-0.8c0.6-0.1,1,0.1,1.1,0.6c0.4,1.1-2.3,1.2-2.5,1.2c-0.8,0.1-5.8,0.3-5.9,1.1c1.7,1,3.9,1.5,5.7,2.1
					c0.7,0.3,3.9,2.2,1.1,2C137.6,113.4,131.1,112.3,131.6,107.5C132.8,107.5,131.6,108,131.6,107.5z M22.7,56
					c-0.1,0.8,0.1,5.8-1.5,4.8c-1.4-0.9-0.4-4.8-0.3-6c0-0.7-0.3-7.3,0.6-7.2c1.8,0.2,1.5,2.9,1.7,4c0.6,2.2,0.9,4.4,2.7,6.1
					c0.7,0.6,3.2,1.8,3.4,2.5C30.1,62.8,21.9,56.1,22.7,56C22.6,56.6,22.8,56,22.7,56z M145.7,38.1c-1,1.3-1.3,2.9-2.9,3.4
					c-0.4-1.5,0.7-2.8,1.5-4.1c0.3-0.5,2-3.2,1.9-3.7c-0.3-2,2.3,0.2,2,1.7c-0.5,3-1,6-1.4,8.9c0,0.2-0.7,6.1-2,3.9
					C143.8,46.4,147.3,38.9,145.7,38.1C145.5,38.4,145.8,38.1,145.7,38.1z M73.1,32.1c-0.1,0.3-0.1,0.5-0.2,0.7
					c-0.4-1.4-0.3-2.9-1-4.1c-0.8-1.5-2.2-2.5-3.3-3.7c-0.7-0.7-3.9-3-3.4-4.1c0.4-1,4.2,2.7,4.5,3.1c1.4,1.6,2.4,3.2,3.3,5.1
					c0.6,1.3,3.2-1.5,4-2c1.3-0.7,7.7-3.5,8.8-2c-3.9,2-9.9,2.9-11.8,7.4C73.7,32.4,73.4,32.3,73.1,32.1
					C73.1,32.3,73.4,32.3,73.1,32.1z M35.1,69.4c1.1,0.1,1.6,0.4,1.5,1.5c-0.1,1-3.3,0.8-4.1,1.3c-2.7,1.5-5.7,2.7-7.3,5.4
					c-0.4,0.8-1.2,1.6-2.2,0.6c-0.6-0.6,2.4-3.2,2.8-3.7C28.2,71.9,31.4,69.5,35.1,69.4C36.5,69.5,35.1,69.4,35.1,69.4z M97.7,10.1
					c3.5-0.1,6.9-0.5,10.4-0.6c1.5-0.1,3,0.1,4.5,0.3c1.5,0.3,0.4,1.6-0.6,1.7c-3.2,0.3-6.5,0-9.7,0.1c-1.6,0-3.3,0.2-4.9,0
					C96.2,11.4,96.4,10,97.7,10.1C98.2,10.1,96.9,10,97.7,10.1z M23.8,66.5L23.8,66.5C23.5,66.2,23.6,66.7,23.8,66.5
					C23.7,66.5,23.7,66.5,23.8,66.5z M22,68.2c0,1.6-0.1,3.2-0.4,4.9c-0.3,1.6-1.9,0.3-1.8-0.6c0.1-1.8,0.7-3.4,0.4-5.2
					c-0.3-2.3,0.9-1.8,3-1.8c1.8-0.1,3.6-0.1,5.4-0.4c1.8-0.3,1,1,0.6,1.5C27.8,68.2,23.8,66.2,22,68.2C22,69,22.1,68.1,22,68.2z
					 M43,27.1c0.8,3.4-7.8,6-8.8,2.7c-0.7-2.2,3.1-3.5,4.7-2.9c0.4,0.2,0.5,1.3,0.8,1.3C41.1,28.4,41.7,27.4,43,27.1
					C43.2,27.8,42.8,27.1,43,27.1z M141.4,44.5c1.7,2.3-2.5,4.7-3.7,6.7c1,0.1,5.7-2.2,5.6-0.1c0,2-3,1.5-4.6,1.8
					C131.5,54.4,139.8,46.6,141.4,44.5C141.6,44.9,140.9,45.1,141.4,44.5z M141.6,96.6c-2.6-0.9-0.6-8-1.2-10.2
					c-0.4-1.5-8.2-1.2-7.5-2.2c0.1-0.1,3.5-0.4,4-0.4c1.5,0.1,3.4-0.6,4.3,0.9c1,1.6,0.6,3.6,0.6,5.4
					C141.8,92.2,142.5,94.9,141.6,96.6C140.4,96.2,141.7,96.4,141.6,96.6z M143.3,99.9c0,1.1-7.9,2.2-9.2,2.3c-1.6,0.2-5.8,1-7,0.3
					c-1.9-1,1.9-1.4,1.9-1.4c1.8,0,3.7-0.3,5.6-0.4C135.7,100.6,143.4,98.7,143.3,99.9C143.3,100.4,143.3,99.4,143.3,99.9z
					 M135.9,79.7c-2.5,0.1-3.8,0.4-5.7-1.1c-1.1-0.9,5.2-0.9,5.6-0.9c1,0,5.4-1.5,5.3,0.8C141.1,80,135.9,79.5,135.9,79.7
					C134.9,79.7,135.9,79.7,135.9,79.7z M34.6,21.9c0.8-1,7-2.7,6.8-0.7C41.1,23.8,34.9,24.5,34.6,21.9
					C34.8,21.7,34.7,22.9,34.6,21.9z M101,23.1c0.8-0.3,6.9-2.1,6.9-2.1c-0.8,0.8-9,5.6-9.3,3.3C98.5,23.2,101.6,24.6,101,23.1
					C102,22.8,101.2,23.6,101,23.1z M75.3,70.9c0.6,1,3.4,5.2,0.8,5.1C75,75.9,74.5,71.2,75.3,70.9C75.4,71.2,75.2,71,75.3,70.9z
					 M147.7,144.2c-1.2-1-1.5-6.5-0.5-7.9C148.3,137.6,147.8,142.5,147.7,144.2C147.6,144.1,147.8,143.5,147.7,144.2z M82.4,156.8
					c0.3,1-2.3,1.6-2.9,0.8C78.2,155.8,81.9,156.8,82.4,156.8C82.6,157.4,81.5,156.7,82.4,156.8z M55.6,4.4c-0.6-0.1-4.6,0-4.7-0.4
					C51.5,3.8,56.5,3.6,55.6,4.4C54.1,4.3,55.6,4.3,55.6,4.4z M30.9,4.5c1.6-0.1,4.4-0.8,5.8,0C36.5,4.9,30.8,5.1,30.9,4.5
					C32.6,4.4,30.9,4.6,30.9,4.5z M87.5,36.3c1.2-0.3,2.5-0.6,3.7-1c0.1,0.6-1.2,0.1-0.4,1C89.7,36.8,88.6,37,87.5,36.3
					C88.7,36,88.7,37.1,87.5,36.3z M43.5,157.6c0,0.2,0.1,0.3,0.1,0.5c-1.1-0.1-3.8-0.2-3.7-1.5C41.1,156.9,42.3,157.2,43.5,157.6
					C43.5,157.6,42.3,157.2,43.5,157.6z M20.9,146.1c-0.1,1,1.1,0.6,1.6,1.1c-1.1,1-2.5-0.4-3.3-1.2C19.7,146,20.3,146,20.9,146.1
					C20.8,147,20.3,146,20.9,146.1z M146.3,26.9c-0.2,1.3-0.2,2.8-1,3.9c-0.1,0-0.2-0.1-0.3-0.1C145.1,29.7,145.6,27.2,146.3,26.9
					C146.1,28,145.7,27.1,146.3,26.9z M142.8,35.4L142.8,35.4L142.8,35.4L142.8,35.4C143,35.2,142.8,35.4,142.8,35.4L142.8,35.4
					L142.8,35.4L142.8,35.4 M39.6,4.4c-0.6,0.3-2.2,0.3-2.5-0.1C38,3.9,38.8,4.2,39.6,4.4z M109.1,154.8
					C112.3,153.6,109.7,156.3,109.1,154.8C109.4,154.7,109.1,154.9,109.1,154.8z M109.2,19.1c-0.1,0.8-0.4,1.2-1.1,1.3
					C108,19.8,108.3,18.9,109.2,19.1C109,19.5,108.5,19,109.2,19.1z M144.5,32.3c0.3,0.6,0.1,1.1-0.9,1.7
					C143.7,33.2,144,32.8,144.5,32.3z M99.3,36.2c-0.5,0.4-0.9,0.7-1.3,1C98,36.2,98.4,36.1,99.3,36.2z M51.3,158.6
					c0.6-0.2,1.1-0.4,1.6,0.1C52.3,159.1,51.8,158.9,51.3,158.6z M101.4,155.2c-0.4-0.1-0.9-0.2-1.3-0.3
					C100,154.2,101.3,154.4,101.4,155.2C100.9,155.1,101.3,154.5,101.4,155.2z M106.5,155.6c-0.5,0.1-0.9,0.1-1.1-0.3
					C105.9,155,106.8,154.5,106.5,155.6C106.1,155.6,106.7,155.2,106.5,155.6z M46.6,3.9C47.2,4,47.5,3.4,48,4
					C47.9,4.1,46.4,4.7,46.6,3.9C47,4,46.6,4,46.6,3.9z M18.1,23.2c-0.6-0.7-0.6-0.5-0.2-1.1C18.4,22.4,18.5,22.8,18.1,23.2
					C17.8,22.9,18.2,22.9,18.1,23.2z M15.3,65c0.1,0.4,0.1,0.8,0.2,1.1C14.8,66.3,14.7,65.1,15.3,65C15.4,65.4,15.2,65,15.3,65z
					 M16.9,35.1c0.3,0.3,0.9,1.4,0.1,1.4C16.9,36.1,16.9,35.5,16.9,35.1C17.4,35.5,16.9,35.7,16.9,35.1z M143.4,152.6
					c-0.3,0.3-0.6,0.4-1.1,0.3c-0.1-0.1-0.1-0.2-0.1-0.3C142.6,152.5,143.2,152.3,143.4,152.6C143.2,152.8,143.3,152.6,143.4,152.6z
					 M96.2,155.2c0.1-0.3,0.2-0.5,0.3-0.8C97,154.7,96.9,155.5,96.2,155.2C96.3,154.9,96.3,155.2,96.2,155.2z M89.6,156.4
					c-0.3-1.2-0.3-1.1,0.7-0.4C90.1,156.1,89.9,156.3,89.6,156.4C89.5,156.1,89.9,156.3,89.6,156.4z M104.5,35.3
					c-0.3-0.1-0.6-0.2-1-0.3C103.7,34.4,104.7,34.6,104.5,35.3C104.2,35.2,104.5,35.2,104.5,35.3z M102.8,35.2
					c-0.5,0.5-0.8,0.6-0.9,0.1C102.4,34.8,102.7,34.8,102.8,35.2C102.5,35.4,102.8,35.2,102.8,35.2z M69.8,3.4
					c0.3,0.1,0.6,0.1,0.9,0.2C70.7,4.2,69.7,4.1,69.8,3.4C70.2,3.5,69.8,3.5,69.8,3.4z M71.1,3.4c0.3,0.1,0.7,0.1,1,0.2
					C71.6,4,71.4,3.9,71.1,3.4z M68.2,3.6c0.8-0.3,1.1-0.3,1,0.3C68.5,4.1,68.1,4,68.2,3.6C68.5,3.6,68.2,3.6,68.2,3.6z M15.8,58.5
					c0.1,0.7,0,0.9-0.4,0.8C15.2,58.6,15.4,58.4,15.8,58.5C15.7,58.8,15.7,58.5,15.8,58.5z M83.1,156.9c0.6-0.4,0.9-0.4,0.9,0.1
					C83.4,157.4,83.1,157.4,83.1,156.9C83.3,156.8,83.1,157,83.1,156.9z M105.2,35c-0.4-0.5-0.4-0.8,0.1-0.8
					C105.7,34.7,105.6,34.9,105.2,35C105.1,34.7,105.3,34.9,105.2,35z M107.5,153.6c0.4-0.3,0.6-0.2,0.6,0.2
					C107.7,154.1,107.5,154,107.5,153.6C107.7,153.6,107.5,153.7,107.5,153.6z M98.3,157.1c-0.3,0.3-0.5,0.3-0.7,0
					C97.8,156.8,98.1,156.7,98.3,157.1C98.1,157.2,98.1,156.9,98.3,157.1z M43.5,4.2c0.4-0.3,0.6-0.3,0.6,0.1
					C43.8,4.6,43.5,4.5,43.5,4.2C43.7,4.1,43.5,4.2,43.5,4.2z M95.8,157c0.2-0.1,0.4-0.1,0.6-0.3C96.5,157.2,95.9,157.5,95.8,157
					C95.9,156.9,95.8,157.1,95.8,157z M108.1,34.3c-0.5,0.2-0.8,0.1-0.7-0.2C108,34,108.2,34,108.1,34.3
					C107.9,34.3,108.1,34.3,108.1,34.3z M15.9,57.3c0.2,0.4,0.1,0.6-0.2,0.6C15.4,57.3,15.5,57.2,15.9,57.3
					C15.9,57.5,15.8,57.3,15.9,57.3z M107.6,155.1c-0.1,0.4-0.2,0.5-0.4,0.3C107.2,155,107.3,154.9,107.6,155.1
					C107.5,155.2,107.5,155,107.6,155.1z M44.9,158c0.4-0.1,0.6-0.1,0.6,0.3C44.9,158.4,44.8,158.3,44.9,158
					C45.1,158,44.9,158.1,44.9,158z M104.2,156.5c-0.5-0.1-0.6-0.2-0.4-0.5C104.3,156.1,104.4,156.3,104.2,156.5
					C104,156.4,104.2,156.4,104.2,156.5z M125.1,154.6c-0.4,0.3-0.6,0.2-0.6-0.1C124.9,154.2,125.2,154.2,125.1,154.6
					C124.9,154.6,125.1,154.5,125.1,154.6z M66.9,3.4c0.5,0.1,0.6,0.3,0.3,0.6C66.7,3.7,66.5,3.6,66.9,3.4C67,3.5,66.8,3.4,66.9,3.4
					z M124,125.8c-0.2-0.1-0.4-0.1-0.6-0.1C123.5,125.3,124.1,125.3,124,125.8C123.8,125.7,124,125.6,124,125.8z M44.9,3.7
					c0.2,0.1,0.3,0.1,0.5,0.2C45.3,4.4,44.8,4.2,44.9,3.7C45.1,3.8,44.9,3.9,44.9,3.7z M106.8,34.1c-0.3,0.3-0.5,0.3-0.6,0.1
					C106.5,33.8,106.7,33.7,106.8,34.1C106.7,34.2,106.8,34,106.8,34.1z M92.1,156c-0.1-0.4-0.1-0.5,0.2-0.4
					C92.5,155.9,92.4,156.1,92.1,156C92.1,155.9,92.1,156,92.1,156z M26,148.1c0.4-0.3,0.6-0.3,0.6,0.1
					C26.2,148.5,26,148.4,26,148.1C26.2,148,26.1,148.1,26,148.1z M87.1,25c-0.3,0.2-0.4,0.2-0.5-0.1C86.8,24.7,86.9,24.7,87.1,25
					C86.9,25,87,24.8,87.1,25z M95.1,155.4c-0.4,0-0.4-0.1-0.3-0.4C95.2,155,95.3,155.1,95.1,155.4C95,155.3,95.1,155.3,95.1,155.4z
					 M41.2,148.9c0.2,0.2,0.2,0.3-0.1,0.4C40.9,149.2,41,149,41.2,148.9C41.3,149,41.1,149,41.2,148.9z M93.2,154.9
					c0.3-0.2,0.5-0.1,0.5,0.1C93.3,155.3,93.1,155.2,93.2,154.9C93.3,154.9,93.2,155,93.2,154.9z M65.8,3.9
					c-0.4,0.1-0.5-0.1-0.4-0.3C65.9,3.4,66,3.6,65.8,3.9C65.7,3.8,65.9,3.7,65.8,3.9z M85.6,157.6c0.3-0.1,0.5,0,0.4,0.3
					C85.6,158,85.5,157.8,85.6,157.6C85.7,157.6,85.6,157.6,85.6,157.6z M15.2,68.2c0-0.2-0.1-0.4-0.1-0.6
					C15.6,67.5,15.3,68.1,15.2,68.2C15.2,67.9,15.4,68,15.2,68.2z M95,157.4c-0.1-0.3-0.1-0.4,0.1-0.4
					C95.4,157.3,95.3,157.5,95,157.4C95,157.3,95.1,157.4,95,157.4z M109.5,153.7C109.1,154,109.1,153.3,109.5,153.7
					C109.4,153.7,109.4,153.5,109.5,153.7z M18.2,19.7c-0.2-0.1-0.2-0.3,0-0.4C18.3,19.4,18.3,19.5,18.2,19.7
					C18.1,19.6,18.2,19.6,18.2,19.7z M148.9,150.5C149.2,151,148.6,150.9,148.9,150.5C149,150.6,148.9,150.5,148.9,150.5z
					 M98.1,24.2C97.7,24.3,97.8,23.9,98.1,24.2C98,24.2,98,24.1,98.1,24.2z M58.1,158.7C57.8,158,58.4,158.6,58.1,158.7
					C58.1,158.7,58.1,158.7,58.1,158.7z M71.8,152.3c-0.2,0.1-0.4,0.1-0.5-0.1C71.5,152,71.6,152.1,71.8,152.3
					C71.7,152.3,71.6,152.1,71.8,152.3z M42.7,4.3C42.2,4.5,42.3,3.9,42.7,4.3C42.5,4.3,42.6,4.2,42.7,4.3z M16.7,38.7
					c-0.3,0.3-0.5,0.3-0.5-0.1C16.4,38.5,16.5,38.5,16.7,38.7C16.4,38.7,16.5,38.6,16.7,38.7z M50.4,158.3
					C50.5,158.9,50.1,158.3,50.4,158.3C50.4,158.4,50.3,158.3,50.4,158.3z M74.9,3.4C75.2,3.7,74.6,3.7,74.9,3.4
					C75,3.4,74.8,3.4,74.9,3.4z M60.3,158.3C60,158.6,60,158,60.3,158.3C60.3,158.4,60.3,158.3,60.3,158.3z M28.5,5.3
					C28.1,5.3,28.5,5,28.5,5.3C28.5,5.3,28.5,5.2,28.5,5.3z M35.6,47.3C35.8,47,35.9,47.5,35.6,47.3C35.7,47.2,35.7,47.3,35.6,47.3z
					 M84.7,156.8C84,156.7,84.7,156.5,84.7,156.8C84.6,156.8,84.7,156.8,84.7,156.8z M96.2,34.4C95.7,34.5,95.9,34.2,96.2,34.4
					C96.1,34.5,96.1,34.3,96.2,34.4z M61,4C61.4,3.8,61.5,3.9,61,4C61.1,3.9,61,4,61,4z M51,66.9C50.7,67,50.6,66.6,51,66.9
					C51,66.9,50.9,66.8,51,66.9z M94.4,157.3C94,157.5,94.3,157.1,94.4,157.3C94.3,157.4,94.4,157.3,94.4,157.3z M64.3,154.2
					C63.9,154.4,64.1,154,64.3,154.2C64.2,154.2,64.3,154.2,64.3,154.2z M97.8,155.6C97.6,155.9,97.5,155.4,97.8,155.6
					C97.7,155.7,97.7,155.6,97.8,155.6z M127.1,127.2C127.3,127.5,126.9,127.3,127.1,127.2C127.2,127.2,127.1,127.2,127.1,127.2z
					 M142,37.9C141.8,38.1,141.8,37.6,142,37.9C141.9,37.9,141.9,37.8,142,37.9z M46.7,158.3C46.7,158.1,46.9,158.2,46.7,158.3
					C46.7,158.2,46.7,158.3,46.7,158.3z M69.4,158.7C69.5,158.8,69.2,158.8,69.4,158.7C69.4,158.7,69.3,158.7,69.4,158.7z
					 M15.4,61.8C15.2,62,15.2,61.7,15.4,61.8C15.3,61.8,15.3,61.8,15.4,61.8z M25.3,147.6C25.3,147.8,25,147.6,25.3,147.6
					C25.3,147.7,25.2,147.6,25.3,147.6z M17.8,31.6C17.5,31.7,17.6,31.4,17.8,31.6C17.7,31.6,17.8,31.6,17.8,31.6z M124.6,126
					C124.3,126.2,124.6,125.9,124.6,126L124.6,126z M105.2,4C105.3,4.1,105,4.1,105.2,4C105.3,4,105.2,4,105.2,4z M98,154.7
					C97.9,154.8,97.8,154.7,98,154.7C98,154.7,97.9,154.7,98,154.7z M104.6,34.3C104.5,34.3,104.6,34.2,104.6,34.3
					C104.6,34.3,104.6,34.3,104.6,34.3z M53.6,158.7C53.6,158.8,53.5,158.7,53.6,158.7C53.6,158.8,53.6,158.7,53.6,158.7z
					 M125.4,126.3C125.5,126.3,125.5,126.3,125.4,126.3z M15.5,66.8C15.4,66.8,15.4,66.8,15.5,66.8z M147.4,148.6
					C147.3,148.6,147.3,148.6,147.4,148.6z M23.3,147.6C23.3,147.6,23.3,147.6,23.3,147.6 M15.9,53C15.9,53,15.9,53,15.9,53
					 M97.9,33.7C97.8,33.6,98,33.6,97.9,33.7L97.9,33.7z M61,4C60.8,4,61,3.9,61,4C60.9,4,61,4,61,4z M144.7,31.7
					C144.7,31.8,144.7,31.7,144.7,31.7z M121.5,8.2L121.5,8.2L121.5,8.2z M121.5,8.2L121.5,8.2L121.5,8.2z M146,24.2
					C146,24.2,146,24.3,146,24.2C146,24.3,146,24.2,146,24.2z M20.1,148.8L20.1,148.8c0.4-0.3,4.6,1.1,5.8,1.3c1,0.1,2.3,0,2.7-0.9
					c0.4-0.8-1.3-0.6-1.2-1.3c1.8-0.9,0.6-5.8,0.7-7.5c0.1-1.1,0.3-2,0.3-3c0.1-2.3,0.1-3.9,0.8-6.1c2.2-6.8,5.3-12.5,10.3-17.8
					c2.2-2.3,3.7-5.6,6-8c2.4-2.6,4.8-5.1,7.1-7.9c1.8-2.2,3.7-4.3,4.9-6.9c0.3-0.6,0.2-2.5,1-2.7c1.6-0.4-0.8-2.1-0.1-2.7
					c0.3,0.1,1.4,1.4,1.6,1.4c0.4,0,1-1.4,1.5-0.6c0.8,1.2,1.4,2.3-0.3,2.1c-0.3,2.5-2.4,5.5-4,7.5c-1.8,2.3-3.2,4.8-5.1,7
					c-2.2,2.6-4.4,5.1-6.1,8c-0.3,0.3-0.6,0.3-1,0c-0.3,0.6-0.6,1.1-0.8,1.8c-0.4,0.7-2.8,3.7-2,4.2c0.6-0.5,2.5-2.3,2.6-0.3
					c0.1,1.7-3.4,4.6-4.4,5.8c-2.7,3.4-4.7,8-5.4,12.3c-0.4,2.2-0.2,4.6-0.4,6.7c-0.1,2.2,1.1,3.4,1.6,5.4c0.8,4-3.7,2.2-5.7,0.5
					c-1,3.2,0.7,1.8,2.5,3c-0.9,1.4-1.8,0.4-3.4,0.6c-2.1,0.3-4.4-0.1-6.5-0.4c-2.3-0.3-9-0.8-9.7-3.5c1.1-0.6,3.5-1.8,4.7-0.9
					c-0.9,0.4-1.8,0.9-2.7,1.3C15.6,148.9,19.7,148.4,20.1,148.8C20.2,148.7,20.2,148.8,20.1,148.8z M78.6,148.9
					c0.1-0.1,0.2-0.1-0.1-0.6C78.5,148.6,78.6,148.8,78.6,148.9z M79.2,149.3c-0.3-0.2-0.4-0.3-0.5-0.3
					C78.8,149.2,79,149.2,79.2,149.3z M78.6,148.3L78.6,148.3C78.4,148.8,78.1,148.3,78.6,148.3L78.6,148.3c0.1,0.3,0.4,0.3,0.5,0.4
					c-0.3-0.8-1.1-2-1.3-2.3c-0.8-1.8-1.6-3.4-2.7-5.1C75,142.6,77.1,148.2,78.6,148.3L78.6,148.3L78.6,148.3z M142.8,35.4
					C142.8,35.4,142.8,35.4,142.8,35.4c0.1-0.3,0.2-0.4,0.3-0.6c0.3,0.7,0.1,1.4-0.4,2C141.8,35.9,142.8,35.7,142.8,35.4z M21.5,29
					c-0.9-1,3-1.8,3.4-1.9c2.3-0.6-2.4-4.5-1.4-6.5c1.2-2.4,3-3.6,5.2-4.9c0.4-0.3,2-1.6,2.3-1.6c0.4,0.2,0.8,0.4,1.1,0.7
					c0.8,0.2,2-0.5,2.7-0.8c1.4-0.6,2.5,0.3,3.8,0.9c2,1,2.7,0.5,4.7-0.2c4.1-1.5,4.8,4.1,7.5,5.1c3.4,1.1,6.9-4.1,8.4,1.3
					c1,3.5,4.7,5.3,7.4,7.3c2.8,2.1,3.4,6,3,9.3c-0.2,1.7-1,3.2-1.3,4.9c-0.2,0.9,2.5,1.4,2.9,0.8c1.9-3,3.2-5.4,6.4-7.2
					c1.5-0.8,3-1.2,4.5-1.8c1.3-0.6,3.2-1.3,4.6-1.6c2.9-0.8,5.7-2.2,8.6-3c3-0.9,6.3-1,9.4-1.8c3-0.8,6-2.6,8.4-4.4
					c0.7-0.6,3-2.2,3.2-3.1c0.1-0.4,0.4-0.6,0.8-0.7c-0.6-0.5,0.4-1.7,0.8-2.3c0.4,1.1,1.7-2.9,2.1-3.8c0.4-1.1,0.8-2.4,1.3-3.5
					c0.5-1,1.5-0.4,1.6-1.3c0.3-2.6,3,0.7,2.2,2.7c-0.6,1.5,1.3,4.2,0.7,6.1c-1.3,3.9-2.5,8-5.6,11.2c-1.7,1.7-3.8,2.6-5.6,4.2
					c-0.5,0.4-4.9,2.2-5.8,1.3c1.3-0.5,3.3-0.9,4.4-1.7c1.3-0.9,2.4-3.1,3.3-4.4c0.6-0.8,5.6-8.2,4.5-8.8c-1.6,2-2.4,4.2-4.1,6.1
					c-2,2.2-4.2,3.4-7,4.5c-2.5,1-4.3,2.2-7,2.8c-3.5,0.8-7.1,0.6-10.6,1.5c-1.5,0.4-5.8,1.1-5.9,3.2c-0.1,2.3-1.5,2.6-3,4.3
					c-0.9,1-4.7,4-4.1,5.6c0.9,2.6,3.8-1.2,4.8-1.7c3.3-1.8,8.1-4.7,12-4.5c0,0.1,13.2-3.2,14.5-3.7c2.6-1,5.5-1.7,7.8-3.4
					c2.5-1.7,3.8-4.1,5.6-6.4c1.8-2.3,3.7-4.7,4.4-7.7c0.4-1.5,0.5-2.9,0.4-4.4c-0.2-2,0.4-1.3,1.5-1.7c-0.3-1-0.5-1.8-0.6-2.9
					c3.7,1.8,0.4,8.9-0.8,11.3c-0.5,1.1-5.3,11.2-6.2,9.5c-0.8,0.5,0.3,0.5,0.1,1.1c-0.1,0.6-1.2,2.1-1.6,2.5
					c-1.2,1.1-3.4,3.7-5.3,3.2c0.4-0.9,7.1-4.3,4.2-4.7c-0.9,2.6-6,4-8.2,5.1c1.1,0.6,2.2-0.7,3.3,0.1c-1,1.1-4.6,1.3-6.1,1.5
					c-2.9,0.5-5.8,0.8-8.7,1.3c-4.4,0.7-11.3,2.3-13.8,6.3c-0.6-1.7-1.3-0.6-2,0.6c-1,1.6-1.2,1.8,0.4,3.2c0.9,0.7,3-3.4,4.3-3.7
					c7.9-1.8-4.1,6.8-1,7.4c1,0.2,4.1-3.7,5-4.4c2-1.6,3.7-2.3,6.2-3c3-0.8,6.1-1.4,9.2-2.1c2.2-0.5,4.3-2,6.5-2.2
					c-0.1,1-0.4,1.1-1,2c0.8-0.3,1.3-0.6,2.1-0.4c-3.5,4-10.1,3.5-15,4.2c0.4,2.3-3.6,2.3-5.2,3.5c-1.1,0.9-1.8,1.8-2.7,3
					c-0.5,0.8-1.2,1.9-1.6,2.9c-1.6,3.7,2.9-1.6,3.4-2.2c1-1,2.9-0.4,1.6,0.9c-0.7,0.7-1.1,2.2-1.3,2.7c1.8,0.7,0.4,0.3,1.9-0.1
					c0.6-0.1,0.4,1.2,1.1,1.5c1.1,0.3,4.6-1.5,5.6-2.1c1.8-1,4.2-1.8,5.8-3c0.7-0.5,1.4-1,2-1.5c0.6-0.4,1.4,0.6,1,1.1
					c-2.7,3.2-7.6,4.2-10.4,7.6c-1.1,1.3-3.4,3.4-3.9,4.9c-0.3,0.7,1.7,6.2,2.3,5.9c0.6-0.3,1.5-2.6,1.9-3.2
					c0.7-0.9,1.3-1.8,1.9-2.7c1.8-2.4,4.1-4.2,6.3-6.3c1.1-1.1,2.3-2,3.5-3c1-0.8,2.5-1.2,3.3-2c0.9-1,2.1-1.6,3.2-2.3
					c0.8-0.6,1.1,1,0.3,1.5s-3,2.1-3.5,2.9c-0.4,0.7-1.6,1-1.7,1.7c0-0.1-1,1.1-1.3,1.2c-1.9,0.9-3.8,3.5-5.2,5.1
					c-2,2.3-2.3,4.8-3.8,7.2c2.3,1.1,5-5.3,6.7-4.6c2.2,1-3.9,6.2-3.6,7.9c0.1,0.7-1,1.9-1.3,2.6c-0.6,1.3-1,3.4-1.3,4.9
					c-0.8,4,0,7.7,1.3,11.3c1.4,3.5,2,7,4.1,10.3c1.1,1.8,2.2,3.4,3.7,4.8c0.3,0.3,2.1,2.4,0.2,2.1c-1.5-0.3-1.5,0.5-2.7-1.1
					c-1.1-1.6-2.2-3.2-3.2-4.9c-0.7-1.1-6-11.9-6.5-11.8c0.6,5.1,1.5,10.1,4.2,14.4c0.6-1.1,1.7,2.5,2.3,3.3c1.8,2.6,3.5,5,6,7
					c1.1,0.9,3,1.4,4.2,2c0.8,0.3,1.6,0.8,2.2,1.3c1.1,1-0.3,1-0.4,1.3c2.5,1.4,4.9,2.3,7.7,3c1.3,0.4,1.8,1.2,3.3,0.8
					c0.6-0.1,2.6-1,3-0.3c-0.4,0.3-0.9,0.6-1.3,1c1.8,0.6,3.6,0.6,5.4,0.6c2-0.1,3.5-1,5.3-1.1c0.4-0.1,1.3,1.2,1.7-0.1
					c0.5-1.5,0.4-2.5,0.1-4.1c-4.6,1.3-8.7,0.8-13.2-0.1c-1-0.2-13.6-5.3-11.5-7.4c0.5-0.5,4.9,2.5,5.6,2.8c2.8,1.3,5.3,2,8.4,2.4
					c2.9,0.4,5.4,1.1,8.2,0.4c3.1-0.9,2.9-1.7,3.2-4.8c-1.8,0.5-3.5,1.2-5.3,1.2c-2.2-0.1-4.6-0.7-6.8-0.6c-1.5,0.1-3.2-1.3-4.6-1.8
					c-2.1-0.8-3.9-1.6-6.1-2.1c-1.7-0.4-3-2.7-4.2-3.9c-1.3-1.4-2.7-2.8-4.1-4.1c-2.6-2.5-4.9-6.8-5.8-10.2
					c-1.2-4.7-0.4-9.3,0.6-13.9c0.9-4,2.7-7.1,4.1-10.8c1.8-4.5,4.3-8.5,6.8-12.7c0.6-1,2-4.1,3.1-4.4c1.2-0.4,1.5-0.8,2.3-2.1
					c0.4-0.5,1.2-2.3,1.9-2.1c-0.2,1.3-2.1,2.4-1.9,3.6c0.6-0.6,4.6-4.8,3.9-5.4c-0.3,0.3-1.1,1.7-1.5,1.5c0.4-1.2,1.2-2.8-1.3-2
					c-0.6,0.2-5.2,4.1-4.7,2.7c1.4-4.1,6.3-6.1,8.9-9.6c3.6-4.8,7.1-10.4,8.6-16.2c0.6-2.5,0.8-5.1,1.1-7.7c0.1-0.7-0.3-6.1-0.2-6.1
					c0.4,0,0.8,1.3,0.9,1.6c1.1-1.1-1.2-4.9-0.8-6.2c0.4-1.3,1.6,0.6,1.6,0.9c0.3,1.1,1.5,0.7,1.9,1.6c1.1,2.5,1,5.9,0.8,8.6
					c0,1,0.5,7.8-1,6.5c-1,2.6-6.3,12-4.2,13.8c-1.6,0.1-0.9,0.1-1,1.1c-0.1,0.8-0.6,0.6-0.8,1.5c-0.6,2.2-3.2,4.5-4.5,6.3
					c-3.2,4.4-6.1,9.4-9.8,13.4c-3.5,3.9-8.6,9.5-9.9,14.6c-1.3,4.9-1.9,10.7-1.3,15.8c0.6,5.6,1,10,5.2,14.1
					c3.6,3.6,7.9,6.1,12.3,8.6c2.2,1.3,15,5,16,1.1c0.6-2.3,1.2-5.3,1.3-7.9c0.1-1.1-0.6-4.8,0.9-5.1c-1.8-0.8-0.3-13-0.1-13
					c1.1,8.6,0.2,17.5,0.3,26.2c0.8-0.2,1.5-0.4,2.2-0.3c-0.7,1.8-2.8,1.3-2.5,3.8c0.1,1.1-0.1,2.2,0.1,3.2c0.3,1-0.7,1.4-0.9,2.3
					c-0.6,2.4-0.2,3.3,0.9,5.2c0.4,0.6-1.8,5.3-2.2,6.2c-0.5-0.6-1-1.1-1.5-1.6c-2.3,2.3-8.5,1.4-11.4,0.4c-4.6-1.6-9.2-3-13.7-4.7
					c-0.7-0.3-3.9-1.5-3.4,0.8c0.4,1.7,4.2,3.5,5.6,4.4c2.3,1.3,4.6,2.3,7,3.2c1.1,0.4,2.3,0.9,3.4,1.3c3.9,1.3-0.6-0.4,1.3,1
					c0.9-1,0.7-1,2.1-0.6c-2.4,0.8,0.1,1.1,1.1,1.1c1.6,0,3.1,0.3,4.8,0.1c0.8-0.1,2.3,0,3.2,0.3c1.8,0.6-2.6,1.4-2.4,1.3
					c-2.2,1.1-8.4,0.1-10.8-0.9c-2.9-1.3-6.1-1.9-9.2-3c-1.1-0.4-0.3-1.8-1.2-2.1c-1.8-0.7-3.5-1.3-5.2-2.4c-3.2-2-6.1-5-9.4-6.6
					c-1.4-0.7-2-2.2-2.9-3.2s0.4-3,1.6-1.6c1.8,2.2,5.5,5.3,8.2,2.4c-0.7-0.6-0.6,0.7,0,0c-1.2-1-1-2.3-2.2-3.4
					c-1.3-1.1-4-2.4-4.9-3.7c-2.7-3.7-4.4-7.4-5.6-11.9c-1.2-4.7-2.3-9.8-2.8-14.6c-0.4-4.2-0.8-8.9-2.2-12.9
					c-0.6-1.5-1.6-1.1-2.1-3c-0.6-2.4-1.1-4.8-2.2-7c-0.7-1.6-1.8-2.5-2.9-3.8c-1.1-1.3-1.1-2.6-2.2-3.9c-1.4-1.5-3.9-7.7-6.5-7.2
					c0.5-0.1-2.4-3-2.7-3.2c-1.7-1.4-3.5-2.1-5.4-3.1c0.1-0.3,0.3-0.4,0.7-0.4c-0.6-0.6-1,0.1-1.5,0.3c0.1-0.1-2.1-1.6-2-1.6
					c-1-0.4-6.2-0.8-6.4-2.2c-0.1-0.9-1.1-1-1.7-1.4c-0.6-0.5-0.1-2,0.6-1.5c1.4,1,4.1,2,3-1c0.3-0.3,0.6-0.1,0.9,0.3
					c0.1-1.1,0.3-1.2-0.5-1.8c-0.4-0.3,0.4-1.6,0.3-1.9c-0.2-1-0.6-1.5-1.1-2.3c1-0.4-0.4-1.8-0.6-2.2c-1.5-2-2.9-3-5-4.4
					c-1.6-1-2.4-3.2-3-4.9c-0.9-2.3-0.5-1.2-2.7-1c-2.2,0.2-1.6,1.8-2.9,3c-1.3,1.2-4.9,0.7-5.9-0.6c-2.2-2.6,4-1.4,4.2-2.7
					c0.1-0.5-2.3-3.2-2.8-3.7c-0.6,0.4,0.4,0.9-0.1,1.2c-1.4-2.3-2.2-2.4-4.8-0.9c-2.5,1.5-3.2-1-5.9-1.3c-0.8-0.1-1.6,0-2.5,0.2
					c-1.6,0.3-2.3-0.1-3.7-0.1c-2.3,0-3.3,3.2-3,4.9c1.2,0,1.3,0.4,2.3,1.7c1.8,2.4-0.8,2.7-1.4,4.5c-0.5,1.6-2.4,0.7-3.5,1.6
					c-1.5,1.3,0.3,4.9,2.5,4.2c1.5-0.5,4.4,1.7,5.4,2.7c1.8,1.9,2.1,3.9,2.9,6.2c0.4,1.2,0.7,2.4,0.9,3.7c0.2,1.2-1.3,0.6-1.6-0.1
					c-1-1.6-0.7-4.4-2.2-5.8c-2.9,5.2,0.3,11.7,4.9,14.4c3.7,2.2,11.7,4.2,15.5,0.6c-0.6-0.3-2.1-0.2-1.9-1c0.6,0,2,0.6,2.5,0.2
					c0.6-0.6-1.1-3.4-1.3-4.1c-0.8-3,2-1.6,3-0.3c1.6,2.2,2.7,4.1,2.7,6.7c-0.1,2.8,0.7,5.6,0.8,8.4c0.1,3.7-0.4,7.2-0.7,10.9
					c-0.2,2.6-1.5,4.8-2,7.2c-0.3,1.1-0.8,2.1-1.1,3.1c-0.2,0.9-0.8,1.4-1.6,1.6c0.1,0.3,0.2,0.6,0.2,1c-0.5,2.2-2.7,4-3.7,5.9
					s-2.6,4.1-4,5.8c-1.5,1.7-2.8,4-4.2,5.8c-1.4,1.8-2.3,4-4,5.5c-1.3,1.2-4.4,3.1-4,5.2c0.1,0.4-1.4,0.9-1.6,1.5
					c-0.4,1.3-1.1,1.5-1.8,2.5c-0.5,0.7-0.9,2-1.5,2.9c-0.8,1.2-1.2,2.7-1.6,4.1c-1.1,3.4-1.4,7.2-1.5,10.8c-0.1,1.8,1.1,7.6-2,6.3
					c0.1,0.5,0.1,1-0.1,1.4c-0.9-0.6-1-2.3-2-1.6c-0.6-5.4,0.2-11.7,2.3-16.9c1.8-4.3,2.9-9.8,5.8-13.6c1.3-1.6,2.3-3.6,3.9-5
					c0.8-0.6,3-3.2,3.2-3.9c0.4-1.4,3.3-4.4,4.4-5.2c0.4-0.8,1.5-2,1.5-2.8c0.1-1,3.2-1.5,1.6-2.6c-5.4,3.4-11.2,6.7-15.5,11.6
					c-0.9,1-1.6,2.1-2.5,3.1c-1.1,1.2-1-1.6-0.5-2.2c1.6-2.2,3.2-4,4.9-6.1c0.9-1.1,2.1-1.8,3.1-2.9c1.8-1.8,0.5-1.2-0.8-2
					c-3-2,3.9-5,4.8-5.5c2.8-1.8,5.8-3.3,8.6-5.2c2-1.3,8.4-6.5,5.8-8.9c-6.2,6.3-14,11.1-22.2,13.9c-5.3,1.8-9.4,4.6-12.4,9.3
					c-1.1,1.6-1.6,1.7-1.6,3.9c0,0.7-0.6,5.2,1,4c0.7-0.5,1.7-2.7,2.2-3.4c0.8-1.4,2.4-2.8,3.5-3.9c1.2-1.1,2.6-2.3,3.9-3.2
					c0.6-0.4,1.3-1.4,2-1.6c1.5-0.4-0.1,2.7-0.4,3c-3.8,3.1-8.1,7.5-9.9,12.4c-0.7,1.8-2.4,4.1-1.9,6.2c0.2,0.8-0.1,5-1,5.3
					c1,0.6-0.1,1.5-0.4,2.2c0.9,0.4,4.4-6.7,4.8-7.8c0.3-1.2,1-2.2,2.3-1.5c1.5,0.8-0.6,3.7-1,4.7c-2.9,7.7-4.4,15.6-2.7,23.6
					c-2.5,0.1-0.8-9.6-2.9-9c0,1.3,0.5,3.2-0.6,4.2c-0.4-0.9-0.3-2.7-0.3-3.7c0.1-1.1-0.5-2-0.6-3.2c-0.2-3.2-0.4-6.3-0.2-9.4
					c0.3-5.6,0.6-11.2,0.8-17c0.3-5.3,0.3-10.7,0.3-16.1c0-3.5,0.3-7.2,0-10.6c-0.1-1.5-0.7-7.2,0.6-8c0.6,4.6,0,9.6,0.2,14.3
					c0.1,1.8-1.2,13.1,0.2,13.6c0.9-1.3,1.3-2.4,2.4-3.6c1.6-1.8,3.8-2.9,5.4-4.7c-2.6,0.6-5,1.7-7.1,3.4c-1.1-1.8,12-5.9,13.4-6.3
					c4.7-1.6,8.4-4.3,12.6-6.8c4-2.4,7.5-8.3,9.4-12.4c1-2.3,1.8-4.6,1.6-7.1c-0.1-1.8,1.3-4.4-1.6-2.9c-8.4,4.3-21.5-0.9-24-9.9
					c-0.4-1.6-0.8-4-0.8-5.8c-0.1-2.7,1.1-3.7-0.1-6.3c-0.9-1.8-3-0.5-4.2-0.6c-1.7-0.2-3.2-7.3-1.6-7.3L21.5,29z"/>
			</defs>
			<clipPath id="SVGID_2_">
				<use xlink:href="#SVGID_1_"  style="overflow:visible;"/>
			</clipPath>
			
				<linearGradient id="SVGID_3_" gradientUnits="userSpaceOnUse" x1="481.6483" y1="537.4969" x2="1119.5752" y2="537.4969" gradientTransform="matrix(1 0 0 1 -461.6699 -456.3278)">
				<stop  offset="0" style="stop-color:#CB2128"/>
				<stop  offset="0.1" style="stop-color:#8F2125"/>
				<stop  offset="0.4" style="stop-color:#C82229"/>
				<stop  offset="0.71" style="stop-color:#781C1E"/>
				<stop  offset="1" style="stop-color:#CB2128"/>
			</linearGradient>
			<rect x="13.5" y="3.2" class="st0" width="139.1" height="155.9"/>
		</g>
	</g>
</g>
</svg>
