<?xml version="1.0" encoding="utf-8"?>
<!-- Generator: Adobe Illustrator 22.0.1, SVG Export Plug-In . SVG Version: 6.00 Build 0)  -->
<svg version="1.1" id="Capa_1" xmlns="http://www.w3.org/2000/svg" xmlns:xlink="http://www.w3.org/1999/xlink" x="0px" y="0px"
	 viewBox="0 0 1031 252" style="enable-background:new 0 0 1031 252;" xml:space="preserve">
<style type="text/css">
	.st0{fill:#FFFFFF;}
	.st1{clip-path:url(#SVGID_2_);fill:url(#SVGID_3_);}
	.st2{fill:#C9292C;}
</style>
<g>
	<path class="st0" d="M715.2,65.8v-12h5.4c1.1,0,1.9,0.1,2.5,0.3s1,0.6,1.3,1.2c0.3,0.5,0.5,1.2,0.5,1.8c0,0.9-0.3,1.6-0.8,2.2
		c-0.6,0.6-1.4,1-2.6,1.1c0.4,0.2,0.7,0.4,1,0.6c0.5,0.4,0.9,1,1.3,1.6l2.1,3.3h-2l-1.6-2.5c-0.5-0.7-0.9-1.3-1.2-1.7l-0.8-0.8
		l-0.7-0.3c-0.2,0-0.5-0.1-0.9-0.1h-1.9v5.4L715.2,65.8L715.2,65.8z M716.8,59.1h3.4c0.7,0,1.3-0.1,1.7-0.2c0.4-0.2,0.7-0.4,0.9-0.7
		l0.3-1.1c0-0.6-0.2-1-0.6-1.4c-0.4-0.4-1.1-0.6-2-0.6h-3.8L716.8,59.1L716.8,59.1z"/>
	<path class="st0" d="M719.9,48.2c-6.2,0-11.3,5.1-11.3,11.3s5,11.3,11.3,11.3c6.2,0,11.3-5.1,11.3-11.3S726.1,48.2,719.9,48.2
		 M719.9,69c-5.3,0-9.5-4.3-9.5-9.5c0-5.3,4.3-9.5,9.5-9.5c5.3,0,9.5,4.3,9.5,9.5C729.4,64.8,725.1,69,719.9,69z"/>
	<g>
		<g>
			<defs>
				<path id="SVGID_1_" d="M90.2,130.5L90.2,130.5L90.2,130.5L90.2,130.5L90.2,130.5L90.2,130.5L90.2,130.5L90.2,130.5L90.2,130.5
					L90.2,130.5L90.2,130.5L90.2,130.5L90.2,130.5L90.2,130.5L90.2,130.5L90.2,130.5L90.2,130.5L90.2,130.5L90.2,130.5L90.2,130.5
					L90.2,130.5L90.2,130.5L90.2,130.5L90.2,130.5L90.2,130.5L90.2,130.5L90.2,130.5L90.2,130.5L90.2,130.5L90.2,130.5L90.2,130.5
					L90.2,130.5L90.2,130.5L90.2,130.5L90.2,130.5L90.2,130.5L90.2,130.5L90.2,130.5L90.2,130.5L90.2,130.5L90.2,130.5L90.2,130.5
					L90.2,130.5L90.2,130.5L90.2,130.5L90.2,130.5L90.2,130.5L90.2,130.5L90.2,130.5L90.2,130.5L90.2,130.5L90.2,130.5L90.2,130.5
					L90.2,130.5L90.2,130.5L90.2,130.5L90.2,130.5L90.2,130.5L90.2,130.5L90.2,130.5L90.2,130.5L90.2,130.5L90.2,130.5L90.2,130.5
					l-0.1-0.1l0,0l0,0l0,0l0,0l0,0l0,0l0,0l0,0l0,0l0,0l0,0l0,0l0,0l0,0l0,0l0,0l0,0l0,0l0,0L90.2,130.5L90.2,130.5L90.2,130.5
					L90.2,130.5L90.2,130.5L90.2,130.5L90.2,130.5L90.2,130.5L90.2,130.5L90.2,130.5L90.2,130.5L90.2,130.5L90.2,130.5L90.2,130.5
					L90.2,130.5L90.2,130.5z M181.1,140.7L181.1,140.7C181,140.5,181,140.8,181.1,140.7L181.1,140.7z M109.1,47.2L109.1,47.2
					C108.9,46.9,108.8,47.3,109.1,47.2C109.1,47.1,109,47.2,109.1,47.2z M122.5,66.1L122.5,66.1C122.4,65.9,122.2,66.4,122.5,66.1
					C122.5,66,122.5,66.1,122.5,66.1z M58.2,148.2L58.2,148.2C57.9,148.4,58.4,148.3,58.2,148.2L58.2,148.2z M198.2,46.9L198.2,46.9
					C198.4,46.6,197.9,46.7,198.2,46.9C198.3,46.8,198.2,46.8,198.2,46.9z M235.4,34.9L235.4,34.9L235.4,34.9L235.4,34.9L235.4,34.9
					L235.4,34.9L235.4,34.9L235.4,34.9L235.4,34.9L235.4,34.9L235.4,34.9L235.4,34.9L235.4,34.9L235.4,34.9L235.4,34.9L235.4,34.9
					L235.4,34.9L235.4,34.9L235.4,34.9L235.4,34.9L235.4,34.9L235.4,34.9L235.4,34.9L235.4,34.9L235.4,34.9L235.4,34.9L235.4,34.9
					L235.4,34.9L235.4,34.9L235.4,34.9L235.4,34.9L235.4,34.9L235.4,34.9L235.4,34.9L235.4,34.9L235.4,34.9L235.4,34.9L235.4,34.9
					L235.4,34.9L235.4,34.9L235.4,34.9L235.4,34.9L235.4,34.9L235.4,34.9l-0.1-0.1l0,0l0,0l0,0l0,0l0,0l0,0l0,0l0,0l0,0l0,0l0,0l0,0
					l0,0l0,0l0,0l0,0l0,0l0,0l0,0l0,0l0,0l0,0l0,0l0,0l0,0l0,0l0,0l0,0l0,0l0,0l0,0l0,0l0,0l0,0l0,0l0,0l0,0l0,0l0,0l0,0l0,0l0,0
					l0,0l0,0l0,0L235.4,34.9L235.4,34.9L235.4,34.9L235.4,34.9L235.4,34.9L235.4,34.9L235.4,34.9L235.4,34.9L235.4,34.9L235.4,34.9z
					 M59.5,21.6L59.5,21.6C59.2,21.8,59.7,22,59.5,21.6C59.4,21.7,59.5,21.7,59.5,21.6z M27.2,187L27.2,187
					C26.8,187.2,27.4,187.6,27.2,187C27.1,187,27.2,187.1,27.2,187z M239.9,192.1L239.9,192.1L239.9,192.1L239.9,192.1L239.9,192.1
					L239.9,192.1L239.9,192.1L239.9,192.1L239.9,192.1L239.9,192.1L239.9,192.1L239.9,192.1L239.9,192.1L239.9,192.1L239.9,192.1
					L239.9,192.1L239.9,192.1L239.9,192.1L239.9,192.1L239.9,192.1L239.9,192.1L239.9,192.1L239.9,192.1L239.9,192.1L239.9,192.1
					L239.9,192.1L239.9,192.1L239.9,192.1L239.9,192.1L239.9,192.1L239.9,192.1L239.9,192.1L239.9,192.1L239.9,192.1L239.9,192.1
					L239.9,192.1L239.9,192.1L239.9,192.1L239.9,192.1L239.9,192.1L239.9,192.1L239.9,192.1L239.9,192.1L239.9,192.1L239.9,192.1
					L239.9,192.1L239.9,192.1L239.9,192.1L239.9,192.1L239.9,192.1L239.9,192.1L239.9,192.1L239.9,192.1L239.9,192.1L239.9,192.1
					L239.9,192.1L239.9,192.1L239.9,192.1L239.9,192.1L239.9,192.1L239.9,192.1L239.9,192.1L239.9,192.1L239.9,192.1L239.9,192.1
					L239.9,192.1L239.9,192.1L239.9,192.1L239.9,192.1L239.9,192.1L239.9,192.1L239.9,192.1L239.9,192.1L239.9,192.1L239.9,192.1
					l-0.1-0.1l0,0l0,0l0,0l0,0l0,0l0,0l0,0l0,0l0,0l0,0l0,0l0,0l0,0l0,0l0,0l0,0l0,0l0,0l0,0l0,0l0,0l0,0l0,0l0,0l0,0l0,0l0,0l0,0
					l0,0l0,0l0,0l0,0l0,0l0,0l0,0l0,0l0,0l0,0l0,0l0,0l0,0l0,0l0,0l0,0l0,0l0,0l0,0l0,0l0,0l0,0l0,0l0,0L239.9,192.1L239.9,192.1
					L239.9,192.1L239.9,192.1L239.9,192.1z M210.1,74.1L210.1,74.1C209.7,73.6,209.5,74.2,210.1,74.1C210,73.9,210,74.1,210.1,74.1z
					 M77.1,135.4L77.1,135.4C77.4,135.8,77.7,135.2,77.1,135.4C77.1,135.5,77.2,135.3,77.1,135.4z M200.4,20L200.4,20
					C199.7,19.7,199.6,20.2,200.4,20C200.2,19.9,200.1,20.1,200.4,20z M201.2,87.8L201.2,87.8C200.5,87.3,200.6,88,201.2,87.8
					C200.9,87.6,201,87.8,201.2,87.8z M125.5,60.3L125.5,60.3C125.1,59.9,125,60.7,125.5,60.3C125.4,60.2,125.4,60.3,125.5,60.3z
					 M183.2,128.5L183.2,128.5C183.6,128.1,182.9,128,183.2,128.5C183.3,128.4,183.1,128.4,183.2,128.5z M152.3,47.9L152.3,47.9
					C152.7,47.4,151.8,47.2,152.3,47.9C152.4,47.7,152.2,47.7,152.3,47.9z M111.1,53.5L111.1,53.5c0.3-0.1,0.3-0.3,0-0.6
					C110.8,53,110.8,53.2,111.1,53.5C111.2,53.4,111,53.3,111.1,53.5z M159.8,96.6L159.8,96.6C160.3,96,159.2,96.1,159.8,96.6
					C159.9,96.5,159.7,96.5,159.8,96.6z M40.2,223.9L40.2,223.9c0.5,0.1,0.6-0.1,0.3-0.8C40.1,223,40,223.2,40.2,223.9
					C40.3,223.9,40.2,223.6,40.2,223.9z M39.6,158.1L39.6,158.1C39.1,159,40.2,158.6,39.6,158.1C39.5,158.2,39.7,158.2,39.6,158.1z
					 M162.1,76.2L162.1,76.2C163,76.7,162.6,75.7,162.1,76.2C162.3,76.3,162.2,76.1,162.1,76.2z M88.4,134.5L88.4,134.5
					c-0.6,0-0.3,0.4,0,0.7C88.7,135.2,88.7,134.9,88.4,134.5C88.3,134.5,88.4,134.7,88.4,134.5z M183.3,130.1L183.3,130.1
					c-0.6-0.3-1,0.4-0.4,0.7C183,130.6,183.2,130.4,183.3,130.1C183.2,130.1,183.2,130.4,183.3,130.1z M181.6,70.6L181.6,70.6
					c0.2,0.5,0.5,0.5,0.9-0.1C182.3,70,182,70.1,181.6,70.6C181.7,70.7,181.8,70.5,181.6,70.6z M109.9,49.3L109.9,49.3
					c-0.7,0.1-0.6,0.5,0.2,1.1C110.7,50.2,110.6,49.9,109.9,49.3C109.8,49.3,110.1,49.6,109.9,49.3z M239.8,177.4L239.8,177.4
					c0.2-0.5,0-0.7-0.7-0.5C238.9,177.5,239.1,177.6,239.8,177.4C239.8,177.3,239.6,177.4,239.8,177.4z M206.8,178.2L206.8,178.2
					c0.4-0.6,0-0.8-1.1-0.9C205.3,177.9,205.7,178.2,206.8,178.2C206.8,178.1,206.4,178,206.8,178.2z M197.5,34.2L197.5,34.2
					c-0.3-0.6-0.7-0.5-1.2,0.3C196.6,35.1,197,35,197.5,34.2C197.5,34.1,197.2,34.4,197.5,34.2z M231.4,208.9L231.4,208.9
					c-0.2-0.6-0.6-0.6-1.2,0.2C230.4,209.7,230.8,209.6,231.4,208.9C231.3,208.8,231.1,209.1,231.4,208.9z M162,46.7L162,46.7
					c0,0.6,0.4,0.7,1.3,0.2C163.4,46.3,163,46.2,162,46.7C162,46.8,162.5,46.7,162,46.7z M138.7,54.2L138.7,54.2
					c-0.5-0.6-0.8-0.6-1.1-0.1C137.9,54.7,138.2,54.8,138.7,54.2C138.4,54,138.4,54.4,138.7,54.2z M180.8,71.7L180.8,71.7
					c0.2-0.6-0.1-0.8-0.9-0.5C179.7,71.7,180,71.9,180.8,71.7C180.8,71.5,180.5,71.6,180.8,71.7z M154.4,102.4L154.4,102.4
					c-0.7,0.2-0.7,0.6,0,1.2C155,103.5,155,103.1,154.4,102.4C154.2,102.5,154.5,102.8,154.4,102.4z M171.1,147.8L171.1,147.8
					c-0.4,1-0.4,1.2,0.4,1.4C171.4,148.7,171.3,148.3,171.1,147.8z M155.4,103.8L155.4,103.8c-0.8,0.6-0.7,1.2,0.4,1.9
					C156.4,105.1,156.2,104.5,155.4,103.8C155,104.2,155.7,104.4,155.4,103.8z M199.4,92.6L199.4,92.6c0.5-0.8,1.1-1.6,1.7-2.6
					C200.1,90.3,199.3,91.3,199.4,92.6z M31.3,170.7L31.3,170.7c-0.6-1.6-1.7,0.8-1.9,1.2C30.2,172.6,30.8,172.2,31.3,170.7
					C31.2,170.5,30.8,171.2,31.3,170.7z M124.3,59.9L124.3,59.9c-1-0.9-2.6,0.8-1.8,1.4C123.4,61.6,124,61.1,124.3,59.9
					C124.1,59.7,123.9,60.4,124.3,59.9z M200.7,26.4L200.7,26.4c-1-0.4-2,3.1-1.6,4C200.1,29.4,200.3,27.7,200.7,26.4
					C200.5,26.3,200.5,27.1,200.7,26.4z M29.3,174.3L29.3,174.3C26.6,179.6,31.3,176.3,29.3,174.3C28.9,175.1,30,175,29.3,174.3z
					 M195.3,37.1L195.3,37.1c-0.2-0.1-3.8,4.5-4.4,5.1C192.2,43.3,194.9,38.1,195.3,37.1C195.2,37,194.4,39.3,195.3,37.1z
					 M160.2,114.6L160.2,114.6c0-2.1-2-3.1-1.4-5.2C157.1,110.4,158.3,113.4,160.2,114.6C160.1,113.7,158.5,113.6,160.2,114.6z
					 M40.2,221.1L40.2,221.1c1.1-0.1,1.1-6.4,0.7-7.4C39.7,213.8,40.1,220,40.2,221.1C40.3,221.1,40.2,220.4,40.2,221.1z
					 M137.8,71.4L137.8,71.4c-0.9-0.9-4.5,2.5-3.7,4.4C135.6,74.5,136.6,72.9,137.8,71.4C137.7,71.3,137.6,71.6,137.8,71.4z
					 M29.3,202.8L29.3,202.8c-1.4,0.9-2.7,0.7-1.2,2.2c-1.1-0.1-1.3,0.4-0.7,1.5C29.9,207.2,29.6,204.1,29.3,202.8
					C28.7,203.3,29.5,203.7,29.3,202.8z M213.2,72.1L213.2,72.1c-0.1-1.5,1.8-3.5,2.5-4.8c-0.8-0.5-4.7,4.6-5.5,5.5
					C211.6,74.1,211.8,72.9,213.2,72.1C213.1,71.1,212.8,72.3,213.2,72.1z M124.4,58.6L124.4,58.6c3.7,2.2,9.2-1.5,12.9-3.7
					c-1.6-1.3-5.4,0.6-7,1.5C127.9,57.7,127,58.1,124.4,58.6C125.3,59.1,125,58.5,124.4,58.6z M134.7,59.5L134.7,59.5
					c-2.6-1.2-7.2,3.4-9.4,4.5c-0.8,0.4-4.9,5.5-3.2,5.1c2.3-0.5,3.8-3.3,5.4-5C129.8,61.7,132.6,61.5,134.7,59.5
					C133.5,58.9,133.8,60.4,134.7,59.5z M183.3,152.5L183.3,152.5c1.5,0.1-0.1-8.6-0.1-9.9c0-1.9,0.7-9.6-0.9-10.9
					c-1.1,2.6-1.3,5.3-1.3,8.1c0.5,0.2,0.8-0.1,0.9-0.9C181.9,143.5,181.5,148.3,183.3,152.5C183.5,152.6,181.5,148.2,183.3,152.5z
					 M86.4,236.9L86.4,236.9C86.6,237,86.5,236.8,86.4,236.9L86.4,236.9z M103.7,169.1L103.7,169.1L103.7,169.1L103.7,169.1
					L103.7,169.1L103.7,169.1L103.7,169.1L103.7,169.1L103.7,169.1L103.7,169.1L103.7,169.1L103.7,169.1L103.7,169.1L103.7,169.1
					L103.7,169.1L103.7,169.1L103.7,169.1L103.7,169.1L103.7,169.1L103.7,169.1L103.7,169.1L103.7,169.1L103.7,169.1L103.7,169.1
					L103.7,169.1L103.7,169.1L103.7,169.1L103.7,169.1L103.7,169.1L103.7,169.1L103.7,169.1L103.7,169.1L103.7,169.1L103.7,169.1
					L103.7,169.1L103.7,169.1L103.7,169.1L103.7,169.1L103.7,169.1L103.7,169.1L103.7,169.1L103.7,169.1L103.7,169.1L103.7,169.1
					L103.7,169.1L103.7,169.1L103.7,169.1L103.7,169.1L103.7,169.1L103.7,169.1L103.7,169.1L103.7,169.1L103.7,169.1L103.7,169.1
					L103.7,169.1L103.7,169.1L103.7,169.1L103.7,169.1L103.7,169.1L103.7,169.1L103.7,169.1L103.7,169.1L103.7,169.1L103.7,169.1
					L103.7,169.1L103.7,169.1L103.7,169.1L103.7,169.1L103.7,169.1L103.7,169.1L103.7,169.1L103.7,169.1L103.7,169.1L103.7,169.1
					L103.7,169.1L103.7,169.1L103.7,169.1L103.7,169.1L103.7,169.1L103.7,169.1L103.7,169.1L103.7,169.1z M109.1,226L109.1,226
					c-0.6,0.1-0.6,0.4,0,0.9C109.5,226.9,109.5,226.5,109.1,226C109,226,109.2,226.3,109.1,226z M91.8,234.5L91.8,234.5
					c2.4,1.1,1.9-0.3,0.5-2C91.6,232.8,91.4,233.5,91.8,234.5C92.1,234.7,91.9,233.8,91.8,234.5z M106.8,200L106.8,200
					c-1.2-0.2-1.5,4.6-1.1,5.4C107.1,204.2,106.7,201.8,106.8,200C106.7,200,106.8,200.5,106.8,200z M91.4,236.7L91.4,236.7
					c-0.6-1.7-2.3-1.6-3.8-1.3c-0.6,0.1-0.5,2.7,1.1,0.5C89.2,237,90.1,237.3,91.4,236.7C91.1,235.7,90.7,236.7,91.4,236.7z
					 M106.1,215.3L106.1,215.3c-1.4,0,1.9,9.1,2.2,10C109.2,225.1,106.5,216.6,106.1,215.3C106,215.3,107,218.6,106.1,215.3z
					 M110.5,214L110.5,214c-0.7,3.7,5.8,17.8,8.7,19.3C116.2,226.7,113.4,220.3,110.5,214z M100.4,237.3c1-2.5,10.1-0.5,12.1-0.3
					c0.9-1.5-6-9.4-6.2-11.4c-0.3-2-1.6-4.1-2.2-6.1c-0.7-2.7-0.8-5.7-1-8.5c-0.5-4.9-0.1-9.4,1.7-14.1c0.5-1.2,2.2-5.9,3.7-6.1
					c1.4-0.2,3.2,1.5,2.8,2.9c-3,10.6-0.2,19.6,4.6,29.1c2.2,4.4,4.1,8.9,6.9,12.8c0.3,0.5,0.5,3.2,0.7,3.2c1.4,0.4,3.2,1.7,4.6,2.3
					c-3.9,3.3-9.7-6.1-12.7-3.9c-2.1,1.6-5.1,0.3-7.5,0.3c-3.1,0-6.8-0.1-9.9,0.3c1,1,1,2,0.2,2.9c-3.3-3.4-6.1-3-10.7-3.2
					c-1.2,0-2.6,0.1-3.8-0.3c-0.1-1.5-2.2-2.2-1.1-0.1c-1.3,0-6.1-0.7-5.8,0.7c0.5,2.6-3.2-1-4-1c-3.3,0.2-15.8,1.5-16.3-2.3
					c5.1,1,10.8,1.3,16.5,0.8c-0.4-1.9-1.2-1.4-2.9-1.3c0-0.7,0.3-1.1,1.1-1.4c0.1-0.6-1.8-3.5-2.1-4.2c-1.2-3.1-1.9-6.4-2.1-9.7
					c-0.5-6.5-0.5-10.9,1.3-17.3c0.2-1,0.4-1.9,0.8-2.8c0.9-1.2,2.6,0.7,2.4,1.6c-0.4,2.1-1.5,5-1.3,7.1c0.1,1.6,0.8,13.8,2.4,13.9
					c0.1-0.9,0.8-6,2.4-5.1c2.3,1.6,1.5,7,1.9,9c0.6,3,1.2,5.6,2.9,8.2c1.4,2.2,6-0.4,5.6,2.4c0.1,0,4.3-0.9,4.9-1
					c-1.5-3.6-4.5-6.5-5.9-10.2c-1.3-3.6-3.1-7.2-4.3-10.8c-2.5-7.7,1.6-14.8,4.5-21.7c1.5-3.4,3.8-7,6-10c1.2-1.6,2.1-3.3,3.1-5.1
					c0.7-1.2,1.7-0.2,2.5-1.2c2.2-2.6,4.7-4.8,6.9-7.4c2.3-2.8,3.6-1.9,5.5-4c1.5-1.7-0.3,4.7-0.9,5.6c-2.1,2.9-4.4,5.8-6.3,8.9
					c-3.6,6.1-8.9,12.2-11.1,19c-2.3,7.1-4.3,16.7-0.9,23.6c1.9,3.9,3.7,7.8,5.6,11.7C96.4,236,99.8,234.9,100.4,237.3
					C101.2,235.2,100,235.7,100.4,237.3z M111.6,123L111.6,123C111.5,122.8,111.2,123.3,111.6,123C111.6,123,111.5,123.1,111.6,123z
					 M102,153.5L102,153.5c1.1,0.4,2-1.9,0.9-2.6C102.6,151.8,102.3,152.7,102,153.5C102.1,153.6,102.3,152.7,102,153.5z
					 M103.8,143.9c2.3-6,6.1-17.8,3.5-24c-1.7,1.3-1.3,5.4-3.4,5.7c-1.1,0.2-2.4,4.1-3.3,2c-1.5-3.4,0.5-6.8,1.2-10.1
					c0.4-1.8,2.5-7.6,1.7-9.2c-1.2-2.3,0.2-6.6,0.4-9c0.2-2.7-1.1-6.8-2.3-9.1c-0.9-1.6-1.2-4-1.5-5.8c-0.8-5.6,3.5-0.5,4.6,1.3
					c2.9,4.7,7,7.5,9.9,12.2c1.5,2.5,4.7,6.3,3.6,9.4c-0.3,0.8,0.7,2.6,0.7,3.6c0,1.5-0.5,3-0.3,4.5c1.6,12-4.3,25.2-10.4,35.3
					c-2.6,4.2-4.5,8.8-6.6,13.1c-1.7,3.7-2-0.5-3.2,1.9c-0.8,1.5-2.9,4.8-4,5.9c-1.7,1.7-3.8,3-5.6,5c-1.8,2-2.3,4.3-3.8,6.4
					c-1,1.5-6.8,15-8,14.3c-1.4-0.8-1.3-4.9-1-6.1c0.7-3.5,2.1-6.4,3.8-9.5c2.9-5.2,6.3-9.1,9.6-13.7c1.7-2.4,3.9-5,5.1-7.6
					c0.8-1.8,3.2-3,3.7-4.9c0.5-1.6,1.8-3.3,2.7-4.9c0.8-1.5,1.4-3,2.2-4.5c0.3-0.6-0.3-2.1-0.1-2.3
					C103.2,143.9,103.5,143.9,103.8,143.9C104.3,142.8,103.6,144,103.8,143.9z M57.3,230L57.3,230C57.1,229.8,57.1,230.2,57.3,230
					L57.3,230z M68.9,183.8L68.9,183.8L68.9,183.8L68.9,183.8L68.9,183.8L68.9,183.8L68.9,183.8L68.9,183.8L68.9,183.8L68.9,183.8
					L68.9,183.8L68.9,183.8L68.9,183.8L68.9,183.8L68.9,183.8L68.9,183.8L68.9,183.8L68.9,183.8L68.9,183.8L68.9,183.8L68.9,183.8
					L68.9,183.8L68.9,183.8L68.9,183.8L68.9,183.8L68.9,183.8L68.9,183.8L68.9,183.8L68.9,183.8L68.9,183.8L68.9,183.8L68.9,183.8
					L68.9,183.8L68.9,183.8L68.9,183.8L68.9,183.8L68.9,183.8L68.9,183.8L68.9,183.8L68.9,183.8L68.9,183.8L68.9,183.8L68.9,183.8
					L68.9,183.8L68.9,183.8L68.9,183.8L68.9,183.8L68.9,183.8L68.9,183.8L68.9,183.8L68.9,183.8L68.9,183.8L68.9,183.8L68.9,183.8
					L68.9,183.8L68.9,183.8L68.9,183.8L68.9,183.8L68.9,183.8L68.9,183.8L68.9,183.8L68.9,183.8L68.9,183.8L68.9,183.8L68.9,183.8
					L68.9,183.8L68.9,183.8L68.9,183.8L68.9,183.8L68.9,183.8L68.9,183.8L68.9,183.8L68.9,183.8L68.9,183.8L68.9,183.8L68.9,183.8
					L68.9,183.8L68.9,183.8L68.9,183.8L68.9,183.8L68.9,183.8L68.9,183.8L68.9,183.8L68.9,183.8L68.9,183.8L68.9,183.8L68.9,183.8
					L68.9,183.8L68.9,183.8L68.9,183.8L68.9,183.8L68.9,183.8L68.9,183.8L68.9,183.8L68.9,183.8L68.9,183.8L68.9,183.8L68.9,183.8
					L68.9,183.8z M52.1,226.8L52.1,226.8c-0.4-0.2-0.3,0.5-0.3,0.7C52.1,227.5,52.2,227.2,52.1,226.8C52,226.7,52,227,52.1,226.8z
					 M35.8,232.9L35.8,232.9L35.8,232.9L35.8,232.9 M201.1,239.7L201.1,239.7L201.1,239.7L201.1,239.7L201.1,239.7L201.1,239.7
					L201.1,239.7L201.1,239.7L201.1,239.7L201.1,239.7L201.1,239.7L201.1,239.7L201.1,239.7L201.1,239.7L201.1,239.7L201.1,239.7
					L201.1,239.7L201.1,239.7L201.1,239.7L201.1,239.7L201.1,239.7L201.1,239.7L201.1,239.7L201.1,239.7L201.1,239.7L201.1,239.7
					L201.1,239.7L201.1,239.7L201.1,239.7L201.1,239.7L201.1,239.7L201.1,239.7L201.1,239.7L201.1,239.7L201.1,239.7L201.1,239.7
					L201.1,239.7L201.1,239.7L201.1,239.7L201.1,239.7L201.1,239.7L201.1,239.7L201.1,239.7L201.1,239.7L201.1,239.7L201.1,239.7
					L201.1,239.7L201.1,239.7L201.1,239.7L201.1,239.7L201.1,239.7L201.1,239.7L201.1,239.7L201.1,239.7L201.1,239.7L201.1,239.7
					L201.1,239.7L201.1,239.7L201.1,239.7L201.1,239.7L201.1,239.7L201.1,239.7L201.1,239.7L201.1,239.7L201.1,239.7L201.1,239.7
					L201.1,239.7L201.1,239.7L201.1,239.7L201.1,239.7L201.1,239.7L201.1,239.7L201.1,239.7L201.1,239.7L201.1,239.7L201.1,239.7
					L201.1,239.7L201.1,239.7L201.1,239.7L201.1,239.7L201.1,239.7L201.1,239.7z M183.3,218.9L183.3,218.9
					C182.7,218.6,182.9,219.2,183.3,218.9C183.2,218.9,183.2,219,183.3,218.9z M184.7,220L184.7,220c-0.5,0.5,0.4,1.3,0.9,0.7
					C185.3,220.5,185,220.2,184.7,220C184.6,220.1,185,220.2,184.7,220z M205,237.7L205,237.7c0.1-0.5-0.2-0.6-1-0.3
					C203.8,237.8,204.2,238,205,237.7C205,237.6,204.6,237.6,205,237.7z M219,237.6c-0.3,0.5-0.6,1-1,1.5c2.2,1.6,4.4-0.9,6.5-1.5
					c-0.4,3.1,1.4,0.3,2.7,0.4c2.5,0.2-0.6,1.9-1.4,2c-3.7,0.1-7.3,0.7-11.1,1.1c-1.6,0.2-3.3,1-5.2,1.1c-2.7,0.1-4.4-1.4-6.8-1.6
					c-2.6-0.3-9.1,1.8-10.8,0.7c1-0.4,1.6-3,2.8-2c1.7,1.4,2.9-2.3,5,0c0.7-4.5-12-9.5-15.7-11.8c-6.1-3.8-11.1-10.7-16.3-15.8
					c-5.1-5-8.7-12.2-12-18.4c-2.8-5.1-8-16.8-4.8-22.2c2.2,1.4,3.3,7.4,4.5,9.8c1.8,3.6,3.3,7,5.8,10.2c4.8,6.2,8.9,12.8,14.4,18.5
					c5.6,5.9,12.4,10.8,19.4,15.2c2,1.2,6.4,0.9,7.8,3c1.8,2.6-5.5,0.3-5.7,0.6c4.6,3,8.7,4.7,14.3,4.5c1.7-0.1,4.4,1.1,5.5,2.3
					C217.9,236.3,217,237.6,219,237.6C218.6,238.3,217.6,237.6,219,237.6z M222.1,21.6L222.1,21.6C221.7,21.3,221.8,22.1,222.1,21.6
					C222,21.6,222,21.7,222.1,21.6z M206.7,56.6L206.7,56.6C206.2,56.2,206.2,57,206.7,56.6C206.6,56.5,206.6,56.7,206.7,56.6z
					 M208.5,53L208.5,53c-0.8-1-2,1.3-1.2,1.7C207.7,54.1,208.1,53.5,208.5,53C208.4,52.9,208.1,53.5,208.5,53z M222,27.9L222,27.9
					c0.9-0.1,0.6-3.5-0.1-4C221.9,25.2,222,26.6,222,27.9C222.1,27.9,222,26.6,222,27.9z M211.2,56.4L211.2,56.4
					c2.6-0.4,5.7-7.9,6.8-10c2.7-5.1,4.5-11.2,4.4-17c-0.8-0.1-3.7,10.3-4.3,11.8C216,46.6,213.6,51.2,211.2,56.4
					C211.5,56.4,211.7,55.4,211.2,56.4z M206.5,58.1c-2.6,1.1-6.3,2.2-8.3,5.2c-1.6,2.5-5.6,0.2-2.4-1.6c2.3-1.3,4.1-4.4,5.6-6.4
					c1.2,1.8,1.8-2.9,3.5-4.7c3.2-3.4,6.6-9,8-13.4c1.9-5.8,3.2-12.2,4-18.3c0.5-3.5,1.9-5.6,5.3-6.2c0.2,6.5,1.3,12.5,0.6,19.1
					c-0.9,8-3.1,14.1-7.1,21.1C209,64.6,197,74,184.4,78.5c-5.5,2-12.7,3.8-15.9,9.2c-1.3,2.2-4.7,1-2.4-1.8s5.3-5.2,8.2-7.3
					c6-4.4,12.9-5.5,19.3-9C197.9,67.4,206.2,63.1,206.5,58.1z M124.5,123.5c0.3-0.4,0.6-0.9,0.8-1.4c1.8,1.7,0.9,3.6,1.8,5.8
					c0.8,2.2,1.9,4.3,2.2,6.7c0.4,2.9,0.4,5.7,0.6,8.6c0.2,0.9-0.2,1.5-1.1,1.7c-0.9,0.1-0.9,3.7-0.8,3.5
					c-2.2,11.5-8.6,19.2-15.1,28.6c-3,4.4-6.5,7.6-8.8,12.6c-2,4.2-3.5,9-4.6,13.6c-1,4-3,10.4-1.5,14.4c0.6,1.7,3.4,5.8,2.8,7.6
					c-0.9,3-4-4.2-4-4.2c-4.9-11.4-2.3-22.3,3.2-32.9c4.7-9.1,13.5-16,17.4-25.5c0.9-2.3,2.5-4.1,2.6-6.7c0-1,0.2-3.8-1.7-1.7
					c-1.2,1.4-2.5,4.5-4.9,3.7c-2.7-0.9,0.7-5.5,1.5-6.7c3-4.7,5.9-9.6,7.3-14.9c0.7-2.7,1.1-5.6,1.2-8.3
					C123.4,126.2,121.5,123.7,124.5,123.5C124.5,123.5,122.7,123.6,124.5,123.5z M128.3,179.4L128.3,179.4
					C128,178.8,127.9,179.7,128.3,179.4C128.3,179.3,128.2,179.4,128.3,179.4z M123.7,181.2c-1-2.2,6.2-9.9,7.4-11.9
					c3-5.1,3.3-9.3,3.9-15c0.2-2,0.7-4.6-0.4-6.4c-0.9-1.5,1.7-1.7,2.1-2.8c1.7-4.6,4.3-1.8,6.3,1.2c5.3,8,5.6,16.2,1.1,24.7
					c-0.7,1.3-5.1,12-6,10.1c-1-2,1.4-4.1,0.5-5.6c-0.7-1.1-2.3,0.3-1.8-2.2c1.8-8.8,12.8-16.4,3.8-25.4c-4.1-4.1-1.2,5.3-1,6.4
					c0.6,5.5-1.7,11.2-3.6,16.2c-3.4,8.6-8.8,17.7-9.6,26.8c-0.6,6.8,5.2,14.5,7.5,20.9c-2.7-2-3.7-0.6-5.3-3.7
					c-2.2,3.8-3-1.2-3.6-3.4c-0.9-3.1-1.7-6.3-2.6-9.4C120.1,194.4,119.2,187.8,123.7,181.2C123.3,180.3,123.1,182.2,123.7,181.2z
					 M139.4,123.9L139.4,123.9C138.9,123.3,138.9,124.4,139.4,123.9C139.3,123.8,139.3,124,139.4,123.9z M140.1,117.5L140.1,117.5
					c-0.5,0.2-0.3,1,0.3,0.8C140.3,118,140.2,117.7,140.1,117.5C140,117.5,140.2,117.7,140.1,117.5z M133.9,110.6L133.9,110.6
					c0.1,0.8,0.1,1.6,0.2,2.3C134.9,111.9,134.8,111,133.9,110.6z M125.1,92.2L125.1,92.2L125.1,92.2L125.1,92.2z M128.9,105.6
					c1.3,1.5,2.6,3,4,4.5c0.1-4.5-0.8-16.5-7.1-17.4c1,1.5,3.5,5.3,2.1,7.2c-1.2,1.7-3.1-3.1-3.5-3.5c-4.4-5.5-10.6-10.9-16.4-14.9
					c-1.7-1.2-7-4-6.1-6.7c0.2-0.8,4.6,1.8,6,1.5c5.3-1.2,13.7,6.5,17.2,9.5c11.4,9.6,18.1,26.3,17.4,40.9c0,1-0.9,8.9-2.8,8.3
					c-1.2-0.4-1.2-3.3-1.2-4.2c0-1.7-1.1-1.8-1.8-3.1c-1.7-3.2-2.1-7.2-3.7-10.5C131.5,113.9,127.1,109.2,128.9,105.6
					C130.1,107.1,128.3,106.7,128.9,105.6z M155,142.7c-0.7,0.5,0.9,7.4,1.2,8.4c1.1,3.7,2.4,7.2,3.9,10.7c1.8,4.1,3.4,8.3,5.1,12.4
					c0.6,1.3,5.5,9.4,1.7,9.2c-2.8-0.2-7.1-8.8-8.2-11.2c-1.9-4.3-2.8-9.7-5-13.7c-2.1-3.7-1.7-8-2.8-11.6
					c-1.3-4.4-1.9-9.9-1.3-14.6c0.2-2-1.7-4.4-2.1-6.4c-0.6-2.7-1.1-5.5-1.7-8.2c-1.1-4.5-2.7-8.9-5.1-12.9c-2-3.3-3-7.2-5.7-10.2
					c-1.9-2-4.1-3.7-5.5-6.2c-1.9-3.4,1.8-2.1,3.1-1.1c7.8,5.9,12.7,15.9,16.2,24.8c1.8,4.7,2.9,8.8,3.6,13.7
					C153.2,130.9,152.2,138.4,155,142.7C154.4,143.2,154.7,142.3,155,142.7z M188.5,242.2L188.5,242.2
					C188.9,241.8,188.2,241.9,188.5,242.2C188.5,242.2,188.4,242.2,188.5,242.2z M144.7,184.7c-3.1,7.9,1.2,17.1,4.9,24
					c1.8,3.3,3.4,7,6.4,9.4c2.1,1.7,7.1,3.5,2.3,4.7c-6.2,1.5-12.1-9.9-13.9-14.9c-2.6-7.4-4.9-17.9-2.4-25.6c2.8-8.5,8.3,7,9,10
					c1.7,7.8,5.5,14.9,10.5,21.2c5.2,6.5,11.9,14.3,19.8,17.7c2.5,1.1,3.3,2.5,5.4,3.8c4.1,2.6,3.8,3,5.5,7c-2.5,1.7-7,0.8-9.8,0.1
					c0.6,1.9-1.8,1.4-2.5,0.4c-0.8-1.2,1.1-3.8,2.4-2.9c1-3.2,8.4,5.2,8.4,0.4c-1.5,0.7-1.9-0.8-4-0.7c1.2-2.2-2.1-3-3.9-3.9
					c-3.4-1.6-6.5-4.2-9.4-6.5c-4-3.2-7.9-6.8-11.2-10.8c-4.2-4.9-7.8-9.9-10.6-15.8C150.5,200.5,146.5,184.7,144.7,184.7
					C144.5,185.1,144.8,184.7,144.7,184.7z M130.1,230.8L130.1,230.8C130,231.1,130.2,231,130.1,230.8
					C130.1,230.9,130.1,230.9,130.1,230.8z M135.9,227.8L135.9,227.8C135.8,228.1,136.1,228,135.9,227.8
					C135.9,227.8,136,227.8,135.9,227.8z M134.1,238.6L134.1,238.6c-1.2-1.2-2.3-2.2-3.4-3.3C130.1,236.6,131.8,238.2,134.1,238.6z
					 M138.1,243.7c-1.5-2.5-3.5-1.8-6-3.3c-2.9-1.7-5.5-4.2-6.8-7.3c-3.5-7.7-8.1-16.6-8.8-25.1c-0.2-2.9-1.5-10.4,0.1-12.9
					c1.9-2.9,2.6,4.9,2.6,5.4c-0.1,5.1,2.2,9.6,4.1,14.1c1.7,4,3.9,10.9,7.6,13.5c-1.2-3.6-0.2-2,1.7-2.7c0.7-0.3-0.8-2.1,0.4-2.5
					c1.2-0.5,1.7,2.4,2.1,2.9c0.3,0.4,3.4,2.3,2,2.9c-1.4,0.6,0.9,3,1.3,3.5c1.3-1,0-1.7-0.7-2.5c1.8-1.5,4.6,6.6,4.3,8.4
					c-0.4,2.5-2.2,0.5-3,1.4C138,240.7,139.5,243.2,138.1,243.7C137.8,243.3,138.2,243.7,138.1,243.7z M149.4,231.5L149.4,231.5
					c0.8-0.5,0.5-1.1-1-1.9C147.6,230.2,147.9,230.8,149.4,231.5C149.5,231.4,148.9,231,149.4,231.5z M137.4,210.2L137.4,210.2
					c-1.7,0.4,7.6,19.8,10,18.1C145.4,222.2,140.3,216.1,137.4,210.2C137.2,210.3,138.7,213,137.4,210.2z M152.8,232.6
					c1.7,1.9,3.5,3.1,5.4,4.7c1.1,0.9,1.3,3.5-0.5,2.1c-5-3.6-10.2-7.1-14-12c-3.5-4.4-6.1-9.8-7.6-15.2c-1.7-6-4.9-14.1-3-20.3
					c0.4-1.2,1.8-1.1,2,0.2c0.5,3.2,0.8,6.5,1.8,9.6c2,6.2,5,12.1,8.4,17.6c3,4.8,7.4,11,12.4,14c2.8,1.7,11.1,4.3,10.2,8.2
					c-1.4-0.5-2.5-1.6-4-1.1c-1,0.3-1.5-1.3-2.3-1.7C158.8,237.2,155.8,233.1,152.8,232.6C154.1,234.2,152.9,232.7,152.8,232.6z
					 M232.8,237.7L232.8,237.7c0-0.4-0.2-0.5-0.7-0.2C232,238,232.2,238,232.8,237.7C232.7,237.6,232.5,237.7,232.8,237.7z
					 M233.9,238c0.1,0.3,0.3,0.5,0.4,0.8c-1.1,0-2.3,0.1-3.4,0.1c-0.5-2.3-0.1-2.8-2.5-3.6c-2.9-1-5.8-1.6-8.8-2.4
					c-4.2-1.1-14.2-2.4-16.6-6.3c-3.8-6.3,6.4-0.8,8-0.4c4.6,1.1,8.6,1.8,13.3,1.6c0.2,0.4,0,0.8-0.6,1.1c1.9,0.3,4-0.1,6-0.2
					c1.3-0.1,2.6-0.1,4-0.1c3.7,0,1.3-0.3,2.9-2.6c5.1,4.6-5.5,5.3-1.9,10.9c2.2-2.2,2-1.5,3.4,0c1.5,1.6,3.5-2.5,5.1-1.5
					s-2.6,2.5-3.1,2.5C240,239,235.1,238.3,233.9,238z M205.2,135.4c0.1,2.5-0.2,4.9-0.2,7.4c0,0-0.3,7.9-1.7,4.9
					c-1.2-2.6-0.4-6-0.6-8.7c-0.2-2.7-0.9-5.2-0.3-8.1c0.6-2.7-0.5-7-0.6-9.8c-0.1-1.7,1-8.3,0.3-9.4c-0.7-1.2-3.4-3.3-0.5-4.5
					c1.3-0.6,2.7,0.6,3.8,0.1c2.1-0.8,4.4-0.6,6.6-0.7c3.2-0.1,17.2-2.6,18.8,0.1c2.1,3.6-12.5,3.2-15,3.1
					c-3.3-0.2-13.4-0.7-11.8,5.3C205.6,121.5,203.3,128.8,205.2,135.4C205.2,135.8,204.9,134.2,205.2,135.4z M79.9,98.1
					c-1.1,2.1-0.3,3.7-0.6,6c-0.4,2.7-2.1,5-3.7,7.1c-1.5,2.1-3.8,4.6-6.3,5.4c-0.9,0.3-6.3,0.4-3.5-1.6c2.2-1.6,15.4-11.9,6.8-11.5
					c-2.8,0.2-5.9-0.4-8.5-1.5c-0.5-0.2-8.2-3.2-6.2-4.6c1.3-0.9,8.8,2.4,10.9,2.4C70.7,99.8,80,96.1,79.9,98.1
					C79.8,98.2,79.9,97.1,79.9,98.1z M197.3,123.5c-0.6,4.6-0.9,9.9-0.2,14.5c0.3,1.9,2.9,10.7,1.7,12.3c-2,2.6-3.8-5.7-3.9-6.6
					c-1-4.6,0.6-10.6-1.4-14.8c-1.4,2.4-1.3,6.2-3.5,8.1c-2.2,1.9-0.5-7-0.4-7.3c0.4-1.1,3.5-6.2,3.3-6.7
					C191.7,117.6,197.9,119.2,197.3,123.5C197.2,124.5,197.5,122.5,197.3,123.5z M79.1,18.4c-1.2,0.6-8.3-2.3-10.1-2.6
					c-3.8-0.5-7.4-0.4-11.1-0.8c-0.8-0.1-7.8-0.3-7.2-2c0.3-0.7,8-1.3,9-1.3c8.6,0,17.1-0.5,25.7-0.4c1.3,0,2.1,1,1.5,2.3
					c-0.6,1.2-5.2,0.9-6.4,0.8C76.1,14.1,78.2,15.5,79.1,18.4C78.9,18.5,79,18.2,79.1,18.4z M223.4,99.9c-0.7,3.1-24.7,1-12.6-7.1
					c4.2-2.8,6.2-4.6,11.6-5.5c1.7-0.3,5-0.9,5.4,1.6c0.3,1.4-0.7,1.7-1.8,1.1c-3.5-2.1-10.2,2-13,3.9c-5.8,3.9,3.7,3.5,5.9,3.3
					c1.7-0.1,3.8-1.2,5.4-0.7c0.8,0.3,1,1.4,1.8,1.4C233.1,98.1,227.5,101.7,223.4,99.9C223.1,101.3,224,100.2,223.4,99.9z
					 M142.9,14.5c-4.8,0.5-9.6-0.1-14.4,0.2c-4.8,0.3-9.6,0.9-14.5,0.8c-4.4-0.1-8.5,0.9-12.9,0.2c-2.6-0.4-7.8-2.5-2.1-2.6
					c10.5-0.2,21-0.7,31.5-0.7c5,0,9.8,0,14.9-0.1C153.6,12.3,143,16.6,142.9,14.5C141.9,14.6,142.9,14.6,142.9,14.5z M36.6,126.7
					c0,0.7-0.8,4.4,0.2,4.8c1.1,0.5,6.8-4.3,8-4.9c2.8-1.5,5.9-2.6,8.8-3.7c2.9-1.1,3.5,2.4-0.3,3.1c-3.9,0.7-7.6,2.8-10.7,5.2
					c-1.1,0.8-8.8,9.9-10.1,8c-1.4-2.1,0.6-6.6,0.7-8.9c0.2-2.9-0.5-8.3,1.1-10.8C35.2,120.1,37.3,126.8,36.6,126.7
					C36.6,128,36.6,126.7,36.6,126.7z M148.2,25.9L148.2,25.9C148.1,26.2,148.5,26.1,148.2,25.9L148.2,25.9z M153.5,25.9L153.5,25.9
					c1.2-0.5,1.4-1.1,0.7-1.8C153.1,24.5,152.8,25.1,153.5,25.9C154,25.4,153.3,25.5,153.5,25.9z M156.8,24.9c0.9,0.4,1.3,1,1.3,1.8
					c-0.2,0.7-4.8,2-4.8-0.1c-1.6,0.7-2.9-1.1-3.8,0.2c-0.9,1.2-6.9-0.3-8.3-0.3c-5.3,0.3-13,4.4-16.4,8.3c-3.4-2.4,8-8.1,9.6-8.6
					c5.6-1.9,11.2-3.1,17.2-3.1c0.6,0,15.4-0.1,13.1,2.9C163.6,27.3,157,23.2,156.8,24.9C157.2,25.3,156.9,24.7,156.8,24.9z
					 M86.1,21c2.1-6,15.9-0.9,20.4,0.3c3.7,1,8.6,2.5,11.6,5c1.1-0.9,8.3-4.6,9.1-2.9c-2.5,1.3-6.9,2.7-8,5.8
					c0.1-0.3-6.8-3.3-7.9-3.7c-3.9-1.3-7.3-2.3-11.3-3.3C98,21.7,86.5,22.2,86.1,21C86.3,20.3,86.4,22.1,86.1,21z M188.4,139.2
					c0.2,2.6,2.7,4.8,0.9,6.7c2.2,0.1,1.8,2.9,2.1,4.4c0.6,3.2,2,6.1,4.4,8.4s5.2,3.8,8,5.5c4.2,2.5,1.1,3.3-1.9,1.8
					c-5.1-2.4-10.3-6-12.7-11.2C188.2,153.1,184.7,138.8,188.4,139.2C188.4,139.9,188.3,139.2,188.4,139.2z M116.1,180.2
					c0.5-4.8,4-7.6,6.7-11.2c1-1.3,5.9-11.3,7.4-8.7c1.4,2.5-4.7,12.1-6,14.6C122.5,178.2,118.4,187.4,116.1,180.2
					C116.5,176.7,116.4,181,116.1,180.2z M211.7,167.6c5.4-0.1,10.8-0.5,16.1-1.3c0.9-0.2,1.5,0.1,1.8,0.9c0.6,1.8-3.7,1.9-4,1.9
					c-1.3,0.2-9.2,0.4-9.3,1.8c2.7,1.6,6.1,2.3,9,3.3c1.1,0.4,6.2,3.5,1.7,3.2C221.2,177,211,175.2,211.7,167.6
					C213.7,167.6,211.7,168.5,211.7,167.6z M39.9,86.4c-0.1,1.2,0.2,9.1-2.3,7.5c-2.2-1.4-0.6-7.6-0.5-9.5c0-1.1-0.4-11.5,1-11.3
					c2.8,0.3,2.3,4.6,2.7,6.3c0.9,3.5,1.4,7,4.2,9.6c1.1,1,5.1,2.8,5.4,4C51.6,97.1,38.6,86.5,39.9,86.4
					C39.8,87.4,40.1,86.4,39.9,86.4z M234.1,58.1c-1.5,2-2,4.5-4.5,5.3c-0.7-2.4,1.1-4.4,2.4-6.5c0.5-0.8,3.1-5.1,3-5.8
					c-0.5-3.2,3.6,0.3,3.2,2.7c-0.8,4.7-1.6,9.4-2.2,14.1c0,0.3-1.1,9.6-3.2,6.1C231.1,71.3,236.5,59.4,234.1,58.1
					C233.7,58.6,234.2,58.2,234.1,58.1z M119.5,48.7c-0.1,0.4-0.2,0.8-0.3,1.1c-0.7-2.2-0.4-4.5-1.5-6.5c-1.2-2.3-3.4-4-5.2-5.8
					c-1.1-1.1-6.2-4.7-5.4-6.5c0.7-1.5,6.6,4.3,7.1,4.9c2.2,2.6,3.8,5,5.2,8.1c0.9,2,5.1-2.4,6.3-3.1c2.1-1.1,12.1-5.5,13.9-3.2
					c-6.2,3.1-15.7,4.5-18.7,11.7C120.4,49.2,119.9,48.9,119.5,48.7C119.4,49,119.9,48.9,119.5,48.7z M59.5,107.6
					c1.7,0.1,2.5,0.6,2.3,2.4c-0.2,1.6-5.2,1.3-6.5,2c-4.2,2.4-9,4.2-11.5,8.5c-0.7,1.2-1.9,2.5-3.4,0.9c-0.9-1,3.8-5.1,4.4-5.8
					C48.6,111.5,53.6,107.7,59.5,107.6C61.6,107.7,59.4,107.6,59.5,107.6z M158.2,13.9c5.5-0.2,10.9-0.8,16.4-1
					c2.4-0.1,4.8,0.1,7.1,0.5s0.6,2.5-0.9,2.7c-5,0.5-10.3,0-15.3,0.1c-2.5,0-5.2,0.3-7.7,0C155.9,16,156.2,13.7,158.2,13.9
					C159.1,13.9,157,13.8,158.2,13.9z M41.6,102.9L41.6,102.9C41.1,102.5,41.3,103.2,41.6,102.9C41.5,102.9,41.5,103,41.6,102.9z
					 M38.8,105.6c0,2.6-0.1,5.1-0.6,7.7c-0.5,2.6-3,0.5-2.9-0.9c0.2-2.8,1.1-5.4,0.7-8.2c-0.5-3.7,1.4-2.8,4.7-2.9
					c2.9-0.1,5.7-0.2,8.5-0.7c2.9-0.5,1.6,1.5,0.9,2.4C47.9,105.7,41.6,102.4,38.8,105.6C38.8,106.9,38.9,105.5,38.8,105.6z
					 M71.9,40.8c1.3,5.3-12.3,9.4-13.9,4.3c-1.1-3.4,4.9-5.6,7.4-4.6c0.6,0.3,0.8,2,1.3,2.1C68.9,42.8,69.9,41.2,71.9,40.8
					C72.2,41.9,71.7,40.8,71.9,40.8z M227.2,68.2c2.7,3.7-3.9,7.4-5.9,10.6c1.6,0.1,9-3.4,8.9-0.1c0,3.2-4.8,2.3-7.3,2.8
					C211.6,83.8,224.7,71.5,227.2,68.2C227.6,68.8,226.5,69.1,227.2,68.2z M227.5,150.5c-4.1-1.4-0.9-12.6-1.9-16.1
					c-0.7-2.4-12.9-1.9-11.9-3.4c0.1-0.2,5.6-0.6,6.3-0.6c2.3,0.2,5.4-1,6.8,1.4c1.6,2.5,1,5.7,1,8.5
					C227.8,143.5,228.9,147.7,227.5,150.5C225.7,149.9,227.7,150.1,227.5,150.5z M230.3,155.6c0,1.8-12.5,3.4-14.5,3.7
					c-2.5,0.3-9.1,1.5-11,0.5c-3-1.6,3-2.2,3-2.2c2.9,0,5.9-0.4,8.8-0.6C218.2,156.8,230.4,153.8,230.3,155.6
					C230.3,156.4,230.3,154.8,230.3,155.6z M218.5,123.8c-3.9,0.1-6,0.6-9-1.8c-1.8-1.4,8.2-1.4,8.9-1.4c1.6,0,8.5-2.3,8.3,1.2
					C226.7,124.2,218.5,123.5,218.5,123.8C216.9,123.8,218.5,123.8,218.5,123.8z M58.7,32.5c1.2-1.6,11-4.2,10.7-1.1
					C69,35.6,59.1,36.6,58.7,32.5C59,32.2,58.9,34.1,58.7,32.5z M163.5,34.4c1.2-0.4,10.9-3.3,10.9-3.3c-1.3,1.3-14.2,8.8-14.7,5.2
					C159.5,34.6,164.4,36.8,163.5,34.4C165.1,33.9,163.8,35.3,163.5,34.4z M122.9,109.9c1,1.5,5.3,8.2,1.2,8
					C122.5,117.8,121.7,110.4,122.9,109.9C123.1,110.3,122.7,110,122.9,109.9z M237.2,225.6c-1.9-1.6-2.3-10.3-0.8-12.5
					C238.2,215.1,237.4,222.9,237.2,225.6C237,225.4,237.3,224.5,237.2,225.6z M134.1,245.5c0.5,1.6-3.7,2.5-4.6,1.3
					C127.5,243.9,133.3,245.4,134.1,245.5C134.4,246.4,132.7,245.3,134.1,245.5z M91.8,4.9c-1-0.1-7.3,0-7.4-0.7
					C85.3,4,93.3,3.6,91.8,4.9C89.4,4.8,91.9,4.8,91.8,4.9z M52.9,5.1c2.6-0.2,6.9-1.3,9.1,0C61.6,5.8,52.7,6.1,52.9,5.1
					C55.6,4.9,52.8,5.2,52.9,5.1z M142.2,55.3c1.9-0.5,3.9-1,5.8-1.5c0.2,1-1.9,0.2-0.6,1.5C145.7,56,143.9,56.4,142.2,55.3
					C144.1,54.8,144,56.5,142.2,55.3z M72.8,246.7c0,0.3,0.1,0.5,0.1,0.8c-1.7-0.2-6-0.3-5.9-2.4C69,245.6,70.9,246.1,72.8,246.7
					C72.8,246.7,70.8,246.1,72.8,246.7z M37,228.5c-0.1,1.5,1.8,1,2.5,1.8c-1.8,1.6-4-0.7-5.2-1.9C35.2,228.4,36.1,228.4,37,228.5
					C36.9,230,36.1,228.4,37,228.5z M235,40.4c-0.3,2-0.3,4.4-1.6,6.1c-0.2,0-0.3-0.1-0.4-0.2C233.1,44.9,233.8,41,235,40.4
					C234.7,42.2,234.1,40.8,235,40.4z M229.5,53.9L229.5,53.9L229.5,53.9L229.5,53.9C229.7,53.6,229.5,53.9,229.5,53.9L229.5,53.9
					L229.5,53.9L229.5,53.9 M66.6,4.9c-1,0.5-3.5,0.4-4-0.1C64,4.1,65.3,4.7,66.6,4.9z M176.2,242.3
					C181.3,240.4,177.2,244.7,176.2,242.3C176.8,242.1,176.3,242.4,176.2,242.3z M176.4,28.1c-0.1,1.2-0.7,1.9-1.8,2.1
					C174.6,29.2,175,27.9,176.4,28.1C176.1,28.8,175.3,28,176.4,28.1z M232.1,48.9c0.5,1,0.1,1.7-1.4,2.7
					C230.8,50.4,231.4,49.7,232.1,48.9z M160.8,55.2c-0.8,0.6-1.4,1.1-2.1,1.5C158.8,55.2,159.3,55,160.8,55.2z M85.1,248.3
					c0.9-0.3,1.7-0.6,2.6,0.2C86.6,249.1,85.8,248.8,85.1,248.3z M164.1,242.9c-0.7-0.1-1.4-0.3-2.1-0.4
					C161.9,241.3,164,241.7,164.1,242.9C163.3,242.8,164,241.8,164.1,242.9z M172.2,243.6c-0.8,0.2-1.4,0.1-1.7-0.5
					C171.2,242.6,172.7,241.8,172.2,243.6C171.6,243.5,172.4,242.9,172.2,243.6z M77.6,4.2c0.9,0.1,1.5-0.8,2.3,0.1
					C79.6,4.4,77.3,5.4,77.6,4.2C78.3,4.3,77.6,4.3,77.6,4.2z M32.6,34.6c-1-1.1-0.9-0.8-0.3-1.7C33.1,33.4,33.2,34,32.6,34.6
					C32.2,34.2,32.8,34.2,32.6,34.6z M28.2,100.6c0.1,0.6,0.2,1.2,0.3,1.8C27.5,102.6,27.2,100.8,28.2,100.6
					C28.3,101.2,28.1,100.6,28.2,100.6z M30.7,53.4c0.5,0.4,1.4,2.2,0.1,2.2C30.8,54.9,30.7,54.1,30.7,53.4
					C31.6,54.1,30.7,54.3,30.7,53.4z M230.4,238.9c-0.5,0.5-1,0.6-1.7,0.4c-0.1-0.1-0.1-0.3-0.1-0.5
					C229.1,238.7,230.1,238.4,230.4,238.9C230.1,239.1,230.3,238.8,230.4,238.9z M155.9,242.9c0.1-0.4,0.3-0.8,0.4-1.2
					C157.2,242.2,157,243.4,155.9,242.9C156.1,242.5,156.1,243,155.9,242.9z M145.5,244.8c-0.4-1.9-0.5-1.8,1.1-0.6
					C146.3,244.4,145.9,244.6,145.5,244.8C145.4,244.3,145.9,244.6,145.5,244.8z M169,53.7c-0.5-0.1-1-0.3-1.6-0.5
					C167.7,52.3,169.3,52.6,169,53.7C168.5,53.5,169,53.5,169,53.7z M166.3,53.6c-0.8,0.8-1.2,0.9-1.4,0.1
					C165.7,52.9,166.2,52.9,166.3,53.6C165.9,53.8,166.3,53.5,166.3,53.6z M114.3,3.4c0.5,0.1,1,0.2,1.4,0.3
					C115.6,4.7,114.1,4.4,114.3,3.4C114.8,3.5,114.3,3.5,114.3,3.4z M116.3,3.3c0.5,0.1,1.1,0.2,1.6,0.3
					C117.1,4.3,116.7,4.2,116.3,3.3z M111.7,3.6c1.2-0.5,1.7-0.4,1.6,0.4C112.2,4.5,111.6,4.3,111.7,3.6
					C112.2,3.7,111.7,3.7,111.7,3.6z M29,90.4c0.2,1.1,0,1.4-0.7,1.2C28.1,90.5,28.3,90.1,29,90.4C28.9,90.8,28.8,90.4,29,90.4z
					 M135.2,245.6c0.9-0.7,1.4-0.6,1.4,0.1C135.7,246.4,135.2,246.4,135.2,245.6C135.6,245.5,135.2,245.8,135.2,245.6z M170.1,53.2
					c-0.6-0.8-0.6-1.2,0.1-1.2C170.9,52.7,170.8,53.1,170.1,53.2C170,52.8,170.3,53.1,170.1,53.2z M173.8,240.4c0.7-0.4,1-0.3,1,0.3
					C174,241.2,173.7,241.1,173.8,240.4C174.1,240.4,173.8,240.6,173.8,240.4z M159.2,245.9c-0.4,0.5-0.8,0.5-1.1,0
					C158.5,245.4,158.9,245.3,159.2,245.9C158.9,246.1,158.9,245.7,159.2,245.9z M72.8,4.6c0.6-0.5,0.9-0.5,1,0.2
					C73.2,5.2,72.8,5.1,72.8,4.6C73.1,4.5,72.8,4.7,72.8,4.6z M155.2,245.8c0.3-0.1,0.6-0.2,0.9-0.4
					C156.4,246.1,155.5,246.5,155.2,245.8C155.5,245.7,155.2,245.9,155.2,245.8z M174.7,52.2c-0.8,0.3-1.2,0.2-1.1-0.3
					C174.5,51.6,174.9,51.7,174.7,52.2C174.4,52.2,174.7,52.1,174.7,52.2z M29.1,88.4c0.3,0.7,0.2,1-0.3,1
					C28.4,88.5,28.5,88.2,29.1,88.4C29.1,88.7,29,88.4,29.1,88.4z M173.9,242.8c-0.1,0.6-0.3,0.8-0.7,0.5
					C173.2,242.6,173.4,242.4,173.9,242.8C173.8,243,173.7,242.7,173.9,242.8z M74.9,247.3c0.7-0.2,1-0.1,0.9,0.4
					C75,248,74.7,247.9,74.9,247.3C75.2,247.4,74.9,247.5,74.9,247.3z M168.5,245c-0.8-0.1-1-0.3-0.7-0.8
					C168.7,244.3,168.9,244.6,168.5,245C168.2,244.9,168.6,244.9,168.5,245z M201.5,242c-0.7,0.4-1,0.3-0.9-0.2
					C201.2,241.3,201.6,241.4,201.5,242C201.2,242,201.5,241.8,201.5,242z M109.6,3.3c0.8,0.2,0.9,0.5,0.4,0.9
					C109.3,3.9,109.1,3.6,109.6,3.3C109.8,3.5,109.5,3.4,109.6,3.3z M199.8,196.5c-0.3-0.1-0.6-0.1-0.9-0.2
					C199,195.7,199.9,195.8,199.8,196.5C199.5,196.4,199.8,196.3,199.8,196.5z M75,3.9c0.3,0.1,0.5,0.2,0.8,0.3
					C75.6,4.9,74.8,4.6,75,3.9C75.3,4,75,4.1,75,3.9z M172.6,51.8c-0.5,0.5-0.8,0.5-0.9,0.1C172.2,51.3,172.5,51.2,172.6,51.8
					C172.4,51.9,172.6,51.7,172.6,51.8z M149.5,244.2c-0.2-0.6-0.1-0.8,0.3-0.7C150,244.1,149.9,244.3,149.5,244.2
					C149.5,244,149.5,244.2,149.5,244.2z M45.1,231.7c0.6-0.4,1-0.4,0.9,0.2C45.4,232.3,45.1,232.2,45.1,231.7
					C45.4,231.6,45.2,231.8,45.1,231.7z M141.5,37.4c-0.4,0.3-0.7,0.3-0.8-0.2C141.1,36.9,141.3,36.9,141.5,37.4
					C141.3,37.5,141.4,37.2,141.5,37.4z M154.2,243.2c-0.6,0-0.7-0.2-0.5-0.6C154.3,242.6,154.5,242.8,154.2,243.2
					C154,243.1,154.2,243.1,154.2,243.2z M69.1,233c0.3,0.3,0.3,0.5-0.1,0.7C68.7,233.5,68.8,233.2,69.1,233
					C69.3,233.2,69,233.2,69.1,233z M151.1,242.5c0.5-0.3,0.8-0.2,0.8,0.2C151.3,243.1,151,243,151.1,242.5
					C151.3,242.4,151.1,242.6,151.1,242.5z M108,4.1c-0.6,0.1-0.8-0.1-0.6-0.5C108.1,3.4,108.3,3.6,108,4.1
					C107.8,4,108.1,3.9,108,4.1z M139.2,246.7c0.5-0.1,0.8,0,0.6,0.4C139.2,247.3,139,247.1,139.2,246.7
					C139.4,246.7,139.2,246.8,139.2,246.7z M28.1,105.7c0-0.3-0.1-0.6-0.1-0.9C28.7,104.5,28.2,105.5,28.1,105.7
					C28.1,105.2,28.3,105.3,28.1,105.7z M154,246.4c-0.2-0.5-0.2-0.7,0.2-0.7C154.6,246.2,154.5,246.5,154,246.4
					C154,246.2,154.1,246.4,154,246.4z M176.9,240.5C176.2,241,176.3,240,176.9,240.5C176.8,240.6,176.8,240.3,176.9,240.5z
					 M32.8,29.1c-0.3-0.2-0.3-0.4,0-0.6C33,28.6,33,28.8,32.8,29.1C32.6,28.9,32.8,28.9,32.8,29.1z M239.1,235.5
					C239.6,236.3,238.6,236.1,239.1,235.5C239.2,235.7,239,235.6,239.1,235.5z M158.9,36.2C158.3,36.3,158.4,35.7,158.9,36.2
					C158.7,36.2,158.8,36.1,158.9,36.2z M95.7,248.5C95.3,247.4,96.2,248.3,95.7,248.5C95.7,248.4,95.8,248.5,95.7,248.5z
					 M117.4,238.3c-0.3,0.2-0.6,0.2-0.8-0.1C116.9,237.9,117.1,238,117.4,238.3C117.2,238.4,117.1,238.1,117.4,238.3z M71.4,4.8
					C70.7,5.1,70.8,4.2,71.4,4.8C71.2,4.8,71.3,4.7,71.4,4.8z M30.4,59c-0.5,0.4-0.8,0.4-0.8-0.1C29.9,58.7,30.1,58.8,30.4,59
					C29.9,59.1,30.1,58.9,30.4,59z M83.6,247.8C83.7,248.8,83.1,247.9,83.6,247.8C83.6,248,83.5,247.9,83.6,247.8z M122.3,3.3
					C122.8,3.8,121.8,3.8,122.3,3.3C122.4,3.4,122.2,3.4,122.3,3.3z M99.3,247.9C98.7,248.3,98.8,247.3,99.3,247.9
					C99.2,248,99.2,247.8,99.3,247.9z M49.1,6.3C48.4,6.4,49,5.9,49.1,6.3C49,6.3,49.1,6.2,49.1,6.3z M60.3,72.6
					C60.6,72.1,60.8,73,60.3,72.6C60.4,72.5,60.4,72.7,60.3,72.6z M137.8,245.5C136.6,245.3,137.8,245,137.8,245.5
					C137.6,245.5,137.8,245.4,137.8,245.5z M155.9,52.3C155.1,52.5,155.5,51.9,155.9,52.3C155.7,52.4,155.8,52.2,155.9,52.3z
					 M100.3,4.3C101,4,101.1,4.1,100.3,4.3C100.5,4.2,100.3,4.3,100.3,4.3z M84.6,103.6C84.1,103.8,84,103.1,84.6,103.6
					C84.5,103.6,84.4,103.4,84.6,103.6z M153,246.3C152.5,246.5,152.9,245.9,153,246.3C152.9,246.4,153,246.2,153,246.3z
					 M105.5,241.4C104.9,241.6,105.3,241,105.5,241.4C105.4,241.4,105.5,241.3,105.5,241.4z M158.4,243.6
					C158.1,244.1,157.9,243.2,158.4,243.6C158.3,243.7,158.3,243.6,158.4,243.6z M204.7,198.7C205,199.2,204.3,198.9,204.7,198.7
					C204.8,198.8,204.6,198.7,204.7,198.7z M228.2,57.8C227.8,58.1,227.9,57.4,228.2,57.8C228.1,57.8,228.1,57.7,228.2,57.8z
					 M77.8,247.8C77.7,247.5,78.1,247.6,77.8,247.8C77.8,247.7,77.8,247.8,77.8,247.8z M113.6,248.4
					C113.7,248.7,113.3,248.6,113.6,248.4C113.6,248.5,113.5,248.4,113.6,248.4z M28.3,95.5C28,95.8,28,95.3,28.3,95.5
					C28.2,95.6,28.2,95.5,28.3,95.5z M44,231C44,231.2,43.6,231,44,231C44,231.1,43.9,231,44,231z M32.1,47.8
					C31.7,48.1,31.8,47.5,32.1,47.8C32,47.9,32.1,47.8,32.1,47.8z M200.7,196.9C200.3,197.1,200.7,196.7,200.7,196.9L200.7,196.9z
					 M170.1,4.3C170.3,4.4,169.8,4.5,170.1,4.3C170.2,4.3,170.1,4.3,170.1,4.3z M158.7,242.1C158.6,242.3,158.5,242.1,158.7,242.1
					C158.7,242.2,158.6,242.1,158.7,242.1z M169.2,52.2C169,52.2,169.1,52,169.2,52.2C169.2,52.2,169.2,52.1,169.2,52.2z
					 M88.7,248.5C88.6,248.7,88.5,248.5,88.7,248.5C88.6,248.6,88.6,248.5,88.7,248.5z M202,197.4
					C202.1,197.4,202.1,197.4,202,197.4z M28.5,103.5C28.4,103.4,28.4,103.4,28.5,103.5z M236.7,232.6
					C236.6,232.6,236.6,232.6,236.7,232.6z M40.8,230.9C40.9,231,40.9,231,40.8,230.9 M29.2,81.7C29.1,81.6,29.1,81.6,29.2,81.7
					 M158.6,51.2C158.5,51,158.8,51.1,158.6,51.2L158.6,51.2z M100.3,4.3C100.1,4.3,100.3,4.2,100.3,4.3
					C100.2,4.3,100.3,4.3,100.3,4.3z M232.5,48.1C232.5,48.2,232.5,48.1,232.5,48.1z M195.9,11L195.9,11L195.9,11z M195.9,10.9
					L195.9,10.9L195.9,10.9z M234.5,36.2C234.5,36.2,234.5,36.3,234.5,36.2C234.5,36.3,234.5,36.2,234.5,36.2z M35.8,232.9
					L35.8,232.9c0.6-0.5,7.2,1.8,9.2,2.1c1.5,0.2,3.6,0,4.3-1.4c0.6-1.3-2-0.9-1.9-2c2.9-1.4,0.9-9.1,1.1-11.9
					c0.1-1.7,0.4-3.1,0.5-4.8c0.2-3.6,0.1-6.2,1.3-9.7c3.5-10.7,8.4-19.8,16.2-28.1c3.5-3.7,5.9-8.8,9.4-12.6
					c3.8-4.1,7.6-8.1,11.2-12.4c2.9-3.5,5.8-6.8,7.8-10.9c0.5-1,0.3-3.9,1.6-4.3c2.5-0.7-1.2-3.3-0.1-4.3c0.4,0.2,2.2,2.2,2.6,2.2
					c0.7,0,1.5-2.2,2.3-0.9c1.3,1.9,2.2,3.6-0.5,3.3c-0.5,4-3.8,8.7-6.3,11.9c-2.9,3.6-5.1,7.5-8.1,11.1c-3.5,4.1-7,8-9.6,12.7
					c-0.5,0.5-1,0.4-1.5,0c-0.5,0.9-1,1.8-1.3,2.8c-0.6,1.1-4.4,5.8-3.2,6.7c0.9-0.8,3.9-3.7,4.1-0.5c0.1,2.7-5.3,7.2-6.9,9.2
					c-4.2,5.4-7.4,12.7-8.6,19.4c-0.6,3.4-0.3,7.2-0.6,10.6c-0.2,3.4,1.8,5.3,2.5,8.6c1.3,6.3-5.9,3.4-9,0.8c-1.5,5,1.1,2.8,4,4.7
					c-1.4,2.2-2.8,0.7-5.4,1c-3.3,0.4-7-0.2-10.3-0.6c-3.7-0.5-14.2-1.2-15.3-5.5c1.8-0.9,5.5-2.9,7.4-1.4c-1.4,0.7-2.9,1.4-4.3,2
					C28.7,233,35.2,232.2,35.8,232.9C36,232.7,35.9,232.9,35.8,232.9z M128.2,233c0.1-0.1,0.3-0.1-0.1-0.9
					C128,232.5,128.1,232.8,128.2,233z M129.1,233.7c-0.4-0.3-0.6-0.5-0.8-0.5C128.5,233.4,128.7,233.5,129.1,233.7z M128.1,232.1
					L128.1,232.1C127.8,232.9,127.4,232,128.1,232.1L128.1,232.1c0.2,0.4,0.6,0.5,0.8,0.7c-0.5-1.2-1.8-3.1-2-3.7
					c-1.2-2.8-2.6-5.4-4.2-8C122.5,223.1,125.7,231.9,128.1,232.1L128.1,232.1L128.1,232.1z M229.5,53.9
					C229.5,53.9,229.5,53.8,229.5,53.9c0.2-0.4,0.3-0.7,0.5-1c0.4,1.1,0.2,2.2-0.7,3.1C227.9,54.6,229.5,54.4,229.5,53.9z M38,43.7
					c-1.4-1.6,4.8-2.8,5.4-3c3.7-0.9-3.8-7.1-2.2-10.3c1.9-3.8,4.8-5.7,8.2-7.7c0.7-0.4,3.1-2.6,3.7-2.6c0.7,0.3,1.3,0.7,1.8,1.1
					c1.3,0.3,3.1-0.8,4.3-1.2c2.2-0.9,4,0.5,6,1.4c3.2,1.5,4.3,0.8,7.4-0.3c6.5-2.4,7.5,6.5,11.8,8c5.4,1.8,10.9-6.5,13.2,2.1
					c1.5,5.6,7.4,8.4,11.7,11.6c4.4,3.3,5.3,9.5,4.7,14.6c-0.3,2.7-1.5,5.1-2,7.7c-0.3,1.4,4,2.2,4.5,1.3c3-4.7,5-8.6,10.1-11.3
					c2.3-1.2,4.7-1.9,7.1-2.9c2.1-0.9,5-2,7.2-2.6c4.6-1.2,9-3.5,13.5-4.8c4.8-1.4,10-1.6,14.9-2.9c4.7-1.3,9.4-4.1,13.3-7
					c1.1-0.9,4.7-3.5,5-4.9c0.2-0.6,0.7-1,1.3-1.1c-1-0.8,0.7-2.7,1.2-3.7c0.7,1.7,2.7-4.5,3.3-6c0.7-1.8,1.2-3.8,2.1-5.6
					c0.8-1.6,2.4-0.7,2.6-2c0.5-4.1,4.8,1.1,3.4,4.3c-1,2.3,2.1,6.7,1.1,9.6c-2.1,6.2-4,12.7-8.9,17.7c-2.7,2.7-6,4.1-8.9,6.6
					c-0.8,0.6-7.8,3.4-9.2,2.1c2.1-0.8,5.2-1.4,7-2.7c2.1-1.4,3.8-4.9,5.2-6.9c1-1.3,8.9-12.9,7.1-13.9c-2.5,3.1-3.8,6.7-6.5,9.7
					c-3.2,3.5-6.7,5.4-11.1,7.1c-4,1.6-6.8,3.4-11.1,4.4c-5.6,1.3-11.2,0.9-16.8,2.3c-2.4,0.6-9.1,1.8-9.3,5.1
					c-0.2,3.6-2.3,4.1-4.8,6.8c-1.4,1.5-7.4,6.3-6.5,8.9c1.4,4.1,6-1.9,7.5-2.7c5.2-2.9,12.8-7.4,18.9-7.1c0,0.1,20.8-5,22.9-5.8
					c4.1-1.6,8.7-2.7,12.3-5.3c3.9-2.7,6-6.5,8.9-10.1c2.9-3.7,5.8-7.4,7-12.1c0.6-2.4,0.8-4.6,0.6-7c-0.3-3.2,0.6-2,2.3-2.7
					c-0.4-1.5-0.8-2.9-0.9-4.5c5.9,2.8,0.7,14-1.2,17.8c-0.8,1.8-8.4,17.6-9.8,15c-1.2,0.8,0.4,0.8,0.2,1.7
					c-0.1,0.9-1.9,3.3-2.5,3.9c-1.9,1.8-5.3,5.8-8.3,5.1c0.7-1.4,11.2-6.8,6.6-7.4c-1.4,4.1-9.5,6.3-13,8c1.8,1,3.4-1.1,5.2,0.1
					c-1.6,1.8-7.2,2-9.7,2.4c-4.6,0.8-9.2,1.3-13.7,2c-6.9,1.1-17.8,3.6-21.8,9.9c-1-2.7-2-0.9-3.1,0.9c-1.5,2.5-1.9,2.9,0.6,5
					c1.4,1.1,4.8-5.4,6.8-5.9c12.4-2.8-6.4,10.7-1.5,11.7c1.5,0.3,6.4-5.9,7.9-7c3.2-2.5,5.9-3.6,9.8-4.7c4.8-1.3,9.7-2.2,14.5-3.3
					c3.5-0.8,6.8-3.1,10.3-3.5c-0.1,1.6-0.7,1.8-1.5,3.1c1.3-0.5,2-0.9,3.3-0.6c-5.5,6.3-16,5.6-23.6,6.7c0.6,3.6-5.7,3.6-8.2,5.6
					c-1.8,1.4-2.9,2.9-4.2,4.8c-0.8,1.2-1.9,3-2.6,4.6c-2.5,5.8,4.6-2.5,5.4-3.4c1.5-1.5,4.5-0.6,2.5,1.4c-1.1,1.1-1.8,3.4-2.1,4.3
					c2.8,1.1,0.7,0.4,3-0.1c1-0.2,0.7,1.9,1.7,2.3c1.7,0.5,7.3-2.4,8.8-3.3c2.8-1.6,6.6-2.8,9.1-4.7c1.1-0.8,2.2-1.5,3.2-2.3
					c1-0.7,2.2,0.9,1.5,1.8c-4.3,5.1-12,6.7-16.4,12c-1.7,2.1-5.3,5.4-6.2,7.8c-0.4,1.1,2.7,9.8,3.7,9.3c0.9-0.4,2.3-4.1,3-5
					c1.1-1.4,2-2.8,3-4.2c2.8-3.8,6.5-6.6,9.9-9.9c1.8-1.7,3.6-3.2,5.5-4.8c1.5-1.2,3.9-1.9,5.2-3.2c1.4-1.5,3.3-2.6,5-3.7
					c1.3-0.9,1.7,1.6,0.5,2.3s-4.8,3.3-5.5,4.5c-0.6,1.1-2.5,1.6-2.7,2.7c0-0.1-1.6,1.8-2,1.9c-3,1.4-6,5.5-8.2,8
					c-3.2,3.7-3.7,7.5-6,11.4c3.6,1.8,7.9-8.3,10.5-7.2c3.5,1.6-6.1,9.8-5.7,12.4c0.2,1.1-1.5,3-2,4.1c-0.9,2-1.6,5.4-2,7.8
					c-1.3,6.3,0,12.1,2.1,17.8c2.2,5.6,3.1,11,6.5,16.3c1.8,2.8,3.5,5.3,5.9,7.6c0.4,0.4,3.3,3.8,0.3,3.3c-2.4-0.5-2.4,0.8-4.2-1.7
					s-3.4-5.1-5.1-7.7c-1.1-1.7-9.5-18.8-10.2-18.6c1,8,2.4,15.9,6.7,22.7c1-1.7,2.7,3.9,3.7,5.2c2.9,4.1,5.5,7.9,9.4,11.1
					c1.7,1.4,4.7,2.2,6.7,3.1c1.2,0.5,2.6,1.2,3.5,2c1.7,1.5-0.5,1.6-0.7,2c4,2.2,7.8,3.6,12.2,4.8c2.1,0.6,2.8,1.9,5.2,1.3
					c0.9-0.2,4.1-1.5,4.7-0.4c-0.7,0.5-1.4,1-2.1,1.5c2.8,0.9,5.7,1,8.6,0.9c3.1-0.1,5.5-1.5,8.4-1.8c0.7-0.1,2,1.9,2.7-0.1
					c0.8-2.4,0.6-4,0.2-6.4c-7.2,2-13.7,1.3-20.9-0.1c-1.6-0.3-21.5-8.3-18.2-11.7c0.8-0.8,7.8,3.9,8.8,4.4c4.4,2,8.4,3.2,13.2,3.8
					c4.5,0.6,8.5,1.8,13,0.6c4.9-1.4,4.5-2.7,5-7.5c-2.8,0.8-5.5,1.9-8.4,1.9c-3.5-0.1-7.3-1.1-10.7-0.9c-2.3,0.1-5.1-2.1-7.3-2.9
					c-3.3-1.2-6.2-2.5-9.7-3.3c-2.7-0.7-4.8-4.3-6.6-6.2c-2-2.2-4.3-4.4-6.4-6.5c-4.1-3.9-7.8-10.7-9.2-16.1
					c-1.9-7.4-0.7-14.6,0.9-22c1.4-6.3,4.2-11.2,6.5-17.1c2.8-7.1,6.8-13.4,10.7-20c0.9-1.5,3.2-6.4,4.9-7c1.9-0.7,2.3-1.3,3.7-3.3
					c0.6-0.8,1.9-3.7,3-3.3c-0.3,2-3.3,3.8-3,5.7c0.9-0.9,7.3-7.6,6.1-8.5c-0.4,0.4-1.8,2.7-2.4,2.4c0.6-1.9,1.9-4.4-2-3.2
					c-0.9,0.3-8.2,6.4-7.4,4.3c2.2-6.4,10-9.6,14.1-15.1c5.7-7.5,11.2-16.4,13.6-25.6c1-4,1.3-8,1.8-12.1c0.1-1.1-0.4-9.7-0.3-9.7
					c0.7,0,1.2,2.1,1.4,2.5c1.7-1.8-1.9-7.8-1.3-9.8c0.6-2,2.5,1,2.6,1.4c0.4,1.8,2.3,1.1,3,2.6c1.8,4,1.5,9.3,1.3,13.6
					c0,1.5,0.8,12.3-1.5,10.3c-1.6,4.1-10,18.9-6.6,21.8c-2.6,0.2-1.4,0.1-1.6,1.8c-0.2,1.3-0.9,0.9-1.3,2.3c-1,3.4-5,7.1-7.1,9.9
					c-5.1,6.9-9.7,14.9-15.4,21.2c-5.5,6.1-13.5,15-15.6,23c-2.1,7.7-3,16.9-2.1,24.9c0.9,8.9,1.6,15.8,8.2,22.3
					c5.7,5.7,12.5,9.6,19.4,13.5c3.5,2,23.7,7.9,25.2,1.8c0.9-3.7,1.9-8.3,2-12.5c0.1-1.8-1-7.6,1.4-8c-2.9-1.2-0.5-20.5-0.1-20.5
					c1.7,13.5,0.3,27.6,0.5,41.4c1.2-0.3,2.3-0.6,3.5-0.5c-1.1,2.8-4.4,2.1-4,6c0.2,1.7-0.2,3.5,0.2,5.1c0.4,1.5-1.1,2.2-1.4,3.6
					c-1,3.8-0.3,5.2,1.4,8.2c0.6,1-2.9,8.3-3.5,9.8c-0.8-0.9-1.6-1.7-2.4-2.6c-3.7,3.7-13.4,2.2-18,0.6c-7.3-2.5-14.5-4.7-21.7-7.4
					c-1.1-0.4-6.2-2.3-5.4,1.3c0.6,2.7,6.7,5.6,8.9,6.9c3.6,2.1,7.2,3.7,11,5.1c1.8,0.7,3.6,1.4,5.4,2c6.1,2.1-1-0.6,2,1.5
					c1.4-1.6,1.1-1.6,3.3-1c-3.8,1.3,0.2,1.7,1.8,1.7c2.6,0,4.9,0.4,7.6,0.2c1.3-0.1,3.7,0,5,0.5c2.9,1-4.1,2.2-3.8,2.1
					c-3.5,1.8-13.3,0.2-17.1-1.4c-4.6-2-9.7-3-14.5-4.8c-1.8-0.7-0.5-2.8-1.9-3.3c-2.9-1.1-5.5-2.1-8.2-3.8
					c-5-3.1-9.6-7.9-14.9-10.4c-2.2-1.1-3.1-3.4-4.6-5.1s0.7-4.8,2.6-2.5c2.8,3.4,8.7,8.4,13,3.8c-1.1-0.9-1,1.1,0,0
					c-1.9-1.6-1.5-3.6-3.4-5.3c-2-1.8-6.3-3.8-7.7-5.8c-4.2-5.9-7-11.7-8.8-18.8c-1.9-7.4-3.7-15.4-4.4-23
					c-0.7-6.7-1.2-14.1-3.5-20.4c-0.9-2.4-2.6-1.8-3.3-4.7c-0.9-3.8-1.8-7.5-3.4-11.1c-1.1-2.5-2.8-4-4.5-6s-1.8-4.1-3.5-6.1
					c-2.2-2.4-6.2-12.1-10.3-11.3c0.8-0.2-3.8-4.8-4.2-5.1c-2.7-2.2-5.6-3.3-8.6-4.9c0.1-0.5,0.4-0.7,1.1-0.7
					c-0.9-0.9-1.5,0.1-2.4,0.4c0.2-0.1-3.3-2.6-3.2-2.5c-1.5-0.7-9.8-1.3-10.1-3.5c-0.2-1.4-1.8-1.5-2.7-2.2c-1-0.8-0.2-3.2,1-2.4
					c2.2,1.5,6.4,3.2,4.7-1.5c0.5-0.4,0.9-0.2,1.4,0.5c0.1-1.8,0.5-1.9-0.8-2.8c-0.6-0.5,0.6-2.5,0.5-3c-0.3-1.5-1-2.4-1.8-3.6
					c1.6-0.7-0.6-2.9-1-3.4c-2.3-3.2-4.5-4.8-7.9-7c-2.5-1.6-3.8-5.1-4.8-7.8c-1.4-3.7-0.8-1.9-4.3-1.5c-3.4,0.3-2.6,2.9-4.5,4.7
					c-2,1.9-7.7,1.1-9.3-1c-3.4-4.1,6.3-2.2,6.6-4.2c0.1-0.8-3.7-5-4.4-5.8c-0.9,0.6,0.7,1.4-0.2,1.9c-2.2-3.7-3.4-3.8-7.6-1.4
					c-3.9,2.3-5.1-1.6-9.3-2c-1.3-0.1-2.6,0-3.9,0.3c-2.5,0.5-3.6-0.2-5.9-0.2c-3.7,0-5.2,5-4.8,7.7c1.9,0,2.1,0.7,3.6,2.7
					c2.9,3.8-1.2,4.3-2.2,7.1c-0.8,2.5-3.8,1.1-5.5,2.6c-2.3,2.1,0.4,7.8,3.9,6.6c2.4-0.8,7,2.7,8.5,4.2c2.8,3,3.3,6.2,4.6,9.8
					c0.7,1.9,1.1,3.8,1.4,5.8c0.3,1.9-2.1,0.9-2.6-0.1c-1.6-2.6-1.1-6.9-3.4-9.1c-4.6,8.2,0.5,18.5,7.8,22.8
					c5.8,3.4,18.5,6.6,24.4,0.9c-1-0.5-3.3-0.3-3-1.5c1,0,3.2,1,3.9,0.3c1-1-1.8-5.3-2.1-6.4c-1.3-4.7,3.2-2.6,4.7-0.4
					c2.5,3.5,4.3,6.4,4.2,10.5c-0.1,4.4,1.1,8.9,1.2,13.2c0.2,5.8-0.6,11.4-1.1,17.2c-0.3,4.1-2.3,7.6-3.1,11.4
					c-0.4,1.7-1.2,3.3-1.7,4.9c-0.3,1.4-1.2,2.2-2.6,2.5c0.2,0.5,0.3,1,0.3,1.5c-0.8,3.4-4.3,6.3-5.8,9.3s-4.1,6.5-6.3,9.1
					c-2.4,2.7-4.4,6.3-6.6,9.2c-2.2,2.9-3.7,6.3-6.3,8.7c-2.1,1.9-6.9,4.9-6.3,8.2c0.1,0.6-2.2,1.4-2.5,2.3
					c-0.7,2.1-1.8,2.3-2.9,3.9c-0.8,1.1-1.4,3.1-2.4,4.5c-1.3,1.9-1.9,4.2-2.6,6.4c-1.7,5.4-2.2,11.4-2.3,17.1
					c-0.1,2.8,1.7,12-3.1,10c0.2,0.8,0.1,1.5-0.2,2.2c-1.4-0.9-1.6-3.6-3.1-2.6c-1-8.6,0.3-18.5,3.7-26.6c2.9-6.8,4.6-15.4,9.2-21.5
					c2-2.6,3.7-5.7,6.2-7.9c1.2-1,4.7-5,5.1-6.2c0.7-2.2,5.2-6.9,7-8.2c0.6-1.2,2.3-3.1,2.4-4.4c0.1-1.6,5-2.4,2.6-4.1
					c-8.6,5.3-17.6,10.5-24.4,18.3c-1.4,1.6-2.6,3.3-4,4.9c-1.7,1.9-1.5-2.6-0.8-3.5c2.5-3.4,5.1-6.3,7.8-9.6
					c1.4-1.7,3.3-2.9,4.9-4.5c2.9-2.9,0.8-1.9-1.3-3.2c-4.8-3.1,6.2-7.9,7.6-8.7c4.4-2.8,9.1-5.2,13.5-8.2
					c3.2-2.1,13.2-10.2,9.2-14.1c-9.8,9.9-22.1,17.5-35.1,22c-8.4,2.9-14.8,7.2-19.6,14.7c-1.7,2.6-2.6,2.7-2.6,6.2
					c0,1.1-1,8.2,1.6,6.3c1.1-0.8,2.7-4.2,3.5-5.4c1.3-2.2,3.8-4.4,5.6-6.1c1.9-1.8,4.1-3.6,6.2-5c0.9-0.6,2.1-2.2,3.2-2.5
					c2.4-0.6-0.2,4.3-0.6,4.7c-6,4.9-12.8,11.9-15.7,19.5c-1.1,2.9-3.8,6.5-3,9.8c0.3,1.2-0.1,7.9-1.5,8.3c1.5,1-0.2,2.4-0.7,3.4
					c1.4,0.6,7-10.5,7.5-12.3c0.5-1.9,1.5-3.4,3.7-2.3c2.3,1.2-0.9,5.8-1.5,7.4c-4.5,12.1-6.9,24.6-4.2,37.2
					c-4,0.1-1.2-15.1-4.5-14.2c0,2,0.8,5.1-0.9,6.7c-0.7-1.4-0.5-4.3-0.4-5.8c0.1-1.8-0.8-3.1-0.9-5c-0.3-5-0.6-9.9-0.3-14.9
					c0.5-8.9,0.9-17.7,1.3-26.8c0.4-8.3,0.4-16.9,0.4-25.4c0-5.6,0.4-11.3,0-16.8c-0.2-2.4-1.1-11.4,0.9-12.7c1,7.3,0,15.2,0.3,22.6
					c0.1,2.8-1.9,20.6,0.3,21.4c1.4-2,2.1-3.8,3.8-5.7c2.5-2.9,6-4.5,8.6-7.4c-4.1,1-7.9,2.7-11.2,5.3c-1.8-2.8,19-9.3,21.1-10
					c7.4-2.6,13.3-6.8,19.9-10.8c6.3-3.8,11.9-13.1,14.8-19.6c1.6-3.6,2.8-7.3,2.5-11.2c-0.2-2.8,2.1-6.9-2.5-4.6
					c-13.2,6.8-33.9-1.4-37.9-15.7c-0.7-2.6-1.3-6.3-1.3-9.1c-0.1-4.3,1.8-5.9-0.2-10c-1.4-2.9-4.8-0.8-6.7-1
					C37,55.2,34.6,44,37.2,44L38,43.7z"/>
			</defs>
			<clipPath id="SVGID_2_">
				<use xlink:href="#SVGID_1_"  style="overflow:visible;"/>
			</clipPath>
			
				<linearGradient id="SVGID_3_" gradientUnits="userSpaceOnUse" x1="497.273" y1="185.5358" x2="1504.0842" y2="185.5358" gradientTransform="matrix(1 0 0 -1 -461.6699 311.6722)">
				<stop  offset="0" style="stop-color:#CB2128"/>
				<stop  offset="0.1" style="stop-color:#8F2125"/>
				<stop  offset="0.4" style="stop-color:#C82229"/>
				<stop  offset="0.71" style="stop-color:#781C1E"/>
				<stop  offset="1" style="stop-color:#CB2128"/>
			</linearGradient>
			<rect x="25.3" y="3.1" class="st1" width="219.6" height="246"/>
		</g>
	</g>
	<path class="st0" d="M327.4,170.3c-7.4-2.6-13.9-6.5-19.5-11.7c-3.4-3.2-6.2-6.5-8.4-10.1c-2.2-3.5-3.9-7.1-5.2-10.8
		c-1.3-3.7-2.2-7.3-2.7-11s-0.8-7.3-0.8-10.7c0-2.4,0.2-5.2,0.7-8.4c0.5-3.2,1.3-6.6,2.5-10.1s2.8-7.1,4.9-10.7s4.7-7,7.8-10.2
		c2.1-2.1,4.5-4.1,7.2-6.1c2.7-1.9,5.8-3.5,9.3-4.9c3.5-1.3,7.4-2.4,11.8-3.2s9.3-1.2,14.7-1.2c2.8,0,6.1,0.1,9.7,0.4
		c3.7,0.2,7.2,0.7,10.7,1.4c2.7,0.5,5.2,0.9,7.5,1.3s4.6,0.7,6.8,0.9c0.8,0.1,1.2,0.3,1.5,0.5c0.2,0.2,0.3,0.6,0.3,1.1
		c0,0.6-0.1,1.4-0.2,2.5s-0.3,3-0.5,5.5c-0.1,1.2-0.2,2.5-0.2,4c-0.1,1.5-0.1,3-0.1,4.4s0,2.7-0.1,3.9c0,1.1-0.1,2-0.1,2.6
		c-0.1,2-0.5,3-1.3,3s-1.1-1-1.1-3c0-2.8-0.5-5.5-1.6-8.2c-1-2.7-2.5-4.8-4.4-6.5c-2.4-2.2-6.2-4.1-11.3-5.8
		c-5.1-1.6-10.7-2.5-16.9-2.5c-4.7,0-8.8,0.3-12.3,0.9s-6.5,1.5-9.1,2.5s-4.8,2.1-6.6,3.4c-1.8,1.2-3.3,2.5-4.5,3.7
		c-5.2,5.1-8.6,10.8-10.2,17.1c-1.6,6.3-2.5,13.1-2.5,20.5c0,6.9,1.2,13.5,3.7,19.9c2.5,6.3,6,11.9,10.4,16.8
		c4.5,4.9,9.8,8.7,16.1,11.7c6.2,2.9,13.1,4.4,20.6,4.4c5.4,0,10.1-0.5,14.2-1.4s7.5-2.9,10.4-5.8c1.5-1.6,2.7-3.7,3.6-6.3
		c0.9-2.5,1.4-4.5,1.6-5.8c0.3-1.4,0.7-2.2,1.4-2.2c0.4,0,0.6,0.2,0.8,0.6c0.1,0.4,0.2,0.9,0.2,1.5c0,0.3-0.1,1.2-0.3,2.7
		c-0.2,1.5-0.4,3.2-0.7,5.1c-0.3,1.9-0.6,3.9-1,5.8c-0.4,2-0.8,3.6-1.1,4.8c-0.5,1.4-0.9,2.2-1.2,2.7c-0.3,0.4-1.2,0.9-2.5,1.5
		c-1.4,0.6-3.1,1.1-5.1,1.5s-4.1,0.8-6.3,1c-2.3,0.2-4.6,0.4-7,0.6c-2.4,0.1-4.7,0.2-7,0.2C343.8,174.2,334.8,172.9,327.4,170.3"/>
	<path class="st0" d="M403.8,90.8c0-3.7,0-6.8,0-9.2c0-2.4,0-4.3,0-5.7c0-1.5,0-2.7,0-3.5c0-0.9-0.1-1.7-0.1-2.5
		c-0.1-1.7-0.4-2.9-1-3.8c-0.5-0.8-1.6-1.4-3.1-1.7c-0.4-0.1-0.9-0.2-1.6-0.2s-1.2,0-1.7,0s-0.8-0.2-0.8-0.6c0-0.5,0.5-0.8,1.5-0.8
		c1.1,0,2.2,0,3.4,0.1c1.2,0,2.3,0.1,3.3,0.1s2,0.1,2.7,0.1c0.8,0,1.3,0,1.5,0s0.7,0,1.4,0c0.8,0,1.6-0.1,2.6-0.1
		c0.9,0,1.9-0.1,2.9-0.1s1.8-0.1,2.5-0.1c1,0,1.5,0.3,1.5,0.8c0,0.4-0.3,0.6-0.8,0.6h-1c-0.4,0-0.8,0.1-1.4,0.2
		c-1.3,0.2-2.1,0.7-2.6,1.6s-0.8,2.2-0.9,3.9c-0.1,0.8-0.1,1.6-0.1,2.5s0,2.1,0,3.5s0,3.3,0,5.7c0,2.4,0,5.5,0,9.2v13.6
		c0,3.5,0.2,6.5,0.5,9.1s0.8,4.8,1.5,6.6c0.6,1.9,1.4,3.5,2.3,4.8s1.8,2.5,2.8,3.4c2.3,2.3,4.6,3.7,6.9,4.4c2.2,0.6,4.7,1,7.5,1
		c2.9,0,5.7-0.6,8.4-1.9c2.7-1.3,4.8-3,6.5-5c2.2-2.8,3.7-6.2,4.4-10.2c0.7-4,1.1-8.5,1.1-13.6V90.8c0-3.7,0-6.8,0-9.2
		c0-2.4,0-4.3,0-5.7c0-1.5,0-2.7,0-3.5c0-0.9-0.1-1.7-0.1-2.5c-0.1-1.7-0.4-2.9-0.9-3.8c-0.5-0.8-1.5-1.4-3.1-1.7
		c-0.4-0.1-0.9-0.2-1.6-0.2s-1.2,0-1.7,0s-0.8-0.2-0.8-0.6c0-0.5,0.5-0.8,1.5-0.8c1.1,0,2.2,0,3.3,0.1c1.1,0,2.2,0.1,3.1,0.1
		s1.8,0.1,2.4,0.1c0.7,0,1.1,0,1.2,0c0.2,0,0.6,0,1.1,0c0.6,0,1.2-0.1,2-0.1s1.6-0.1,2.5-0.1s1.6-0.1,2.3-0.1c1,0,1.5,0.3,1.5,0.8
		c0,0.4-0.3,0.6-0.8,0.6h-1c-0.4,0-0.8,0.1-1.4,0.2c-1.3,0.3-2.1,0.9-2.6,1.7c-0.5,0.8-0.8,2.1-0.9,3.8c-0.1,0.8-0.1,1.6-0.1,2.5
		s0,2.1,0,3.5s0,3.3,0,5.7c0,2.4,0,5.5,0,9.2v10.4c0,2.6-0.1,5.3-0.3,8c-0.2,2.7-0.6,5.3-1.2,7.9s-1.5,4.9-2.7,7.2
		c-1.1,2.2-2.7,4.2-4.6,6c-1.7,1.6-3.4,2.8-5.2,3.7c-1.7,0.9-3.4,1.7-5.1,2.2c-1.6,0.5-3.3,0.8-4.8,1c-1.6,0.2-3.1,0.2-4.5,0.2
		c-0.8,0-2,0-3.5-0.1s-3.1-0.4-5-0.8c-1.8-0.5-3.7-1.1-5.6-2.1c-1.9-0.9-3.8-2.2-5.5-3.8c-1.1-1.2-2.2-2.5-3.2-3.9
		c-1-1.5-1.9-3.2-2.7-5.2c-0.8-2-1.3-4.4-1.8-7c-0.4-2.6-0.6-5.8-0.6-9.3V90.8H403.8z"/>
	<path class="st0" d="M488.1,90.8c0-3.7,0-6.8,0-9.2c0-2.4,0-4.3,0-5.7c0-1.5,0-2.7,0-3.5c0-0.9-0.1-1.7-0.1-2.5
		c-0.1-1.7-0.4-2.9-1-3.8c-0.5-0.8-1.5-1.4-3.1-1.7c-0.4-0.1-0.9-0.2-1.6-0.2s-1.2,0-1.7,0s-0.8-0.2-0.8-0.6c0-0.5,0.5-0.8,1.5-0.8
		c1.1,0,2.2,0,3.4,0c1.2,0,2.3,0,3.4,0.1l3.9,0.2c0.2,0,1.3,0,3.3,0c2.1,0,4.4,0,6.9,0c2.6,0,5,0,7.3,0c2.2,0,3.7-0.1,4.2-0.1
		c1.8-0.1,3.2-0.3,4.1-0.5l0.7-0.3l0.7-0.2c0.3,0,0.4,0.3,0.4,0.9c0,0.3-0.1,0.8-0.3,1.5c-0.2,0.7-0.3,1.7-0.5,3.1
		c0,0.3,0,0.7-0.1,1.3c0,0.6-0.1,1.2-0.1,1.9c-0.1,0.7-0.1,1.3-0.1,1.9s-0.1,1-0.1,1.3l-0.2,0.7l-0.4,0.3c-0.5,0-0.8-0.4-0.8-1.3
		c0-0.3,0-0.8-0.1-1.6c-0.1-0.7-0.2-1.4-0.5-1.9c-0.3-0.8-0.9-1.4-1.7-2c-0.8-0.5-2.5-1-5-1.3c-0.4-0.1-1.2-0.1-2.6-0.1
		c-1.3,0-2.7-0.1-4.2-0.1s-2.8,0-4.1,0c-1.2,0-1.9,0-2.2,0c-0.4,0-0.6,0.3-0.6,1c0,0,0,42.5,0,44.1s0,3.3,0,5s0,3.4,0,4.8
		c0,1.5,0,2.5,0,3c0.1,1.7,0.2,3,0.5,4.1c0.3,1,0.8,1.8,1.6,2.4c0.8,0.6,1.9,1,3.3,1.2s3.3,0.3,5.6,0.3c1.3,0,2.8,0,4.6-0.1
		c1.8-0.1,3.3-0.4,4.6-0.9s2.2-1.3,2.8-2.4c0.6-1.1,1.1-2.6,1.4-4.6c0.2-1,0.5-1.5,0.9-1.5l0.5,0.5v1c0,0.2,0,0.7-0.1,1.5
		s-0.2,1.7-0.3,2.7c-0.1,1-0.3,2-0.4,3c-0.1,1-0.3,1.7-0.4,2.2c-0.2,0.6-0.4,1.1-0.6,1.5l-0.9,0.7c-0.4,0.2-0.8,0.3-1.4,0.3
		c-0.6,0-1.3,0-2.3,0c-3.6,0-6.7,0-9.3-0.1c-2.6-0.1-4.9-0.1-6.7-0.2c-1.8-0.1-3.4-0.2-4.6-0.2s-2.2,0-2.8,0c-0.1,0-0.5,0-1.2,0
		s-1.6,0-2.6,0.1c-1,0-1.9,0-2.9,0.1s-1.9,0.1-2.6,0.1c-1,0-1.5-0.3-1.5-0.8c0-0.4,0.3-0.6,0.8-0.6c0.4,0,0.9,0,1.4-0.1
		s1-0.2,1.4-0.3c1-0.2,1.6-0.8,1.9-1.7c0.3-1,0.6-2.2,0.8-3.6c0.3-2.1,0.4-4.9,0.4-8.6c0-3.6,0-7.8,0-12.5L488.1,90.8z"/>
	<path class="st0" d="M794,107.8c0,4.7,0,8.8,0,12.5s0.2,6.5,0.4,8.6c0.1,1.4,0.4,2.6,0.9,3.6c0.4,1,1.4,1.6,2.8,1.7
		c0.7,0.1,1.5,0.2,2.3,0.3c0.9,0.1,1.5,0.1,1.9,0.1c0.5,0,0.8,0.2,0.8,0.6c0,0.5-0.5,0.8-1.5,0.8c-1.3,0-2.7,0-4,0s-2.5-0.1-3.7-0.1
		c-1.1,0-2-0.1-2.7-0.1s-1.2,0-1.3,0s-0.6,0-1.3,0s-1.6,0.1-2.5,0.1s-1.9,0.1-2.9,0.1s-1.9,0-2.6,0c-1,0-1.5-0.3-1.5-0.8
		c0-0.4,0.3-0.6,0.8-0.6c0.4,0,0.9,0,1.4-0.1s1-0.2,1.4-0.3c1-0.2,1.6-0.8,1.9-1.7c0.4-1,0.6-2.2,0.8-3.6c0.3-2.1,0.4-4.9,0.4-8.6
		c0-3.6,0-7.8,0-12.5V90.7c0-3.7,0-6.8,0-9.2c0-2.4,0-4.3,0-5.7c0-1.5,0-2.7,0-3.5c0-0.9-0.1-1.7-0.1-2.5c-0.2-3.2-1.3-5-3.2-5.4
		c-0.5-0.1-1-0.2-1.6-0.3c-0.6-0.1-1-0.1-1.3-0.1c-0.5,0-0.8-0.2-0.8-0.6c0-0.5,0.5-0.8,1.5-0.8c0.8,0,1.7,0,2.8,0.1
		c1.1,0,2.1,0.1,3,0.1c1,0,1.8,0.1,2.5,0.1s1.2,0,1.3,0s0.5,0,1.3,0c0.7,0,1.6-0.1,2.5-0.1s1.9-0.1,2.9-0.1s1.9-0.1,2.6-0.1
		c1,0,1.5,0.3,1.5,0.8c0,0.4-0.3,0.6-0.8,0.6h-1c-0.4,0-0.8,0.1-1.4,0.2c-1.3,0.3-2.1,0.8-2.6,1.7c-0.5,0.9-0.8,2.2-0.9,3.8
		c-0.1,0.8-0.1,1.6-0.1,2.5s0,2.1,0,3.5s0,3.3,0,5.7c0,2.4,0,5.5,0,9.2L794,107.8z"/>
	<path class="st0" d="M893.6,114c0,3.9,0,7.3,0,10.1c0,2.8-0.1,5.3-0.3,7.5c-0.2,2.2-0.5,4.1-0.9,5.8s-0.9,3.4-1.6,5.2
		c-1,2.5-2.6,4.9-4.8,7.2c-2.2,2.4-5.2,4.9-9.1,7.6c-0.6,0.4-1.3,0.9-1.9,1.4c-0.7,0.4-1.3,0.8-1.8,1.1l-0.7,0.2
		c-0.4,0-0.7-0.2-0.7-0.6l0.3-0.7c0.2-0.2,0.6-0.4,1-0.7c0.6-0.3,1.2-0.7,1.8-1.3c0.6-0.5,1.1-1,1.6-1.4c1.5-1.6,2.8-3.2,4-4.9
		c1.1-1.7,2.1-3.8,2.8-6.4c0.8-2.6,1.3-5.9,1.7-9.9s0.6-9.1,0.6-15.4v-28c0-3.7,0-6.8,0-9.2c0-2.4,0-4.3,0-5.7c0-1.5,0-2.7-0.1-3.5
		c0-0.9-0.1-1.7-0.1-2.5c-0.1-1.7-0.4-2.9-0.9-3.8c-0.5-0.8-1.6-1.4-3.1-1.7c-0.4-0.1-0.9-0.2-1.6-0.2c-0.7,0-1.2,0-1.7,0
		s-0.8-0.2-0.8-0.6c0-0.5,0.5-0.8,1.5-0.8c1.1,0,2.2,0,3.4,0.1c1.2,0,2.3,0.1,3.4,0.1c1,0,1.9,0.1,2.7,0.1c0.7,0,1.2,0,1.3,0
		s0.5,0,1.3,0c0.7,0,1.6-0.1,2.5-0.1c1,0,1.9-0.1,3-0.1c1,0,1.9-0.1,2.6-0.1c1,0,1.5,0.3,1.5,0.8c0,0.4-0.3,0.6-0.8,0.6h-1
		c-0.4,0-0.8,0.1-1.4,0.2c-1.3,0.3-2.1,0.8-2.6,1.7c-0.5,0.9-0.8,2.2-0.9,3.8c-0.1,0.8-0.1,1.6-0.1,2.5s0,2.1,0,3.5s0,3.3,0,5.7
		c0,2.4,0,5.5,0,9.2V114H893.6z"/>
	<path class="st0" d="M909.9,105.1c0.9-4.3,2.4-8.5,4.3-12.7c2-4.2,4.4-8.1,7.3-11.9c2.9-3.8,6.5-7.1,10.6-9.9
		c4.1-2.9,8.8-5.1,14-6.8s11.1-2.5,17.5-2.5c7.8,0,15.1,1.2,21.8,3.7s12.5,6,17.4,10.7c4.9,4.6,8.8,10.3,11.6,16.9
		s4.2,14.1,4.2,22.4c0,8-1.3,15.6-4,22.7c-2.7,7.1-6.4,13.3-11.3,18.6c-4.9,5.3-10.7,9.5-17.7,12.6c-6.9,3.1-14.6,4.6-23,4.6
		c-9.6,0-17.9-1.7-24.7-5.1c-6.9-3.4-12.5-7.9-16.9-13.3c-4.4-5.4-7.6-11.5-9.7-18.1c-2.1-6.6-3.1-13.2-3.1-19.7
		C908.5,113.4,909,109.4,909.9,105.1 M925.2,135.9c2.3,6.8,5.5,12.6,9.5,17.3c4.1,4.8,8.8,8.4,14.2,11s11.3,3.9,17.6,3.9
		c3.2,0,7-0.6,11.3-1.8c4.4-1.2,8.6-3.6,12.7-7.1c4.1-3.5,7.5-8.5,10.4-15c2.8-6.4,4.3-14.9,4.3-25.3c0-8.6-1.2-16.2-3.6-22.8
		c-2.4-6.6-5.5-12.1-9.5-16.5c-3.9-4.4-8.5-7.8-13.6-10.1c-5.1-2.3-10.5-3.4-16-3.4c-5.9,0-11.3,1-16.3,2.9c-5,2-9.3,4.9-13,8.9
		c-3.6,3.9-6.5,8.9-8.5,14.7c-2,5.9-3.1,12.7-3.1,20.5C921.8,121.5,922.9,129.1,925.2,135.9z"/>
	<path class="st0" d="M585.6,115.8c-3.2-4.2-6.8-8.8-10.7-14c4.2-4,5.8-7.2,7.6-10.9c1.7-3.6,2.6-7.3,2.6-10.9
		c0-1.7-0.2-3.2-0.7-4.7c-0.5-1.4-1-2.7-1.7-3.8c-0.7-1.1-1.4-2-2.1-2.9c-0.8-0.8-1.4-1.4-2-1.9c-2.5-1.9-5.3-3-8.3-3.5
		s-6-0.7-9.1-0.7c-0.8,0-1.7,0-2.8,0.1c-1.1,0-2.3,0.1-3.5,0.1s-2.2,0.1-3.1,0.1c-0.9,0-1.5,0-1.8,0c-0.1,0-0.5,0-1.3,0
		c-0.7,0-1.6-0.1-2.7-0.1c-1,0-2.2-0.1-3.4-0.1s-2.3-0.1-3.4-0.1c-1,0-1.5,0.3-1.5,0.8c0,0.4,0.2,0.6,0.8,0.6c0.4,0,1,0,1.7,0
		s1.2,0.1,1.6,0.2c1.6,0.3,2.6,0.9,3.1,1.7c0.5,0.8,0.8,2.1,1,3.8c0.1,0.8,0.1,1.6,0.1,2.5s0.1,2.1,0.1,3.5s0,3.3,0,5.7
		c0,2.4,0,5.5,0,9.2v17.1c0,4.7,0,8.8-0.1,12.5c0,3.7-0.2,6.5-0.4,8.6c-0.2,1.4-0.5,2.6-0.8,3.6s-1,1.6-1.9,1.7
		c-0.4,0.1-0.9,0.2-1.4,0.3s-1,0.1-1.4,0.1c-0.5,0-0.8,0.2-0.8,0.6c0,0.5,0.5,0.8,1.5,0.8c0.7,0,1.6,0,2.6,0s2-0.1,2.9-0.1
		s2.1-0.1,3.4-0.2c0.1,0,0.6,0,1.3,0s1.6,0.1,2.8,0.1c1.1,0,2.3,0.1,3.6,0.1s2.7,0,4,0c1,0,1.5-0.3,1.5-0.8c0-0.4-0.3-0.6-0.8-0.6
		c-0.4,0-1.1,0-2-0.1s-1.6-0.2-2.3-0.3c-1.5-0.2-2.4-0.8-2.8-1.7c-0.4-1-0.7-2.2-0.9-3.6c-0.3-2.1-0.4-4.9-0.4-8.6
		c0-3.6,0-7.8,0-12.5v-2.3c0-0.5,0.2-0.8,0.7-0.8l11.7,0.2c0.4,0,0.9,0.2,1.2,0.6c0.4,0.6,1.1,1.5,1.8,2.6c0.8,1.1,1.6,2.3,2.6,3.5
		c0.9,1.3,1.9,2.6,2.9,4.1c1,1.4,2,2.8,3,4.2c0.5,0.7,1,1.4,1.5,2c56,73.8,120.7,24.8,120.7,24.8
		C631.8,181.3,585.6,115.8,585.6,115.8 M571.3,100.1c-1.1,0.8-2.2,1.3-3.5,1.5s-2.5,0.3-3.6,0.3c-2.1,0-4.1-0.1-6-0.4
		s-3.2-0.7-3.9-1.1c-0.4-0.3-0.7-0.6-0.7-1.2V67.5c0-0.6,0.3-1,0.8-1.2c0.5-0.1,1.3-0.3,2.5-0.4c1.1-0.1,2.4-0.2,3.9-0.2
		c5.1,0,9.1,1.7,12,5.1s4.4,8.2,4.4,14.3c0,3.7-0.6,6.8-1.7,9.4C574.3,97.1,572.9,98.9,571.3,100.1z"/>
	<path class="st0" d="M770.3,62.7c-0.7,0-1.4,0-2.2,0.1c-0.8,0-1.6,0.1-2.3,0.1s-1.4,0.1-1.9,0.1s-0.9,0-1,0c-0.6,0-1.8,0-3.7-0.1
		s-3.7-0.1-5.6-0.1c-1.4,0-2.1,0.3-2.1,0.8c0,0.4,0.3,0.6,1,0.6c0.5,0,1.1,0,1.8,0s1.3,0.1,1.8,0.3c0.5,0.3,0.8,0.6,1,1
		s0.2,0.8,0.2,1.2c0,0.5-0.1,1-0.2,1.6c-0.2,0.6-0.4,1.3-0.6,2c-0.4,1.2-1,3-1.8,5.5c-0.9,2.5-1.9,5.4-3.1,8.7
		c-1.2,3.3-2.5,6.8-3.9,10.5s-2.8,7.4-4.2,11s-2.7,7-4,10.1c-1.3,3.2-2.3,5.9-3.2,8L726,96.4c0,0-47.1-120-152.7-51.4
		c0,0,96.9-53.7,146.7,59.2l0,0l10.6,27.1c0.9,2.3,1.5,3.9,1.9,4.8c0.4,0.8,0.9,1.3,1.5,1.3c0.4,0,0.9-0.5,1.3-1.5
		c0.4-1,1.3-3,2.7-5.9c1.1-2.4,2.7-6.1,4.7-11.1c2.1-5,4.6-11.1,7.5-18.2c1.2-3,2.4-5.9,3.6-8.7c1.2-2.8,2.2-5.5,3.2-7.8
		c0.9-2.4,1.8-4.4,2.5-6.1s1.2-2.9,1.4-3.6c0.6-1.6,1.2-3,1.7-4.1s1-2,1.4-2.7s0.8-1.2,1.1-1.6l1-0.8c0.9-0.6,1.8-0.9,2.7-1
		s1.5-0.1,1.9-0.1c0.8,0,1.1-0.2,1.1-0.7C771.9,62.9,771.3,62.7,770.3,62.7"/>
	<path class="st0" d="M498,103.6c-1.4-0.7-2.4-1.2-3.1-1.5c-0.9-0.4-1.8-0.9-2.8-1.4s-2.2-0.8-3.6-0.8c-0.8,0-1.6,0.1-2.2,0.4
		c-0.7,0.3-1.2,0.6-1.7,1s-0.9,0.8-1.1,1.2l-0.7,0.9c-0.5,0.6-0.9,0.9-1.3,0.9l-0.6-0.6l0.2-0.7l0.5-0.8c0.3-0.5,0.8-1.2,1.4-1.9
		c0.6-0.8,1.3-1.5,2-2.3c0.8-0.7,1.5-1.4,2.4-1.9c0.8-0.5,1.6-0.8,2.4-0.8c1.1,0,2.4,0.3,3.7,1c1.4,0.6,2.8,1.3,4.2,2
		c0.7,0.3,1.6,0.7,2.7,1.1s2,0.6,2.8,0.6c0.9,0,1.7-0.1,2.4-0.4c0.7-0.3,1.3-0.5,1.8-0.9c0.5-0.3,0.9-0.6,1.1-0.9l0.5-0.6
		c0.4-0.7,0.8-1.1,1.1-1.1c0.4,0,0.7,0.2,0.7,0.6c0,0.3-0.1,0.7-0.4,1.3c-0.2,0.4-0.6,1-1.1,1.7c-0.6,0.7-1.2,1.5-2,2.2
		s-1.5,1.4-2.4,1.9c-0.8,0.5-1.6,0.8-2.4,0.8C500.8,104.6,499.3,104.3,498,103.6"/>
	<path class="st0" d="M827.7,90.8c0-3.7,0-6.8,0-9.2c0-2.4,0-4.3,0-5.7c0-1.5,0-2.7-0.1-3.5c0-0.9-0.1-1.7-0.1-2.5
		c-0.1-1.7-0.4-2.9-0.9-3.8c-0.5-0.8-1.6-1.4-3.1-1.7c-0.4-0.1-0.9-0.2-1.6-0.2c-0.7,0-1.2,0-1.7,0s-0.8-0.2-0.8-0.6
		c0-0.5,0.5-0.8,1.5-0.8c1.1,0,2.2,0,3.4,0s2.3,0,3.4,0.1l3.9,0.2c0.2,0,1.3,0,3.3,0c2.1,0,4.4,0,6.9,0c2.6,0,5,0,7.3,0
		c2.2,0,3.7-0.1,4.2-0.1c1.8-0.1,3.2-0.3,4.1-0.5l0.7-0.3l0.7-0.2c0.2,0,0.4,0.3,0.4,0.9c0,0.3-0.1,0.8-0.3,1.5
		c-0.2,0.7-0.4,1.7-0.5,3.1c0,0.3,0,0.7-0.1,1.3c0,0.6-0.1,1.2-0.1,1.9c-0.1,0.7-0.1,1.3-0.1,1.9s-0.1,1-0.1,1.3l-0.2,0.7l-0.4,0.3
		c-0.5,0-0.8-0.4-0.8-1.3c0-0.3,0-0.8-0.1-1.6c-0.1-0.7-0.2-1.4-0.5-1.9c-0.3-0.8-0.9-1.4-1.7-2c-0.8-0.5-2.5-1-5-1.3
		c-0.4-0.1-1.2-0.1-2.6-0.1c-1.3,0-2.7-0.1-4.2-0.1s-2.8,0-4.1,0c-1.2,0-1.9,0-2.2,0c-0.4,0-0.6,0.3-0.6,1c0,0,0,42.5,0,44.1
		s0,3.3,0,5s0,3.4,0,4.8c0,1.5,0,2.5,0,3c0.1,1.7,0.2,3,0.5,4.1c0.3,1,0.8,1.8,1.6,2.4c0.8,0.6,1.9,1,3.3,1.2
		c1.4,0.2,3.3,0.3,5.6,0.3c1.3,0,2.8,0,4.6-0.1s3.3-0.4,4.5-0.9c1.3-0.5,2.2-1.3,2.9-2.4c0.6-1.1,1.1-2.6,1.4-4.6
		c0.2-1,0.5-1.5,0.9-1.5l0.5,0.5v1c0,0.2,0,0.7-0.1,1.5s-0.2,1.7-0.3,2.7c-0.1,1-0.3,2-0.4,3c-0.1,1-0.2,1.7-0.4,2.2
		c-0.2,0.6-0.4,1.1-0.6,1.5l-0.9,0.7c-0.4,0.2-0.9,0.3-1.4,0.3c-0.6,0-1.3,0-2.3,0c-3.6,0-6.7,0-9.3-0.1s-4.9-0.1-6.7-0.2
		c-1.8-0.1-3.4-0.2-4.6-0.2c-1.2,0-2.2,0-2.8,0c-0.1,0-0.5,0-1.2,0s-1.6,0-2.6,0.1c-1,0-1.9,0-2.9,0.1s-1.9,0.1-2.6,0.1
		c-1,0-1.5-0.3-1.5-0.8c0-0.4,0.3-0.6,0.8-0.6c0.4,0,0.9,0,1.4-0.1s1-0.2,1.4-0.3c0.9-0.2,1.6-0.8,1.9-1.7c0.3-1,0.6-2.2,0.8-3.6
		c0.3-2.1,0.4-4.9,0.4-8.6c0-3.6,0.1-7.8,0.1-12.5L827.7,90.8L827.7,90.8z"/>
	<path class="st0" d="M837.7,103.6c-1.4-0.7-2.4-1.2-3.1-1.5c-0.9-0.4-1.8-0.9-2.8-1.4s-2.2-0.8-3.7-0.8c-0.8,0-1.6,0.1-2.2,0.4
		c-0.7,0.3-1.2,0.6-1.7,1s-0.9,0.8-1.1,1.2l-0.7,0.9c-0.5,0.6-1,0.9-1.3,0.9l-0.6-0.6l0.2-0.7l0.5-0.8c0.3-0.5,0.8-1.2,1.4-1.9
		c0.6-0.8,1.3-1.5,2-2.3c0.8-0.7,1.6-1.4,2.4-1.9c0.8-0.5,1.6-0.8,2.4-0.8c1.1,0,2.4,0.3,3.7,1c1.4,0.6,2.8,1.3,4.2,2
		c0.7,0.3,1.6,0.7,2.7,1.1c1.1,0.4,2,0.6,2.8,0.6c0.9,0,1.7-0.1,2.4-0.4s1.3-0.5,1.8-0.9c0.5-0.3,0.8-0.6,1.1-0.9l0.5-0.6
		c0.4-0.7,0.8-1.1,1.1-1.1c0.4,0,0.7,0.2,0.7,0.6c0,0.3-0.1,0.7-0.4,1.3c-0.2,0.4-0.6,1-1.1,1.7c-0.6,0.7-1.2,1.5-2,2.2
		s-1.6,1.4-2.4,1.9c-0.8,0.5-1.6,0.8-2.4,0.8C840.5,104.6,839,104.3,837.7,103.6"/>
	<path class="st0" d="M392.2,227.8c-1.2-0.2-2.3-0.6-3.3-1.1l-0.7-0.6c-0.1-0.2-0.1-0.7-0.1-1.4c0-1.3,0-2.5,0.1-3.4
		c0.1-1,0.1-1.7,0.1-2.1c0-0.6,0.2-0.8,0.4-0.8l0.4,0.6v0.9l0.1,1.1c0.2,1,0.5,1.8,1,2.5s1.1,1.2,1.8,1.6c0.7,0.4,1.5,0.7,2.3,0.9
		s1.6,0.3,2.5,0.3c1.2,0,2.3-0.2,3.2-0.6c0.9-0.4,1.7-0.9,2.3-1.6c0.6-0.7,1-1.4,1.3-2.2s0.5-1.7,0.5-2.5c0-0.9-0.1-1.7-0.3-2.5
		c-0.2-0.7-0.5-1.5-1-2.2s-1.1-1.4-1.8-2.2c-0.7-0.7-1.7-1.6-2.8-2.5l-2.3-1.9c-1.4-1.1-2.5-2.2-3.3-3.2c-0.9-1-1.5-1.9-2-2.8
		c-0.5-0.9-0.8-1.8-1-2.7s-0.3-1.7-0.3-2.6c0-1.4,0.2-2.7,0.7-3.8c0.5-1.2,1.2-2.1,2.1-3c0.9-0.8,2-1.5,3.3-1.9s2.8-0.7,4.4-0.7
		c1,0,1.9,0,2.6,0.1c0.8,0.1,1.5,0.2,2.1,0.4c0.5,0.1,0.8,0.2,1.1,0.2h0.7l0.5,0.4c0,0.1,0,0.7-0.1,1.5c-0.1,0.9-0.1,2.2-0.1,4
		c0,0.8-0.1,1.2-0.4,1.2l-0.3-0.2l-0.1-0.5c0-0.3-0.1-0.8-0.2-1.3c-0.1-0.6-0.3-1-0.4-1.3l-0.5-0.7c-0.2-0.3-0.6-0.6-1.1-0.9
		c-0.5-0.3-1.1-0.6-1.9-0.8s-1.7-0.3-2.9-0.3c-1.8,0-3.3,0.5-4.5,1.6s-1.8,2.5-1.8,4.5c0,0.7,0.1,1.4,0.3,2.1c0.2,0.6,0.5,1.3,1,2
		s1.1,1.4,1.9,2.1c0.8,0.8,1.8,1.6,3,2.6l1.4,1.1c1.5,1.2,2.7,2.3,3.7,3.4c1,1,1.7,2,2.3,3c0.6,1,0.9,1.9,1.1,2.9s0.3,2,0.3,3
		c0,0.5-0.1,1.1-0.2,1.9c-0.1,0.7-0.3,1.5-0.7,2.3c-0.3,0.8-0.8,1.6-1.3,2.4c-0.6,0.8-1.3,1.5-2.2,2.1c-1.1,0.8-2.3,1.4-3.6,1.7
		c-1.3,0.3-2.7,0.5-4.1,0.5C394.5,228.1,393.4,228,392.2,227.8"/>
	<path class="st0" d="M458.4,220.3c0,1.1,0.1,2,0.2,2.7s0.2,1.3,0.4,1.8c0.1,0.5,0.3,0.8,0.6,1.1l0.9,0.5c0.5,0.1,1,0.2,1.5,0.3
		c0.5,0,0.9,0.1,1.1,0.1l0.4,0.3c0,0.3-0.3,0.4-0.9,0.4c-1.5,0-2.7,0-3.6-0.1s-1.5-0.1-1.8-0.1c-0.2,0-0.8,0-1.8,0.1
		c-0.9,0.1-2,0.1-3.1,0.1c-0.5,0-0.8-0.1-0.8-0.4l0.4-0.3c0.2,0,0.5,0,0.9-0.1l1.2-0.3c0.6-0.2,1.1-0.7,1.2-1.7
		c0.2-0.9,0.3-2.6,0.3-5l0.1-29.9c0-1,0-1.7,0.1-2.1l0.4-0.5c0.2,0,0.5,0.2,0.8,0.6c0.4,0.4,0.7,0.8,1,1c0.2,0.2,0.8,0.9,1.7,2
		c1,1.1,2.2,2.5,3.7,4.1s3.2,3.5,5,5.5c1.9,2,3.8,4.2,5.7,6.3c1.3,1.4,2.5,2.8,3.8,4.2s2.5,2.8,3.6,4s2.1,2.4,3,3.3
		c0.9,1,1.5,1.6,1.9,2.1l-0.6-26.5c0-1.7-0.2-2.9-0.4-3.6c-0.3-0.7-0.8-1.1-1.5-1.3c-0.5-0.1-1-0.2-1.5-0.2s-0.8-0.1-1-0.1l-0.4-0.4
		c0-0.2,0.3-0.4,1-0.4c0.6,0,1.1,0,1.7,0s1.1,0,1.6,0s0.9,0,1.3,0.1h0.7c0.3,0,0.8,0,1.6-0.1c0.8,0,1.7-0.1,2.8-0.1
		c0.6,0,0.9,0.1,0.9,0.4l-0.6,0.4h-0.5l-0.7,0.1c-0.8,0.2-1.4,0.6-1.6,1.3s-0.3,1.8-0.3,3.4l-0.1,30.6c0,0.9,0,1.6,0,2
		c0,0.5,0,0.9-0.1,1.1l-0.1,0.5l-0.2,0.1l-0.4-0.1l-0.6-0.5c-0.3-0.2-0.6-0.6-1-1s-1-1-1.7-1.7c-0.1-0.1-0.7-0.7-1.6-1.6
		c-0.9-0.9-2-2.1-3.3-3.4c-1.3-1.4-2.7-2.9-4.2-4.5s-2.9-3.2-4.3-4.6c-1.5-1.6-3-3.2-4.4-4.8s-2.7-3-3.9-4.4
		c-1.2-1.4-2.2-2.5-3.1-3.5s-1.5-1.7-1.9-2.2L458.4,220.3z"/>
	<path class="st0" d="M529.6,214.1c0-1.1,0-1.9-0.1-2.5c0-0.6-0.1-1.1-0.3-1.5l-0.7-0.8c-0.3-0.2-0.7-0.4-1.2-0.5l-0.8-0.1h-0.9
		l-0.4-0.3c0-0.3,0.3-0.4,0.8-0.4c0.6,0,1.2,0,1.8,0s1.3,0,1.8,0c0.6,0,1,0,1.4,0h0.7h0.7c0.4,0,0.8,0,1.4,0c0.5,0,1,0,1.6,0
		c0.5,0,1,0,1.4,0c0.5,0,0.8,0.1,0.8,0.4l-0.4,0.3h-0.5l-0.7,0.1c-0.7,0.1-1.2,0.4-1.4,0.9c-0.3,0.5-0.4,1.2-0.5,2.1
		c-0.1,0.8-0.1,1.7-0.1,2.5s0,1.8,0,2.9v5.8c0,0.6,0,1.1,0,1.4l-0.1,0.8l-0.2,0.4l-0.4,0.3c-0.8,0.5-1.7,0.8-2.7,1.1
		s-1.9,0.5-2.9,0.7s-1.9,0.3-2.8,0.4c-0.9,0.1-1.7,0.1-2.5,0.1c-1,0-2.1,0-3.5-0.2c-1.3-0.1-2.7-0.4-4.3-0.7c-1.5-0.4-3.1-1-4.6-1.7
		s-3-1.7-4.5-3c-0.8-0.7-1.5-1.6-2.3-2.6c-0.7-1-1.4-2.2-1.9-3.4c-0.6-1.3-1-2.6-1.3-4.1s-0.5-3.1-0.5-4.7c0-2.1,0.2-4,0.7-5.8
		s1.1-3.4,1.9-4.8c0.8-1.4,1.7-2.7,2.7-3.8s2.1-2,3.2-2.7c1.2-0.7,2.3-1.3,3.5-1.7c1.2-0.4,2.4-0.8,3.5-1c1.2-0.2,2.3-0.4,3.4-0.4
		c1.1-0.1,2.2-0.1,3.1-0.1c0.8,0,1.6,0,2.5,0.1c0.8,0.1,1.6,0.2,2.3,0.3s1.3,0.2,1.9,0.3c0.5,0.1,0.9,0.2,1.2,0.2
		c0.5,0.1,1.2,0.3,2,0.3c0.8,0.1,1.5,0.1,2.1,0.2l0.5,0.2l0.1,0.3l-0.1,0.7c0,0.3-0.1,0.7-0.1,1.3s-0.1,1.3-0.1,2.1
		c0,0.9-0.1,1.9-0.1,3.2c0,0.4,0,0.7-0.1,0.9l-0.4,0.2c-0.2,0-0.3-0.3-0.4-0.8c0-0.4-0.1-0.9-0.3-1.5c-0.2-0.7-0.4-1.3-0.8-1.9
		c-0.3-0.5-0.8-1-1.5-1.5s-1.5-1-2.5-1.4s-2.2-0.7-3.5-1c-1.3-0.2-2.8-0.4-4.5-0.4c-0.8,0-1.7,0-2.5,0.1c-0.9,0.1-1.8,0.2-2.7,0.4
		s-1.9,0.6-2.8,1c-1,0.5-1.9,1.1-2.9,1.9c-1.5,1.2-2.7,3-3.6,5.3s-1.4,4.9-1.4,8c0,1.8,0.2,3.5,0.6,5.1s0.9,3,1.4,4.2
		c0.6,1.2,1.2,2.3,1.8,3.1c0.6,0.9,1.2,1.5,1.6,2c2,2,4.2,3.5,6.5,4.3c2.3,0.9,4.6,1.3,6.9,1.3c0.4,0,0.9,0,1.5-0.1
		c0.5,0,1.1-0.1,1.6-0.2c0.5-0.1,1-0.2,1.5-0.3s0.9-0.3,1.2-0.5c0.7-0.4,1-1,1-1.8v-9H529.6z"/>
	<path class="st0" d="M549.4,203.1c0-2,0-3.7,0-5s0-2.3,0-3.1s0-1.4,0-1.9s0-0.9-0.1-1.3c-0.1-0.9-0.2-1.6-0.5-2s-0.8-0.8-1.7-0.9
		l-0.8-0.1h-0.9l-0.4-0.3c0-0.3,0.3-0.4,0.8-0.4c0.6,0,1.2,0,1.8,0s1.3,0,1.8,0c0.6,0,1,0,1.4,0.1h0.7c0.1,0,0.4,0,0.9,0
		s1.1,0,1.7-0.1c0.6,0,1.3,0,1.9,0c0.6,0,1.1,0,1.5,0c1.6,0,3.3,0.1,4.9,0.4c1.6,0.3,3.1,0.9,4.5,1.9c0.3,0.2,0.7,0.6,1.1,1
		c0.4,0.4,0.8,0.9,1.1,1.5c0.4,0.6,0.7,1.3,0.9,2c0.3,0.8,0.4,1.6,0.4,2.5c0,1.9-0.5,3.9-1.4,5.9s-2.5,4-4.8,6.2
		c2.1,2.8,4,5.3,5.8,7.5c1.7,2.3,3.3,4.2,4.8,5.8c1.4,1.5,2.6,2.5,3.7,2.9c1,0.5,1.9,0.7,2.6,0.8c0.5,0.1,0.9,0.1,1.2,0.1h0.8
		l0.5,0.3l-0.3,0.4c-0.2,0.1-0.5,0.1-1,0.1h-3.6c-1.4,0-2.5-0.1-3.3-0.2c-0.8-0.1-1.5-0.4-2.1-0.8c-1.1-0.6-2.2-1.5-3.2-2.8
		s-2.3-2.9-3.7-4.9c-0.5-0.7-1.1-1.5-1.6-2.2c-0.5-0.8-1.1-1.5-1.6-2.2s-1-1.3-1.4-1.9c-0.4-0.6-0.8-1-1-1.4l-0.7-0.3l-6.3-0.1
		l-0.4,0.4v1.3c0,2.5,0,4.7,0,6.7s0.1,3.5,0.2,4.6c0.1,0.8,0.2,1.4,0.5,1.9c0.2,0.5,0.8,0.8,1.5,0.9c0.4,0.1,0.8,0.1,1.3,0.2
		c0.5,0,0.8,0.1,1,0.1l0.4,0.3c0,0.3-0.3,0.4-0.8,0.4c-0.7,0-1.4,0-2.1,0c-0.7,0-1.4,0-2-0.1c-0.6,0-1.1,0-1.5-0.1h-0.7
		c-0.7,0-1.3,0.1-1.8,0.1s-1,0-1.6,0.1c-0.5,0-1,0-1.4,0c-0.5,0-0.8-0.1-0.8-0.4l0.4-0.3l0.8-0.1l0.8-0.2c0.5-0.1,0.9-0.4,1.1-0.9
		c0.2-0.5,0.3-1.2,0.4-1.9c0.1-1.1,0.2-2.7,0.2-4.6c0-2,0-4.2,0-6.7L549.4,203.1z M553.5,207.6l0.4,0.6c0.4,0.2,1.1,0.4,2.1,0.6
		c1,0.2,2.1,0.2,3.2,0.2c0.6,0,1.3-0.1,1.9-0.2c0.7-0.1,1.3-0.4,1.9-0.8c0.9-0.6,1.6-1.6,2.2-3c0.6-1.4,0.9-3,0.9-5
		c0-3.3-0.8-5.8-2.4-7.7c-1.6-1.8-3.7-2.8-6.5-2.8c-0.8,0-1.5,0-2.1,0.1s-1.1,0.1-1.3,0.2l-0.4,0.6L553.5,207.6L553.5,207.6z"/>
	<path class="st0" d="M635.7,203.1c0-2,0-3.7,0-5s0-2.3,0-3.1s0-1.4,0-1.9s0-0.9-0.1-1.3c-0.1-0.9-0.2-1.6-0.5-2s-0.8-0.8-1.7-0.9
		l-0.8-0.1h-0.9l-0.4-0.3c0-0.3,0.3-0.4,0.8-0.4c0.6,0,1.2,0,1.8,0s1.3,0,1.8,0c0.6,0,1,0,1.4,0.1h0.7c0.1,0,0.4,0,0.9,0
		s1,0,1.6-0.1c0.6,0,1.3,0,2.1,0s1.5,0,2.3,0c1.3,0,2.7,0,4.5,0c1.7,0,3.5,0.2,5.4,0.5s3.7,0.9,5.6,1.7c1.8,0.8,3.5,2,5.1,3.6
		c0.6,0.7,1.3,1.5,1.9,2.3c0.6,0.9,1.1,1.9,1.6,3s0.8,2.3,1.1,3.6s0.4,2.8,0.4,4.3c0,1.6-0.2,3.2-0.5,4.6c-0.3,1.5-0.7,2.8-1.2,4
		s-1.1,2.4-1.8,3.4s-1.3,1.9-2.1,2.7c-0.5,0.6-1.3,1.2-2.1,1.9c-0.9,0.7-1.9,1.3-3.2,2c-1.3,0.6-2.7,1.1-4.4,1.5s-3.6,0.6-5.8,0.6
		c-1.1,0-2.3-0.1-3.6-0.1c-1.3-0.1-2.5-0.1-3.6-0.2c-1.1-0.1-2.1-0.1-2.9-0.2c-0.8-0.1-1.2-0.1-1.4-0.1H637c-0.4,0-0.8,0-1.4,0.1
		c-0.5,0-1,0-1.6,0c-0.5,0-1,0.1-1.4,0.1c-0.5,0-0.8-0.1-0.8-0.4l0.4-0.3l0.8-0.1l0.8-0.2c0.5-0.1,0.8-0.4,1-0.9s0.3-1.2,0.4-1.9
		c0.1-1.1,0.2-2.7,0.2-4.6c0-2,0-4.2,0-6.7L635.7,203.1z M640,208.7c0,1.4,0,2.7,0,4s0,2.4,0,3.4s0,1.9,0.1,2.6c0,0.7,0,1.2,0,1.4
		v1.1l0.1,1.2l0.2,1l0.3,0.7l0.8,0.7c0.4,0.2,0.9,0.5,1.5,0.7c0.7,0.2,1.5,0.4,2.6,0.5c1,0.1,2.3,0.2,3.8,0.2c2.4,0,4.6-0.4,6.7-1.3
		c2.1-0.8,3.9-2,5.5-3.6c0.6-0.7,1.2-1.5,1.7-2.4s0.9-2,1.3-3.1c0.4-1.1,0.6-2.2,0.8-3.4s0.3-2.4,0.3-3.6c0-1.7-0.2-3.2-0.5-4.5
		c-0.3-1.4-0.7-2.6-1.2-3.7c-0.5-1.1-1-2.1-1.6-2.9c-0.6-0.8-1.1-1.5-1.6-2.1c-1.2-1.3-2.4-2.3-3.8-3.1c-1.3-0.8-2.7-1.4-4.1-1.8
		c-1.4-0.4-2.8-0.7-4.3-0.8s-3-0.2-4.5-0.2h-0.9l-1,0.1l-0.9,0.1l-0.5,0.1c-0.4,0.2-0.6,0.5-0.6,1s0,1.1,0,1.9c0,0.8,0,1.8,0,2.8
		s0,2.1,0,3.2c0,1.1,0,2.2,0,3.2v6.6H640z"/>
	<path class="st0" d="M606.2,220.6l-0.3-0.3c-0.2,0-0.4,0.3-0.5,0.8c-0.2,1.1-0.4,1.9-0.8,2.5c-0.3,0.6-0.8,1-1.5,1.3
		s-1.5,0.5-2.4,0.5c-0.9,0.1-1.8,0.1-2.5,0.1c-1.2,0-2.3-0.1-3-0.2c-0.7-0.1-1.3-0.3-1.7-0.6s-0.7-0.7-0.9-1.3s-0.2-1.3-0.3-2.2
		c0-0.3,0-0.8,0-1.6s0-1.7,0-2.6c0-0.9,0-1.8,0-2.7c0-0.2,0-2.1,0-4.8c0.3,0.1,0.6,0.3,1,0.5c0.7,0.4,1.5,0.5,2.4,0.5
		c0.4,0,0.8-0.1,1.3-0.4c0.4-0.3,0.9-0.6,1.3-1c0.4-0.4,0.8-0.8,1.1-1.2l0.6-0.9l0.2-0.7l-0.4-0.3l-0.6,0.6l-0.3,0.4l-0.6,0.5
		l-0.9,0.5c-0.4,0.1-0.8,0.2-1.3,0.2c-0.4,0-0.9-0.1-1.5-0.3s-1.1-0.4-1.5-0.6l-0.8-0.4c0-6.9,0-16.2,0-16.2l0.3-0.5
		c0.1,0,0.5,0,1.2,0s1.4,0,2.2,0s1.5,0,2.2,0.1c0.7,0,1.2,0,1.4,0.1c1.4,0.2,2.3,0.4,2.7,0.7s0.7,0.7,0.9,1.1l0.3,1v0.8
		c0,0.5,0.1,0.7,0.4,0.7l0.2-0.2l0.1-0.4l0.1-0.7l0.1-1l0.1-1v-0.7c0.1-0.7,0.2-1.3,0.3-1.6l0.2-0.8l-0.2-0.5l-0.4,0.1l-0.4,0.2
		c-0.5,0.1-1.2,0.2-2.2,0.3c-0.3,0-1.1,0-2.3,0s-2.5,0-3.9,0s-2.6,0-3.7,0c-1.1,0-1.7,0-1.8,0l-2.1-0.1c-0.6,0-1.2-0.1-1.8-0.1
		s-1.3,0-1.8,0s-0.8,0.1-0.8,0.4l0.4,0.3h0.9l0.8,0.1c0.8,0.2,1.4,0.5,1.7,0.9c0.3,0.5,0.5,1.1,0.5,2c0,0.4,0.1,0.9,0.1,1.3
		c0,0.5,0,1.1,0,1.9c0,0.8,0,1.8,0,3.1s0,2.9,0,4.9v2.7l-0.5,0.1c-0.4,0.3-0.9,0.6-1.3,1c-0.4,0.4-0.8,0.8-1.1,1.2s-0.6,0.8-0.7,1
		l-0.3,0.4l-0.1,0.4l0.3,0.3l0.7-0.5l0.4-0.5l0.6-0.6l0.9-0.5l1-0.2v4.2c0,2.5,0,4.7,0,6.7s-0.1,3.5-0.2,4.6
		c-0.1,0.8-0.2,1.4-0.4,1.9s-0.5,0.8-1,0.9l-0.8,0.1l-0.8,0.1l-0.4,0.3c0,0.3,0.3,0.4,0.8,0.4c0.4,0,0.8,0,1.4-0.1
		c0.6,0,1.1,0,1.6,0s1-0.1,1.4-0.1h0.7c0.4,0,0.9,0,1.5,0s1.5,0.1,2.4,0.1c1,0,2.2,0.1,3.6,0.1c1.4,0,3.1,0.1,5,0.1
		c0.5,0,0.9,0,1.2,0l0.8-0.2l0.5-0.4l0.3-0.8c0.1-0.3,0.1-0.7,0.2-1.2c0.1-0.5,0.1-1.1,0.2-1.6c0.1-0.5,0.1-1,0.2-1.5
		c0.1-0.4,0.1-0.7,0.1-0.8L606.2,220.6z"/>
	<path class="st0" d="M749.8,220.6l-0.3-0.3c-0.2,0-0.4,0.3-0.5,0.8c-0.2,1.1-0.4,1.9-0.8,2.5c-0.3,0.6-0.8,1-1.5,1.3
		s-1.5,0.5-2.4,0.5c-1,0.1-1.8,0.1-2.5,0.1c-1.2,0-2.3-0.1-3-0.2c-0.7-0.1-1.3-0.3-1.8-0.6c-0.4-0.3-0.7-0.7-0.9-1.3
		s-0.2-1.3-0.3-2.2c0-0.3,0-0.8,0-1.6s0-1.7,0-2.6c0-0.9,0-1.8,0-2.7c0-0.2,0-2.1,0-4.8c0.3,0.1,0.6,0.3,1,0.5
		c0.7,0.4,1.5,0.5,2.4,0.5c0.4,0,0.8-0.1,1.3-0.4c0.4-0.3,0.9-0.6,1.3-1c0.4-0.4,0.8-0.8,1.1-1.2l0.6-0.9l0.2-0.7l-0.4-0.3l-0.6,0.6
		l-0.3,0.4l-0.6,0.5l-0.9,0.5c-0.4,0.1-0.8,0.2-1.3,0.2c-0.4,0-0.9-0.1-1.5-0.3s-1.1-0.4-1.5-0.6l-0.8-0.4c0-6.9,0-16.2,0-16.2
		l0.3-0.5c0.1,0,0.5,0,1.2,0s1.4,0,2.2,0s1.5,0,2.2,0.1c0.7,0,1.2,0,1.4,0.1c1.4,0.2,2.3,0.4,2.7,0.7c0.5,0.3,0.7,0.7,0.9,1.1l0.3,1
		v0.8c0,0.5,0.1,0.7,0.4,0.7l0.2-0.2l0.1-0.4l0.1-0.7l0.1-1l0.1-1v-0.7c0.1-0.7,0.2-1.3,0.3-1.6l0.2-0.8l-0.2-0.5l-0.4,0.1l-0.4,0.2
		c-0.5,0.1-1.2,0.2-2.2,0.3c-0.3,0-1.1,0-2.3,0s-2.5,0-3.9,0s-2.6,0-3.7,0c-1.1,0-1.7,0-1.8,0l-2.1-0.1c-0.6,0-1.2-0.1-1.8-0.1
		s-1.3,0-1.8,0s-0.8,0.1-0.8,0.4l0.4,0.3h0.9l0.8,0.1c0.8,0.2,1.4,0.5,1.7,0.9c0.3,0.5,0.5,1.1,0.5,2c0,0.4,0.1,0.9,0.1,1.3
		c0,0.5,0,1.1,0,1.9c0,0.8,0,1.8,0,3.1s0,2.9,0,4.9v2.7l-0.5,0.1c-0.4,0.3-0.9,0.6-1.3,1c-0.4,0.4-0.8,0.8-1.1,1.2s-0.6,0.8-0.7,1
		l-0.3,0.4l-0.1,0.4l0.3,0.3l0.7-0.5l0.4-0.5l0.6-0.6l0.9-0.5l1-0.2v4.2c0,2.5,0,4.7,0,6.7s-0.1,3.5-0.2,4.6
		c-0.1,0.8-0.2,1.4-0.4,1.9s-0.5,0.8-1.1,0.9l-0.8,0.1l-0.8,0.1l-0.4,0.3c0,0.3,0.3,0.4,0.8,0.4c0.4,0,0.8,0,1.4-0.1
		c0.5,0,1.1,0,1.6,0s1-0.1,1.4-0.1h0.7c0.4,0,0.9,0,1.5,0s1.5,0.1,2.4,0.1c1,0,2.2,0.1,3.6,0.1c1.4,0,3.1,0.1,5,0.1
		c0.5,0,0.9,0,1.2,0l0.8-0.2l0.4-0.4l0.3-0.8c0.1-0.3,0.1-0.7,0.2-1.2c0.1-0.5,0.1-1.1,0.2-1.6c0.1-0.5,0.1-1,0.2-1.5
		c0-0.4,0.1-0.7,0.1-0.8L749.8,220.6z"/>
	<path class="st0" d="M816.8,220.6l-0.3-0.3c-0.2,0-0.4,0.3-0.5,0.8c-0.2,1.1-0.4,1.9-0.8,2.5c-0.3,0.6-0.8,1-1.5,1.3
		s-1.5,0.5-2.4,0.5c-1,0.1-1.8,0.1-2.5,0.1c-1.2,0-2.3-0.1-3-0.2c-0.7-0.1-1.3-0.3-1.8-0.6c-0.4-0.3-0.7-0.7-0.9-1.3
		s-0.2-1.3-0.3-2.2c0-0.3,0-0.8,0-1.6s0-1.7,0-2.6c0-0.9,0-1.8,0-2.7c0-0.2,0-2.1,0-4.8c0.3,0.1,0.6,0.3,1,0.5
		c0.7,0.4,1.5,0.5,2.4,0.5c0.4,0,0.8-0.1,1.3-0.4c0.4-0.3,0.9-0.6,1.3-1c0.4-0.4,0.8-0.8,1.1-1.2l0.6-0.9l0.2-0.7l-0.4-0.3l-0.6,0.6
		l-0.3,0.4l-0.6,0.5l-0.9,0.5c-0.4,0.1-0.8,0.2-1.3,0.2c-0.4,0-0.9-0.1-1.5-0.3s-1.1-0.4-1.5-0.6l-0.8-0.4c0-6.9,0-16.2,0-16.2
		l0.3-0.5c0.1,0,0.5,0,1.2,0s1.4,0,2.2,0s1.5,0,2.2,0.1c0.7,0,1.2,0,1.4,0.1c1.4,0.2,2.3,0.4,2.7,0.7s0.7,0.7,0.9,1.1l0.3,1v0.8
		c0,0.5,0.1,0.7,0.4,0.7l0.2-0.2l0.1-0.4l0.1-0.7l0.1-1l0.1-1v-0.7c0.1-0.7,0.2-1.3,0.3-1.6l0.2-0.8l-0.2-0.5l-0.4,0.1l-0.4,0.2
		c-0.5,0.1-1.2,0.2-2.2,0.3c-0.3,0-1.1,0-2.3,0s-2.5,0-3.9,0s-2.6,0-3.7,0c-1.1,0-1.7,0-1.8,0l-2.1-0.1c-0.6,0-1.2-0.1-1.8-0.1
		s-1.3,0-1.8,0s-0.8,0.1-0.8,0.4l0.4,0.3h0.9l0.8,0.1c0.8,0.2,1.4,0.5,1.7,0.9c0.3,0.5,0.4,1.1,0.5,2c0,0.4,0.1,0.9,0.1,1.3
		c0,0.5,0,1.1,0,1.9c0,0.8,0,1.8,0,3.1s0,2.9,0,4.9v2.7l-0.5,0.1c-0.4,0.3-0.9,0.6-1.3,1c-0.4,0.4-0.8,0.8-1.1,1.2s-0.6,0.8-0.7,1
		l-0.3,0.4l-0.1,0.4l0.3,0.3l0.7-0.5l0.4-0.5l0.6-0.6l0.9-0.5l1-0.2v4.2c0,2.5,0,4.7,0,6.7s-0.1,3.5-0.2,4.6
		c-0.1,0.8-0.2,1.4-0.4,1.9s-0.5,0.8-1.1,0.9l-0.8,0.1l-0.8,0.1l-0.4,0.3c0,0.3,0.3,0.4,0.8,0.4c0.4,0,0.8,0,1.4-0.1
		c0.5,0,1.1,0,1.6,0s1-0.1,1.4-0.1h0.7c0.4,0,0.9,0,1.5,0c0.7,0,1.5,0.1,2.4,0.1c1,0,2.2,0.1,3.6,0.1c1.4,0,3.1,0.1,5,0.1
		c0.5,0,0.9,0,1.2,0l0.8-0.2l0.4-0.4l0.3-0.8c0.1-0.3,0.1-0.7,0.2-1.2c0.1-0.5,0.1-1.1,0.2-1.6c0.1-0.5,0.1-1,0.2-1.5
		c0.1-0.4,0.1-0.7,0.1-0.8L816.8,220.6z"/>
	<path class="st0" d="M641,210c-0.7-0.4-1.3-0.6-1.7-0.8c-0.5-0.2-1-0.5-1.5-0.8s-1.2-0.4-2-0.4c-0.4,0-0.8,0.1-1.2,0.2l-0.9,0.5
		l-0.6,0.6l-0.4,0.5l-0.7,0.5l-0.3-0.3l0.1-0.4l0.3-0.4c0.2-0.3,0.4-0.6,0.7-1s0.7-0.8,1.1-1.2c0.4-0.4,0.8-0.7,1.3-1
		s0.9-0.4,1.3-0.4c0.6,0,1.3,0.2,2,0.5s1.5,0.7,2.3,1.1c0.4,0.2,0.9,0.4,1.5,0.6c0.6,0.2,1.1,0.3,1.5,0.3c0.5,0,0.9-0.1,1.3-0.2
		l0.9-0.5l0.6-0.5l0.3-0.4l0.6-0.6l0.4,0.3l-0.2,0.7l-0.6,0.9c-0.3,0.4-0.7,0.8-1.1,1.2c-0.4,0.4-0.8,0.7-1.3,1
		c-0.4,0.3-0.9,0.4-1.3,0.4C642.5,210.5,641.7,210.4,641,210"/>
	<path class="st0" d="M449.2,226.7l-0.9-0.1l-1.1-0.3l-0.9-0.4c-0.3-0.2-0.7-0.5-1-0.9c-0.4-0.4-0.8-1-1.2-1.7
		c-0.4-0.7-0.9-1.7-1.3-2.8c-0.5-1.3-1.1-3-1.9-5s-1.6-4.1-2.4-6.3s-1.7-4.4-2.5-6.7c-0.9-2.3-1.6-4.3-2.3-6.2
		c-0.7-1.9-1.3-3.5-1.8-4.8s-0.8-2.1-0.9-2.4c-0.3-0.8-0.5-1.3-0.7-1.5l-0.5-0.3l-0.5,0.4c-0.1,0.2-0.4,0.8-0.7,1.7L417,221.7
		c-0.5,1.3-1,2.4-1.6,3.3c-0.6,0.9-1.5,1.4-2.7,1.6l-0.8,0.1h-0.7l-0.4,0.3c0,0.3,0.3,0.4,1,0.4c0.6,0,1.2,0,1.8,0
		c0.6,0,1.2,0,1.7-0.1c0.5,0,1,0,1.4-0.1h0.8h0.7l1.1,0.1c0.4,0,0.8,0,1.2,0.1c0.4,0,0.8,0,1.1,0c0.5,0,0.8-0.1,0.8-0.4l-0.5-0.3
		h-0.5c-0.4,0-0.9-0.1-1.3-0.4c-0.4-0.2-0.6-0.6-0.6-1.1c0-1,0.2-2.1,0.7-3.5l1.4-4.2l1.6-4.8l0.5-0.5l0.9-0.5
		c0.4-0.2,0.7-0.2,1.2-0.2c0.8,0,1.4,0.1,2,0.4c0.5,0.3,1,0.6,1.5,0.8c0.4,0.2,0.9,0.4,1.7,0.8c0.7,0.4,1.5,0.5,2.4,0.5
		c0.4,0,0.8-0.1,1.3-0.4l0.9-0.7l1.7,4.7l2.9,7.7c0.2,0.4,0.2,0.7,0.1,1l-0.4,0.4l-0.4,0.4l0.4,0.3c0.3,0,0.6,0,1.1,0.1
		c0.9,0,1.8,0.1,2.6,0.1c0.9,0,1.7,0,2.4,0c0.7,0,1.4,0,1.9,0c0.6,0,0.9,0,1.1,0l0.7-0.1l0.3-0.4L449.2,226.7z M433.5,211.4
		c-0.4,0-0.9-0.1-1.5-0.3s-1.1-0.4-1.5-0.6c-0.8-0.4-1.5-0.7-2.3-1.1c-0.7-0.3-1.4-0.5-2-0.5c-0.4,0-0.8,0.2-1.3,0.4l-1.1,0.9
		l2.8-8.5l1.9-6.1c0.2-0.8,0.5-0.8,0.8,0l2.5,7.1l3,8.4C434.4,211.3,433.9,211.4,433.5,211.4z"/>
	<path class="st0" d="M705.3,212.2c0,7.5,0.1,10.5,1,11.4c0.8,0.8,2.8,1.2,6.9,1.2c2.7,0,5-0.1,6.2-1.6c0.6-0.8,1.1-1.9,1.2-2.9
		l0.5-0.7c0.2,0,0.4,0.2,0.4,0.8c0,0.5-0.4,3.6-0.8,5.1c-0.3,1.2-0.5,1.4-3.3,1.4c-3.7,0-6.5-0.1-9-0.2c-2.3-0.1-4.1-0.1-5.6-0.1
		c-0.2,0-1.1,0-2.1,0.1c-1.1,0.1-2.2,0.1-3,0.1c-0.5,0-0.8-0.1-0.8-0.4l0.4-0.4c0.5,0,1.1-0.1,1.6-0.2c1-0.2,1.1-1.2,1.3-2.7
		c0.3-2.1,0.3-6.1,0.3-11v-9c0-7.9,0-9.3-0.1-10.9c-0.1-1.7-0.4-2.6-2.1-2.8c-0.4-0.1-1.3-0.1-1.8-0.1l-0.4-0.4
		c0-0.3,0.2-0.4,0.8-0.4c2.3,0,5.6,0.1,5.8,0.1s4.1-0.1,5.7-0.1c0.5,0,0.8,0.1,0.8,0.4l-0.4,0.4c-0.3,0-1.1,0.1-1.7,0.1
		c-1.5,0.3-1.8,1.1-1.9,2.9c-0.1,1.6-0.1,3.1-0.1,10.9L705.3,212.2z"/>
	<path class="st0" d="M769,213.6c0-2.7-0.3-3.8-1.1-5.2c-0.4-0.8-7.4-12.1-9.1-14.8c-1.2-1.9-2.5-3.1-3.4-3.7
		c-0.8-0.5-1.8-0.7-2.2-0.7l-0.5-0.5c0-0.2,0.2-0.4,0.6-0.4c1,0,4.9,0.1,5.1,0.1c0.4,0,2.5-0.1,4.5-0.1c0.6,0,0.7,0.1,0.7,0.4
		c0,0.2-0.4,0.4-0.8,0.5c-0.4,0.2-0.6,0.4-0.6,0.8c0,0.7,0.3,1.3,0.7,2l9.4,15.8c1.1-2.2,7.5-13,8.4-14.7c0.6-1.1,0.9-2,0.9-2.6
		c0-0.7-0.2-1.1-0.8-1.3c-0.5-0.1-0.8-0.4-0.8-0.6c0-0.2,0.3-0.3,0.8-0.3c1.3,0,3.2,0.1,3.6,0.1c0.4,0,4-0.1,5-0.1l0.6,0.3
		c0,0.2-0.2,0.5-0.6,0.5c-0.6,0-1.6,0.2-2.4,0.7c-1,0.6-1.5,1.1-2.6,2.5c-1.7,2-9,14-10,16.1c-0.9,1.8-0.6,3.4-0.6,5.1v4.4
		c0,0.8,0,3,0.2,5.1c0.1,1.5,0.5,2.5,2,2.7c0.7,0.1,1.9,0.2,2.3,0.2l0.4,0.4c0,0.2-0.3,0.4-0.8,0.4c-2.9,0-6.2-0.2-6.5-0.2
		c-0.2,0-3.5,0.2-5,0.2c-0.6,0-0.8-0.1-0.8-0.4l0.4-0.4c0.5,0,1-0.1,1.5-0.2c1-0.2,1.4-1.2,1.5-2.7c0.1-2.1,0.1-4.3,0.1-5.1v-4.3
		H769z"/>
	<path class="st0" d="M827.1,219.9c0.1,4.2,0.6,5.4,2,5.8c0.9,0.2,2.1,0.3,2.6,0.3l0.4,0.4c0,0.3-0.4,0.4-0.9,0.4
		c-2.9,0-5-0.2-5.4-0.2c-0.5,0-2.6,0.2-5,0.2c-0.5,0-0.8-0.1-0.8-0.4l0.4-0.4c0.4,0,1.4-0.1,2.1-0.3c1.3-0.4,1.5-1.7,1.5-6.3v-29.1
		c0-2,0.3-2.6,0.7-2.6c0.6,0,1.5,1,2,1.6c0.8,0.8,8.3,9,16.3,17.3c5.1,5.4,10.6,11.4,12.2,13.1l-0.5-25.5c-0.1-3.3-0.4-4.4-1.9-4.7
		c-0.9-0.2-2.1-0.2-2.5-0.2l-0.4-0.5c0-0.3,0.4-0.4,1-0.4c2.3,0,4.8,0.1,5.4,0.1c0.6,0,2.3-0.1,4.4-0.1c0.5,0,0.9,0.1,0.9,0.4
		l-0.6,0.5c-0.2,0-0.6,0-1.2,0.1c-1.7,0.4-1.8,1.4-1.8,4.4l-0.1,29.8c0,3.3-0.1,3.6-0.4,3.6c-0.5,0-1.1-0.4-3.9-3.1
		c-0.5-0.5-8-8-13.4-13.7c-6-6.4-11.8-12.6-13.3-14.4L827.1,219.9z"/>
	<path class="st0" d="M870.8,203.1c0-7.9,0-9.3-0.1-10.9c-0.1-1.7-0.4-2.6-2.1-2.8c-0.4-0.1-1.3-0.1-1.8-0.1l-0.4-0.4
		c0-0.3,0.2-0.4,0.8-0.4c2.3,0,5.7,0.1,6,0.1c0.6,0,3.9-0.1,6.9-0.1c5.2,0,14.6-0.5,20.7,5.8c2.6,2.6,5,6.9,5,12.9
		c0,6.4-2.7,11.3-5.6,14.3c-2.2,2.3-6.9,5.9-15.6,5.9c-2.2,0-5-0.2-7.2-0.3c-2.2-0.2-4-0.3-4.2-0.3c-0.1,0-1.1,0.1-2.1,0.1
		c-1.1,0.1-2.3,0.1-3.1,0.1c-0.5,0-0.8-0.1-0.8-0.4l0.4-0.4c0.5,0,1.1-0.1,1.6-0.2c1-0.2,1.1-1.2,1.4-2.7c0.3-2.1,0.3-6.1,0.3-11
		L870.8,203.1z M875.5,208.6c0,5.4,0,10.1,0.1,11.1c0.1,1.3,0.2,3.1,0.6,3.6c0.6,1,2.5,2,8.5,2c4.7,0,9-1.6,12.1-4.6
		c2.7-2.6,4-7.4,4-12.1c0-6.5-2.7-10.6-4.9-12.7c-4.9-5-10.5-5.7-16.7-5.7c-1,0-2.6,0.2-3.1,0.4s-0.6,0.4-0.6,1L875.5,208.6
		L875.5,208.6z"/>
	<path class="st0" d="M944.2,226.5l-0.9-0.1l-1.1-0.3l-0.9-0.4c-0.3-0.2-0.7-0.5-1-0.9c-0.4-0.4-0.8-1-1.2-1.7s-0.9-1.7-1.3-2.8
		c-0.5-1.3-1.1-3-1.9-5c-0.8-2-1.6-4.1-2.4-6.3c-0.8-2.2-1.7-4.4-2.5-6.7c-0.9-2.3-1.6-4.3-2.3-6.2s-1.3-3.5-1.8-4.8
		s-0.8-2.1-0.9-2.4c-0.3-0.8-0.5-1.3-0.7-1.5l-0.5-0.3l-0.5,0.4c-0.1,0.2-0.4,0.8-0.7,1.7L912,221.5c-0.5,1.3-1,2.4-1.6,3.3
		c-0.6,0.9-1.5,1.4-2.7,1.6l-0.8,0.1h-0.7l-0.5,0.3c0,0.3,0.3,0.4,1,0.4c0.6,0,1.2,0,1.8,0s1.2,0,1.7,0s1,0,1.4-0.1h0.8h0.7l1.1,0.1
		c0.4,0,0.8,0,1.2,0s0.8,0,1.1,0c0.5,0,0.8-0.1,0.8-0.4l-0.5-0.3h-0.5c-0.4,0-0.9-0.1-1.3-0.4c-0.4-0.2-0.6-0.6-0.6-1.1
		c0-1,0.2-2.1,0.7-3.5l1.4-4.2l1.6-4.8l0.5-0.5l0.9-0.5c0.4-0.2,0.8-0.2,1.2-0.2c0.8,0,1.4,0.1,2,0.4c0.5,0.3,1,0.6,1.5,0.8
		c0.4,0.2,0.9,0.4,1.7,0.8c0.7,0.4,1.5,0.5,2.4,0.5c0.4,0,0.8-0.1,1.3-0.4l0.9-0.7l1.7,4.7l2.9,7.7c0.2,0.4,0.2,0.7,0.1,1l-0.4,0.4
		l-0.4,0.4l0.4,0.3c0.3,0,0.6,0,1.1,0.1c0.9,0,1.8,0.1,2.6,0.1c0.9,0,1.7,0,2.4,0s1.4,0,1.9,0s0.9,0,1.1,0l0.7-0.1l0.3-0.4
		L944.2,226.5z M928.4,211.2c-0.4,0-0.9-0.1-1.5-0.3s-1.1-0.4-1.4-0.6c-0.8-0.4-1.5-0.7-2.3-1.1c-0.7-0.4-1.4-0.5-2-0.5
		c-0.4,0-0.8,0.1-1.3,0.4l-1.1,0.9l2.8-8.5l1.9-6.1c0.2-0.8,0.5-0.8,0.8,0l2.5,7.1l3,8.4C929.3,211.1,928.9,211.2,928.4,211.2z"/>
	<path class="st2" d="M607.8,81c1.6-4.7,4.1-9,7.4-13c3.3-4,7.6-7.3,12.8-9.9c5.2-2.6,11.3-3.9,18.5-3.9c5.8,0,11.2,0.9,16.2,2.6
		c5,1.8,9.3,4.3,13,7.6c3.6,3.3,6.5,7.4,8.6,12.1s3.1,10.1,3.1,16c0,5.7-1,11.1-3,16.2c-2,5.1-4.8,9.5-8.4,13.3
		c-3.6,3.8-8,6.8-13.1,9s-10.8,3.3-17,3.3c-7.1,0-13.1-1.2-18.2-3.7c-5.1-2.4-9.3-5.6-12.6-9.5s-5.7-8.2-7.3-13s-2.4-9.4-2.4-14
		C605.4,90.1,606.2,85.7,607.8,81 M657.4,95.5h-0.3l0.1-0.1c-0.7-0.9-2.8-1.2-4.1-2l-1-1.1l-0.1-0.6l-0.3,0.1
		c-2.5-3-4.1-6.9-4.1-6.9s-0.1,0.3-0.4,0.8c-0.4-0.2-0.8,0.1-1.6,1.5c-0.4,0.7-0.7,1.8-1.1,2.4c-0.6,0.9-1.6,0.9-2.1,1.7
		c-0.5,0.6-0.4,1.8-0.9,2.5l-1,0.7c-0.8,0.3-1.7,0.6-2.4,0.9l0,0l2.3-1.9c-1.4,0.8-3,1.6-3.1,2.6c0.9,0.3,2.3,0.9,3.1,1.4
		c1.1,0.6,1.6,2,3,1.4c-0.2,1.2,0.9,2.7,1.7,3.6c0.6,0.7,1.3,0.7,1.9,1.6c0.3,0.5,0.4,1.1,0.6,1.7v0.3v-0.2l0.2,0.4
		c0.4-1.3,1-2.4,1.8-3.5l0.8-1.4l0.3-0.8l-0.2-0.8c0.5-0.6,0.9-0.2,1.1-0.4c0.5-0.4,1-1.1,1.5-1.5c1.2-0.9,2.7-1.1,3.7-2.3
		L657.4,95.5z M618.6,107.5c1.6,4.8,3.9,8.8,6.9,12.2c2.9,3.4,6.4,5.9,10.3,7.8c4,1.8,8.3,2.7,13,2.7c2.4,0,5.1-0.4,8.3-1.3
		c3.2-0.8,6.2-2.5,9.2-5c2.9-2.5,5.4-6,7.5-10.5c2-4.5,3.1-10.5,3.1-17.9c0-6.1-0.9-11.5-2.5-16.2c-1.7-4.7-4-8.6-6.8-11.7
		c-2.9-3.1-6.2-5.5-9.9-7.1s-7.6-2.4-11.7-2.4c-4.3,0-8.3,0.7-11.9,2.1c-3.6,1.4-6.8,3.5-9.4,6.3c-2.6,2.8-4.7,6.2-6.2,10.4
		c-1.5,4.2-2.2,9-2.2,14.5C616.1,97.4,616.9,102.7,618.6,107.5z"/>
	<path class="st0" d="M650.9,93.8l-1.3,1.1C650.2,94.5,650.7,94.2,650.9,93.8"/>
</g>
</svg>
