<?xml version="1.0" encoding="utf-8"?>
<!-- Generator: Adobe Illustrator 22.0.1, SVG Export Plug-In . SVG Version: 6.00 Build 0)  -->
<svg version="1.1" id="Capa_1" xmlns="http://www.w3.org/2000/svg" xmlns:xlink="http://www.w3.org/1999/xlink" x="0px" y="0px"
	 viewBox="0 0 1031 562.4" style="enable-background:new 0 0 1031 562.4;" xml:space="preserve">
<style type="text/css">
	.st0{clip-path:url(#SVGID_2_);fill:url(#SVGID_3_);}
	.st1{fill:#FFFFFF;}
	.st2{fill:#C9292C;}
</style>
<g>
	<g>
		<g>
			<g>
				<defs>
					<path id="SVGID_1_" d="M470.7,160.9L470.7,160.9L470.7,160.9L470.7,160.9L470.7,160.9L470.7,160.9L470.7,160.9L470.7,160.9
						L470.7,160.9L470.7,160.9L470.7,160.9L470.7,160.9L470.7,160.9L470.7,160.9L470.7,160.9L470.7,160.9L470.7,160.9L470.7,160.9
						L470.7,160.9L470.7,160.9L470.7,160.9L470.7,160.9L470.7,160.9L470.7,160.9L470.7,160.9L470.7,160.9L470.7,160.9L470.7,160.9
						L470.7,160.9L470.7,160.9L470.7,160.9L470.7,160.9L470.7,160.9L470.7,160.9L470.7,160.9L470.7,160.9L470.7,160.9L470.7,160.9
						L470.7,160.9L470.7,160.9L470.7,160.9L470.7,160.9L470.7,160.9L470.7,160.9L470.7,160.9L470.7,160.9L470.7,160.9L470.7,160.9
						L470.7,160.9L470.7,160.9L470.7,160.9L470.7,160.9L470.7,160.9L470.7,160.9L470.7,160.9L470.7,160.9L470.7,160.9L470.7,160.9
						L470.7,160.9L470.7,160.9L470.7,160.9L470.7,160.9L470.7,160.9L470.7,160.9l-0.1-0.1l0,0l0,0l0,0l0,0l0,0l0,0l0,0l0,0l0,0l0,0
						l0,0l0,0l0,0l0,0l0,0l0,0l0,0l0,0l0,0L470.7,160.9L470.7,160.9L470.7,160.9L470.7,160.9L470.7,160.9L470.7,160.9L470.7,160.9
						L470.7,160.9L470.7,160.9L470.7,160.9L470.7,160.9L470.7,160.9L470.7,160.9L470.7,160.9L470.7,160.9L470.7,160.9z M561.6,171.1
						L561.6,171.1C561.5,170.9,561.5,171.2,561.6,171.1L561.6,171.1z M489.6,77.6L489.6,77.6C489.4,77.3,489.3,77.7,489.6,77.6
						C489.6,77.5,489.5,77.6,489.6,77.6z M503,96.5L503,96.5C502.9,96.3,502.7,96.8,503,96.5C503,96.4,503,96.5,503,96.5z
						 M438.7,178.6L438.7,178.6C438.4,178.8,438.9,178.7,438.7,178.6L438.7,178.6z M578.7,77.3L578.7,77.3
						C578.9,77,578.4,77.1,578.7,77.3C578.8,77.2,578.7,77.2,578.7,77.3z M615.9,65.3L615.9,65.3L615.9,65.3L615.9,65.3L615.9,65.3
						L615.9,65.3L615.9,65.3L615.9,65.3L615.9,65.3L615.9,65.3L615.9,65.3L615.9,65.3L615.9,65.3L615.9,65.3L615.9,65.3L615.9,65.3
						L615.9,65.3L615.9,65.3L615.9,65.3L615.9,65.3L615.9,65.3L615.9,65.3L615.9,65.3L615.9,65.3L615.9,65.3L615.9,65.3L615.9,65.3
						L615.9,65.3L615.9,65.3L615.9,65.3L615.9,65.3L615.9,65.3L615.9,65.3L615.9,65.3L615.9,65.3L615.9,65.3L615.9,65.3L615.9,65.3
						L615.9,65.3L615.9,65.3L615.9,65.3L615.9,65.3L615.9,65.3L615.9,65.3l-0.1-0.1l0,0l0,0l0,0l0,0l0,0l0,0l0,0l0,0l0,0l0,0l0,0
						l0,0l0,0l0,0l0,0l0,0l0,0l0,0l0,0l0,0l0,0l0,0l0,0l0,0l0,0l0,0l0,0l0,0l0,0l0,0l0,0l0,0l0,0l0,0l0,0l0,0l0,0l0,0l0,0l0,0l0,0
						l0,0l0,0l0,0l0,0L615.9,65.3L615.9,65.3L615.9,65.3L615.9,65.3L615.9,65.3L615.9,65.3L615.9,65.3L615.9,65.3L615.9,65.3
						L615.9,65.3z M440,52L440,52C439.7,52.2,440.2,52.4,440,52C439.9,52.1,440,52.1,440,52z M407.7,217.4L407.7,217.4
						C407.3,217.6,407.9,218,407.7,217.4C407.6,217.4,407.7,217.5,407.7,217.4z M620.4,222.5L620.4,222.5L620.4,222.5L620.4,222.5
						L620.4,222.5L620.4,222.5L620.4,222.5L620.4,222.5L620.4,222.5L620.4,222.5L620.4,222.5L620.4,222.5L620.4,222.5L620.4,222.5
						L620.4,222.5L620.4,222.5L620.4,222.5L620.4,222.5L620.4,222.5L620.4,222.5L620.4,222.5L620.4,222.5L620.4,222.5L620.4,222.5
						L620.4,222.5L620.4,222.5L620.4,222.5L620.4,222.5L620.4,222.5L620.4,222.5L620.4,222.5L620.4,222.5L620.4,222.5L620.4,222.5
						L620.4,222.5L620.4,222.5L620.4,222.5L620.4,222.5L620.4,222.5L620.4,222.5L620.4,222.5L620.4,222.5L620.4,222.5L620.4,222.5
						L620.4,222.5L620.4,222.5L620.4,222.5L620.4,222.5L620.4,222.5L620.4,222.5L620.4,222.5L620.4,222.5L620.4,222.5L620.4,222.5
						L620.4,222.5L620.4,222.5L620.4,222.5L620.4,222.5L620.4,222.5L620.4,222.5L620.4,222.5L620.4,222.5L620.4,222.5L620.4,222.5
						L620.4,222.5L620.4,222.5L620.4,222.5L620.4,222.5L620.4,222.5L620.4,222.5L620.4,222.5L620.4,222.5L620.4,222.5L620.4,222.5
						L620.4,222.5l-0.1-0.1l0,0l0,0l0,0l0,0l0,0l0,0l0,0l0,0l0,0l0,0l0,0l0,0l0,0l0,0l0,0l0,0l0,0l0,0l0,0l0,0l0,0l0,0l0,0l0,0l0,0
						l0,0l0,0l0,0l0,0l0,0l0,0l0,0l0,0l0,0l0,0l0,0l0,0l0,0l0,0l0,0l0,0l0,0l0,0l0,0l0,0l0,0l0,0l0,0l0,0l0,0l0,0l0,0L620.4,222.5
						L620.4,222.5L620.4,222.5L620.4,222.5L620.4,222.5z M590.6,104.5L590.6,104.5C590.2,104,590,104.6,590.6,104.5
						C590.5,104.3,590.5,104.5,590.6,104.5z M457.6,165.8L457.6,165.8C457.9,166.2,458.2,165.6,457.6,165.8
						C457.6,165.9,457.7,165.7,457.6,165.8z M580.9,50.4L580.9,50.4C580.2,50.1,580.1,50.6,580.9,50.4
						C580.7,50.3,580.6,50.5,580.9,50.4z M581.7,118.2L581.7,118.2C581,117.7,581.1,118.4,581.7,118.2
						C581.4,118,581.5,118.2,581.7,118.2z M506,90.7L506,90.7C505.6,90.3,505.5,91.1,506,90.7C505.9,90.6,505.9,90.7,506,90.7z
						 M563.7,158.9L563.7,158.9C564.1,158.5,563.4,158.4,563.7,158.9C563.8,158.8,563.6,158.8,563.7,158.9z M532.8,78.3L532.8,78.3
						C533.2,77.8,532.3,77.6,532.8,78.3C532.9,78.1,532.7,78.1,532.8,78.3z M491.6,83.9L491.6,83.9c0.3-0.1,0.3-0.3,0-0.6
						C491.3,83.4,491.3,83.6,491.6,83.9C491.7,83.8,491.5,83.7,491.6,83.9z M540.3,127L540.3,127C540.8,126.4,539.7,126.5,540.3,127
						C540.4,126.9,540.2,126.9,540.3,127z M420.7,254.3L420.7,254.3c0.5,0.1,0.6-0.1,0.3-0.8C420.6,253.4,420.5,253.6,420.7,254.3
						C420.8,254.3,420.7,254,420.7,254.3z M420.1,188.5L420.1,188.5C419.6,189.4,420.7,189,420.1,188.5
						C420,188.6,420.2,188.6,420.1,188.5z M542.6,106.6L542.6,106.6C543.5,107.1,543.1,106.1,542.6,106.6
						C542.8,106.7,542.7,106.5,542.6,106.6z M468.9,164.9L468.9,164.9c-0.6,0-0.3,0.4,0,0.7C469.2,165.6,469.2,165.3,468.9,164.9
						C468.8,164.9,468.9,165.1,468.9,164.9z M563.8,160.5L563.8,160.5c-0.6-0.3-1,0.4-0.4,0.7C563.5,161,563.7,160.8,563.8,160.5
						C563.7,160.5,563.7,160.8,563.8,160.5z M562.1,101L562.1,101c0.2,0.5,0.5,0.5,0.9-0.1C562.8,100.4,562.5,100.5,562.1,101
						C562.2,101.1,562.3,100.9,562.1,101z M490.4,79.7L490.4,79.7c-0.7,0.1-0.6,0.5,0.2,1.1C491.2,80.6,491.1,80.3,490.4,79.7
						C490.3,79.7,490.6,80,490.4,79.7z M620.3,207.8L620.3,207.8c0.2-0.5,0-0.7-0.7-0.5C619.4,207.9,619.6,208,620.3,207.8
						C620.3,207.7,620.1,207.8,620.3,207.8z M587.3,208.6L587.3,208.6c0.4-0.6,0-0.8-1.1-0.9C585.8,208.3,586.2,208.6,587.3,208.6
						C587.3,208.5,586.9,208.4,587.3,208.6z M578,64.6L578,64.6c-0.3-0.6-0.7-0.5-1.2,0.3C577.1,65.5,577.5,65.4,578,64.6
						C578,64.5,577.7,64.8,578,64.6z M611.9,239.3L611.9,239.3c-0.2-0.6-0.6-0.6-1.2,0.2C610.9,240.1,611.3,240,611.9,239.3
						C611.8,239.2,611.6,239.5,611.9,239.3z M542.5,77.1L542.5,77.1c0,0.6,0.4,0.7,1.3,0.2C543.9,76.7,543.5,76.6,542.5,77.1
						C542.5,77.2,543,77.1,542.5,77.1z M519.2,84.6L519.2,84.6c-0.5-0.6-0.8-0.6-1.1-0.1C518.4,85.1,518.7,85.2,519.2,84.6
						C518.9,84.4,518.9,84.8,519.2,84.6z M561.3,102.1L561.3,102.1c0.2-0.6-0.1-0.8-0.9-0.5C560.2,102.1,560.5,102.3,561.3,102.1
						C561.3,101.9,561,102,561.3,102.1z M534.9,132.8L534.9,132.8c-0.7,0.2-0.7,0.6,0,1.2C535.5,133.9,535.5,133.5,534.9,132.8
						C534.7,132.9,535,133.2,534.9,132.8z M551.6,178.2L551.6,178.2c-0.4,1-0.4,1.2,0.4,1.4C551.9,179.1,551.8,178.7,551.6,178.2z
						 M535.9,134.2L535.9,134.2c-0.8,0.6-0.7,1.2,0.4,1.9C536.9,135.5,536.7,134.9,535.9,134.2C535.5,134.6,536.2,134.8,535.9,134.2
						z M579.9,123L579.9,123c0.5-0.8,1.1-1.6,1.7-2.6C580.6,120.7,579.8,121.7,579.9,123z M411.8,201.1L411.8,201.1
						c-0.6-1.6-1.7,0.8-1.9,1.2C410.7,203,411.3,202.6,411.8,201.1C411.7,200.9,411.3,201.6,411.8,201.1z M504.8,90.3L504.8,90.3
						c-1-0.9-2.6,0.8-1.8,1.4C503.9,92,504.5,91.5,504.8,90.3C504.6,90.1,504.4,90.8,504.8,90.3z M581.2,56.8L581.2,56.8
						c-1-0.4-2,3.1-1.6,4C580.6,59.8,580.8,58.1,581.2,56.8C581,56.7,581,57.5,581.2,56.8z M409.8,204.7L409.8,204.7
						C407.1,210,411.8,206.7,409.8,204.7C409.4,205.5,410.5,205.4,409.8,204.7z M575.8,67.5L575.8,67.5c-0.2-0.1-3.8,4.5-4.4,5.1
						C572.7,73.7,575.4,68.5,575.8,67.5C575.7,67.4,574.9,69.7,575.8,67.5z M540.7,145L540.7,145c0-2.1-2-3.1-1.4-5.2
						C537.6,140.8,538.8,143.8,540.7,145C540.6,144.1,539,144,540.7,145z M420.7,251.5L420.7,251.5c1.1-0.1,1.1-6.4,0.7-7.4
						C420.2,244.2,420.6,250.4,420.7,251.5C420.8,251.5,420.7,250.8,420.7,251.5z M518.3,101.8L518.3,101.8
						c-0.9-0.9-4.5,2.5-3.7,4.4C516.1,104.9,517.1,103.3,518.3,101.8C518.2,101.7,518.1,102,518.3,101.8z M409.8,233.2L409.8,233.2
						c-1.4,0.9-2.7,0.7-1.2,2.2c-1.1-0.1-1.3,0.4-0.7,1.5C410.4,237.6,410.1,234.5,409.8,233.2C409.2,233.7,410,234.1,409.8,233.2z
						 M593.7,102.5L593.7,102.5c-0.1-1.5,1.8-3.5,2.5-4.8c-0.8-0.5-4.7,4.6-5.5,5.5C592.1,104.5,592.3,103.3,593.7,102.5
						C593.6,101.5,593.3,102.7,593.7,102.5z M504.9,89L504.9,89c3.7,2.2,9.2-1.5,12.9-3.7c-1.6-1.3-5.4,0.6-7,1.5
						C508.4,88.1,507.5,88.5,504.9,89C505.8,89.5,505.5,88.9,504.9,89z M515.2,89.9L515.2,89.9c-2.6-1.2-7.2,3.4-9.4,4.5
						c-0.8,0.4-4.9,5.5-3.2,5.1c2.3-0.5,3.8-3.3,5.4-5C510.3,92.1,513.1,91.9,515.2,89.9C514,89.3,514.3,90.8,515.2,89.9z
						 M563.8,182.9L563.8,182.9c1.5,0.1-0.1-8.6-0.1-9.9c0-1.9,0.7-9.6-0.9-10.9c-1.1,2.6-1.3,5.3-1.3,8.1c0.5,0.2,0.8-0.1,0.9-0.9
						C562.4,173.9,562,178.7,563.8,182.9C564,183,562,178.6,563.8,182.9z M466.9,267.3L466.9,267.3
						C467.1,267.4,467,267.2,466.9,267.3L466.9,267.3z M484.2,199.5L484.2,199.5L484.2,199.5L484.2,199.5L484.2,199.5L484.2,199.5
						L484.2,199.5L484.2,199.5L484.2,199.5L484.2,199.5L484.2,199.5L484.2,199.5L484.2,199.5L484.2,199.5L484.2,199.5L484.2,199.5
						L484.2,199.5L484.2,199.5L484.2,199.5L484.2,199.5L484.2,199.5L484.2,199.5L484.2,199.5L484.2,199.5L484.2,199.5L484.2,199.5
						L484.2,199.5L484.2,199.5L484.2,199.5L484.2,199.5L484.2,199.5L484.2,199.5L484.2,199.5L484.2,199.5L484.2,199.5L484.2,199.5
						L484.2,199.5L484.2,199.5L484.2,199.5L484.2,199.5L484.2,199.5L484.2,199.5L484.2,199.5L484.2,199.5L484.2,199.5L484.2,199.5
						L484.2,199.5L484.2,199.5L484.2,199.5L484.2,199.5L484.2,199.5L484.2,199.5L484.2,199.5L484.2,199.5L484.2,199.5L484.2,199.5
						L484.2,199.5L484.2,199.5L484.2,199.5L484.2,199.5L484.2,199.5L484.2,199.5L484.2,199.5L484.2,199.5L484.2,199.5L484.2,199.5
						L484.2,199.5L484.2,199.5L484.2,199.5L484.2,199.5L484.2,199.5L484.2,199.5L484.2,199.5L484.2,199.5L484.2,199.5L484.2,199.5
						L484.2,199.5L484.2,199.5L484.2,199.5L484.2,199.5L484.2,199.5L484.2,199.5z M489.6,256.4L489.6,256.4c-0.6,0.1-0.6,0.4,0,0.9
						C490,257.3,490,256.9,489.6,256.4C489.5,256.4,489.7,256.7,489.6,256.4z M472.3,264.9L472.3,264.9c2.4,1.1,1.9-0.3,0.5-2
						C472.1,263.2,471.9,263.9,472.3,264.9C472.6,265.1,472.4,264.2,472.3,264.9z M487.3,230.4L487.3,230.4
						c-1.2-0.2-1.5,4.6-1.1,5.4C487.6,234.6,487.2,232.2,487.3,230.4C487.2,230.4,487.3,230.9,487.3,230.4z M471.9,267.1
						L471.9,267.1c-0.6-1.7-2.3-1.6-3.8-1.3c-0.6,0.1-0.5,2.7,1.1,0.5C469.7,267.4,470.6,267.7,471.9,267.1
						C471.6,266.1,471.2,267.1,471.9,267.1z M486.6,245.7L486.6,245.7c-1.4,0,1.9,9.1,2.2,10C489.7,255.5,487,247,486.6,245.7
						C486.5,245.7,487.5,249,486.6,245.7z M491,244.4L491,244.4c-0.7,3.7,5.8,17.8,8.7,19.3C496.7,257.1,493.9,250.7,491,244.4z
						 M480.9,267.7c1-2.5,10.1-0.5,12.1-0.3c0.9-1.5-6-9.4-6.2-11.4c-0.3-2-1.6-4.1-2.2-6.1c-0.7-2.7-0.8-5.7-1-8.5
						c-0.5-4.9-0.1-9.4,1.7-14.1c0.5-1.2,2.2-5.9,3.7-6.1c1.4-0.2,3.2,1.5,2.8,2.9c-3,10.6-0.2,19.6,4.6,29.1
						c2.2,4.4,4.1,8.9,6.9,12.8c0.3,0.5,0.5,3.2,0.7,3.2c1.4,0.4,3.2,1.7,4.6,2.3c-3.9,3.3-9.7-6.1-12.7-3.9
						c-2.1,1.6-5.1,0.3-7.5,0.3c-3.1,0-6.8-0.1-9.9,0.3c1,1,1,2,0.2,2.9c-3.3-3.4-6.1-3-10.7-3.2c-1.2,0-2.6,0.1-3.8-0.3
						c-0.1-1.5-2.2-2.2-1.1-0.1c-1.3,0-6.1-0.7-5.8,0.7c0.5,2.6-3.2-1-4-1c-3.3,0.2-15.8,1.5-16.3-2.3c5.1,1,10.8,1.3,16.5,0.8
						c-0.4-1.9-1.2-1.4-2.9-1.3c0-0.7,0.3-1.1,1.1-1.4c0.1-0.6-1.8-3.5-2.1-4.2c-1.2-3.1-1.9-6.4-2.1-9.7
						c-0.5-6.5-0.5-10.9,1.3-17.3c0.2-1,0.4-1.9,0.8-2.8c0.9-1.2,2.6,0.7,2.4,1.6c-0.4,2.1-1.5,5-1.3,7.1c0.1,1.6,0.8,13.8,2.4,13.9
						c0.1-0.9,0.8-6,2.4-5.1c2.3,1.6,1.5,7,1.9,9c0.6,3,1.2,5.6,2.9,8.2c1.4,2.2,6-0.4,5.6,2.4c0.1,0,4.3-0.9,4.9-1
						c-1.5-3.6-4.5-6.5-5.9-10.2c-1.3-3.6-3.1-7.2-4.3-10.8c-2.5-7.7,1.6-14.8,4.5-21.7c1.5-3.4,3.8-7,6-10c1.2-1.6,2.1-3.3,3.1-5.1
						c0.7-1.2,1.7-0.2,2.5-1.2c2.2-2.6,4.7-4.8,6.9-7.4c2.3-2.8,3.6-1.9,5.5-4c1.5-1.7-0.3,4.7-0.9,5.6c-2.1,2.9-4.4,5.8-6.3,8.9
						c-3.6,6.1-8.9,12.2-11.1,19c-2.3,7.1-4.3,16.7-0.9,23.6c1.9,3.9,3.7,7.8,5.6,11.7C476.9,266.4,480.3,265.3,480.9,267.7
						C481.7,265.6,480.5,266.1,480.9,267.7z M492.1,153.4L492.1,153.4C492,153.2,491.7,153.7,492.1,153.4
						C492.1,153.4,492,153.5,492.1,153.4z M482.5,183.9L482.5,183.9c1.1,0.4,2-1.9,0.9-2.6C483.1,182.2,482.8,183.1,482.5,183.9
						C482.6,184,482.8,183.1,482.5,183.9z M484.3,174.3c2.3-6,6.1-17.8,3.5-24c-1.7,1.3-1.3,5.4-3.4,5.7c-1.1,0.2-2.4,4.1-3.3,2
						c-1.5-3.4,0.5-6.8,1.2-10.1c0.4-1.8,2.5-7.6,1.7-9.2c-1.2-2.3,0.2-6.6,0.4-9c0.2-2.7-1.1-6.8-2.3-9.1c-0.9-1.6-1.2-4-1.5-5.8
						c-0.8-5.6,3.5-0.5,4.6,1.3c2.9,4.7,7,7.5,9.9,12.2c1.5,2.5,4.7,6.3,3.6,9.4c-0.3,0.8,0.7,2.6,0.7,3.6c0,1.5-0.5,3-0.3,4.5
						c1.6,12-4.3,25.2-10.4,35.3c-2.6,4.2-4.5,8.8-6.6,13.1c-1.7,3.7-2-0.5-3.2,1.9c-0.8,1.5-2.9,4.8-4,5.9c-1.7,1.7-3.8,3-5.6,5
						c-1.8,2-2.3,4.3-3.8,6.4c-1,1.5-6.8,15-8,14.3c-1.4-0.8-1.3-4.9-1-6.1c0.7-3.5,2.1-6.4,3.8-9.5c2.9-5.2,6.3-9.1,9.6-13.7
						c1.7-2.4,3.9-5,5.1-7.6c0.8-1.8,3.2-3,3.7-4.9c0.5-1.6,1.8-3.3,2.7-4.9c0.8-1.5,1.4-3,2.2-4.5c0.3-0.6-0.3-2.1-0.1-2.3
						C483.7,174.3,484,174.3,484.3,174.3C484.8,173.2,484.1,174.4,484.3,174.3z M437.8,260.4L437.8,260.4
						C437.6,260.2,437.6,260.6,437.8,260.4L437.8,260.4z M449.4,214.2L449.4,214.2L449.4,214.2L449.4,214.2L449.4,214.2L449.4,214.2
						L449.4,214.2L449.4,214.2L449.4,214.2L449.4,214.2L449.4,214.2L449.4,214.2L449.4,214.2L449.4,214.2L449.4,214.2L449.4,214.2
						L449.4,214.2L449.4,214.2L449.4,214.2L449.4,214.2L449.4,214.2L449.4,214.2L449.4,214.2L449.4,214.2L449.4,214.2L449.4,214.2
						L449.4,214.2L449.4,214.2L449.4,214.2L449.4,214.2L449.4,214.2L449.4,214.2L449.4,214.2L449.4,214.2L449.4,214.2L449.4,214.2
						L449.4,214.2L449.4,214.2L449.4,214.2L449.4,214.2L449.4,214.2L449.4,214.2L449.4,214.2L449.4,214.2L449.4,214.2L449.4,214.2
						L449.4,214.2L449.4,214.2L449.4,214.2L449.4,214.2L449.4,214.2L449.4,214.2L449.4,214.2L449.4,214.2L449.4,214.2L449.4,214.2
						L449.4,214.2L449.4,214.2L449.4,214.2L449.4,214.2L449.4,214.2L449.4,214.2L449.4,214.2L449.4,214.2L449.4,214.2L449.4,214.2
						L449.4,214.2L449.4,214.2L449.4,214.2L449.4,214.2L449.4,214.2L449.4,214.2L449.4,214.2L449.4,214.2L449.4,214.2L449.4,214.2
						L449.4,214.2L449.4,214.2L449.4,214.2L449.4,214.2L449.4,214.2L449.4,214.2L449.4,214.2L449.4,214.2L449.4,214.2L449.4,214.2
						L449.4,214.2L449.4,214.2L449.4,214.2L449.4,214.2L449.4,214.2L449.4,214.2L449.4,214.2L449.4,214.2L449.4,214.2L449.4,214.2
						L449.4,214.2L449.4,214.2L449.4,214.2z M432.6,257.2L432.6,257.2c-0.4-0.2-0.3,0.5-0.3,0.7
						C432.6,257.9,432.7,257.6,432.6,257.2C432.5,257.1,432.5,257.4,432.6,257.2z M416.3,263.3L416.3,263.3L416.3,263.3L416.3,263.3
						 M581.6,270.1L581.6,270.1L581.6,270.1L581.6,270.1L581.6,270.1L581.6,270.1L581.6,270.1L581.6,270.1L581.6,270.1L581.6,270.1
						L581.6,270.1L581.6,270.1L581.6,270.1L581.6,270.1L581.6,270.1L581.6,270.1L581.6,270.1L581.6,270.1L581.6,270.1L581.6,270.1
						L581.6,270.1L581.6,270.1L581.6,270.1L581.6,270.1L581.6,270.1L581.6,270.1L581.6,270.1L581.6,270.1L581.6,270.1L581.6,270.1
						L581.6,270.1L581.6,270.1L581.6,270.1L581.6,270.1L581.6,270.1L581.6,270.1L581.6,270.1L581.6,270.1L581.6,270.1L581.6,270.1
						L581.6,270.1L581.6,270.1L581.6,270.1L581.6,270.1L581.6,270.1L581.6,270.1L581.6,270.1L581.6,270.1L581.6,270.1L581.6,270.1
						L581.6,270.1L581.6,270.1L581.6,270.1L581.6,270.1L581.6,270.1L581.6,270.1L581.6,270.1L581.6,270.1L581.6,270.1L581.6,270.1
						L581.6,270.1L581.6,270.1L581.6,270.1L581.6,270.1L581.6,270.1L581.6,270.1L581.6,270.1L581.6,270.1L581.6,270.1L581.6,270.1
						L581.6,270.1L581.6,270.1L581.6,270.1L581.6,270.1L581.6,270.1L581.6,270.1L581.6,270.1L581.6,270.1L581.6,270.1L581.6,270.1
						L581.6,270.1L581.6,270.1z M563.8,249.3L563.8,249.3C563.2,249,563.4,249.6,563.8,249.3C563.7,249.3,563.7,249.4,563.8,249.3z
						 M565.2,250.4L565.2,250.4c-0.5,0.5,0.4,1.3,0.9,0.7C565.8,250.9,565.5,250.6,565.2,250.4C565.1,250.5,565.5,250.6,565.2,250.4
						z M585.5,268.1L585.5,268.1c0.1-0.5-0.2-0.6-1-0.3C584.3,268.2,584.7,268.4,585.5,268.1C585.5,268,585.1,268,585.5,268.1z
						 M599.5,268c-0.3,0.5-0.6,1-1,1.5c2.2,1.6,4.4-0.9,6.5-1.5c-0.4,3.1,1.4,0.3,2.7,0.4c2.5,0.2-0.6,1.9-1.4,2
						c-3.7,0.1-7.3,0.7-11.1,1.1c-1.6,0.2-3.3,1-5.2,1.1c-2.7,0.1-4.4-1.4-6.8-1.6c-2.6-0.3-9.1,1.8-10.8,0.7c1-0.4,1.6-3,2.8-2
						c1.7,1.4,2.9-2.3,5,0c0.7-4.5-12-9.5-15.7-11.8c-6.1-3.8-11.1-10.7-16.3-15.8c-5.1-5-8.7-12.2-12-18.4
						c-2.8-5.1-8-16.8-4.8-22.2c2.2,1.4,3.3,7.4,4.5,9.8c1.8,3.6,3.3,7,5.8,10.2c4.8,6.2,8.9,12.8,14.4,18.5
						c5.6,5.9,12.4,10.8,19.4,15.2c2,1.2,6.4,0.9,7.8,3c1.8,2.6-5.5,0.3-5.7,0.6c4.6,3,8.7,4.7,14.3,4.5c1.7-0.1,4.4,1.1,5.5,2.3
						C598.4,266.7,597.5,268,599.5,268C599.1,268.7,598.1,268,599.5,268z M602.6,52L602.6,52C602.2,51.7,602.3,52.5,602.6,52
						C602.5,52,602.5,52.1,602.6,52z M587.2,87L587.2,87C586.7,86.6,586.7,87.4,587.2,87C587.1,86.9,587.1,87.1,587.2,87z M589,83.4
						L589,83.4c-0.8-1-2,1.3-1.2,1.7C588.2,84.5,588.6,83.9,589,83.4C588.9,83.3,588.6,83.9,589,83.4z M602.5,58.3L602.5,58.3
						c0.9-0.1,0.6-3.5-0.1-4C602.4,55.6,602.5,57,602.5,58.3C602.6,58.3,602.5,57,602.5,58.3z M591.7,86.8L591.7,86.8
						c2.6-0.4,5.7-7.9,6.8-10c2.7-5.1,4.5-11.2,4.4-17c-0.8-0.1-3.7,10.3-4.3,11.8C596.5,77,594.1,81.6,591.7,86.8
						C592,86.8,592.2,85.8,591.7,86.8z M587,88.5c-2.6,1.1-6.3,2.2-8.3,5.2c-1.6,2.5-5.6,0.2-2.4-1.6c2.3-1.3,4.1-4.4,5.6-6.4
						c1.2,1.8,1.8-2.9,3.5-4.7c3.2-3.4,6.6-9,8-13.4c1.9-5.8,3.2-12.2,4-18.3c0.5-3.5,1.9-5.6,5.3-6.2c0.2,6.5,1.3,12.5,0.6,19.1
						c-0.9,8-3.1,14.1-7.1,21.1c-6.7,11.7-18.7,21.1-31.3,25.6c-5.5,2-12.7,3.8-15.9,9.2c-1.3,2.2-4.7,1-2.4-1.8s5.3-5.2,8.2-7.3
						c6-4.4,12.9-5.5,19.3-9C578.4,97.8,586.7,93.5,587,88.5z M505,153.9c0.3-0.4,0.6-0.9,0.8-1.4c1.8,1.7,0.9,3.6,1.8,5.8
						c0.8,2.2,1.9,4.3,2.2,6.7c0.4,2.9,0.4,5.7,0.6,8.6c0.2,0.9-0.2,1.5-1.1,1.7c-0.9,0.1-0.9,3.7-0.8,3.5
						c-2.2,11.5-8.6,19.2-15.1,28.6c-3,4.4-6.5,7.6-8.8,12.6c-2,4.2-3.5,9-4.6,13.6c-1,4-3,10.4-1.5,14.4c0.6,1.7,3.4,5.8,2.8,7.6
						c-0.9,3-4-4.2-4-4.2c-4.9-11.4-2.3-22.3,3.2-32.9c4.7-9.1,13.5-16,17.4-25.5c0.9-2.3,2.5-4.1,2.6-6.7c0-1,0.2-3.8-1.7-1.7
						c-1.2,1.4-2.5,4.5-4.9,3.7c-2.7-0.9,0.7-5.5,1.5-6.7c3-4.7,5.9-9.6,7.3-14.9c0.7-2.7,1.1-5.6,1.2-8.3
						C503.9,156.6,502,154.1,505,153.9C505,153.9,503.2,154,505,153.9z M508.8,209.8L508.8,209.8
						C508.5,209.2,508.4,210.1,508.8,209.8C508.8,209.7,508.7,209.8,508.8,209.8z M504.2,211.6c-1-2.2,6.2-9.9,7.4-11.9
						c3-5.1,3.3-9.3,3.9-15c0.2-2,0.7-4.6-0.4-6.4c-0.9-1.5,1.7-1.7,2.1-2.8c1.7-4.6,4.3-1.8,6.3,1.2c5.3,8,5.6,16.2,1.1,24.7
						c-0.7,1.3-5.1,12-6,10.1c-1-2,1.4-4.1,0.5-5.6c-0.7-1.1-2.3,0.3-1.8-2.2c1.8-8.8,12.8-16.4,3.8-25.4c-4.1-4.1-1.2,5.3-1,6.4
						c0.6,5.5-1.7,11.2-3.6,16.2c-3.4,8.6-8.8,17.7-9.6,26.8c-0.6,6.8,5.2,14.5,7.5,20.9c-2.7-2-3.7-0.6-5.3-3.7
						c-2.2,3.8-3-1.2-3.6-3.4c-0.9-3.1-1.7-6.3-2.6-9.4C500.6,224.8,499.7,218.2,504.2,211.6C503.8,210.7,503.6,212.6,504.2,211.6z
						 M519.9,154.3L519.9,154.3C519.4,153.7,519.4,154.8,519.9,154.3C519.8,154.2,519.8,154.4,519.9,154.3z M520.6,147.9
						L520.6,147.9c-0.5,0.2-0.3,1,0.3,0.8C520.8,148.4,520.7,148.1,520.6,147.9C520.5,147.9,520.7,148.1,520.6,147.9z M514.4,141
						L514.4,141c0.1,0.8,0.1,1.6,0.2,2.3C515.4,142.3,515.3,141.4,514.4,141z M505.6,122.6L505.6,122.6L505.6,122.6L505.6,122.6z
						 M509.4,136c1.3,1.5,2.6,3,4,4.5c0.1-4.5-0.8-16.5-7.1-17.4c1,1.5,3.5,5.3,2.1,7.2c-1.2,1.7-3.1-3.1-3.5-3.5
						c-4.4-5.5-10.6-10.9-16.4-14.9c-1.7-1.2-7-4-6.1-6.7c0.2-0.8,4.6,1.8,6,1.5c5.3-1.2,13.7,6.5,17.2,9.5
						c11.4,9.6,18.1,26.3,17.4,40.9c0,1-0.9,8.9-2.8,8.3c-1.2-0.4-1.2-3.3-1.2-4.2c0-1.7-1.1-1.8-1.8-3.1c-1.7-3.2-2.1-7.2-3.7-10.5
						C512,144.3,507.6,139.6,509.4,136C510.6,137.5,508.8,137.1,509.4,136z M535.5,173.1c-0.7,0.5,0.9,7.4,1.2,8.4
						c1.1,3.7,2.4,7.2,3.9,10.7c1.8,4.1,3.4,8.3,5.1,12.4c0.6,1.3,5.5,9.4,1.7,9.2c-2.8-0.2-7.1-8.8-8.2-11.2
						c-1.9-4.3-2.8-9.7-5-13.7c-2.1-3.7-1.7-8-2.8-11.6c-1.3-4.4-1.9-9.9-1.3-14.6c0.2-2-1.7-4.4-2.1-6.4c-0.6-2.7-1.1-5.5-1.7-8.2
						c-1.1-4.5-2.7-8.9-5.1-12.9c-2-3.3-3-7.2-5.7-10.2c-1.9-2-4.1-3.7-5.5-6.2c-1.9-3.4,1.8-2.1,3.1-1.1
						c7.8,5.9,12.7,15.9,16.2,24.8c1.8,4.7,2.9,8.8,3.6,13.7C533.7,161.3,532.7,168.8,535.5,173.1
						C534.9,173.6,535.2,172.7,535.5,173.1z M569,272.6L569,272.6C569.4,272.2,568.7,272.3,569,272.6
						C569,272.6,568.9,272.6,569,272.6z M525.2,215.1c-3.1,7.9,1.2,17.1,4.9,24c1.8,3.3,3.4,7,6.4,9.4c2.1,1.7,7.1,3.5,2.3,4.7
						c-6.2,1.5-12.1-9.9-13.9-14.9c-2.6-7.4-4.9-17.9-2.4-25.6c2.8-8.5,8.3,7,9,10c1.7,7.8,5.5,14.9,10.5,21.2
						c5.2,6.5,11.9,14.3,19.8,17.7c2.5,1.1,3.3,2.5,5.4,3.8c4.1,2.6,3.8,3,5.5,7c-2.5,1.7-7,0.8-9.8,0.1c0.6,1.9-1.8,1.4-2.5,0.4
						c-0.8-1.2,1.1-3.8,2.4-2.9c1-3.2,8.4,5.2,8.4,0.4c-1.5,0.7-1.9-0.8-4-0.7c1.2-2.2-2.1-3-3.9-3.9c-3.4-1.6-6.5-4.2-9.4-6.5
						c-4-3.2-7.9-6.8-11.2-10.8c-4.2-4.9-7.8-9.9-10.6-15.8C531,230.9,527,215.1,525.2,215.1C525,215.5,525.3,215.1,525.2,215.1z
						 M510.6,261.2L510.6,261.2C510.5,261.5,510.7,261.4,510.6,261.2C510.6,261.3,510.6,261.3,510.6,261.2z M516.4,258.2
						L516.4,258.2C516.3,258.5,516.6,258.4,516.4,258.2C516.4,258.2,516.5,258.2,516.4,258.2z M514.6,269L514.6,269
						c-1.2-1.2-2.3-2.2-3.4-3.3C510.6,267,512.3,268.6,514.6,269z M518.6,274.1c-1.5-2.5-3.5-1.8-6-3.3c-2.9-1.7-5.5-4.2-6.8-7.3
						c-3.5-7.7-8.1-16.6-8.8-25.1c-0.2-2.9-1.5-10.4,0.1-12.9c1.9-2.9,2.6,4.9,2.6,5.4c-0.1,5.1,2.2,9.6,4.1,14.1
						c1.7,4,3.9,10.9,7.6,13.5c-1.2-3.6-0.2-2,1.7-2.7c0.7-0.3-0.8-2.1,0.4-2.5c1.2-0.5,1.7,2.4,2.1,2.9c0.3,0.4,3.4,2.3,2,2.9
						c-1.4,0.6,0.9,3,1.3,3.5c1.3-1,0-1.7-0.7-2.5c1.8-1.5,4.6,6.6,4.3,8.4c-0.4,2.5-2.2,0.5-3,1.4
						C518.5,271.1,520,273.6,518.6,274.1C518.3,273.7,518.7,274.1,518.6,274.1z M529.9,261.9L529.9,261.9c0.8-0.5,0.5-1.1-1-1.9
						C528.1,260.6,528.4,261.2,529.9,261.9C530,261.8,529.4,261.4,529.9,261.9z M517.9,240.6L517.9,240.6c-1.7,0.4,7.6,19.8,10,18.1
						C525.9,252.6,520.8,246.5,517.9,240.6C517.7,240.7,519.2,243.4,517.9,240.6z M533.3,263c1.7,1.9,3.5,3.1,5.4,4.7
						c1.1,0.9,1.3,3.5-0.5,2.1c-5-3.6-10.2-7.1-14-12c-3.5-4.4-6.1-9.8-7.6-15.2c-1.7-6-4.9-14.1-3-20.3c0.4-1.2,1.8-1.1,2,0.2
						c0.5,3.2,0.8,6.5,1.8,9.6c2,6.2,5,12.1,8.4,17.6c3,4.8,7.4,11,12.4,14c2.8,1.7,11.1,4.3,10.2,8.2c-1.4-0.5-2.5-1.6-4-1.1
						c-1,0.3-1.5-1.3-2.3-1.7C539.3,267.6,536.3,263.5,533.3,263C534.6,264.6,533.4,263.1,533.3,263z M613.3,268.1L613.3,268.1
						c0-0.4-0.2-0.5-0.7-0.2C612.5,268.4,612.7,268.4,613.3,268.1C613.2,268,613,268.1,613.3,268.1z M614.4,268.4
						c0.1,0.3,0.3,0.5,0.4,0.8c-1.1,0-2.3,0.1-3.4,0.1c-0.5-2.3-0.1-2.8-2.5-3.6c-2.9-1-5.8-1.6-8.8-2.4c-4.2-1.1-14.2-2.4-16.6-6.3
						c-3.8-6.3,6.4-0.8,8-0.4c4.6,1.1,8.6,1.8,13.3,1.6c0.2,0.4,0,0.8-0.6,1.1c1.9,0.3,4-0.1,6-0.2c1.3-0.1,2.6-0.1,4-0.1
						c3.7,0,1.3-0.3,2.9-2.6c5.1,4.6-5.5,5.3-1.9,10.9c2.2-2.2,2-1.5,3.4,0c1.5,1.6,3.5-2.5,5.1-1.5c1.6,1-2.6,2.5-3.1,2.5
						C620.5,269.4,615.6,268.7,614.4,268.4z M585.7,165.8c0.1,2.5-0.2,4.9-0.2,7.4c0,0-0.3,7.9-1.7,4.9c-1.2-2.6-0.4-6-0.6-8.7
						s-0.9-5.2-0.3-8.1c0.6-2.7-0.5-7-0.6-9.8c-0.1-1.7,1-8.3,0.3-9.4c-0.7-1.2-3.4-3.3-0.5-4.5c1.3-0.6,2.7,0.6,3.8,0.1
						c2.1-0.8,4.4-0.6,6.6-0.7c3.2-0.1,17.2-2.6,18.8,0.1c2.1,3.6-12.5,3.2-15,3.1c-3.3-0.2-13.4-0.7-11.8,5.3
						C586.1,151.9,583.8,159.2,585.7,165.8C585.7,166.2,585.4,164.6,585.7,165.8z M460.4,128.5c-1.1,2.1-0.3,3.7-0.6,6
						c-0.4,2.7-2.1,5-3.7,7.1c-1.5,2.1-3.8,4.6-6.3,5.4c-0.9,0.3-6.3,0.4-3.5-1.6c2.2-1.6,15.4-11.9,6.8-11.5
						c-2.8,0.2-5.9-0.4-8.5-1.5c-0.5-0.2-8.2-3.2-6.2-4.6c1.3-0.9,8.8,2.4,10.9,2.4C451.2,130.2,460.5,126.5,460.4,128.5
						C460.3,128.6,460.4,127.5,460.4,128.5z M577.8,153.9c-0.6,4.6-0.9,9.9-0.2,14.5c0.3,1.9,2.9,10.7,1.7,12.3
						c-2,2.6-3.8-5.7-3.9-6.6c-1-4.6,0.6-10.6-1.4-14.8c-1.4,2.4-1.3,6.2-3.5,8.1c-2.2,1.9-0.5-7-0.4-7.3c0.4-1.1,3.5-6.2,3.3-6.7
						C572.2,148,578.4,149.6,577.8,153.9C577.7,154.9,578,152.9,577.8,153.9z M459.6,48.8c-1.2,0.6-8.3-2.3-10.1-2.6
						c-3.8-0.5-7.4-0.4-11.1-0.8c-0.8-0.1-7.8-0.3-7.2-2c0.3-0.7,8-1.3,9-1.3c8.6,0,17.1-0.5,25.7-0.4c1.3,0,2.1,1,1.5,2.3
						c-0.6,1.2-5.2,0.9-6.4,0.8C456.6,44.5,458.7,45.9,459.6,48.8C459.4,48.9,459.5,48.6,459.6,48.8z M603.9,130.3
						c-0.7,3.1-24.7,1-12.6-7.1c4.2-2.8,6.2-4.6,11.6-5.5c1.7-0.3,5-0.9,5.4,1.6c0.3,1.4-0.7,1.7-1.8,1.1c-3.5-2.1-10.2,2-13,3.9
						c-5.8,3.9,3.7,3.5,5.9,3.3c1.7-0.1,3.8-1.2,5.4-0.7c0.8,0.3,1,1.4,1.8,1.4C613.6,128.5,608,132.1,603.9,130.3
						C603.6,131.7,604.5,130.6,603.9,130.3z M523.4,44.9c-4.8,0.5-9.6-0.1-14.4,0.2c-4.8,0.3-9.6,0.9-14.5,0.8
						c-4.4-0.1-8.5,0.9-12.9,0.2c-2.6-0.4-7.8-2.5-2.1-2.6c10.5-0.2,21-0.7,31.5-0.7c5,0,9.8,0,14.9-0.1
						C534.1,42.7,523.5,47,523.4,44.9C522.4,45,523.4,45,523.4,44.9z M417.1,157.1c0,0.7-0.8,4.4,0.2,4.8c1.1,0.5,6.8-4.3,8-4.9
						c2.8-1.5,5.9-2.6,8.8-3.7c2.9-1.1,3.5,2.4-0.3,3.1c-3.9,0.7-7.6,2.8-10.7,5.2c-1.1,0.8-8.8,9.9-10.1,8
						c-1.4-2.1,0.6-6.6,0.7-8.9c0.2-2.9-0.5-8.3,1.1-10.8C415.7,150.5,417.8,157.2,417.1,157.1C417.1,158.4,417.1,157.1,417.1,157.1
						z M528.7,56.3L528.7,56.3C528.6,56.6,529,56.5,528.7,56.3L528.7,56.3z M534,56.3L534,56.3c1.2-0.5,1.4-1.1,0.7-1.8
						C533.6,54.9,533.3,55.5,534,56.3C534.5,55.8,533.8,55.9,534,56.3z M537.3,55.3c0.9,0.4,1.3,1,1.3,1.8c-0.2,0.7-4.8,2-4.8-0.1
						c-1.6,0.7-2.9-1.1-3.8,0.2c-0.9,1.2-6.9-0.3-8.3-0.3c-5.3,0.3-13,4.4-16.4,8.3c-3.4-2.4,8-8.1,9.6-8.6
						c5.6-1.9,11.2-3.1,17.2-3.1c0.6,0,15.4-0.1,13.1,2.9C544.1,57.7,537.5,53.6,537.3,55.3C537.7,55.7,537.4,55.1,537.3,55.3z
						 M466.6,51.4c2.1-6,15.9-0.9,20.4,0.3c3.7,1,8.6,2.5,11.6,5c1.1-0.9,8.3-4.6,9.1-2.9c-2.5,1.3-6.9,2.7-8,5.8
						c0.1-0.3-6.8-3.3-7.9-3.7c-3.9-1.3-7.3-2.3-11.3-3.3C478.5,52.1,467,52.6,466.6,51.4C466.8,50.7,466.9,52.5,466.6,51.4z
						 M568.9,169.6c0.2,2.6,2.7,4.8,0.9,6.7c2.2,0.1,1.8,2.9,2.1,4.4c0.6,3.2,2,6.1,4.4,8.4c2.4,2.3,5.2,3.8,8,5.5
						c4.2,2.5,1.1,3.3-1.9,1.8c-5.1-2.4-10.3-6-12.7-11.2C568.7,183.5,565.2,169.2,568.9,169.6C568.9,170.3,568.8,169.6,568.9,169.6
						z M496.6,210.6c0.5-4.8,4-7.6,6.7-11.2c1-1.3,5.9-11.3,7.4-8.7c1.4,2.5-4.7,12.1-6,14.6C503,208.6,498.9,217.8,496.6,210.6
						C497,207.1,496.9,211.4,496.6,210.6z M592.2,198c5.4-0.1,10.8-0.5,16.1-1.3c0.9-0.2,1.5,0.1,1.8,0.9c0.6,1.8-3.7,1.9-4,1.9
						c-1.3,0.2-9.2,0.4-9.3,1.8c2.7,1.6,6.1,2.3,9,3.3c1.1,0.4,6.2,3.5,1.7,3.2C601.7,207.4,591.5,205.6,592.2,198
						C594.2,198,592.2,198.9,592.2,198z M420.4,116.8c-0.1,1.2,0.2,9.1-2.3,7.5c-2.2-1.4-0.6-7.6-0.5-9.5c0-1.1-0.4-11.5,1-11.3
						c2.8,0.3,2.3,4.6,2.7,6.3c0.9,3.5,1.4,7,4.2,9.6c1.1,1,5.1,2.8,5.4,4C432.1,127.5,419.1,116.9,420.4,116.8
						C420.3,117.8,420.6,116.8,420.4,116.8z M614.6,88.5c-1.5,2-2,4.5-4.5,5.3c-0.7-2.4,1.1-4.4,2.4-6.5c0.5-0.8,3.1-5.1,3-5.8
						c-0.5-3.2,3.6,0.3,3.2,2.7c-0.8,4.7-1.6,9.4-2.2,14.1c0,0.3-1.1,9.6-3.2,6.1C611.6,101.7,617,89.8,614.6,88.5
						C614.2,89,614.7,88.6,614.6,88.5z M500,79.1c-0.1,0.4-0.2,0.8-0.3,1.1c-0.7-2.2-0.4-4.5-1.5-6.5c-1.2-2.3-3.4-4-5.2-5.8
						c-1.1-1.1-6.2-4.7-5.4-6.5c0.7-1.5,6.6,4.3,7.1,4.9c2.2,2.6,3.8,5,5.2,8.1c0.9,2,5.1-2.4,6.3-3.1c2.1-1.1,12.1-5.5,13.9-3.2
						c-6.2,3.1-15.7,4.5-18.7,11.7C500.9,79.6,500.4,79.3,500,79.1C499.9,79.4,500.4,79.3,500,79.1z M440,138
						c1.7,0.1,2.5,0.6,2.3,2.4c-0.2,1.6-5.2,1.3-6.5,2c-4.2,2.4-9,4.2-11.5,8.5c-0.7,1.2-1.9,2.5-3.4,0.9c-0.9-1,3.8-5.1,4.4-5.8
						C429.1,141.9,434.1,138.1,440,138C442.1,138.1,439.9,138,440,138z M538.7,44.3c5.5-0.2,10.9-0.8,16.4-1
						c2.4-0.1,4.8,0.1,7.1,0.5c2.3,0.4,0.6,2.5-0.9,2.7c-5,0.5-10.3,0-15.3,0.1c-2.5,0-5.2,0.3-7.7,0
						C536.4,46.4,536.7,44.1,538.7,44.3C539.6,44.3,537.5,44.2,538.7,44.3z M422.1,133.3L422.1,133.3
						C421.6,132.9,421.8,133.6,422.1,133.3C422,133.3,422,133.4,422.1,133.3z M419.3,136c0,2.6-0.1,5.1-0.6,7.7
						c-0.5,2.6-3,0.5-2.9-0.9c0.2-2.8,1.1-5.4,0.7-8.2c-0.5-3.7,1.4-2.8,4.7-2.9c2.9-0.1,5.7-0.2,8.5-0.7c2.9-0.5,1.6,1.5,0.9,2.4
						C428.4,136.1,422.1,132.8,419.3,136C419.3,137.3,419.4,135.9,419.3,136z M452.4,71.2c1.3,5.3-12.3,9.4-13.9,4.3
						c-1.1-3.4,4.9-5.6,7.4-4.6c0.6,0.3,0.8,2,1.3,2.1C449.4,73.2,450.4,71.6,452.4,71.2C452.7,72.3,452.2,71.2,452.4,71.2z
						 M607.7,98.6c2.7,3.7-3.9,7.4-5.9,10.6c1.6,0.1,9-3.4,8.9-0.1c0,3.2-4.8,2.3-7.3,2.8C592.1,114.2,605.2,101.9,607.7,98.6
						C608.1,99.2,607,99.5,607.7,98.6z M608,180.9c-4.1-1.4-0.9-12.6-1.9-16.1c-0.7-2.4-12.9-1.9-11.9-3.4c0.1-0.2,5.6-0.6,6.3-0.6
						c2.3,0.2,5.4-1,6.8,1.4c1.6,2.5,1,5.7,1,8.5C608.3,173.9,609.4,178.1,608,180.9C606.2,180.3,608.2,180.5,608,180.9z M610.8,186
						c0,1.8-12.5,3.4-14.5,3.7c-2.5,0.3-9.1,1.5-11,0.5c-3-1.6,3-2.2,3-2.2c2.9,0,5.9-0.4,8.8-0.6
						C598.7,187.2,610.9,184.2,610.8,186C610.8,186.8,610.8,185.2,610.8,186z M599,154.2c-3.9,0.1-6,0.6-9-1.8
						c-1.8-1.4,8.2-1.4,8.9-1.4c1.6,0,8.5-2.3,8.3,1.2C607.2,154.6,599,153.9,599,154.2C597.4,154.2,599,154.2,599,154.2z
						 M439.2,62.9c1.2-1.6,11-4.2,10.7-1.1C449.5,66,439.6,67,439.2,62.9C439.5,62.6,439.4,64.5,439.2,62.9z M544,64.8
						c1.2-0.4,10.9-3.3,10.9-3.3c-1.3,1.3-14.2,8.8-14.7,5.2C540,65,544.9,67.2,544,64.8C545.6,64.3,544.3,65.7,544,64.8z
						 M503.4,140.3c1,1.5,5.3,8.2,1.2,8C503,148.2,502.2,140.8,503.4,140.3C503.6,140.7,503.2,140.4,503.4,140.3z M617.7,256
						c-1.9-1.6-2.3-10.3-0.8-12.5C618.7,245.5,617.9,253.3,617.7,256C617.5,255.8,617.8,254.9,617.7,256z M514.6,275.9
						c0.5,1.6-3.7,2.5-4.6,1.3C508,274.3,513.8,275.8,514.6,275.9C514.9,276.8,513.2,275.7,514.6,275.9z M472.3,35.3
						c-1-0.1-7.3,0-7.4-0.7C465.8,34.4,473.8,34,472.3,35.3C469.9,35.2,472.4,35.2,472.3,35.3z M433.4,35.5c2.6-0.2,6.9-1.3,9.1,0
						C442.1,36.2,433.2,36.5,433.4,35.5C436.1,35.3,433.3,35.6,433.4,35.5z M522.7,85.7c1.9-0.5,3.9-1,5.8-1.5
						c0.2,1-1.9,0.2-0.6,1.5C526.2,86.4,524.4,86.8,522.7,85.7C524.6,85.2,524.5,86.9,522.7,85.7z M453.3,277.1
						c0,0.3,0.1,0.5,0.1,0.8c-1.7-0.2-6-0.3-5.9-2.4C449.5,276,451.4,276.5,453.3,277.1C453.3,277.1,451.3,276.5,453.3,277.1z
						 M417.5,258.9c-0.1,1.5,1.8,1,2.5,1.8c-1.8,1.6-4-0.7-5.2-1.9C415.7,258.8,416.6,258.8,417.5,258.9
						C417.4,260.4,416.6,258.8,417.5,258.9z M615.5,70.8c-0.3,2-0.3,4.4-1.6,6.1c-0.2,0-0.3-0.1-0.4-0.2
						C613.6,75.3,614.3,71.4,615.5,70.8C615.2,72.6,614.6,71.2,615.5,70.8z M610,84.3L610,84.3L610,84.3L610,84.3
						C610.2,84,610,84.3,610,84.3L610,84.3L610,84.3L610,84.3 M447.1,35.3c-1,0.5-3.5,0.4-4-0.1C444.5,34.5,445.8,35.1,447.1,35.3z
						 M556.7,272.7C561.8,270.8,557.7,275.1,556.7,272.7C557.3,272.5,556.8,272.8,556.7,272.7z M556.9,58.5
						c-0.1,1.2-0.7,1.9-1.8,2.1C555.1,59.6,555.5,58.3,556.9,58.5C556.6,59.2,555.8,58.4,556.9,58.5z M612.6,79.3
						c0.5,1,0.1,1.7-1.4,2.7C611.3,80.8,611.9,80.1,612.6,79.3z M541.3,85.6c-0.8,0.6-1.4,1.1-2.1,1.5
						C539.3,85.6,539.8,85.4,541.3,85.6z M465.6,278.7c0.9-0.3,1.7-0.6,2.6,0.2C467.1,279.5,466.3,279.2,465.6,278.7z M544.6,273.3
						c-0.7-0.1-1.4-0.3-2.1-0.4C542.4,271.7,544.5,272.1,544.6,273.3C543.8,273.2,544.5,272.2,544.6,273.3z M552.7,274
						c-0.8,0.2-1.4,0.1-1.7-0.5C551.7,273,553.2,272.2,552.7,274C552.1,273.9,552.9,273.3,552.7,274z M458.1,34.6
						c0.9,0.1,1.5-0.8,2.3,0.1C460.1,34.8,457.8,35.8,458.1,34.6C458.8,34.7,458.1,34.7,458.1,34.6z M413.1,65
						c-1-1.1-0.9-0.8-0.3-1.7C413.6,63.8,413.7,64.4,413.1,65C412.7,64.6,413.3,64.6,413.1,65z M408.7,131c0.1,0.6,0.2,1.2,0.3,1.8
						C408,133,407.7,131.2,408.7,131C408.8,131.6,408.6,131,408.7,131z M411.2,83.8c0.5,0.4,1.4,2.2,0.1,2.2
						C411.3,85.3,411.2,84.5,411.2,83.8C412.1,84.5,411.2,84.7,411.2,83.8z M610.9,269.3c-0.5,0.5-1,0.6-1.7,0.4
						c-0.1-0.1-0.1-0.3-0.1-0.5C609.6,269.1,610.6,268.8,610.9,269.3C610.6,269.5,610.8,269.2,610.9,269.3z M536.4,273.3
						c0.1-0.4,0.3-0.8,0.4-1.2C537.7,272.6,537.5,273.8,536.4,273.3C536.6,272.9,536.6,273.4,536.4,273.3z M526,275.2
						c-0.4-1.9-0.5-1.8,1.1-0.6C526.8,274.8,526.4,275,526,275.2C525.9,274.7,526.4,275,526,275.2z M549.5,84.1
						c-0.5-0.1-1-0.3-1.6-0.5C548.2,82.7,549.8,83,549.5,84.1C549,83.9,549.5,83.9,549.5,84.1z M546.8,84c-0.8,0.8-1.2,0.9-1.4,0.1
						C546.2,83.3,546.7,83.3,546.8,84C546.4,84.2,546.8,83.9,546.8,84z M494.8,33.8c0.5,0.1,1,0.2,1.4,0.3
						C496.1,35.1,494.6,34.8,494.8,33.8C495.3,33.9,494.8,33.9,494.8,33.8z M496.8,33.7c0.5,0.1,1.1,0.2,1.6,0.3
						C497.6,34.7,497.2,34.6,496.8,33.7z M492.2,34c1.2-0.5,1.7-0.4,1.6,0.4C492.7,34.9,492.1,34.7,492.2,34
						C492.7,34.1,492.2,34.1,492.2,34z M409.5,120.8c0.2,1.1,0,1.4-0.7,1.2C408.6,120.9,408.8,120.5,409.5,120.8
						C409.4,121.2,409.3,120.8,409.5,120.8z M515.7,276c0.9-0.7,1.4-0.6,1.4,0.1C516.2,276.8,515.7,276.8,515.7,276
						C516.1,275.9,515.7,276.2,515.7,276z M550.6,83.6c-0.6-0.8-0.6-1.2,0.1-1.2C551.4,83.1,551.3,83.5,550.6,83.6
						C550.5,83.2,550.8,83.5,550.6,83.6z M554.3,270.8c0.7-0.4,1-0.3,1,0.3C554.5,271.6,554.2,271.5,554.3,270.8
						C554.6,270.8,554.3,271,554.3,270.8z M539.7,276.3c-0.4,0.5-0.8,0.5-1.1,0C539,275.8,539.4,275.7,539.7,276.3
						C539.4,276.5,539.4,276.1,539.7,276.3z M453.3,35c0.6-0.5,0.9-0.5,1,0.2C453.7,35.6,453.3,35.5,453.3,35
						C453.6,34.9,453.3,35.1,453.3,35z M535.7,276.2c0.3-0.1,0.6-0.2,0.9-0.4C536.9,276.5,536,276.9,535.7,276.2
						C536,276.1,535.7,276.3,535.7,276.2z M555.2,82.6c-0.8,0.3-1.2,0.2-1.1-0.3C555,82,555.4,82.1,555.2,82.6
						C554.9,82.6,555.2,82.5,555.2,82.6z M409.6,118.8c0.3,0.7,0.2,1-0.3,1C408.9,118.9,409,118.6,409.6,118.8
						C409.6,119.1,409.5,118.8,409.6,118.8z M554.4,273.2c-0.1,0.6-0.3,0.8-0.7,0.5C553.7,273,553.9,272.8,554.4,273.2
						C554.3,273.4,554.2,273.1,554.4,273.2z M455.4,277.7c0.7-0.2,1-0.1,0.9,0.4C455.5,278.4,455.2,278.3,455.4,277.7
						C455.7,277.8,455.4,277.9,455.4,277.7z M549,275.4c-0.8-0.1-1-0.3-0.7-0.8C549.2,274.7,549.4,275,549,275.4
						C548.7,275.3,549.1,275.3,549,275.4z M582,272.4c-0.7,0.4-1,0.3-0.9-0.2C581.7,271.7,582.1,271.8,582,272.4
						C581.7,272.4,582,272.2,582,272.4z M490.1,33.7c0.8,0.2,0.9,0.5,0.4,0.9C489.8,34.3,489.6,34,490.1,33.7
						C490.3,33.9,490,33.8,490.1,33.7z M580.3,226.9c-0.3-0.1-0.6-0.1-0.9-0.2C579.5,226.1,580.4,226.2,580.3,226.9
						C580,226.8,580.3,226.7,580.3,226.9z M455.5,34.3c0.3,0.1,0.5,0.2,0.8,0.3C456.1,35.3,455.3,35,455.5,34.3
						C455.8,34.4,455.5,34.5,455.5,34.3z M553.1,82.2c-0.5,0.5-0.8,0.5-0.9,0.1C552.7,81.7,553,81.6,553.1,82.2
						C552.9,82.3,553.1,82.1,553.1,82.2z M530,274.6c-0.2-0.6-0.1-0.8,0.3-0.7C530.5,274.5,530.4,274.7,530,274.6
						C530,274.4,530,274.6,530,274.6z M425.6,262.1c0.6-0.4,1-0.4,0.9,0.2C425.9,262.7,425.6,262.6,425.6,262.1
						C425.9,262,425.7,262.2,425.6,262.1z M522,67.8c-0.4,0.3-0.7,0.3-0.8-0.2C521.6,67.3,521.8,67.3,522,67.8
						C521.8,67.9,521.9,67.6,522,67.8z M534.7,273.6c-0.6,0-0.7-0.2-0.5-0.6C534.8,273,535,273.2,534.7,273.6
						C534.5,273.5,534.7,273.5,534.7,273.6z M449.6,263.4c0.3,0.3,0.3,0.5-0.1,0.7C449.2,263.9,449.3,263.6,449.6,263.4
						C449.8,263.6,449.5,263.6,449.6,263.4z M531.6,272.9c0.5-0.3,0.8-0.2,0.8,0.2C531.8,273.5,531.5,273.4,531.6,272.9
						C531.8,272.8,531.6,273,531.6,272.9z M488.5,34.5c-0.6,0.1-0.8-0.1-0.6-0.5C488.6,33.8,488.8,34,488.5,34.5
						C488.3,34.4,488.6,34.3,488.5,34.5z M519.7,277.1c0.5-0.1,0.8,0,0.6,0.4C519.7,277.7,519.5,277.5,519.7,277.1
						C519.9,277.1,519.7,277.2,519.7,277.1z M408.6,136.1c0-0.3-0.1-0.6-0.1-0.9C409.2,134.9,408.7,135.9,408.6,136.1
						C408.6,135.6,408.8,135.7,408.6,136.1z M534.5,276.8c-0.2-0.5-0.2-0.7,0.2-0.7C535.1,276.6,535,276.9,534.5,276.8
						C534.5,276.6,534.6,276.8,534.5,276.8z M557.4,270.9C556.7,271.4,556.8,270.4,557.4,270.9C557.3,271,557.3,270.7,557.4,270.9z
						 M413.3,59.5c-0.3-0.2-0.3-0.4,0-0.6C413.5,59,413.5,59.2,413.3,59.5C413.1,59.3,413.3,59.3,413.3,59.5z M619.6,265.9
						C620.1,266.7,619.1,266.5,619.6,265.9C619.7,266.1,619.5,266,619.6,265.9z M539.4,66.6C538.8,66.7,538.9,66.1,539.4,66.6
						C539.2,66.6,539.3,66.5,539.4,66.6z M476.2,278.9C475.8,277.8,476.7,278.7,476.2,278.9C476.2,278.8,476.3,278.9,476.2,278.9z
						 M497.9,268.7c-0.3,0.2-0.6,0.2-0.8-0.1C497.4,268.3,497.6,268.4,497.9,268.7C497.7,268.8,497.6,268.5,497.9,268.7z
						 M451.9,35.2C451.2,35.5,451.3,34.6,451.9,35.2C451.7,35.2,451.8,35.1,451.9,35.2z M410.9,89.4c-0.5,0.4-0.8,0.4-0.8-0.1
						C410.4,89.1,410.6,89.2,410.9,89.4C410.4,89.5,410.6,89.3,410.9,89.4z M464.1,278.2C464.2,279.2,463.6,278.3,464.1,278.2
						C464.1,278.4,464,278.3,464.1,278.2z M502.8,33.7C503.3,34.2,502.3,34.2,502.8,33.7C502.9,33.8,502.7,33.8,502.8,33.7z
						 M479.8,278.3C479.2,278.7,479.3,277.7,479.8,278.3C479.7,278.4,479.7,278.2,479.8,278.3z M429.6,36.7
						C428.9,36.8,429.5,36.3,429.6,36.7C429.5,36.7,429.6,36.6,429.6,36.7z M440.8,103C441.1,102.5,441.3,103.4,440.8,103
						C440.9,102.9,440.9,103.1,440.8,103z M518.3,275.9C517.1,275.7,518.3,275.4,518.3,275.9C518.1,275.9,518.3,275.8,518.3,275.9z
						 M536.4,82.7C535.6,82.9,536,82.3,536.4,82.7C536.2,82.8,536.3,82.6,536.4,82.7z M480.8,34.7C481.5,34.4,481.6,34.5,480.8,34.7
						C481,34.6,480.8,34.7,480.8,34.7z M465.1,134C464.6,134.2,464.5,133.5,465.1,134C465,134,464.9,133.8,465.1,134z M533.5,276.7
						C533,276.9,533.4,276.3,533.5,276.7C533.4,276.8,533.5,276.6,533.5,276.7z M486,271.8C485.4,272,485.8,271.4,486,271.8
						C485.9,271.8,486,271.7,486,271.8z M538.9,274C538.6,274.5,538.4,273.6,538.9,274C538.8,274.1,538.8,274,538.9,274z
						 M585.2,229.1C585.5,229.6,584.8,229.3,585.2,229.1C585.3,229.2,585.1,229.1,585.2,229.1z M608.7,88.2
						C608.3,88.5,608.4,87.8,608.7,88.2C608.6,88.2,608.6,88.1,608.7,88.2z M458.3,278.2C458.2,277.9,458.6,278,458.3,278.2
						C458.3,278.1,458.3,278.2,458.3,278.2z M494.1,278.8C494.2,279.1,493.8,279,494.1,278.8C494.1,278.9,494,278.8,494.1,278.8z
						 M408.8,125.9C408.5,126.2,408.5,125.7,408.8,125.9C408.7,126,408.7,125.9,408.8,125.9z M424.5,261.4
						C424.5,261.6,424.1,261.4,424.5,261.4C424.5,261.5,424.4,261.4,424.5,261.4z M412.6,78.2C412.2,78.5,412.3,77.9,412.6,78.2
						C412.5,78.3,412.6,78.2,412.6,78.2z M581.2,227.3C580.8,227.5,581.2,227.1,581.2,227.3L581.2,227.3z M550.6,34.7
						C550.8,34.8,550.3,34.9,550.6,34.7C550.7,34.7,550.6,34.7,550.6,34.7z M539.2,272.5C539.1,272.7,539,272.5,539.2,272.5
						C539.2,272.6,539.1,272.5,539.2,272.5z M549.7,82.6C549.5,82.6,549.6,82.4,549.7,82.6C549.7,82.6,549.7,82.5,549.7,82.6z
						 M469.2,278.9C469.1,279.1,469,278.9,469.2,278.9C469.1,279,469.1,278.9,469.2,278.9z M582.5,227.8
						C582.6,227.8,582.6,227.8,582.5,227.8z M409,133.9C408.9,133.8,408.9,133.8,409,133.9z M617.2,263
						C617.1,263,617.1,263,617.2,263z M421.3,261.3C421.4,261.4,421.4,261.4,421.3,261.3 M409.7,112.1
						C409.6,112,409.6,112,409.7,112.1 M539.1,81.6C539,81.4,539.3,81.5,539.1,81.6L539.1,81.6z M480.8,34.7
						C480.6,34.7,480.8,34.6,480.8,34.7C480.7,34.7,480.8,34.7,480.8,34.7z M613,78.5C613,78.6,613,78.5,613,78.5z M576.4,41.4
						L576.4,41.4L576.4,41.4z M576.4,41.3L576.4,41.3L576.4,41.3z M615,66.6C615,66.6,615,66.7,615,66.6C615,66.7,615,66.6,615,66.6
						z M416.3,263.3L416.3,263.3c0.6-0.5,7.2,1.8,9.2,2.1c1.5,0.2,3.6,0,4.3-1.4c0.6-1.3-2-0.9-1.9-2c2.9-1.4,0.9-9.1,1.1-11.9
						c0.1-1.7,0.4-3.1,0.5-4.8c0.2-3.6,0.1-6.2,1.3-9.7c3.5-10.7,8.4-19.8,16.2-28.1c3.5-3.7,5.9-8.8,9.4-12.6
						c3.8-4.1,7.6-8.1,11.2-12.4c2.9-3.5,5.8-6.8,7.8-10.9c0.5-1,0.3-3.9,1.6-4.3c2.5-0.7-1.2-3.3-0.1-4.3c0.4,0.2,2.2,2.2,2.6,2.2
						c0.7,0,1.5-2.2,2.3-0.9c1.3,1.9,2.2,3.6-0.5,3.3c-0.5,4-3.8,8.7-6.3,11.9c-2.9,3.6-5.1,7.5-8.1,11.1c-3.5,4.1-7,8-9.6,12.7
						c-0.5,0.5-1,0.4-1.5,0c-0.5,0.9-1,1.8-1.3,2.8c-0.6,1.1-4.4,5.8-3.2,6.7c0.9-0.8,3.9-3.7,4.1-0.5c0.1,2.7-5.3,7.2-6.9,9.2
						c-4.2,5.4-7.4,12.7-8.6,19.4c-0.6,3.4-0.3,7.2-0.6,10.6c-0.2,3.4,1.8,5.3,2.5,8.6c1.3,6.3-5.9,3.4-9,0.8c-1.5,5,1.1,2.8,4,4.7
						c-1.4,2.2-2.8,0.7-5.4,1c-3.3,0.4-7-0.2-10.3-0.6c-3.7-0.5-14.2-1.2-15.3-5.5c1.8-0.9,5.5-2.9,7.4-1.4c-1.4,0.7-2.9,1.4-4.3,2
						C409.2,263.4,415.7,262.6,416.3,263.3C416.5,263.1,416.4,263.3,416.3,263.3z M508.7,263.4c0.1-0.1,0.3-0.1-0.1-0.9
						C508.5,262.9,508.6,263.2,508.7,263.4z M509.6,264.1c-0.4-0.3-0.6-0.5-0.8-0.5C509,263.8,509.2,263.9,509.6,264.1z
						 M508.6,262.5L508.6,262.5C508.3,263.3,507.9,262.4,508.6,262.5L508.6,262.5c0.2,0.4,0.6,0.5,0.8,0.7c-0.5-1.2-1.8-3.1-2-3.7
						c-1.2-2.8-2.6-5.4-4.2-8C503,253.5,506.2,262.3,508.6,262.5L508.6,262.5L508.6,262.5z M610,84.3C610,84.3,610,84.2,610,84.3
						c0.2-0.4,0.3-0.7,0.5-1c0.4,1.1,0.2,2.2-0.7,3.1C608.4,85,610,84.8,610,84.3z M418.5,74.1c-1.4-1.6,4.8-2.8,5.4-3
						c3.7-0.9-3.8-7.1-2.2-10.3c1.9-3.8,4.8-5.7,8.2-7.7c0.7-0.4,3.1-2.6,3.7-2.6c0.7,0.3,1.3,0.7,1.8,1.1c1.3,0.3,3.1-0.8,4.3-1.2
						c2.2-0.9,4,0.5,6,1.4c3.2,1.5,4.3,0.8,7.4-0.3c6.5-2.4,7.5,6.5,11.8,8c5.4,1.8,10.9-6.5,13.2,2.1c1.5,5.6,7.4,8.4,11.7,11.6
						c4.4,3.3,5.3,9.5,4.7,14.6c-0.3,2.7-1.5,5.1-2,7.7c-0.3,1.4,4,2.2,4.5,1.3c3-4.7,5-8.6,10.1-11.3c2.3-1.2,4.7-1.9,7.1-2.9
						c2.1-0.9,5-2,7.2-2.6c4.6-1.2,9-3.5,13.5-4.8c4.8-1.4,10-1.6,14.9-2.9c4.7-1.3,9.4-4.1,13.3-7c1.1-0.9,4.7-3.5,5-4.9
						c0.2-0.6,0.7-1,1.3-1.1c-1-0.8,0.7-2.7,1.2-3.7c0.7,1.7,2.7-4.5,3.3-6c0.7-1.8,1.2-3.8,2.1-5.6c0.8-1.6,2.4-0.7,2.6-2
						c0.5-4.1,4.8,1.1,3.4,4.3c-1,2.3,2.1,6.7,1.1,9.6c-2.1,6.2-4,12.7-8.9,17.7c-2.7,2.7-6,4.1-8.9,6.6c-0.8,0.6-7.8,3.4-9.2,2.1
						c2.1-0.8,5.2-1.4,7-2.7c2.1-1.4,3.8-4.9,5.2-6.9c1-1.3,8.9-12.9,7.1-13.9c-2.5,3.1-3.8,6.7-6.5,9.7c-3.2,3.5-6.7,5.4-11.1,7.1
						c-4,1.6-6.8,3.4-11.1,4.4c-5.6,1.3-11.2,0.9-16.8,2.3c-2.4,0.6-9.1,1.8-9.3,5.1c-0.2,3.6-2.3,4.1-4.8,6.8
						c-1.4,1.5-7.4,6.3-6.5,8.9c1.4,4.1,6-1.9,7.5-2.7c5.2-2.9,12.8-7.4,18.9-7.1c0,0.1,20.8-5,22.9-5.8c4.1-1.6,8.7-2.7,12.3-5.3
						c3.9-2.7,6-6.5,8.9-10.1c2.9-3.7,5.8-7.4,7-12.1c0.6-2.4,0.8-4.6,0.6-7c-0.3-3.2,0.6-2,2.3-2.7c-0.4-1.5-0.8-2.9-0.9-4.5
						c5.9,2.8,0.7,14-1.2,17.8c-0.8,1.8-8.4,17.6-9.8,15c-1.2,0.8,0.4,0.8,0.2,1.7c-0.1,0.9-1.9,3.3-2.5,3.9
						c-1.9,1.8-5.3,5.8-8.3,5.1c0.7-1.4,11.2-6.8,6.6-7.4c-1.4,4.1-9.5,6.3-13,8c1.8,1,3.4-1.1,5.2,0.1c-1.6,1.8-7.2,2-9.7,2.4
						c-4.6,0.8-9.2,1.3-13.7,2c-6.9,1.1-17.8,3.6-21.8,9.9c-1-2.7-2-0.9-3.1,0.9c-1.5,2.5-1.9,2.9,0.6,5c1.4,1.1,4.8-5.4,6.8-5.9
						c12.4-2.8-6.4,10.7-1.5,11.7c1.5,0.3,6.4-5.9,7.9-7c3.2-2.5,5.9-3.6,9.8-4.7c4.8-1.3,9.7-2.2,14.5-3.3
						c3.5-0.8,6.8-3.1,10.3-3.5c-0.1,1.6-0.7,1.8-1.5,3.1c1.3-0.5,2-0.9,3.3-0.6c-5.5,6.3-16,5.6-23.6,6.7c0.6,3.6-5.7,3.6-8.2,5.6
						c-1.8,1.4-2.9,2.9-4.2,4.8c-0.8,1.2-1.9,3-2.6,4.6c-2.5,5.8,4.6-2.5,5.4-3.4c1.5-1.5,4.5-0.6,2.5,1.4c-1.1,1.1-1.8,3.4-2.1,4.3
						c2.8,1.1,0.7,0.4,3-0.1c1-0.2,0.7,1.9,1.7,2.3c1.7,0.5,7.3-2.4,8.8-3.3c2.8-1.6,6.6-2.8,9.1-4.7c1.1-0.8,2.2-1.5,3.2-2.3
						c1-0.7,2.2,0.9,1.5,1.8c-4.3,5.1-12,6.7-16.4,12c-1.7,2.1-5.3,5.4-6.2,7.8c-0.4,1.1,2.7,9.8,3.7,9.3c0.9-0.4,2.3-4.1,3-5
						c1.1-1.4,2-2.8,3-4.2c2.8-3.8,6.5-6.6,9.9-9.9c1.8-1.7,3.6-3.2,5.5-4.8c1.5-1.2,3.9-1.9,5.2-3.2c1.4-1.5,3.3-2.6,5-3.7
						c1.3-0.9,1.7,1.6,0.5,2.3c-1.2,0.7-4.8,3.3-5.5,4.5c-0.6,1.1-2.5,1.6-2.7,2.7c0-0.1-1.6,1.8-2,1.9c-3,1.4-6,5.5-8.2,8
						c-3.2,3.7-3.7,7.5-6,11.4c3.6,1.8,7.9-8.3,10.5-7.2c3.5,1.6-6.1,9.8-5.7,12.4c0.2,1.1-1.5,3-2,4.1c-0.9,2-1.6,5.4-2,7.8
						c-1.3,6.3,0,12.1,2.1,17.8c2.2,5.6,3.1,11,6.5,16.3c1.8,2.8,3.5,5.3,5.9,7.6c0.4,0.4,3.3,3.8,0.3,3.3c-2.4-0.5-2.4,0.8-4.2-1.7
						s-3.4-5.1-5.1-7.7c-1.1-1.7-9.5-18.8-10.2-18.6c1,8,2.4,15.9,6.7,22.7c1-1.7,2.7,3.9,3.7,5.2c2.9,4.1,5.5,7.9,9.4,11.1
						c1.7,1.4,4.7,2.2,6.7,3.1c1.2,0.5,2.6,1.2,3.5,2c1.7,1.5-0.5,1.6-0.7,2c4,2.2,7.8,3.6,12.2,4.8c2.1,0.6,2.8,1.9,5.2,1.3
						c0.9-0.2,4.1-1.5,4.7-0.4c-0.7,0.5-1.4,1-2.1,1.5c2.8,0.9,5.7,1,8.6,0.9c3.1-0.1,5.5-1.5,8.4-1.8c0.7-0.1,2,1.9,2.7-0.1
						c0.8-2.4,0.6-4,0.2-6.4c-7.2,2-13.7,1.3-20.9-0.1c-1.6-0.3-21.5-8.3-18.2-11.7c0.8-0.8,7.8,3.9,8.8,4.4c4.4,2,8.4,3.2,13.2,3.8
						c4.5,0.6,8.5,1.8,13,0.6c4.9-1.4,4.5-2.7,5-7.5c-2.8,0.8-5.5,1.9-8.4,1.9c-3.5-0.1-7.3-1.1-10.7-0.9c-2.3,0.1-5.1-2.1-7.3-2.9
						c-3.3-1.2-6.2-2.5-9.7-3.3c-2.7-0.7-4.8-4.3-6.6-6.2c-2-2.2-4.3-4.4-6.4-6.5c-4.1-3.9-7.8-10.7-9.2-16.1
						c-1.9-7.4-0.7-14.6,0.9-22c1.4-6.3,4.2-11.2,6.5-17.1c2.8-7.1,6.8-13.4,10.7-20c0.9-1.5,3.2-6.4,4.9-7c1.9-0.7,2.3-1.3,3.7-3.3
						c0.6-0.8,1.9-3.7,3-3.3c-0.3,2-3.3,3.8-3,5.7c0.9-0.9,7.3-7.6,6.1-8.5c-0.4,0.4-1.8,2.7-2.4,2.4c0.6-1.9,1.9-4.4-2-3.2
						c-0.9,0.3-8.2,6.4-7.4,4.3c2.2-6.4,10-9.6,14.1-15.1c5.7-7.5,11.2-16.4,13.6-25.6c1-4,1.3-8,1.8-12.1c0.1-1.1-0.4-9.7-0.3-9.7
						c0.7,0,1.2,2.1,1.4,2.5c1.7-1.8-1.9-7.8-1.3-9.8s2.5,1,2.6,1.4c0.4,1.8,2.3,1.1,3,2.6c1.8,4,1.5,9.3,1.3,13.6
						c0,1.5,0.8,12.3-1.5,10.3c-1.6,4.1-10,18.9-6.6,21.8c-2.6,0.2-1.4,0.1-1.6,1.8c-0.2,1.3-0.9,0.9-1.3,2.3c-1,3.4-5,7.1-7.1,9.9
						c-5.1,6.9-9.7,14.9-15.4,21.2c-5.5,6.1-13.5,15-15.6,23c-2.1,7.7-3,16.9-2.1,24.9c0.9,8.9,1.6,15.8,8.2,22.3
						c5.7,5.7,12.5,9.6,19.4,13.5c3.5,2,23.7,7.9,25.2,1.8c0.9-3.7,1.9-8.3,2-12.5c0.1-1.8-1-7.6,1.4-8c-2.9-1.2-0.5-20.5-0.1-20.5
						c1.7,13.5,0.3,27.6,0.5,41.4c1.2-0.3,2.3-0.6,3.5-0.5c-1.1,2.8-4.4,2.1-4,6c0.2,1.7-0.2,3.5,0.2,5.1c0.4,1.5-1.1,2.2-1.4,3.6
						c-1,3.8-0.3,5.2,1.4,8.2c0.6,1-2.9,8.3-3.5,9.8c-0.8-0.9-1.6-1.7-2.4-2.6c-3.7,3.7-13.4,2.2-18,0.6c-7.3-2.5-14.5-4.7-21.7-7.4
						c-1.1-0.4-6.2-2.3-5.4,1.3c0.6,2.7,6.7,5.6,8.9,6.9c3.6,2.1,7.2,3.7,11,5.1c1.8,0.7,3.6,1.4,5.4,2c6.1,2.1-1-0.6,2,1.5
						c1.4-1.6,1.1-1.6,3.3-1c-3.8,1.3,0.2,1.7,1.8,1.7c2.6,0,4.9,0.4,7.6,0.2c1.3-0.1,3.7,0,5,0.5c2.9,1-4.1,2.2-3.8,2.1
						c-3.5,1.8-13.3,0.2-17.1-1.4c-4.6-2-9.7-3-14.5-4.8c-1.8-0.7-0.5-2.8-1.9-3.3c-2.9-1.1-5.5-2.1-8.2-3.8
						c-5-3.1-9.6-7.9-14.9-10.4c-2.2-1.1-3.1-3.4-4.6-5.1s0.7-4.8,2.6-2.5c2.8,3.4,8.7,8.4,13,3.8c-1.1-0.9-1,1.1,0,0
						c-1.9-1.6-1.5-3.6-3.4-5.3c-2-1.8-6.3-3.8-7.7-5.8c-4.2-5.9-7-11.7-8.8-18.8c-1.9-7.4-3.7-15.4-4.4-23
						c-0.7-6.7-1.2-14.1-3.5-20.4c-0.9-2.4-2.6-1.8-3.3-4.7c-0.9-3.8-1.8-7.5-3.4-11.1c-1.1-2.5-2.8-4-4.5-6s-1.8-4.1-3.5-6.1
						c-2.2-2.4-6.2-12.1-10.3-11.3c0.8-0.2-3.8-4.8-4.2-5.1c-2.7-2.2-5.6-3.3-8.6-4.9c0.1-0.5,0.4-0.7,1.1-0.7
						c-0.9-0.9-1.5,0.1-2.4,0.4c0.2-0.1-3.3-2.6-3.2-2.5c-1.5-0.7-9.8-1.3-10.1-3.5c-0.2-1.4-1.8-1.5-2.7-2.2c-1-0.8-0.2-3.2,1-2.4
						c2.2,1.5,6.4,3.2,4.7-1.5c0.5-0.4,0.9-0.2,1.4,0.5c0.1-1.8,0.5-1.9-0.8-2.8c-0.6-0.5,0.6-2.5,0.5-3c-0.3-1.5-1-2.4-1.8-3.6
						c1.6-0.7-0.6-2.9-1-3.4c-2.3-3.2-4.5-4.8-7.9-7c-2.5-1.6-3.8-5.1-4.8-7.8c-1.4-3.7-0.8-1.9-4.3-1.5c-3.4,0.3-2.6,2.9-4.5,4.7
						c-2,1.9-7.7,1.1-9.3-1c-3.4-4.1,6.3-2.2,6.6-4.2c0.1-0.8-3.7-5-4.4-5.8c-0.9,0.6,0.7,1.4-0.2,1.9c-2.2-3.7-3.4-3.8-7.6-1.4
						c-3.9,2.3-5.1-1.6-9.3-2c-1.3-0.1-2.6,0-3.9,0.3c-2.5,0.5-3.6-0.2-5.9-0.2c-3.7,0-5.2,5-4.8,7.7c1.9,0,2.1,0.7,3.6,2.7
						c2.9,3.8-1.2,4.3-2.2,7.1c-0.8,2.5-3.8,1.1-5.5,2.6c-2.3,2.1,0.4,7.8,3.9,6.6c2.4-0.8,7,2.7,8.5,4.2c2.8,3,3.3,6.2,4.6,9.8
						c0.7,1.9,1.1,3.8,1.4,5.8c0.3,1.9-2.1,0.9-2.6-0.1c-1.6-2.6-1.1-6.9-3.4-9.1c-4.6,8.2,0.5,18.5,7.8,22.8
						c5.8,3.4,18.5,6.6,24.4,0.9c-1-0.5-3.3-0.3-3-1.5c1,0,3.2,1,3.9,0.3c1-1-1.8-5.3-2.1-6.4c-1.3-4.7,3.2-2.6,4.7-0.4
						c2.5,3.5,4.3,6.4,4.2,10.5c-0.1,4.4,1.1,8.9,1.2,13.2c0.2,5.8-0.6,11.4-1.1,17.2c-0.3,4.1-2.3,7.6-3.1,11.4
						c-0.4,1.7-1.2,3.3-1.7,4.9c-0.3,1.4-1.2,2.2-2.6,2.5c0.2,0.5,0.3,1,0.3,1.5c-0.8,3.4-4.3,6.3-5.8,9.3s-4.1,6.5-6.3,9.1
						c-2.4,2.7-4.4,6.3-6.6,9.2c-2.2,2.9-3.7,6.3-6.3,8.7c-2.1,1.9-6.9,4.9-6.3,8.2c0.1,0.6-2.2,1.4-2.5,2.3
						c-0.7,2.1-1.8,2.3-2.9,3.9c-0.8,1.1-1.4,3.1-2.4,4.5c-1.3,1.9-1.9,4.2-2.6,6.4c-1.7,5.4-2.2,11.4-2.3,17.1
						c-0.1,2.8,1.7,12-3.1,10c0.2,0.8,0.1,1.5-0.2,2.2c-1.4-0.9-1.6-3.6-3.1-2.6c-1-8.6,0.3-18.5,3.7-26.6
						c2.9-6.8,4.6-15.4,9.2-21.5c2-2.6,3.7-5.7,6.2-7.9c1.2-1,4.7-5,5.1-6.2c0.7-2.2,5.2-6.9,7-8.2c0.6-1.2,2.3-3.1,2.4-4.4
						c0.1-1.6,5-2.4,2.6-4.1c-8.6,5.3-17.6,10.5-24.4,18.3c-1.4,1.6-2.6,3.3-4,4.9c-1.7,1.9-1.5-2.6-0.8-3.5
						c2.5-3.4,5.1-6.3,7.8-9.6c1.4-1.7,3.3-2.9,4.9-4.5c2.9-2.9,0.8-1.9-1.3-3.2c-4.8-3.1,6.2-7.9,7.6-8.7c4.4-2.8,9.1-5.2,13.5-8.2
						c3.2-2.1,13.2-10.2,9.2-14.1c-9.8,9.9-22.1,17.5-35.1,22c-8.4,2.9-14.8,7.2-19.6,14.7c-1.7,2.6-2.6,2.7-2.6,6.2
						c0,1.1-1,8.2,1.6,6.3c1.1-0.8,2.7-4.2,3.5-5.4c1.3-2.2,3.8-4.4,5.6-6.1c1.9-1.8,4.1-3.6,6.2-5c0.9-0.6,2.1-2.2,3.2-2.5
						c2.4-0.6-0.2,4.3-0.6,4.7c-6,4.9-12.8,11.9-15.7,19.5c-1.1,2.9-3.8,6.5-3,9.8c0.3,1.2-0.1,7.9-1.5,8.3c1.5,1-0.2,2.4-0.7,3.4
						c1.4,0.6,7-10.5,7.5-12.3c0.5-1.9,1.5-3.4,3.7-2.3c2.3,1.2-0.9,5.8-1.5,7.4c-4.5,12.1-6.9,24.6-4.2,37.2
						c-4,0.1-1.2-15.1-4.5-14.2c0,2,0.8,5.1-0.9,6.7c-0.7-1.4-0.5-4.3-0.4-5.8c0.1-1.8-0.8-3.1-0.9-5c-0.3-5-0.6-9.9-0.3-14.9
						c0.5-8.9,0.9-17.7,1.3-26.8c0.4-8.3,0.4-16.9,0.4-25.4c0-5.6,0.4-11.3,0-16.8c-0.2-2.4-1.1-11.4,0.9-12.7
						c1,7.3,0,15.2,0.3,22.6c0.1,2.8-1.9,20.6,0.3,21.4c1.4-2,2.1-3.8,3.8-5.7c2.5-2.9,6-4.5,8.6-7.4c-4.1,1-7.9,2.7-11.2,5.3
						c-1.8-2.8,19-9.3,21.1-10c7.4-2.6,13.3-6.8,19.9-10.8c6.3-3.8,11.9-13.1,14.8-19.6c1.6-3.6,2.8-7.3,2.5-11.2
						c-0.2-2.8,2.1-6.9-2.5-4.6c-13.2,6.8-33.9-1.4-37.9-15.7c-0.7-2.6-1.3-6.3-1.3-9.1c-0.1-4.3,1.8-5.9-0.2-10
						c-1.4-2.9-4.8-0.8-6.7-1c-2.7-0.3-5.1-11.5-2.5-11.5L418.5,74.1z"/>
				</defs>
				<clipPath id="SVGID_2_">
					<use xlink:href="#SVGID_1_"  style="overflow:visible;"/>
				</clipPath>
				
					<linearGradient id="SVGID_3_" gradientUnits="userSpaceOnUse" x1="877.773" y1="612.8574" x2="1884.5842" y2="612.8574" gradientTransform="matrix(1 0 0 1 -461.6699 -456.3278)">
					<stop  offset="0" style="stop-color:#CB2128"/>
					<stop  offset="0.1" style="stop-color:#8F2125"/>
					<stop  offset="0.4" style="stop-color:#C82229"/>
					<stop  offset="0.71" style="stop-color:#781C1E"/>
					<stop  offset="1" style="stop-color:#CB2128"/>
				</linearGradient>
				<rect x="405.8" y="33.5" class="st0" width="219.6" height="246"/>
			</g>
		</g>
	</g>
	<g>
		<path class="st1" d="M576,376.2v-12h5.4c1.1,0,1.9,0.1,2.5,0.3c0.6,0.2,1,0.6,1.3,1.2c0.3,0.5,0.5,1.2,0.5,1.8
			c0,0.9-0.3,1.6-0.8,2.2c-0.6,0.6-1.4,1-2.6,1.1c0.4,0.2,0.7,0.4,1,0.6c0.5,0.4,0.9,1,1.3,1.6l2.1,3.3h-2l-1.6-2.5
			c-0.5-0.7-0.9-1.3-1.2-1.7l-0.8-0.8l-0.7-0.3c-0.2,0-0.5-0.1-0.9-0.1h-1.9v5.4L576,376.2L576,376.2z M577.6,369.5h3.4
			c0.7,0,1.3-0.1,1.7-0.2c0.4-0.2,0.7-0.4,0.9-0.7l0.3-1.1c0-0.6-0.2-1-0.6-1.4s-1.1-0.6-2-0.6h-3.8L577.6,369.5L577.6,369.5z"/>
		<path class="st1" d="M580.7,358.6c-6.2,0-11.3,5.1-11.3,11.3c0,6.2,5,11.3,11.3,11.3c6.2,0,11.3-5.1,11.3-11.3
			C592,363.7,586.9,358.6,580.7,358.6 M580.7,379.4c-5.3,0-9.5-4.3-9.5-9.5c0-5.3,4.3-9.5,9.5-9.5c5.3,0,9.5,4.3,9.5,9.5
			C590.2,375.2,585.9,379.4,580.7,379.4z"/>
		<path class="st1" d="M188.2,480.7c-7.4-2.6-13.9-6.5-19.5-11.7c-3.4-3.2-6.2-6.5-8.4-10.1c-2.2-3.5-3.9-7.1-5.2-10.8
			c-1.3-3.7-2.2-7.3-2.7-11c-0.5-3.7-0.8-7.3-0.8-10.7c0-2.4,0.2-5.2,0.7-8.4c0.5-3.2,1.3-6.6,2.5-10.1s2.8-7.1,4.9-10.7
			s4.7-7,7.8-10.2c2.1-2.1,4.5-4.1,7.2-6.1c2.7-1.9,5.8-3.5,9.3-4.9c3.5-1.3,7.4-2.4,11.8-3.2c4.4-0.8,9.3-1.2,14.7-1.2
			c2.8,0,6.1,0.1,9.7,0.4c3.7,0.2,7.2,0.7,10.7,1.4c2.7,0.5,5.2,0.9,7.5,1.3s4.6,0.7,6.8,0.9c0.8,0.1,1.2,0.3,1.5,0.5
			c0.2,0.2,0.3,0.6,0.3,1.1c0,0.6-0.1,1.4-0.2,2.5s-0.3,3-0.5,5.5c-0.1,1.2-0.2,2.5-0.2,4c-0.1,1.5-0.1,3-0.1,4.4
			c0,1.4,0,2.7-0.1,3.9c0,1.1-0.1,2-0.1,2.6c-0.1,2-0.5,3-1.3,3s-1.1-1-1.1-3c0-2.8-0.5-5.5-1.6-8.2c-1-2.7-2.5-4.8-4.4-6.5
			c-2.4-2.2-6.2-4.1-11.3-5.8c-5.1-1.6-10.7-2.5-16.9-2.5c-4.7,0-8.8,0.3-12.3,0.9c-3.5,0.6-6.5,1.5-9.1,2.5s-4.8,2.1-6.6,3.4
			c-1.8,1.2-3.3,2.5-4.5,3.7c-5.2,5.1-8.6,10.8-10.2,17.1c-1.6,6.3-2.5,13.1-2.5,20.5c0,6.9,1.2,13.5,3.7,19.9
			c2.5,6.3,6,11.9,10.4,16.8c4.5,4.9,9.8,8.7,16.1,11.7c6.2,2.9,13.1,4.4,20.6,4.4c5.4,0,10.1-0.5,14.2-1.4s7.5-2.9,10.4-5.8
			c1.5-1.6,2.7-3.7,3.6-6.3c0.9-2.5,1.4-4.5,1.6-5.8c0.3-1.4,0.7-2.2,1.4-2.2c0.4,0,0.6,0.2,0.8,0.6c0.1,0.4,0.2,0.9,0.2,1.5
			c0,0.3-0.1,1.2-0.3,2.7c-0.2,1.5-0.4,3.2-0.7,5.1c-0.3,1.9-0.6,3.9-1,5.8c-0.4,2-0.8,3.6-1.1,4.8c-0.5,1.4-0.9,2.2-1.2,2.7
			c-0.3,0.4-1.2,0.9-2.5,1.5c-1.4,0.6-3.1,1.1-5.1,1.5s-4.1,0.8-6.3,1c-2.3,0.2-4.6,0.4-7,0.6c-2.4,0.1-4.7,0.2-7,0.2
			C204.6,484.6,195.6,483.3,188.2,480.7"/>
		<path class="st1" d="M264.6,401.2c0-3.7,0-6.8,0-9.2s0-4.3,0-5.7c0-1.5,0-2.7,0-3.5c0-0.9-0.1-1.7-0.1-2.5c-0.1-1.7-0.4-2.9-1-3.8
			c-0.5-0.8-1.6-1.4-3.1-1.7c-0.4-0.1-0.9-0.2-1.6-0.2s-1.2,0-1.7,0s-0.8-0.2-0.8-0.6c0-0.5,0.5-0.8,1.5-0.8c1.1,0,2.2,0,3.4,0.1
			c1.2,0,2.3,0.1,3.3,0.1s2,0.1,2.7,0.1c0.8,0,1.3,0,1.5,0s0.7,0,1.4,0c0.8,0,1.6-0.1,2.6-0.1c0.9,0,1.9-0.1,2.9-0.1
			s1.8-0.1,2.5-0.1c1,0,1.5,0.3,1.5,0.8c0,0.4-0.3,0.6-0.8,0.6h-1c-0.4,0-0.8,0.1-1.4,0.2c-1.3,0.2-2.1,0.7-2.6,1.6
			c-0.5,0.9-0.8,2.2-0.9,3.9c-0.1,0.8-0.1,1.6-0.1,2.5s0,2.1,0,3.5s0,3.3,0,5.7c0,2.4,0,5.5,0,9.2v13.6c0,3.5,0.2,6.5,0.5,9.1
			c0.3,2.6,0.8,4.8,1.5,6.6c0.6,1.9,1.4,3.5,2.3,4.8c0.9,1.3,1.8,2.5,2.8,3.4c2.3,2.3,4.6,3.7,6.9,4.4c2.2,0.6,4.7,1,7.5,1
			c2.9,0,5.7-0.6,8.4-1.9c2.7-1.3,4.8-3,6.5-5c2.2-2.8,3.7-6.2,4.4-10.2c0.7-4,1.1-8.5,1.1-13.6v-12.2c0-3.7,0-6.8,0-9.2
			s0-4.3,0-5.7c0-1.5,0-2.7,0-3.5c0-0.9-0.1-1.7-0.1-2.5c-0.1-1.7-0.4-2.9-0.9-3.8c-0.5-0.8-1.5-1.4-3.1-1.7
			c-0.4-0.1-0.9-0.2-1.6-0.2s-1.2,0-1.7,0s-0.8-0.2-0.8-0.6c0-0.5,0.5-0.8,1.5-0.8c1.1,0,2.2,0,3.3,0.1c1.1,0,2.2,0.1,3.1,0.1
			s1.8,0.1,2.4,0.1c0.7,0,1.1,0,1.2,0c0.2,0,0.6,0,1.1,0c0.6,0,1.2-0.1,2-0.1s1.6-0.1,2.5-0.1s1.6-0.1,2.3-0.1c1,0,1.5,0.3,1.5,0.8
			c0,0.4-0.3,0.6-0.8,0.6h-1c-0.4,0-0.8,0.1-1.4,0.2c-1.3,0.3-2.1,0.9-2.6,1.7c-0.5,0.8-0.8,2.1-0.9,3.8c-0.1,0.8-0.1,1.6-0.1,2.5
			s0,2.1,0,3.5s0,3.3,0,5.7c0,2.4,0,5.5,0,9.2v10.4c0,2.6-0.1,5.3-0.3,8c-0.2,2.7-0.6,5.3-1.2,7.9c-0.6,2.6-1.5,4.9-2.7,7.2
			c-1.1,2.2-2.7,4.2-4.6,6c-1.7,1.6-3.4,2.8-5.2,3.7c-1.7,0.9-3.4,1.7-5.1,2.2c-1.6,0.5-3.3,0.8-4.8,1c-1.6,0.2-3.1,0.2-4.5,0.2
			c-0.8,0-2,0-3.5-0.1s-3.1-0.4-5-0.8c-1.8-0.5-3.7-1.1-5.6-2.1c-1.9-0.9-3.8-2.2-5.5-3.8c-1.1-1.2-2.2-2.5-3.2-3.9
			c-1-1.5-1.9-3.2-2.7-5.2c-0.8-2-1.3-4.4-1.8-7c-0.4-2.6-0.6-5.8-0.6-9.3v-14.4H264.6z"/>
		<path class="st1" d="M348.9,401.2c0-3.7,0-6.8,0-9.2s0-4.3,0-5.7c0-1.5,0-2.7,0-3.5c0-0.9-0.1-1.7-0.1-2.5c-0.1-1.7-0.4-2.9-1-3.8
			c-0.5-0.8-1.5-1.4-3.1-1.7c-0.4-0.1-0.9-0.2-1.6-0.2s-1.2,0-1.7,0s-0.8-0.2-0.8-0.6c0-0.5,0.5-0.8,1.5-0.8c1.1,0,2.2,0,3.4,0
			c1.2,0,2.3,0,3.4,0.1l3.9,0.2c0.2,0,1.3,0,3.3,0c2.1,0,4.4,0,6.9,0c2.6,0,5,0,7.3,0c2.2,0,3.7-0.1,4.2-0.1
			c1.8-0.1,3.2-0.3,4.1-0.5l0.7-0.3l0.7-0.2c0.3,0,0.4,0.3,0.4,0.9c0,0.3-0.1,0.8-0.3,1.5c-0.2,0.7-0.3,1.7-0.5,3.1
			c0,0.3,0,0.7-0.1,1.3c0,0.6-0.1,1.2-0.1,1.9c-0.1,0.7-0.1,1.3-0.1,1.9s-0.1,1-0.1,1.3L379,385l-0.4,0.3c-0.5,0-0.8-0.4-0.8-1.3
			c0-0.3,0-0.8-0.1-1.6c-0.1-0.7-0.2-1.4-0.5-1.9c-0.3-0.8-0.9-1.4-1.7-2c-0.8-0.5-2.5-1-5-1.3c-0.4-0.1-1.2-0.1-2.6-0.1
			c-1.3,0-2.7-0.1-4.2-0.1s-2.8,0-4.1,0c-1.2,0-1.9,0-2.2,0c-0.4,0-0.6,0.3-0.6,1c0,0,0,42.5,0,44.1c0,1.6,0,3.3,0,5
			c0,1.7,0,3.4,0,4.8c0,1.5,0,2.5,0,3c0.1,1.7,0.2,3,0.5,4.1c0.3,1,0.8,1.8,1.6,2.4c0.8,0.6,1.9,1,3.3,1.2c1.4,0.2,3.3,0.3,5.6,0.3
			c1.3,0,2.8,0,4.6-0.1c1.8-0.1,3.3-0.4,4.6-0.9s2.2-1.3,2.8-2.4c0.6-1.1,1.1-2.6,1.4-4.6c0.2-1,0.5-1.5,0.9-1.5l0.5,0.5v1
			c0,0.2,0,0.7-0.1,1.5c-0.1,0.8-0.2,1.7-0.3,2.7s-0.3,2-0.4,3c-0.1,1-0.3,1.7-0.4,2.2c-0.2,0.6-0.4,1.1-0.6,1.5l-0.9,0.7
			c-0.4,0.2-0.8,0.3-1.4,0.3c-0.6,0-1.3,0-2.3,0c-3.6,0-6.7,0-9.3-0.1c-2.6-0.1-4.9-0.1-6.7-0.2c-1.8-0.1-3.4-0.2-4.6-0.2
			s-2.2,0-2.8,0c-0.1,0-0.5,0-1.2,0s-1.6,0-2.6,0.1c-1,0-1.9,0-2.9,0.1s-1.9,0.1-2.6,0.1c-1,0-1.5-0.3-1.5-0.8
			c0-0.4,0.3-0.6,0.8-0.6c0.4,0,0.9,0,1.4-0.1s1-0.2,1.4-0.3c1-0.2,1.6-0.8,1.9-1.7c0.3-1,0.6-2.2,0.8-3.6c0.3-2.1,0.4-4.9,0.4-8.6
			c0-3.6,0-7.8,0-12.5L348.9,401.2z"/>
		<path class="st1" d="M654.8,418.2c0,4.7,0,8.8,0,12.5c0,3.7,0.2,6.5,0.4,8.6c0.1,1.4,0.4,2.6,0.9,3.6c0.4,1,1.4,1.6,2.8,1.7
			c0.7,0.1,1.5,0.2,2.3,0.3c0.9,0.1,1.5,0.1,1.9,0.1c0.5,0,0.8,0.2,0.8,0.6c0,0.5-0.5,0.8-1.5,0.8c-1.3,0-2.7,0-4,0
			c-1.3,0-2.5-0.1-3.7-0.1c-1.1,0-2-0.1-2.7-0.1c-0.7,0-1.2,0-1.3,0s-0.6,0-1.3,0c-0.7,0-1.6,0.1-2.5,0.1s-1.9,0.1-2.9,0.1
			s-1.9,0-2.6,0c-1,0-1.5-0.3-1.5-0.8c0-0.4,0.3-0.6,0.8-0.6c0.4,0,0.9,0,1.4-0.1s1-0.2,1.4-0.3c1-0.2,1.6-0.8,1.9-1.7
			c0.4-1,0.6-2.2,0.8-3.6c0.3-2.1,0.4-4.9,0.4-8.6c0-3.6,0-7.8,0-12.5v-17.1c0-3.7,0-6.8,0-9.2s0-4.3,0-5.7c0-1.5,0-2.7,0-3.5
			c0-0.9-0.1-1.7-0.1-2.5c-0.2-3.2-1.3-5-3.2-5.4c-0.5-0.1-1-0.2-1.6-0.3s-1-0.1-1.3-0.1c-0.5,0-0.8-0.2-0.8-0.6
			c0-0.5,0.5-0.8,1.5-0.8c0.8,0,1.7,0,2.8,0.1c1.1,0,2.1,0.1,3,0.1c1,0,1.8,0.1,2.5,0.1c0.7,0,1.2,0,1.3,0s0.5,0,1.3,0
			c0.7,0,1.6-0.1,2.5-0.1s1.9-0.1,2.9-0.1s1.9-0.1,2.6-0.1c1,0,1.5,0.3,1.5,0.8c0,0.4-0.3,0.6-0.8,0.6h-1c-0.4,0-0.8,0.1-1.4,0.2
			c-1.3,0.3-2.1,0.8-2.6,1.7c-0.5,0.9-0.8,2.2-0.9,3.8c-0.1,0.8-0.1,1.6-0.1,2.5s0,2.1,0,3.5s0,3.3,0,5.7c0,2.4,0,5.5,0,9.2
			L654.8,418.2z"/>
		<path class="st1" d="M754.4,424.4c0,3.9,0,7.3,0,10.1c0,2.8-0.1,5.3-0.3,7.5c-0.2,2.2-0.5,4.1-0.9,5.8c-0.4,1.7-0.9,3.4-1.6,5.2
			c-1,2.5-2.6,4.9-4.8,7.2c-2.2,2.4-5.2,4.9-9.1,7.6c-0.6,0.4-1.3,0.9-1.9,1.4c-0.7,0.4-1.3,0.8-1.8,1.1l-0.7,0.2
			c-0.4,0-0.7-0.2-0.7-0.6l0.3-0.7c0.2-0.2,0.6-0.4,1-0.7c0.6-0.3,1.2-0.7,1.8-1.3c0.6-0.5,1.1-1,1.6-1.4c1.5-1.6,2.8-3.2,4-4.9
			c1.1-1.7,2.1-3.8,2.8-6.4c0.8-2.6,1.3-5.9,1.7-9.9s0.6-9.1,0.6-15.4v-28c0-3.7,0-6.8,0-9.2s0-4.3,0-5.7c0-1.5,0-2.7-0.1-3.5
			c0-0.9-0.1-1.7-0.1-2.5c-0.1-1.7-0.4-2.9-0.9-3.8c-0.5-0.8-1.6-1.4-3.1-1.7c-0.4-0.1-0.9-0.2-1.6-0.2s-1.2,0-1.7,0
			s-0.8-0.2-0.8-0.6c0-0.5,0.5-0.8,1.5-0.8c1.1,0,2.2,0,3.4,0.1c1.2,0,2.3,0.1,3.4,0.1c1,0,1.9,0.1,2.7,0.1c0.7,0,1.2,0,1.3,0
			s0.5,0,1.3,0c0.7,0,1.6-0.1,2.5-0.1c1,0,1.9-0.1,3-0.1c1,0,1.9-0.1,2.6-0.1c1,0,1.5,0.3,1.5,0.8c0,0.4-0.3,0.6-0.8,0.6h-1
			c-0.4,0-0.8,0.1-1.4,0.2c-1.3,0.3-2.1,0.8-2.6,1.7s-0.8,2.2-0.9,3.8c-0.1,0.8-0.1,1.6-0.1,2.5c0,0.9,0,2.1,0,3.5
			c0,1.4,0,3.3,0,5.7s0,5.5,0,9.2L754.4,424.4L754.4,424.4z"/>
		<path class="st1" d="M770.7,415.5c0.9-4.3,2.4-8.5,4.3-12.7c2-4.2,4.4-8.1,7.3-11.9c2.9-3.8,6.5-7.1,10.6-9.9
			c4.1-2.9,8.8-5.1,14-6.8c5.2-1.7,11.1-2.5,17.5-2.5c7.8,0,15.1,1.2,21.8,3.7c6.7,2.5,12.5,6,17.4,10.7c4.9,4.6,8.8,10.3,11.6,16.9
			c2.8,6.6,4.2,14.1,4.2,22.4c0,8-1.3,15.6-4,22.7c-2.7,7.1-6.4,13.3-11.3,18.6c-4.9,5.3-10.7,9.5-17.7,12.6
			c-6.9,3.1-14.6,4.6-23,4.6c-9.6,0-17.9-1.7-24.7-5.1c-6.9-3.4-12.5-7.9-16.9-13.3c-4.4-5.4-7.6-11.5-9.7-18.1s-3.1-13.2-3.1-19.7
			C769.3,423.8,769.8,419.8,770.7,415.5 M786,446.3c2.3,6.8,5.5,12.6,9.5,17.3c4.1,4.8,8.8,8.4,14.2,11s11.3,3.9,17.6,3.9
			c3.2,0,7-0.6,11.3-1.8c4.4-1.2,8.6-3.6,12.7-7.1c4.1-3.5,7.5-8.5,10.4-15c2.8-6.4,4.3-14.9,4.3-25.3c0-8.6-1.2-16.2-3.6-22.8
			c-2.4-6.6-5.5-12.1-9.5-16.5c-3.9-4.4-8.5-7.8-13.6-10.1c-5.1-2.3-10.5-3.4-16-3.4c-5.9,0-11.3,1-16.3,2.9c-5,2-9.3,4.9-13,8.9
			c-3.6,3.9-6.5,8.9-8.5,14.7c-2,5.9-3.1,12.7-3.1,20.5C782.6,431.9,783.7,439.5,786,446.3z"/>
		<path class="st1" d="M446.4,426.2c-3.2-4.2-6.8-8.8-10.7-14c4.2-4,5.8-7.2,7.6-10.9c1.7-3.6,2.6-7.3,2.6-10.9
			c0-1.7-0.2-3.2-0.7-4.7c-0.5-1.4-1-2.7-1.7-3.8c-0.7-1.1-1.4-2-2.1-2.9c-0.8-0.8-1.4-1.4-2-1.9c-2.5-1.9-5.3-3-8.3-3.5
			s-6-0.7-9.1-0.7c-0.8,0-1.7,0-2.8,0.1c-1.1,0-2.3,0.1-3.5,0.1s-2.2,0.1-3.1,0.1c-0.9,0-1.5,0-1.8,0c-0.1,0-0.5,0-1.3,0
			c-0.7,0-1.6-0.1-2.7-0.1c-1,0-2.2-0.1-3.4-0.1s-2.3-0.1-3.4-0.1c-1,0-1.5,0.3-1.5,0.8c0,0.4,0.2,0.6,0.8,0.6c0.4,0,1,0,1.7,0
			s1.2,0.1,1.6,0.2c1.6,0.3,2.6,0.9,3.1,1.7c0.5,0.8,0.8,2.1,1,3.8c0.1,0.8,0.1,1.6,0.1,2.5s0.1,2.1,0.1,3.5s0,3.3,0,5.7
			c0,2.4,0,5.5,0,9.2V418c0,4.7,0,8.8-0.1,12.5c0,3.7-0.2,6.5-0.4,8.6c-0.2,1.4-0.5,2.6-0.8,3.6s-1,1.6-1.9,1.7
			c-0.4,0.1-0.9,0.2-1.4,0.3s-1,0.1-1.4,0.1c-0.5,0-0.8,0.2-0.8,0.6c0,0.5,0.5,0.8,1.5,0.8c0.7,0,1.6,0,2.6,0s2-0.1,2.9-0.1
			s2.1-0.1,3.4-0.2c0.1,0,0.6,0,1.3,0s1.6,0.1,2.8,0.1c1.1,0,2.3,0.1,3.6,0.1s2.7,0,4,0c1,0,1.5-0.3,1.5-0.8c0-0.4-0.3-0.6-0.8-0.6
			c-0.4,0-1.1,0-2-0.1s-1.6-0.2-2.3-0.3c-1.5-0.2-2.4-0.8-2.8-1.7c-0.4-1-0.7-2.2-0.9-3.6c-0.3-2.1-0.4-4.9-0.4-8.6
			c0-3.6,0-7.8,0-12.5v-2.3c0-0.5,0.2-0.8,0.7-0.8l11.7,0.2c0.4,0,0.9,0.2,1.2,0.6c0.4,0.6,1.1,1.5,1.8,2.6c0.8,1.1,1.6,2.3,2.6,3.5
			c0.9,1.3,1.9,2.6,2.9,4.1c1,1.4,2,2.8,3,4.2c0.5,0.7,1,1.4,1.5,2c56,73.8,120.7,24.8,120.7,24.8
			C492.6,491.7,446.4,426.2,446.4,426.2 M432.1,410.5c-1.1,0.8-2.2,1.3-3.5,1.5c-1.3,0.2-2.5,0.3-3.6,0.3c-2.1,0-4.1-0.1-6-0.4
			c-1.9-0.3-3.2-0.7-3.9-1.1c-0.4-0.3-0.7-0.6-0.7-1.2v-31.7c0-0.6,0.3-1,0.8-1.2c0.5-0.1,1.3-0.3,2.5-0.4c1.1-0.1,2.4-0.2,3.9-0.2
			c5.1,0,9.1,1.7,12,5.1s4.4,8.2,4.4,14.3c0,3.7-0.6,6.8-1.7,9.4C435.1,407.5,433.7,409.3,432.1,410.5z"/>
		<path class="st1" d="M631.1,373.1c-0.7,0-1.4,0-2.2,0.1c-0.8,0-1.6,0.1-2.3,0.1c-0.7,0-1.4,0.1-1.9,0.1s-0.9,0-1,0
			c-0.6,0-1.8,0-3.7-0.1c-1.9-0.1-3.7-0.1-5.6-0.1c-1.4,0-2.1,0.3-2.1,0.8c0,0.4,0.3,0.6,1,0.6c0.5,0,1.1,0,1.8,0
			c0.7,0,1.3,0.1,1.8,0.3c0.5,0.3,0.8,0.6,1,1c0.2,0.4,0.2,0.8,0.2,1.2c0,0.5-0.1,1-0.2,1.6c-0.2,0.6-0.4,1.3-0.6,2
			c-0.4,1.2-1,3-1.8,5.5c-0.9,2.5-1.9,5.4-3.1,8.7c-1.2,3.3-2.5,6.8-3.9,10.5c-1.4,3.7-2.8,7.4-4.2,11s-2.7,7-4,10.1
			c-1.3,3.2-2.3,5.9-3.2,8l-10.3-27.7c0,0-47.1-120-152.7-51.4c0,0,96.9-53.7,146.7,59.2l0,0l10.6,27.1c0.9,2.3,1.5,3.9,1.9,4.8
			c0.4,0.8,0.9,1.3,1.5,1.3c0.4,0,0.9-0.5,1.3-1.5c0.4-1,1.3-3,2.7-5.9c1.1-2.4,2.7-6.1,4.7-11.1c2.1-5,4.6-11.1,7.5-18.2
			c1.2-3,2.4-5.9,3.6-8.7c1.2-2.8,2.2-5.5,3.2-7.8c0.9-2.4,1.8-4.4,2.5-6.1c0.7-1.7,1.2-2.9,1.4-3.6c0.6-1.6,1.2-3,1.7-4.1
			s1-2,1.4-2.7c0.4-0.7,0.8-1.2,1.1-1.6l1-0.8c0.9-0.6,1.8-0.9,2.7-1c0.9-0.1,1.5-0.1,1.9-0.1c0.8,0,1.1-0.2,1.1-0.7
			C632.7,373.3,632.1,373.1,631.1,373.1"/>
		<path class="st1" d="M358.8,414c-1.4-0.7-2.4-1.2-3.1-1.5c-0.9-0.4-1.8-0.9-2.8-1.4s-2.2-0.8-3.6-0.8c-0.8,0-1.6,0.1-2.2,0.4
			c-0.7,0.3-1.2,0.6-1.7,1c-0.5,0.4-0.9,0.8-1.1,1.2l-0.7,0.9c-0.5,0.6-0.9,0.9-1.3,0.9l-0.6-0.6l0.2-0.7l0.5-0.8
			c0.3-0.5,0.8-1.2,1.4-1.9c0.6-0.8,1.3-1.5,2-2.3c0.8-0.7,1.5-1.4,2.4-1.9c0.8-0.5,1.6-0.8,2.4-0.8c1.1,0,2.4,0.3,3.7,1
			c1.4,0.6,2.8,1.3,4.2,2c0.7,0.3,1.6,0.7,2.7,1.1s2,0.6,2.8,0.6c0.9,0,1.7-0.1,2.4-0.4c0.7-0.3,1.3-0.5,1.8-0.9
			c0.5-0.3,0.9-0.6,1.1-0.9l0.5-0.6c0.4-0.7,0.8-1.1,1.1-1.1c0.4,0,0.7,0.2,0.7,0.6c0,0.3-0.1,0.7-0.4,1.3c-0.2,0.4-0.6,1-1.1,1.7
			c-0.6,0.7-1.2,1.5-2,2.2c-0.8,0.7-1.5,1.4-2.4,1.9c-0.8,0.5-1.6,0.8-2.4,0.8C361.6,415,360.1,414.7,358.8,414"/>
		<path class="st1" d="M688.5,401.2c0-3.7,0-6.8,0-9.2s0-4.3,0-5.7c0-1.5,0-2.7-0.1-3.5c0-0.9-0.1-1.7-0.1-2.5
			c-0.1-1.7-0.4-2.9-0.9-3.8c-0.5-0.8-1.6-1.4-3.1-1.7c-0.4-0.1-0.9-0.2-1.6-0.2s-1.2,0-1.7,0s-0.8-0.2-0.8-0.6
			c0-0.5,0.5-0.8,1.5-0.8c1.1,0,2.2,0,3.4,0c1.2,0,2.3,0,3.4,0.1l3.9,0.2c0.2,0,1.3,0,3.3,0c2.1,0,4.4,0,6.9,0c2.6,0,5,0,7.3,0
			c2.2,0,3.7-0.1,4.2-0.1c1.8-0.1,3.2-0.3,4.1-0.5l0.7-0.3l0.7-0.2c0.2,0,0.4,0.3,0.4,0.9c0,0.3-0.1,0.8-0.3,1.5
			c-0.2,0.7-0.4,1.7-0.5,3.1c0,0.3,0,0.7-0.1,1.3c0,0.6-0.1,1.2-0.1,1.9c-0.1,0.7-0.1,1.3-0.1,1.9s-0.1,1-0.1,1.3l-0.2,0.7l-0.4,0.3
			c-0.5,0-0.8-0.4-0.8-1.3c0-0.3,0-0.8-0.1-1.6c-0.1-0.7-0.2-1.4-0.5-1.9c-0.3-0.8-0.9-1.4-1.7-2c-0.8-0.5-2.5-1-5-1.3
			c-0.4-0.1-1.2-0.1-2.6-0.1c-1.3,0-2.7-0.1-4.2-0.1s-2.8,0-4.1,0c-1.2,0-1.9,0-2.2,0c-0.4,0-0.6,0.3-0.6,1c0,0,0,42.5,0,44.1
			c0,1.6,0,3.3,0,5c0,1.7,0,3.4,0,4.8c0,1.5,0,2.5,0,3c0.1,1.7,0.2,3,0.5,4.1c0.3,1,0.8,1.8,1.6,2.4c0.8,0.6,1.9,1,3.3,1.2
			c1.4,0.2,3.3,0.3,5.6,0.3c1.3,0,2.8,0,4.6-0.1c1.8-0.1,3.3-0.4,4.5-0.9c1.3-0.5,2.2-1.3,2.9-2.4c0.6-1.1,1.1-2.6,1.4-4.6
			c0.2-1,0.5-1.5,0.9-1.5l0.5,0.5v1c0,0.2,0,0.7-0.1,1.5c-0.1,0.8-0.2,1.7-0.3,2.7s-0.3,2-0.4,3s-0.2,1.7-0.4,2.2
			c-0.2,0.6-0.4,1.1-0.6,1.5l-0.9,0.7c-0.4,0.2-0.9,0.3-1.4,0.3c-0.6,0-1.3,0-2.3,0c-3.6,0-6.7,0-9.3-0.1s-4.9-0.1-6.7-0.2
			c-1.8-0.1-3.4-0.2-4.6-0.2s-2.2,0-2.8,0c-0.1,0-0.5,0-1.2,0c-0.7,0-1.6,0-2.6,0.1c-1,0-1.9,0-2.9,0.1s-1.9,0.1-2.6,0.1
			c-1,0-1.5-0.3-1.5-0.8c0-0.4,0.3-0.6,0.8-0.6c0.4,0,0.9,0,1.4-0.1s1-0.2,1.4-0.3c0.9-0.2,1.6-0.8,1.9-1.7c0.3-1,0.6-2.2,0.8-3.6
			c0.3-2.1,0.4-4.9,0.4-8.6c0-3.6,0.1-7.8,0.1-12.5L688.5,401.2L688.5,401.2z"/>
		<path class="st1" d="M698.5,414c-1.4-0.7-2.4-1.2-3.1-1.5c-0.9-0.4-1.8-0.9-2.8-1.4s-2.2-0.8-3.7-0.8c-0.8,0-1.6,0.1-2.2,0.4
			c-0.7,0.3-1.2,0.6-1.7,1c-0.5,0.4-0.9,0.8-1.1,1.2l-0.7,0.9c-0.5,0.6-1,0.9-1.3,0.9l-0.6-0.6l0.2-0.7l0.5-0.8
			c0.3-0.5,0.8-1.2,1.4-1.9c0.6-0.8,1.3-1.5,2-2.3c0.8-0.7,1.6-1.4,2.4-1.9c0.8-0.5,1.6-0.8,2.4-0.8c1.1,0,2.4,0.3,3.7,1
			c1.4,0.6,2.8,1.3,4.2,2c0.7,0.3,1.6,0.7,2.7,1.1s2,0.6,2.8,0.6c0.9,0,1.7-0.1,2.4-0.4c0.7-0.3,1.3-0.5,1.8-0.9
			c0.5-0.3,0.8-0.6,1.1-0.9l0.5-0.6c0.4-0.7,0.8-1.1,1.1-1.1c0.4,0,0.7,0.2,0.7,0.6c0,0.3-0.1,0.7-0.4,1.3c-0.2,0.4-0.6,1-1.1,1.7
			c-0.6,0.7-1.2,1.5-2,2.2c-0.8,0.7-1.6,1.4-2.4,1.9s-1.6,0.8-2.4,0.8C701.3,415,699.8,414.7,698.5,414"/>
		<path class="st1" d="M253,538.2c-1.2-0.2-2.3-0.6-3.3-1.1l-0.7-0.6c-0.1-0.2-0.1-0.7-0.1-1.4c0-1.3,0-2.5,0.1-3.4
			c0.1-1,0.1-1.7,0.1-2.1c0-0.6,0.2-0.8,0.4-0.8l0.4,0.6v0.9l0.1,1.1c0.2,1,0.5,1.8,1,2.5c0.5,0.7,1.1,1.2,1.8,1.6
			c0.7,0.4,1.5,0.7,2.3,0.9c0.8,0.2,1.6,0.3,2.5,0.3c1.2,0,2.3-0.2,3.2-0.6c0.9-0.4,1.7-0.9,2.3-1.6c0.6-0.7,1-1.4,1.3-2.2
			s0.5-1.7,0.5-2.5c0-0.9-0.1-1.7-0.3-2.5c-0.2-0.7-0.5-1.5-1-2.2c-0.5-0.7-1.1-1.4-1.8-2.2c-0.7-0.7-1.7-1.6-2.8-2.5l-2.3-1.9
			c-1.4-1.1-2.5-2.2-3.3-3.2c-0.9-1-1.5-1.9-2-2.8c-0.5-0.9-0.8-1.8-1-2.7s-0.3-1.7-0.3-2.6c0-1.4,0.2-2.7,0.7-3.8
			c0.5-1.2,1.2-2.1,2.1-3c0.9-0.8,2-1.5,3.3-1.9s2.8-0.7,4.4-0.7c1,0,1.9,0,2.6,0.1c0.8,0.1,1.5,0.2,2.1,0.4
			c0.5,0.1,0.8,0.2,1.1,0.2h0.7l0.5,0.4c0,0.1,0,0.7-0.1,1.5c-0.1,0.9-0.1,2.2-0.1,4c0,0.8-0.1,1.2-0.4,1.2l-0.3-0.2l-0.1-0.5
			c0-0.3-0.1-0.8-0.2-1.3c-0.1-0.6-0.3-1-0.4-1.3l-0.5-0.7c-0.2-0.3-0.6-0.6-1.1-0.9c-0.5-0.3-1.1-0.6-1.9-0.8
			c-0.8-0.2-1.7-0.3-2.9-0.3c-1.8,0-3.3,0.5-4.5,1.6s-1.8,2.5-1.8,4.5c0,0.7,0.1,1.4,0.3,2.1c0.2,0.6,0.5,1.3,1,2
			c0.5,0.7,1.1,1.4,1.9,2.1c0.8,0.8,1.8,1.6,3,2.6l1.4,1.1c1.5,1.2,2.7,2.3,3.7,3.4c1,1,1.7,2,2.3,3c0.6,1,0.9,1.9,1.1,2.9
			s0.3,2,0.3,3c0,0.5-0.1,1.1-0.2,1.9c-0.1,0.7-0.3,1.5-0.7,2.3c-0.3,0.8-0.8,1.6-1.3,2.4c-0.6,0.8-1.3,1.5-2.2,2.1
			c-1.1,0.8-2.3,1.4-3.6,1.7c-1.3,0.3-2.7,0.5-4.1,0.5C255.3,538.5,254.2,538.4,253,538.2"/>
		<path class="st1" d="M319.2,530.7c0,1.1,0.1,2,0.2,2.7c0.1,0.7,0.2,1.3,0.4,1.8c0.1,0.5,0.3,0.8,0.6,1.1l0.9,0.5
			c0.5,0.1,1,0.2,1.5,0.3c0.5,0,0.9,0.1,1.1,0.1l0.4,0.3c0,0.3-0.3,0.4-0.9,0.4c-1.5,0-2.7,0-3.6-0.1c-0.9-0.1-1.5-0.1-1.8-0.1
			c-0.2,0-0.8,0-1.8,0.1c-0.9,0.1-2,0.1-3.1,0.1c-0.5,0-0.8-0.1-0.8-0.4l0.4-0.3c0.2,0,0.5,0,0.9-0.1l1.2-0.3
			c0.6-0.2,1.1-0.7,1.2-1.7c0.2-0.9,0.3-2.6,0.3-5l0.1-29.9c0-1,0-1.7,0.1-2.1l0.4-0.5c0.2,0,0.5,0.2,0.8,0.6c0.4,0.4,0.7,0.8,1,1
			c0.2,0.2,0.8,0.9,1.7,2c1,1.1,2.2,2.5,3.7,4.1s3.2,3.5,5,5.5c1.9,2,3.8,4.2,5.7,6.3c1.3,1.4,2.5,2.8,3.8,4.2
			c1.3,1.4,2.5,2.8,3.6,4c1.1,1.2,2.1,2.4,3,3.3c0.9,1,1.5,1.6,1.9,2.1l-0.6-26.5c0-1.7-0.2-2.9-0.4-3.6c-0.3-0.7-0.8-1.1-1.5-1.3
			c-0.5-0.1-1-0.2-1.5-0.2s-0.8-0.1-1-0.1l-0.4-0.4c0-0.2,0.3-0.4,1-0.4c0.6,0,1.1,0,1.7,0s1.1,0,1.6,0s0.9,0,1.3,0.1h0.7
			c0.3,0,0.8,0,1.6-0.1c0.8,0,1.7-0.1,2.8-0.1c0.6,0,0.9,0.1,0.9,0.4l-0.6,0.4h-0.5l-0.7,0.1c-0.8,0.2-1.4,0.6-1.6,1.3
			c-0.2,0.7-0.3,1.8-0.3,3.4l-0.1,30.6c0,0.9,0,1.6,0,2c0,0.5,0,0.9-0.1,1.1l-0.1,0.5l-0.2,0.1l-0.4-0.1l-0.6-0.5
			c-0.3-0.2-0.6-0.6-1-1c-0.4-0.4-1-1-1.7-1.7c-0.1-0.1-0.7-0.7-1.6-1.6s-2-2.1-3.3-3.4c-1.3-1.4-2.7-2.9-4.2-4.5
			c-1.5-1.6-2.9-3.2-4.3-4.6c-1.5-1.6-3-3.2-4.4-4.8c-1.4-1.6-2.7-3-3.9-4.4c-1.2-1.4-2.2-2.5-3.1-3.5s-1.5-1.7-1.9-2.2L319.2,530.7
			z"/>
		<path class="st1" d="M390.4,524.5c0-1.1,0-1.9-0.1-2.5c0-0.6-0.1-1.1-0.3-1.5l-0.7-0.8c-0.3-0.2-0.7-0.4-1.2-0.5l-0.8-0.1h-0.9
			l-0.4-0.3c0-0.3,0.3-0.4,0.8-0.4c0.6,0,1.2,0,1.8,0s1.3,0,1.8,0c0.6,0,1,0,1.4,0h0.7h0.7c0.4,0,0.8,0,1.4,0c0.5,0,1,0,1.6,0
			c0.5,0,1,0,1.4,0c0.5,0,0.8,0.1,0.8,0.4l-0.4,0.3h-0.5l-0.7,0.1c-0.7,0.1-1.2,0.4-1.4,0.9c-0.3,0.5-0.4,1.2-0.5,2.1
			c-0.1,0.8-0.1,1.7-0.1,2.5s0,1.8,0,2.9v5.8c0,0.6,0,1.1,0,1.4l-0.1,0.8l-0.2,0.4l-0.4,0.3c-0.8,0.5-1.7,0.8-2.7,1.1
			c-1,0.3-1.9,0.5-2.9,0.7c-1,0.2-1.9,0.3-2.8,0.4c-0.9,0.1-1.7,0.1-2.5,0.1c-1,0-2.1,0-3.5-0.2c-1.3-0.1-2.7-0.4-4.3-0.7
			c-1.5-0.4-3.1-1-4.6-1.7s-3-1.7-4.5-3c-0.8-0.7-1.5-1.6-2.3-2.6c-0.7-1-1.4-2.2-1.9-3.4c-0.6-1.3-1-2.6-1.3-4.1s-0.5-3.1-0.5-4.7
			c0-2.1,0.2-4,0.7-5.8c0.5-1.8,1.1-3.4,1.9-4.8s1.7-2.7,2.7-3.8s2.1-2,3.2-2.7c1.2-0.7,2.3-1.3,3.5-1.7c1.2-0.4,2.4-0.8,3.5-1
			c1.2-0.2,2.3-0.4,3.4-0.4c1.1-0.1,2.2-0.1,3.1-0.1c0.8,0,1.6,0,2.5,0.1c0.8,0.1,1.6,0.2,2.3,0.3s1.3,0.2,1.9,0.3
			c0.5,0.1,0.9,0.2,1.2,0.2c0.5,0.1,1.2,0.3,2,0.3c0.8,0.1,1.5,0.1,2.1,0.2l0.5,0.2l0.1,0.3l-0.1,0.7c0,0.3-0.1,0.7-0.1,1.3
			s-0.1,1.3-0.1,2.1c0,0.9-0.1,1.9-0.1,3.2c0,0.4,0,0.7-0.1,0.9l-0.4,0.2c-0.2,0-0.3-0.3-0.4-0.8c0-0.4-0.1-0.9-0.3-1.5
			c-0.2-0.7-0.4-1.3-0.8-1.9c-0.3-0.5-0.8-1-1.5-1.5s-1.5-1-2.5-1.4s-2.2-0.7-3.5-1c-1.3-0.2-2.8-0.4-4.5-0.4c-0.8,0-1.7,0-2.5,0.1
			c-0.9,0.1-1.8,0.2-2.7,0.4c-0.9,0.2-1.9,0.6-2.8,1c-1,0.5-1.9,1.1-2.9,1.9c-1.5,1.2-2.7,3-3.6,5.3c-0.9,2.3-1.4,4.9-1.4,8
			c0,1.8,0.2,3.5,0.6,5.1c0.4,1.6,0.9,3,1.4,4.2c0.6,1.2,1.2,2.3,1.8,3.1c0.6,0.9,1.2,1.5,1.6,2c2,2,4.2,3.5,6.5,4.3
			c2.3,0.9,4.6,1.3,6.9,1.3c0.4,0,0.9,0,1.5-0.1c0.5,0,1.1-0.1,1.6-0.2c0.5-0.1,1-0.2,1.5-0.3c0.5-0.1,0.9-0.3,1.2-0.5
			c0.7-0.4,1-1,1-1.8v-9H390.4L390.4,524.5z"/>
		<path class="st1" d="M410.2,513.5c0-2,0-3.7,0-5c0-1.3,0-2.3,0-3.1c0-0.8,0-1.4,0-1.9s0-0.9-0.1-1.3c-0.1-0.9-0.2-1.6-0.5-2
			s-0.8-0.8-1.7-0.9l-0.8-0.1h-0.9l-0.4-0.3c0-0.3,0.3-0.4,0.8-0.4c0.6,0,1.2,0,1.8,0s1.3,0,1.8,0c0.6,0,1,0,1.4,0.1h0.7
			c0.1,0,0.4,0,0.9,0s1.1,0,1.7-0.1c0.6,0,1.3,0,1.9,0c0.6,0,1.1,0,1.5,0c1.6,0,3.3,0.1,4.9,0.4c1.6,0.3,3.1,0.9,4.5,1.9
			c0.3,0.2,0.7,0.6,1.1,1c0.4,0.4,0.8,0.9,1.1,1.5c0.4,0.6,0.7,1.3,0.9,2c0.3,0.8,0.4,1.6,0.4,2.5c0,1.9-0.5,3.9-1.4,5.9
			c-0.9,2-2.5,4-4.8,6.2c2.1,2.8,4,5.3,5.8,7.5c1.7,2.3,3.3,4.2,4.8,5.8c1.4,1.5,2.6,2.5,3.7,2.9c1,0.5,1.9,0.7,2.6,0.8
			c0.5,0.1,0.9,0.1,1.2,0.1h0.8l0.5,0.3l-0.3,0.4c-0.2,0.1-0.5,0.1-1,0.1h-3.6c-1.4,0-2.5-0.1-3.3-0.2c-0.8-0.1-1.5-0.4-2.1-0.8
			c-1.1-0.6-2.2-1.5-3.2-2.8s-2.3-2.9-3.7-4.9c-0.5-0.7-1.1-1.5-1.6-2.2c-0.5-0.8-1.1-1.5-1.6-2.2s-1-1.3-1.4-1.9
			c-0.4-0.6-0.8-1-1-1.4l-0.7-0.3l-6.3-0.1l-0.4,0.4v1.3c0,2.5,0,4.7,0,6.7s0.1,3.5,0.2,4.6c0.1,0.8,0.2,1.4,0.5,1.9
			c0.2,0.5,0.8,0.8,1.5,0.9c0.4,0.1,0.8,0.1,1.3,0.2c0.5,0,0.8,0.1,1,0.1l0.4,0.3c0,0.3-0.3,0.4-0.8,0.4c-0.7,0-1.4,0-2.1,0
			c-0.7,0-1.4,0-2-0.1c-0.6,0-1.1,0-1.5-0.1H412c-0.7,0-1.3,0.1-1.8,0.1s-1,0-1.6,0.1c-0.5,0-1,0-1.4,0c-0.5,0-0.8-0.1-0.8-0.4
			l0.4-0.3l0.8-0.1l0.8-0.2c0.5-0.1,0.9-0.4,1.1-0.9c0.2-0.5,0.3-1.2,0.4-1.9c0.1-1.1,0.2-2.7,0.2-4.6c0-2,0-4.2,0-6.7L410.2,513.5z
			 M414.3,518l0.4,0.6c0.4,0.2,1.1,0.4,2.1,0.6s2.1,0.2,3.2,0.2c0.6,0,1.3-0.1,1.9-0.2c0.7-0.1,1.3-0.4,1.9-0.8
			c0.9-0.6,1.6-1.6,2.2-3c0.6-1.4,0.9-3,0.9-5c0-3.3-0.8-5.8-2.4-7.7c-1.6-1.8-3.7-2.8-6.5-2.8c-0.8,0-1.5,0-2.1,0.1
			s-1.1,0.1-1.3,0.2l-0.4,0.6L414.3,518L414.3,518z"/>
		<path class="st1" d="M496.5,513.5c0-2,0-3.7,0-5c0-1.3,0-2.3,0-3.1c0-0.8,0-1.4,0-1.9s0-0.9-0.1-1.3c-0.1-0.9-0.2-1.6-0.5-2
			s-0.8-0.8-1.7-0.9l-0.8-0.1h-0.9l-0.4-0.3c0-0.3,0.3-0.4,0.8-0.4c0.6,0,1.2,0,1.8,0s1.3,0,1.8,0c0.6,0,1,0,1.4,0.1h0.7
			c0.1,0,0.4,0,0.9,0s1,0,1.6-0.1c0.6,0,1.3,0,2.1,0s1.5,0,2.3,0c1.3,0,2.7,0,4.5,0c1.7,0,3.5,0.2,5.4,0.5c1.9,0.3,3.7,0.9,5.6,1.7
			c1.8,0.8,3.5,2,5.1,3.6c0.6,0.7,1.3,1.5,1.9,2.3c0.6,0.9,1.1,1.9,1.6,3s0.8,2.3,1.1,3.6c0.3,1.3,0.4,2.8,0.4,4.3
			c0,1.6-0.2,3.2-0.5,4.6c-0.3,1.5-0.7,2.8-1.2,4s-1.1,2.4-1.8,3.4c-0.7,1-1.3,1.9-2.1,2.7c-0.5,0.6-1.3,1.2-2.1,1.9
			c-0.9,0.7-1.9,1.3-3.2,2c-1.3,0.6-2.7,1.1-4.4,1.5c-1.7,0.4-3.6,0.6-5.8,0.6c-1.1,0-2.3-0.1-3.6-0.1c-1.3-0.1-2.5-0.1-3.6-0.2
			c-1.1-0.1-2.1-0.1-2.9-0.2c-0.8-0.1-1.2-0.1-1.4-0.1h-0.7c-0.4,0-0.8,0-1.4,0.1c-0.5,0-1,0-1.6,0c-0.5,0-1,0.1-1.4,0.1
			c-0.5,0-0.8-0.1-0.8-0.4l0.4-0.3l0.8-0.1l0.8-0.2c0.5-0.1,0.8-0.4,1-0.9s0.3-1.2,0.4-1.9c0.1-1.1,0.2-2.7,0.2-4.6c0-2,0-4.2,0-6.7
			L496.5,513.5z M500.8,519.1c0,1.4,0,2.7,0,4c0,1.3,0,2.4,0,3.4s0,1.9,0.1,2.6c0,0.7,0,1.2,0,1.4v1.1l0.1,1.2l0.2,1l0.3,0.7
			l0.8,0.7c0.4,0.2,0.9,0.5,1.5,0.7c0.7,0.2,1.5,0.4,2.6,0.5c1,0.1,2.3,0.2,3.8,0.2c2.4,0,4.6-0.4,6.7-1.3c2.1-0.8,3.9-2,5.5-3.6
			c0.6-0.7,1.2-1.5,1.7-2.4c0.5-0.9,0.9-2,1.3-3.1c0.4-1.1,0.6-2.2,0.8-3.4c0.2-1.2,0.3-2.4,0.3-3.6c0-1.7-0.2-3.2-0.5-4.5
			c-0.3-1.4-0.7-2.6-1.2-3.7s-1-2.1-1.6-2.9s-1.1-1.5-1.6-2.1c-1.2-1.3-2.4-2.3-3.8-3.1c-1.3-0.8-2.7-1.4-4.1-1.8s-2.8-0.7-4.3-0.8
			s-3-0.2-4.5-0.2H504l-1,0.1l-0.9,0.1l-0.5,0.1c-0.4,0.2-0.6,0.5-0.6,1s0,1.1,0,1.9s0,1.8,0,2.8s0,2.1,0,3.2s0,2.2,0,3.2v6.6H500.8
			L500.8,519.1z"/>
		<path class="st1" d="M467,531l-0.3-0.3c-0.2,0-0.4,0.3-0.5,0.8c-0.2,1.1-0.4,1.9-0.8,2.5c-0.3,0.6-0.8,1-1.5,1.3
			c-0.7,0.3-1.5,0.5-2.4,0.5c-0.9,0.1-1.8,0.1-2.5,0.1c-1.2,0-2.3-0.1-3-0.2s-1.3-0.3-1.7-0.6c-0.4-0.3-0.7-0.7-0.9-1.3
			c-0.2-0.6-0.2-1.3-0.3-2.2c0-0.3,0-0.8,0-1.6s0-1.7,0-2.6c0-0.9,0-1.8,0-2.7c0-0.2,0-2.1,0-4.8c0.3,0.1,0.6,0.3,1,0.5
			c0.7,0.4,1.5,0.5,2.4,0.5c0.4,0,0.8-0.1,1.3-0.4c0.4-0.3,0.9-0.6,1.3-1c0.4-0.4,0.8-0.8,1.1-1.2l0.6-0.9l0.2-0.7l-0.4-0.3L460,517
			l-0.3,0.4l-0.6,0.5l-0.9,0.5c-0.4,0.1-0.8,0.2-1.3,0.2c-0.4,0-0.9-0.1-1.5-0.3c-0.6-0.2-1.1-0.4-1.5-0.6l-0.8-0.4
			c0-6.9,0-16.2,0-16.2l0.3-0.5c0.1,0,0.5,0,1.2,0s1.4,0,2.2,0s1.5,0,2.2,0.1c0.7,0,1.2,0,1.4,0.1c1.4,0.2,2.3,0.4,2.7,0.7
			c0.4,0.3,0.7,0.7,0.9,1.1l0.3,1v0.8c0,0.5,0.1,0.7,0.4,0.7l0.2-0.2l0.1-0.4l0.1-0.7l0.1-1l0.1-1v-0.7c0.1-0.7,0.2-1.3,0.3-1.6
			l0.2-0.8l-0.2-0.5l-0.4,0.1l-0.4,0.2c-0.5,0.1-1.2,0.2-2.2,0.3c-0.3,0-1.1,0-2.3,0s-2.5,0-3.9,0s-2.6,0-3.7,0c-1.1,0-1.7,0-1.8,0
			l-2.1-0.1c-0.6,0-1.2-0.1-1.8-0.1s-1.3,0-1.8,0s-0.8,0.1-0.8,0.4l0.4,0.3h0.9l0.8,0.1c0.8,0.2,1.4,0.5,1.7,0.9
			c0.3,0.5,0.5,1.1,0.5,2c0,0.4,0.1,0.9,0.1,1.3c0,0.5,0,1.1,0,1.9s0,1.8,0,3.1c0,1.3,0,2.9,0,4.9v2.7l-0.5,0.1
			c-0.4,0.3-0.9,0.6-1.3,1c-0.4,0.4-0.8,0.8-1.1,1.2c-0.3,0.4-0.6,0.8-0.7,1l-0.3,0.4l-0.1,0.4l0.3,0.3l0.7-0.5l0.4-0.5l0.6-0.6
			l0.9-0.5l1-0.2v4.2c0,2.5,0,4.7,0,6.7s-0.1,3.5-0.2,4.6c-0.1,0.8-0.2,1.4-0.4,1.9s-0.5,0.8-1,0.9l-0.8,0.1l-0.8,0.1l-0.4,0.3
			c0,0.3,0.3,0.4,0.8,0.4c0.4,0,0.8,0,1.4-0.1c0.6,0,1.1,0,1.6,0s1-0.1,1.4-0.1h0.7c0.4,0,0.9,0,1.5,0s1.5,0.1,2.4,0.1
			c1,0,2.2,0.1,3.6,0.1c1.4,0,3.1,0.1,5,0.1c0.5,0,0.9,0,1.2,0l0.8-0.2l0.5-0.4l0.3-0.8c0.1-0.3,0.1-0.7,0.2-1.2
			c0.1-0.5,0.1-1.1,0.2-1.6c0.1-0.5,0.1-1,0.2-1.5c0.1-0.4,0.1-0.7,0.1-0.8L467,531z"/>
		<path class="st1" d="M610.6,531l-0.3-0.3c-0.2,0-0.4,0.3-0.5,0.8c-0.2,1.1-0.4,1.9-0.8,2.5c-0.3,0.6-0.8,1-1.5,1.3
			c-0.7,0.3-1.5,0.5-2.4,0.5c-1,0.1-1.8,0.1-2.5,0.1c-1.2,0-2.3-0.1-3-0.2c-0.7-0.1-1.3-0.3-1.8-0.6c-0.4-0.3-0.7-0.7-0.9-1.3
			c-0.2-0.6-0.2-1.3-0.3-2.2c0-0.3,0-0.8,0-1.6s0-1.7,0-2.6c0-0.9,0-1.8,0-2.7c0-0.2,0-2.1,0-4.8c0.3,0.1,0.6,0.3,1,0.5
			c0.7,0.4,1.5,0.5,2.4,0.5c0.4,0,0.8-0.1,1.3-0.4c0.4-0.3,0.9-0.6,1.3-1c0.4-0.4,0.8-0.8,1.1-1.2l0.6-0.9l0.2-0.7l-0.4-0.3
			l-0.6,0.6l-0.3,0.4l-0.6,0.5l-0.9,0.5c-0.4,0.1-0.8,0.2-1.3,0.2c-0.4,0-0.9-0.1-1.5-0.3c-0.6-0.2-1.1-0.4-1.5-0.6l-0.8-0.4
			c0-6.9,0-16.2,0-16.2l0.3-0.5c0.1,0,0.5,0,1.2,0c0.7,0,1.4,0,2.2,0c0.8,0,1.5,0,2.2,0.1c0.7,0,1.2,0,1.4,0.1
			c1.4,0.2,2.3,0.4,2.7,0.7c0.5,0.3,0.7,0.7,0.9,1.1l0.3,1v0.8c0,0.5,0.1,0.7,0.4,0.7l0.2-0.2l0.1-0.4l0.1-0.7l0.1-1l0.1-1v-0.7
			c0.1-0.7,0.2-1.3,0.3-1.6l0.2-0.8l-0.2-0.5l-0.4,0.1l-0.4,0.2c-0.5,0.1-1.2,0.2-2.2,0.3c-0.3,0-1.1,0-2.3,0c-1.2,0-2.5,0-3.9,0
			s-2.6,0-3.7,0s-1.7,0-1.8,0l-2.1-0.1c-0.6,0-1.2-0.1-1.8-0.1s-1.3,0-1.8,0s-0.8,0.1-0.8,0.4l0.4,0.3h0.9l0.8,0.1
			c0.8,0.2,1.4,0.5,1.7,0.9c0.3,0.5,0.5,1.1,0.5,2c0,0.4,0.1,0.9,0.1,1.3c0,0.5,0,1.1,0,1.9s0,1.8,0,3.1c0,1.3,0,2.9,0,4.9v2.7
			l-0.5,0.1c-0.4,0.3-0.9,0.6-1.3,1c-0.4,0.4-0.8,0.8-1.1,1.2c-0.3,0.4-0.6,0.8-0.7,1l-0.3,0.4l-0.1,0.4l0.3,0.3l0.7-0.5l0.4-0.5
			l0.6-0.6l0.9-0.5l1-0.2v4.2c0,2.5,0,4.7,0,6.7s-0.1,3.5-0.2,4.6c-0.1,0.8-0.2,1.4-0.4,1.9c-0.2,0.5-0.5,0.8-1.1,0.9l-0.8,0.1
			l-0.8,0.1l-0.4,0.3c0,0.3,0.3,0.4,0.8,0.4c0.4,0,0.8,0,1.4-0.1c0.5,0,1.1,0,1.6,0s1-0.1,1.4-0.1h0.7c0.4,0,0.9,0,1.5,0
			s1.5,0.1,2.4,0.1c1,0,2.2,0.1,3.6,0.1s3.1,0.1,5,0.1c0.5,0,0.9,0,1.2,0l0.8-0.2l0.4-0.4l0.3-0.8c0.1-0.3,0.1-0.7,0.2-1.2
			c0.1-0.5,0.1-1.1,0.2-1.6s0.1-1,0.2-1.5c0-0.4,0.1-0.7,0.1-0.8L610.6,531z"/>
		<path class="st1" d="M677.6,531l-0.3-0.3c-0.2,0-0.4,0.3-0.5,0.8c-0.2,1.1-0.4,1.9-0.8,2.5c-0.3,0.6-0.8,1-1.5,1.3
			c-0.7,0.3-1.5,0.5-2.4,0.5c-1,0.1-1.8,0.1-2.5,0.1c-1.2,0-2.3-0.1-3-0.2c-0.7-0.1-1.3-0.3-1.8-0.6c-0.4-0.3-0.7-0.7-0.9-1.3
			c-0.2-0.6-0.2-1.3-0.3-2.2c0-0.3,0-0.8,0-1.6s0-1.7,0-2.6c0-0.9,0-1.8,0-2.7c0-0.2,0-2.1,0-4.8c0.3,0.1,0.6,0.3,1,0.5
			c0.7,0.4,1.5,0.5,2.4,0.5c0.4,0,0.8-0.1,1.3-0.4c0.4-0.3,0.9-0.6,1.3-1c0.4-0.4,0.8-0.8,1.1-1.2l0.6-0.9l0.2-0.7l-0.4-0.3
			l-0.6,0.6l-0.3,0.4l-0.6,0.5l-0.9,0.5c-0.4,0.1-0.8,0.2-1.3,0.2c-0.4,0-0.9-0.1-1.5-0.3c-0.6-0.2-1.1-0.4-1.5-0.6l-0.8-0.4
			c0-6.9,0-16.2,0-16.2l0.3-0.5c0.1,0,0.5,0,1.2,0c0.7,0,1.4,0,2.2,0c0.8,0,1.5,0,2.2,0.1c0.7,0,1.2,0,1.4,0.1
			c1.4,0.2,2.3,0.4,2.7,0.7c0.4,0.3,0.7,0.7,0.9,1.1l0.3,1v0.8c0,0.5,0.1,0.7,0.4,0.7l0.2-0.2l0.1-0.4l0.1-0.7l0.1-1l0.1-1v-0.7
			c0.1-0.7,0.2-1.3,0.3-1.6l0.2-0.8l-0.2-0.5l-0.4,0.1l-0.4,0.2c-0.5,0.1-1.2,0.2-2.2,0.3c-0.3,0-1.1,0-2.3,0c-1.2,0-2.5,0-3.9,0
			s-2.6,0-3.7,0s-1.7,0-1.8,0l-2.1-0.1c-0.6,0-1.2-0.1-1.8-0.1s-1.3,0-1.8,0s-0.8,0.1-0.8,0.4l0.4,0.3h0.9l0.8,0.1
			c0.8,0.2,1.4,0.5,1.7,0.9c0.3,0.5,0.4,1.1,0.5,2c0,0.4,0.1,0.9,0.1,1.3c0,0.5,0,1.1,0,1.9s0,1.8,0,3.1c0,1.3,0,2.9,0,4.9v2.7
			l-0.5,0.1c-0.4,0.3-0.9,0.6-1.3,1c-0.4,0.4-0.8,0.8-1.1,1.2c-0.3,0.4-0.6,0.8-0.7,1l-0.3,0.4l-0.1,0.4l0.3,0.3l0.7-0.5l0.4-0.5
			l0.6-0.6l0.9-0.5l1-0.2v4.2c0,2.5,0,4.7,0,6.7s-0.1,3.5-0.2,4.6c-0.1,0.8-0.2,1.4-0.4,1.9c-0.2,0.5-0.5,0.8-1.1,0.9l-0.8,0.1
			l-0.8,0.1l-0.4,0.3c0,0.3,0.3,0.4,0.8,0.4c0.4,0,0.8,0,1.4-0.1c0.5,0,1.1,0,1.6,0s1-0.1,1.4-0.1h0.7c0.4,0,0.9,0,1.5,0
			c0.7,0,1.5,0.1,2.4,0.1c1,0,2.2,0.1,3.6,0.1s3.1,0.1,5,0.1c0.5,0,0.9,0,1.2,0l0.8-0.2l0.4-0.4l0.3-0.8c0.1-0.3,0.1-0.7,0.2-1.2
			c0.1-0.5,0.1-1.1,0.2-1.6s0.1-1,0.2-1.5c0.1-0.4,0.1-0.7,0.1-0.8L677.6,531z"/>
		<path class="st1" d="M501.8,520.4c-0.7-0.4-1.3-0.6-1.7-0.8c-0.5-0.2-1-0.5-1.5-0.8s-1.2-0.4-2-0.4c-0.4,0-0.8,0.1-1.2,0.2
			l-0.9,0.5l-0.6,0.6l-0.4,0.5l-0.7,0.5l-0.3-0.3l0.1-0.4l0.3-0.4c0.2-0.3,0.4-0.6,0.7-1c0.3-0.4,0.7-0.8,1.1-1.2
			c0.4-0.4,0.8-0.7,1.3-1s0.9-0.4,1.3-0.4c0.6,0,1.3,0.2,2,0.5c0.7,0.3,1.5,0.7,2.3,1.1c0.4,0.2,0.9,0.4,1.5,0.6s1.1,0.3,1.5,0.3
			c0.5,0,0.9-0.1,1.3-0.2l0.9-0.5l0.6-0.5l0.3-0.4l0.6-0.6l0.4,0.3l-0.2,0.7l-0.6,0.9c-0.3,0.4-0.7,0.8-1.1,1.2
			c-0.4,0.4-0.8,0.7-1.3,1c-0.4,0.3-0.9,0.4-1.3,0.4C503.3,520.9,502.5,520.8,501.8,520.4"/>
		<path class="st1" d="M310,537.1l-0.9-0.1l-1.1-0.3l-0.9-0.4c-0.3-0.2-0.7-0.5-1-0.9c-0.4-0.4-0.8-1-1.2-1.7
			c-0.4-0.7-0.9-1.7-1.3-2.8c-0.5-1.3-1.1-3-1.9-5s-1.6-4.1-2.4-6.3c-0.8-2.2-1.7-4.4-2.5-6.7c-0.9-2.3-1.6-4.3-2.3-6.2
			c-0.7-1.9-1.3-3.5-1.8-4.8c-0.5-1.3-0.8-2.1-0.9-2.4c-0.3-0.8-0.5-1.3-0.7-1.5l-0.5-0.3l-0.5,0.4c-0.1,0.2-0.4,0.8-0.7,1.7
			l-11.6,32.3c-0.5,1.3-1,2.4-1.6,3.3c-0.6,0.9-1.5,1.4-2.7,1.6l-0.8,0.1H272l-0.4,0.3c0,0.3,0.3,0.4,1,0.4c0.6,0,1.2,0,1.8,0
			c0.6,0,1.2,0,1.7-0.1c0.5,0,1,0,1.4-0.1h0.8h0.7l1.1,0.1c0.4,0,0.8,0,1.2,0.1c0.4,0,0.8,0,1.1,0c0.5,0,0.8-0.1,0.8-0.4l-0.5-0.3
			h-0.5c-0.4,0-0.9-0.1-1.3-0.4c-0.4-0.2-0.6-0.6-0.6-1.1c0-1,0.2-2.1,0.7-3.5l1.4-4.2l1.6-4.8l0.5-0.5l0.9-0.5
			c0.4-0.2,0.7-0.2,1.2-0.2c0.8,0,1.4,0.1,2,0.4c0.5,0.3,1,0.6,1.5,0.8c0.4,0.2,0.9,0.4,1.7,0.8c0.7,0.4,1.5,0.5,2.4,0.5
			c0.4,0,0.8-0.1,1.3-0.4l0.9-0.7l1.7,4.7l2.9,7.7c0.2,0.4,0.2,0.7,0.1,1l-0.4,0.4l-0.4,0.4l0.4,0.3c0.3,0,0.6,0,1.1,0.1
			c0.9,0,1.8,0.1,2.6,0.1c0.9,0,1.7,0,2.4,0c0.7,0,1.4,0,1.9,0c0.6,0,0.9,0,1.1,0l0.7-0.1l0.3-0.4L310,537.1z M294.3,521.8
			c-0.4,0-0.9-0.1-1.5-0.3s-1.1-0.4-1.5-0.6c-0.8-0.4-1.5-0.7-2.3-1.1c-0.7-0.3-1.4-0.5-2-0.5c-0.4,0-0.8,0.2-1.3,0.4l-1.1,0.9
			l2.8-8.5l1.9-6.1c0.2-0.8,0.5-0.8,0.8,0l2.5,7.1l3,8.4C295.2,521.7,294.7,521.8,294.3,521.8z"/>
		<path class="st1" d="M566.1,522.6c0,7.5,0.1,10.5,1,11.4c0.8,0.8,2.8,1.2,6.9,1.2c2.7,0,5-0.1,6.2-1.6c0.6-0.8,1.1-1.9,1.2-2.9
			l0.5-0.7c0.2,0,0.4,0.2,0.4,0.8c0,0.5-0.4,3.6-0.8,5.1c-0.3,1.2-0.5,1.4-3.3,1.4c-3.7,0-6.5-0.1-9-0.2c-2.3-0.1-4.1-0.1-5.6-0.1
			c-0.2,0-1.1,0-2.1,0.1c-1.1,0.1-2.2,0.1-3,0.1c-0.5,0-0.8-0.1-0.8-0.4l0.4-0.4c0.5,0,1.1-0.1,1.6-0.2c1-0.2,1.1-1.2,1.3-2.7
			c0.3-2.1,0.3-6.1,0.3-11v-9c0-7.9,0-9.3-0.1-10.9c-0.1-1.7-0.4-2.6-2.1-2.8c-0.4-0.1-1.3-0.1-1.8-0.1l-0.4-0.4
			c0-0.3,0.2-0.4,0.8-0.4c2.3,0,5.6,0.1,5.8,0.1c0.2,0,4.1-0.1,5.7-0.1c0.5,0,0.8,0.1,0.8,0.4l-0.4,0.4c-0.3,0-1.1,0.1-1.7,0.1
			c-1.5,0.3-1.8,1.1-1.9,2.9c-0.1,1.6-0.1,3.1-0.1,10.9L566.1,522.6z"/>
		<path class="st1" d="M629.8,524c0-2.7-0.3-3.8-1.1-5.2c-0.4-0.8-7.4-12.1-9.1-14.8c-1.2-1.9-2.5-3.1-3.4-3.7
			c-0.8-0.5-1.8-0.7-2.2-0.7l-0.5-0.5c0-0.2,0.2-0.4,0.6-0.4c1,0,4.9,0.1,5.1,0.1c0.4,0,2.5-0.1,4.5-0.1c0.6,0,0.7,0.1,0.7,0.4
			c0,0.2-0.4,0.4-0.8,0.5c-0.4,0.2-0.6,0.4-0.6,0.8c0,0.7,0.3,1.3,0.7,2l9.4,15.8c1.1-2.2,7.5-13,8.4-14.7c0.6-1.1,0.9-2,0.9-2.6
			c0-0.7-0.2-1.1-0.8-1.3c-0.5-0.1-0.8-0.4-0.8-0.6c0-0.2,0.3-0.3,0.8-0.3c1.3,0,3.2,0.1,3.6,0.1c0.4,0,4-0.1,5-0.1l0.6,0.3
			c0,0.2-0.2,0.5-0.6,0.5c-0.6,0-1.6,0.2-2.4,0.7c-1,0.6-1.5,1.1-2.6,2.5c-1.7,2-9,14-10,16.1c-0.9,1.8-0.6,3.4-0.6,5.1v4.4
			c0,0.8,0,3,0.2,5.1c0.1,1.5,0.5,2.5,2,2.7c0.7,0.1,1.9,0.2,2.3,0.2l0.4,0.4c0,0.2-0.3,0.4-0.8,0.4c-2.9,0-6.2-0.2-6.5-0.2
			c-0.2,0-3.5,0.2-5,0.2c-0.6,0-0.8-0.1-0.8-0.4l0.4-0.4c0.5,0,1-0.1,1.5-0.2c1-0.2,1.4-1.2,1.5-2.7c0.1-2.1,0.1-4.3,0.1-5.1V524
			H629.8z"/>
		<path class="st1" d="M687.9,530.3c0.1,4.2,0.6,5.4,2,5.8c0.9,0.2,2.1,0.3,2.6,0.3l0.4,0.4c0,0.3-0.4,0.4-0.9,0.4
			c-2.9,0-5-0.2-5.4-0.2c-0.5,0-2.6,0.2-5,0.2c-0.5,0-0.8-0.1-0.8-0.4l0.4-0.4c0.4,0,1.4-0.1,2.1-0.3c1.3-0.4,1.5-1.7,1.5-6.3v-29.1
			c0-2,0.3-2.6,0.7-2.6c0.6,0,1.5,1,2,1.6c0.8,0.8,8.3,9,16.3,17.3c5.1,5.4,10.6,11.4,12.2,13.1l-0.5-25.5c-0.1-3.3-0.4-4.4-1.9-4.7
			c-0.9-0.2-2.1-0.2-2.5-0.2l-0.4-0.5c0-0.3,0.4-0.4,1-0.4c2.3,0,4.8,0.1,5.4,0.1c0.6,0,2.3-0.1,4.4-0.1c0.5,0,0.9,0.1,0.9,0.4
			l-0.6,0.5c-0.2,0-0.6,0-1.2,0.1c-1.7,0.4-1.8,1.4-1.8,4.4l-0.1,29.8c0,3.3-0.1,3.6-0.4,3.6c-0.5,0-1.1-0.4-3.9-3.1
			c-0.5-0.5-8-8-13.4-13.7c-6-6.4-11.8-12.6-13.3-14.4L687.9,530.3z"/>
		<path class="st1" d="M731.6,513.5c0-7.9,0-9.3-0.1-10.9c-0.1-1.7-0.4-2.6-2.1-2.8c-0.4-0.1-1.3-0.1-1.8-0.1l-0.4-0.4
			c0-0.3,0.2-0.4,0.8-0.4c2.3,0,5.7,0.1,6,0.1c0.6,0,3.9-0.1,6.9-0.1c5.2,0,14.6-0.5,20.7,5.8c2.6,2.6,5,6.9,5,12.9
			c0,6.4-2.7,11.3-5.6,14.3c-2.2,2.3-6.9,5.9-15.6,5.9c-2.2,0-5-0.2-7.2-0.3c-2.2-0.2-4-0.3-4.2-0.3c-0.1,0-1.1,0.1-2.1,0.1
			c-1.1,0.1-2.3,0.1-3.1,0.1c-0.5,0-0.8-0.1-0.8-0.4l0.4-0.4c0.5,0,1.1-0.1,1.6-0.2c1-0.2,1.1-1.2,1.4-2.7c0.3-2.1,0.3-6.1,0.3-11
			L731.6,513.5z M736.3,519c0,5.4,0,10.1,0.1,11.1c0.1,1.3,0.2,3.1,0.6,3.6c0.6,1,2.5,2,8.5,2c4.7,0,9-1.6,12.1-4.6
			c2.7-2.6,4-7.4,4-12.1c0-6.5-2.7-10.6-4.9-12.7c-4.9-5-10.5-5.7-16.7-5.7c-1,0-2.6,0.2-3.1,0.4c-0.5,0.2-0.6,0.4-0.6,1L736.3,519
			L736.3,519z"/>
		<path class="st1" d="M805,536.9l-0.9-0.1l-1.1-0.3l-0.9-0.4c-0.3-0.2-0.7-0.5-1-0.9c-0.4-0.4-0.8-1-1.2-1.7s-0.9-1.7-1.3-2.8
			c-0.5-1.3-1.1-3-1.9-5c-0.8-2-1.6-4.1-2.4-6.3c-0.8-2.2-1.7-4.4-2.5-6.7c-0.9-2.3-1.6-4.3-2.3-6.2c-0.7-1.9-1.3-3.5-1.8-4.8
			c-0.5-1.3-0.8-2.1-0.9-2.4c-0.3-0.8-0.5-1.3-0.7-1.5l-0.5-0.3l-0.5,0.4c-0.1,0.2-0.4,0.8-0.7,1.7l-11.6,32.3
			c-0.5,1.3-1,2.4-1.6,3.3c-0.6,0.9-1.5,1.4-2.7,1.6l-0.8,0.1H767l-0.5,0.3c0,0.3,0.3,0.4,1,0.4c0.6,0,1.2,0,1.8,0s1.2,0,1.7,0
			s1,0,1.4-0.1h0.8h0.7l1.1,0.1c0.4,0,0.8,0,1.2,0s0.8,0,1.1,0c0.5,0,0.8-0.1,0.8-0.4l-0.5-0.3h-0.5c-0.4,0-0.9-0.1-1.3-0.4
			c-0.4-0.2-0.6-0.6-0.6-1.1c0-1,0.2-2.1,0.7-3.5l1.4-4.2l1.6-4.8l0.5-0.5l0.9-0.5c0.4-0.2,0.8-0.2,1.2-0.2c0.8,0,1.4,0.1,2,0.4
			c0.5,0.3,1,0.6,1.5,0.8c0.4,0.2,0.9,0.4,1.7,0.8c0.7,0.4,1.5,0.5,2.4,0.5c0.4,0,0.8-0.1,1.3-0.4l0.9-0.7l1.7,4.7l2.9,7.7
			c0.2,0.4,0.2,0.7,0.1,1l-0.4,0.4l-0.4,0.4l0.4,0.3c0.3,0,0.6,0,1.1,0.1c0.9,0,1.8,0.1,2.6,0.1c0.9,0,1.7,0,2.4,0
			c0.7,0,1.4,0,1.9,0s0.9,0,1.1,0l0.7-0.1l0.3-0.4L805,536.9z M789.2,521.6c-0.4,0-0.9-0.1-1.5-0.3s-1.1-0.4-1.4-0.6
			c-0.8-0.4-1.5-0.7-2.3-1.1c-0.7-0.4-1.4-0.5-2-0.5c-0.4,0-0.8,0.1-1.3,0.4l-1.1,0.9l2.8-8.5l1.9-6.1c0.2-0.8,0.5-0.8,0.8,0
			l2.5,7.1l3,8.4C790.1,521.5,789.7,521.6,789.2,521.6z"/>
		<path class="st2" d="M468.6,391.4c1.6-4.7,4.1-9,7.4-13c3.3-4,7.6-7.3,12.8-9.9s11.3-3.9,18.5-3.9c5.8,0,11.2,0.9,16.2,2.6
			c5,1.8,9.3,4.3,13,7.6c3.6,3.3,6.5,7.4,8.6,12.1c2.1,4.7,3.1,10.1,3.1,16c0,5.7-1,11.1-3,16.2s-4.8,9.5-8.4,13.3
			c-3.6,3.8-8,6.8-13.1,9c-5.1,2.2-10.8,3.3-17,3.3c-7.1,0-13.1-1.2-18.2-3.7c-5.1-2.4-9.3-5.6-12.6-9.5c-3.3-3.9-5.7-8.2-7.3-13
			c-1.6-4.8-2.4-9.4-2.4-14C466.2,400.5,467,396.1,468.6,391.4 M518.2,405.9h-0.3l0.1-0.1c-0.7-0.9-2.8-1.2-4.1-2l-1-1.1l-0.1-0.6
			l-0.3,0.1c-2.5-3-4.1-6.9-4.1-6.9s-0.1,0.3-0.4,0.8c-0.4-0.2-0.8,0.1-1.6,1.5c-0.4,0.7-0.7,1.8-1.1,2.4c-0.6,0.9-1.6,0.9-2.1,1.7
			c-0.5,0.6-0.4,1.8-0.9,2.5l-1,0.7c-0.8,0.3-1.7,0.6-2.4,0.9l0,0l2.3-1.9c-1.4,0.8-3,1.6-3.1,2.6c0.9,0.3,2.3,0.9,3.1,1.4
			c1.1,0.6,1.6,2,3,1.4c-0.2,1.2,0.9,2.7,1.7,3.6c0.6,0.7,1.3,0.7,1.9,1.6c0.3,0.5,0.4,1.1,0.6,1.7v0.3v-0.2l0.2,0.4
			c0.4-1.3,1-2.4,1.8-3.5l0.8-1.4l0.3-0.8l-0.2-0.8c0.5-0.6,0.9-0.2,1.1-0.4c0.5-0.4,1-1.1,1.5-1.5c1.2-0.9,2.7-1.1,3.7-2.3
			L518.2,405.9z M479.4,417.9c1.6,4.8,3.9,8.8,6.9,12.2c2.9,3.4,6.4,5.9,10.3,7.8c4,1.8,8.3,2.7,13,2.7c2.4,0,5.1-0.4,8.3-1.3
			c3.2-0.8,6.2-2.5,9.2-5c2.9-2.5,5.4-6,7.5-10.5c2-4.5,3.1-10.5,3.1-17.9c0-6.1-0.9-11.5-2.5-16.2c-1.7-4.7-4-8.6-6.8-11.7
			c-2.9-3.1-6.2-5.5-9.9-7.1c-3.7-1.6-7.6-2.4-11.7-2.4c-4.3,0-8.3,0.7-11.9,2.1c-3.6,1.4-6.8,3.5-9.4,6.3
			c-2.6,2.8-4.7,6.2-6.2,10.4c-1.5,4.2-2.2,9-2.2,14.5C476.9,407.8,477.7,413.1,479.4,417.9z"/>
		<path class="st1" d="M511.7,404.2l-1.3,1.1C511,404.9,511.5,404.6,511.7,404.2"/>
	</g>
</g>
</svg>
