<?xml version="1.0" encoding="utf-8"?>
<!-- Generator: Adobe Illustrator 22.0.1, SVG Export Plug-In . SVG Version: 6.00 Build 0)  -->
<svg version="1.1" id="Capa_1" xmlns="http://www.w3.org/2000/svg" xmlns:xlink="http://www.w3.org/1999/xlink" x="0px" y="0px"
	 viewBox="0 0 1031 252" style="enable-background:new 0 0 1031 252;" xml:space="preserve">
<style type="text/css">
	.st0{fill-rule:evenodd;clip-rule:evenodd;fill:#FFFFFF;}
	.st1{clip-path:url(#SVGID_2_);fill:url(#SVGID_3_);}
	.st2{fill-rule:evenodd;clip-rule:evenodd;fill:#C9292C;}
</style>
<g>
	<path class="st0" d="M715.2,65.8V53.8h5.4c1.1,0,1.9,0.1,2.5,0.3c0.6,0.2,1,0.6,1.3,1.2c0.3,0.5,0.5,1.2,0.5,1.8
		c0,0.9-0.3,1.6-0.8,2.2c-0.6,0.6-1.4,1-2.6,1.1c0.4,0.2,0.7,0.4,1,0.6c0.5,0.4,0.9,1,1.3,1.6l2.1,3.3h-2l-1.6-2.5
		c-0.5-0.7-0.9-1.3-1.2-1.7l-0.8-0.8l-0.7-0.3c-0.2,0-0.5-0.1-0.9-0.1h-1.9v5.4H715.2z M716.8,59.1h3.4c0.7,0,1.3-0.1,1.7-0.2
		c0.4-0.2,0.7-0.4,0.9-0.7l0.3-1.1c0-0.6-0.2-1-0.6-1.4c-0.4-0.4-1.1-0.6-2-0.6l-3.8,0V59.1z"/>
	<path class="st0" d="M719.9,48.2c-6.2,0-11.3,5.1-11.3,11.3c0,6.2,5,11.3,11.3,11.3c6.2,0,11.3-5.1,11.3-11.3
		C731.2,53.3,726.1,48.2,719.9,48.2 M719.9,69c-5.3,0-9.5-4.3-9.5-9.5c0-5.3,4.3-9.5,9.5-9.5c5.3,0,9.5,4.3,9.5,9.5
		C729.4,64.8,725.1,69,719.9,69z"/>
	<g>
		<defs>
			<path id="SVGID_1_" d="M130.6,81.3L130.6,81.3L130.6,81.3L130.6,81.3L130.6,81.3L130.6,81.3L130.6,81.3L130.6,81.3L130.6,81.3
				L130.6,81.3L130.6,81.3L130.6,81.3L130.6,81.3L130.6,81.3L130.6,81.3L130.6,81.3L130.6,81.3L130.6,81.3L130.6,81.3L130.6,81.3
				L130.6,81.3L130.6,81.3L130.6,81.3L130.6,81.3L130.6,81.3L130.6,81.3L130.6,81.3L130.6,81.3L130.6,81.3L130.6,81.3L130.6,81.3
				L130.6,81.3L130.6,81.3L130.6,81.3L130.6,81.3L130.6,81.3L130.6,81.3L130.6,81.3L130.6,81.3L130.6,81.3L130.6,81.3L130.6,81.3
				L130.6,81.3L130.6,81.3L130.6,81.3L130.6,81.3L130.6,81.3L130.6,81.3L130.6,81.3L130.6,81.3L130.6,81.3L130.6,81.3L130.6,81.3
				L130.6,81.3L130.6,81.3L130.6,81.3L130.6,81.3L130.6,81.3L130.6,81.3L130.6,81.3L130.6,81.3L130.6,81.3L130.6,81.3L130.6,81.3
				l0.1-0.1l0,0l0,0l0,0l0,0l0,0l0,0l0,0h0l0,0h0l0,0h0l0,0l0,0l0,0l0,0l0,0l0,0l0,0L130.6,81.3L130.6,81.3L130.6,81.3L130.6,81.3
				L130.6,81.3L130.6,81.3L130.6,81.3L130.6,81.3L130.6,81.3L130.6,81.3L130.6,81.3L130.6,81.3L130.6,81.3L130.6,81.3L130.6,81.3
				L130.6,81.3z M120.4,172.2L120.4,172.2C120.6,172.1,120.3,172.1,120.4,172.2C120.4,172.2,120.4,172.2,120.4,172.2z M213.9,100.2
				L213.9,100.2C214.2,100,213.8,99.9,213.9,100.2C214,100.2,213.9,100.1,213.9,100.2z M195,113.6L195,113.6
				C195.2,113.5,194.7,113.3,195,113.6C195.1,113.6,195,113.6,195,113.6z M112.9,49.3L112.9,49.3C112.7,49,112.8,49.5,112.9,49.3
				C112.9,49.3,112.9,49.3,112.9,49.3z M214.2,189.3L214.2,189.3C214.5,189.5,214.4,189,214.2,189.3
				C214.3,189.4,214.3,189.3,214.2,189.3z M226.2,226.5L226.2,226.5L226.2,226.5L226.2,226.5L226.2,226.5L226.2,226.5L226.2,226.5
				L226.2,226.5L226.2,226.5L226.2,226.5L226.2,226.5L226.2,226.5L226.2,226.5L226.2,226.5L226.2,226.5L226.2,226.5L226.2,226.5
				L226.2,226.5L226.2,226.5L226.2,226.5L226.2,226.5L226.2,226.5L226.2,226.5L226.2,226.5L226.2,226.5L226.2,226.5L226.2,226.5
				L226.2,226.5L226.2,226.5L226.2,226.5L226.2,226.5L226.2,226.5L226.2,226.5L226.2,226.5L226.2,226.5L226.2,226.5L226.2,226.5
				L226.2,226.5L226.2,226.5L226.2,226.5L226.2,226.5L226.2,226.5L226.2,226.5L226.2,226.5l0.1-0.1l0,0l0,0l0,0v0v0v0l0,0l0,0l0,0
				l0,0l0,0l0,0l0,0l0,0l0,0l0,0l0,0l0,0l0,0l0,0l0,0h0l0,0l0,0l0,0l0,0l0,0l0,0l0,0l0,0l0,0l0,0l0,0l0,0l0,0l0,0l0,0l0,0l0,0l0,0
				l0,0v0l0,0l0,0l0,0L226.2,226.5L226.2,226.5L226.2,226.5L226.2,226.5L226.2,226.5L226.2,226.5L226.2,226.5L226.2,226.5
				L226.2,226.5L226.2,226.5z M239.5,50.6L239.5,50.6C239.3,50.3,239.1,50.8,239.5,50.6C239.4,50.5,239.4,50.6,239.5,50.6z
				 M74.1,18.3L74.1,18.3C73.9,17.9,73.5,18.5,74.1,18.3C74.1,18.2,74,18.3,74.1,18.3z M69,231L69,231L69,231L69,231L69,231L69,231
				L69,231L69,231L69,231L69,231L69,231L69,231L69,231L69,231L69,231L69,231L69,231L69,231L69,231L69,231L69,231L69,231L69,231
				L69,231L69,231L69,231L69,231L69,231L69,231L69,231L69,231L69,231L69,231L69,231L69,231L69,231L69,231L69,231L69,231L69,231
				L69,231L69,231L69,231L69,231L69,231L69,231L69,231L69,231L69,231L69,231L69,231L69,231L69,231L69,231L69,231L69,231L69,231
				L69,231L69,231L69,231L69,231L69,231L69,231L69,231L69,231L69,231L69,231L69,231L69,231L69,231L69,231L69,231L69,231L69,231
				L69,231l0.1-0.1l0,0l0,0l0,0l0,0l0,0l0,0l0,0l0,0l0,0l0,0l0,0l0,0l0,0l0,0l0,0l0,0l0,0l0,0l0,0l0,0l0,0l0,0l0,0l0,0l0,0l0,0l0,0
				h0l0,0l0,0l0,0l0,0l0,0l0,0l0,0l0,0l0,0l0,0l0,0l0,0l0,0l0,0v0l0,0l0,0l0,0l0,0l0,0l0,0l0,0l0,0l0,0L69,231L69,231L69,231L69,231
				L69,231z M187,201.2L187,201.2C187.5,200.8,186.9,200.6,187,201.2C187.2,201.1,187,201.1,187,201.2z M125.7,68.2L125.7,68.2
				C125.3,68.5,125.9,68.8,125.7,68.2C125.6,68.2,125.8,68.3,125.7,68.2z M241.1,191.5L241.1,191.5
				C241.4,190.8,240.9,190.7,241.1,191.5C241.2,191.3,241,191.2,241.1,191.5z M173.3,192.3L173.3,192.3
				C173.8,191.6,173.1,191.7,173.3,192.3C173.5,192,173.3,192.1,173.3,192.3z M200.8,116.6L200.8,116.6
				C201.2,116.2,200.4,116.1,200.8,116.6C200.9,116.5,200.8,116.5,200.8,116.6z M132.6,174.3L132.6,174.3
				C133,174.7,133.1,174,132.6,174.3C132.7,174.4,132.7,174.2,132.6,174.3z M213.2,143.4L213.2,143.4
				C213.7,143.8,213.9,142.9,213.2,143.4C213.4,143.5,213.4,143.3,213.2,143.4z M207.6,102.2L207.6,102.2c0.1,0.3,0.3,0.3,0.6,0
				C208.1,101.9,207.9,101.9,207.6,102.2C207.7,102.3,207.8,102.1,207.6,102.2z M164.5,150.9L164.5,150.9
				C165.1,151.4,165,150.3,164.5,150.9C164.6,151,164.6,150.8,164.5,150.9z M37.2,31.3L37.2,31.3c-0.1,0.5,0.1,0.6,0.8,0.3
				C38.1,31.2,37.9,31.1,37.2,31.3C37.2,31.4,37.5,31.3,37.2,31.3z M103,30.7L103,30.7C102.1,30.2,102.5,31.3,103,30.7
				C102.9,30.6,102.9,30.8,103,30.7z M184.9,153.2L184.9,153.2C184.4,154.1,185.4,153.7,184.9,153.2
				C184.8,153.4,185,153.3,184.9,153.2z M126.6,79.5L126.6,79.5c0-0.6-0.4-0.3-0.7,0C125.9,79.8,126.2,79.8,126.6,79.5
				C126.6,79.4,126.4,79.5,126.6,79.5z M131,174.4L131,174.4c0.3-0.6-0.4-1-0.7-0.4C130.5,174.1,130.7,174.3,131,174.4
				C131,174.3,130.7,174.3,131,174.4z M190.5,172.7L190.5,172.7c-0.5,0.2-0.5,0.5,0.1,0.9C191.1,173.4,191,173.1,190.5,172.7
				C190.4,172.8,190.6,172.9,190.5,172.7z M211.8,101L211.8,101c-0.1-0.7-0.5-0.6-1.1,0.2C210.9,101.8,211.2,101.7,211.8,101
				C211.8,100.9,211.5,101.2,211.8,101z M83.7,230.9L83.7,230.9c0.5,0.2,0.7,0,0.5-0.7C83.6,230,83.5,230.2,83.7,230.9
				C83.8,230.9,83.7,230.7,83.7,230.9z M82.9,197.9L82.9,197.9c0.6,0.4,0.8,0,0.9-1.1C83.2,196.4,82.9,196.8,82.9,197.9
				C83,197.9,83.1,197.5,82.9,197.9z M226.9,188.6L226.9,188.6c0.6-0.3,0.5-0.7-0.3-1.2C226,187.7,226.1,188.1,226.9,188.6
				C227,188.6,226.7,188.3,226.9,188.6z M52.2,222.5L52.2,222.5c0.6-0.2,0.6-0.6-0.2-1.2C51.4,221.5,51.5,221.9,52.2,222.5
				C52.3,222.4,52,222.2,52.2,222.5z M214.4,153.1L214.4,153.1c-0.6,0-0.7,0.4-0.2,1.3C214.8,154.5,214.9,154.1,214.4,153.1
				C214.3,153.1,214.4,153.6,214.4,153.1z M206.9,129.8L206.9,129.8c0.6-0.5,0.6-0.8,0.1-1.1C206.4,129,206.3,129.3,206.9,129.8
				C207.1,129.5,206.7,129.5,206.9,129.8z M189.4,171.9L189.4,171.9c0.6,0.2,0.8-0.1,0.5-0.9C189.4,170.8,189.2,171.1,189.4,171.9
				C189.6,171.9,189.5,171.6,189.4,171.9z M158.7,145.5L158.7,145.5c-0.2-0.7-0.6-0.7-1.2,0C157.6,146.1,158,146.1,158.7,145.5
				C158.6,145.3,158.3,145.6,158.7,145.5z M113.3,162.2L113.3,162.2c-1-0.4-1.2-0.4-1.4,0.4C112.4,162.5,112.8,162.4,113.3,162.2z
				 M157.3,146.5L157.3,146.5c-0.6-0.8-1.2-0.7-1.9,0.4C156,147.5,156.6,147.3,157.3,146.5C156.9,146.1,156.7,146.8,157.3,146.5z
				 M168.5,190.5L168.5,190.5c0.8,0.5,1.6,1.1,2.6,1.7C170.8,191.2,169.8,190.4,168.5,190.5z M90.4,22.4L90.4,22.4
				c1.6-0.6-0.8-1.7-1.2-1.9C88.5,21.3,88.9,21.9,90.4,22.4C90.6,22.3,89.9,21.9,90.4,22.4z M201.2,115.4L201.2,115.4
				c0.9-1-0.8-2.6-1.4-1.8C199.5,114.5,200,115.1,201.2,115.4C201.4,115.2,200.7,115,201.2,115.4z M234.7,191.8L234.7,191.8
				c0.4-1-3.1-2-4-1.6C231.7,191.2,233.4,191.4,234.7,191.8C234.8,191.6,234,191.6,234.7,191.8z M86.8,20.4L86.8,20.4
				C81.5,17.7,84.8,22.4,86.8,20.4C86,20,86.1,21.1,86.8,20.4z M224,186.4L224,186.4c0.1-0.2-4.5-3.8-5.1-4.4
				C217.8,183.3,223,186,224,186.4C224.1,186.3,221.8,185.5,224,186.4z M146.5,151.3L146.5,151.3c2.1,0,3.1-2,5.2-1.4
				C150.7,148.2,147.7,149.4,146.5,151.3C147.4,151.2,147.5,149.6,146.5,151.3z M40,31.3L40,31.3c0.1,1.1,6.4,1.1,7.4,0.7
				C47.3,30.8,41.1,31.2,40,31.3C40,31.4,40.7,31.3,40,31.3z M189.7,128.9L189.7,128.9c0.9-0.9-2.5-4.5-4.4-3.7
				C186.6,126.7,188.2,127.7,189.7,128.9C189.8,128.8,189.5,128.7,189.7,128.9z M58.3,20.4L58.3,20.4c-0.9-1.4-0.7-2.7-2.2-1.2
				c0.1-1.1-0.4-1.3-1.5-0.7C53.9,21,57,20.7,58.3,20.4C57.8,19.8,57.4,20.6,58.3,20.4z M189,204.3L189,204.3
				c1.5-0.1,3.5,1.8,4.8,2.5c0.5-0.8-4.6-4.7-5.5-5.5C187,202.7,188.2,202.9,189,204.3C190,204.2,188.8,203.9,189,204.3z
				 M202.5,115.5L202.5,115.5c-2.2,3.7,1.5,9.2,3.7,12.9c1.3-1.6-0.6-5.4-1.5-7C203.4,119,203,118.1,202.5,115.5
				C202,116.4,202.6,116.1,202.5,115.5z M201.6,125.8L201.6,125.8c1.2-2.6-3.4-7.2-4.5-9.4c-0.4-0.8-5.5-4.9-5.1-3.2
				c0.5,2.3,3.3,3.8,5,5.4C199.4,120.9,199.6,123.7,201.6,125.8C202.2,124.6,200.7,124.9,201.6,125.8z M108.6,174.4L108.6,174.4
				c-0.1,1.5,8.6-0.1,9.9-0.1c1.9,0,9.6,0.7,10.9-0.9c-2.6-1.1-5.3-1.3-8.1-1.3c-0.2,0.5,0.1,0.8,0.9,0.9
				C117.6,173,112.8,172.6,108.6,174.4C108.5,174.6,112.9,172.6,108.6,174.4z M24.2,77.5L24.2,77.5C24.1,77.7,24.3,77.6,24.2,77.5
				C24.2,77.5,24.2,77.5,24.2,77.5z M92,94.8L92,94.8L92,94.8L92,94.8L92,94.8L92,94.8L92,94.8L92,94.8L92,94.8L92,94.8L92,94.8
				L92,94.8L92,94.8L92,94.8L92,94.8L92,94.8L92,94.8L92,94.8L92,94.8L92,94.8L92,94.8L92,94.8L92,94.8L92,94.8L92,94.8L92,94.8
				L92,94.8L92,94.8L92,94.8L92,94.8L92,94.8L92,94.8L92,94.8L92,94.8L92,94.8L92,94.8L92,94.8L92,94.8l0-0.1l0,0l0,0l0,0l0,0h0l0,0
				h0h0l0,0l0,0l0,0l0,0l0,0L92,94.8L92,94.8L92,94.8L92,94.8L92,94.8L92,94.8L92,94.8L92,94.8L92,94.8L92,94.8L92,94.8L92,94.8
				L92,94.8L92,94.8L92,94.8L92,94.8L92,94.8L92,94.8L92,94.8L92,94.8L92,94.8L92,94.8L92,94.8L92,94.8L92,94.8L92,94.8L92,94.8
				L92,94.8L92,94.8L92,94.8z M35.1,100.2L35.1,100.2c-0.1-0.6-0.4-0.6-0.9,0C34.2,100.6,34.6,100.6,35.1,100.2
				C35.1,100.1,34.8,100.3,35.1,100.2z M26.6,82.9L26.6,82.9c-1.1,2.4,0.3,1.9,2,0.5C28.3,82.7,27.6,82.5,26.6,82.9
				C26.4,83.2,27.3,83,26.6,82.9z M61.1,97.9L61.1,97.9c0.2-1.2-4.6-1.5-5.4-1.1C56.9,98.2,59.3,97.8,61.1,97.9
				C61.1,97.8,60.6,97.9,61.1,97.9z M24.4,82.5L24.4,82.5c1.7-0.6,1.6-2.3,1.3-3.8c-0.1-0.6-2.7-0.5-0.5,1.1
				C24.1,80.3,23.8,81.2,24.4,82.5C25.4,82.2,24.4,81.8,24.4,82.5z M45.8,97.2L45.8,97.2c0-1.4-9.1,1.9-10,2.2
				C36,100.3,44.5,97.6,45.8,97.2C45.8,97.1,42.5,98.1,45.8,97.2z M47.1,101.6L47.1,101.6c-3.7-0.7-17.8,5.8-19.3,8.7
				C34.4,107.3,40.8,104.5,47.1,101.6z M23.8,91.5c2.5,1,0.5,10.1,0.3,12.1c1.5,0.9,9.4-6,11.4-6.2c2-0.3,4.1-1.6,6.1-2.2
				c2.7-0.7,5.7-0.8,8.5-1c4.9-0.5,9.4-0.1,14.1,1.7c1.2,0.5,5.9,2.2,6.1,3.7c0.2,1.4-1.5,3.2-2.9,2.8c-10.6-3-19.6-0.2-29.1,4.6
				c-4.4,2.2-8.9,4.1-12.8,6.9c-0.5,0.3-3.2,0.5-3.2,0.7c-0.4,1.4-1.7,3.2-2.3,4.6c-3.3-3.9,6.1-9.7,3.9-12.7
				c-1.6-2.1-0.3-5.1-0.3-7.5c0-3.1,0.1-6.8-0.3-9.9c-1,1-2,1-2.9,0.2c3.4-3.3,3-6.1,3.2-10.7c0-1.2-0.1-2.6,0.3-3.8
				c1.5-0.1,2.2-2.2,0.1-1.1c0-1.3,0.7-6.1-0.7-5.8c-2.6,0.5,1-3.2,1-4c-0.2-3.3-1.5-15.8,2.3-16.3c-1,5.1-1.3,10.8-0.8,16.5
				c1.9-0.4,1.4-1.2,1.3-2.9c0.7,0,1.1,0.3,1.4,1.1c0.6,0.1,3.5-1.8,4.2-2.1c3.1-1.2,6.4-1.9,9.7-2.1c6.5-0.5,10.9-0.5,17.3,1.3
				c1,0.2,1.9,0.4,2.8,0.8c1.2,0.9-0.7,2.6-1.6,2.4c-2.1-0.4-5-1.5-7.1-1.3c-1.6,0.1-13.8,0.8-13.9,2.4c0.9,0.1,6,0.8,5.1,2.4
				C43.4,68.4,38,67.6,36,68c-3,0.6-5.6,1.2-8.2,2.9c-2.2,1.4,0.4,6-2.4,5.6c0,0.1,0.9,4.3,1,4.9c3.6-1.5,6.5-4.5,10.2-5.9
				c3.6-1.3,7.2-3.1,10.8-4.3c7.7-2.5,14.8,1.6,21.7,4.5c3.4,1.5,7,3.8,10,6c1.6,1.2,3.3,2.1,5.1,3.1c1.2,0.7,0.2,1.7,1.2,2.5
				c2.6,2.2,4.8,4.7,7.4,6.9c2.8,2.3,1.9,3.6,4,5.5c1.7,1.5-4.7-0.3-5.6-0.9c-2.9-2.1-5.8-4.4-8.9-6.3c-6.1-3.6-12.2-8.9-19-11.1
				c-7.1-2.3-16.7-4.3-23.6-0.9c-3.9,1.9-7.8,3.7-11.7,5.6C25.1,87.5,26.2,90.9,23.8,91.5C25.9,92.3,25.4,91.1,23.8,91.5z
				 M138.1,102.7L138.1,102.7C138.3,102.6,137.8,102.3,138.1,102.7C138.1,102.7,138,102.6,138.1,102.7z M107.6,93.1L107.6,93.1
				c-0.4,1.1,1.9,2,2.6,0.9C109.3,93.7,108.4,93.4,107.6,93.1C107.5,93.2,108.4,93.4,107.6,93.1z M117.2,94.9c6,2.3,17.8,6.1,24,3.5
				c-1.3-1.7-5.4-1.3-5.7-3.4c-0.2-1.1-4.1-2.4-2-3.3c3.4-1.5,6.8,0.5,10.1,1.2c1.8,0.4,7.6,2.5,9.2,1.7c2.3-1.2,6.6,0.2,9,0.4
				c2.7,0.2,6.8-1.1,9.1-2.3c1.6-0.9,4-1.2,5.8-1.5c5.6-0.8,0.5,3.5-1.3,4.6c-4.7,2.9-7.5,7-12.2,9.9c-2.5,1.5-6.3,4.7-9.4,3.6
				c-0.8-0.3-2.6,0.7-3.6,0.7c-1.5,0-3-0.5-4.5-0.3c-12,1.6-25.2-4.3-35.3-10.4c-4.2-2.6-8.8-4.5-13.1-6.6c-3.7-1.7,0.5-2-1.9-3.2
				c-1.5-0.8-4.8-2.9-5.9-4c-1.7-1.7-3-3.8-5-5.6c-2-1.8-4.3-2.3-6.4-3.8c-1.5-1-15-6.8-14.3-8c0.8-1.4,4.9-1.3,6.1-1
				c3.5,0.7,6.4,2.1,9.5,3.8c5.2,2.9,9.1,6.3,13.7,9.6c2.4,1.7,5,3.9,7.6,5.1c1.8,0.8,3,3.2,4.9,3.7c1.6,0.5,3.3,1.8,4.9,2.7
				c1.5,0.8,3,1.4,4.5,2.2c0.6,0.3,2.1-0.3,2.3-0.1C117.2,94.3,117.2,94.6,117.2,94.9C118.3,95.4,117.1,94.7,117.2,94.9z M31.1,48.4
				L31.1,48.4C31.3,48.2,30.9,48.2,31.1,48.4C31.1,48.4,31.1,48.4,31.1,48.4z M77.3,60L77.3,60L77.3,60L77.3,60L77.3,60L77.3,60
				L77.3,60L77.3,60L77.3,60L77.3,60L77.3,60L77.3,60L77.3,60L77.3,60L77.3,60L77.3,60L77.3,60L77.3,60L77.3,60L77.3,60L77.3,60
				L77.3,60L77.3,60L77.3,60L77.3,60L77.3,60L77.3,60L77.3,60L77.3,60L77.3,60L77.3,60L77.3,60L77.3,60L77.3,60L77.3,60L77.3,60
				L77.3,60L77.3,60L77.3,60L77.3,60L77.3,60L77.3,60L77.3,60L77.3,60L77.3,60L77.3,60L77.3,60L77.3,60L77.3,60L77.3,60L77.3,60
				L77.3,60L77.3,60L77.3,60L77.3,60l0-0.1l0,0l0,0l0,0l0,0l0,0h0h0h0l0,0l0,0l0,0l0,0l0,0l0,0L77.3,60L77.3,60L77.3,60L77.3,60
				L77.3,60L77.3,60L77.3,60L77.3,60L77.3,60L77.3,60L77.3,60L77.3,60L77.3,60L77.3,60L77.3,60L77.3,60L77.3,60L77.3,60L77.3,60
				L77.3,60L77.3,60L77.3,60L77.3,60L77.3,60L77.3,60L77.3,60L77.3,60L77.3,60L77.3,60z M34.3,43.2L34.3,43.2
				c0.2-0.4-0.5-0.3-0.7-0.3C33.6,43.2,33.9,43.3,34.3,43.2C34.4,43.1,34.1,43.1,34.3,43.2z M28.2,26.9L28.2,26.9L28.2,26.9
				L28.2,26.9 M21.4,192.2L21.4,192.2L21.4,192.2L21.4,192.2L21.4,192.2L21.4,192.2L21.4,192.2L21.4,192.2L21.4,192.2L21.4,192.2
				L21.4,192.2L21.4,192.2L21.4,192.2L21.4,192.2L21.4,192.2L21.4,192.2L21.4,192.2L21.4,192.2L21.4,192.2L21.4,192.2L21.4,192.2
				L21.4,192.2L21.4,192.2L21.4,192.2L21.4,192.2L21.4,192.2L21.4,192.2L21.4,192.2L21.4,192.2L21.4,192.2L21.4,192.2L21.4,192.2
				L21.4,192.2L21.4,192.2L21.4,192.2L21.4,192.2L21.4,192.2L21.4,192.2L21.4,192.2L21.4,192.2L21.4,192.2L21.4,192.2L21.4,192.2
				L21.4,192.2L21.4,192.2L21.4,192.2L21.4,192.2L21.4,192.2L21.4,192.2L21.4,192.2L21.4,192.2L21.4,192.2L21.4,192.2L21.4,192.2
				L21.4,192.2L21.4,192.2L21.4,192.2L21.4,192.2L21.4,192.2L21.4,192.2L21.4,192.2L21.4,192.2L21.4,192.2L21.4,192.2L21.4,192.2
				L21.4,192.2L21.4,192.2L21.4,192.2L21.4,192.2L21.4,192.2L21.4,192.2L21.4,192.2L21.4,192.2L21.4,192.2L21.4,192.2L21.4,192.2
				L21.4,192.2L21.4,192.2L21.4,192.2L21.4,192.2L21.4,192.2L21.4,192.2z M42.2,174.4L42.2,174.4C42.5,173.8,41.9,174,42.2,174.4
				C42.2,174.3,42.1,174.3,42.2,174.4z M41.1,175.8L41.1,175.8c-0.5-0.5-1.3,0.4-0.7,0.9C40.6,176.4,40.9,176.1,41.1,175.8
				C41,175.7,40.9,176.1,41.1,175.8z M23.4,196.1L23.4,196.1c0.5,0.1,0.6-0.2,0.3-1C23.3,194.9,23.1,195.3,23.4,196.1
				C23.5,196.1,23.5,195.7,23.4,196.1z M23.5,210.1c-0.5-0.3-1-0.6-1.5-1c-1.6,2.2,0.9,4.4,1.5,6.5c-3.1-0.4-0.3,1.4-0.4,2.7
				c-0.2,2.5-1.9-0.6-2-1.4c-0.1-3.7-0.7-7.3-1.1-11.1c-0.2-1.6-1-3.3-1.1-5.2c-0.1-2.7,1.4-4.4,1.6-6.8c0.3-2.6-1.8-9.1-0.7-10.8
				c0.4,1,3,1.6,2,2.8c-1.4,1.7,2.3,2.9,0,5c4.5,0.7,9.5-12,11.8-15.7c3.8-6.1,10.7-11.1,15.8-16.3c5-5.1,12.2-8.7,18.4-12
				c5.1-2.8,16.8-8,22.2-4.8c-1.4,2.2-7.4,3.3-9.8,4.5c-3.6,1.8-7,3.3-10.2,5.8c-6.2,4.8-12.8,8.9-18.5,14.4
				c-5.9,5.6-10.8,12.4-15.2,19.4c-1.2,2-0.9,6.4-3,7.8c-2.6,1.8-0.3-5.5-0.6-5.7c-3,4.6-4.7,8.7-4.5,14.3c0.1,1.7-1.1,4.4-2.3,5.5
				C24.8,209,23.5,208.1,23.5,210.1C22.8,209.7,23.5,208.7,23.5,210.1z M239.5,213.2L239.5,213.2C239.8,212.8,239,212.9,239.5,213.2
				C239.5,213.1,239.4,213.1,239.5,213.2z M204.5,197.8L204.5,197.8C204.9,197.3,204.1,197.3,204.5,197.8
				C204.6,197.7,204.4,197.7,204.5,197.8z M208.1,199.6L208.1,199.6c1-0.8-1.3-2-1.7-1.2C207,198.8,207.6,199.2,208.1,199.6
				C208.2,199.5,207.6,199.2,208.1,199.6z M233.2,213.1L233.2,213.1c0.1,0.9,3.5,0.6,4-0.1C235.9,213,234.5,213.1,233.2,213.1
				C233.2,213.2,234.5,213.1,233.2,213.1z M204.7,202.3L204.7,202.3c0.4,2.6,7.9,5.7,10,6.8c5.1,2.7,11.2,4.5,17,4.4
				c0.1-0.8-10.3-3.7-11.8-4.3C214.5,207.1,209.9,204.7,204.7,202.3C204.7,202.6,205.7,202.8,204.7,202.3z M203,197.6
				c-1.1-2.6-2.2-6.3-5.2-8.3c-2.5-1.6-0.2-5.6,1.6-2.4c1.3,2.3,4.4,4.1,6.4,5.6c-1.8,1.2,2.9,1.8,4.7,3.5c3.4,3.2,9,6.6,13.4,8
				c5.8,1.9,12.2,3.2,18.3,4c3.5,0.5,5.6,1.9,6.2,5.3c-6.5,0.2-12.5,1.3-19.1,0.6c-8-0.9-14.1-3.1-21.1-7.1
				c-11.7-6.7-21.1-18.7-25.6-31.3c-2-5.5-3.8-12.7-9.2-15.9c-2.2-1.3-1-4.7,1.8-2.4c2.8,2.3,5.2,5.3,7.3,8.2c4.4,6,5.5,12.9,9,19.3
				C193.7,189,198,197.3,203,197.6z M137.6,115.6c0.4,0.3,0.9,0.6,1.4,0.8c-1.7,1.8-3.6,0.9-5.8,1.8c-2.2,0.8-4.3,1.9-6.7,2.2
				c-2.9,0.4-5.7,0.4-8.6,0.6c-0.9,0.2-1.5-0.2-1.7-1.1c-0.1-0.9-3.7-0.9-3.5-0.8c-11.5-2.2-19.2-8.6-28.6-15.1
				c-4.4-3-7.6-6.5-12.6-8.8c-4.2-2-9-3.5-13.6-4.6c-4-1-10.4-3-14.4-1.5c-1.7,0.6-5.8,3.4-7.6,2.8c-3-0.9,4.2-4,4.2-4
				c11.4-4.9,22.3-2.3,32.9,3.2c9.1,4.7,16,13.5,25.5,17.4c2.3,0.9,4.1,2.5,6.7,2.6c1,0,3.8,0.2,1.7-1.7c-1.4-1.2-4.5-2.5-3.7-4.9
				c0.9-2.7,5.5,0.7,6.7,1.5c4.7,3,9.6,5.9,14.9,7.3c2.7,0.7,5.6,1.1,8.3,1.2C134.9,114.5,137.4,112.6,137.6,115.6
				C137.6,115.6,137.5,113.8,137.6,115.6z M81.7,119.4L81.7,119.4C82.3,119.1,81.4,119,81.7,119.4C81.8,119.4,81.7,119.3,81.7,119.4
				z M79.9,114.8c2.2-1,9.9,6.2,11.9,7.4c5.1,3,9.3,3.3,15,3.9c2,0.2,4.6,0.7,6.4-0.4c1.5-0.9,1.7,1.7,2.8,2.1
				c4.6,1.7,1.8,4.3-1.2,6.3c-8,5.3-16.2,5.6-24.7,1.1c-1.3-0.7-12-5.1-10.1-6c2-1,4.1,1.4,5.6,0.5c1.1-0.7-0.3-2.3,2.2-1.8
				c8.8,1.8,16.4,12.8,25.4,3.8c4.1-4.1-5.3-1.2-6.4-1c-5.5,0.6-11.2-1.7-16.2-3.6c-8.6-3.4-17.7-8.8-26.8-9.6
				c-6.8-0.6-14.5,5.2-20.9,7.5c2-2.7,0.6-3.7,3.7-5.3c-3.8-2.2,1.2-3,3.4-3.6c3.1-0.9,6.3-1.7,9.4-2.6
				C66.7,111.2,73.3,110.3,79.9,114.8C80.8,114.4,78.9,114.2,79.9,114.8z M137.2,130.5L137.2,130.5C137.8,130,136.7,130,137.2,130.5
				C137.3,130.4,137.1,130.4,137.2,130.5z M143.6,131.2L143.6,131.2c-0.2-0.5-1-0.3-0.8,0.3C143.1,131.4,143.4,131.3,143.6,131.2
				C143.6,131.1,143.4,131.3,143.6,131.2z M150.5,125L150.5,125c-0.8,0.1-1.6,0.1-2.3,0.2C149.2,126,150.1,125.9,150.5,125z
				 M168.9,116.2L168.9,116.2L168.9,116.2L168.9,116.2z M155.5,120c-1.5,1.3-3,2.6-4.5,4c4.5,0.1,16.5-0.8,17.4-7.1
				c-1.5,1-5.3,3.5-7.2,2.1c-1.7-1.2,3.1-3.1,3.5-3.5c5.5-4.4,10.9-10.6,14.9-16.4c1.2-1.7,4-7,6.7-6.1c0.8,0.2-1.8,4.6-1.5,6
				c1.2,5.3-6.5,13.7-9.5,17.2c-9.6,11.4-26.3,18.1-40.9,17.4c-1,0-8.9-0.9-8.3-2.8c0.4-1.2,3.3-1.2,4.2-1.2c1.7,0,1.8-1.1,3.1-1.8
				c3.2-1.7,7.2-2.1,10.5-3.7C147.2,122.6,151.9,118.2,155.5,120C154,121.2,154.4,119.4,155.5,120z M118.4,146.1
				c-0.5-0.7-7.4,0.9-8.4,1.2c-3.7,1.1-7.2,2.4-10.7,3.9c-4.1,1.8-8.3,3.4-12.4,5.1c-1.3,0.6-9.4,5.5-9.2,1.7
				c0.2-2.8,8.8-7.1,11.2-8.2c4.3-1.9,9.7-2.8,13.7-5c3.7-2.1,8-1.7,11.6-2.8c4.4-1.3,9.9-1.9,14.6-1.3c2,0.2,4.4-1.7,6.4-2.1
				c2.7-0.6,5.5-1.1,8.2-1.7c4.5-1.1,8.9-2.7,12.9-5.1c3.3-2,7.2-3,10.2-5.7c2-1.9,3.7-4.1,6.2-5.5c3.4-1.9,2.1,1.8,1.1,3.1
				c-5.9,7.8-15.9,12.7-24.8,16.2c-4.7,1.8-8.8,2.9-13.7,3.6C130.2,144.3,122.7,143.3,118.4,146.1
				C117.9,145.5,118.8,145.8,118.4,146.1z M18.9,179.6L18.9,179.6C19.3,180,19.2,179.3,18.9,179.6C18.9,179.6,18.9,179.5,18.9,179.6
				z M76.4,135.8c-7.9-3.1-17.1,1.2-24,4.9c-3.3,1.8-7,3.4-9.4,6.4c-1.7,2.1-3.5,7.1-4.7,2.3c-1.5-6.2,9.9-12.1,14.9-13.9
				c7.4-2.6,17.9-4.9,25.6-2.4c8.5,2.8-7,8.3-10,9c-7.8,1.7-14.9,5.5-21.2,10.5c-6.5,5.2-14.3,11.9-17.7,19.8
				c-1.1,2.5-2.5,3.3-3.8,5.4c-2.6,4.1-3,3.8-7,5.5c-1.7-2.5-0.8-7-0.1-9.8c-1.9,0.6-1.4-1.8-0.4-2.5c1.2-0.8,3.8,1.1,2.9,2.4
				c3.2,1-5.2,8.4-0.4,8.4c-0.7-1.5,0.8-1.9,0.7-4c2.2,1.2,3-2.1,3.9-3.9c1.6-3.4,4.2-6.5,6.5-9.4c3.2-4,6.8-7.9,10.8-11.2
				c4.9-4.2,9.9-7.8,15.8-10.6C60.6,141.6,76.4,137.6,76.4,135.8C76,135.6,76.4,135.9,76.4,135.8z M30.3,121.2L30.3,121.2
				C30,121.1,30.1,121.3,30.3,121.2C30.2,121.2,30.2,121.2,30.3,121.2z M33.3,127L33.3,127C33,126.9,33.1,127.2,33.3,127
				C33.3,127,33.3,127.1,33.3,127z M22.5,125.2L22.5,125.2c1.2-1.2,2.2-2.3,3.3-3.4C24.5,121.2,22.9,122.9,22.5,125.2z M17.4,129.2
				c2.5-1.5,1.8-3.5,3.3-6c1.7-2.9,4.2-5.5,7.3-6.8c7.7-3.5,16.6-8.1,25.1-8.8c2.9-0.2,10.4-1.5,12.9,0.1c2.9,1.9-4.9,2.6-5.4,2.6
				c-5.1-0.1-9.6,2.2-14.1,4.1c-4,1.7-10.9,3.9-13.5,7.6c3.6-1.2,2-0.2,2.7,1.7c0.3,0.7,2.1-0.8,2.5,0.4c0.5,1.2-2.4,1.7-2.9,2.1
				c-0.4,0.3-2.3,3.4-2.9,2c-0.6-1.4-3,0.9-3.5,1.3c1,1.3,1.7,0,2.5-0.7c1.5,1.8-6.6,4.6-8.4,4.3c-2.5-0.4-0.5-2.2-1.4-3
				C20.4,129.1,17.9,130.6,17.4,129.2C17.8,128.9,17.4,129.3,17.4,129.2z M29.6,140.5L29.6,140.5c0.5,0.8,1.1,0.5,1.9-1
				C30.9,138.7,30.3,139,29.6,140.5C29.7,140.6,30.1,140,29.6,140.5z M50.9,128.5L50.9,128.5c-0.4-1.7-19.8,7.6-18.1,10
				C38.9,136.5,45,131.4,50.9,128.5C50.8,128.3,48.1,129.8,50.9,128.5z M28.5,143.9c-1.9,1.7-3.1,3.5-4.7,5.4
				c-0.9,1.1-3.5,1.3-2.1-0.5c3.6-5,7.1-10.2,12-14c4.4-3.5,9.8-6.1,15.2-7.6c6-1.7,14.1-4.9,20.3-3c1.2,0.4,1.1,1.8-0.2,2
				c-3.2,0.5-6.5,0.8-9.6,1.8c-6.2,2-12.1,5-17.6,8.4c-4.8,3-11,7.4-14,12.4c-1.7,2.8-4.3,11.1-8.2,10.2c0.5-1.4,1.6-2.5,1.1-4
				c-0.3-1,1.3-1.5,1.7-2.3C23.9,149.9,28,146.9,28.5,143.9C26.9,145.2,28.4,144,28.5,143.9z M23.4,223.9L23.4,223.9
				c0.4,0,0.5-0.2,0.2-0.7C23.1,223.1,23.1,223.3,23.4,223.9C23.5,223.8,23.4,223.6,23.4,223.9z M23.1,225c-0.3,0.1-0.5,0.3-0.8,0.4
				c0-1.1-0.1-2.3-0.1-3.4c2.3-0.5,2.8-0.1,3.6-2.5c1-2.9,1.6-5.8,2.4-8.8c1.1-4.2,2.4-14.2,6.3-16.6c6.3-3.8,0.8,6.4,0.4,8
				c-1.1,4.6-1.8,8.6-1.6,13.3c-0.4,0.2-0.8,0-1.1-0.6c-0.3,1.9,0.1,4,0.2,6c0.1,1.3,0.1,2.6,0.1,4c0,3.7,0.3,1.3,2.6,2.9
				c-4.6,5.1-5.3-5.5-10.9-1.9c2.2,2.2,1.5,2,0,3.4c-1.6,1.5,2.5,3.5,1.5,5.1c-1,1.6-2.5-2.6-2.5-3.1
				C22.1,231.1,22.8,226.2,23.1,225z M125.7,196.3c-2.5,0.1-4.9-0.2-7.4-0.2c0,0-7.9-0.3-4.9-1.7c2.6-1.2,6-0.4,8.7-0.6
				c2.7-0.2,5.2-0.9,8.1-0.3c2.7,0.6,7-0.5,9.8-0.6c1.7-0.1,8.3,1,9.4,0.3c1.2-0.7,3.3-3.4,4.5-0.5c0.6,1.3-0.6,2.7-0.1,3.8
				c0.8,2.1,0.6,4.4,0.7,6.6c0.1,3.2,2.6,17.2-0.1,18.8c-3.6,2.1-3.2-12.5-3.1-15c0.2-3.3,0.7-13.4-5.3-11.8
				C139.6,196.7,132.3,194.4,125.7,196.3C125.3,196.3,126.9,196,125.7,196.3z M163,71c-2.1-1.1-3.7-0.3-6-0.6
				c-2.7-0.4-5-2.1-7.1-3.7c-2.1-1.5-4.6-3.8-5.4-6.3c-0.3-0.9-0.4-6.3,1.6-3.5c1.6,2.2,11.9,15.4,11.5,6.8
				c-0.2-2.8,0.4-5.9,1.5-8.5c0.2-0.5,3.2-8.2,4.6-6.2c0.9,1.3-2.4,8.8-2.4,10.9C161.3,61.8,165,71.1,163,71
				C162.9,70.9,164,71,163,71z M137.6,188.4c-4.6-0.6-9.9-0.9-14.5-0.2c-1.9,0.3-10.7,2.9-12.3,1.7c-2.6-2,5.7-3.8,6.6-3.9
				c4.6-1,10.6,0.6,14.8-1.4c-2.4-1.4-6.2-1.3-8.1-3.5c-1.9-2.2,7-0.5,7.3-0.4c1.1,0.4,6.2,3.5,6.7,3.3
				C143.5,182.8,141.9,189,137.6,188.4C136.6,188.3,138.6,188.6,137.6,188.4z M242.7,70.2c-0.6-1.2,2.3-8.3,2.6-10.1
				c0.5-3.8,0.4-7.4,0.8-11.1c0.1-0.8,0.3-7.8,2-7.2c0.7,0.3,1.3,8,1.3,9c0,8.6,0.5,17.1,0.4,25.7c0,1.3-1,2.1-2.3,1.5
				c-1.2-0.6-0.9-5.2-0.8-6.4C247,67.2,245.6,69.3,242.7,70.2C242.6,70,242.9,70.1,242.7,70.2z M161.2,214.5
				c-3.1-0.7-1-24.7,7.1-12.6c2.8,4.2,4.6,6.2,5.5,11.6c0.3,1.7,0.9,5-1.6,5.4c-1.4,0.3-1.7-0.7-1.1-1.8c2.1-3.5-2-10.2-3.9-13
				c-3.9-5.8-3.5,3.7-3.3,5.9c0.1,1.7,1.2,3.8,0.7,5.4c-0.3,0.8-1.4,1-1.4,1.8C163,224.2,159.4,218.6,161.2,214.5
				C159.8,214.2,160.9,215.1,161.2,214.5z M246.6,134c-0.5-4.8,0.1-9.6-0.2-14.4c-0.3-4.8-0.9-9.6-0.8-14.5
				c0.1-4.4-0.9-8.5-0.2-12.9c0.4-2.6,2.5-7.8,2.6-2.1c0.2,10.5,0.7,21,0.7,31.5c0,5,0,9.8,0.1,14.9
				C248.8,144.7,244.5,134.1,246.6,134C246.5,133,246.5,134,246.6,134z M134.4,27.7c-0.7,0-4.4-0.8-4.8,0.2c-0.5,1.1,4.3,6.8,4.9,8
				c1.5,2.8,2.6,5.9,3.7,8.8c1.1,2.9-2.4,3.5-3.1-0.3c-0.7-3.9-2.8-7.6-5.2-10.7c-0.8-1.1-9.9-8.8-8-10.1c2.1-1.4,6.6,0.6,8.9,0.7
				c2.9,0.2,8.3-0.5,10.8,1.1C141,26.3,134.3,28.4,134.4,27.7C133.1,27.7,134.4,27.7,134.4,27.7z M235.2,139.3L235.2,139.3
				C234.9,139.2,235,139.6,235.2,139.3C235.2,139.3,235.2,139.3,235.2,139.3z M235.2,144.6L235.2,144.6c0.5,1.2,1.1,1.4,1.8,0.7
				C236.6,144.2,236,143.9,235.2,144.6C235.7,145.1,235.6,144.4,235.2,144.6z M236.2,147.9c-0.4,0.9-1,1.3-1.8,1.3
				c-0.7-0.2-2-4.8,0.1-4.8c-0.7-1.6,1.1-2.9-0.2-3.8c-1.2-0.9,0.3-6.9,0.3-8.3c-0.3-5.3-4.4-13-8.3-16.4c2.4-3.4,8.1,8,8.6,9.6
				c1.9,5.6,3.1,11.2,3.1,17.2c0,0.6,0.1,15.4-2.9,13.1C233.8,154.7,237.9,148.1,236.2,147.9C235.8,148.3,236.4,148,236.2,147.9z
				 M240.1,77.2c6,2.1,0.9,15.9-0.3,20.4c-1,3.7-2.5,8.6-5,11.6c0.9,1.1,4.6,8.3,2.9,9.1c-1.3-2.5-2.7-6.9-5.8-8
				c0.3,0.1,3.3-6.8,3.7-7.9c1.3-3.9,2.3-7.3,3.3-11.3C239.4,89.1,238.9,77.6,240.1,77.2C240.8,77.4,239,77.5,240.1,77.2z
				 M121.9,179.5c-2.6,0.2-4.8,2.7-6.7,0.9c-0.1,2.2-2.9,1.8-4.4,2.1c-3.2,0.6-6.1,2-8.4,4.4c-2.3,2.4-3.8,5.2-5.5,8
				c-2.5,4.2-3.3,1.1-1.8-1.9c2.4-5.1,6-10.3,11.2-12.7C108,179.3,122.3,175.8,121.9,179.5C121.2,179.5,121.9,179.4,121.9,179.5z
				 M80.9,107.2c4.8,0.5,7.6,4,11.2,6.7c1.3,1,11.3,5.9,8.7,7.4c-2.5,1.4-12.1-4.7-14.6-6C82.9,113.6,73.7,109.5,80.9,107.2
				C84.4,107.6,80.1,107.5,80.9,107.2z M93.5,202.8c0.1,5.4,0.5,10.8,1.3,16.1c0.2,0.9-0.1,1.5-0.9,1.8c-1.8,0.6-1.9-3.7-1.9-4
				c-0.2-1.3-0.4-9.2-1.8-9.3c-1.6,2.7-2.3,6.1-3.3,9c-0.4,1.1-3.5,6.2-3.2,1.7C84.1,212.3,85.9,202.1,93.5,202.8
				C93.5,204.8,92.6,202.8,93.5,202.8z M174.7,31c-1.2-0.1-9.1,0.2-7.5-2.3c1.4-2.2,7.6-0.6,9.5-0.5c1.1,0,11.5-0.4,11.3,1
				c-0.3,2.8-4.6,2.3-6.3,2.7c-3.5,0.9-7,1.4-9.6,4.2c-1,1.1-2.8,5.1-4,5.4C164,42.7,174.6,29.7,174.7,31
				C173.7,30.9,174.7,31.2,174.7,31z M203,225.2c-2-1.5-4.5-2-5.3-4.5c2.4-0.7,4.4,1.1,6.5,2.4c0.8,0.5,5.1,3.1,5.8,3
				c3.2-0.5-0.3,3.6-2.7,3.2c-4.7-0.8-9.4-1.6-14.1-2.2c-0.3,0-9.6-1.1-6.1-3.2C189.8,222.2,201.7,227.6,203,225.2
				C202.5,224.8,202.9,225.3,203,225.2z M212.4,110.6c-0.4-0.1-0.8-0.2-1.1-0.3c2.2-0.7,4.5-0.4,6.5-1.5c2.3-1.2,4-3.4,5.8-5.2
				c1.1-1.1,4.7-6.2,6.5-5.4c1.5,0.7-4.3,6.6-4.9,7.1c-2.6,2.2-5,3.8-8.1,5.2c-2,0.9,2.4,5.1,3.1,6.3c1.1,2.1,5.5,12.1,3.2,13.9
				c-3.1-6.2-4.5-15.7-11.7-18.7C211.9,111.5,212.2,111,212.4,110.6C212.1,110.5,212.2,111,212.4,110.6z M153.5,50.6
				c-0.1,1.7-0.6,2.5-2.4,2.3c-1.6-0.2-1.3-5.2-2-6.5c-2.4-4.2-4.2-9-8.5-11.5c-1.2-0.7-2.5-1.9-0.9-3.4c1-0.9,5.1,3.8,5.8,4.4
				C149.6,39.7,153.4,44.7,153.5,50.6C153.4,52.7,153.5,50.5,153.5,50.6z M247.2,149.3c0.2,5.5,0.8,10.9,1,16.4
				c0.1,2.4-0.1,4.8-0.5,7.1c-0.4,2.3-2.5,0.6-2.7-0.9c-0.5-5,0-10.3-0.1-15.3c0-2.5-0.3-5.2,0-7.7
				C245.1,147,247.4,147.3,247.2,149.3C247.2,150.2,247.3,148.1,247.2,149.3z M158.2,32.7L158.2,32.7
				C158.6,32.2,157.9,32.4,158.2,32.7C158.2,32.6,158.1,32.6,158.2,32.7z M155.5,29.9c-2.6,0-5.1-0.1-7.7-0.6
				c-2.6-0.5-0.5-3,0.9-2.9c2.8,0.2,5.4,1.1,8.2,0.7c3.7-0.5,2.8,1.4,2.9,4.7c0.1,2.9,0.2,5.7,0.7,8.5c0.5,2.9-1.5,1.6-2.4,0.9
				C155.4,39,158.7,32.7,155.5,29.9C154.2,29.9,155.6,30,155.5,29.9z M220.3,63c-5.3,1.3-9.4-12.3-4.3-13.9c3.4-1.1,5.6,4.9,4.6,7.4
				c-0.3,0.6-2,0.8-2.1,1.3C218.3,60,219.9,61,220.3,63C219.2,63.3,220.3,62.8,220.3,63z M192.9,218.3c-3.7,2.7-7.4-3.9-10.6-5.9
				c-0.1,1.6,3.4,9,0.1,8.9c-3.2,0-2.3-4.8-2.8-7.3C177.3,202.7,189.6,215.8,192.9,218.3C192.3,218.7,192,217.6,192.9,218.3z
				 M110.6,218.6c1.4-4.1,12.6-0.9,16.1-1.9c2.4-0.7,1.9-12.9,3.4-11.9c0.2,0.1,0.6,5.6,0.6,6.3c-0.2,2.3,1,5.4-1.4,6.8
				c-2.5,1.6-5.7,1-8.5,1C117.6,218.9,113.4,220,110.6,218.6C111.2,216.8,111,218.8,110.6,218.6z M105.5,221.4
				c-1.8,0-3.4-12.5-3.7-14.5c-0.3-2.5-1.5-9.1-0.5-11c1.6-3,2.2,3,2.2,3c0,2.9,0.4,5.9,0.6,8.8
				C104.3,209.3,107.3,221.5,105.5,221.4C104.7,221.4,106.3,221.4,105.5,221.4z M137.3,209.6c-0.1-3.9-0.6-6,1.8-9
				c1.4-1.8,1.4,8.2,1.4,8.9c0,1.6,2.3,8.5-1.2,8.3C136.9,217.8,137.6,209.6,137.3,209.6C137.3,208,137.3,209.6,137.3,209.6z
				 M228.6,49.8c1.6,1.2,4.2,11,1.1,10.7C225.5,60.1,224.5,50.2,228.6,49.8C228.9,50.1,227,50,228.6,49.8z M226.7,154.6
				c0.4,1.2,3.3,10.9,3.3,10.9c-1.3-1.3-8.8-14.2-5.2-14.7C226.5,150.6,224.3,155.5,226.7,154.6
				C227.2,156.2,225.8,154.9,226.7,154.6z M151.2,114c-1.5,1-8.2,5.3-8,1.2C143.3,113.6,150.7,112.8,151.2,114
				C150.8,114.2,151.1,113.8,151.2,114z M35.5,228.3c1.6-1.9,10.3-2.3,12.5-0.8C46,229.3,38.2,228.5,35.5,228.3
				C35.7,228.1,36.6,228.4,35.5,228.3z M15.6,125.2c-1.6,0.5-2.5-3.7-1.3-4.6C17.2,118.6,15.7,124.4,15.6,125.2
				C14.7,125.5,15.8,123.8,15.6,125.2z M256.2,82.9c0.1-1,0-7.3,0.7-7.4C257.1,76.4,257.5,84.4,256.2,82.9
				C256.3,80.5,256.3,83,256.2,82.9z M256,44c0.2,2.6,1.3,6.9,0,9.1C255.3,52.7,255,43.8,256,44C256.2,46.7,255.9,43.9,256,44z
				 M205.8,133.3c0.5,1.9,1,3.9,1.5,5.8c-1,0.2-0.2-1.9-1.5-0.6C205.1,136.8,204.7,135,205.8,133.3
				C206.3,135.2,204.6,135.1,205.8,133.3z M14.4,63.9c-0.3,0-0.5,0.1-0.8,0.1c0.2-1.7,0.3-6,2.4-5.9C15.5,60.1,15,62,14.4,63.9
				C14.4,63.9,15,61.9,14.4,63.9z M32.6,28.1c-1.5-0.1-1,1.8-1.8,2.5c-1.6-1.8,0.7-4,1.9-5.2C32.7,26.3,32.7,27.2,32.6,28.1
				C31.1,28,32.7,27.2,32.6,28.1z M220.7,226.1c-2-0.3-4.4-0.3-6.1-1.6c0-0.2,0.1-0.3,0.2-0.4C216.2,224.2,220.1,224.9,220.7,226.1
				C218.9,225.8,220.3,225.2,220.7,226.1z M207.2,220.6L207.2,220.6L207.2,220.6L207.2,220.6C207.5,220.8,207.2,220.6,207.2,220.6
				L207.2,220.6L207.2,220.6L207.2,220.6 M256.2,57.7c-0.5-1-0.4-3.5,0.1-4C257,55.1,256.4,56.4,256.2,57.7z M18.8,167.3
				C20.7,172.4,16.4,168.3,18.8,167.3C19,167.9,18.7,167.4,18.8,167.3z M233,167.5c-1.2-0.1-1.9-0.7-2.1-1.8
				C231.9,165.7,233.2,166.1,233,167.5C232.3,167.2,233.1,166.4,233,167.5z M212.2,223.2c-1,0.5-1.7,0.1-2.7-1.4
				C210.7,221.9,211.4,222.5,212.2,223.2z M205.9,151.9c-0.6-0.8-1.1-1.4-1.5-2.1C205.9,149.9,206.1,150.4,205.9,151.9z M12.8,76.2
				c0.3,0.9,0.6,1.7-0.2,2.6C12,77.7,12.3,76.9,12.8,76.2z M18.2,155.2c0.1-0.7,0.3-1.4,0.4-2.1C19.8,153,19.4,155.1,18.2,155.2
				C18.3,154.4,19.3,155.1,18.2,155.2z M17.5,163.3c-0.2-0.8-0.1-1.4,0.5-1.7C18.5,162.3,19.3,163.8,17.5,163.3
				C17.6,162.7,18.2,163.5,17.5,163.3z M256.9,68.7c-0.1,0.9,0.8,1.5-0.1,2.3C256.7,70.7,255.7,68.4,256.9,68.7
				C256.8,69.4,256.8,68.7,256.9,68.7z M226.5,23.7c1.1-1,0.8-0.9,1.7-0.3C227.7,24.2,227.1,24.3,226.5,23.7
				C226.9,23.3,226.9,23.9,226.5,23.7z M160.5,19.3c-0.6,0.1-1.2,0.2-1.8,0.3C158.5,18.6,160.3,18.3,160.5,19.3
				C159.9,19.4,160.5,19.2,160.5,19.3z M207.7,21.8c-0.4,0.5-2.2,1.4-2.2,0.1C206.2,21.9,207,21.8,207.7,21.8
				C207,22.7,206.8,21.8,207.7,21.8z M22.2,221.5c-0.5-0.5-0.6-1-0.4-1.7c0.1-0.1,0.3-0.1,0.5-0.1C22.4,220.2,22.7,221.2,22.2,221.5
				C22,221.2,22.3,221.4,22.2,221.5z M18.2,147c0.4,0.1,0.8,0.3,1.2,0.4C18.9,148.3,17.7,148.1,18.2,147
				C18.6,147.2,18.1,147.2,18.2,147z M16.3,136.6c1.9-0.4,1.8-0.5,0.6,1.1C16.7,137.4,16.5,137,16.3,136.6
				C16.8,136.5,16.5,137,16.3,136.6z M207.4,160.1c0.1-0.5,0.3-1,0.5-1.6C208.8,158.8,208.5,160.4,207.4,160.1
				C207.6,159.6,207.6,160.1,207.4,160.1z M207.5,157.4c-0.8-0.8-0.9-1.2-0.1-1.4C208.2,156.8,208.2,157.3,207.5,157.4
				C207.3,157,207.6,157.4,207.5,157.4z M257.7,105.4c-0.1,0.5-0.2,1-0.3,1.4C256.4,106.7,256.7,105.2,257.7,105.4
				C257.6,105.9,257.6,105.4,257.7,105.4z M257.8,107.4c-0.1,0.5-0.2,1.1-0.3,1.6C256.8,108.2,256.9,107.8,257.8,107.4z
				 M257.5,102.8c0.5,1.2,0.4,1.7-0.4,1.6C256.6,103.3,256.8,102.7,257.5,102.8C257.4,103.3,257.4,102.8,257.5,102.8z M170.7,20.1
				c-1.1,0.2-1.4,0-1.2-0.7C170.6,19.2,171,19.4,170.7,20.1C170.3,20,170.7,19.9,170.7,20.1z M15.5,126.3c0.7,0.9,0.6,1.4-0.1,1.4
				C14.7,126.8,14.7,126.3,15.5,126.3C15.6,126.7,15.3,126.3,15.5,126.3z M207.9,161.2c0.8-0.6,1.2-0.6,1.2,0.1
				C208.4,162,208,161.9,207.9,161.2C208.3,161.1,208,161.4,207.9,161.2z M20.7,164.9c0.4,0.7,0.3,1-0.3,1
				C19.9,165.1,20,164.8,20.7,164.9C20.7,165.2,20.5,164.9,20.7,164.9z M15.2,150.3c-0.5-0.4-0.5-0.8,0-1.1
				C15.7,149.6,15.8,150,15.2,150.3C15,150,15.4,150,15.2,150.3z M256.5,63.9c0.5,0.6,0.5,0.9-0.2,1C255.9,64.3,256,63.9,256.5,63.9
				C256.6,64.2,256.4,63.9,256.5,63.9z M15.3,146.3c0.1,0.3,0.2,0.6,0.4,0.9C15,147.5,14.6,146.6,15.3,146.3
				C15.4,146.6,15.2,146.3,15.3,146.3z M208.9,165.8c-0.3-0.8-0.2-1.2,0.3-1.1C209.5,165.6,209.4,166,208.9,165.8
				C208.9,165.5,209,165.8,208.9,165.8z M172.7,20.2c-0.7,0.3-1,0.2-1-0.3C172.6,19.5,172.9,19.6,172.7,20.2
				C172.4,20.2,172.7,20.1,172.7,20.2z M18.3,165c-0.6-0.1-0.8-0.3-0.5-0.7C18.5,164.3,18.7,164.5,18.3,165
				C18.1,164.9,18.4,164.8,18.3,165z M13.8,66c0.2,0.7,0.1,1-0.4,0.9C13.1,66.1,13.2,65.8,13.8,66C13.7,66.3,13.6,66,13.8,66z
				 M16.1,159.6c0.1-0.8,0.3-1,0.8-0.7C16.8,159.8,16.5,160,16.1,159.6C16.2,159.3,16.2,159.7,16.1,159.6z M19.1,192.6
				c-0.4-0.7-0.3-1,0.2-0.9C19.8,192.3,19.7,192.7,19.1,192.6C19.1,192.3,19.3,192.6,19.1,192.6z M257.8,100.7
				c-0.2,0.8-0.5,0.9-0.9,0.4C257.2,100.4,257.5,100.2,257.8,100.7C257.6,100.9,257.7,100.6,257.8,100.7z M64.6,190.9
				c0.1-0.3,0.1-0.6,0.2-0.9C65.4,190.1,65.3,191,64.6,190.9C64.7,190.6,64.8,190.9,64.6,190.9z M257.2,66.1
				c-0.1,0.3-0.2,0.5-0.3,0.8C256.2,66.7,256.5,65.9,257.2,66.1C257.1,66.4,257,66.1,257.2,66.1z M209.3,163.7
				c-0.5-0.5-0.5-0.8-0.1-0.9C209.8,163.3,209.9,163.6,209.3,163.7C209.2,163.5,209.4,163.7,209.3,163.7z M16.9,140.6
				c0.6-0.2,0.8-0.1,0.7,0.3C17,141.1,16.8,141,16.9,140.6C17.1,140.6,16.9,140.6,16.9,140.6z M29.4,36.2c0.4,0.6,0.4,1-0.2,0.9
				C28.8,36.5,28.9,36.2,29.4,36.2C29.5,36.5,29.3,36.3,29.4,36.2z M223.7,132.6c-0.3-0.4-0.3-0.7,0.2-0.8
				C224.2,132.2,224.2,132.4,223.7,132.6C223.6,132.4,223.9,132.5,223.7,132.6z M17.9,145.3c0-0.6,0.2-0.7,0.6-0.5
				C18.5,145.4,18.3,145.6,17.9,145.3C18,145.1,18,145.3,17.9,145.3z M28.1,60.2c-0.3,0.3-0.5,0.3-0.7-0.1
				C27.6,59.8,27.9,59.9,28.1,60.2C27.9,60.4,27.9,60.1,28.1,60.2z M18.6,142.2c0.3,0.5,0.2,0.8-0.2,0.8
				C18,142.4,18.1,142.1,18.6,142.2C18.7,142.4,18.5,142.2,18.6,142.2z M257,99.1c-0.1-0.6,0.1-0.8,0.5-0.6
				C257.7,99.2,257.5,99.4,257,99.1C257.1,98.9,257.2,99.2,257,99.1z M14.4,130.3c0.1,0.5,0,0.8-0.4,0.6
				C13.8,130.3,14,130.1,14.4,130.3C14.4,130.5,14.3,130.3,14.4,130.3z M155.4,19.2c0.3,0,0.6-0.1,0.9-0.1
				C156.6,19.8,155.6,19.3,155.4,19.2C155.9,19.2,155.8,19.4,155.4,19.2z M14.7,145.1c0.5-0.2,0.7-0.2,0.7,0.2
				C14.9,145.7,14.6,145.6,14.7,145.1C14.9,145.1,14.7,145.2,14.7,145.1z M20.6,168C20.1,167.3,21.1,167.4,20.6,168
				C20.5,167.9,20.8,167.9,20.6,168z M232,23.9c0.2-0.3,0.4-0.3,0.6,0C232.5,24.1,232.3,24.1,232,23.9
				C232.2,23.7,232.2,23.9,232,23.9z M25.6,230.2C24.8,230.7,25,229.7,25.6,230.2C25.4,230.3,25.5,230.1,25.6,230.2z M224.9,150
				C224.8,149.4,225.4,149.5,224.9,150C224.9,149.8,225,149.9,224.9,150z M12.6,86.8C13.7,86.4,12.8,87.3,12.6,86.8
				C12.7,86.8,12.6,86.9,12.6,86.8z M22.8,108.5c-0.2-0.3-0.2-0.6,0.1-0.8C23.2,108,23.1,108.2,22.8,108.5
				C22.7,108.3,23,108.2,22.8,108.5z M256.3,62.5C256,61.8,256.9,61.9,256.3,62.5C256.3,62.3,256.4,62.4,256.3,62.5z M202.1,21.5
				c-0.4-0.5-0.4-0.8,0.1-0.8C202.4,21,202.3,21.2,202.1,21.5C202,21,202.2,21.2,202.1,21.5z M13.3,74.7
				C12.3,74.8,13.2,74.2,13.3,74.7C13.1,74.7,13.2,74.6,13.3,74.7z M257.8,113.4C257.3,113.9,257.3,112.9,257.8,113.4
				C257.7,113.5,257.7,113.3,257.8,113.4z M13.2,90.4C12.8,89.8,13.8,89.9,13.2,90.4C13.1,90.3,13.3,90.3,13.2,90.4z M254.8,40.2
				C254.7,39.5,255.2,40.1,254.8,40.2C254.8,40.1,254.9,40.2,254.8,40.2z M188.5,51.4C189,51.7,188.1,51.9,188.5,51.4
				C188.6,51.5,188.4,51.5,188.5,51.4z M15.6,128.9C15.8,127.7,16.1,128.9,15.6,128.9C15.6,128.7,15.7,128.9,15.6,128.9z M208.8,147
				C208.6,146.2,209.2,146.6,208.8,147C208.7,146.8,208.9,146.9,208.8,147z M256.8,91.4C257.1,92.1,257,92.2,256.8,91.4
				C256.9,91.6,256.8,91.4,256.8,91.4z M157.5,75.7C157.3,75.2,158,75.1,157.5,75.7C157.5,75.6,157.7,75.5,157.5,75.7z M14.8,144.1
				C14.6,143.6,15.2,144,14.8,144.1C14.7,144,14.9,144.1,14.8,144.1z M19.7,96.6C19.5,96,20.1,96.4,19.7,96.6
				C19.7,96.5,19.8,96.6,19.7,96.6z M17.5,149.5C17,149.2,17.9,149,17.5,149.5C17.4,149.4,17.5,149.4,17.5,149.5z M62.4,195.8
				C61.9,196.1,62.2,195.4,62.4,195.8C62.3,195.9,62.4,195.7,62.4,195.8z M203.3,219.3C203,218.9,203.7,219,203.3,219.3
				C203.3,219.2,203.4,219.2,203.3,219.3z M13.3,68.9C13.6,68.8,13.5,69.2,13.3,68.9C13.4,68.9,13.3,68.9,13.3,68.9z M12.7,104.7
				C12.4,104.8,12.5,104.4,12.7,104.7C12.6,104.7,12.7,104.6,12.7,104.7z M165.6,19.4C165.3,19.1,165.8,19.1,165.6,19.4
				C165.5,19.3,165.6,19.3,165.6,19.4z M30.1,35.1C29.9,35.1,30.1,34.7,30.1,35.1C30,35.1,30.1,35,30.1,35.1z M213.3,23.2
				C213,22.8,213.6,22.9,213.3,23.2C213.2,23.1,213.3,23.2,213.3,23.2z M64.2,191.8C64,191.4,64.4,191.8,64.2,191.8
				C64.2,191.8,64.2,191.8,64.2,191.8z M256.8,161.2C256.7,161.4,256.6,160.9,256.8,161.2C256.8,161.3,256.8,161.2,256.8,161.2z
				 M19,149.8C18.8,149.7,19,149.6,19,149.8C18.9,149.8,19,149.7,19,149.8z M208.9,160.3C208.9,160.1,209.1,160.2,208.9,160.3
				C208.9,160.3,209,160.3,208.9,160.3z M12.6,79.8C12.4,79.7,12.6,79.6,12.6,79.8C12.5,79.7,12.6,79.7,12.6,79.8z M63.7,193.1
				C63.7,193.2,63.7,193.2,63.7,193.1z M157.6,19.6C157.7,19.5,157.7,19.5,157.6,19.6z M28.5,227.8
				C28.5,227.7,28.5,227.7,28.5,227.8z M30.2,31.9C30.1,32,30.1,32,30.2,31.9 M179.4,20.3C179.5,20.2,179.5,20.2,179.4,20.3
				 M209.9,149.7C210.1,149.6,210,149.9,209.9,149.7C209.9,149.7,209.9,149.7,209.9,149.7z M256.8,91.4
				C256.8,91.2,256.9,91.4,256.8,91.4C256.8,91.3,256.8,91.4,256.8,91.4z M213,223.6C212.9,223.6,213,223.6,213,223.6z M250.1,187
				L250.1,187L250.1,187z M250.2,187L250.2,187L250.2,187z M224.9,225.6C224.9,225.6,224.8,225.6,224.9,225.6
				C224.8,225.6,224.9,225.6,224.9,225.6z M28.2,26.9C28.2,26.9,28.2,26.9,28.2,26.9c0.5,0.6-1.8,7.2-2.1,9.2
				c-0.2,1.5,0,3.6,1.4,4.3c1.3,0.6,0.9-2,2-1.9c1.4,2.9,9.1,0.9,11.9,1.1c1.7,0.1,3.1,0.4,4.8,0.5c3.6,0.2,6.2,0.1,9.7,1.3
				c10.7,3.5,19.8,8.4,28.1,16.2c3.7,3.5,8.8,5.9,12.6,9.4c4.1,3.8,8.1,7.6,12.4,11.2c3.5,2.9,6.8,5.8,10.9,7.8
				c1,0.5,3.9,0.3,4.3,1.6c0.7,2.5,3.3-1.2,4.3-0.1c-0.2,0.4-2.2,2.2-2.2,2.6c0,0.7,2.2,1.5,0.9,2.3c-1.9,1.3-3.6,2.2-3.3-0.5
				c-4-0.5-8.7-3.8-11.9-6.3c-3.6-2.9-7.5-5.1-11.1-8.1c-4.1-3.5-8-7-12.7-9.6c-0.5-0.5-0.4-1,0-1.5c-0.9-0.5-1.8-1-2.8-1.3
				c-1.1-0.6-5.8-4.4-6.7-3.2c0.8,0.9,3.7,3.9,0.5,4.1c-2.7,0.1-7.2-5.3-9.2-6.9c-5.4-4.2-12.7-7.4-19.4-8.6
				c-3.4-0.6-7.2-0.3-10.6-0.6c-3.4-0.2-5.3,1.8-8.6,2.5c-6.3,1.3-3.4-5.9-0.8-9c-5-1.5-2.8,1.1-4.7,4c-2.2-1.4-0.7-2.8-1-5.4
				c-0.4-3.3,0.2-7,0.6-10.3C26,28,26.7,17.5,31,16.4c0.9,1.8,2.9,5.5,1.4,7.4c-0.7-1.4-1.4-2.9-2-4.3
				C28.1,19.8,28.9,26.3,28.2,26.9C28.4,27.1,28.2,27,28.2,26.9z M28.1,119.3c0.1,0.1,0.1,0.3,0.9-0.1
				C28.6,119.1,28.3,119.2,28.1,119.3z M27.4,120.2c0.3-0.4,0.5-0.6,0.5-0.8C27.7,119.6,27.6,119.8,27.4,120.2z M29,119.2L29,119.2
				C28.2,118.9,29.1,118.5,29,119.2L29,119.2c-0.4,0.2-0.5,0.6-0.7,0.8c1.2-0.5,3.1-1.8,3.7-2c2.8-1.2,5.4-2.6,8-4.2
				C38,113.6,29.2,116.8,29,119.2L29,119.2L29,119.2z M207.2,220.6C207.2,220.6,207.3,220.6,207.2,220.6c0.4,0.2,0.7,0.3,1,0.5
				c-1.1,0.4-2.2,0.2-3.1-0.7C206.5,219,206.7,220.6,207.2,220.6z M217.4,29.1c1.6-1.4,2.8,4.8,3,5.4c0.9,3.7,7.1-3.8,10.3-2.2
				c3.8,1.9,5.7,4.8,7.7,8.2c0.4,0.7,2.6,3.1,2.6,3.7c-0.3,0.7-0.7,1.3-1.1,1.8c-0.3,1.3,0.8,3.1,1.2,4.3c0.9,2.2-0.5,4-1.4,6
				c-1.5,3.2-0.8,4.3,0.3,7.4c2.4,6.5-6.5,7.5-8,11.8c-1.8,5.4,6.5,10.9-2.1,13.2c-5.6,1.5-8.4,7.4-11.6,11.7
				c-3.3,4.4-9.5,5.3-14.6,4.7c-2.7-0.3-5.1-1.5-7.7-2c-1.4-0.3-2.2,4-1.3,4.5c4.7,3,8.6,5,11.3,10.1c1.2,2.3,1.9,4.7,2.9,7.1
				c0.9,2.1,2,5,2.6,7.2c1.2,4.6,3.5,9,4.8,13.5c1.4,4.8,1.6,10,2.9,14.9c1.3,4.7,4.1,9.4,7,13.3c0.9,1.1,3.5,4.7,4.9,5
				c0.6,0.2,1,0.7,1.1,1.3c0.8-1,2.7,0.7,3.7,1.2c-1.7,0.7,4.5,2.7,6,3.3c1.8,0.7,3.8,1.2,5.6,2.1c1.6,0.8,0.7,2.4,2,2.6
				c4.1,0.5-1.1,4.8-4.3,3.4c-2.3-1-6.7,2.1-9.6,1.1c-6.2-2.1-12.7-4-17.7-8.9c-2.7-2.7-4.1-6-6.6-8.9c-0.6-0.8-3.4-7.8-2.1-9.2
				c0.8,2.1,1.4,5.2,2.7,7c1.4,2.1,4.9,3.8,6.9,5.2c1.3,1,12.9,8.9,13.9,7.1c-3.1-2.5-6.7-3.8-9.7-6.5c-3.5-3.2-5.4-6.7-7.1-11.1
				c-1.6-4-3.4-6.8-4.4-11.1c-1.3-5.6-0.9-11.2-2.3-16.8c-0.6-2.4-1.8-9.1-5.1-9.3c-3.6-0.2-4.1-2.3-6.8-4.8
				c-1.5-1.4-6.3-7.4-8.9-6.5c-4.1,1.4,1.9,6,2.7,7.5c2.9,5.2,7.4,12.8,7.1,18.9c-0.1,0,5,20.8,5.8,22.9c1.6,4.1,2.7,8.7,5.3,12.3
				c2.7,3.9,6.5,6,10.1,8.9c3.7,2.9,7.4,5.8,12.1,7c2.4,0.6,4.6,0.8,7,0.6c3.2-0.3,2,0.6,2.7,2.3c1.5-0.4,2.9-0.8,4.5-0.9
				c-2.8,5.9-14,0.7-17.8-1.2c-1.8-0.8-17.6-8.4-15-9.8c-0.8-1.2-0.8,0.4-1.7,0.2c-0.9-0.1-3.3-1.9-3.9-2.5
				c-1.8-1.9-5.8-5.3-5.1-8.3c1.4,0.7,6.8,11.2,7.4,6.6c-4.1-1.4-6.3-9.5-8-13c-1,1.8,1.1,3.4-0.1,5.2c-1.8-1.6-2-7.2-2.4-9.7
				c-0.8-4.6-1.3-9.2-2-13.7c-1.1-6.9-3.6-17.8-9.9-21.8c2.7-1,0.9-2-0.9-3.1c-2.5-1.5-2.9-1.9-5,0.6c-1.1,1.4,5.4,4.8,5.9,6.8
				c2.8,12.4-10.7-6.4-11.7-1.5c-0.3,1.5,5.9,6.4,7,7.9c2.5,3.2,3.6,5.9,4.7,9.8c1.3,4.8,2.2,9.7,3.3,14.5c0.8,3.5,3.1,6.8,3.5,10.3
				c-1.6-0.1-1.8-0.7-3.1-1.5c0.5,1.3,0.9,2,0.6,3.3c-6.3-5.5-5.6-16-6.7-23.6c-3.6,0.6-3.6-5.7-5.6-8.2c-1.4-1.8-2.9-2.9-4.8-4.2
				c-1.2-0.8-3-1.9-4.6-2.6c-5.8-2.5,2.5,4.6,3.4,5.4c1.5,1.5,0.6,4.5-1.4,2.5c-1.1-1.1-3.4-1.8-4.3-2.1c-1.1,2.8-0.4,0.7,0.1,3
				c0.2,1-1.9,0.7-2.3,1.7c-0.5,1.7,2.4,7.3,3.3,8.8c1.6,2.8,2.8,6.6,4.7,9.1c0.8,1.1,1.5,2.2,2.3,3.2c0.7,1-0.9,2.2-1.8,1.5
				c-5.1-4.3-6.7-12-12-16.4c-2.1-1.7-5.4-5.3-7.8-6.2c-1.1-0.4-9.8,2.7-9.3,3.7c0.4,0.9,4.1,2.3,5,3c1.4,1.1,2.8,2,4.2,3
				c3.8,2.8,6.6,6.5,9.9,9.9c1.7,1.8,3.2,3.6,4.8,5.5c1.2,1.5,1.9,3.9,3.2,5.2c1.5,1.4,2.6,3.3,3.7,5c0.9,1.3-1.6,1.7-2.3,0.5
				c-0.7-1.2-3.3-4.8-4.5-5.5c-1.1-0.6-1.6-2.5-2.7-2.7c0.1,0-1.8-1.6-1.9-2c-1.4-3-5.5-6-8-8.2c-3.7-3.2-7.5-3.7-11.4-6
				c-1.8,3.6,8.3,7.9,7.2,10.5c-1.6,3.5-9.8-6.1-12.4-5.7c-1.1,0.2-3-1.5-4.1-2c-2-0.9-5.4-1.6-7.8-2c-6.3-1.3-12.1,0-17.8,2.1
				c-5.6,2.2-11,3.1-16.3,6.5c-2.8,1.8-5.3,3.5-7.6,5.9c-0.4,0.4-3.8,3.3-3.3,0.3c0.5-2.4-0.8-2.4,1.7-4.2c2.5-1.8,5.1-3.4,7.7-5.1
				c1.7-1.1,18.8-9.5,18.6-10.2c-8,1-15.9,2.4-22.7,6.7c1.7,1-3.9,2.7-5.2,3.7c-4.1,2.9-7.9,5.5-11.1,9.4c-1.4,1.7-2.2,4.7-3.1,6.7
				c-0.5,1.2-1.2,2.6-2,3.5c-1.5,1.7-1.6-0.5-2-0.7c-2.2,4-3.6,7.8-4.8,12.2c-0.6,2.1-1.9,2.8-1.3,5.2c0.2,0.9,1.5,4.1,0.4,4.7
				c-0.5-0.7-1-1.4-1.5-2.1c-0.9,2.8-1,5.7-0.9,8.6c0.1,3.1,1.5,5.5,1.8,8.4c0.1,0.7-1.9,2,0.1,2.7c2.4,0.8,4,0.6,6.4,0.2
				c-2-7.2-1.3-13.7,0.1-20.9c0.3-1.6,8.3-21.5,11.7-18.2c0.8,0.8-3.9,7.8-4.4,8.8c-2,4.4-3.2,8.4-3.8,13.2c-0.6,4.5-1.8,8.5-0.6,13
				c1.4,4.9,2.7,4.5,7.5,5c-0.8-2.8-1.9-5.5-1.9-8.4c0.1-3.5,1.1-7.3,0.9-10.7c-0.1-2.3,2.1-5.1,2.9-7.3c1.2-3.3,2.5-6.2,3.3-9.7
				c0.7-2.7,4.3-4.8,6.2-6.6c2.2-2,4.4-4.3,6.5-6.4c3.9-4.1,10.7-7.8,16.1-9.2c7.4-1.9,14.6-0.7,22,0.9c6.3,1.4,11.2,4.2,17.1,6.5
				c7.1,2.8,13.4,6.8,20,10.7c1.5,0.9,6.4,3.2,7,4.9c0.7,1.9,1.3,2.3,3.3,3.7c0.8,0.6,3.7,1.9,3.3,3c-2-0.3-3.8-3.3-5.7-3
				c0.9,0.9,7.6,7.3,8.5,6.1c-0.4-0.4-2.7-1.8-2.4-2.4c1.9,0.6,4.4,1.9,3.2-2c-0.3-0.9-6.4-8.2-4.3-7.4c6.4,2.2,9.6,10,15.1,14.1
				c7.5,5.7,16.4,11.2,25.6,13.6c4,1,8,1.3,12.1,1.8c1.1,0.1,9.7-0.4,9.7-0.3c0,0.7-2.1,1.2-2.5,1.4c1.8,1.7,7.8-1.9,9.8-1.3
				c2,0.6-1,2.5-1.4,2.6c-1.8,0.4-1.1,2.3-2.6,3c-4,1.8-9.3,1.5-13.6,1.3c-1.5,0-12.3,0.8-10.3-1.5c-4.1-1.6-18.9-10-21.8-6.6
				c-0.2-2.6-0.1-1.4-1.8-1.6c-1.3-0.2-0.9-0.9-2.3-1.3c-3.4-1-7.1-5-9.9-7.1c-6.9-5.1-14.9-9.7-21.2-15.4c-6.1-5.5-15-13.5-23-15.6
				c-7.7-2.1-16.9-3-24.9-2.1c-8.9,0.9-15.8,1.6-22.3,8.2c-5.7,5.7-9.6,12.5-13.5,19.4c-2,3.5-7.9,23.7-1.8,25.2
				c3.7,0.9,8.3,1.9,12.5,2c1.8,0.1,7.6-1,8,1.4c1.2-2.9,20.5-0.5,20.5-0.1c-13.5,1.7-27.6,0.3-41.4,0.5c0.3,1.2,0.6,2.3,0.5,3.5
				c-2.8-1.1-2.1-4.4-6-4c-1.7,0.2-3.5-0.2-5.1,0.2c-1.5,0.4-2.2-1.1-3.6-1.4c-3.8-1-5.2-0.3-8.2,1.4c-1,0.6-8.3-2.9-9.8-3.5
				c0.9-0.8,1.7-1.6,2.6-2.4c-3.7-3.7-2.2-13.4-0.6-18c2.5-7.3,4.7-14.5,7.4-21.7c0.4-1.1,2.3-6.2-1.3-5.4c-2.7,0.6-5.6,6.7-6.9,8.9
				c-2.1,3.6-3.7,7.2-5.1,11c-0.7,1.8-1.4,3.6-2,5.4c-2.1,6.1,0.6-1-1.5,2c1.6,1.4,1.6,1.1,1,3.3c-1.3-3.8-1.7,0.2-1.7,1.8
				c0,2.6-0.4,4.9-0.2,7.6c0.1,1.3,0,3.7-0.5,5c-1,2.9-2.2-4.1-2.1-3.8c-1.8-3.5-0.2-13.3,1.4-17.1c2-4.6,3-9.7,4.8-14.5
				c0.7-1.8,2.8-0.5,3.3-1.9c1.1-2.9,2.1-5.5,3.8-8.2c3.1-5,7.9-9.6,10.4-14.9c1.1-2.2,3.4-3.1,5.1-4.6c1.7-1.5,4.8,0.7,2.5,2.6
				c-3.4,2.8-8.4,8.7-3.8,13c0.9-1.1-1.1-1,0,0c1.6-1.9,3.6-1.5,5.3-3.4c1.8-2,3.8-6.3,5.8-7.7c5.9-4.2,11.7-7,18.8-8.8
				c7.4-1.9,15.4-3.7,23-4.4c6.7-0.7,14.1-1.2,20.4-3.5c2.4-0.9,1.8-2.6,4.7-3.3c3.8-0.9,7.5-1.8,11.1-3.4c2.5-1.1,4-2.8,6-4.5
				c2-1.7,4.1-1.8,6.1-3.5c2.4-2.2,12.1-6.2,11.3-10.3c0.2,0.8,4.8-3.8,5.1-4.2c2.2-2.7,3.3-5.6,4.9-8.6c0.5,0.1,0.7,0.4,0.7,1.1
				c0.9-0.9-0.1-1.5-0.4-2.4c0.1,0.2,2.6-3.3,2.5-3.2c0.7-1.5,1.3-9.8,3.5-10.1c1.4-0.2,1.5-1.8,2.2-2.7c0.8-1,3.2-0.2,2.4,1
				c-1.5,2.2-3.2,6.4,1.5,4.7c0.4,0.5,0.2,0.9-0.5,1.4c1.8,0.1,1.9,0.5,2.8-0.8c0.5-0.6,2.5,0.6,3,0.5c1.5-0.3,2.4-1,3.6-1.8
				c0.7,1.6,2.9-0.6,3.4-1c3.2-2.3,4.8-4.5,7-7.9c1.6-2.5,5.1-3.8,7.8-4.8c3.7-1.4,1.9-0.8,1.5-4.3c-0.3-3.4-2.9-2.6-4.7-4.5
				c-1.9-2-1.1-7.7,1-9.3c4.1-3.4,2.2,6.3,4.2,6.6c0.8,0.1,5-3.7,5.8-4.4c-0.6-0.9-1.4,0.7-1.9-0.2c3.7-2.2,3.8-3.4,1.4-7.6
				c-2.3-3.9,1.6-5.1,2-9.3c0.1-1.3,0-2.6-0.3-3.9c-0.5-2.5,0.2-3.6,0.2-5.9c0-3.7-5-5.2-7.7-4.8c0,1.9-0.7,2.1-2.7,3.6
				c-3.8,2.9-4.3-1.2-7.1-2.2c-2.5-0.8-1.1-3.8-2.6-5.5c-2.1-2.3-7.8,0.4-6.6,3.9c0.8,2.4-2.7,7-4.2,8.5c-3,2.8-6.2,3.3-9.8,4.6
				c-1.9,0.7-3.8,1.1-5.8,1.4c-1.9,0.3-0.9-2.1,0.1-2.6c2.6-1.6,6.9-1.1,9.1-3.4c-8.2-4.6-18.5,0.5-22.8,7.8
				c-3.4,5.8-6.6,18.5-0.9,24.4c0.5-1,0.3-3.3,1.5-3c0,1-1,3.2-0.3,3.9c1,1,5.3-1.8,6.4-2.1c4.7-1.3,2.6,3.2,0.4,4.7
				c-3.5,2.5-6.4,4.3-10.5,4.2c-4.4-0.1-8.9,1.1-13.2,1.2c-5.8,0.2-11.4-0.6-17.2-1.1c-4.1-0.3-7.6-2.3-11.4-3.1
				c-1.7-0.4-3.3-1.2-4.9-1.7c-1.4-0.3-2.2-1.2-2.5-2.6c-0.5,0.2-1,0.3-1.5,0.3c-3.4-0.8-6.3-4.3-9.3-5.8c-3-1.5-6.5-4.1-9.1-6.3
				c-2.7-2.4-6.3-4.4-9.2-6.6c-2.9-2.2-6.3-3.7-8.7-6.3c-1.9-2.1-4.9-6.9-8.2-6.3c-0.6,0.1-1.4-2.2-2.3-2.5
				c-2.1-0.7-2.3-1.8-3.9-2.9c-1.1-0.8-3.1-1.4-4.5-2.4c-1.9-1.3-4.2-1.9-6.4-2.6c-5.4-1.7-11.4-2.2-17.1-2.3
				c-2.8-0.1-12,1.7-10-3.1c-0.8,0.2-1.5,0.1-2.2-0.2c0.9-1.4,3.6-1.6,2.6-3.1c8.6-1,18.5,0.3,26.6,3.7c6.8,2.9,15.4,4.6,21.5,9.2
				c2.6,2,5.7,3.7,7.9,6.2c1,1.2,5,4.7,6.2,5.1c2.2,0.7,6.9,5.2,8.2,7c1.2,0.6,3.1,2.3,4.4,2.4c1.6,0.1,2.4,5,4.1,2.6
				c-5.3-8.6-10.5-17.6-18.3-24.4c-1.6-1.4-3.3-2.6-4.9-4c-1.9-1.7,2.6-1.5,3.5-0.8c3.4,2.5,6.3,5.1,9.6,7.8
				c1.7,1.4,2.9,3.3,4.5,4.9c2.9,2.9,1.9,0.8,3.2-1.3c3.1-4.8,7.9,6.2,8.7,7.6c2.8,4.4,5.2,9.1,8.2,13.5c2.1,3.2,10.2,13.2,14.1,9.2
				c-9.9-9.8-17.5-22.1-22-35.1c-2.9-8.4-7.2-14.8-14.7-19.6c-2.6-1.7-2.7-2.6-6.2-2.6c-1.1,0-8.2-1-6.3,1.6
				c0.8,1.1,4.2,2.7,5.4,3.5c2.2,1.3,4.4,3.8,6.1,5.6c1.8,1.9,3.6,4.1,5,6.2c0.6,0.9,2.2,2.1,2.5,3.2c0.6,2.4-4.3-0.2-4.7-0.6
				C101,33.1,94,26.3,86.4,23.4c-2.9-1.1-6.5-3.8-9.8-3c-1.2,0.3-7.9-0.1-8.3-1.5c-1,1.5-2.4-0.2-3.4-0.7c-0.6,1.4,10.5,7,12.3,7.5
				c1.9,0.5,3.4,1.5,2.3,3.7c-1.2,2.3-5.8-0.9-7.4-1.5C60,23.4,47.5,21,34.9,23.7c-0.1-4,15.1-1.2,14.2-4.5c-2,0-5.1,0.8-6.7-0.9
				c1.4-0.7,4.3-0.5,5.8-0.4c1.8,0.1,3.1-0.8,5-0.9c5-0.3,9.9-0.6,14.9-0.3c8.9,0.5,17.7,0.9,26.8,1.3c8.3,0.4,16.9,0.4,25.4,0.4
				c5.6,0,11.3,0.4,16.8,0c2.4-0.2,11.4-1.1,12.7,0.9c-7.3,1-15.2,0-22.6,0.3c-2.8,0.1-20.6-1.9-21.4,0.3c2,1.4,3.8,2.1,5.7,3.8
				c2.9,2.5,4.5,6,7.4,8.6c-1-4.1-2.7-7.9-5.3-11.2c2.8-1.8,9.3,19,10,21.1c2.6,7.4,6.8,13.3,10.8,19.9c3.8,6.3,13.1,11.9,19.6,14.8
				c3.6,1.6,7.3,2.8,11.2,2.5c2.8-0.2,6.9,2.1,4.6-2.5c-6.8-13.2,1.4-33.9,15.7-37.9c2.6-0.7,6.3-1.3,9.1-1.3
				c4.3-0.1,5.9,1.8,10-0.2c2.9-1.4,0.8-4.8,1-6.7c0.3-2.7,11.5-5.1,11.5-2.5L217.4,29.1z"/>
		</defs>
		<clipPath id="SVGID_2_">
			<use xlink:href="#SVGID_1_"  style="overflow:visible;"/>
		</clipPath>
		
			<linearGradient id="SVGID_3_" gradientUnits="userSpaceOnUse" x1="407.273" y1="492.5095" x2="1414.0842" y2="492.5095" gradientTransform="matrix(6.123234e-17 1 -1 6.123234e-17 627.4642 -380.6063)">
			<stop  offset="0" style="stop-color:#CB2128"/>
			<stop  offset="0.1" style="stop-color:#8F2125"/>
			<stop  offset="0.4" style="stop-color:#C82229"/>
			<stop  offset="0.71" style="stop-color:#781C1E"/>
			<stop  offset="1" style="stop-color:#CB2128"/>
		</linearGradient>
		<rect x="12" y="16.4" class="st1" width="246" height="219.6"/>
	</g>
	<path class="st0" d="M327.4,170.3c-7.4-2.6-13.9-6.5-19.5-11.7c-3.4-3.2-6.2-6.5-8.4-10.1c-2.2-3.5-3.9-7.1-5.2-10.8
		c-1.3-3.7-2.2-7.3-2.7-11c-0.5-3.7-0.8-7.3-0.8-10.7c0-2.4,0.2-5.2,0.7-8.4c0.5-3.2,1.3-6.6,2.5-10.1c1.2-3.5,2.8-7.1,4.9-10.7
		c2.1-3.6,4.7-7,7.8-10.2c2.1-2.1,4.5-4.1,7.2-6.1c2.7-1.9,5.8-3.5,9.3-4.9c3.5-1.3,7.4-2.4,11.8-3.2c4.4-0.8,9.3-1.2,14.7-1.2
		c2.8,0,6.1,0.1,9.7,0.4c3.7,0.2,7.2,0.7,10.7,1.4c2.7,0.5,5.2,0.9,7.5,1.3c2.3,0.4,4.6,0.7,6.8,0.9c0.8,0.1,1.2,0.3,1.5,0.5
		c0.2,0.2,0.3,0.6,0.3,1.1c0,0.6-0.1,1.4-0.2,2.5c-0.1,1.1-0.3,3-0.5,5.5c-0.1,1.2-0.2,2.5-0.2,4c-0.1,1.5-0.1,3-0.1,4.4
		c0,1.4,0,2.7-0.1,3.9c0,1.1-0.1,2-0.1,2.6c-0.1,2-0.5,3-1.3,3c-0.8,0-1.1-1-1.1-3c0-2.8-0.5-5.5-1.6-8.2c-1-2.7-2.5-4.8-4.4-6.5
		c-2.4-2.2-6.2-4.1-11.3-5.8c-5.1-1.6-10.7-2.5-16.9-2.5c-4.7,0-8.8,0.3-12.3,0.9c-3.5,0.6-6.5,1.5-9.1,2.5c-2.6,1-4.8,2.1-6.6,3.4
		c-1.8,1.2-3.3,2.5-4.5,3.7c-5.2,5.1-8.6,10.8-10.2,17.1c-1.6,6.3-2.5,13.1-2.5,20.5c0,6.9,1.2,13.5,3.7,19.9
		c2.5,6.3,6,11.9,10.4,16.8c4.5,4.9,9.8,8.7,16.1,11.7c6.2,2.9,13.1,4.4,20.6,4.4c5.4,0,10.1-0.5,14.2-1.4c4.1-0.9,7.5-2.9,10.4-5.8
		c1.5-1.6,2.7-3.7,3.6-6.3c0.9-2.5,1.4-4.5,1.6-5.8c0.3-1.4,0.7-2.2,1.4-2.2c0.4,0,0.6,0.2,0.8,0.6c0.1,0.4,0.2,0.9,0.2,1.5
		c0,0.3-0.1,1.2-0.3,2.7c-0.2,1.5-0.4,3.2-0.7,5.1c-0.3,1.9-0.6,3.9-1,5.8c-0.4,2-0.8,3.6-1.1,4.8c-0.5,1.4-0.9,2.2-1.2,2.7
		c-0.3,0.4-1.2,0.9-2.5,1.5c-1.4,0.6-3.1,1.1-5.1,1.5c-2,0.4-4.1,0.8-6.3,1c-2.3,0.2-4.6,0.4-7,0.6c-2.4,0.1-4.7,0.2-7,0.2
		C343.8,174.2,334.8,172.9,327.4,170.3"/>
	<path class="st0" d="M403.8,90.8c0-3.7,0-6.8,0-9.2c0-2.4,0-4.3,0-5.7c0-1.5,0-2.7,0-3.5c0-0.9-0.1-1.7-0.1-2.5
		c-0.1-1.7-0.4-2.9-1-3.8c-0.5-0.8-1.6-1.4-3.1-1.7c-0.4-0.1-0.9-0.2-1.6-0.2c-0.7,0-1.2,0-1.7,0c-0.5,0-0.8-0.2-0.8-0.6
		c0-0.5,0.5-0.8,1.5-0.8c1.1,0,2.2,0,3.4,0.1c1.2,0,2.3,0.1,3.3,0.1c1,0,2,0.1,2.7,0.1c0.8,0,1.3,0,1.5,0c0.2,0,0.7,0,1.4,0
		c0.8,0,1.6-0.1,2.6-0.1c0.9,0,1.9-0.1,2.9-0.1c1,0,1.8-0.1,2.5-0.1c1,0,1.5,0.3,1.5,0.8c0,0.4-0.3,0.6-0.8,0.6l-1,0
		c-0.4,0-0.8,0.1-1.4,0.2c-1.3,0.2-2.1,0.7-2.6,1.6c-0.5,0.9-0.8,2.2-0.9,3.9c-0.1,0.8-0.1,1.6-0.1,2.5c0,0.9,0,2.1,0,3.5
		c0,1.4,0,3.3,0,5.7c0,2.4,0,5.5,0,9.2v13.6c0,3.5,0.2,6.5,0.5,9.1c0.3,2.6,0.8,4.8,1.5,6.6c0.6,1.9,1.4,3.5,2.3,4.8
		c0.9,1.3,1.8,2.5,2.8,3.4c2.3,2.3,4.6,3.7,6.9,4.4c2.2,0.6,4.7,1,7.5,1c2.9,0,5.7-0.6,8.4-1.9c2.7-1.3,4.8-3,6.5-5
		c2.2-2.8,3.7-6.2,4.4-10.2c0.7-4,1.1-8.5,1.1-13.6V90.8c0-3.7,0-6.8,0-9.2c0-2.4,0-4.3,0-5.7c0-1.5,0-2.7,0-3.5
		c0-0.9-0.1-1.7-0.1-2.5c-0.1-1.7-0.4-2.9-0.9-3.8c-0.5-0.8-1.5-1.4-3.1-1.7c-0.4-0.1-0.9-0.2-1.6-0.2c-0.7,0-1.2,0-1.7,0
		c-0.5,0-0.8-0.2-0.8-0.6c0-0.5,0.5-0.8,1.5-0.8c1.1,0,2.2,0,3.3,0.1c1.1,0,2.2,0.1,3.1,0.1c0.9,0,1.8,0.1,2.4,0.1
		c0.7,0,1.1,0,1.2,0c0.2,0,0.6,0,1.1,0c0.6,0,1.2-0.1,2-0.1c0.8,0,1.6-0.1,2.5-0.1c0.9,0,1.6-0.1,2.3-0.1c1,0,1.5,0.3,1.5,0.8
		c0,0.4-0.3,0.6-0.8,0.6l-1,0c-0.4,0-0.8,0.1-1.4,0.2c-1.3,0.3-2.1,0.9-2.6,1.7c-0.5,0.8-0.8,2.1-0.9,3.8c-0.1,0.8-0.1,1.6-0.1,2.5
		c0,0.9,0,2.1,0,3.5c0,1.4,0,3.3,0,5.7c0,2.4,0,5.5,0,9.2l0,10.4c0,2.6-0.1,5.3-0.3,8c-0.2,2.7-0.6,5.3-1.2,7.9
		c-0.6,2.6-1.5,4.9-2.7,7.2c-1.1,2.2-2.7,4.2-4.6,6c-1.7,1.6-3.4,2.8-5.2,3.7c-1.7,0.9-3.4,1.7-5.1,2.2c-1.6,0.5-3.3,0.8-4.8,1
		c-1.6,0.2-3.1,0.2-4.5,0.2c-0.8,0-2,0-3.5-0.1c-1.5-0.1-3.1-0.4-5-0.8c-1.8-0.5-3.7-1.1-5.6-2.1c-1.9-0.9-3.8-2.2-5.5-3.8
		c-1.1-1.2-2.2-2.5-3.2-3.9c-1-1.5-1.9-3.2-2.7-5.2c-0.8-2-1.3-4.4-1.8-7c-0.4-2.6-0.6-5.8-0.6-9.3V90.8z"/>
	<path class="st0" d="M488.1,90.8c0-3.7,0-6.8,0-9.2c0-2.4,0-4.3,0-5.7c0-1.5,0-2.7,0-3.5c0-0.9-0.1-1.7-0.1-2.5
		c-0.1-1.7-0.4-2.9-1-3.8c-0.5-0.8-1.5-1.4-3.1-1.7c-0.4-0.1-0.9-0.2-1.6-0.2c-0.7,0-1.2,0-1.7,0c-0.5,0-0.8-0.2-0.8-0.6
		c0-0.5,0.5-0.8,1.5-0.8c1.1,0,2.2,0,3.4,0c1.2,0,2.3,0,3.4,0.1l3.9,0.2c0.2,0,1.3,0,3.3,0c2.1,0,4.4,0,6.9,0c2.6,0,5,0,7.3,0
		c2.2,0,3.7-0.1,4.2-0.1c1.8-0.1,3.2-0.3,4.1-0.5l0.7-0.3l0.7-0.2c0.3,0,0.4,0.3,0.4,0.9c0,0.3-0.1,0.8-0.3,1.5
		c-0.2,0.7-0.3,1.7-0.5,3.1c0,0.3,0,0.7-0.1,1.3c0,0.6-0.1,1.2-0.1,1.9c-0.1,0.7-0.1,1.3-0.1,1.9c0,0.6-0.1,1-0.1,1.3l-0.2,0.7
		l-0.4,0.3c-0.5,0-0.8-0.4-0.8-1.3c0-0.3,0-0.8-0.1-1.6c-0.1-0.7-0.2-1.4-0.5-1.9c-0.3-0.8-0.9-1.4-1.7-2c-0.8-0.5-2.5-1-5-1.3
		c-0.4-0.1-1.2-0.1-2.6-0.1c-1.3,0-2.7-0.1-4.2-0.1c-1.5,0-2.8,0-4.1,0c-1.2,0-1.9,0-2.2,0c-0.4,0-0.6,0.3-0.6,1c0,0,0,42.5,0,44.1
		c0,1.6,0,3.3,0,5c0,1.7,0,3.4,0,4.8c0,1.5,0,2.5,0,3c0.1,1.7,0.2,3,0.5,4.1c0.3,1,0.8,1.8,1.6,2.4c0.8,0.6,1.9,1,3.3,1.2
		c1.4,0.2,3.3,0.3,5.6,0.3c1.3,0,2.8,0,4.6-0.1c1.8-0.1,3.3-0.4,4.6-0.9c1.3-0.5,2.2-1.3,2.8-2.4c0.6-1.1,1.1-2.6,1.4-4.6
		c0.2-1,0.5-1.5,0.9-1.5l0.5,0.5l0,1c0,0.2,0,0.7-0.1,1.5c-0.1,0.8-0.2,1.7-0.3,2.7c-0.1,1-0.3,2-0.4,3c-0.1,1-0.3,1.7-0.4,2.2
		c-0.2,0.6-0.4,1.1-0.6,1.5l-0.9,0.7c-0.4,0.2-0.8,0.3-1.4,0.3c-0.6,0-1.3,0-2.3,0c-3.6,0-6.7,0-9.3-0.1c-2.6-0.1-4.9-0.1-6.7-0.2
		c-1.8-0.1-3.4-0.2-4.6-0.2c-1.2,0-2.2,0-2.8,0c-0.1,0-0.5,0-1.2,0c-0.7,0-1.6,0-2.6,0.1c-1,0-1.9,0-2.9,0.1c-1,0.1-1.9,0.1-2.6,0.1
		c-1,0-1.5-0.3-1.5-0.8c0-0.4,0.3-0.6,0.8-0.6c0.4,0,0.9,0,1.4-0.1c0.5-0.1,1-0.2,1.4-0.3c1-0.2,1.6-0.8,1.9-1.7
		c0.3-1,0.6-2.2,0.8-3.6c0.3-2.1,0.4-4.9,0.4-8.6c0-3.6,0-7.8,0-12.5L488.1,90.8z"/>
	<path class="st0" d="M794,107.8c0,4.7,0,8.8,0,12.5c0,3.7,0.2,6.5,0.4,8.6c0.1,1.4,0.4,2.6,0.9,3.6c0.4,1,1.4,1.6,2.8,1.7
		c0.7,0.1,1.5,0.2,2.3,0.3c0.9,0.1,1.5,0.1,1.9,0.1c0.5,0,0.8,0.2,0.8,0.6c0,0.5-0.5,0.8-1.5,0.8c-1.3,0-2.7,0-4,0
		c-1.3,0-2.5-0.1-3.7-0.1c-1.1,0-2-0.1-2.7-0.1c-0.7,0-1.2,0-1.3,0c-0.1,0-0.6,0-1.3,0c-0.7,0-1.6,0.1-2.5,0.1
		c-0.9,0-1.9,0.1-2.9,0.1c-1,0-1.9,0-2.6,0c-1,0-1.5-0.3-1.5-0.8c0-0.4,0.3-0.6,0.8-0.6c0.4,0,0.9,0,1.4-0.1c0.5-0.1,1-0.2,1.4-0.3
		c1-0.2,1.6-0.8,1.9-1.7c0.4-1,0.6-2.2,0.8-3.6c0.3-2.1,0.4-4.9,0.4-8.6c0-3.6,0-7.8,0-12.5l0-17.1c0-3.7,0-6.8,0-9.2
		c0-2.4,0-4.3,0-5.7c0-1.5,0-2.7,0-3.5c0-0.9-0.1-1.7-0.1-2.5c-0.2-3.2-1.3-5-3.2-5.4c-0.5-0.1-1-0.2-1.6-0.3
		c-0.6-0.1-1-0.1-1.3-0.1c-0.5,0-0.8-0.2-0.8-0.6c0-0.5,0.5-0.8,1.5-0.8c0.8,0,1.7,0,2.8,0.1c1.1,0,2.1,0.1,3,0.1
		c1,0,1.8,0.1,2.5,0.1c0.7,0,1.2,0,1.3,0c0.1,0,0.5,0,1.3,0c0.7,0,1.6-0.1,2.5-0.1c0.9,0,1.9-0.1,2.9-0.1c1,0,1.9-0.1,2.6-0.1
		c1,0,1.5,0.3,1.5,0.8c0,0.4-0.3,0.6-0.8,0.6l-1,0c-0.4,0-0.8,0.1-1.4,0.2c-1.3,0.3-2.1,0.8-2.6,1.7c-0.5,0.9-0.8,2.2-0.9,3.8
		c-0.1,0.8-0.1,1.6-0.1,2.5c0,0.9,0,2.1,0,3.5c0,1.4,0,3.3,0,5.7c0,2.4,0,5.5,0,9.2L794,107.8z"/>
	<path class="st0" d="M893.6,114c0,3.9,0,7.3,0,10.1c0,2.8-0.1,5.3-0.3,7.5c-0.2,2.2-0.5,4.1-0.9,5.8c-0.4,1.7-0.9,3.4-1.6,5.2
		c-1,2.5-2.6,4.9-4.8,7.2c-2.2,2.4-5.2,4.9-9.1,7.6c-0.6,0.4-1.3,0.9-1.9,1.4c-0.7,0.4-1.3,0.8-1.8,1.1l-0.7,0.2
		c-0.4,0-0.7-0.2-0.7-0.6l0.3-0.7c0.2-0.2,0.6-0.4,1-0.7c0.6-0.3,1.2-0.7,1.8-1.3c0.6-0.5,1.1-1,1.6-1.4c1.5-1.6,2.8-3.2,4-4.9
		c1.1-1.7,2.1-3.8,2.8-6.4c0.8-2.6,1.3-5.9,1.7-9.9c0.4-4,0.6-9.1,0.6-15.4v-28c0-3.7,0-6.8,0-9.2c0-2.4,0-4.3,0-5.7
		c0-1.5,0-2.7-0.1-3.5c0-0.9-0.1-1.7-0.1-2.5c-0.1-1.7-0.4-2.9-0.9-3.8c-0.5-0.8-1.6-1.4-3.1-1.7c-0.4-0.1-0.9-0.2-1.6-0.2
		c-0.7,0-1.2,0-1.7,0c-0.5,0-0.8-0.2-0.8-0.6c0-0.5,0.5-0.8,1.5-0.8c1.1,0,2.2,0,3.4,0.1c1.2,0,2.3,0.1,3.4,0.1c1,0,1.9,0.1,2.7,0.1
		c0.7,0,1.2,0,1.3,0c0.1,0,0.5,0,1.3,0c0.7,0,1.6-0.1,2.5-0.1c1,0,1.9-0.1,3-0.1c1,0,1.9-0.1,2.6-0.1c1,0,1.5,0.3,1.5,0.8
		c0,0.4-0.3,0.6-0.8,0.6l-1,0c-0.4,0-0.8,0.1-1.4,0.2c-1.3,0.3-2.1,0.8-2.6,1.7c-0.5,0.9-0.8,2.2-0.9,3.8c-0.1,0.8-0.1,1.6-0.1,2.5
		c0,0.9,0,2.1,0,3.5c0,1.4,0,3.3,0,5.7c0,2.4,0,5.5,0,9.2V114z"/>
	<path class="st0" d="M909.9,105.1c0.9-4.3,2.4-8.5,4.3-12.7c2-4.2,4.4-8.1,7.3-11.9c2.9-3.8,6.5-7.1,10.6-9.9
		c4.1-2.9,8.8-5.1,14-6.8c5.2-1.7,11.1-2.5,17.5-2.5c7.8,0,15.1,1.2,21.8,3.7c6.7,2.5,12.5,6,17.4,10.7c4.9,4.6,8.8,10.3,11.6,16.9
		c2.8,6.6,4.2,14.1,4.2,22.4c0,8-1.3,15.6-4,22.7c-2.7,7.1-6.4,13.3-11.3,18.6c-4.9,5.3-10.7,9.5-17.7,12.6
		c-6.9,3.1-14.6,4.6-23,4.6c-9.6,0-17.9-1.7-24.7-5.1c-6.9-3.4-12.5-7.9-16.9-13.3c-4.4-5.4-7.6-11.5-9.7-18.1
		c-2.1-6.6-3.1-13.2-3.1-19.7C908.5,113.4,909,109.4,909.9,105.1 M925.2,135.9c2.3,6.8,5.5,12.6,9.5,17.3c4.1,4.8,8.8,8.4,14.2,11
		c5.4,2.6,11.3,3.9,17.6,3.9c3.2,0,7-0.6,11.3-1.8c4.4-1.2,8.6-3.6,12.7-7.1c4.1-3.5,7.5-8.5,10.4-15c2.8-6.4,4.3-14.9,4.3-25.3
		c0-8.6-1.2-16.2-3.6-22.8c-2.4-6.6-5.5-12.1-9.5-16.5c-3.9-4.4-8.5-7.8-13.6-10.1c-5.1-2.3-10.5-3.4-16-3.4c-5.9,0-11.3,1-16.3,2.9
		c-5,2-9.3,4.9-13,8.9c-3.6,3.9-6.5,8.9-8.5,14.7c-2,5.9-3.1,12.7-3.1,20.5C921.8,121.5,922.9,129.1,925.2,135.9z"/>
	<path class="st0" d="M585.6,115.8c-3.2-4.2-6.8-8.8-10.7-14c4.2-4,5.8-7.2,7.6-10.9c1.7-3.6,2.6-7.3,2.6-10.9
		c0-1.7-0.2-3.2-0.7-4.7c-0.5-1.4-1-2.7-1.7-3.8c-0.7-1.1-1.4-2-2.1-2.9c-0.8-0.8-1.4-1.4-2-1.9c-2.5-1.9-5.3-3-8.3-3.5
		c-3-0.5-6-0.7-9.1-0.7c-0.8,0-1.7,0-2.8,0.1c-1.1,0-2.3,0.1-3.5,0.1c-1.2,0-2.2,0.1-3.1,0.1c-0.9,0-1.5,0-1.8,0c-0.1,0-0.5,0-1.3,0
		c-0.7,0-1.6-0.1-2.7-0.1c-1,0-2.2-0.1-3.4-0.1c-1.2,0-2.3-0.1-3.4-0.1c-1,0-1.5,0.3-1.5,0.8c0,0.4,0.2,0.6,0.8,0.6c0.4,0,1,0,1.7,0
		c0.7,0,1.2,0.1,1.6,0.2c1.6,0.3,2.6,0.9,3.1,1.7c0.5,0.8,0.8,2.1,1,3.8c0.1,0.8,0.1,1.6,0.1,2.5c0,0.9,0.1,2.1,0.1,3.5
		c0,1.4,0,3.3,0,5.7c0,2.4,0,5.5,0,9.2v17.1c0,4.7,0,8.8-0.1,12.5c0,3.7-0.2,6.5-0.4,8.6c-0.2,1.4-0.5,2.6-0.8,3.6
		c-0.3,1-1,1.6-1.9,1.7c-0.4,0.1-0.9,0.2-1.4,0.3c-0.5,0.1-1,0.1-1.4,0.1c-0.5,0-0.8,0.2-0.8,0.6c0,0.5,0.5,0.8,1.5,0.8
		c0.7,0,1.6,0,2.6,0c1,0,2-0.1,2.9-0.1c0.9,0,2.1-0.1,3.4-0.2c0.1,0,0.6,0,1.3,0c0.7,0,1.6,0.1,2.8,0.1c1.1,0,2.3,0.1,3.6,0.1
		c1.3,0,2.7,0,4,0c1,0,1.5-0.3,1.5-0.8c0-0.4-0.3-0.6-0.8-0.6c-0.4,0-1.1,0-2-0.1c-0.9-0.1-1.6-0.2-2.3-0.3
		c-1.5-0.2-2.4-0.8-2.8-1.7c-0.4-1-0.7-2.2-0.9-3.6c-0.3-2.1-0.4-4.9-0.4-8.6c0-3.6,0-7.8,0-12.5v-2.3c0-0.5,0.2-0.8,0.7-0.8
		l11.7,0.2c0.4,0,0.9,0.2,1.2,0.6c0.4,0.6,1.1,1.5,1.8,2.6c0.8,1.1,1.6,2.3,2.6,3.5c0.9,1.3,1.9,2.6,2.9,4.1c1,1.4,2,2.8,3,4.2
		c0.5,0.7,1,1.4,1.5,2c56,73.8,120.7,24.8,120.7,24.8C631.8,181.3,585.6,115.8,585.6,115.8 M571.3,100.1c-1.1,0.8-2.2,1.3-3.5,1.5
		c-1.3,0.2-2.5,0.3-3.6,0.3c-2.1,0-4.1-0.1-6-0.4c-1.9-0.3-3.2-0.7-3.9-1.1c-0.4-0.3-0.7-0.6-0.7-1.2V67.5c0-0.6,0.3-1,0.8-1.2
		c0.5-0.1,1.3-0.3,2.5-0.4c1.1-0.1,2.4-0.2,3.9-0.2c5.1,0,9.1,1.7,12,5.1c2.9,3.4,4.4,8.2,4.4,14.3c0,3.7-0.6,6.8-1.7,9.4
		C574.3,97.1,572.9,98.9,571.3,100.1z"/>
	<path class="st0" d="M770.3,62.7c-0.7,0-1.4,0-2.2,0.1c-0.8,0-1.6,0.1-2.3,0.1c-0.7,0-1.4,0.1-1.9,0.1c-0.5,0-0.9,0-1,0
		c-0.6,0-1.8,0-3.7-0.1c-1.9-0.1-3.7-0.1-5.6-0.1c-1.4,0-2.1,0.3-2.1,0.8c0,0.4,0.3,0.6,1,0.6c0.5,0,1.1,0,1.8,0
		c0.7,0,1.3,0.1,1.8,0.3c0.5,0.3,0.8,0.6,1,1c0.2,0.4,0.2,0.8,0.2,1.2c0,0.5-0.1,1-0.2,1.6c-0.2,0.6-0.4,1.3-0.6,2
		c-0.4,1.2-1,3-1.8,5.5c-0.9,2.5-1.9,5.4-3.1,8.7c-1.2,3.3-2.5,6.8-3.9,10.5c-1.4,3.7-2.8,7.4-4.2,11c-1.4,3.6-2.7,7-4,10.1
		c-1.3,3.2-2.3,5.9-3.2,8L726,96.4c0,0-47.1-120-152.7-51.4c0,0,96.9-53.7,146.7,59.2l0,0l10.6,27.1c0.9,2.3,1.5,3.9,1.9,4.8
		c0.4,0.8,0.9,1.3,1.5,1.3c0.4,0,0.9-0.5,1.3-1.5c0.4-1,1.3-3,2.7-5.9c1.1-2.4,2.7-6.1,4.7-11.1c2.1-5,4.6-11.1,7.5-18.2
		c1.2-3,2.4-5.9,3.6-8.7c1.2-2.8,2.2-5.5,3.2-7.8c0.9-2.4,1.8-4.4,2.5-6.1c0.7-1.7,1.2-2.9,1.4-3.6c0.6-1.6,1.2-3,1.7-4.1
		c0.5-1.1,1-2,1.4-2.7c0.4-0.7,0.8-1.2,1.1-1.6l1-0.8c0.9-0.6,1.8-0.9,2.7-1c0.9-0.1,1.5-0.1,1.9-0.1c0.8,0,1.1-0.2,1.1-0.7
		C771.9,62.9,771.3,62.7,770.3,62.7"/>
	<path class="st0" d="M498,103.6c-1.4-0.7-2.4-1.2-3.1-1.5c-0.9-0.4-1.8-0.9-2.8-1.4c-1-0.5-2.2-0.8-3.6-0.8c-0.8,0-1.6,0.1-2.2,0.4
		c-0.7,0.3-1.2,0.6-1.7,1c-0.5,0.4-0.9,0.8-1.1,1.2l-0.7,0.9c-0.5,0.6-0.9,0.9-1.3,0.9l-0.6-0.6l0.2-0.7l0.5-0.8
		c0.3-0.5,0.8-1.2,1.4-1.9c0.6-0.8,1.3-1.5,2-2.3c0.8-0.7,1.5-1.4,2.4-1.9c0.8-0.5,1.6-0.8,2.4-0.8c1.1,0,2.4,0.3,3.7,1
		c1.4,0.6,2.8,1.3,4.2,2c0.7,0.3,1.6,0.7,2.7,1.1c1.1,0.4,2,0.6,2.8,0.6c0.9,0,1.7-0.1,2.4-0.4c0.7-0.3,1.3-0.5,1.8-0.9
		c0.5-0.3,0.9-0.6,1.1-0.9l0.5-0.6c0.4-0.7,0.8-1.1,1.1-1.1c0.4,0,0.7,0.2,0.7,0.6c0,0.3-0.1,0.7-0.4,1.3c-0.2,0.4-0.6,1-1.1,1.7
		c-0.6,0.7-1.2,1.5-2,2.2c-0.8,0.7-1.5,1.4-2.4,1.9c-0.8,0.5-1.6,0.8-2.4,0.8C500.8,104.6,499.3,104.3,498,103.6"/>
	<path class="st0" d="M827.7,90.8c0-3.7,0-6.8,0-9.2c0-2.4,0-4.3,0-5.7c0-1.5,0-2.7-0.1-3.5c0-0.9-0.1-1.7-0.1-2.5
		c-0.1-1.7-0.4-2.9-0.9-3.8c-0.5-0.8-1.6-1.4-3.1-1.7c-0.4-0.1-0.9-0.2-1.6-0.2c-0.7,0-1.2,0-1.7,0c-0.5,0-0.8-0.2-0.8-0.6
		c0-0.5,0.5-0.8,1.5-0.8c1.1,0,2.2,0,3.4,0c1.2,0,2.3,0,3.4,0.1l3.9,0.2c0.2,0,1.3,0,3.3,0c2.1,0,4.4,0,6.9,0c2.6,0,5,0,7.3,0
		c2.2,0,3.7-0.1,4.2-0.1c1.8-0.1,3.2-0.3,4.1-0.5l0.7-0.3l0.7-0.2c0.2,0,0.4,0.3,0.4,0.9c0,0.3-0.1,0.8-0.3,1.5
		c-0.2,0.7-0.4,1.7-0.5,3.1c0,0.3,0,0.7-0.1,1.3c0,0.6-0.1,1.2-0.1,1.9c-0.1,0.7-0.1,1.3-0.1,1.9c0,0.6-0.1,1-0.1,1.3l-0.2,0.7
		l-0.4,0.3c-0.5,0-0.8-0.4-0.8-1.3c0-0.3,0-0.8-0.1-1.6c-0.1-0.7-0.2-1.4-0.5-1.9c-0.3-0.8-0.9-1.4-1.7-2c-0.8-0.5-2.5-1-5-1.3
		c-0.4-0.1-1.2-0.1-2.6-0.1c-1.3,0-2.7-0.1-4.2-0.1c-1.5,0-2.8,0-4.1,0c-1.2,0-1.9,0-2.2,0c-0.4,0-0.6,0.3-0.6,1c0,0,0,42.5,0,44.1
		c0,1.6,0,3.3,0,5c0,1.7,0,3.4,0,4.8c0,1.5,0,2.5,0,3c0.1,1.7,0.2,3,0.5,4.1c0.3,1,0.8,1.8,1.6,2.4c0.8,0.6,1.9,1,3.3,1.2
		c1.4,0.2,3.3,0.3,5.6,0.3c1.3,0,2.8,0,4.6-0.1c1.8-0.1,3.3-0.4,4.5-0.9c1.3-0.5,2.2-1.3,2.9-2.4c0.6-1.1,1.1-2.6,1.4-4.6
		c0.2-1,0.5-1.5,0.9-1.5l0.5,0.5l0,1c0,0.2,0,0.7-0.1,1.5c-0.1,0.8-0.2,1.7-0.3,2.7c-0.1,1-0.3,2-0.4,3c-0.1,1-0.2,1.7-0.4,2.2
		c-0.2,0.6-0.4,1.1-0.6,1.5l-0.9,0.7c-0.4,0.2-0.9,0.3-1.4,0.3c-0.6,0-1.3,0-2.3,0c-3.6,0-6.7,0-9.3-0.1c-2.6-0.1-4.9-0.1-6.7-0.2
		c-1.8-0.1-3.4-0.2-4.6-0.2c-1.2,0-2.2,0-2.8,0c-0.1,0-0.5,0-1.2,0c-0.7,0-1.6,0-2.6,0.1c-1,0-1.9,0-2.9,0.1c-1,0.1-1.9,0.1-2.6,0.1
		c-1,0-1.5-0.3-1.5-0.8c0-0.4,0.3-0.6,0.8-0.6c0.4,0,0.9,0,1.4-0.1c0.5-0.1,1-0.2,1.4-0.3c0.9-0.2,1.6-0.8,1.9-1.7
		c0.3-1,0.6-2.2,0.8-3.6c0.3-2.1,0.4-4.9,0.4-8.6c0-3.6,0.1-7.8,0.1-12.5V90.8z"/>
	<path class="st0" d="M837.7,103.6c-1.4-0.7-2.4-1.2-3.1-1.5c-0.9-0.4-1.8-0.9-2.8-1.4c-1-0.5-2.2-0.8-3.7-0.8
		c-0.8,0-1.6,0.1-2.2,0.4c-0.7,0.3-1.2,0.6-1.7,1c-0.5,0.4-0.9,0.8-1.1,1.2l-0.7,0.9c-0.5,0.6-1,0.9-1.3,0.9l-0.6-0.6l0.2-0.7
		l0.5-0.8c0.3-0.5,0.8-1.2,1.4-1.9c0.6-0.8,1.3-1.5,2-2.3c0.8-0.7,1.6-1.4,2.4-1.9c0.8-0.5,1.6-0.8,2.4-0.8c1.1,0,2.4,0.3,3.7,1
		c1.4,0.6,2.8,1.3,4.2,2c0.7,0.3,1.6,0.7,2.7,1.1c1.1,0.4,2,0.6,2.8,0.6c0.9,0,1.7-0.1,2.4-0.4c0.7-0.3,1.3-0.5,1.8-0.9
		c0.5-0.3,0.8-0.6,1.1-0.9l0.5-0.6c0.4-0.7,0.8-1.1,1.1-1.1c0.4,0,0.7,0.2,0.7,0.6c0,0.3-0.1,0.7-0.4,1.3c-0.2,0.4-0.6,1-1.1,1.7
		c-0.6,0.7-1.2,1.5-2,2.2c-0.8,0.7-1.6,1.4-2.4,1.9c-0.8,0.5-1.6,0.8-2.4,0.8C840.5,104.6,839,104.3,837.7,103.6"/>
	<path class="st0" d="M392.2,227.8c-1.2-0.2-2.3-0.6-3.3-1.1l-0.7-0.6c-0.1-0.2-0.1-0.7-0.1-1.4c0-1.3,0-2.5,0.1-3.4
		c0.1-1,0.1-1.7,0.1-2.1c0-0.6,0.2-0.8,0.4-0.8l0.4,0.6l0,0.9l0.1,1.1c0.2,1,0.5,1.8,1,2.5c0.5,0.7,1.1,1.2,1.8,1.6
		c0.7,0.4,1.5,0.7,2.3,0.9c0.8,0.2,1.6,0.3,2.5,0.3c1.2,0,2.3-0.2,3.2-0.6c0.9-0.4,1.7-0.9,2.3-1.6c0.6-0.7,1-1.4,1.3-2.2
		c0.3-0.8,0.5-1.7,0.5-2.5c0-0.9-0.1-1.7-0.3-2.5c-0.2-0.7-0.5-1.5-1-2.2c-0.5-0.7-1.1-1.4-1.8-2.2c-0.7-0.7-1.7-1.6-2.8-2.5
		l-2.3-1.9c-1.4-1.1-2.5-2.2-3.3-3.2c-0.9-1-1.5-1.9-2-2.8c-0.5-0.9-0.8-1.8-1-2.7c-0.2-0.9-0.3-1.7-0.3-2.6c0-1.4,0.2-2.7,0.7-3.8
		c0.5-1.2,1.2-2.1,2.1-3c0.9-0.8,2-1.5,3.3-1.9c1.3-0.4,2.8-0.7,4.4-0.7c1,0,1.9,0,2.6,0.1c0.8,0.1,1.5,0.2,2.1,0.4
		c0.5,0.1,0.8,0.2,1.1,0.2l0.7,0l0.5,0.4c0,0.1,0,0.7-0.1,1.5c-0.1,0.9-0.1,2.2-0.1,4c0,0.8-0.1,1.2-0.4,1.2l-0.3-0.2l-0.1-0.5
		c0-0.3-0.1-0.8-0.2-1.3c-0.1-0.6-0.3-1-0.4-1.3l-0.5-0.7c-0.2-0.3-0.6-0.6-1.1-0.9c-0.5-0.3-1.1-0.6-1.9-0.8
		c-0.8-0.2-1.7-0.3-2.9-0.3c-1.8,0-3.3,0.5-4.5,1.6c-1.2,1.1-1.8,2.5-1.8,4.5c0,0.7,0.1,1.4,0.3,2.1c0.2,0.6,0.5,1.3,1,2
		c0.5,0.7,1.1,1.4,1.9,2.1c0.8,0.8,1.8,1.6,3,2.6l1.4,1.1c1.5,1.2,2.7,2.3,3.7,3.4c1,1,1.7,2,2.3,3c0.6,1,0.9,1.9,1.1,2.9
		c0.2,1,0.3,2,0.3,3c0,0.5-0.1,1.1-0.2,1.9c-0.1,0.7-0.3,1.5-0.7,2.3c-0.3,0.8-0.8,1.6-1.3,2.4c-0.6,0.8-1.3,1.5-2.2,2.1
		c-1.1,0.8-2.3,1.4-3.6,1.7c-1.3,0.3-2.7,0.5-4.1,0.5C394.5,228.1,393.4,228,392.2,227.8"/>
	<path class="st0" d="M458.4,220.3c0,1.1,0.1,2,0.2,2.7c0.1,0.7,0.2,1.3,0.4,1.8c0.1,0.5,0.3,0.8,0.6,1.1l0.9,0.5
		c0.5,0.1,1,0.2,1.5,0.3c0.5,0,0.9,0.1,1.1,0.1l0.4,0.3c0,0.3-0.3,0.4-0.9,0.4c-1.5,0-2.7,0-3.6-0.1c-0.9-0.1-1.5-0.1-1.8-0.1
		c-0.2,0-0.8,0-1.8,0.1c-0.9,0.1-2,0.1-3.1,0.1c-0.5,0-0.8-0.1-0.8-0.4l0.4-0.3c0.2,0,0.5,0,0.9-0.1l1.2-0.3
		c0.6-0.2,1.1-0.7,1.2-1.7c0.2-0.9,0.3-2.6,0.3-5l0.1-29.9c0-1,0-1.7,0.1-2.1l0.4-0.5c0.2,0,0.5,0.2,0.8,0.6c0.4,0.4,0.7,0.8,1,1
		c0.2,0.2,0.8,0.9,1.7,2c1,1.1,2.2,2.5,3.7,4.1c1.5,1.6,3.2,3.5,5,5.5c1.9,2,3.8,4.2,5.7,6.3c1.3,1.4,2.5,2.8,3.8,4.2
		c1.3,1.4,2.5,2.8,3.6,4c1.1,1.2,2.1,2.4,3,3.3c0.9,1,1.5,1.6,1.9,2.1l-0.6-26.5c0-1.7-0.2-2.9-0.4-3.6c-0.3-0.7-0.8-1.1-1.5-1.3
		c-0.5-0.1-1-0.2-1.5-0.2c-0.5,0-0.8-0.1-1-0.1l-0.4-0.4c0-0.2,0.3-0.4,1-0.4c0.6,0,1.1,0,1.7,0c0.6,0,1.1,0,1.6,0
		c0.5,0,0.9,0,1.3,0.1l0.7,0c0.3,0,0.8,0,1.6-0.1c0.8,0,1.7-0.1,2.8-0.1c0.6,0,0.9,0.1,0.9,0.4l-0.6,0.4l-0.5,0l-0.7,0.1
		c-0.8,0.2-1.4,0.6-1.6,1.3c-0.2,0.7-0.3,1.8-0.3,3.4l-0.1,30.6c0,0.9,0,1.6,0,2c0,0.5,0,0.9-0.1,1.1l-0.1,0.5l-0.2,0.1l-0.4-0.1
		l-0.6-0.5c-0.3-0.2-0.6-0.6-1-1c-0.4-0.4-1-1-1.7-1.7c-0.1-0.1-0.7-0.7-1.6-1.6c-0.9-0.9-2-2.1-3.3-3.4c-1.3-1.4-2.7-2.9-4.2-4.5
		c-1.5-1.6-2.9-3.2-4.3-4.6c-1.5-1.6-3-3.2-4.4-4.8c-1.4-1.6-2.7-3-3.9-4.4c-1.2-1.4-2.2-2.5-3.1-3.5c-0.9-1-1.5-1.7-1.9-2.2
		L458.4,220.3z"/>
	<path class="st0" d="M529.6,214.1c0-1.1,0-1.9-0.1-2.5c0-0.6-0.1-1.1-0.3-1.5l-0.7-0.8c-0.3-0.2-0.7-0.4-1.2-0.5l-0.8-0.1l-0.9,0
		l-0.4-0.3c0-0.3,0.3-0.4,0.8-0.4c0.6,0,1.2,0,1.8,0c0.6,0,1.3,0,1.8,0c0.6,0,1,0,1.4,0l0.7,0l0.7,0c0.4,0,0.8,0,1.4,0
		c0.5,0,1,0,1.6,0c0.5,0,1,0,1.4,0c0.5,0,0.8,0.1,0.8,0.4l-0.4,0.3l-0.5,0l-0.7,0.1c-0.7,0.1-1.2,0.4-1.4,0.9
		c-0.3,0.5-0.4,1.2-0.5,2.1c-0.1,0.8-0.1,1.7-0.1,2.5c0,0.8,0,1.8,0,2.9v5.8c0,0.6,0,1.1,0,1.4l-0.1,0.8l-0.2,0.4l-0.4,0.3
		c-0.8,0.5-1.7,0.8-2.7,1.1c-1,0.3-1.9,0.5-2.9,0.7c-1,0.2-1.9,0.3-2.8,0.4c-0.9,0.1-1.7,0.1-2.5,0.1c-1,0-2.1,0-3.5-0.2
		c-1.3-0.1-2.7-0.4-4.3-0.7c-1.5-0.4-3.1-1-4.6-1.7c-1.5-0.7-3-1.7-4.5-3c-0.8-0.7-1.5-1.6-2.3-2.6c-0.7-1-1.4-2.2-1.9-3.4
		c-0.6-1.3-1-2.6-1.3-4.1c-0.3-1.5-0.5-3.1-0.5-4.7c0-2.1,0.2-4,0.7-5.8c0.5-1.8,1.1-3.4,1.9-4.8c0.8-1.4,1.7-2.7,2.7-3.8
		c1-1.1,2.1-2,3.2-2.7c1.2-0.7,2.3-1.3,3.5-1.7c1.2-0.4,2.4-0.8,3.5-1c1.2-0.2,2.3-0.4,3.4-0.4c1.1-0.1,2.2-0.1,3.1-0.1
		c0.8,0,1.6,0,2.5,0.1c0.8,0.1,1.6,0.2,2.3,0.3c0.7,0.1,1.3,0.2,1.9,0.3c0.5,0.1,0.9,0.2,1.2,0.2c0.5,0.1,1.2,0.3,2,0.3
		c0.8,0.1,1.5,0.1,2.1,0.2l0.5,0.2l0.1,0.3l-0.1,0.7c0,0.3-0.1,0.7-0.1,1.3c0,0.6-0.1,1.3-0.1,2.1c0,0.9-0.1,1.9-0.1,3.2
		c0,0.4,0,0.7-0.1,0.9l-0.4,0.2c-0.2,0-0.3-0.3-0.4-0.8c0-0.4-0.1-0.9-0.3-1.5c-0.2-0.7-0.4-1.3-0.8-1.9c-0.3-0.5-0.8-1-1.5-1.5
		c-0.7-0.5-1.5-1-2.5-1.4c-1-0.4-2.2-0.7-3.5-1c-1.3-0.2-2.8-0.4-4.5-0.4c-0.8,0-1.7,0-2.5,0.1c-0.9,0.1-1.8,0.2-2.7,0.4
		c-0.9,0.2-1.9,0.6-2.8,1c-1,0.5-1.9,1.1-2.9,1.9c-1.5,1.2-2.7,3-3.6,5.3c-0.9,2.3-1.4,4.9-1.4,8c0,1.8,0.2,3.5,0.6,5.1
		c0.4,1.6,0.9,3,1.4,4.2c0.6,1.2,1.2,2.3,1.8,3.1c0.6,0.9,1.2,1.5,1.6,2c2,2,4.2,3.5,6.5,4.3c2.3,0.9,4.6,1.3,6.9,1.3
		c0.4,0,0.9,0,1.5-0.1c0.5,0,1.1-0.1,1.6-0.2c0.5-0.1,1-0.2,1.5-0.3c0.5-0.1,0.9-0.3,1.2-0.5c0.7-0.4,1-1,1-1.8V214.1z"/>
	<path class="st0" d="M549.4,203.1c0-2,0-3.7,0-5c0-1.3,0-2.3,0-3.1c0-0.8,0-1.4,0-1.9c0-0.5,0-0.9-0.1-1.3c-0.1-0.9-0.2-1.6-0.5-2
		c-0.3-0.4-0.8-0.8-1.7-0.9l-0.8-0.1l-0.9,0l-0.4-0.3c0-0.3,0.3-0.4,0.8-0.4c0.6,0,1.2,0,1.8,0c0.6,0,1.3,0,1.8,0c0.6,0,1,0,1.4,0.1
		l0.7,0c0.1,0,0.4,0,0.9,0c0.5,0,1.1,0,1.7-0.1c0.6,0,1.3,0,1.9,0c0.6,0,1.1,0,1.5,0c1.6,0,3.3,0.1,4.9,0.4c1.6,0.3,3.1,0.9,4.5,1.9
		c0.3,0.2,0.7,0.6,1.1,1c0.4,0.4,0.8,0.9,1.1,1.5c0.4,0.6,0.7,1.3,0.9,2c0.3,0.8,0.4,1.6,0.4,2.5c0,1.9-0.5,3.9-1.4,5.9
		c-0.9,2-2.5,4-4.8,6.2c2.1,2.8,4,5.3,5.8,7.5c1.7,2.3,3.3,4.2,4.8,5.8c1.4,1.5,2.6,2.5,3.7,2.9c1,0.5,1.9,0.7,2.6,0.8
		c0.5,0.1,0.9,0.1,1.2,0.1l0.8,0l0.5,0.3l-0.3,0.4c-0.2,0.1-0.5,0.1-1,0.1h-3.6c-1.4,0-2.5-0.1-3.3-0.2c-0.8-0.1-1.5-0.4-2.1-0.8
		c-1.1-0.6-2.2-1.5-3.2-2.8c-1-1.3-2.3-2.9-3.7-4.9c-0.5-0.7-1.1-1.5-1.6-2.2c-0.5-0.8-1.1-1.5-1.6-2.2c-0.5-0.7-1-1.3-1.4-1.9
		c-0.4-0.6-0.8-1-1-1.4l-0.7-0.3l-6.3-0.1l-0.4,0.4v1.3c0,2.5,0,4.7,0,6.7c0,2,0.1,3.5,0.2,4.6c0.1,0.8,0.2,1.4,0.5,1.9
		c0.2,0.5,0.8,0.8,1.5,0.9c0.4,0.1,0.8,0.1,1.3,0.2c0.5,0,0.8,0.1,1,0.1l0.4,0.3c0,0.3-0.3,0.4-0.8,0.4c-0.7,0-1.4,0-2.1,0
		c-0.7,0-1.4,0-2-0.1c-0.6,0-1.1,0-1.5-0.1l-0.7,0c-0.7,0-1.3,0.1-1.8,0.1c-0.5,0-1,0-1.6,0.1c-0.5,0-1,0-1.4,0
		c-0.5,0-0.8-0.1-0.8-0.4l0.4-0.3l0.8-0.1l0.8-0.2c0.5-0.1,0.9-0.4,1.1-0.9c0.2-0.5,0.3-1.2,0.4-1.9c0.1-1.1,0.2-2.7,0.2-4.6
		c0-2,0-4.2,0-6.7L549.4,203.1z M553.5,207.6l0.4,0.6c0.4,0.2,1.1,0.4,2.1,0.6c1,0.2,2.1,0.2,3.2,0.2c0.6,0,1.3-0.1,1.9-0.2
		c0.7-0.1,1.3-0.4,1.9-0.8c0.9-0.6,1.6-1.6,2.2-3c0.6-1.4,0.9-3,0.9-5c0-3.3-0.8-5.8-2.4-7.7c-1.6-1.8-3.7-2.8-6.5-2.8
		c-0.8,0-1.5,0-2.1,0.1c-0.6,0.1-1.1,0.1-1.3,0.2l-0.4,0.6V207.6z"/>
	<path class="st0" d="M635.7,203.1c0-2,0-3.7,0-5c0-1.3,0-2.3,0-3.1c0-0.8,0-1.4,0-1.9c0-0.5,0-0.9-0.1-1.3c-0.1-0.9-0.2-1.6-0.5-2
		c-0.3-0.4-0.8-0.8-1.7-0.9l-0.8-0.1l-0.9,0l-0.4-0.3c0-0.3,0.3-0.4,0.8-0.4c0.6,0,1.2,0,1.8,0c0.6,0,1.3,0,1.8,0c0.6,0,1,0,1.4,0.1
		l0.7,0c0.1,0,0.4,0,0.9,0c0.5,0,1,0,1.6-0.1c0.6,0,1.3,0,2.1,0c0.8,0,1.5,0,2.3,0c1.3,0,2.7,0,4.5,0c1.7,0,3.5,0.2,5.4,0.5
		c1.9,0.3,3.7,0.9,5.6,1.7c1.8,0.8,3.5,2,5.1,3.6c0.6,0.7,1.3,1.5,1.9,2.3c0.6,0.9,1.1,1.9,1.6,3c0.5,1.1,0.8,2.3,1.1,3.6
		c0.3,1.3,0.4,2.8,0.4,4.3c0,1.6-0.2,3.2-0.5,4.6c-0.3,1.5-0.7,2.8-1.2,4c-0.5,1.2-1.1,2.4-1.8,3.4c-0.7,1-1.3,1.9-2.1,2.7
		c-0.5,0.6-1.3,1.2-2.1,1.9c-0.9,0.7-1.9,1.3-3.2,2c-1.3,0.6-2.7,1.1-4.4,1.5c-1.7,0.4-3.6,0.6-5.8,0.6c-1.1,0-2.3-0.1-3.6-0.1
		c-1.3-0.1-2.5-0.1-3.6-0.2c-1.1-0.1-2.1-0.1-2.9-0.2c-0.8-0.1-1.2-0.1-1.4-0.1h-0.7c-0.4,0-0.8,0-1.4,0.1c-0.5,0-1,0-1.6,0
		c-0.5,0-1,0.1-1.4,0.1c-0.5,0-0.8-0.1-0.8-0.4l0.4-0.3l0.8-0.1l0.8-0.2c0.5-0.1,0.8-0.4,1-0.9c0.2-0.5,0.3-1.2,0.4-1.9
		c0.1-1.1,0.2-2.7,0.2-4.6c0-2,0-4.2,0-6.7L635.7,203.1z M640,208.7c0,1.4,0,2.7,0,4c0,1.3,0,2.4,0,3.4c0,1,0,1.9,0.1,2.6
		c0,0.7,0,1.2,0,1.4l0,1.1l0.1,1.2l0.2,1l0.3,0.7l0.8,0.7c0.4,0.2,0.9,0.5,1.5,0.7c0.7,0.2,1.5,0.4,2.6,0.5c1,0.1,2.3,0.2,3.8,0.2
		c2.4,0,4.6-0.4,6.7-1.3c2.1-0.8,3.9-2,5.5-3.6c0.6-0.7,1.2-1.5,1.7-2.4c0.5-0.9,0.9-2,1.3-3.1c0.4-1.1,0.6-2.2,0.8-3.4
		c0.2-1.2,0.3-2.4,0.3-3.6c0-1.7-0.2-3.2-0.5-4.5c-0.3-1.4-0.7-2.6-1.2-3.7c-0.5-1.1-1-2.1-1.6-2.9c-0.6-0.8-1.1-1.5-1.6-2.1
		c-1.2-1.3-2.4-2.3-3.8-3.1c-1.3-0.8-2.7-1.4-4.1-1.8c-1.4-0.4-2.8-0.7-4.3-0.8c-1.5-0.1-3-0.2-4.5-0.2l-0.9,0l-1,0.1l-0.9,0.1
		l-0.5,0.1c-0.4,0.2-0.6,0.5-0.6,1c0,0.5,0,1.1,0,1.9c0,0.8,0,1.8,0,2.8c0,1,0,2.1,0,3.2c0,1.1,0,2.2,0,3.2V208.7z"/>
	<path class="st0" d="M606.2,220.6l-0.3-0.3c-0.2,0-0.4,0.3-0.5,0.8c-0.2,1.1-0.4,1.9-0.8,2.5c-0.3,0.6-0.8,1-1.5,1.3
		c-0.7,0.3-1.5,0.5-2.4,0.5c-0.9,0.1-1.8,0.1-2.5,0.1c-1.2,0-2.3-0.1-3-0.2c-0.7-0.1-1.3-0.3-1.7-0.6c-0.4-0.3-0.7-0.7-0.9-1.3
		c-0.2-0.6-0.2-1.3-0.3-2.2c0-0.3,0-0.8,0-1.6c0-0.8,0-1.7,0-2.6c0-0.9,0-1.8,0-2.7c0-0.2,0-2.1,0-4.8c0.3,0.1,0.6,0.3,1,0.5
		c0.7,0.4,1.5,0.5,2.4,0.5c0.4,0,0.8-0.1,1.3-0.4c0.4-0.3,0.9-0.6,1.3-1c0.4-0.4,0.8-0.8,1.1-1.2l0.6-0.9l0.2-0.7l-0.4-0.3l-0.6,0.6
		l-0.3,0.4l-0.6,0.5l-0.9,0.5c-0.4,0.1-0.8,0.2-1.3,0.2c-0.4,0-0.9-0.1-1.5-0.3c-0.6-0.2-1.1-0.4-1.5-0.6l-0.8-0.4
		c0-6.9,0-16.2,0-16.2l0.3-0.5c0.1,0,0.5,0,1.2,0c0.7,0,1.4,0,2.2,0c0.8,0,1.5,0,2.2,0.1c0.7,0,1.2,0,1.4,0.1
		c1.4,0.2,2.3,0.4,2.7,0.7c0.4,0.3,0.7,0.7,0.9,1.1l0.3,1l0,0.8c0,0.5,0.1,0.7,0.4,0.7l0.2-0.2l0.1-0.4l0.1-0.7l0.1-1l0.1-1l0-0.7
		c0.1-0.7,0.2-1.3,0.3-1.6l0.2-0.8l-0.2-0.5l-0.4,0.1l-0.4,0.2c-0.5,0.1-1.2,0.2-2.2,0.3c-0.3,0-1.1,0-2.3,0c-1.2,0-2.5,0-3.9,0
		c-1.4,0-2.6,0-3.7,0c-1.1,0-1.7,0-1.8,0l-2.1-0.1c-0.6,0-1.2-0.1-1.8-0.1c-0.6,0-1.3,0-1.8,0c-0.5,0-0.8,0.1-0.8,0.4l0.4,0.3l0.9,0
		l0.8,0.1c0.8,0.2,1.4,0.5,1.7,0.9c0.3,0.5,0.5,1.1,0.5,2c0,0.4,0.1,0.9,0.1,1.3c0,0.5,0,1.1,0,1.9c0,0.8,0,1.8,0,3.1
		c0,1.3,0,2.9,0,4.9l0,2.7l-0.5,0.1c-0.4,0.3-0.9,0.6-1.3,1c-0.4,0.4-0.8,0.8-1.1,1.2c-0.3,0.4-0.6,0.8-0.7,1l-0.3,0.4l-0.1,0.4
		l0.3,0.3l0.7-0.5l0.4-0.5l0.6-0.6l0.9-0.5l1-0.2v4.2c0,2.5,0,4.7,0,6.7c0,2-0.1,3.5-0.2,4.6c-0.1,0.8-0.2,1.4-0.4,1.9
		c-0.2,0.5-0.5,0.8-1,0.9l-0.8,0.1l-0.8,0.1l-0.4,0.3c0,0.3,0.3,0.4,0.8,0.4c0.4,0,0.8,0,1.4-0.1c0.6,0,1.1,0,1.6,0
		c0.5,0,1-0.1,1.4-0.1h0.7c0.4,0,0.9,0,1.5,0c0.6,0,1.5,0.1,2.4,0.1c1,0,2.2,0.1,3.6,0.1c1.4,0,3.1,0.1,5,0.1c0.5,0,0.9,0,1.2,0
		l0.8-0.2l0.5-0.4l0.3-0.8c0.1-0.3,0.1-0.7,0.2-1.2c0.1-0.5,0.1-1.1,0.2-1.6c0.1-0.5,0.1-1,0.2-1.5c0.1-0.4,0.1-0.7,0.1-0.8
		L606.2,220.6z"/>
	<path class="st0" d="M749.8,220.6l-0.3-0.3c-0.2,0-0.4,0.3-0.5,0.8c-0.2,1.1-0.4,1.9-0.8,2.5c-0.3,0.6-0.8,1-1.5,1.3
		c-0.7,0.3-1.5,0.5-2.4,0.5c-1,0.1-1.8,0.1-2.5,0.1c-1.2,0-2.3-0.1-3-0.2c-0.7-0.1-1.3-0.3-1.8-0.6c-0.4-0.3-0.7-0.7-0.9-1.3
		c-0.2-0.6-0.2-1.3-0.3-2.2c0-0.3,0-0.8,0-1.6c0-0.8,0-1.7,0-2.6c0-0.9,0-1.8,0-2.7c0-0.2,0-2.1,0-4.8c0.3,0.1,0.6,0.3,1,0.5
		c0.7,0.4,1.5,0.5,2.4,0.5c0.4,0,0.8-0.1,1.3-0.4c0.4-0.3,0.9-0.6,1.3-1c0.4-0.4,0.8-0.8,1.1-1.2l0.6-0.9l0.2-0.7l-0.4-0.3l-0.6,0.6
		l-0.3,0.4l-0.6,0.5l-0.9,0.5c-0.4,0.1-0.8,0.2-1.3,0.2c-0.4,0-0.9-0.1-1.5-0.3c-0.6-0.2-1.1-0.4-1.5-0.6l-0.8-0.4
		c0-6.9,0-16.2,0-16.2l0.3-0.5c0.1,0,0.5,0,1.2,0c0.7,0,1.4,0,2.2,0c0.8,0,1.5,0,2.2,0.1c0.7,0,1.2,0,1.4,0.1
		c1.4,0.2,2.3,0.4,2.7,0.7c0.5,0.3,0.7,0.7,0.9,1.1l0.3,1l0,0.8c0,0.5,0.1,0.7,0.4,0.7l0.2-0.2l0.1-0.4l0.1-0.7l0.1-1l0.1-1l0-0.7
		c0.1-0.7,0.2-1.3,0.3-1.6l0.2-0.8l-0.2-0.5l-0.4,0.1l-0.4,0.2c-0.5,0.1-1.2,0.2-2.2,0.3c-0.3,0-1.1,0-2.3,0c-1.2,0-2.5,0-3.9,0
		c-1.4,0-2.6,0-3.7,0c-1.1,0-1.7,0-1.8,0l-2.1-0.1c-0.6,0-1.2-0.1-1.8-0.1c-0.6,0-1.3,0-1.8,0c-0.5,0-0.8,0.1-0.8,0.4l0.4,0.3l0.9,0
		l0.8,0.1c0.8,0.2,1.4,0.5,1.7,0.9c0.3,0.5,0.5,1.1,0.5,2c0,0.4,0.1,0.9,0.1,1.3c0,0.5,0,1.1,0,1.9c0,0.8,0,1.8,0,3.1
		c0,1.3,0,2.9,0,4.9v2.7l-0.5,0.1c-0.4,0.3-0.9,0.6-1.3,1c-0.4,0.4-0.8,0.8-1.1,1.2c-0.3,0.4-0.6,0.8-0.7,1l-0.3,0.4l-0.1,0.4
		l0.3,0.3l0.7-0.5l0.4-0.5l0.6-0.6l0.9-0.5l1-0.2v4.2c0,2.5,0,4.7,0,6.7c0,2-0.1,3.5-0.2,4.6c-0.1,0.8-0.2,1.4-0.4,1.9
		c-0.2,0.5-0.5,0.8-1.1,0.9l-0.8,0.1l-0.8,0.1l-0.4,0.3c0,0.3,0.3,0.4,0.8,0.4c0.4,0,0.8,0,1.4-0.1c0.5,0,1.1,0,1.6,0
		c0.5,0,1-0.1,1.4-0.1h0.7c0.4,0,0.9,0,1.5,0c0.6,0,1.5,0.1,2.4,0.1c1,0,2.2,0.1,3.6,0.1c1.4,0,3.1,0.1,5,0.1c0.5,0,0.9,0,1.2,0
		l0.8-0.2l0.4-0.4l0.3-0.8c0.1-0.3,0.1-0.7,0.2-1.2c0.1-0.5,0.1-1.1,0.2-1.6c0.1-0.5,0.1-1,0.2-1.5c0-0.4,0.1-0.7,0.1-0.8
		L749.8,220.6z"/>
	<path class="st0" d="M816.8,220.6l-0.3-0.3c-0.2,0-0.4,0.3-0.5,0.8c-0.2,1.1-0.4,1.9-0.8,2.5c-0.3,0.6-0.8,1-1.5,1.3
		c-0.7,0.3-1.5,0.5-2.4,0.5c-1,0.1-1.8,0.1-2.5,0.1c-1.2,0-2.3-0.1-3-0.2c-0.7-0.1-1.3-0.3-1.8-0.6c-0.4-0.3-0.7-0.7-0.9-1.3
		c-0.2-0.6-0.2-1.3-0.3-2.2c0-0.3,0-0.8,0-1.6c0-0.8,0-1.7,0-2.6c0-0.9,0-1.8,0-2.7c0-0.2,0-2.1,0-4.8c0.3,0.1,0.6,0.3,1,0.5
		c0.7,0.4,1.5,0.5,2.4,0.5c0.4,0,0.8-0.1,1.3-0.4c0.4-0.3,0.9-0.6,1.3-1c0.4-0.4,0.8-0.8,1.1-1.2l0.6-0.9l0.2-0.7l-0.4-0.3l-0.6,0.6
		l-0.3,0.4l-0.6,0.5l-0.9,0.5c-0.4,0.1-0.8,0.2-1.3,0.2c-0.4,0-0.9-0.1-1.5-0.3c-0.6-0.2-1.1-0.4-1.5-0.6l-0.8-0.4
		c0-6.9,0-16.2,0-16.2l0.3-0.5c0.1,0,0.5,0,1.2,0c0.7,0,1.4,0,2.2,0c0.8,0,1.5,0,2.2,0.1c0.7,0,1.2,0,1.4,0.1
		c1.4,0.2,2.3,0.4,2.7,0.7c0.4,0.3,0.7,0.7,0.9,1.1l0.3,1l0,0.8c0,0.5,0.1,0.7,0.4,0.7l0.2-0.2l0.1-0.4l0.1-0.7l0.1-1l0.1-1l0-0.7
		c0.1-0.7,0.2-1.3,0.3-1.6l0.2-0.8l-0.2-0.5l-0.4,0.1l-0.4,0.2c-0.5,0.1-1.2,0.2-2.2,0.3c-0.3,0-1.1,0-2.3,0c-1.2,0-2.5,0-3.9,0
		c-1.4,0-2.6,0-3.7,0c-1.1,0-1.7,0-1.8,0l-2.1-0.1c-0.6,0-1.2-0.1-1.8-0.1c-0.6,0-1.3,0-1.8,0c-0.5,0-0.8,0.1-0.8,0.4l0.4,0.3l0.9,0
		l0.8,0.1c0.8,0.2,1.4,0.5,1.7,0.9c0.3,0.5,0.4,1.1,0.5,2c0,0.4,0.1,0.9,0.1,1.3c0,0.5,0,1.1,0,1.9c0,0.8,0,1.8,0,3.1
		c0,1.3,0,2.9,0,4.9l0,2.7l-0.5,0.1c-0.4,0.3-0.9,0.6-1.3,1c-0.4,0.4-0.8,0.8-1.1,1.2c-0.3,0.4-0.6,0.8-0.7,1l-0.3,0.4l-0.1,0.4
		l0.3,0.3l0.7-0.5l0.4-0.5l0.6-0.6l0.9-0.5l1-0.2v4.2c0,2.5,0,4.7,0,6.7c0,2-0.1,3.5-0.2,4.6c-0.1,0.8-0.2,1.4-0.4,1.9
		c-0.2,0.5-0.5,0.8-1.1,0.9l-0.8,0.1l-0.8,0.1l-0.4,0.3c0,0.3,0.3,0.4,0.8,0.4c0.4,0,0.8,0,1.4-0.1c0.5,0,1.1,0,1.6,0
		c0.5,0,1-0.1,1.4-0.1h0.7c0.4,0,0.9,0,1.5,0c0.7,0,1.5,0.1,2.4,0.1c1,0,2.2,0.1,3.6,0.1c1.4,0,3.1,0.1,5,0.1c0.5,0,0.9,0,1.2,0
		l0.8-0.2l0.4-0.4l0.3-0.8c0.1-0.3,0.1-0.7,0.2-1.2c0.1-0.5,0.1-1.1,0.2-1.6c0.1-0.5,0.1-1,0.2-1.5c0.1-0.4,0.1-0.7,0.1-0.8
		L816.8,220.6z"/>
	<path class="st0" d="M641,210c-0.7-0.4-1.3-0.6-1.7-0.8c-0.5-0.2-1-0.5-1.5-0.8c-0.5-0.3-1.2-0.4-2-0.4c-0.4,0-0.8,0.1-1.2,0.2
		l-0.9,0.5l-0.6,0.6l-0.4,0.5l-0.7,0.5l-0.3-0.3l0.1-0.4l0.3-0.4c0.2-0.3,0.4-0.6,0.7-1c0.3-0.4,0.7-0.8,1.1-1.2
		c0.4-0.4,0.8-0.7,1.3-1c0.5-0.3,0.9-0.4,1.3-0.4c0.6,0,1.3,0.2,2,0.5c0.7,0.3,1.5,0.7,2.3,1.1c0.4,0.2,0.9,0.4,1.5,0.6
		c0.6,0.2,1.1,0.3,1.5,0.3c0.5,0,0.9-0.1,1.3-0.2l0.9-0.5l0.6-0.5l0.3-0.4l0.6-0.6l0.4,0.3l-0.2,0.7l-0.6,0.9
		c-0.3,0.4-0.7,0.8-1.1,1.2c-0.4,0.4-0.8,0.7-1.3,1c-0.4,0.3-0.9,0.4-1.3,0.4C642.5,210.5,641.7,210.4,641,210"/>
	<path class="st0" d="M449.2,226.7l-0.9-0.1l-1.1-0.3l-0.9-0.4c-0.3-0.2-0.7-0.5-1-0.9c-0.4-0.4-0.8-1-1.2-1.7
		c-0.4-0.7-0.9-1.7-1.3-2.8c-0.5-1.3-1.1-3-1.9-5c-0.8-2-1.6-4.1-2.4-6.3c-0.8-2.2-1.7-4.4-2.5-6.7c-0.9-2.3-1.6-4.3-2.3-6.2
		c-0.7-1.9-1.3-3.5-1.8-4.8c-0.5-1.3-0.8-2.1-0.9-2.4c-0.3-0.8-0.5-1.3-0.7-1.5l-0.5-0.3l-0.5,0.4c-0.1,0.2-0.4,0.8-0.7,1.7
		L417,221.7c-0.5,1.3-1,2.4-1.6,3.3c-0.6,0.9-1.5,1.4-2.7,1.6l-0.8,0.1l-0.7,0l-0.4,0.3c0,0.3,0.3,0.4,1,0.4c0.6,0,1.2,0,1.8,0
		c0.6,0,1.2,0,1.7-0.1c0.5,0,1,0,1.4-0.1l0.8,0l0.7,0l1.1,0.1c0.4,0,0.8,0,1.2,0.1c0.4,0,0.8,0,1.1,0c0.5,0,0.8-0.1,0.8-0.4
		l-0.5-0.3h-0.5c-0.4,0-0.9-0.1-1.3-0.4c-0.4-0.2-0.6-0.6-0.6-1.1c0-1,0.2-2.1,0.7-3.5l1.4-4.2l1.6-4.8l0.5-0.5l0.9-0.5
		c0.4-0.2,0.7-0.2,1.2-0.2c0.8,0,1.4,0.1,2,0.4c0.5,0.3,1,0.6,1.5,0.8c0.4,0.2,0.9,0.4,1.7,0.8c0.7,0.4,1.5,0.5,2.4,0.5
		c0.4,0,0.8-0.1,1.3-0.4l0.9-0.7l1.7,4.7l2.9,7.7c0.2,0.4,0.2,0.7,0.1,1l-0.4,0.4l-0.4,0.4l0.4,0.3c0.3,0,0.6,0,1.1,0.1
		c0.9,0,1.8,0.1,2.6,0.1c0.9,0,1.7,0,2.4,0c0.7,0,1.4,0,1.9,0c0.6,0,0.9,0,1.1,0l0.7-0.1l0.3-0.4L449.2,226.7z M433.5,211.4
		c-0.4,0-0.9-0.1-1.5-0.3c-0.6-0.2-1.1-0.4-1.5-0.6c-0.8-0.4-1.5-0.7-2.3-1.1c-0.7-0.3-1.4-0.5-2-0.5c-0.4,0-0.8,0.2-1.3,0.4
		l-1.1,0.9l2.8-8.5l1.9-6.1c0.2-0.8,0.5-0.8,0.8,0l2.5,7.1l3,8.4C434.4,211.3,433.9,211.4,433.5,211.4z"/>
	<path class="st0" d="M705.3,212.2c0,7.5,0.1,10.5,1,11.4c0.8,0.8,2.8,1.2,6.9,1.2c2.7,0,5-0.1,6.2-1.6c0.6-0.8,1.1-1.9,1.2-2.9
		l0.5-0.7c0.2,0,0.4,0.2,0.4,0.8c0,0.5-0.4,3.6-0.8,5.1c-0.3,1.2-0.5,1.4-3.3,1.4c-3.7,0-6.5-0.1-9-0.2c-2.3-0.1-4.1-0.1-5.6-0.1
		c-0.2,0-1.1,0-2.1,0.1c-1.1,0.1-2.2,0.1-3,0.1c-0.5,0-0.8-0.1-0.8-0.4l0.4-0.4c0.5,0,1.1-0.1,1.6-0.2c1-0.2,1.1-1.2,1.3-2.7
		c0.3-2.1,0.3-6.1,0.3-11l0-9c0-7.9,0-9.3-0.1-10.9c-0.1-1.7-0.4-2.6-2.1-2.8c-0.4-0.1-1.3-0.1-1.8-0.1l-0.4-0.4
		c0-0.3,0.2-0.4,0.8-0.4c2.3,0,5.6,0.1,5.8,0.1c0.2,0,4.1-0.1,5.7-0.1c0.5,0,0.8,0.1,0.8,0.4l-0.4,0.4c-0.3,0-1.1,0.1-1.7,0.1
		c-1.5,0.3-1.8,1.1-1.9,2.9c-0.1,1.6-0.1,3.1-0.1,10.9L705.3,212.2z"/>
	<path class="st0" d="M769,213.6c0-2.7-0.3-3.8-1.1-5.2c-0.4-0.8-7.4-12.1-9.1-14.8c-1.2-1.9-2.5-3.1-3.4-3.7
		c-0.8-0.5-1.8-0.7-2.2-0.7l-0.5-0.5c0-0.2,0.2-0.4,0.6-0.4c1,0,4.9,0.1,5.1,0.1c0.4,0,2.5-0.1,4.5-0.1c0.6,0,0.7,0.1,0.7,0.4
		c0,0.2-0.4,0.4-0.8,0.5c-0.4,0.2-0.6,0.4-0.6,0.8c0,0.7,0.3,1.3,0.7,2l9.4,15.8c1.1-2.2,7.5-13,8.4-14.7c0.6-1.1,0.9-2,0.9-2.6
		c0-0.7-0.2-1.1-0.8-1.3c-0.5-0.1-0.8-0.4-0.8-0.6c0-0.2,0.3-0.3,0.8-0.3c1.3,0,3.2,0.1,3.6,0.1c0.4,0,4-0.1,5-0.1l0.6,0.3
		c0,0.2-0.2,0.5-0.6,0.5c-0.6,0-1.6,0.2-2.4,0.7c-1,0.6-1.5,1.1-2.6,2.5c-1.7,2-9,14-10,16.1c-0.9,1.8-0.6,3.4-0.6,5.1l0,4.4
		c0,0.8,0,3,0.2,5.1c0.1,1.5,0.5,2.5,2,2.7c0.7,0.1,1.9,0.2,2.3,0.2l0.4,0.4c0,0.2-0.3,0.4-0.8,0.4c-2.9,0-6.2-0.2-6.5-0.2
		c-0.2,0-3.5,0.2-5,0.2c-0.6,0-0.8-0.1-0.8-0.4l0.4-0.4c0.5,0,1-0.1,1.5-0.2c1-0.2,1.4-1.2,1.5-2.7c0.1-2.1,0.1-4.3,0.1-5.1V213.6z"
		/>
	<path class="st0" d="M827.1,219.9c0.1,4.2,0.6,5.4,2,5.8c0.9,0.2,2.1,0.3,2.6,0.3l0.4,0.4c0,0.3-0.4,0.4-0.9,0.4
		c-2.9,0-5-0.2-5.4-0.2c-0.5,0-2.6,0.2-5,0.2c-0.5,0-0.8-0.1-0.8-0.4l0.4-0.4c0.4,0,1.4-0.1,2.1-0.3c1.3-0.4,1.5-1.7,1.5-6.3v-29.1
		c0-2,0.3-2.6,0.7-2.6c0.6,0,1.5,1,2,1.6c0.8,0.8,8.3,9,16.3,17.3c5.1,5.4,10.6,11.4,12.2,13.1l-0.5-25.5c-0.1-3.3-0.4-4.4-1.9-4.7
		c-0.9-0.2-2.1-0.2-2.5-0.2l-0.4-0.5c0-0.3,0.4-0.4,1-0.4c2.3,0,4.8,0.1,5.4,0.1c0.6,0,2.3-0.1,4.4-0.1c0.5,0,0.9,0.1,0.9,0.4
		l-0.6,0.5c-0.2,0-0.6,0-1.2,0.1c-1.7,0.4-1.8,1.4-1.8,4.4l-0.1,29.8c0,3.3-0.1,3.6-0.4,3.6c-0.5,0-1.1-0.4-3.9-3.1
		c-0.5-0.5-8-8-13.4-13.7c-6-6.4-11.8-12.6-13.3-14.4L827.1,219.9z"/>
	<path class="st0" d="M870.8,203.1c0-7.9,0-9.3-0.1-10.9c-0.1-1.7-0.4-2.6-2.1-2.8c-0.4-0.1-1.3-0.1-1.8-0.1l-0.4-0.4
		c0-0.3,0.2-0.4,0.8-0.4c2.3,0,5.7,0.1,6,0.1c0.6,0,3.9-0.1,6.9-0.1c5.2,0,14.6-0.5,20.7,5.8c2.6,2.6,5,6.9,5,12.9
		c0,6.4-2.7,11.3-5.6,14.3c-2.2,2.3-6.9,5.9-15.6,5.9c-2.2,0-5-0.2-7.2-0.3c-2.2-0.2-4-0.3-4.2-0.3c-0.1,0-1.1,0.1-2.1,0.1
		c-1.1,0.1-2.3,0.1-3.1,0.1c-0.5,0-0.8-0.1-0.8-0.4l0.4-0.4c0.5,0,1.1-0.1,1.6-0.2c1-0.2,1.1-1.2,1.4-2.7c0.3-2.1,0.3-6.1,0.3-11
		L870.8,203.1z M875.5,208.6c0,5.4,0,10.1,0.1,11.1c0.1,1.3,0.2,3.1,0.6,3.6c0.6,1,2.5,2,8.5,2c4.7,0,9-1.6,12.1-4.6
		c2.7-2.6,4-7.4,4-12.1c0-6.5-2.7-10.6-4.9-12.7c-4.9-5-10.5-5.7-16.7-5.7c-1,0-2.6,0.2-3.1,0.4c-0.5,0.2-0.6,0.4-0.6,1V208.6z"/>
	<path class="st0" d="M944.2,226.5l-0.9-0.1l-1.1-0.3l-0.9-0.4c-0.3-0.2-0.7-0.5-1-0.9c-0.4-0.4-0.8-1-1.2-1.7
		c-0.4-0.7-0.9-1.7-1.3-2.8c-0.5-1.3-1.1-3-1.9-5c-0.8-2-1.6-4.1-2.4-6.3c-0.8-2.2-1.7-4.4-2.5-6.7c-0.9-2.3-1.6-4.3-2.3-6.2
		c-0.7-1.9-1.3-3.5-1.8-4.8c-0.5-1.3-0.8-2.1-0.9-2.4c-0.3-0.8-0.5-1.3-0.7-1.5l-0.5-0.3l-0.5,0.4c-0.1,0.2-0.4,0.8-0.7,1.7
		L912,221.5c-0.5,1.3-1,2.4-1.6,3.3c-0.6,0.9-1.5,1.4-2.7,1.6l-0.8,0.1l-0.7,0l-0.5,0.3c0,0.3,0.3,0.4,1,0.4c0.6,0,1.2,0,1.8,0
		c0.6,0,1.2,0,1.7,0c0.5,0,1,0,1.4-0.1l0.8,0l0.7,0l1.1,0.1c0.4,0,0.8,0,1.2,0c0.4,0,0.8,0,1.1,0c0.5,0,0.8-0.1,0.8-0.4l-0.5-0.3
		h-0.5c-0.4,0-0.9-0.1-1.3-0.4c-0.4-0.2-0.6-0.6-0.6-1.1c0-1,0.2-2.1,0.7-3.5l1.4-4.2l1.6-4.8l0.5-0.5l0.9-0.5
		c0.4-0.2,0.8-0.2,1.2-0.2c0.8,0,1.4,0.1,2,0.4c0.5,0.3,1,0.6,1.5,0.8c0.4,0.2,0.9,0.4,1.7,0.8c0.7,0.4,1.5,0.5,2.4,0.5
		c0.4,0,0.8-0.1,1.3-0.4l0.9-0.7l1.7,4.7l2.9,7.7c0.2,0.4,0.2,0.7,0.1,1l-0.4,0.4l-0.4,0.4l0.4,0.3c0.3,0,0.6,0,1.1,0.1
		c0.9,0,1.8,0.1,2.6,0.1c0.9,0,1.7,0,2.4,0c0.7,0,1.4,0,1.9,0c0.5,0,0.9,0,1.1,0l0.7-0.1l0.3-0.4L944.2,226.5z M928.4,211.2
		c-0.4,0-0.9-0.1-1.5-0.3c-0.6-0.2-1.1-0.4-1.4-0.6c-0.8-0.4-1.5-0.7-2.3-1.1c-0.7-0.4-1.4-0.5-2-0.5c-0.4,0-0.8,0.1-1.3,0.4
		l-1.1,0.9l2.8-8.5l1.9-6.1c0.2-0.8,0.5-0.8,0.8,0l2.5,7.1l3,8.4C929.3,211.1,928.9,211.2,928.4,211.2z"/>
	<path class="st2" d="M607.8,81c1.6-4.7,4.1-9,7.4-13c3.3-4,7.6-7.3,12.8-9.9c5.2-2.6,11.3-3.9,18.5-3.9c5.8,0,11.2,0.9,16.2,2.6
		c5,1.8,9.3,4.3,13,7.6c3.6,3.3,6.5,7.4,8.6,12.1c2.1,4.7,3.1,10.1,3.1,16c0,5.7-1,11.1-3,16.2c-2,5.1-4.8,9.5-8.4,13.3
		c-3.6,3.8-8,6.8-13.1,9c-5.1,2.2-10.8,3.3-17,3.3c-7.1,0-13.1-1.2-18.2-3.7c-5.1-2.4-9.3-5.6-12.6-9.5c-3.3-3.9-5.7-8.2-7.3-13
		c-1.6-4.8-2.4-9.4-2.4-14C605.4,90.1,606.2,85.7,607.8,81 M657.4,95.5l-0.3,0l0.1-0.1c-0.7-0.9-2.8-1.2-4.1-2l-1-1.1l-0.1-0.6
		l-0.3,0.1c-2.5-3-4.1-6.9-4.1-6.9c0,0-0.1,0.3-0.4,0.8c-0.4-0.2-0.8,0.1-1.6,1.5c-0.4,0.7-0.7,1.8-1.1,2.4
		c-0.6,0.9-1.6,0.9-2.1,1.7c-0.5,0.6-0.4,1.8-0.9,2.5l-1,0.7c-0.8,0.3-1.7,0.6-2.4,0.9l0,0l2.3-1.9c-1.4,0.8-3,1.6-3.1,2.6
		c0.9,0.3,2.3,0.9,3.1,1.4c1.1,0.6,1.6,2,3,1.4c-0.2,1.2,0.9,2.7,1.7,3.6c0.6,0.7,1.3,0.7,1.9,1.6c0.3,0.5,0.4,1.1,0.6,1.7l0,0.3
		l0-0.2l0.2,0.4c0.4-1.3,1-2.4,1.8-3.5l0.8-1.4l0.3-0.8l-0.2-0.8c0.5-0.6,0.9-0.2,1.1-0.4c0.5-0.4,1-1.1,1.5-1.5
		c1.2-0.9,2.7-1.1,3.7-2.3L657.4,95.5z M618.6,107.5c1.6,4.8,3.9,8.8,6.9,12.2c2.9,3.4,6.4,5.9,10.3,7.8c4,1.8,8.3,2.7,13,2.7
		c2.4,0,5.1-0.4,8.3-1.3c3.2-0.8,6.2-2.5,9.2-5c2.9-2.5,5.4-6,7.5-10.5c2-4.5,3.1-10.5,3.1-17.9c0-6.1-0.9-11.5-2.5-16.2
		c-1.7-4.7-4-8.6-6.8-11.7c-2.9-3.1-6.2-5.5-9.9-7.1c-3.7-1.6-7.6-2.4-11.7-2.4c-4.3,0-8.3,0.7-11.9,2.1c-3.6,1.4-6.8,3.5-9.4,6.3
		c-2.6,2.8-4.7,6.2-6.2,10.4c-1.5,4.2-2.2,9-2.2,14.5C616.1,97.4,616.9,102.7,618.6,107.5z"/>
	<path class="st0" d="M650.9,93.8l-1.3,1.1C650.2,94.5,650.7,94.2,650.9,93.8"/>
</g>
</svg>
