<?xml version="1.0" encoding="utf-8"?>
<!-- Generator: Adobe Illustrator 22.0.1, SVG Export Plug-In . SVG Version: 6.00 Build 0)  -->
<svg version="1.1" id="Capa_1" xmlns="http://www.w3.org/2000/svg" xmlns:xlink="http://www.w3.org/1999/xlink" x="0px" y="0px"
	 viewBox="0 0 292.3 161.6" style="enable-background:new 0 0 292.3 161.6;" xml:space="preserve">
<style type="text/css">
	.st0{fill:none;stroke:#FFFFFF;stroke-width:4;stroke-linecap:round;stroke-linejoin:round;stroke-miterlimit:22.9256;}
</style>
<path class="st0" d="M188.7,96.9l37.6-48.2c10.1-13.4,11.8-27-7.5-8.7l-68.4,62.3c-26.4,30.3-4.2,40,39.2,27.8 M257.2,126.1
	c-44.9-20.8-140.6-41.2-215.8-52.7c-19.5-1.1-3.1,7.4,3.2,9.3c14.4,4.3,58.4,14.6,58.4,14.6c19.3,5,12.9,30.7,7.5,42.4
	c0,0,42.6-56,54.5-76.2c4.4-7.6,15-31.7,15-31.7c5.1-14.8,4.2-26-8.9-10c-6.4,7.7-9.6,15.7-9.6,23.9c0.9,13.5,19.9,25.7,41.7,37.4
	l11.4,6.1C149.2,77.8,38.7,21.3,58.9,46.3c12,14.9,116.8,23.9,116.8,23.9"/>
</svg>
